<svg width="28" height="28" viewBox="0 0 28 28" fill="none" xmlns="http://www.w3.org/2000/svg">
<path d="M14.2491 21C14.183 21 14.1197 20.9724 14.073 20.9233C14.0263 20.8741 14 20.8075 14 20.738V7.26198C14 7.1925 14.0263 7.12585 14.073 7.07672C14.1197 7.02759 14.183 7 14.2491 7C14.3152 7 14.3786 7.02759 14.4253 7.07672C14.472 7.12585 14.4982 7.1925 14.4982 7.26198V20.7066C14.5024 20.7435 14.4992 20.781 14.4886 20.8165C14.478 20.852 14.4603 20.8848 14.4367 20.9125C14.4131 20.9403 14.3842 20.9625 14.3519 20.9775C14.3195 20.9926 14.2845 21.0003 14.2491 21Z" fill="white"/>
<path d="M20.7374 14.5H7.26257C7.19293 14.5 7.12616 14.4736 7.07692 14.4268C7.02768 14.3799 7 14.3163 7 14.25C7 14.1837 7.02768 14.1201 7.07692 14.0732C7.12616 14.0263 7.19293 14 7.26257 14H20.7374C20.8071 14 20.8738 14.0263 20.9231 14.0732C20.9723 14.1201 21 14.1837 21 14.25C21 14.3163 20.9723 14.3799 20.9231 14.4268C20.8738 14.4736 20.8071 14.5 20.7374 14.5Z" fill="white"/>
<path d="M14 28C11.231 28 8.52431 27.1789 6.22202 25.6406C3.91973 24.1023 2.12533 21.9157 1.0657 19.3576C0.00607444 16.7994 -0.271184 13.9845 0.26901 11.2687C0.809203 8.553 2.14256 6.05846 4.1005 4.10052C6.05843 2.14259 8.55298 0.809203 11.2687 0.269009C13.9845 -0.271184 16.7994 0.00607443 19.3576 1.0657C21.9158 2.12533 24.1023 3.91972 25.6406 6.22201C27.179 8.5243 28 11.2311 28 14C28 17.713 26.525 21.274 23.8995 23.8995C21.274 26.525 17.713 28 14 28V28ZM14 0.469998C11.326 0.469998 8.71204 1.26294 6.48868 2.74853C4.26533 4.23413 2.53242 6.34567 1.50912 8.81613C0.485825 11.2866 0.218102 14.005 0.739774 16.6276C1.26145 19.2502 2.54911 21.6593 4.43991 23.5501C6.33072 25.4409 8.73978 26.7285 11.3624 27.2502C13.985 27.7719 16.7034 27.5042 19.1739 26.4809C21.6443 25.4576 23.7559 23.7247 25.2415 21.5013C26.7271 19.278 27.52 16.664 27.52 13.99C27.5174 10.4051 26.0921 6.96778 23.5572 4.43286C21.0223 1.89794 17.5849 0.472647 14 0.469998V0.469998Z" fill="white"/>
</svg>
