<svg width="137" height="301" viewBox="0 0 137 301" fill="none" xmlns="http://www.w3.org/2000/svg">
<path d="M55.1369 147.91H29.4242C29.3491 147.91 29.2771 147.881 29.224 147.828C29.1709 147.774 29.1411 147.702 29.1411 147.627C29.1371 147.588 29.1415 147.548 29.1539 147.51C29.1663 147.473 29.1866 147.438 29.2133 147.409C29.24 147.379 29.2726 147.356 29.3089 147.34C29.3452 147.324 29.3845 147.316 29.4242 147.316H55.1369C55.2195 147.316 55.2987 147.349 55.3572 147.407C55.4156 147.466 55.4484 147.545 55.4484 147.627C55.4413 147.705 55.4054 147.777 55.3477 147.83C55.29 147.882 55.2148 147.911 55.1369 147.91ZM58.5634 147.91H57.4307C57.3556 147.91 57.2835 147.881 57.2304 147.828C57.1773 147.774 57.1475 147.702 57.1475 147.627C57.1435 147.588 57.1479 147.548 57.1603 147.51C57.1727 147.473 57.193 147.438 57.2197 147.409C57.2464 147.379 57.2789 147.356 57.3153 147.34C57.3516 147.324 57.391 147.316 57.4307 147.316H58.5634C58.6031 147.316 58.6423 147.324 58.6787 147.34C58.715 147.356 58.7476 147.379 58.7743 147.409C58.801 147.438 58.8212 147.473 58.8337 147.51C58.8461 147.548 58.8505 147.588 58.8466 147.627C58.8466 147.702 58.8167 147.774 58.7636 147.828C58.7105 147.881 58.6385 147.91 58.5634 147.91ZM84.4459 147.91H60.8571C60.782 147.91 60.71 147.881 60.6569 147.828C60.6038 147.774 60.5739 147.702 60.5739 147.627C60.5699 147.588 60.5743 147.548 60.5868 147.51C60.5992 147.473 60.6194 147.438 60.6462 147.409C60.6729 147.379 60.7054 147.356 60.7417 147.34C60.7781 147.324 60.8174 147.316 60.8571 147.316H84.4459C84.5235 147.323 84.5957 147.359 84.6481 147.417C84.7005 147.474 84.7294 147.549 84.7291 147.627C84.7227 147.7 84.6908 147.769 84.639 147.82C84.5872 147.872 84.5188 147.904 84.4459 147.91Z" fill="#A2A2A2"/>
<path d="M71.9888 210.805C71.9217 210.798 71.8567 210.777 71.7975 210.745C71.7383 210.713 71.6861 210.669 71.644 210.616C71.6018 210.563 71.5705 210.503 71.5519 210.438C71.5334 210.373 71.5278 210.305 71.5357 210.238V73.4912C71.5278 73.4242 71.5334 73.3563 71.5519 73.2914C71.5705 73.2265 71.6018 73.1661 71.644 73.1134C71.6861 73.0607 71.7383 73.0168 71.7975 72.9844C71.8567 72.9521 71.9217 72.9318 71.9888 72.9248C72.2437 72.9248 72.4419 73.1514 72.4419 73.4912V210.238C72.4498 210.305 72.4442 210.373 72.4257 210.438C72.4071 210.503 72.3759 210.563 72.3337 210.616C72.2916 210.669 72.2393 210.713 72.1801 210.745C72.1209 210.777 72.0559 210.798 71.9888 210.805Z" fill="#A2A2A2"/>
<path d="M109.536 203.159C109.459 203.152 109.386 203.116 109.334 203.058C109.282 203.001 109.253 202.925 109.253 202.847V154.169C109.259 154.096 109.291 154.028 109.343 153.976C109.395 153.924 109.463 153.892 109.536 153.886C109.573 153.886 109.61 153.893 109.644 153.907C109.679 153.921 109.71 153.942 109.736 153.969C109.763 153.995 109.783 154.026 109.798 154.06C109.812 154.095 109.819 154.132 109.819 154.169V202.734C109.823 202.774 109.819 202.813 109.806 202.851C109.794 202.889 109.774 202.924 109.747 202.953C109.72 202.982 109.688 203.006 109.651 203.022C109.615 203.038 109.576 203.046 109.536 203.046" fill="#A2A2A2"/>
<path d="M109.536 138.226C109.463 138.219 109.395 138.188 109.343 138.136C109.291 138.084 109.259 138.016 109.253 137.943V91.8694C109.253 91.8322 109.26 91.7954 109.275 91.761C109.289 91.7266 109.31 91.6953 109.336 91.669C109.362 91.6427 109.393 91.6219 109.428 91.6077C109.462 91.5935 109.499 91.5863 109.536 91.5863C109.574 91.5817 109.613 91.5859 109.65 91.5985C109.686 91.6111 109.719 91.6318 109.746 91.659C109.774 91.6863 109.794 91.7194 109.807 91.7558C109.82 91.7922 109.824 91.8311 109.819 91.8694V137.829C109.819 137.866 109.812 137.903 109.798 137.938C109.783 137.972 109.763 138.003 109.736 138.03C109.71 138.056 109.679 138.077 109.644 138.091C109.61 138.105 109.573 138.113 109.536 138.113" fill="#A2A2A2"/>
<path d="M108.092 95.211L109.536 84.9316L110.98 95.211H108.092Z" fill="#A2A2A2"/>
<path d="M111.346 197.467L109.534 210.238L107.75 197.467H111.346Z" fill="#A2A2A2"/>
<path d="M107.494 147.769C107.446 148.546 107.666 149.315 108.117 149.949C108.29 150.168 108.509 150.344 108.759 150.467C109.009 150.589 109.283 150.654 109.561 150.657C109.838 150.66 110.111 150.6 110.361 150.482C110.611 150.365 110.831 150.192 111.006 149.978C111.447 149.373 111.658 148.629 111.6 147.882C111.673 147.068 111.452 146.254 110.977 145.588C110.806 145.36 110.584 145.174 110.328 145.047C110.072 144.919 109.79 144.852 109.505 144.852C109.229 144.846 108.956 144.908 108.709 145.031C108.463 145.155 108.25 145.336 108.089 145.56C107.635 146.203 107.424 146.985 107.494 147.769ZM111.572 151.535V150.601C111.349 150.959 111.035 151.253 110.662 151.452C110.289 151.65 109.87 151.748 109.448 151.734C108.851 151.744 108.267 151.566 107.777 151.224C107.262 150.886 106.857 150.403 106.616 149.836C106.326 149.186 106.181 148.481 106.192 147.769C106.177 147.062 106.302 146.36 106.56 145.702C106.791 145.13 107.185 144.638 107.692 144.286C108.202 143.969 108.791 143.802 109.391 143.805C109.815 143.79 110.235 143.888 110.609 144.088C110.956 144.272 111.257 144.534 111.487 144.852V141.086H112.761V151.535H111.572Z" fill="#A2A2A2"/>
<path d="M114.094 85.2148H97.3867C97.3116 85.2148 97.2396 85.185 97.1865 85.1319C97.1334 85.0788 97.1035 85.0067 97.1035 84.9315C97.1099 84.8586 97.1418 84.7903 97.1936 84.7385C97.2454 84.6867 97.3138 84.6548 97.3867 84.6484H114.094C114.131 84.6484 114.168 84.6558 114.203 84.67C114.237 84.6843 114.268 84.7051 114.294 84.7314C114.321 84.7577 114.342 84.7888 114.356 84.8232C114.37 84.8575 114.377 84.8944 114.377 84.9315C114.382 84.9698 114.378 85.0087 114.365 85.0451C114.353 85.0815 114.332 85.1146 114.305 85.1419C114.277 85.1692 114.244 85.1899 114.208 85.2026C114.171 85.2152 114.133 85.2194 114.094 85.2148Z" fill="#A2A2A2"/>
<path d="M98.9996 85.2148H83.0566C83.0171 85.2188 82.9772 85.2143 82.9395 85.2019C82.9018 85.1894 82.8671 85.1693 82.8378 85.1426C82.8084 85.1159 82.7849 85.0832 82.769 85.0468C82.753 85.0105 82.7449 84.9712 82.7451 84.9316C82.7522 84.8539 82.7881 84.7818 82.8458 84.7293C82.9035 84.6769 82.9786 84.6481 83.0566 84.6484H98.9996C99.0725 84.6548 99.1409 84.6867 99.1927 84.7385C99.2445 84.7903 99.2764 84.8586 99.2828 84.9316C99.2828 85.0067 99.2529 85.0788 99.1998 85.1319C99.1467 85.185 99.0747 85.2148 98.9996 85.2148Z" fill="#A2A2A2"/>
<path d="M114.095 210.521H83.8516C83.7765 210.521 83.7044 210.492 83.6513 210.439C83.5982 210.385 83.5684 210.313 83.5684 210.238C83.5684 210.163 83.5982 210.091 83.6513 210.038C83.7044 209.985 83.7765 209.955 83.8516 209.955H114.095C114.17 209.955 114.242 209.985 114.295 210.038C114.348 210.091 114.378 210.163 114.378 210.238C114.378 210.313 114.348 210.385 114.295 210.439C114.242 210.492 114.17 210.521 114.095 210.521Z" fill="#A2A2A2"/>
<path d="M33.1894 76.7192C33.0639 76.7124 32.9454 76.6595 32.8566 76.5706C32.7677 76.4818 32.7148 76.3632 32.708 76.2377V47.9198C32.7152 47.7971 32.7691 47.6819 32.8586 47.5976C32.9481 47.5134 33.0665 47.4666 33.1894 47.4668C33.3096 47.4668 33.4248 47.5146 33.5098 47.5995C33.5948 47.6845 33.6425 47.7996 33.6425 47.9198V76.2377C33.6427 76.3606 33.5959 76.479 33.5117 76.5685C33.4274 76.658 33.3121 76.712 33.1894 76.7192Z" fill="#A2A2A2"/>
<path d="M81.0468 76.6909C80.9873 76.6909 80.9285 76.6791 80.8735 76.6563C80.8185 76.6336 80.7686 76.6002 80.7265 76.5582C80.6844 76.5161 80.651 76.4662 80.6282 76.4113C80.6055 76.3563 80.5938 76.2972 80.5938 76.2377V47.9198C80.5938 47.7996 80.6415 47.6845 80.7265 47.5995C80.8115 47.5146 80.9267 47.4668 81.0468 47.4668C81.167 47.4668 81.2822 47.5146 81.3672 47.5995C81.4522 47.6845 81.4999 47.7996 81.4999 47.9198V76.2377C81.4999 76.2972 81.4882 76.3563 81.4655 76.4113C81.4427 76.4662 81.4093 76.5161 81.3672 76.5582C81.3251 76.6002 81.2752 76.6336 81.2202 76.6563C81.1652 76.6791 81.1063 76.6909 81.0468 76.6909Z" fill="#A2A2A2"/>
<path d="M42.365 45.0316H72.0138V49.3925H79.7446C80.113 49.3889 80.4665 49.2474 80.7357 48.996C80.9921 48.73 81.1344 48.3744 81.1322 48.0049V37.7255C81.1248 36.6838 80.7077 35.687 79.9711 34.9504C79.2346 34.2138 78.2376 33.7967 77.1959 33.7893H37.1261C36.6005 33.7839 36.0791 33.8839 35.5928 34.0833C35.1064 34.2827 34.6649 34.5776 34.2943 34.9504C33.9189 35.319 33.6224 35.76 33.4228 36.2469C33.2232 36.7337 33.1247 37.2561 33.1333 37.7822V48.0898C33.1333 48.4428 33.2735 48.7813 33.5231 49.0309C33.7727 49.2805 34.1113 49.4208 34.4643 49.4208H42.365V45.0316Z" fill="#434343"/>
<path d="M37.1256 34.1009C36.6681 34.1007 36.2151 34.1908 35.7924 34.3657C35.3696 34.5406 34.9855 34.7971 34.6619 35.1205C34.0123 35.7878 33.6468 36.6812 33.6425 37.6125V47.9201C33.6425 48.1529 33.735 48.3763 33.8996 48.5409C34.0643 48.7056 34.2875 48.7979 34.5204 48.7979H41.8264V45.0318C41.8336 44.9091 41.8875 44.7937 41.977 44.7094C42.0665 44.6252 42.1849 44.5784 42.3078 44.5786H71.9283C72.0485 44.5786 72.1637 44.6264 72.2487 44.7113C72.3336 44.7963 72.3814 44.9116 72.3814 45.0318V48.7979H79.6591C79.7792 48.8007 79.8985 48.7796 80.0103 48.7359C80.1222 48.6921 80.2241 48.6267 80.3104 48.5432C80.4839 48.3584 80.5845 48.1169 80.5936 47.8636V37.5842C80.5936 36.6604 80.2266 35.7744 79.5734 35.1212C78.9202 34.468 78.0342 34.1009 77.1105 34.1009H37.1256ZM42.3078 49.7041H34.5204C34.0446 49.7042 33.5878 49.5172 33.2487 49.1834C32.9097 48.8496 32.7154 48.3958 32.708 47.9201V37.6125C32.7088 37.033 32.8243 36.4594 33.0479 35.9247C33.2714 35.3901 33.5986 34.9049 34.0107 34.4974C34.4162 34.0829 34.9009 33.754 35.436 33.5302C35.9711 33.3065 36.5456 33.1925 37.1256 33.1949H77.1105C77.6879 33.1912 78.2604 33.302 78.7946 33.5212C79.3288 33.7405 79.8143 34.0637 80.2226 34.472C80.6309 34.8804 80.954 35.3658 81.1733 35.9C81.3925 36.4342 81.5035 37.0067 81.4998 37.5842V47.8636C81.5016 48.1056 81.455 48.3456 81.3625 48.5693C81.2701 48.793 81.1339 48.9959 80.9617 49.1661C80.7925 49.3395 80.5897 49.4768 80.3658 49.5693C80.1418 49.6618 79.9014 49.7076 79.6591 49.7041H71.9283C71.8082 49.7041 71.6929 49.6564 71.608 49.5714C71.523 49.4864 71.4752 49.3713 71.4752 49.2511V45.4848H42.7609V49.3927C42.8022 49.5022 42.8022 49.623 42.7609 49.7325C42.6608 49.7719 42.5495 49.7719 42.4494 49.7325" fill="#A2A2A2"/>
<path d="M77.9341 52.5645H72.1855V60.9466H77.9341V52.5645Z" fill="#434343"/>
<path d="M72.5224 60.7197H77.5629V53.0173H72.5224V60.7197ZM77.9027 61.3993H72.2392C72.1491 61.3993 72.0627 61.3635 71.999 61.2997C71.9352 61.236 71.8994 61.1496 71.8994 61.0595V52.5641C71.8994 52.474 71.9352 52.3876 71.999 52.3239C72.0627 52.2602 72.1491 52.2243 72.2392 52.2243H77.9027C77.9497 52.2204 77.997 52.2263 78.0415 52.2416C78.0861 52.2569 78.1269 52.2814 78.1616 52.3133C78.1962 52.3453 78.2238 52.384 78.2426 52.4272C78.2614 52.4704 78.271 52.517 78.2709 52.5641V61.0595C78.271 61.1066 78.2614 61.1532 78.2426 61.1964C78.2238 61.2396 78.1962 61.2785 78.1616 61.3105C78.1269 61.3424 78.0861 61.3667 78.0415 61.382C77.997 61.3973 77.9497 61.4032 77.9027 61.3993Z" fill="#A2A2A2"/>
<path d="M77.9032 67.4307C77.8153 67.4242 77.7326 67.3863 77.6703 67.3239C77.6079 67.2615 77.57 67.1789 77.5635 67.0909V60.946C77.5635 60.8558 77.5993 60.7693 77.663 60.7055C77.7267 60.6418 77.8131 60.6062 77.9032 60.6062C77.9502 60.6022 77.9975 60.6081 78.042 60.6234C78.0866 60.6388 78.1274 60.663 78.162 60.695C78.1967 60.727 78.2243 60.7657 78.2431 60.8089C78.2619 60.8521 78.2715 60.8989 78.2714 60.946V67.0909C78.2642 67.1836 78.2223 67.27 78.154 67.3331C78.0857 67.3961 77.9962 67.431 77.9032 67.4307Z" fill="#A2A2A2"/>
<path d="M42.0835 52.5645H36.335V60.9466H42.0835V52.5645Z" fill="#434343"/>
<path d="M36.7031 60.7195H41.7437V53.0171H36.7031V60.7195ZM42.0835 61.3991H36.4199C36.3298 61.3991 36.2433 61.3633 36.1796 61.2995C36.1159 61.2358 36.0801 61.1494 36.0801 61.0593V52.5639C36.0801 52.4738 36.1159 52.3874 36.1796 52.3237C36.2433 52.2599 36.3298 52.2241 36.4199 52.2241H42.0835C42.1736 52.2241 42.2601 52.2599 42.3238 52.3237C42.3875 52.3874 42.4233 52.4738 42.4233 52.5639V61.0593C42.4233 61.1494 42.3875 61.2358 42.3238 61.2995C42.2601 61.3633 42.1736 61.3991 42.0835 61.3991Z" fill="#A2A2A2"/>
<path d="M36.3331 67.3461C36.286 67.3463 36.2394 67.3366 36.1962 67.3178C36.153 67.299 36.1142 67.2713 36.0823 67.2367C36.0503 67.2021 36.026 67.1611 36.0107 67.1166C35.9953 67.072 35.9894 67.0249 35.9934 66.978V60.9462C35.9934 60.8561 36.0291 60.7696 36.0929 60.7058C36.1566 60.6421 36.243 60.6064 36.3331 60.6064C36.4233 60.6064 36.5097 60.6421 36.5734 60.7058C36.6371 60.7696 36.673 60.8561 36.673 60.9462V66.978C36.6732 67.0709 36.6383 67.1605 36.5753 67.2288C36.5123 67.297 36.4258 67.339 36.3331 67.3461Z" fill="#A2A2A2"/>
<path d="M69.6356 72.3869C69.9345 72.3917 70.2313 72.3364 70.5086 72.2246C70.7858 72.1127 71.0378 71.9465 71.2497 71.7356C71.68 71.2965 71.9235 70.7079 71.9293 70.0931V47.4388C71.9235 46.8241 71.68 46.2354 71.2497 45.7963C70.821 45.3678 70.2417 45.1239 69.6356 45.1167H44.6592C44.3477 45.1181 44.0395 45.1815 43.7527 45.303C43.4659 45.4246 43.2061 45.6018 42.9884 45.8246C42.7694 46.0437 42.5965 46.3044 42.4798 46.5914C42.363 46.8783 42.3049 47.1857 42.3088 47.4955V70.1498C42.3028 70.7836 42.547 71.394 42.9884 71.8488C43.4496 72.2802 44.056 72.5228 44.6875 72.5284L69.6356 72.3869Z" fill="#D3D3D3"/>
<path d="M44.6589 45.513C44.4076 45.5052 44.1574 45.5489 43.9237 45.6414C43.6899 45.734 43.4776 45.8735 43.2998 46.0513C43.1221 46.229 42.9826 46.4413 42.89 46.675C42.7975 46.9088 42.7538 47.159 42.7616 47.4103V70.0646C42.7616 70.5753 42.9645 71.0651 43.3256 71.4262C43.6868 71.7874 44.1766 71.9902 44.6873 71.9902H69.6354C70.1231 71.9877 70.5906 71.7946 70.938 71.4522C71.1101 71.282 71.2464 71.0791 71.3388 70.8554C71.4312 70.6316 71.4779 70.3917 71.476 70.1497V47.4953C71.4779 47.2533 71.4312 47.0132 71.3388 46.7894C71.2464 46.5657 71.1101 46.3628 70.938 46.1926C70.7688 46.0192 70.566 45.8821 70.342 45.7896C70.1181 45.6971 69.8776 45.6511 69.6354 45.6546L44.6589 45.513ZM69.6354 72.8399H44.6873C43.9362 72.8399 43.2159 72.5415 42.6849 72.0104C42.1538 71.4794 41.8555 70.7591 41.8555 70.0081V47.3538C41.8586 46.6109 42.1535 45.8989 42.6767 45.3715C43.1995 44.8379 43.912 44.5326 44.6589 44.522H69.6354C70.3684 44.5325 71.0689 44.8268 71.5893 45.3431C72.0953 45.8681 72.3793 46.568 72.3822 47.2971V69.9514C72.3793 70.6805 72.0953 71.3804 71.5893 71.9053C71.0644 72.4113 70.3645 72.6953 69.6354 72.6982" fill="#A2A2A2"/>
<path d="M71.986 222.755V210.238H38.7407C37.352 210.128 35.9763 210.573 34.9149 211.476C33.8535 212.378 33.1927 213.664 33.0771 215.052C33.0771 217.884 33.0771 226.379 33.0771 226.379V226.832L33.2754 227.285L33.5585 227.654L33.9267 227.937L34.3514 228.135H42.3654V222.641L71.986 222.755Z" fill="#434343"/>
<path d="M34.579 227.796H41.8567V222.755C41.8567 222.635 41.9044 222.52 41.9894 222.435C42.0744 222.35 42.1896 222.302 42.3098 222.302H71.5339V210.805H38.7417C37.4917 210.726 36.2602 211.137 35.3085 211.951C34.3568 212.766 33.7599 213.919 33.6445 215.166C33.6445 217.998 33.6445 226.493 33.6445 226.493V226.833L33.7861 227.173L33.9843 227.456L34.2675 227.654L34.579 227.796ZM42.3098 228.702H34.2958L33.871 228.504L33.5029 228.22L33.2197 227.852L33.0215 227.399V226.946C33.0215 226.946 33.0215 218.196 33.0215 215.449C33.1233 213.956 33.8119 212.564 34.9368 211.577C36.0616 210.59 37.5314 210.089 39.0249 210.182H72.2136C72.3395 210.181 72.4612 210.227 72.5554 210.311C72.6495 210.394 72.7093 210.51 72.7233 210.635V223.151C72.7233 223.272 72.6755 223.387 72.5905 223.472C72.5056 223.557 72.3903 223.605 72.2702 223.605H42.7629V228.645C42.7561 228.763 42.7062 228.874 42.6227 228.958C42.5391 229.041 42.4277 229.092 42.3098 229.098" fill="#A2A2A2"/>
<path d="M71.9307 210.238H78.1889L78.9252 210.352L79.6331 210.635L80.2278 211.088L80.6809 211.682L80.9641 212.362L81.049 213.098L81.134 226.549L81.049 227.002L80.8791 227.427L80.5959 227.795L80.2278 228.107L79.803 228.277L71.9873 228.248V222.755V210.238" fill="#434343"/>
<path d="M72.4392 227.796H79.6886H80.0001L80.255 227.598L80.4815 227.314L80.6231 227.003V226.578V213.212V212.589L80.3683 212.023L80.0001 211.513L79.4903 211.145L78.924 210.89H78.2444H72.5809L72.4392 227.796ZM79.7735 228.73H71.9861C71.866 228.73 71.7508 228.683 71.6658 228.598C71.5808 228.513 71.533 228.397 71.533 228.277V210.494C71.5046 210.421 71.5046 210.34 71.533 210.267C71.533 210.147 71.5808 210.032 71.6658 209.947C71.7508 209.862 71.866 209.814 71.9861 209.814H78.2727H79.0656H79.2072L79.8868 210.097L80.4815 210.55L80.9346 211.145L81.2178 211.824V212.589V226.068V226.606L81.0479 227.031L80.7647 227.399L80.3965 227.683L79.9718 227.881H79.7735" fill="#A2A2A2"/>
<path d="M71.9863 84.9316H78.188L78.9243 84.8466L79.6322 84.5635L80.2269 84.1104L80.68 83.5157L80.9632 82.8361L81.0481 82.0998L81.1331 68.6488L81.0481 68.1957L80.8782 67.7426L80.595 67.3745L80.2269 67.0913L79.8021 66.9214H71.9863V72.4434V84.9316Z" fill="#434343"/>
<path d="M72.4394 84.4784H78.103H78.726L79.2924 84.2518L79.8021 83.8553L80.1703 83.374L80.4251 82.7792V82.0996V68.7337V68.3939L80.2836 68.0541L80.057 67.7708L79.8021 67.5725H79.4906H72.2412L72.4394 84.4784ZM71.9863 85.3846C71.8661 85.3846 71.7509 85.3368 71.6659 85.2519C71.581 85.1669 71.5332 85.0516 71.5332 84.9314V66.9213C71.5332 66.8011 71.581 66.6858 71.6659 66.6008C71.7509 66.5159 71.8661 66.4683 71.9863 66.4683H79.972L80.3968 66.6663L80.7649 66.9496L81.0481 67.3178L81.218 67.7424V68.224V81.7031V82.5245L80.9348 83.2041L80.4817 83.7988L79.8871 84.2518L79.2075 84.5349H79.0658H78.3296L71.9863 85.3846Z" fill="#A2A2A2"/>
<path d="M71.986 72.4151V84.9316H38.7407C37.352 85.0413 35.9763 84.5963 34.9149 83.6941C33.8535 82.7919 33.1927 81.5058 33.0771 80.1175C33.0771 77.2857 33.0771 68.7904 33.0771 68.7904V68.3374L33.2754 67.8843L33.5585 67.5162L33.9267 67.2329L34.3514 67.0347H42.3654V72.5283L71.986 72.4151Z" fill="#434343"/>
<path d="M33.5849 68.7337C33.5849 68.7337 33.5849 77.399 33.5849 80.0609C33.7002 81.3081 34.2972 82.4611 35.2489 83.2754C36.2006 84.0896 37.4321 84.5008 38.6821 84.4218H71.5308V72.8115H42.3634C42.2433 72.8115 42.128 72.7638 42.043 72.6788C41.9581 72.5938 41.9103 72.4785 41.9103 72.3584V67.3179H34.6326H34.3211L34.038 67.5161L33.8397 67.7992L33.6981 68.139L33.5849 68.7337ZM71.9839 85.3847H38.7387C37.2452 85.478 35.7755 84.9763 34.6506 83.9894C33.5258 83.0025 32.8372 81.6104 32.7354 80.1174C32.7354 77.2856 32.7354 68.7903 32.7354 68.7903V68.2522L32.9336 67.7992L33.2168 67.4027L33.5849 67.1196L34.0096 66.9497H34.1795H42.3634C42.4814 66.9565 42.5928 67.0063 42.6763 67.0899C42.7599 67.1734 42.8098 67.2848 42.8165 67.4027V72.0469H72.0406C72.1608 72.0469 72.276 72.0947 72.361 72.1796C72.4459 72.2646 72.4937 72.3797 72.4937 72.4999V85.0166C72.4937 85.1367 72.4459 85.2519 72.361 85.3368C72.276 85.4218 72.1608 85.4696 72.0406 85.4696" fill="#A2A2A2"/>
<path d="M71.9295 225.53C71.8093 225.53 71.6941 225.482 71.6091 225.397C71.5241 225.312 71.4764 225.197 71.4764 225.077C71.4782 224.835 71.4316 224.595 71.3391 224.371C71.2467 224.147 71.1105 223.945 70.9383 223.774C70.591 223.432 70.1235 223.239 69.6357 223.236C69.5156 223.236 69.4003 223.189 69.3154 223.104C69.2304 223.019 69.1826 222.903 69.1826 222.783C69.1826 222.663 69.2304 222.548 69.3154 222.463C69.4003 222.378 69.5156 222.33 69.6357 222.33C70.3868 222.33 71.107 222.628 71.6381 223.16C72.1691 223.691 72.4675 224.411 72.4675 225.162C72.4675 225.221 72.4558 225.28 72.433 225.335C72.4103 225.39 72.3769 225.44 72.3348 225.482C72.2927 225.524 72.2428 225.558 72.1878 225.581C72.1328 225.603 72.0739 225.615 72.0144 225.615" fill="#A2A2A2"/>
<path d="M42.3642 225.615C42.2413 225.615 42.123 225.568 42.0334 225.484C41.9439 225.4 41.89 225.285 41.8828 225.162C41.8828 224.411 42.1812 223.691 42.7122 223.16C43.2433 222.628 43.9636 222.33 44.7146 222.33C44.8348 222.33 44.95 222.378 45.035 222.463C45.12 222.548 45.1677 222.663 45.1677 222.783C45.1677 222.903 45.12 223.019 45.035 223.104C44.95 223.189 44.8348 223.236 44.7146 223.236C44.2039 223.236 43.7141 223.439 43.353 223.8C42.9919 224.161 42.789 224.651 42.789 225.162C42.789 225.282 42.7412 225.397 42.6563 225.482C42.5713 225.567 42.4561 225.615 42.3359 225.615" fill="#A2A2A2"/>
<path d="M81.0468 213.636C80.9873 213.636 80.9285 213.625 80.8735 213.602C80.8185 213.579 80.7686 213.546 80.7265 213.504C80.6844 213.462 80.651 213.412 80.6282 213.357C80.6055 213.302 80.5938 213.243 80.5938 213.183V147.542C80.5938 147.422 80.6415 147.307 80.7265 147.222C80.8115 147.137 80.9267 147.089 81.0468 147.089C81.167 147.089 81.2822 147.137 81.3672 147.222C81.4522 147.307 81.4999 147.422 81.4999 147.542V213.098C81.4999 213.158 81.4882 213.217 81.4655 213.272C81.4427 213.327 81.4093 213.377 81.3672 213.419C81.3251 213.461 81.2752 213.494 81.2202 213.517C81.1652 213.54 81.1063 213.551 81.0468 213.551" fill="#A2A2A2"/>
<path d="M33.1894 215.307C33.0665 215.308 32.9481 215.261 32.8586 215.176C32.7691 215.092 32.7152 214.977 32.708 214.854V147.542C32.7152 147.42 32.7691 147.304 32.8586 147.22C32.9481 147.136 33.0665 147.089 33.1894 147.089C33.3074 147.096 33.4187 147.146 33.5023 147.23C33.5859 147.313 33.6358 147.424 33.6425 147.542V214.854C33.6425 214.974 33.5948 215.09 33.5098 215.175C33.4248 215.26 33.3096 215.307 33.1894 215.307Z" fill="#A2A2A2"/>
<path d="M81.0468 148.081C80.9873 148.081 80.9285 148.069 80.8735 148.046C80.8185 148.024 80.7686 147.99 80.7265 147.948C80.6844 147.906 80.651 147.856 80.6282 147.801C80.6055 147.746 80.5938 147.687 80.5938 147.628V82.0717C80.5938 81.9515 80.6415 81.8364 80.7265 81.7514C80.8115 81.6664 80.9267 81.6187 81.0468 81.6187C81.167 81.6187 81.2822 81.6664 81.3672 81.7514C81.4522 81.8364 81.4999 81.9515 81.4999 82.0717V147.628C81.4999 147.687 81.4882 147.746 81.4655 147.801C81.4427 147.856 81.4093 147.906 81.3672 147.948C81.3251 147.99 81.2752 148.024 81.2202 148.046C81.1652 148.069 81.1063 148.081 81.0468 148.081Z" fill="#A2A2A2"/>
<path d="M33.1894 148.081C33.0665 148.081 32.9481 148.034 32.8586 147.95C32.7691 147.865 32.7152 147.75 32.708 147.628V80.3158C32.7152 80.1931 32.7691 80.0779 32.8586 79.9936C32.9481 79.9094 33.0665 79.8626 33.1894 79.8628C33.3096 79.8628 33.4248 79.9106 33.5098 79.9955C33.5948 80.0805 33.6425 80.1956 33.6425 80.3158V147.628C33.6358 147.746 33.5859 147.857 33.5023 147.94C33.4187 148.024 33.3074 148.074 33.1894 148.081Z" fill="#A2A2A2"/>
<path d="M33.1894 148.081C33.0665 148.081 32.9481 148.034 32.8586 147.95C32.7691 147.865 32.7152 147.75 32.708 147.628V80.3158C32.7152 80.1931 32.7691 80.0779 32.8586 79.9936C32.9481 79.9094 33.0665 79.8626 33.1894 79.8628C33.3096 79.8628 33.4248 79.9106 33.5098 79.9955C33.5948 80.0805 33.6425 80.1956 33.6425 80.3158V147.628C33.6358 147.746 33.5859 147.857 33.5023 147.94C33.4187 148.024 33.3074 148.074 33.1894 148.081Z" fill="#A2A2A2"/>
<path d="M33.1894 247.618C33.0665 247.618 32.9481 247.571 32.8586 247.487C32.7691 247.403 32.7152 247.287 32.708 247.165V218.847C32.7152 218.724 32.7691 218.609 32.8586 218.524C32.9481 218.44 33.0665 218.393 33.1894 218.394C33.3096 218.394 33.4248 218.441 33.5098 218.526C33.5948 218.611 33.6425 218.727 33.6425 218.847V247.165C33.6425 247.285 33.5948 247.4 33.5098 247.485C33.4248 247.57 33.3096 247.618 33.1894 247.618Z" fill="#A2A2A2"/>
<path d="M81.0468 247.759C80.9873 247.759 80.9285 247.748 80.8735 247.725C80.8185 247.702 80.7686 247.669 80.7265 247.627C80.6844 247.584 80.651 247.535 80.6282 247.48C80.6055 247.425 80.5938 247.366 80.5938 247.306V218.988C80.5938 218.868 80.6415 218.753 80.7265 218.668C80.8115 218.583 80.9267 218.535 81.0468 218.535C81.167 218.535 81.2822 218.583 81.3672 218.668C81.4522 218.753 81.4999 218.868 81.4999 218.988V247.306C81.4999 247.366 81.4882 247.425 81.4655 247.48C81.4427 247.535 81.4093 247.584 81.3672 247.627C81.3251 247.669 81.2752 247.702 81.2202 247.725C81.1652 247.748 81.1063 247.759 81.0468 247.759Z" fill="#A2A2A2"/>
<path d="M42.3654 250.109H72.0142V245.918H79.7451C80.1134 245.922 80.4669 246.063 80.7361 246.315C80.9925 246.581 81.1348 246.937 81.1326 247.306V257.585C81.1252 258.627 80.7081 259.624 79.9716 260.361C79.235 261.097 78.238 261.514 77.1964 261.522H37.1266C36.601 261.527 36.0796 261.427 35.5933 261.228C35.1069 261.028 34.6654 260.733 34.2948 260.361C33.9167 259.994 33.6183 259.553 33.4186 259.066C33.2188 258.579 33.1218 258.055 33.1338 257.529V247.221C33.1338 246.868 33.274 246.529 33.5236 246.28C33.7732 246.03 34.1118 245.89 34.4647 245.89H42.3654V250.109Z" fill="#434343"/>
<path d="M34.5194 246.372C34.2866 246.372 34.0633 246.465 33.8987 246.629C33.734 246.794 33.6415 247.017 33.6415 247.25V257.558C33.6398 258.49 34.0062 259.386 34.661 260.05C34.9846 260.373 35.3687 260.629 35.7914 260.804C36.2141 260.979 36.6671 261.069 37.1246 261.069H77.1095C78.0333 261.069 78.9193 260.702 79.5725 260.049C80.2257 259.396 80.5926 258.51 80.5926 257.586V247.307C80.5876 247.061 80.4859 246.827 80.3094 246.655C80.229 246.562 80.1287 246.489 80.016 246.44C79.9032 246.391 79.781 246.367 79.6582 246.372H72.3805V250.11C72.3807 250.233 72.3339 250.351 72.2496 250.441C72.1654 250.53 72.0501 250.584 71.9274 250.591H42.3635C42.2358 250.591 42.1133 250.541 42.023 250.45C41.9328 250.36 41.8821 250.238 41.8821 250.11V246.372H34.5194ZM76.9963 261.975H37.1246C35.9588 261.978 34.8392 261.52 34.0097 260.701C33.1888 259.861 32.7312 258.732 32.7354 257.558V247.25C32.7354 246.777 32.9233 246.323 33.2579 245.988C33.5924 245.654 34.0462 245.466 34.5194 245.466H42.3635C42.4836 245.466 42.5989 245.514 42.6839 245.599C42.7688 245.684 42.8166 245.799 42.8166 245.919V249.657H71.5309V245.919C71.5309 245.86 71.5426 245.8 71.5654 245.745C71.5881 245.691 71.6215 245.641 71.6636 245.599C71.7057 245.556 71.7556 245.523 71.8106 245.5C71.8656 245.478 71.9245 245.466 71.984 245.466H79.7148C80.203 245.466 80.6712 245.66 81.0164 246.005C81.3615 246.35 81.5554 246.818 81.5554 247.307V257.586C81.5592 258.163 81.4483 258.736 81.229 259.27C81.0098 259.804 80.6866 260.29 80.2783 260.698C79.8699 261.106 79.3846 261.429 78.8503 261.649C78.3161 261.868 77.7437 261.979 77.1662 261.975" fill="#A2A2A2"/>
<path d="M77.9341 234.224H72.1855V242.606H77.9341V234.224Z" fill="#434343"/>
<path d="M72.5224 242.266H77.5629V234.564H72.5224V242.266ZM77.9027 242.946H72.2392C72.1491 242.946 72.0627 242.91 71.999 242.846C71.9352 242.783 71.8994 242.696 71.8994 242.606V234.111C71.8994 234.02 71.9352 233.934 71.999 233.87C72.0627 233.807 72.1491 233.771 72.2392 233.771H77.9027C77.9497 233.767 77.997 233.773 78.0415 233.788C78.0861 233.803 78.1269 233.828 78.1616 233.86C78.1962 233.892 78.2238 233.93 78.2426 233.974C78.2614 234.017 78.271 234.063 78.2709 234.111V242.606C78.271 242.653 78.2614 242.7 78.2426 242.743C78.2238 242.786 78.1962 242.825 78.1616 242.857C78.1269 242.889 78.0861 242.913 78.0415 242.929C77.997 242.944 77.9497 242.95 77.9027 242.946Z" fill="#A2A2A2"/>
<path d="M77.9032 234.563C77.8131 234.563 77.7267 234.527 77.663 234.464C77.5993 234.4 77.5635 234.314 77.5635 234.223V228.277C77.5635 228.186 77.5993 228.1 77.663 228.036C77.7267 227.973 77.8131 227.937 77.9032 227.937C77.9502 227.933 77.9975 227.939 78.042 227.954C78.0866 227.969 78.1274 227.994 78.162 228.026C78.1967 228.058 78.2243 228.096 78.2431 228.14C78.2619 228.183 78.2715 228.229 78.2714 228.277V234.223C78.2715 234.271 78.2619 234.317 78.2431 234.36C78.2243 234.403 78.1967 234.442 78.162 234.474C78.1274 234.506 78.0866 234.531 78.042 234.546C77.9975 234.561 77.9502 234.567 77.9032 234.563Z" fill="#A2A2A2"/>
<path d="M42.0835 234.224H36.335V242.606H42.0835V234.224Z" fill="#434343"/>
<path d="M36.6992 242.266H41.7397V234.563H36.6992V242.266ZM42.0795 242.945H36.416C36.3258 242.945 36.2394 242.91 36.1757 242.846C36.112 242.782 36.0762 242.696 36.0762 242.606V234.11C36.0762 234.02 36.112 233.934 36.1757 233.87C36.2394 233.806 36.3258 233.771 36.416 233.771H42.0795C42.1697 233.771 42.2561 233.806 42.3198 233.87C42.3835 233.934 42.4194 234.02 42.4194 234.11V242.606C42.4194 242.696 42.3835 242.782 42.3198 242.846C42.2561 242.91 42.1697 242.945 42.0795 242.945Z" fill="#A2A2A2"/>
<path d="M36.3331 234.563C36.243 234.563 36.1566 234.528 36.0929 234.464C36.0291 234.4 35.9934 234.314 35.9934 234.224V228.192C35.9894 228.145 35.9953 228.098 36.0107 228.053C36.026 228.009 36.0503 227.968 36.0823 227.933C36.1142 227.898 36.153 227.871 36.1962 227.852C36.2394 227.833 36.286 227.824 36.3331 227.824C36.4258 227.831 36.5123 227.873 36.5753 227.941C36.6383 228.009 36.6732 228.099 36.673 228.192V234.224C36.673 234.314 36.6371 234.4 36.5734 234.464C36.5097 234.528 36.4233 234.563 36.3331 234.563Z" fill="#A2A2A2"/>
<path d="M69.6356 222.783C69.9345 222.778 70.2313 222.834 70.5086 222.945C70.7858 223.057 71.0378 223.224 71.2497 223.435C71.68 223.874 71.9235 224.462 71.9293 225.077V247.731C71.9265 248.347 71.6825 248.936 71.2497 249.374C70.8181 249.794 70.2383 250.028 69.6356 250.025H44.6592C44.3494 250.029 44.0421 249.971 43.7553 249.854C43.4684 249.737 43.2077 249.564 42.9887 249.345C42.7697 249.126 42.5967 248.866 42.48 248.579C42.3632 248.292 42.305 247.984 42.3088 247.675V225.02C42.3028 224.387 42.547 223.776 42.9884 223.321C43.4496 222.89 44.056 222.647 44.6875 222.642L69.6356 222.783Z" fill="#D3D3D3"/>
<path d="M69.6354 223.236H44.6873C44.1766 223.236 43.6868 223.439 43.3257 223.8C42.9645 224.162 42.7616 224.651 42.7616 225.162V247.816C42.7538 248.068 42.7975 248.318 42.8901 248.552C42.9826 248.785 43.1221 248.998 43.2999 249.175C43.4776 249.353 43.6899 249.493 43.9237 249.585C44.1574 249.678 44.4077 249.721 44.6589 249.714H69.6354C69.8779 249.719 70.1189 249.674 70.3431 249.581C70.5673 249.488 70.7698 249.35 70.938 249.176C71.1101 249.005 71.2464 248.802 71.3388 248.579C71.4312 248.355 71.4779 248.115 71.476 247.873V225.219C71.476 224.731 71.2821 224.262 70.9369 223.917C70.5917 223.572 70.1236 223.378 69.6354 223.378V223.236ZM69.6354 250.733H44.6589C43.9079 250.733 43.1876 250.435 42.6566 249.904C42.1255 249.373 41.8271 248.652 41.8271 247.901V225.247C41.8287 224.872 41.9046 224.502 42.0504 224.156C42.1962 223.811 42.4091 223.499 42.6767 223.236C42.9413 222.974 43.2551 222.766 43.6001 222.625C43.9451 222.485 44.3146 222.413 44.6873 222.415H69.6354C70.3864 222.415 71.1066 222.713 71.6377 223.245C72.1688 223.776 72.4672 224.496 72.4672 225.247V247.901C72.4714 248.266 72.4007 248.627 72.2594 248.963C72.1182 249.3 71.9093 249.603 71.6459 249.855C71.3992 250.118 71.1006 250.326 70.7692 250.468C70.4378 250.609 70.0806 250.68 69.7203 250.676" fill="#A2A2A2"/>
<path d="M71.9824 86.9989C71.8622 86.9989 71.747 86.9511 71.662 86.8661C71.5771 86.7811 71.5293 86.6658 71.5293 86.5457V84.9315C71.5293 84.8114 71.5771 84.6962 71.662 84.6113C71.747 84.5263 71.8622 84.4785 71.9824 84.4785C72.1025 84.4785 72.2178 84.5263 72.3028 84.6113C72.3877 84.6962 72.4354 84.8114 72.4354 84.9315V86.5457C72.4354 86.6658 72.3877 86.7811 72.3028 86.8661C72.2178 86.9511 72.1025 86.9989 71.9824 86.9989Z" fill="#A2A2A2"/>
<path d="M2.32509 150.487H4.53387C5.08851 150.512 5.64338 150.445 6.17631 150.289C6.52842 150.192 6.85001 150.007 7.1108 149.751C7.48333 149.386 7.74792 148.926 7.8754 148.42C8.0849 147.771 8.18068 147.091 8.15855 146.41C8.21015 145.536 8.02421 144.665 7.6205 143.889C7.32399 143.364 6.86766 142.948 6.31791 142.7C5.72846 142.536 5.11642 142.469 4.50557 142.502H2.32509V150.487ZM0.9375 151.733V141.256H4.53387C5.1555 141.197 5.78123 141.197 6.40286 141.256C6.96739 141.382 7.49241 141.644 7.932 142.02C8.49233 142.499 8.92119 143.113 9.17799 143.804C9.44932 144.607 9.58335 145.449 9.57444 146.296C9.58923 147.014 9.49375 147.731 9.29129 148.42C9.14185 148.957 8.90247 149.464 8.58334 149.921C8.33953 150.301 8.02173 150.629 7.64885 150.884C7.25669 151.126 6.82552 151.298 6.37451 151.394C5.82966 151.538 5.26723 151.604 4.70377 151.592L0.9375 151.733Z" fill="#A2A2A2"/>
<path d="M31.407 33.931H5.38281C5.38281 33.931 5.24121 33.931 5.24121 33.6479C5.24121 33.3647 5.24122 33.3647 5.38281 33.3647H31.407C31.407 33.3647 31.5485 33.3647 31.5485 33.6479C31.5485 33.931 31.5486 33.931 31.407 33.931Z" fill="#A2A2A2"/>
<path d="M31.2654 261.777H5.38281C5.38281 261.777 5.24121 261.777 5.24121 261.494C5.24121 261.211 5.24122 261.21 5.38281 261.21H31.2654C31.2654 261.21 31.2654 261.211 31.2654 261.494C31.2654 261.777 31.2654 261.777 31.2654 261.777Z" fill="#A2A2A2"/>
<path d="M74.0245 5.44317H64.0566C63.9815 5.44317 63.9095 5.41332 63.8564 5.36021C63.8033 5.3071 63.7734 5.23517 63.7734 5.16006C63.7734 5.08496 63.8033 5.01285 63.8564 4.95974C63.9095 4.90664 63.9815 4.87695 64.0566 4.87695H74.0245C74.0996 4.87695 74.1716 4.90664 74.2247 4.95974C74.2778 5.01285 74.3077 5.08496 74.3077 5.16006C74.3077 5.23517 74.2778 5.3071 74.2247 5.36021C74.1716 5.41332 74.0996 5.44317 74.0245 5.44317Z" fill="#A2A2A2"/>
<path d="M49.4746 5.44317H39.1669C39.0918 5.44317 39.0198 5.41332 38.9667 5.36021C38.9136 5.3071 38.8838 5.23517 38.8838 5.16006C38.8838 5.08496 38.9136 5.01285 38.9667 4.95974C39.0198 4.90664 39.0918 4.87695 39.1669 4.87695H49.4746C49.5497 4.87695 49.6217 4.90664 49.6749 4.95974C49.728 5.01285 49.7578 5.08496 49.7578 5.16006C49.7578 5.23517 49.728 5.3071 49.6749 5.36021C49.6217 5.41332 49.5497 5.44317 49.4746 5.44317Z" fill="#A2A2A2"/>
<path d="M43.6398 6.60425L33.3604 5.16003L43.6398 3.71582V6.60425Z" fill="#A2A2A2"/>
<path d="M70.6543 3.71582L80.962 5.16003L70.6543 6.60425V3.71582Z" fill="#A2A2A2"/>
<path d="M74.2518 72.6981C74.2135 72.7026 74.1746 72.6984 74.1382 72.6858C74.1018 72.6732 74.0687 72.6526 74.0414 72.6253C74.0142 72.598 73.9935 72.5649 73.9809 72.5285C73.9682 72.4921 73.964 72.4532 73.9686 72.4149C73.9686 72.3778 73.9759 72.3409 73.9901 72.3066C74.0043 72.2722 74.0252 72.2409 74.0515 72.2146C74.0778 72.1883 74.109 72.1675 74.1434 72.1533C74.1778 72.139 74.2146 72.1318 74.2518 72.1318H135.079C135.154 72.1318 135.226 72.1615 135.279 72.2146C135.332 72.2677 135.362 72.3398 135.362 72.4149C135.362 72.49 135.332 72.562 135.279 72.6151C135.226 72.6682 135.154 72.6981 135.079 72.6981H74.2518Z" fill="#A2A2A2"/>
<path d="M135.813 222.953H74.0801C74.0071 222.947 73.9387 222.915 73.8869 222.863C73.8351 222.811 73.8033 222.743 73.7969 222.67C73.7969 222.595 73.8267 222.523 73.8798 222.47C73.9329 222.417 74.005 222.387 74.0801 222.387H135.813C135.851 222.383 135.89 222.387 135.927 222.399C135.963 222.412 135.996 222.433 136.023 222.46C136.051 222.487 136.071 222.52 136.084 222.557C136.097 222.593 136.101 222.632 136.096 222.67C136.096 222.745 136.066 222.817 136.013 222.87C135.96 222.923 135.888 222.953 135.813 222.953Z" fill="#A2A2A2"/>
<path d="M33.1904 32.1186C33.1078 32.1186 33.0286 32.0857 32.9702 32.0273C32.9117 31.9689 32.8789 31.8896 32.8789 31.807V3.20593C32.8787 3.16623 32.8869 3.12698 32.9028 3.09064C32.9188 3.0543 32.9422 3.02159 32.9716 2.99489C33.001 2.96819 33.0356 2.94805 33.0733 2.93561C33.111 2.92316 33.1509 2.91885 33.1904 2.92282C33.2655 2.92282 33.3375 2.9525 33.3906 3.00561C33.4437 3.05871 33.4736 3.13082 33.4736 3.20593V31.807C33.4739 31.8849 33.445 31.9601 33.3926 32.0178C33.3401 32.0755 33.268 32.1115 33.1904 32.1186Z" fill="#A2A2A2"/>
<path d="M81.0483 31.3256C81.0086 31.3258 80.9693 31.3178 80.9329 31.3018C80.8966 31.2858 80.864 31.2624 80.8373 31.233C80.8106 31.2036 80.7904 31.1689 80.778 31.1312C80.7655 31.0935 80.7611 31.0537 80.7651 31.0142V2.41299C80.7651 2.33789 80.7949 2.26595 80.8481 2.21285C80.9012 2.15974 80.9732 2.12988 81.0483 2.12988C81.1212 2.13626 81.1896 2.16814 81.2414 2.21993C81.2932 2.27172 81.3251 2.34003 81.3315 2.41299V31.0142C81.3318 31.0921 81.3028 31.1674 81.2504 31.2251C81.198 31.2827 81.1259 31.3186 81.0483 31.3256Z" fill="#A2A2A2"/>
<path d="M46.0454 299.921H41.5995L32.9059 285.677V299.921H28.46V278.286H32.9059L41.5995 292.558V278.286H46.0454V299.921Z" fill="#A2A2A2"/>
<path d="M66.3492 278.258V292.417C66.4075 293.466 66.2376 294.516 65.8515 295.494C65.4653 296.471 64.8719 297.354 64.1121 298.08C62.439 299.533 60.2644 300.275 58.0521 300.147C55.8632 300.274 53.7078 299.565 52.0204 298.165C51.2509 297.445 50.6491 296.564 50.2576 295.586C49.8661 294.607 49.6946 293.554 49.755 292.502V278.06H54.2009V292.218C54.1484 292.775 54.2119 293.337 54.3873 293.869C54.5628 294.4 54.8464 294.889 55.2203 295.305C55.6038 295.649 56.0513 295.913 56.5373 296.083C57.0233 296.253 57.5381 296.326 58.0521 296.296C60.5441 296.296 61.8184 294.965 61.8751 292.332V277.918L66.3492 278.258Z" fill="#A2A2A2"/>
<path d="M74.4478 288.679H78.4406C79.4594 288.778 80.4762 288.473 81.2724 287.829C81.5854 287.521 81.8284 287.149 81.9848 286.739C82.1412 286.328 82.2073 285.889 82.1786 285.451C82.2114 284.979 82.1435 284.505 81.9794 284.061C81.8153 283.617 81.5588 283.213 81.2268 282.876C80.8948 282.538 80.4949 282.275 80.0537 282.104C79.6124 281.933 79.1399 281.857 78.6672 281.883H74.5611L74.4478 288.679ZM74.4478 292.304V299.921H70.002V278.258H78.4973C79.9822 278.231 81.4538 278.541 82.8016 279.164C83.97 279.712 84.9538 280.588 85.6334 281.685C86.3185 282.81 86.6719 284.105 86.6529 285.422C86.6925 286.372 86.5169 287.319 86.1393 288.192C85.7618 289.065 85.1919 289.841 84.4724 290.463C82.7424 291.77 80.6056 292.422 78.4406 292.304H74.4478Z" fill="#A2A2A2"/>
<path d="M55.079 5.98073V9.74706H57.3444C57.888 9.78504 58.4253 9.61274 58.8453 9.26571C59.031 9.0925 59.1776 8.88152 59.2753 8.64712C59.373 8.41271 59.4194 8.16015 59.4117 7.90633C59.4117 6.63202 58.7321 6.00908 57.3728 6.00908L55.079 5.98073ZM55.079 4.90464H57.1462C57.6647 4.91915 58.1732 4.75972 58.5904 4.45163C58.7548 4.28843 58.8853 4.09424 58.9744 3.88039C59.0634 3.66655 59.1092 3.43727 59.1092 3.20563C59.1092 2.97399 59.0634 2.74471 58.9744 2.53087C58.8853 2.31702 58.7548 2.12283 58.5904 1.95964C58.1451 1.67331 57.6169 1.54375 57.0896 1.59149H55.0507L55.079 4.90464ZM53.7197 10.8515V0.458704H57.1179C58.0235 0.395966 58.9231 0.645866 59.6665 1.16665C59.9575 1.42269 60.1856 1.74248 60.333 2.10102C60.4803 2.45955 60.543 2.84728 60.5161 3.23398C60.5225 3.69453 60.3728 4.14372 60.0913 4.50832C59.8067 4.90438 59.4132 5.20932 58.9586 5.38617C59.4993 5.51257 59.9737 5.83558 60.2895 6.29236C60.6241 6.7408 60.7942 7.29076 60.771 7.84981C60.7898 8.26175 60.7185 8.6728 60.562 9.05432C60.4055 9.43584 60.1675 9.77853 59.8648 10.0585C59.1456 10.6348 58.2353 10.9181 57.3161 10.8515H53.7197Z" fill="#A2A2A2"/>
</svg>
