<svg width="192" height="299" viewBox="0 0 192 299" fill="none" xmlns="http://www.w3.org/2000/svg">
<path d="M25.6648 233.511C25.5931 233.511 25.5243 233.483 25.4736 233.432C25.4228 233.381 25.3944 233.313 25.3944 233.241V131.052C25.3888 131.013 25.3916 130.974 25.4027 130.936C25.4138 130.899 25.4328 130.864 25.4585 130.835C25.4842 130.805 25.5159 130.782 25.5516 130.766C25.5872 130.75 25.6258 130.742 25.6648 130.743C25.7069 130.736 25.75 130.739 25.7905 130.753C25.831 130.766 25.8678 130.788 25.898 130.818C25.9281 130.849 25.9507 130.885 25.9639 130.926C25.9771 130.966 25.9805 131.009 25.9739 131.052V233.241C25.9743 233.28 25.9663 233.319 25.9503 233.354C25.9344 233.39 25.9109 233.421 25.8816 233.447C25.8522 233.473 25.8177 233.492 25.7802 233.503C25.7428 233.514 25.7034 233.517 25.6648 233.511Z" fill="#A2A2A2"/>
<path d="M25.663 111.696C25.5879 111.686 25.5189 111.649 25.4691 111.593C25.4192 111.536 25.392 111.462 25.3926 111.387V8.57911C25.392 8.50341 25.4192 8.43013 25.4691 8.37316C25.5189 8.31619 25.5879 8.27948 25.663 8.27002C25.745 8.27002 25.8236 8.30258 25.8816 8.36054C25.9396 8.4185 25.9721 8.49713 25.9721 8.57911V111.387C25.9721 111.469 25.9396 111.547 25.8816 111.605C25.8236 111.663 25.745 111.696 25.663 111.696Z" fill="#A2A2A2"/>
<path d="M24.1934 12.6743H27.1682L25.7001 2.08838L24.1934 12.6743Z" fill="#A2A2A2"/>
<path d="M24.1934 229.068L25.7001 239.693L27.1682 229.068H24.1934Z" fill="#A2A2A2"/>
<path d="M76.8931 2.39747H22.8042C22.7222 2.39747 22.6436 2.36491 22.5856 2.30695C22.5276 2.24898 22.4951 2.17036 22.4951 2.08838C22.4951 2.00641 22.5276 1.92778 22.5856 1.86982C22.6436 1.81185 22.7222 1.7793 22.8042 1.7793H76.8931C76.975 1.7793 77.0536 1.81185 77.1115 1.86982C77.1695 1.92778 77.2021 2.00641 77.2021 2.08838C77.2021 2.17036 77.1695 2.24898 77.1115 2.30695C77.0536 2.36491 76.975 2.39747 76.8931 2.39747Z" fill="#A2A2A2"/>
<path d="M77.2403 240.002H22.8423C22.7603 240.002 22.6817 239.969 22.6238 239.911C22.5658 239.853 22.5332 239.775 22.5332 239.693C22.5332 239.611 22.5658 239.532 22.6238 239.474C22.6817 239.416 22.7603 239.384 22.8423 239.384H77.2403C77.3222 239.384 77.4009 239.416 77.4589 239.474C77.5168 239.532 77.5493 239.611 77.5493 239.693C77.5493 239.775 77.5168 239.853 77.4589 239.911C77.4009 239.969 77.3222 240.002 77.2403 240.002Z" fill="#A2A2A2"/>
<path d="M153.234 270.06H126.19C126.108 270.06 126.029 270.028 125.971 269.97C125.913 269.912 125.881 269.833 125.881 269.751C125.881 269.669 125.913 269.59 125.971 269.532C126.029 269.474 126.108 269.442 126.19 269.442H153.234C153.316 269.442 153.395 269.474 153.453 269.532C153.511 269.59 153.543 269.669 153.543 269.751C153.543 269.833 153.511 269.912 153.453 269.97C153.395 270.028 153.316 270.06 153.234 270.06Z" fill="#A2A2A2"/>
<path d="M109.89 270.06H84.7769C84.6949 270.06 84.6163 270.028 84.5583 269.97C84.5004 269.912 84.4678 269.833 84.4678 269.751C84.4678 269.669 84.5004 269.59 84.5583 269.532C84.6163 269.474 84.6949 269.442 84.7769 269.442H109.89C109.972 269.442 110.05 269.474 110.108 269.532C110.166 269.59 110.199 269.669 110.199 269.751C110.199 269.833 110.166 269.912 110.108 269.97C110.05 270.028 109.972 270.06 109.89 270.06Z" fill="#A2A2A2"/>
<path d="M79.1719 269.751L89.7965 271.219V268.244L79.1719 269.751Z" fill="#A2A2A2"/>
<path d="M148.059 271.219L158.683 269.751L148.059 268.244V271.219Z" fill="#A2A2A2"/>
<path d="M188.006 183.866C187.931 183.866 187.857 183.839 187.8 183.789C187.743 183.739 187.707 183.67 187.697 183.595V130.743C187.706 130.664 187.741 130.59 187.797 130.533C187.853 130.477 187.927 130.442 188.006 130.434C188.082 130.443 188.151 130.48 188.2 130.537C188.25 130.594 188.277 130.667 188.277 130.743V183.595C188.277 183.667 188.248 183.736 188.198 183.786C188.147 183.837 188.078 183.866 188.006 183.866Z" fill="#A2A2A2"/>
<path d="M188.006 112.816C187.931 112.817 187.857 112.79 187.8 112.74C187.743 112.69 187.707 112.621 187.697 112.546V57.7617C187.706 57.6826 187.741 57.6088 187.797 57.5525C187.853 57.4963 187.927 57.461 188.006 57.4526C188.082 57.4621 188.151 57.4988 188.2 57.5557C188.25 57.6127 188.277 57.686 188.277 57.7617V112.546C188.277 112.618 188.248 112.687 188.198 112.737C188.147 112.788 188.078 112.816 188.006 112.816Z" fill="#A2A2A2"/>
<path d="M186.541 61.8565H189.516L188.009 51.2705L186.541 61.8565Z" fill="#A2A2A2"/>
<path d="M186.541 179.461L188.009 190.047L189.516 179.461H186.541Z" fill="#A2A2A2"/>
<path d="M185.844 122.939C185.827 123.541 185.959 124.139 186.231 124.677C186.357 124.866 186.53 125.018 186.734 125.12C186.937 125.222 187.163 125.269 187.39 125.257C187.681 125.28 187.973 125.21 188.223 125.057C188.472 124.904 188.667 124.677 188.78 124.407V121.239C188.673 120.965 188.478 120.734 188.227 120.581C187.976 120.427 187.682 120.36 187.39 120.389C186.385 120.389 185.844 121.239 185.844 122.939ZM183.719 122.939C183.666 121.886 183.95 120.844 184.531 119.964C184.8 119.607 185.151 119.319 185.554 119.124C185.957 118.929 186.401 118.833 186.849 118.843C187.217 118.836 187.582 118.912 187.917 119.066C188.251 119.22 188.547 119.447 188.78 119.732V115.598H190.944V127.189H189.012V126.339C188.777 126.658 188.468 126.916 188.111 127.091C187.755 127.266 187.361 127.352 186.965 127.343C186.522 127.354 186.084 127.258 185.687 127.063C185.29 126.868 184.947 126.579 184.685 126.223C184.058 125.305 183.759 124.202 183.835 123.093" fill="#A2A2A2"/>
<path d="M191.328 51.6181H161.733C161.694 51.6185 161.656 51.6105 161.62 51.5945C161.584 51.5786 161.553 51.5551 161.527 51.5258C161.501 51.4964 161.482 51.4618 161.471 51.4244C161.46 51.387 161.457 51.3476 161.463 51.309C161.463 51.2373 161.491 51.1685 161.542 51.1178C161.593 51.0671 161.661 51.0386 161.733 51.0386H191.328C191.41 51.0386 191.488 51.0711 191.546 51.1291C191.604 51.1871 191.637 51.2657 191.637 51.3477C191.627 51.4228 191.59 51.4918 191.534 51.5416C191.477 51.5915 191.403 51.6187 191.328 51.6181Z" fill="#A2A2A2"/>
<path d="M191.328 190.434H162.275C162.199 190.435 162.126 190.407 162.069 190.358C162.012 190.308 161.975 190.239 161.966 190.164C161.966 190.082 161.998 190.003 162.056 189.945C162.114 189.887 162.193 189.855 162.275 189.855H191.328C191.404 189.854 191.477 189.881 191.534 189.931C191.591 189.981 191.628 190.05 191.637 190.125C191.629 190.204 191.594 190.278 191.538 190.334C191.481 190.39 191.408 190.426 191.328 190.434Z" fill="#A2A2A2"/>
<path d="M158.646 273.846C158.607 273.847 158.569 273.839 158.533 273.823C158.497 273.807 158.466 273.783 158.44 273.754C158.414 273.725 158.395 273.69 158.384 273.653C158.373 273.615 158.37 273.576 158.376 273.537V241.779C158.375 241.704 158.402 241.63 158.452 241.573C158.502 241.516 158.571 241.48 158.646 241.47C158.725 241.479 158.799 241.514 158.855 241.57C158.912 241.626 158.947 241.7 158.955 241.779V273.537C158.955 273.619 158.923 273.698 158.865 273.756C158.807 273.814 158.728 273.846 158.646 273.846Z" fill="#A2A2A2"/>
<path d="M79.2879 273.846C79.2458 273.853 79.2027 273.849 79.1622 273.836C79.1217 273.823 79.0849 273.8 79.0548 273.77C79.0247 273.74 79.0021 273.703 78.9889 273.663C78.9757 273.622 78.9723 273.579 78.9789 273.537V241.779C78.9789 241.697 79.0113 241.619 79.0693 241.561C79.1273 241.503 79.2059 241.47 79.2879 241.47C79.363 241.48 79.432 241.516 79.4818 241.573C79.5317 241.63 79.559 241.704 79.5584 241.779V273.537C79.5639 273.576 79.5611 273.615 79.55 273.653C79.5389 273.69 79.5199 273.725 79.4942 273.754C79.4685 273.783 79.4368 273.807 79.4012 273.823C79.3656 273.839 79.3269 273.847 79.2879 273.846Z" fill="#A2A2A2"/>
<path d="M81.5323 17.6579C90.2907 13.8166 99.6253 11.4537 109.156 10.665H109.697C111.359 10.665 111.59 11.6696 111.59 11.6696C111.59 11.6696 116.111 30.2529 116.342 31.3733C116.411 31.6147 116.389 31.8724 116.283 32.0995C116.177 32.3265 115.992 32.5077 115.763 32.6097C106.587 36.3995 96.9006 38.8081 87.0186 39.7571C86.0913 39.7571 85.8209 38.714 85.8209 38.714L81.1846 19.7442C80.7983 17.967 81.4164 17.8125 81.4164 17.8125L81.5323 17.6579Z" fill="#D3D3D3"/>
<path d="M81.7596 18.0836C81.7596 18.0836 81.5278 18.3927 81.7596 19.5131C82.1845 21.2517 86.3184 38.2897 86.3957 38.4828C86.4729 38.676 86.5889 39.1396 87.1298 39.1783C91.7207 38.7169 96.2764 37.9555 100.768 36.8988C105.83 35.7044 110.79 34.1155 115.604 32.1467C115.604 32.1467 115.99 31.9149 115.913 31.4126C115.681 30.3309 111.199 12.0952 111.161 11.7475C111.122 11.3998 110.929 11.0521 109.731 11.0907H109.229C99.7678 11.9004 90.5023 14.2494 81.7981 18.045L81.7596 18.0836ZM87.0139 40.1828C86.6271 40.1647 86.2575 40.0181 85.9636 39.7661C85.6696 39.5142 85.4681 39.1713 85.3911 38.7919L80.755 19.7835C80.3687 17.9677 80.755 17.4655 81.2958 17.3109C90.1168 13.4812 99.4959 11.094 109.074 10.2407H109.615C111.702 10.2407 112.011 11.5543 112.011 11.5929C112.011 12.3656 116.531 30.215 116.763 31.2967C116.858 31.6457 116.825 32.0172 116.668 32.3435C116.512 32.6698 116.244 32.929 115.913 33.0739C111.048 35.0948 106.02 36.6976 100.884 37.8647C96.3708 38.9524 91.7882 39.7269 87.1684 40.1828" fill="#A2A2A2"/>
<path d="M115.956 10.2401V4.21307L113.6 1.93359H83.5419C82.4042 1.96381 81.3232 2.43708 80.5294 3.25256C79.7356 4.06804 79.2916 5.16126 79.292 6.29933V16.5762C79.292 16.5762 79.2919 18.4307 81.5328 17.7353C92.3436 12.9503 104.019 10.426 115.841 10.3174L115.956 10.2401Z" fill="#434343"/>
<path d="M79.6768 16.5765C79.6973 16.715 79.7455 16.848 79.8185 16.9675C79.8915 17.0869 79.9879 17.1905 80.1017 17.272C80.2861 17.37 80.4917 17.4213 80.7006 17.4213C80.9094 17.4213 81.115 17.37 81.2994 17.272C92.0739 12.4912 103.705 9.9416 115.491 9.77677V4.40653L113.405 2.39752H83.5403C82.5156 2.39752 81.5329 2.80457 80.8083 3.52911C80.0838 4.25366 79.6768 5.23635 79.6768 6.26101V16.5765ZM80.5653 18.3537C80.2232 18.3652 79.8859 18.2708 79.5995 18.0833C79.3557 17.9156 79.1505 17.698 78.9973 17.4448C78.8441 17.1917 78.7465 16.9089 78.7109 16.6152V6.29963C78.7109 5.0188 79.2198 3.79044 80.1254 2.88476C81.0311 1.97908 82.2595 1.47026 83.5403 1.47026H113.598C113.712 1.437 113.832 1.437 113.946 1.47026L116.303 3.74974C116.336 3.86326 116.336 3.98392 116.303 4.09744V10.1245C116.295 10.2386 116.249 10.3468 116.172 10.4311C116.094 10.5154 115.991 10.5708 115.878 10.5881C104.112 10.7205 92.4951 13.2306 81.7245 17.9674C81.3783 18.0145 81.0274 18.0145 80.6812 17.9674" fill="#A2A2A2"/>
<path d="M126.23 18.083H113.674H112.321L95.4765 20.0534C95.4765 20.0534 94.9355 20.0534 94.9355 20.5556V27.0463C94.9355 27.0463 94.9356 27.394 95.5924 27.394H115.644V27.6645H123.371L126.23 18.083Z" fill="#D3D3D3"/>
<path d="M126.23 18.083H113.674H112.321L95.4765 20.0534C95.4765 20.0534 94.9355 20.0534 94.9355 20.5556V27.0463C94.9355 27.0463 94.9356 27.394 95.5924 27.394H115.644V27.6645H123.371L126.23 18.083Z" fill="#434343"/>
<path d="M115.993 27.3947H123.334L125.768 18.4314H113.675H112.362L95.5168 20.4404H95.285V26.8152C95.3338 26.8365 95.3863 26.8475 95.4395 26.8475C95.4926 26.8475 95.5453 26.8365 95.594 26.8152H115.646C115.711 26.8105 115.776 26.8266 115.832 26.8614C115.887 26.8961 115.93 26.9476 115.955 27.0084L115.993 27.3947ZM123.72 28.1288H115.993C115.944 28.1501 115.892 28.1611 115.839 28.1611C115.785 28.1611 115.733 28.1501 115.684 28.1288H95.8258C95.6136 28.1512 95.4 28.1027 95.2183 27.9908C95.0365 27.879 94.8969 27.7102 94.8213 27.5106V20.9427C94.8313 20.7138 94.9292 20.4976 95.0948 20.3392C95.2604 20.1808 95.4808 20.0925 95.7099 20.0927C95.7099 20.0927 111.473 18.1996 112.516 18.1224H113.907H126.463C126.563 18.0836 126.673 18.0836 126.772 18.1224C126.808 18.2223 126.808 18.3314 126.772 18.4314L124.145 28.1288C124.122 28.2039 124.076 28.2701 124.014 28.3184C123.952 28.3668 123.876 28.3949 123.797 28.3992" fill="#A2A2A2"/>
<path d="M79.2894 121.625C79.2253 121.63 79.1608 121.622 79.1 121.601C79.0392 121.58 78.9835 121.547 78.9363 121.503C78.889 121.46 78.8515 121.407 78.8258 121.348C78.8001 121.289 78.7869 121.225 78.7871 121.161V15.1083C78.7869 15.044 78.8001 14.9804 78.8258 14.9215C78.8515 14.8626 78.889 14.8096 78.9363 14.766C78.9835 14.7224 79.0392 14.6891 79.1 14.6682C79.1608 14.6473 79.2253 14.6393 79.2894 14.6447C79.3503 14.6447 79.4106 14.6567 79.4668 14.68C79.5231 14.7033 79.5741 14.7374 79.6172 14.7805C79.6602 14.8235 79.6944 14.8746 79.7177 14.9309C79.741 14.9871 79.753 15.0474 79.753 15.1083V121.161C79.753 121.284 79.7041 121.402 79.6172 121.489C79.5302 121.576 79.4123 121.625 79.2894 121.625Z" fill="#A2A2A2"/>
<path d="M121.79 10.2401V4.21307L124.147 1.93359H154.127C155.279 1.94378 156.379 2.40825 157.19 3.22588C158 4.04352 158.455 5.14812 158.454 6.29933V16.5762C158.454 16.5762 158.455 18.4307 156.214 17.7353C145.378 12.8935 133.658 10.3418 121.79 10.2401Z" fill="#434343"/>
<path d="M122.133 9.7768C133.879 9.93226 145.472 12.4689 156.209 17.2333C156.789 17.4651 157.175 17.4651 157.446 17.2333C157.672 17.0487 157.823 16.7876 157.871 16.4993V6.29966C157.871 5.27499 157.464 4.29233 156.739 3.56778C156.015 2.84324 155.032 2.43617 154.007 2.43617H124.22L122.133 4.4452V9.7768ZM156.905 18.3538C156.559 18.4009 156.208 18.4009 155.862 18.3538C145.135 13.531 133.544 10.9289 121.786 10.7041C121.655 10.7054 121.528 10.6591 121.428 10.5739C121.329 10.4886 121.263 10.3701 121.245 10.2404V4.2134C121.2 4.10188 121.2 3.97718 121.245 3.86567L123.602 1.58622C123.701 1.54743 123.811 1.54743 123.911 1.58622H153.891C155.172 1.58622 156.4 2.09501 157.306 3.00069C158.212 3.90637 158.721 5.13476 158.721 6.41559V16.5766C158.69 16.8771 158.595 17.1674 158.442 17.4276C158.288 17.6877 158.08 17.9114 157.832 18.0833C157.546 18.2708 157.208 18.3653 156.866 18.3538" fill="#A2A2A2"/>
<path d="M120.897 52.2371H154.007C155.158 52.2269 156.259 51.7624 157.069 50.9448C157.879 50.1271 158.334 49.0225 158.334 47.8713V38.1739C158.334 36.5899 157.175 36.7058 157.175 36.7058H152.307C152.068 37.2691 151.874 37.8505 151.727 38.4444C152.037 38.4444 150.607 39.7193 150.607 39.7193C146.014 39.294 141.457 38.5452 136.969 37.4785C131.686 36.2573 126.516 34.59 121.515 32.4946C121.515 32.4946 121.515 32.4946 121.013 32.4946C120.51 32.4946 119.158 32.4946 119.158 32.4946H118.695C118.695 32.4946 117.304 32.4946 116.84 32.4946C116.377 32.4946 116.338 32.4946 116.338 32.4946C111.335 34.5844 106.165 36.2515 100.884 37.4785C96.3192 38.5598 91.6847 39.3215 87.014 39.758L86.1254 39.4875L85.3141 36.7445H80.446C80.446 36.7445 79.2484 36.7445 79.287 38.2126V47.9099C79.2819 48.4814 79.3901 49.0483 79.6053 49.5777C79.8204 50.1072 80.1384 50.5888 80.5407 50.9947C80.943 51.4006 81.4218 51.7228 81.9493 51.9427C82.4769 52.1625 83.0426 52.2757 83.6141 52.2757H120.974L120.897 52.2371Z" fill="#434343"/>
<path d="M80.332 37.1687C80.1929 37.1309 80.0462 37.1309 79.9071 37.1687C79.7313 37.4154 79.6491 37.7168 79.6753 38.0186V47.716C79.6753 48.7406 80.0823 49.7233 80.8068 50.4479C81.5313 51.1724 82.5141 51.5795 83.5388 51.5795H154.009C155.033 51.5795 156.016 51.1724 156.741 50.4479C157.465 49.7233 157.872 48.7406 157.872 47.716V38.1731C157.898 37.8713 157.816 37.57 157.64 37.3232C157.502 37.2813 157.354 37.2813 157.216 37.3232H152.695C152.695 37.7868 152.347 38.2504 152.309 38.4822C152.309 38.4822 152.309 39.0617 150.957 40.1049C150.896 40.1327 150.83 40.1471 150.763 40.1471C150.697 40.1471 150.631 40.1327 150.57 40.1049C140.57 39.1186 130.769 36.6714 121.478 32.8415H121.285C120.86 32.8415 119.469 32.8415 119.469 32.8415H119.006C119.006 32.8415 117.615 32.8415 117.151 32.8415C112.151 34.9392 106.981 36.6066 101.697 37.8254C97.147 38.9229 92.5251 39.6975 87.8659 40.1435C87.8659 40.1435 87.8659 40.1435 87.6727 40.1435L86.7841 39.8344C86.7094 39.8158 86.6411 39.7771 86.5867 39.7227C86.5323 39.6683 86.4936 39.6001 86.4749 39.5254L85.7795 37.13H81.2206L80.332 37.1687ZM117.537 52.584H83.5388C82.2579 52.584 81.0296 52.0752 80.1239 51.1695C79.2182 50.2638 78.7094 49.0354 78.7094 47.7546V38.1731C78.6885 37.889 78.7295 37.6036 78.8295 37.3368C78.9296 37.07 79.0863 36.8281 79.2889 36.6278C79.4372 36.487 79.6139 36.3796 79.8072 36.313C80.0005 36.2463 80.2058 36.2219 80.4093 36.2414H85.2387C85.3424 36.2444 85.4427 36.2794 85.5257 36.3416C85.6087 36.4039 85.6704 36.4904 85.7023 36.5891L86.4364 39.0618L86.9772 39.2549C91.5549 38.7903 96.0977 38.0289 100.577 36.9755C105.858 35.7661 111.028 34.1118 116.031 32.0302C116.257 31.8686 116.525 31.7748 116.803 31.7598H121.015C121.44 31.7598 121.671 31.7598 121.787 32.0302C126.798 34.0887 131.966 35.7424 137.241 36.9755C141.704 38.0383 146.235 38.7871 150.802 39.2163C151.064 39.0029 151.309 38.7705 151.536 38.5209C151.645 37.82 151.866 37.1414 152.193 36.5119C152.226 36.4274 152.285 36.3555 152.361 36.3069C152.438 36.2582 152.528 36.2353 152.618 36.2414H157.486C157.683 36.225 157.882 36.2511 158.069 36.3177C158.255 36.3843 158.425 36.49 158.568 36.6278C158.77 36.8281 158.927 37.07 159.027 37.3368C159.127 37.6036 159.168 37.889 159.147 38.1731V47.8705C159.147 49.1513 158.638 50.3797 157.733 51.2854C156.827 52.1911 155.599 52.6999 154.318 52.6999L117.537 52.584Z" fill="#A2A2A2"/>
<path d="M119.008 32.0689H120.901L121.867 27.9736H118.969H118.621H115.724L116.69 32.0689H118.544H119.008Z" fill="#434343"/>
<path d="M116.96 31.7209H120.591L121.403 28.3211H116.148L116.96 31.7209ZM120.823 32.455H116.612C116.612 32.455 116.342 32.455 116.264 32.1459L115.337 28.1665C115.313 28.1185 115.301 28.0656 115.301 28.012C115.301 27.9584 115.313 27.9055 115.337 27.8574C115.38 27.8394 115.426 27.8301 115.472 27.8301C115.519 27.8301 115.565 27.8394 115.607 27.8574H121.789C121.832 27.8394 121.878 27.8301 121.924 27.8301C121.971 27.8301 122.017 27.8394 122.06 27.8574C122.092 27.9579 122.092 28.0661 122.06 28.1665L121.21 32.03C121.2 32.1154 121.159 32.1942 121.095 32.2513C121.031 32.3083 120.948 32.3396 120.862 32.3391" fill="#A2A2A2"/>
<path d="M158.339 121.625C158.216 121.625 158.098 121.576 158.011 121.489C157.924 121.402 157.875 121.284 157.875 121.161V15.1083C157.875 15.0474 157.887 14.9871 157.91 14.9309C157.934 14.8746 157.968 14.8235 158.011 14.7805C158.054 14.7374 158.105 14.7033 158.161 14.68C158.218 14.6567 158.278 14.6447 158.339 14.6447C158.403 14.6393 158.467 14.6473 158.528 14.6682C158.589 14.6891 158.644 14.7224 158.692 14.766C158.739 14.8096 158.777 14.8626 158.802 14.9215C158.828 14.9804 158.841 15.044 158.841 15.1083V121.161C158.841 121.225 158.828 121.289 158.802 121.348C158.777 121.407 158.739 121.46 158.692 121.503C158.644 121.547 158.589 121.58 158.528 121.601C158.467 121.622 158.403 121.63 158.339 121.625Z" fill="#A2A2A2"/>
<path d="M121.785 4.71532H116.067C115.944 4.71532 115.826 4.66646 115.739 4.57952C115.652 4.49257 115.604 4.37465 115.604 4.25169C115.604 4.12873 115.652 4.0108 115.739 3.92385C115.826 3.83691 115.944 3.78809 116.067 3.78809H121.785C121.908 3.78809 122.026 3.83691 122.113 3.92385C122.2 4.0108 122.249 4.12873 122.249 4.25169C122.249 4.37465 122.2 4.49257 122.113 4.57952C122.026 4.66646 121.908 4.71532 121.785 4.71532Z" fill="#A2A2A2"/>
<path d="M121.785 10.7041H116.067C115.944 10.7041 115.826 10.6553 115.739 10.5683C115.652 10.4814 115.604 10.3634 115.604 10.2405C115.604 10.1175 115.652 9.9996 115.739 9.91265C115.826 9.82571 115.944 9.77686 116.067 9.77686H121.785C121.908 9.77686 122.026 9.82571 122.113 9.91265C122.2 9.9996 122.249 10.1175 122.249 10.2405C122.249 10.3634 122.2 10.4814 122.113 10.5683C122.026 10.6553 121.908 10.7041 121.785 10.7041Z" fill="#A2A2A2"/>
<path d="M118.811 4.98556C118.732 4.97717 118.658 4.94192 118.602 4.88567C118.546 4.82942 118.51 4.75558 118.502 4.67648V1.12207C118.502 1.0401 118.535 0.961473 118.593 0.903509C118.65 0.845546 118.729 0.812988 118.811 0.812988C118.893 0.812988 118.972 0.845546 119.03 0.903509C119.088 0.961473 119.12 1.0401 119.12 1.12207V4.98556C119.112 5.06466 119.076 5.13851 119.02 5.19476C118.964 5.251 118.89 5.28626 118.811 5.29465V4.98556ZM118.811 8.07637C118.735 8.07696 118.662 8.04976 118.605 7.99991C118.548 7.95006 118.511 7.88103 118.502 7.80592V6.84005C118.502 6.75808 118.535 6.67945 118.593 6.62149C118.65 6.56352 118.729 6.53097 118.811 6.53097C118.893 6.53097 118.972 6.56352 119.03 6.62149C119.088 6.67945 119.12 6.75808 119.12 6.84005V7.80592C119.111 7.88103 119.074 7.95006 119.017 7.99991C118.96 8.04976 118.887 8.07696 118.811 8.07637ZM118.811 13.2534C118.729 13.2534 118.65 13.2209 118.593 13.1629C118.535 13.1049 118.502 13.0263 118.502 12.9443V9.66038C118.502 9.57841 118.535 9.49981 118.593 9.44185C118.65 9.38388 118.729 9.3513 118.811 9.3513C118.893 9.3513 118.972 9.38388 119.03 9.44185C119.088 9.49981 119.12 9.57841 119.12 9.66038V12.7125C119.12 12.7945 119.088 12.8731 119.03 12.9311C118.972 12.9891 118.893 13.0216 118.811 13.0216" fill="#A2A2A2"/>
<path d="M155.979 17.6579C147.236 13.8119 137.913 11.4487 128.394 10.665H127.853C126.192 10.665 125.96 11.6696 125.96 11.6696C125.96 11.6696 121.44 30.2529 121.208 31.3734C121.137 31.6101 121.152 31.8643 121.252 32.0907C121.351 32.3172 121.527 32.5011 121.749 32.6097C130.882 36.345 140.515 38.7143 150.339 39.6412C151.266 39.6412 151.536 38.5981 151.536 38.5981L156.172 19.6283C156.559 17.8511 155.941 17.6966 155.941 17.6966L155.979 17.6579Z" fill="#D3D3D3"/>
<path d="M127.738 11.0903C126.618 11.0903 126.425 11.6698 126.425 11.7471C126.425 11.8244 121.789 30.3305 121.789 31.4122C121.738 31.5074 121.711 31.6135 121.711 31.7213C121.711 31.8291 121.738 31.9353 121.789 32.0304C126.587 34.0048 131.535 35.5939 136.586 36.7825C141.062 37.8425 145.606 38.5912 150.185 39.0233C150.61 39.0233 150.803 38.3279 150.842 38.3279L155.44 19.3582C155.671 18.2378 155.44 17.9673 155.44 17.9673H155.246C146.542 14.1718 137.277 11.8228 127.816 11.013H127.197L127.738 11.0903ZM150.069 40.1051H149.838C145.244 39.6428 140.688 38.8683 136.199 37.787C131.273 36.62 126.452 35.0434 121.789 33.0735H121.595C121.271 32.922 121.011 32.6599 120.863 32.3342C120.714 32.0086 120.686 31.6407 120.784 31.2963C121.016 30.2146 125.343 12.3652 125.536 11.5925C125.536 11.5925 125.922 10.1631 127.931 10.2403H128.434C138.025 11.0889 147.418 13.4762 156.251 17.3105C156.56 17.3105 157.101 17.9287 156.715 19.7445L152.078 38.7529C152.017 39.1159 151.841 39.45 151.577 39.7069C151.313 39.9638 150.975 40.1303 150.61 40.1824L150.069 40.1051Z" fill="#A2A2A2"/>
<path d="M81.5323 224.084C90.3029 227.89 99.6315 230.252 109.156 231.077H109.697C111.359 231.077 111.59 230.073 111.59 230.073C111.59 230.073 116.111 211.489 116.342 210.369C116.411 210.128 116.389 209.87 116.283 209.643C116.177 209.416 115.992 209.235 115.763 209.133C106.585 205.356 96.8986 202.961 87.0186 202.024C86.0913 202.024 85.8209 203.067 85.8209 203.067L81.1846 222.037C80.7983 223.814 81.4164 223.969 81.4164 223.969L81.5323 224.084Z" fill="#D3D3D3"/>
<path d="M81.7605 223.66C90.4647 227.455 99.7301 229.804 109.191 230.614H109.693C110.891 230.614 111.123 230.034 111.123 229.957C111.123 229.88 115.643 211.374 115.836 210.292C116.03 209.21 115.605 209.558 115.605 209.558C106.535 205.841 96.9662 203.485 87.208 202.565C86.7057 202.565 86.5512 203.26 86.5126 203.26C86.4739 203.26 82.3014 220.491 81.915 222.23C81.6832 223.35 81.915 223.621 81.915 223.621L81.7605 223.66ZM109.809 231.58H109.153C99.5609 230.731 90.1683 228.344 81.3355 224.51C80.9492 224.51 80.4856 223.775 80.8719 222.075C81.2583 220.376 85.4694 203.26 85.508 203.067C85.585 202.688 85.7865 202.345 86.0804 202.093C86.3744 201.841 86.744 201.694 87.1307 201.676C91.7604 202.134 96.3549 202.896 100.885 203.956C106.004 205.158 111.017 206.773 115.875 208.785H116.068C116.393 208.937 116.652 209.199 116.801 209.524C116.95 209.85 116.978 210.218 116.88 210.562C116.648 211.644 112.321 229.493 112.128 230.266C112.128 230.266 111.818 231.618 109.887 231.618" fill="#A2A2A2"/>
<path d="M126.23 223.66H113.674H112.321L95.4765 221.69C95.4765 221.69 94.9355 221.69 94.9355 221.187V214.697C94.9355 214.697 94.9356 214.349 95.5924 214.349H115.644V214.079H123.371L126.23 223.66Z" fill="#D3D3D3"/>
<path d="M126.23 223.66H113.674H112.321L95.4765 221.69C95.4765 221.69 94.9355 221.69 94.9355 221.187V214.697C94.9355 214.697 94.9356 214.349 95.5924 214.349H115.644V214.079H123.371L126.23 223.66Z" fill="#434343"/>
<path d="M95.2834 214.696V221.071H95.5152L112.36 223.08H113.674H125.65L123.216 214.117H115.837C115.813 214.178 115.77 214.229 115.714 214.264C115.659 214.299 115.593 214.315 115.528 214.31H95.4765C95.4278 214.289 95.3751 214.278 95.322 214.278C95.2688 214.278 95.2161 214.289 95.1674 214.31L95.2834 214.696ZM126.075 223.621H113.674H112.283C111.24 223.621 96.0947 221.728 95.4379 221.651C95.2155 221.641 95.0048 221.549 94.8474 221.391C94.69 221.234 94.5974 221.023 94.5879 220.801V214.233C94.6635 214.033 94.8031 213.864 94.9849 213.753C95.1666 213.641 95.3802 213.592 95.5924 213.615H115.451C115.482 213.559 115.527 213.513 115.581 213.479C115.635 213.446 115.696 213.426 115.76 213.421H123.487C123.565 213.426 123.641 213.454 123.703 213.502C123.765 213.551 123.811 213.617 123.835 213.692L126.462 223.389C126.497 223.489 126.497 223.598 126.462 223.698C126.362 223.737 126.252 223.737 126.153 223.698" fill="#A2A2A2"/>
<path d="M79.2894 227.098C79.2253 227.104 79.1608 227.096 79.1 227.075C79.0392 227.054 78.9835 227.02 78.9363 226.977C78.889 226.933 78.8515 226.88 78.8258 226.821C78.8001 226.762 78.7869 226.699 78.7871 226.635V120.891C78.7969 120.764 78.8541 120.646 78.9472 120.56C79.0404 120.474 79.1626 120.427 79.2894 120.427C79.4094 120.436 79.5222 120.488 79.6073 120.573C79.6923 120.658 79.7441 120.771 79.753 120.891V226.557C79.753 226.68 79.7041 226.798 79.6172 226.885C79.5302 226.972 79.4123 227.021 79.2894 227.021" fill="#A2A2A2"/>
<path d="M120.897 189.506H154.007C154.578 189.506 155.144 189.62 155.672 189.839C156.199 190.059 156.678 190.381 157.08 190.787C157.483 191.193 157.801 191.675 158.016 192.204C158.231 192.734 158.339 193.301 158.334 193.872V203.569C158.334 205.153 157.175 205.038 157.175 205.038H152.307C152.068 204.474 151.874 203.893 151.727 203.299C152.037 203.106 150.607 202.024 150.607 202.024C146.014 202.449 141.457 203.198 136.969 204.265C131.686 205.486 126.516 207.153 121.515 209.249C121.515 209.249 121.515 209.249 121.013 209.249H116.84C116.377 209.249 116.338 209.249 116.338 209.249C111.335 207.159 106.165 205.492 100.884 204.265C96.3183 203.197 91.6838 202.448 87.014 202.024L86.1254 202.295L85.3141 205.038H80.446C80.446 205.038 79.2484 205.038 79.287 203.569V193.872C79.2819 193.301 79.3901 192.734 79.6053 192.204C79.8204 191.675 80.1384 191.193 80.5407 190.787C80.943 190.381 81.4218 190.059 81.9493 189.839C82.4769 189.62 83.0426 189.506 83.6141 189.506H120.974H120.897Z" fill="#434343"/>
<path d="M152.155 203.531V203.724V203.531ZM116.534 208.978H121.015C126.026 206.909 131.194 205.243 136.469 203.994C140.974 202.941 145.543 202.179 150.146 201.715C150.207 201.687 150.272 201.673 150.339 201.673C150.406 201.673 150.472 201.687 150.532 201.715C151.923 202.758 151.885 203.144 151.885 203.338C151.885 203.569 152.116 204.033 152.271 204.535H156.83C156.981 204.583 157.143 204.583 157.293 204.535C157.469 204.288 157.551 203.987 157.525 203.685V193.988C157.525 192.963 157.118 191.981 156.394 191.256C155.669 190.531 154.686 190.124 153.662 190.124H83.5394C82.5147 190.124 81.532 190.531 80.8074 191.256C80.0829 191.981 79.6759 192.963 79.6759 193.988V203.685C79.6497 203.987 79.7319 204.288 79.9077 204.535C80.0463 204.577 80.1941 204.577 80.3326 204.535H84.8916L85.587 202.14C85.6094 202.063 85.6488 201.991 85.7022 201.931C85.7557 201.871 85.8219 201.823 85.8961 201.792L86.7847 201.522H87.0165C91.675 201.954 96.2969 202.716 100.848 203.801C106.123 205.05 111.291 206.716 116.302 208.785L116.534 208.978ZM117.152 209.79H116.418C116.14 209.774 115.872 209.681 115.645 209.519C110.638 207.449 105.469 205.795 100.191 204.574C95.7151 203.505 91.1714 202.743 86.5916 202.294H86.0506L85.3166 204.767C85.2847 204.866 85.223 204.952 85.1399 205.014C85.0569 205.077 84.9567 205.112 84.853 205.115H79.9849C79.7875 205.131 79.5889 205.105 79.4024 205.038C79.2158 204.972 79.0456 204.866 78.9032 204.728C78.7006 204.528 78.5439 204.286 78.4438 204.019C78.3438 203.752 78.3028 203.467 78.3237 203.183V193.486C78.3237 192.205 78.8325 190.976 79.7382 190.071C80.6438 189.165 81.8722 188.656 83.153 188.656H153.623C154.904 188.656 156.132 189.165 157.038 190.071C157.944 190.976 158.452 192.205 158.452 193.486V203.183C158.473 203.467 158.432 203.752 158.332 204.019C158.232 204.286 158.075 204.528 157.873 204.728C157.55 205 157.135 205.138 156.714 205.115H152.309C152.214 205.118 152.121 205.09 152.043 205.034C151.966 204.978 151.91 204.897 151.885 204.806C151.566 204.186 151.344 203.522 151.228 202.835C150.995 202.578 150.736 202.345 150.455 202.14C140.574 203.235 130.911 205.801 121.788 209.751C121.549 209.918 121.268 210.011 120.977 210.021H117.5" fill="#A2A2A2"/>
<path d="M119.008 209.635H120.901L121.867 213.73H118.969H118.621H115.724L116.69 209.635H118.544H119.008Z" fill="#434343"/>
<path d="M116.149 213.614H121.403L120.592 210.214H116.96L116.149 213.614ZM121.867 214.31H115.686C115.643 214.33 115.597 214.341 115.55 214.341C115.503 214.341 115.457 214.33 115.415 214.31C115.382 214.222 115.382 214.126 115.415 214.039L116.419 209.944C116.429 209.858 116.47 209.78 116.534 209.723C116.598 209.666 116.681 209.634 116.767 209.635H120.94C121.026 209.634 121.109 209.666 121.173 209.723C121.237 209.78 121.278 209.858 121.288 209.944L122.292 214.039C122.325 214.126 122.325 214.222 122.292 214.31C122.25 214.33 122.204 214.341 122.157 214.341C122.11 214.341 122.064 214.33 122.022 214.31" fill="#A2A2A2"/>
<path d="M158.339 227.098C158.216 227.098 158.098 227.049 158.011 226.962C157.924 226.875 157.875 226.758 157.875 226.635V120.891C157.884 120.771 157.936 120.658 158.021 120.573C158.106 120.488 158.219 120.436 158.339 120.427C158.465 120.427 158.588 120.474 158.681 120.56C158.774 120.646 158.831 120.764 158.841 120.891V226.557C158.841 226.622 158.828 226.685 158.802 226.744C158.777 226.803 158.739 226.856 158.692 226.9C158.644 226.943 158.589 226.976 158.528 226.997C158.467 227.018 158.403 227.026 158.339 227.021" fill="#A2A2A2"/>
<path d="M115.954 231.503C104.132 231.394 92.4569 228.87 81.646 224.085C79.5598 223.389 79.4053 225.244 79.4053 225.244V235.521C79.4052 236.672 79.8599 237.777 80.6703 238.594C81.4807 239.412 82.5812 239.876 83.7324 239.887H113.79L116.147 237.607H121.788L124.144 239.887H154.125C155.276 239.876 156.377 239.412 157.187 238.594C157.998 237.777 158.452 236.672 158.452 235.521V225.205C158.452 225.205 158.452 223.351 156.211 224.046C145.429 228.835 133.778 231.36 121.981 231.464" fill="#434343"/>
<path d="M154.126 240.273H124.146C124.046 240.311 123.936 240.311 123.836 240.273L121.557 238.07H116.303L114.062 240.273C113.948 240.306 113.828 240.306 113.714 240.273H83.5403C82.2595 240.273 81.0311 239.764 80.1254 238.858C79.2198 237.952 78.7109 236.724 78.7109 235.443V225.205C78.7412 224.905 78.8362 224.614 78.9897 224.354C79.1431 224.094 79.3511 223.87 79.5995 223.698C79.9084 223.533 80.2535 223.446 80.604 223.446C80.9545 223.446 81.2997 223.533 81.6086 223.698C92.3805 228.431 103.997 230.941 115.762 231.078C115.994 231.078 116.264 231.309 116.225 231.541C116.231 231.602 116.224 231.663 116.205 231.722C116.187 231.78 116.157 231.834 116.117 231.881C116.078 231.927 116.03 231.966 115.975 231.994C115.921 232.022 115.861 232.039 115.8 232.043C103.899 231.905 92.1491 229.355 81.2609 224.548C81.1164 224.445 80.9473 224.382 80.7707 224.366C80.5941 224.35 80.4163 224.38 80.2554 224.455C80.0945 224.529 79.9562 224.645 79.8546 224.791C79.753 224.936 79.6916 225.106 79.6768 225.282V235.521C79.6768 236.545 80.0838 237.528 80.8083 238.252C81.5329 238.977 82.5156 239.384 83.5403 239.384H113.405L115.569 237.259C115.613 237.198 115.671 237.148 115.738 237.115C115.805 237.081 115.88 237.064 115.955 237.066H121.789C121.875 237.057 121.962 237.074 122.038 237.115C122.114 237.157 122.175 237.22 122.214 237.298L124.339 239.384H154.126C155.151 239.384 156.134 238.977 156.858 238.252C157.583 237.528 157.99 236.545 157.99 235.521V225.205C157.969 225.067 157.921 224.934 157.848 224.814C157.775 224.695 157.679 224.591 157.565 224.51C157.38 224.412 157.175 224.36 156.966 224.36C156.757 224.36 156.551 224.412 156.367 224.51C145.497 229.336 133.758 231.9 121.866 232.043V231.541V231.078C133.623 230.947 145.231 228.423 155.981 223.66C156.29 223.494 156.635 223.407 156.985 223.407C157.336 223.407 157.681 223.494 157.99 223.66C158.233 223.827 158.439 224.045 158.592 224.298C158.745 224.551 158.843 224.834 158.878 225.128V235.443C158.878 236.724 158.37 237.952 157.464 238.858C156.558 239.764 155.33 240.273 154.049 240.273" fill="#A2A2A2"/>
<path d="M121.787 231.966H116.069C115.946 231.966 115.828 231.917 115.741 231.83C115.654 231.743 115.605 231.625 115.605 231.502C115.6 231.438 115.608 231.374 115.629 231.313C115.65 231.252 115.683 231.196 115.726 231.149C115.77 231.102 115.823 231.064 115.882 231.039C115.941 231.013 116.004 231 116.069 231H121.787C121.851 231 121.915 231.013 121.973 231.039C122.032 231.064 122.085 231.102 122.129 231.149C122.173 231.196 122.206 231.252 122.227 231.313C122.248 231.374 122.256 231.438 122.25 231.502C122.25 231.625 122.201 231.743 122.114 231.83C122.028 231.917 121.91 231.966 121.787 231.966Z" fill="#A2A2A2"/>
<path d="M155.979 224.085C147.224 227.896 137.907 230.257 128.394 231.078H127.853C126.192 231.078 125.96 230.073 125.96 230.073C125.96 230.073 121.44 211.49 121.208 210.369C121.137 210.133 121.152 209.878 121.252 209.652C121.351 209.426 121.527 209.242 121.749 209.133C130.882 205.398 140.515 203.029 150.339 202.102C151.266 202.102 151.536 203.145 151.536 203.145L156.172 222.114C156.559 223.892 155.941 224.046 155.941 224.046L155.979 224.085Z" fill="#D3D3D3"/>
<path d="M150.609 202.487C140.839 203.413 131.258 205.769 122.174 209.48C122.174 209.48 121.787 209.48 121.865 210.214C121.942 210.948 126.578 229.532 126.617 229.879C126.655 230.227 126.81 230.575 128.046 230.536H128.548C138.009 229.722 147.273 227.373 155.979 223.582C155.979 223.582 156.211 223.311 155.979 222.191C155.554 220.452 151.42 203.414 151.343 203.221C151.266 203.028 151.343 202.603 150.648 202.526L150.609 202.487ZM127.776 231.618C125.844 231.618 125.535 230.304 125.535 230.266C125.535 229.493 121.015 211.644 120.783 210.562C120.685 210.208 120.718 209.83 120.873 209.497C121.029 209.165 121.298 208.898 121.633 208.746C126.506 206.74 131.532 205.125 136.662 203.917C141.179 202.86 145.761 202.098 150.377 201.637C150.764 201.655 151.133 201.802 151.427 202.054C151.721 202.306 151.923 202.649 152 203.028L156.636 222.036C157.022 223.736 156.636 224.316 156.134 224.509C147.313 228.339 137.934 230.726 128.355 231.579H127.66" fill="#A2A2A2"/>
<path d="M101.311 121.509H74.5756C74.4937 121.509 74.415 121.476 74.357 121.418C74.2991 121.36 74.2666 121.282 74.2666 121.2C74.2666 121.118 74.2991 121.039 74.357 120.981C74.415 120.923 74.4937 120.891 74.5756 120.891H101.311C101.393 120.891 101.472 120.923 101.53 120.981C101.587 121.039 101.62 121.118 101.62 121.2C101.62 121.282 101.587 121.36 101.53 121.418C101.472 121.476 101.393 121.509 101.311 121.509ZM104.904 121.509H103.706C103.624 121.509 103.546 121.476 103.488 121.418C103.43 121.36 103.397 121.282 103.397 121.2C103.397 121.118 103.43 121.039 103.488 120.981C103.546 120.923 103.624 120.891 103.706 120.891H104.904C104.986 120.891 105.065 120.923 105.123 120.981C105.18 121.039 105.213 121.118 105.213 121.2C105.213 121.282 105.18 121.36 105.123 121.418C105.065 121.476 104.986 121.509 104.904 121.509ZM133.996 121.509H107.261C107.179 121.509 107.1 121.476 107.042 121.418C106.984 121.36 106.952 121.282 106.952 121.2C106.952 121.118 106.984 121.039 107.042 120.981C107.1 120.923 107.179 120.891 107.261 120.891H133.996C134.078 120.891 134.157 120.923 134.215 120.981C134.273 121.039 134.305 121.118 134.305 121.2C134.305 121.282 134.273 121.36 134.215 121.418C134.157 121.476 134.078 121.509 133.996 121.509ZM137.55 121.509H136.353C136.271 121.509 136.192 121.476 136.134 121.418C136.076 121.36 136.044 121.282 136.044 121.2C136.044 121.118 136.076 121.039 136.134 120.981C136.192 120.923 136.271 120.891 136.353 120.891H137.55C137.632 120.891 137.711 120.923 137.769 120.981C137.827 121.039 137.86 121.118 137.86 121.2C137.86 121.282 137.827 121.36 137.769 121.418C137.711 121.476 137.632 121.509 137.55 121.509ZM162.934 121.509H139.946C139.864 121.509 139.785 121.476 139.727 121.418C139.669 121.36 139.637 121.282 139.637 121.2C139.637 121.118 139.669 121.039 139.727 120.981C139.785 120.923 139.864 120.891 139.946 120.891H162.934C163.016 120.891 163.094 120.923 163.152 120.981C163.21 121.039 163.243 121.118 163.243 121.2C163.243 121.282 163.21 121.36 163.152 121.418C163.094 121.476 163.016 121.509 162.934 121.509Z" fill="#A2A2A2"/>
<path d="M26.1246 117.838V125.063H27.1677C27.545 125.082 27.9215 125.015 28.2694 124.868C28.6172 124.721 28.9274 124.497 29.1768 124.213C29.6814 123.49 29.9389 122.622 29.9108 121.741V121.161C29.9678 120.282 29.7225 119.409 29.2154 118.688C28.9718 118.398 28.6626 118.169 28.3133 118.021C27.964 117.874 27.5846 117.811 27.2064 117.838H26.1246ZM23.8838 126.84V116.023H27.2064C28.0963 115.997 28.9768 116.211 29.7563 116.641C30.5142 117.076 31.1311 117.719 31.5336 118.495C31.9631 119.331 32.1756 120.261 32.1516 121.2V121.663C32.1807 122.603 31.9679 123.534 31.5336 124.368C31.1323 125.122 30.5306 125.75 29.7949 126.184C29.0151 126.617 28.1372 126.843 27.245 126.84H23.8838Z" fill="#A2A2A2"/>
<path d="M116.419 270.756V273.653H118.312C118.752 273.679 119.187 273.556 119.549 273.306C119.699 273.178 119.819 273.018 119.9 272.837C119.98 272.657 120.018 272.46 120.012 272.263C120.039 272.055 120.016 271.844 119.947 271.647C119.878 271.449 119.765 271.27 119.615 271.124C119.465 270.978 119.283 270.869 119.084 270.805C118.885 270.741 118.674 270.724 118.467 270.756H116.419ZM116.419 269.172H117.926C119.085 269.172 119.626 268.708 119.626 267.82C119.649 267.618 119.623 267.414 119.548 267.226C119.474 267.037 119.355 266.869 119.201 266.738C118.791 266.504 118.32 266.396 117.849 266.429H116.303L116.419 269.172ZM114.062 275.431V264.613H117.926C118.986 264.55 120.04 264.82 120.94 265.386C121.271 265.645 121.536 265.981 121.71 266.364C121.885 266.747 121.965 267.167 121.944 267.588C121.953 268.085 121.804 268.571 121.519 268.979C121.27 269.405 120.87 269.722 120.399 269.867C120.919 269.996 121.382 270.295 121.712 270.717C122.033 271.167 122.196 271.71 122.176 272.263C122.214 272.704 122.146 273.148 121.978 273.558C121.81 273.968 121.547 274.332 121.21 274.619C120.373 275.202 119.37 275.5 118.351 275.469L114.062 275.431Z" fill="#A2A2A2"/>
<path d="M6.75575 258.451C6.70119 259.205 6.42195 259.799 5.91804 260.232C5.41733 260.666 4.75615 260.882 3.93448 260.882C3.03578 260.882 2.32806 260.581 1.81131 259.977C1.29777 259.371 1.041 258.539 1.041 257.483V257.055C1.041 256.381 1.15975 255.787 1.39727 255.274C1.63478 254.76 1.9734 254.367 2.41312 254.094C2.85604 253.818 3.36959 253.68 3.95374 253.68C4.76257 253.68 5.41412 253.897 5.90841 254.33C6.40269 254.763 6.68835 255.371 6.76538 256.155H5.32104C5.28574 255.702 5.15896 255.375 4.9407 255.172C4.72566 254.967 4.39667 254.864 3.95374 254.864C3.47229 254.864 3.11121 255.038 2.87049 255.384C2.63298 255.728 2.51101 256.262 2.50459 256.988V257.517C2.50459 258.275 2.61853 258.828 2.84642 259.178C3.07751 259.528 3.4402 259.703 3.93448 259.703C4.38062 259.703 4.71282 259.602 4.93107 259.4C5.15254 259.194 5.27932 258.878 5.31142 258.451H6.75575ZM11.6617 259.342H9.12928L8.64783 260.786H7.11202L9.72145 253.776H11.0599L13.6837 260.786H12.1479L11.6617 259.342ZM9.51925 258.172H11.2717L10.3907 255.548L9.51925 258.172Z" fill="#A2A2A2"/>
</svg>
