<svg width="415" height="415" viewBox="0 0 415 415" fill="none" xmlns="http://www.w3.org/2000/svg">
<path d="M210.847 219.111H185.215C185.142 219.111 185.072 219.082 185.02 219.03C184.968 218.979 184.939 218.908 184.939 218.835C184.935 218.798 184.939 218.76 184.951 218.725C184.963 218.689 184.984 218.657 185.01 218.63C185.037 218.604 185.069 218.584 185.105 218.571C185.14 218.559 185.178 218.555 185.215 218.559H210.847C210.885 218.555 210.923 218.559 210.958 218.571C210.994 218.584 211.026 218.604 211.052 218.63C211.079 218.657 211.099 218.689 211.111 218.725C211.124 218.76 211.128 218.798 211.123 218.835C211.123 218.908 211.094 218.979 211.043 219.03C210.991 219.082 210.921 219.111 210.847 219.111ZM214.158 219.111H213.11C213.039 219.105 212.972 219.074 212.922 219.023C212.871 218.973 212.84 218.906 212.834 218.835C212.834 218.762 212.863 218.692 212.915 218.64C212.967 218.588 213.037 218.559 213.11 218.559H214.214C214.287 218.559 214.357 218.588 214.409 218.64C214.46 218.692 214.489 218.762 214.489 218.835C214.483 218.906 214.452 218.973 214.402 219.023C214.351 219.074 214.285 219.105 214.214 219.111H214.158ZM239.984 219.111H216.421C216.348 219.111 216.278 219.082 216.226 219.03C216.174 218.979 216.145 218.908 216.145 218.835C216.141 218.798 216.145 218.76 216.157 218.725C216.169 218.689 216.189 218.657 216.216 218.63C216.243 218.604 216.275 218.584 216.31 218.571C216.346 218.559 216.384 218.555 216.421 218.559H239.984C240.057 218.559 240.127 218.588 240.179 218.64C240.231 218.692 240.26 218.762 240.26 218.835C240.254 218.906 240.222 218.973 240.172 219.023C240.122 219.074 240.055 219.105 239.984 219.111Z" fill="#A3A3A3"/>
<path d="M189.244 316.04C189.127 316.04 189.015 315.993 188.932 315.91C188.849 315.828 188.803 315.715 188.803 315.598V218.836C188.803 218.718 188.849 218.606 188.932 218.523C189.015 218.441 189.127 218.394 189.244 218.394C189.361 218.394 189.474 218.441 189.556 218.523C189.639 218.606 189.686 218.718 189.686 218.836V315.598C189.686 315.715 189.639 315.828 189.556 315.91C189.474 315.993 189.361 316.04 189.244 316.04Z" fill="#A3A3A3"/>
<path d="M189.244 219.276C189.127 219.276 189.015 219.23 188.932 219.147C188.849 219.064 188.803 218.952 188.803 218.835V122.072C188.803 121.955 188.849 121.843 188.932 121.76C189.015 121.677 189.127 121.631 189.244 121.631C189.361 121.631 189.474 121.677 189.556 121.76C189.639 121.843 189.686 121.955 189.686 122.072V218.835C189.686 218.952 189.639 219.064 189.556 219.147C189.474 219.23 189.361 219.276 189.244 219.276Z" fill="#A3A3A3"/>
<path d="M235.568 315.874C235.451 315.874 235.339 315.827 235.256 315.744C235.173 315.662 235.127 315.549 235.127 315.432V218.863C235.127 218.746 235.173 218.633 235.256 218.551C235.339 218.468 235.451 218.421 235.568 218.421C235.686 218.421 235.798 218.468 235.881 218.551C235.963 218.633 236.01 218.746 236.01 218.863V315.432C236.003 315.547 235.955 315.656 235.873 315.737C235.792 315.819 235.683 315.867 235.568 315.874Z" fill="#A3A3A3"/>
<path d="M235.568 219.277C235.451 219.277 235.339 219.23 235.256 219.147C235.173 219.065 235.127 218.952 235.127 218.835V122.266C235.127 122.149 235.173 122.036 235.256 121.954C235.339 121.871 235.451 121.824 235.568 121.824C235.686 121.824 235.798 121.871 235.881 121.954C235.963 122.036 236.01 122.149 236.01 122.266V218.835C236.01 218.952 235.963 219.065 235.881 219.147C235.798 219.23 235.686 219.277 235.568 219.277Z" fill="#A3A3A3"/>
<path d="M235.57 122.597V112.002C235.57 111.123 235.223 110.281 234.605 109.656C234.297 109.348 233.932 109.104 233.529 108.938C233.126 108.772 232.695 108.688 232.259 108.691H192.556C192.12 108.685 191.687 108.768 191.284 108.934C190.881 109.1 190.516 109.345 190.21 109.656C189.593 110.281 189.246 111.123 189.245 112.002V122.542C189.239 122.711 189.274 122.879 189.346 123.033C189.418 123.186 189.525 123.32 189.659 123.424C189.787 123.532 189.939 123.607 190.102 123.646C190.264 123.684 190.434 123.684 190.597 123.645C204.967 120.417 219.875 120.417 234.246 123.645C234.406 123.678 234.571 123.675 234.73 123.636C234.888 123.597 235.036 123.523 235.163 123.42C235.289 123.317 235.392 123.188 235.462 123.041C235.533 122.893 235.57 122.732 235.57 122.569" fill="#434343"/>
<path d="M212.365 120.776C219.791 120.777 227.194 121.6 234.438 123.231C234.524 123.273 234.619 123.294 234.714 123.294C234.81 123.294 234.904 123.273 234.99 123.231C235.067 123.167 235.129 123.087 235.172 122.997C235.215 122.906 235.238 122.807 235.239 122.707V111.974C235.239 111.242 234.948 110.54 234.43 110.023C233.913 109.506 233.211 109.215 232.479 109.215H192.555C191.823 109.215 191.121 109.506 190.604 110.023C190.086 110.54 189.796 111.242 189.796 111.974V122.542C189.79 122.643 189.81 122.744 189.853 122.835C189.897 122.927 189.962 123.006 190.044 123.066C190.134 123.112 190.233 123.136 190.334 123.136C190.434 123.136 190.534 123.112 190.623 123.066C197.798 121.465 205.125 120.651 212.476 120.638L212.365 120.776ZM234.549 124.004H234.19C219.892 120.789 205.059 120.789 190.761 124.004C190.532 124.058 190.294 124.058 190.064 124.005C189.834 123.953 189.62 123.848 189.437 123.7C189.254 123.556 189.106 123.372 189.005 123.161C188.905 122.95 188.854 122.72 188.858 122.486V111.974C188.872 110.986 189.273 110.043 189.974 109.346C190.676 108.65 191.622 108.256 192.61 108.249H232.314C232.825 108.234 233.334 108.324 233.808 108.514C234.283 108.704 234.713 108.989 235.073 109.353C235.442 109.708 235.731 110.138 235.921 110.614C236.112 111.089 236.199 111.6 236.177 112.112V122.735C236.176 122.963 236.123 123.189 236.023 123.394C235.922 123.6 235.777 123.78 235.597 123.921C235.334 124.144 235.003 124.27 234.659 124.28" fill="#A3A3A3"/>
<path d="M234.356 141.607C234.507 141.608 234.656 141.64 234.794 141.702C234.932 141.763 235.055 141.854 235.156 141.966C235.266 142.069 235.354 142.193 235.416 142.33C235.478 142.467 235.511 142.616 235.515 142.766V154.934C235.511 155.825 235.154 156.679 234.521 157.307C234.211 157.619 233.841 157.865 233.433 158.031C233.025 158.197 232.589 158.279 232.149 158.273H192.555C192.12 158.275 191.688 158.191 191.285 158.025C190.883 157.86 190.517 157.615 190.21 157.307C189.597 156.679 189.251 155.839 189.244 154.962V142.656C189.245 142.378 189.354 142.111 189.548 141.911C189.641 141.815 189.752 141.738 189.875 141.686C189.999 141.634 190.131 141.607 190.265 141.607H234.356Z" fill="#434343"/>
<path d="M232.148 157.693C232.533 157.693 232.913 157.618 233.268 157.471C233.623 157.324 233.946 157.109 234.218 156.838C234.497 156.6 234.726 156.31 234.892 155.983C235.058 155.656 235.157 155.299 235.183 154.934V142.794C235.175 142.606 235.096 142.429 234.963 142.297C234.899 142.229 234.822 142.174 234.737 142.136C234.652 142.098 234.559 142.078 234.466 142.076H190.32C190.241 142.079 190.164 142.097 190.093 142.13C190.022 142.164 189.958 142.211 189.906 142.269C189.851 142.323 189.808 142.388 189.78 142.459C189.751 142.53 189.738 142.607 189.741 142.683V154.934C189.741 155.666 190.031 156.367 190.549 156.885C191.066 157.402 191.768 157.693 192.5 157.693H232.148ZM232.148 158.576H192.527C192.015 158.598 191.505 158.511 191.029 158.321C190.553 158.13 190.124 157.841 189.768 157.472C189.402 157.115 189.115 156.685 188.925 156.209C188.734 155.734 188.646 155.225 188.665 154.713V142.656C188.66 142.266 188.808 141.889 189.078 141.607C189.362 141.34 189.737 141.192 190.127 141.193H234.273C234.697 141.194 235.104 141.362 235.404 141.662C235.552 141.806 235.67 141.977 235.75 142.167C235.831 142.356 235.872 142.56 235.873 142.766V154.934C235.856 155.922 235.45 156.864 234.742 157.555C234.057 158.251 233.125 158.648 232.148 158.659" fill="#A3A3A3"/>
<path d="M235.57 314.963V325.586C235.57 326.464 235.222 327.306 234.601 327.927C233.98 328.548 233.138 328.897 232.26 328.897H192.556C191.677 328.896 190.835 328.549 190.21 327.931C189.598 327.304 189.251 326.463 189.245 325.586V314.963C189.239 314.798 189.274 314.633 189.346 314.484C189.418 314.335 189.525 314.206 189.659 314.108C189.787 314.001 189.939 313.925 190.102 313.887C190.264 313.848 190.434 313.849 190.597 313.887C204.969 317.102 219.874 317.102 234.246 313.887C234.404 313.846 234.57 313.845 234.729 313.883C234.888 313.922 235.035 313.999 235.157 314.108C235.284 314.205 235.388 314.33 235.46 314.474C235.532 314.617 235.569 314.775 235.57 314.936" fill="#434343"/>
<path d="M190.347 314.411C190.211 314.376 190.068 314.376 189.933 314.411C189.856 314.476 189.794 314.556 189.751 314.646C189.708 314.737 189.685 314.836 189.684 314.936V325.503C189.684 326.235 189.975 326.937 190.493 327.454C191.01 327.972 191.712 328.262 192.444 328.262H232.147C232.866 328.223 233.545 327.919 234.054 327.41C234.563 326.901 234.867 326.222 234.907 325.503V314.963C234.905 314.867 234.883 314.772 234.84 314.686C234.797 314.6 234.735 314.525 234.658 314.467C234.576 314.428 234.487 314.407 234.396 314.407C234.305 314.407 234.216 314.428 234.134 314.467C219.701 317.722 204.724 317.722 190.291 314.467H190.126L190.347 314.411ZM232.037 329.449H192.554C192.042 329.467 191.533 329.379 191.058 329.189C190.582 328.999 190.152 328.711 189.795 328.345C189.431 327.986 189.146 327.555 188.956 327.08C188.766 326.606 188.676 326.097 188.691 325.586V314.963C188.694 314.731 188.747 314.502 188.847 314.292C188.947 314.083 189.092 313.897 189.271 313.749C189.456 313.606 189.671 313.505 189.9 313.453C190.128 313.4 190.365 313.398 190.595 313.446C204.891 316.674 219.727 316.674 234.024 313.446C234.249 313.404 234.481 313.409 234.704 313.461C234.927 313.514 235.137 313.612 235.32 313.749C235.496 313.894 235.638 314.075 235.738 314.28C235.838 314.485 235.893 314.708 235.9 314.936V325.558C235.893 326.551 235.495 327.502 234.793 328.204C234.091 328.906 233.14 329.304 232.147 329.311" fill="#A3A3A3"/>
<path d="M234.356 296.008C234.512 296.014 234.667 295.984 234.81 295.922C234.953 295.86 235.081 295.767 235.184 295.649C235.407 295.431 235.536 295.134 235.542 294.821V282.709C235.535 281.818 235.178 280.966 234.548 280.337C233.919 279.707 233.067 279.35 232.176 279.343H192.555C192.118 279.345 191.686 279.434 191.283 279.605C190.881 279.775 190.516 280.024 190.21 280.336C189.592 280.96 189.245 281.803 189.244 282.681V294.959C189.251 295.228 189.361 295.484 189.551 295.674C189.741 295.864 189.996 295.973 190.265 295.98L234.356 296.008Z" fill="#434343"/>
<path d="M192.553 279.812C192.172 279.806 191.794 279.878 191.443 280.026C191.092 280.173 190.774 280.391 190.512 280.667C189.983 281.215 189.686 281.947 189.684 282.709V294.987C189.684 295.141 189.745 295.288 189.854 295.397C189.962 295.505 190.11 295.566 190.263 295.566H234.409C234.592 295.561 234.767 295.492 234.906 295.373C235.046 295.235 235.125 295.046 235.127 294.849V282.736C235.127 281.961 234.819 281.217 234.27 280.668C233.722 280.12 232.978 279.812 232.202 279.812H192.553ZM234.354 296.366H190.208C190.019 296.37 189.831 296.335 189.656 296.264C189.48 296.193 189.321 296.087 189.187 295.953C189.046 295.817 188.934 295.654 188.858 295.474C188.782 295.294 188.744 295.1 188.746 294.904V282.626C188.731 282.115 188.821 281.606 189.011 281.132C189.2 280.657 189.486 280.226 189.849 279.867C190.213 279.509 190.644 279.227 191.118 279.037C191.592 278.848 192.098 278.754 192.609 278.763H232.312C232.797 278.763 233.276 278.86 233.722 279.05C234.168 279.239 234.571 279.517 234.906 279.867C235.61 280.549 236.016 281.481 236.037 282.461V294.628C236.023 295.05 235.857 295.452 235.568 295.759C235.268 296.06 234.861 296.228 234.437 296.229" fill="#A3A3A3"/>
<path d="M163.225 322.523C163.189 322.523 163.153 322.516 163.119 322.502C163.086 322.489 163.055 322.468 163.03 322.443C163.004 322.417 162.984 322.387 162.97 322.353C162.956 322.32 162.949 322.284 162.949 322.247V228.244C162.945 228.207 162.949 228.169 162.961 228.133C162.973 228.098 162.993 228.066 163.02 228.039C163.047 228.012 163.079 227.992 163.114 227.98C163.15 227.968 163.188 227.964 163.225 227.968C163.298 227.968 163.368 227.997 163.42 228.049C163.472 228.101 163.501 228.171 163.501 228.244V322.247C163.495 322.319 163.463 322.385 163.413 322.436C163.363 322.486 163.296 322.517 163.225 322.523Z" fill="#A3A3A3"/>
<path d="M163.225 210.117C163.189 210.117 163.153 210.109 163.119 210.096C163.086 210.082 163.055 210.061 163.03 210.036C163.004 210.01 162.984 209.98 162.97 209.946C162.956 209.913 162.949 209.877 162.949 209.841V116.499C162.945 116.462 162.949 116.424 162.961 116.389C162.973 116.353 162.993 116.321 163.02 116.294C163.047 116.268 163.079 116.248 163.114 116.235C163.15 116.223 163.188 116.219 163.225 116.223C163.298 116.223 163.368 116.252 163.42 116.304C163.472 116.356 163.501 116.426 163.501 116.499V209.703C163.495 209.774 163.463 209.84 163.413 209.891C163.363 209.941 163.296 209.972 163.225 209.979" fill="#A3A3A3"/>
<path d="M161.82 118.872L163.227 108.967L164.607 118.872H161.82Z" fill="#A3A3A3"/>
<path d="M164.634 319.295L163.227 329.2L161.848 319.295H164.634Z" fill="#A3A3A3"/>
<path d="M160.688 222.643H162.867C163.388 222.661 163.908 222.605 164.413 222.477C164.751 222.372 165.062 222.193 165.323 221.953C165.678 221.591 165.934 221.145 166.068 220.656C166.27 220.033 166.363 219.38 166.344 218.725C166.398 217.874 166.217 217.024 165.82 216.269C165.526 215.768 165.082 215.372 164.55 215.138C163.988 214.966 163.4 214.892 162.812 214.917H160.688V222.643ZM159.363 223.857V213.731H162.84C163.436 213.674 164.037 213.674 164.633 213.731C165.183 213.854 165.695 214.109 166.123 214.476C166.663 214.937 167.08 215.525 167.337 216.186C167.599 216.959 167.73 217.771 167.723 218.587C167.74 219.278 167.647 219.967 167.448 220.629C167.308 221.162 167.074 221.667 166.758 222.119C166.512 222.475 166.204 222.783 165.847 223.029C165.475 223.265 165.064 223.433 164.633 223.526C164.102 223.666 163.554 223.731 163.005 223.719L159.363 223.857Z" fill="#A3A3A3"/>
<path d="M187.174 108.967H159.969C159.933 108.967 159.897 108.96 159.863 108.946C159.83 108.932 159.8 108.911 159.774 108.886C159.748 108.86 159.728 108.83 159.714 108.796C159.7 108.763 159.693 108.727 159.693 108.691C159.689 108.653 159.693 108.616 159.705 108.58C159.717 108.545 159.738 108.512 159.764 108.486C159.791 108.459 159.823 108.439 159.858 108.427C159.894 108.414 159.932 108.41 159.969 108.415H187.174C187.247 108.415 187.317 108.444 187.369 108.496C187.421 108.547 187.45 108.618 187.45 108.691C187.444 108.762 187.413 108.828 187.362 108.879C187.312 108.929 187.245 108.96 187.174 108.967Z" fill="#A3A3A3"/>
<path d="M187.974 329.228H159.969C159.933 329.228 159.897 329.221 159.863 329.207C159.83 329.193 159.8 329.173 159.774 329.147C159.748 329.121 159.728 329.091 159.714 329.058C159.7 329.024 159.693 328.988 159.693 328.952C159.689 328.915 159.693 328.877 159.705 328.841C159.717 328.806 159.738 328.774 159.764 328.747C159.791 328.72 159.823 328.7 159.858 328.688C159.894 328.676 159.932 328.672 159.969 328.676H187.974C188.047 328.676 188.118 328.705 188.169 328.757C188.221 328.809 188.25 328.879 188.25 328.952C188.244 329.023 188.213 329.09 188.162 329.14C188.112 329.191 188.045 329.222 187.974 329.228Z" fill="#A3A3A3"/>
<path d="M229.197 81.3756H220.092C220.056 81.3756 220.02 81.3684 219.987 81.3546C219.953 81.3407 219.923 81.3204 219.897 81.2947C219.872 81.2691 219.851 81.2387 219.837 81.2052C219.824 81.1718 219.816 81.1359 219.816 81.0996C219.823 81.0286 219.854 80.9619 219.904 80.9115C219.955 80.861 220.021 80.8299 220.092 80.8237H229.197C229.234 80.8237 229.27 80.8309 229.303 80.8447C229.336 80.8586 229.367 80.8789 229.393 80.9045C229.418 80.9302 229.439 80.9606 229.452 80.9941C229.466 81.0275 229.473 81.0634 229.473 81.0996C229.478 81.137 229.474 81.1748 229.461 81.2103C229.449 81.2458 229.429 81.278 229.402 81.3046C229.376 81.3311 229.344 81.3513 229.308 81.3636C229.273 81.3759 229.235 81.38 229.197 81.3756Z" fill="#A3A3A3"/>
<path d="M205.027 81.3756H195.977C195.94 81.38 195.902 81.3759 195.866 81.3636C195.831 81.3513 195.798 81.3311 195.772 81.3046C195.745 81.278 195.725 81.2458 195.713 81.2103C195.701 81.1748 195.697 81.137 195.701 81.0996C195.701 81.0265 195.73 80.9563 195.782 80.9045C195.834 80.8528 195.904 80.8237 195.977 80.8237H205.027C205.1 80.8237 205.17 80.8528 205.222 80.9045C205.274 80.9563 205.303 81.0265 205.303 81.0996C205.307 81.137 205.303 81.1748 205.291 81.2103C205.278 81.2458 205.258 81.278 205.232 81.3046C205.205 81.3311 205.173 81.3513 205.137 81.3636C205.102 81.3759 205.064 81.38 205.027 81.3756Z" fill="#A3A3A3"/>
<path d="M199.149 82.5069L189.244 81.0998L199.149 79.7202V82.5069Z" fill="#A3A3A3"/>
<path d="M225.664 79.7202L235.569 81.1274L225.664 82.5069V79.7202Z" fill="#A3A3A3"/>
<path d="M210.188 85.1279H212.699H213.609C213.884 85.0959 214.148 85.0015 214.382 84.852C214.609 84.726 214.792 84.5334 214.906 84.3001C215.043 84.0367 215.11 83.7419 215.099 83.4448C215.113 83.093 215.017 82.7456 214.823 82.4515C214.627 82.176 214.346 81.9725 214.023 81.8721C213.537 81.7462 213.035 81.6905 212.533 81.7066H210.188V85.1279ZM210.188 80.4649H212.367C212.798 80.525 213.234 80.525 213.664 80.4649C213.972 80.3946 214.245 80.2189 214.437 79.9683C214.612 79.7082 214.699 79.3987 214.685 79.0854C214.692 78.7729 214.605 78.4656 214.437 78.2025C214.279 77.9488 214.034 77.7622 213.747 77.6782C213.24 77.569 212.721 77.5226 212.202 77.5403H210.188V80.4649ZM208.863 86.3143V76.2159H212.643C213.283 76.1831 213.923 76.2865 214.52 76.5194C214.966 76.7142 215.342 77.0417 215.596 77.4575C215.848 77.8377 215.983 78.284 215.983 78.7405C215.983 79.197 215.848 79.6433 215.596 80.0235C215.339 80.4301 214.963 80.748 214.52 80.934C215.082 81.079 215.584 81.3976 215.954 81.8445C216.276 82.2938 216.441 82.837 216.423 83.3896C216.43 83.846 216.336 84.2983 216.147 84.714C215.966 85.0743 215.712 85.3936 215.402 85.6521C215.07 85.8882 214.696 86.0569 214.299 86.1488C213.756 86.27 213.2 86.3256 212.643 86.3143H208.863Z" fill="#A3A3A3"/>
<path d="M189.217 107.615C189.144 107.615 189.074 107.586 189.022 107.534C188.97 107.482 188.941 107.412 188.941 107.339V78.2027C188.948 78.1316 188.979 78.065 189.029 78.0145C189.08 77.964 189.146 77.933 189.217 77.9268C189.291 77.9268 189.361 77.9558 189.412 78.0076C189.464 78.0593 189.493 78.1295 189.493 78.2027V107.339C189.498 107.376 189.494 107.414 189.481 107.45C189.469 107.485 189.449 107.517 189.422 107.544C189.396 107.571 189.363 107.591 189.328 107.603C189.292 107.615 189.255 107.619 189.217 107.615Z" fill="#A3A3A3"/>
<path d="M235.571 107.615C235.533 107.619 235.495 107.615 235.46 107.603C235.425 107.591 235.392 107.571 235.366 107.544C235.339 107.517 235.319 107.485 235.307 107.45C235.294 107.414 235.29 107.376 235.295 107.339V78.2027C235.295 78.1295 235.324 78.0593 235.375 78.0076C235.427 77.9558 235.497 77.9268 235.571 77.9268C235.642 77.933 235.708 77.964 235.759 78.0145C235.809 78.065 235.84 78.1316 235.846 78.2027V107.339C235.846 107.412 235.817 107.482 235.766 107.534C235.714 107.586 235.644 107.615 235.571 107.615Z" fill="#A3A3A3"/>
<path d="M263.053 273.107C263.016 273.112 262.978 273.108 262.942 273.095C262.907 273.083 262.875 273.063 262.848 273.036C262.822 273.01 262.801 272.978 262.789 272.942C262.777 272.907 262.773 272.869 262.777 272.832V228.023C262.773 227.986 262.777 227.948 262.789 227.913C262.801 227.877 262.822 227.845 262.848 227.818C262.875 227.792 262.907 227.772 262.942 227.759C262.978 227.747 263.016 227.743 263.053 227.747C263.126 227.747 263.196 227.776 263.248 227.828C263.3 227.88 263.329 227.95 263.329 228.023V272.832C263.329 272.905 263.3 272.975 263.248 273.027C263.196 273.078 263.126 273.107 263.053 273.107Z" fill="#A3A3A3"/>
<path d="M263.053 210.116C263.016 210.121 262.978 210.117 262.942 210.105C262.907 210.092 262.875 210.072 262.848 210.045C262.822 210.019 262.801 209.987 262.789 209.951C262.777 209.916 262.773 209.878 262.777 209.841V166.384C262.777 166.311 262.806 166.241 262.858 166.189C262.91 166.137 262.98 166.108 263.053 166.108C263.124 166.115 263.191 166.146 263.241 166.196C263.292 166.247 263.323 166.313 263.329 166.384V209.923C263.329 209.997 263.3 210.067 263.248 210.118C263.196 210.17 263.126 210.199 263.053 210.199" fill="#A3A3A3"/>
<path d="M261.645 168.178L263.052 158.272L264.431 168.178H261.645Z" fill="#A3A3A3"/>
<path d="M264.431 269.493L263.052 279.398L261.645 269.493H264.431Z" fill="#A3A3A3"/>
<path d="M260.155 220.159C260.108 220.916 260.322 221.666 260.762 222.284C260.926 222.501 261.139 222.677 261.384 222.796C261.628 222.916 261.897 222.977 262.169 222.974C262.434 222.972 262.695 222.912 262.933 222.797C263.172 222.683 263.382 222.517 263.549 222.312C263.969 221.718 264.165 220.994 264.101 220.27C264.164 219.49 263.959 218.711 263.521 218.063C263.357 217.845 263.144 217.67 262.9 217.55C262.655 217.43 262.386 217.37 262.114 217.373C261.845 217.37 261.579 217.429 261.335 217.543C261.091 217.658 260.877 217.826 260.707 218.035C260.291 218.662 260.096 219.41 260.155 220.159ZM264.101 223.829V222.891C263.887 223.244 263.582 223.534 263.218 223.728C262.854 223.922 262.444 224.014 262.031 223.995C261.459 223.999 260.9 223.825 260.431 223.498C259.93 223.179 259.537 222.718 259.3 222.174C259.012 221.542 258.87 220.853 258.886 220.159C258.888 219.481 259.009 218.809 259.245 218.173C259.457 217.615 259.844 217.14 260.348 216.821C260.825 216.488 261.395 216.314 261.976 216.324C262.391 216.32 262.801 216.425 263.163 216.628C263.505 216.789 263.8 217.036 264.018 217.345V213.703H265.232V223.912L264.101 223.829Z" fill="#A3A3A3"/>
<path d="M266.581 158.521H237.942C237.904 158.525 237.867 158.521 237.831 158.509C237.796 158.496 237.763 158.476 237.737 158.45C237.71 158.423 237.69 158.391 237.678 158.355C237.665 158.32 237.661 158.282 237.666 158.245C237.666 158.171 237.695 158.101 237.747 158.05C237.798 157.998 237.869 157.969 237.942 157.969H266.719C266.793 157.969 266.863 157.998 266.915 158.05C266.966 158.101 266.995 158.171 266.995 158.245C267 158.282 266.996 158.32 266.983 158.355C266.971 158.391 266.951 158.423 266.924 158.45C266.898 158.476 266.866 158.496 266.83 158.509C266.795 158.521 266.757 158.525 266.719 158.521" fill="#A3A3A3"/>
<path d="M266.581 279.647H237.942C237.904 279.651 237.867 279.647 237.831 279.635C237.796 279.622 237.763 279.602 237.737 279.576C237.71 279.549 237.69 279.517 237.678 279.481C237.665 279.446 237.661 279.408 237.666 279.371C237.666 279.297 237.695 279.227 237.747 279.176C237.798 279.124 237.869 279.095 237.942 279.095H266.719C266.793 279.095 266.863 279.124 266.915 279.176C266.966 279.227 266.995 279.297 266.995 279.371C267 279.408 266.996 279.446 266.983 279.481C266.971 279.517 266.951 279.549 266.924 279.576C266.898 279.602 266.866 279.622 266.83 279.635C266.795 279.647 266.757 279.651 266.719 279.647" fill="#A3A3A3"/>
<path d="M201.19 293.111C203.438 293.111 205.636 293.778 207.505 295.027C209.375 296.276 210.832 298.051 211.692 300.128C212.553 302.205 212.778 304.491 212.339 306.696C211.9 308.901 210.818 310.927 209.228 312.517C207.638 314.106 205.613 315.189 203.408 315.628C201.203 316.066 198.917 315.841 196.84 314.981C194.763 314.12 192.987 312.663 191.738 310.794C190.489 308.925 189.822 306.727 189.822 304.478C189.819 302.985 190.11 301.505 190.68 300.124C191.25 298.743 192.087 297.489 193.144 296.432C194.2 295.376 195.455 294.539 196.835 293.969C198.216 293.399 199.696 293.107 201.19 293.111Z" fill="#D3D3D3"/>
<path d="M201.191 293.552C199.008 293.552 196.874 294.2 195.059 295.412C193.244 296.625 191.83 298.349 190.995 300.365C190.159 302.382 189.941 304.601 190.366 306.742C190.792 308.883 191.843 310.849 193.387 312.393C194.93 313.936 196.897 314.987 199.038 315.413C201.179 315.839 203.398 315.621 205.414 314.785C207.431 313.95 209.155 312.535 210.367 310.72C211.58 308.905 212.227 306.772 212.227 304.589C212.227 301.662 211.065 298.855 208.995 296.785C206.925 294.715 204.118 293.552 201.191 293.552ZM201.191 316.288C198.86 316.266 196.588 315.555 194.661 314.244C192.733 312.933 191.237 311.081 190.36 308.922C189.483 306.762 189.265 304.391 189.733 302.108C190.201 299.824 191.334 297.73 192.99 296.09C194.646 294.449 196.75 293.336 199.038 292.889C201.325 292.442 203.694 292.682 205.846 293.579C207.997 294.476 209.835 295.99 211.128 297.929C212.42 299.869 213.11 302.148 213.11 304.478C213.11 306.029 212.805 307.565 212.211 308.998C211.618 310.43 210.748 311.732 209.652 312.829C208.555 313.925 207.253 314.795 205.82 315.389C204.388 315.982 202.852 316.288 201.301 316.288" fill="#A3A3A3"/>
<path d="M201.301 121.824C203.549 121.824 205.747 122.491 207.617 123.74C209.486 124.989 210.943 126.764 211.804 128.842C212.664 130.919 212.889 133.204 212.45 135.41C212.012 137.615 210.929 139.64 209.339 141.23C207.749 142.82 205.724 143.902 203.519 144.341C201.314 144.78 199.028 144.555 196.951 143.694C194.874 142.834 193.098 141.377 191.849 139.507C190.6 137.638 189.934 135.44 189.934 133.192C189.934 130.177 191.131 127.286 193.263 125.154C195.395 123.022 198.286 121.824 201.301 121.824Z" fill="#D3D3D3"/>
<path d="M201.301 122.266C199.118 122.266 196.985 122.913 195.17 124.126C193.355 125.338 191.94 127.062 191.105 129.079C190.269 131.095 190.051 133.314 190.477 135.455C190.903 137.596 191.954 139.563 193.497 141.106C195.041 142.65 197.007 143.701 199.148 144.127C201.289 144.553 203.508 144.334 205.525 143.499C207.541 142.663 209.265 141.249 210.478 139.434C211.69 137.619 212.338 135.485 212.338 133.302C212.338 130.375 211.175 127.568 209.105 125.498C207.035 123.429 204.228 122.266 201.301 122.266ZM201.301 145.001C198.966 145.001 196.682 144.308 194.74 143.011C192.798 141.713 191.285 139.869 190.391 137.711C189.497 135.553 189.263 133.179 189.719 130.888C190.175 128.597 191.299 126.493 192.951 124.842C194.602 123.19 196.707 122.065 198.997 121.61C201.288 121.154 203.663 121.388 205.82 122.282C207.978 123.176 209.823 124.689 211.12 126.631C212.418 128.573 213.11 130.856 213.11 133.192C213.11 134.743 212.805 136.278 212.211 137.711C211.618 139.144 210.748 140.446 209.652 141.542C208.555 142.639 207.253 143.509 205.82 144.102C204.388 144.695 202.852 145.001 201.301 145.001Z" fill="#A3A3A3"/>
<path d="M198.627 310.549H195.233C195.146 310.549 195.061 310.514 194.999 310.452C194.937 310.39 194.902 310.305 194.902 310.218V298.16C194.902 298.072 194.937 297.988 194.999 297.926C195.061 297.864 195.146 297.829 195.233 297.829H198.627C198.715 297.829 198.799 297.864 198.861 297.926C198.923 297.988 198.958 298.072 198.958 298.16C198.958 298.248 198.923 298.332 198.861 298.394C198.799 298.456 198.715 298.491 198.627 298.491H195.565V309.887H198.627C198.715 309.887 198.799 309.921 198.861 309.983C198.923 310.046 198.958 310.13 198.958 310.218C198.958 310.305 198.923 310.39 198.861 310.452C198.799 310.514 198.715 310.549 198.627 310.549Z" fill="#A3A3A3"/>
<path d="M213.719 310.411C213.666 310.432 213.607 310.432 213.554 310.411C212.453 308.53 211.908 306.376 211.981 304.198C212.054 302.02 212.743 299.908 213.968 298.105C214.007 298.074 214.055 298.057 214.106 298.057C214.156 298.057 214.204 298.074 214.244 298.105C214.275 298.144 214.292 298.193 214.292 298.243C214.292 298.293 214.275 298.342 214.244 298.381C213.05 300.119 212.379 302.163 212.311 304.27C212.242 306.378 212.779 308.461 213.857 310.273C213.889 310.312 213.906 310.361 213.906 310.411C213.906 310.461 213.889 310.51 213.857 310.549" fill="#A3A3A3"/>
<path d="M213.747 310.218H198.627V298.16H214.188" fill="#434343"/>
<path d="M198.626 310.549C198.554 310.574 198.476 310.574 198.405 310.549C198.388 310.514 198.379 310.477 198.379 310.438C198.379 310.4 198.388 310.362 198.405 310.328V298.271C198.405 298.183 198.44 298.099 198.502 298.036C198.564 297.974 198.648 297.939 198.736 297.939H214.297C214.385 297.939 214.469 297.974 214.532 298.036C214.594 298.099 214.628 298.183 214.628 298.271C214.628 298.358 214.594 298.443 214.532 298.505C214.469 298.567 214.385 298.602 214.297 298.602H199.067V309.997H213.828C213.916 309.997 214 310.032 214.062 310.094C214.125 310.156 214.159 310.24 214.159 310.328C214.159 310.416 214.125 310.5 214.062 310.562C214 310.624 213.916 310.659 213.828 310.659L198.626 310.549Z" fill="#A3A3A3"/>
<path d="M198.627 139.842H195.233C195.146 139.842 195.061 139.807 194.999 139.745C194.937 139.683 194.902 139.598 194.902 139.511V127.343C194.902 127.255 194.937 127.171 194.999 127.109C195.061 127.047 195.146 127.012 195.233 127.012H198.627C198.715 127.012 198.799 127.047 198.861 127.109C198.923 127.171 198.958 127.255 198.958 127.343C198.958 127.431 198.923 127.515 198.861 127.577C198.799 127.639 198.715 127.674 198.627 127.674H195.565V139.069H198.627C198.715 139.069 198.799 139.104 198.861 139.166C198.923 139.228 198.958 139.312 198.958 139.4C198.958 139.488 198.923 139.572 198.861 139.634C198.799 139.696 198.715 139.731 198.627 139.731" fill="#A3A3A3"/>
<path d="M214.133 139.759C214.107 139.771 214.079 139.777 214.05 139.777C214.022 139.777 213.993 139.771 213.968 139.759C212.743 137.956 212.054 135.843 211.981 133.666C211.908 131.488 212.453 129.334 213.554 127.453C213.579 127.405 213.623 127.37 213.675 127.354C213.726 127.339 213.782 127.344 213.83 127.37C213.877 127.396 213.913 127.439 213.928 127.491C213.944 127.543 213.938 127.598 213.912 127.646C212.834 129.458 212.297 131.541 212.366 133.648C212.434 135.756 213.105 137.8 214.299 139.538C214.33 139.577 214.347 139.626 214.347 139.676C214.347 139.726 214.33 139.775 214.299 139.814" fill="#A3A3A3"/>
<path d="M213.747 127.48H198.627V139.51H214.188" fill="#434343"/>
<path d="M214.188 139.842H198.626C198.539 139.842 198.454 139.807 198.392 139.745C198.33 139.682 198.295 139.598 198.295 139.51V127.343C198.278 127.308 198.27 127.271 198.27 127.232C198.27 127.194 198.278 127.156 198.295 127.122C198.367 127.097 198.445 127.097 198.516 127.122H213.609C213.696 127.122 213.781 127.157 213.843 127.219C213.905 127.281 213.94 127.365 213.94 127.453C213.94 127.541 213.905 127.625 213.843 127.687C213.781 127.749 213.696 127.784 213.609 127.784H198.847V139.179H214.078C214.121 139.179 214.164 139.188 214.204 139.205C214.244 139.221 214.281 139.246 214.312 139.276C214.342 139.307 214.367 139.344 214.383 139.384C214.4 139.424 214.409 139.467 214.409 139.51C214.409 139.554 214.4 139.597 214.383 139.637C214.367 139.677 214.342 139.714 214.312 139.745C214.281 139.775 214.244 139.8 214.204 139.816C214.164 139.833 214.121 139.842 214.078 139.842" fill="#A3A3A3"/>
<path d="M223.596 293.111C225.844 293.111 228.042 293.778 229.912 295.027C231.781 296.276 233.238 298.051 234.098 300.128C234.959 302.205 235.184 304.491 234.745 306.696C234.307 308.901 233.224 310.927 231.634 312.517C230.045 314.106 228.019 315.189 225.814 315.628C223.609 316.066 221.323 315.841 219.246 314.981C217.169 314.12 215.393 312.663 214.144 310.794C212.895 308.925 212.229 306.727 212.229 304.478C212.225 302.985 212.516 301.505 213.086 300.124C213.656 298.743 214.494 297.489 215.55 296.432C216.606 295.376 217.861 294.539 219.242 293.969C220.622 293.399 222.102 293.107 223.596 293.111Z" fill="#D3D3D3"/>
<path d="M223.596 293.552C221.413 293.552 219.28 294.2 217.465 295.412C215.65 296.625 214.235 298.349 213.4 300.365C212.564 302.382 212.346 304.601 212.772 306.742C213.198 308.883 214.249 310.849 215.792 312.393C217.336 313.936 219.302 314.987 221.443 315.413C223.584 315.839 225.803 315.621 227.82 314.785C229.836 313.95 231.56 312.535 232.773 310.72C233.985 308.905 234.633 306.772 234.633 304.589C234.633 301.662 233.47 298.855 231.4 296.785C229.33 294.715 226.523 293.552 223.596 293.552ZM223.596 316.288C221.261 316.288 218.977 315.595 217.035 314.297C215.093 313 213.58 311.155 212.686 308.998C211.792 306.84 211.558 304.465 212.014 302.175C212.47 299.884 213.594 297.78 215.246 296.128C216.897 294.477 219.002 293.352 221.292 292.896C223.583 292.441 225.958 292.675 228.115 293.568C230.273 294.462 232.118 295.976 233.415 297.918C234.713 299.86 235.405 302.143 235.405 304.478C235.405 306.029 235.1 307.565 234.506 308.998C233.913 310.43 233.043 311.732 231.946 312.829C230.85 313.925 229.548 314.795 228.115 315.389C226.683 315.982 225.147 316.288 223.596 316.288Z" fill="#A3A3A3"/>
<path d="M223.596 121.824C225.844 121.824 228.042 122.491 229.912 123.74C231.781 124.989 233.238 126.764 234.098 128.842C234.959 130.919 235.184 133.204 234.745 135.41C234.307 137.615 233.224 139.64 231.634 141.23C230.044 142.82 228.019 143.902 225.814 144.341C223.609 144.78 221.323 144.555 219.246 143.694C217.169 142.834 215.393 141.377 214.144 139.507C212.895 137.638 212.229 135.44 212.229 133.192C212.229 130.177 213.426 127.286 215.558 125.154C217.69 123.022 220.581 121.824 223.596 121.824Z" fill="#D3D3D3"/>
<path d="M223.596 122.266C221.413 122.266 219.28 122.913 217.465 124.126C215.65 125.338 214.235 127.062 213.4 129.079C212.564 131.095 212.346 133.314 212.772 135.455C213.198 137.596 214.249 139.563 215.792 141.106C217.336 142.65 219.302 143.701 221.443 144.127C223.584 144.553 225.803 144.334 227.82 143.499C229.836 142.663 231.56 141.249 232.773 139.434C233.985 137.619 234.633 135.485 234.633 133.302C234.633 130.375 233.47 127.568 231.4 125.498C229.33 123.429 226.523 122.266 223.596 122.266ZM223.596 145.001C221.261 145.001 218.977 144.308 217.035 143.011C215.093 141.713 213.58 139.869 212.686 137.711C211.792 135.553 211.558 133.179 212.014 130.888C212.47 128.597 213.594 126.493 215.246 124.842C216.897 123.19 219.002 122.065 221.292 121.61C223.583 121.154 225.958 121.388 228.115 122.282C230.273 123.176 232.118 124.689 233.415 126.631C234.713 128.573 235.405 130.856 235.405 133.192C235.405 136.324 234.161 139.328 231.946 141.542C229.732 143.757 226.728 145.001 223.596 145.001Z" fill="#A3A3A3"/>
<path d="M182.803 346.313H182.081V343.528L181.218 343.795V343.208L182.726 342.668H182.803V346.313ZM186.483 346.313H183.988V345.818L185.166 344.563C185.327 344.386 185.447 344.232 185.523 344.1C185.602 343.969 185.641 343.844 185.641 343.725C185.641 343.564 185.6 343.437 185.518 343.345C185.437 343.252 185.32 343.205 185.168 343.205C185.005 343.205 184.876 343.262 184.781 343.375C184.687 343.487 184.641 343.635 184.641 343.818H183.916C183.916 343.596 183.968 343.394 184.073 343.21C184.18 343.027 184.33 342.884 184.523 342.78C184.717 342.675 184.936 342.623 185.181 342.623C185.556 342.623 185.847 342.713 186.053 342.893C186.262 343.073 186.366 343.327 186.366 343.655C186.366 343.835 186.319 344.019 186.226 344.205C186.132 344.392 185.972 344.61 185.746 344.858L184.918 345.73H186.483V346.313ZM186.996 345.958C186.996 345.843 187.034 345.75 187.111 345.678C187.189 345.606 187.287 345.57 187.403 345.57C187.522 345.57 187.619 345.606 187.696 345.678C187.774 345.75 187.813 345.843 187.813 345.958C187.813 346.071 187.775 346.164 187.698 346.235C187.622 346.305 187.523 346.34 187.403 346.34C187.285 346.34 187.187 346.305 187.111 346.235C187.034 346.164 186.996 346.071 186.996 345.958ZM188.486 345.958C188.486 345.843 188.524 345.75 188.601 345.678C188.679 345.606 188.777 345.57 188.893 345.57C189.012 345.57 189.109 345.606 189.186 345.678C189.264 345.75 189.303 345.843 189.303 345.958C189.303 346.071 189.265 346.164 189.188 346.235C189.112 346.305 189.013 346.34 188.893 346.34C188.775 346.34 188.677 346.305 188.601 346.235C188.524 346.164 188.486 346.071 188.486 345.958ZM196.763 346.313H196.041V343.528L195.178 343.795V343.208L196.686 342.668H196.763V346.313ZM198.683 344.173H199.068C199.252 344.173 199.387 344.127 199.476 344.035C199.564 343.944 199.608 343.822 199.608 343.67C199.608 343.524 199.564 343.41 199.476 343.328C199.389 343.246 199.269 343.205 199.116 343.205C198.977 343.205 198.862 343.244 198.768 343.32C198.675 343.395 198.628 343.494 198.628 343.615H197.906C197.906 343.425 197.957 343.255 198.058 343.105C198.162 342.954 198.305 342.835 198.488 342.75C198.673 342.665 198.877 342.623 199.098 342.623C199.483 342.623 199.785 342.715 200.003 342.9C200.222 343.084 200.331 343.337 200.331 343.66C200.331 343.827 200.28 343.98 200.178 344.12C200.077 344.26 199.943 344.368 199.778 344.443C199.983 344.516 200.136 344.626 200.236 344.773C200.337 344.92 200.388 345.093 200.388 345.293C200.388 345.616 200.27 345.875 200.033 346.07C199.798 346.265 199.487 346.363 199.098 346.363C198.735 346.363 198.437 346.267 198.206 346.075C197.976 345.884 197.861 345.63 197.861 345.315H198.583C198.583 345.452 198.634 345.564 198.736 345.65C198.839 345.737 198.966 345.78 199.116 345.78C199.287 345.78 199.422 345.735 199.518 345.645C199.617 345.554 199.666 345.433 199.666 345.283C199.666 344.92 199.466 344.738 199.066 344.738H198.683V344.173ZM200.956 345.958C200.956 345.843 200.994 345.75 201.071 345.678C201.149 345.606 201.247 345.57 201.363 345.57C201.482 345.57 201.579 345.606 201.656 345.678C201.734 345.75 201.773 345.843 201.773 345.958C201.773 346.071 201.735 346.164 201.658 346.235C201.582 346.305 201.483 346.34 201.363 346.34C201.245 346.34 201.147 346.305 201.071 346.235C200.994 346.164 200.956 346.071 200.956 345.958Z" fill="#A3A3A3"/>
<path d="M239.94 345.958C239.94 345.843 239.978 345.75 240.055 345.678C240.133 345.606 240.231 345.57 240.347 345.57C240.466 345.57 240.563 345.606 240.64 345.678C240.718 345.75 240.757 345.843 240.757 345.958C240.757 346.071 240.719 346.164 240.642 346.235C240.566 346.305 240.467 346.34 240.347 346.34C240.229 346.34 240.132 346.305 240.055 346.235C239.978 346.164 239.94 346.071 239.94 345.958Z" fill="#A3A3A3"/>
<path d="M183.543 363.254H181.048V362.759L182.226 361.504C182.387 361.327 182.507 361.173 182.583 361.041C182.662 360.91 182.701 360.785 182.701 360.666C182.701 360.505 182.66 360.378 182.578 360.286C182.497 360.193 182.38 360.146 182.228 360.146C182.065 360.146 181.936 360.203 181.841 360.316C181.747 360.428 181.701 360.576 181.701 360.759H180.976C180.976 360.537 181.028 360.335 181.133 360.151C181.24 359.968 181.39 359.825 181.583 359.721C181.777 359.616 181.996 359.564 182.241 359.564C182.616 359.564 182.907 359.654 183.113 359.834C183.322 360.014 183.426 360.268 183.426 360.596C183.426 360.776 183.379 360.96 183.286 361.146C183.192 361.333 183.032 361.551 182.806 361.799L181.978 362.671H183.543V363.254ZM186.483 363.254H183.988V362.759L185.166 361.504C185.327 361.327 185.447 361.173 185.523 361.041C185.602 360.91 185.641 360.785 185.641 360.666C185.641 360.505 185.6 360.378 185.518 360.286C185.437 360.193 185.32 360.146 185.168 360.146C185.005 360.146 184.876 360.203 184.781 360.316C184.687 360.428 184.641 360.576 184.641 360.759H183.916C183.916 360.537 183.968 360.335 184.073 360.151C184.18 359.968 184.33 359.825 184.523 359.721C184.717 359.616 184.936 359.564 185.181 359.564C185.556 359.564 185.847 359.654 186.053 359.834C186.262 360.014 186.366 360.268 186.366 360.596C186.366 360.776 186.319 360.96 186.226 361.146C186.132 361.333 185.972 361.551 185.746 361.799L184.918 362.671H186.483V363.254ZM186.996 362.899C186.996 362.784 187.034 362.691 187.111 362.619C187.189 362.547 187.287 362.511 187.403 362.511C187.522 362.511 187.619 362.547 187.696 362.619C187.774 362.691 187.813 362.784 187.813 362.899C187.813 363.012 187.775 363.105 187.698 363.176C187.622 363.246 187.523 363.281 187.403 363.281C187.285 363.281 187.187 363.246 187.111 363.176C187.034 363.105 186.996 363.012 186.996 362.899ZM188.486 362.899C188.486 362.784 188.524 362.691 188.601 362.619C188.679 362.547 188.777 362.511 188.893 362.511C189.012 362.511 189.109 362.547 189.186 362.619C189.264 362.691 189.303 362.784 189.303 362.899C189.303 363.012 189.265 363.105 189.188 363.176C189.112 363.246 189.013 363.281 188.893 363.281C188.775 363.281 188.677 363.246 188.601 363.176C188.524 363.105 188.486 363.012 188.486 362.899ZM197.503 363.254H195.008V362.759L196.186 361.504C196.347 361.327 196.467 361.173 196.543 361.041C196.622 360.91 196.661 360.785 196.661 360.666C196.661 360.505 196.62 360.378 196.538 360.286C196.457 360.193 196.34 360.146 196.188 360.146C196.025 360.146 195.896 360.203 195.801 360.316C195.707 360.428 195.661 360.576 195.661 360.759H194.936C194.936 360.537 194.988 360.335 195.093 360.151C195.2 359.968 195.35 359.825 195.543 359.721C195.737 359.616 195.956 359.564 196.201 359.564C196.576 359.564 196.867 359.654 197.073 359.834C197.282 360.014 197.386 360.268 197.386 360.596C197.386 360.776 197.339 360.96 197.246 361.146C197.152 361.333 196.992 361.551 196.766 361.799L195.938 362.671H197.503V363.254ZM198.683 361.114H199.068C199.252 361.114 199.387 361.068 199.476 360.976C199.564 360.885 199.608 360.763 199.608 360.611C199.608 360.465 199.564 360.351 199.476 360.269C199.389 360.187 199.269 360.146 199.116 360.146C198.977 360.146 198.862 360.185 198.768 360.261C198.675 360.336 198.628 360.435 198.628 360.556H197.906C197.906 360.366 197.957 360.196 198.058 360.046C198.162 359.895 198.305 359.776 198.488 359.691C198.673 359.606 198.877 359.564 199.098 359.564C199.483 359.564 199.785 359.656 200.003 359.841C200.222 360.025 200.331 360.278 200.331 360.601C200.331 360.768 200.28 360.921 200.178 361.061C200.077 361.201 199.943 361.309 199.778 361.384C199.983 361.457 200.136 361.567 200.236 361.714C200.337 361.861 200.388 362.034 200.388 362.234C200.388 362.557 200.27 362.816 200.033 363.011C199.798 363.206 199.487 363.304 199.098 363.304C198.735 363.304 198.437 363.208 198.206 363.016C197.976 362.825 197.861 362.571 197.861 362.256H198.583C198.583 362.393 198.634 362.505 198.736 362.591C198.839 362.678 198.966 362.721 199.116 362.721C199.287 362.721 199.422 362.676 199.518 362.586C199.617 362.495 199.666 362.374 199.666 362.224C199.666 361.861 199.466 361.679 199.066 361.679H198.683V361.114ZM200.956 362.899C200.956 362.784 200.994 362.691 201.071 362.619C201.149 362.547 201.247 362.511 201.363 362.511C201.482 362.511 201.579 362.547 201.656 362.619C201.734 362.691 201.773 362.784 201.773 362.899C201.773 363.012 201.735 363.105 201.658 363.176C201.582 363.246 201.483 363.281 201.363 363.281C201.245 363.281 201.147 363.246 201.071 363.176C200.994 363.105 200.956 363.012 200.956 362.899Z" fill="#A3A3A3"/>
<path d="M239.94 362.899C239.94 362.784 239.978 362.691 240.055 362.619C240.133 362.547 240.231 362.511 240.347 362.511C240.466 362.511 240.563 362.547 240.64 362.619C240.718 362.691 240.757 362.784 240.757 362.899C240.757 363.012 240.719 363.105 240.642 363.176C240.566 363.246 240.467 363.281 240.347 363.281C240.229 363.281 240.132 363.246 240.055 363.176C239.978 363.105 239.94 363.012 239.94 362.899Z" fill="#A3A3A3"/>
<circle opacity="0.3" cx="207.02" cy="207.739" r="206.65" stroke="white" stroke-width="0.7"/>
</svg>
