<svg width="132" height="301" viewBox="0 0 132 301" fill="none" xmlns="http://www.w3.org/2000/svg">
<path d="M89.2347 65.8955L90.2432 69.6173L38.2343 82.9917C37.706 82.9917 37.4899 83.688 37.706 84.4564C37.9221 85.2248 38.5704 88.8025 38.5704 88.8025H35.473C34.635 87.3605 33.9585 85.8305 33.4559 84.2403C33.3145 83.5674 33.3142 82.8725 33.455 82.1995C33.5959 81.5265 33.8749 80.89 34.2744 80.3303C34.6738 79.7707 35.1851 79.2999 35.7757 78.948C36.3664 78.596 37.0237 78.3704 37.706 78.2855C41.3558 77.373 89.2347 65.8955 89.2347 65.8955Z" fill="#434343"/>
<path d="M35.6635 88.4426H38.0647C37.8726 87.4581 37.4164 85.129 37.2723 84.5527C37.1799 84.3322 37.1322 84.0955 37.1322 83.8564C37.1322 83.6173 37.1799 83.3806 37.2723 83.1601C37.344 83.0275 37.4432 82.9117 37.5633 82.8206C37.6834 82.7295 37.8216 82.6651 37.9686 82.6318L89.6174 69.3535L88.801 66.328C84.575 67.3365 41.0421 77.7815 37.5844 78.6459C36.9477 78.7192 36.3333 78.9244 35.7804 79.2484C35.2275 79.5724 34.7482 80.0082 34.3731 80.5279C33.998 81.0476 33.7354 81.6397 33.6021 82.2666C33.4687 82.8934 33.4675 83.5412 33.5986 84.1686C34.0637 85.6578 34.6918 87.0912 35.4715 88.4426H35.6635ZM38.3768 89.163H35.4715C35.4098 89.163 35.3496 89.1447 35.2983 89.1105C35.247 89.0764 35.207 89.0278 35.1833 88.9709C34.3126 87.5023 33.6118 85.9395 33.0943 84.3126C32.9387 83.5907 32.9348 82.8443 33.0828 82.1208C33.2309 81.3973 33.5276 80.7125 33.9543 80.1097C34.381 79.5069 34.9283 78.9994 35.5614 78.6193C36.1946 78.2392 36.8999 77.9948 37.6325 77.9016C41.2342 76.9891 88.6809 65.6077 89.1372 65.5116C89.1813 65.497 89.2279 65.4918 89.2742 65.4961C89.3204 65.5005 89.3653 65.5144 89.4059 65.5369C89.4466 65.5595 89.482 65.5902 89.5101 65.6272C89.5383 65.6642 89.5585 65.7066 89.5694 65.7517L90.5779 69.4735C90.5957 69.5153 90.6049 69.5602 90.6049 69.6056C90.6049 69.651 90.5957 69.6959 90.5779 69.7376C90.557 69.7802 90.5267 69.8175 90.4893 69.8466C90.4518 69.8758 90.4082 69.896 90.3618 69.9057L38.3768 83.2801C38.3198 83.295 38.2667 83.322 38.2211 83.3593C38.1755 83.3966 38.1385 83.4433 38.1127 83.4963C38.0558 83.6248 38.0264 83.7638 38.0264 83.9044C38.0264 84.045 38.0558 84.1841 38.1127 84.3126C38.3048 85.081 38.9771 88.5387 39.0012 88.6827C39.0362 88.7756 39.0362 88.878 39.0012 88.9709C38.969 89.0171 38.9258 89.0545 38.8754 89.0797C38.8251 89.1048 38.7692 89.117 38.713 89.1149" fill="#A2A2A2"/>
<path d="M89.2347 292.709L90.2432 288.987L38.2343 275.637C37.706 275.492 37.4899 274.916 37.706 274.148C37.9221 273.379 38.5704 269.826 38.5704 269.826H35.473C34.6336 271.259 33.957 272.781 33.4559 274.364C33.3145 275.037 33.3142 275.732 33.455 276.405C33.5959 277.078 33.8749 277.714 34.2744 278.274C34.6738 278.834 35.1851 279.304 35.7757 279.656C36.3664 280.008 37.0237 280.234 37.706 280.319C41.3558 281.231 89.2347 292.709 89.2347 292.709Z" fill="#434343"/>
<path d="M35.6647 270.186C34.8803 271.527 34.2519 272.952 33.7918 274.436C33.6607 275.063 33.6619 275.711 33.7953 276.338C33.9287 276.965 34.1913 277.557 34.5663 278.077C34.9414 278.596 35.4207 279.032 35.9736 279.356C36.5266 279.68 37.141 279.885 37.7777 279.959C41.2354 280.823 84.7682 291.268 88.9943 292.276L89.8106 289.251L38.1619 275.973C38.0149 275.939 37.8766 275.875 37.7565 275.784C37.6364 275.693 37.5372 275.577 37.4656 275.444C37.3731 275.224 37.3255 274.987 37.3255 274.748C37.3255 274.509 37.3731 274.272 37.4656 274.052C37.6096 273.475 38.0658 271.146 38.2579 270.186H35.6647ZM89.2344 293.069C88.7782 293.069 41.3314 281.591 37.7057 280.679C36.9802 280.582 36.2825 280.337 35.656 279.958C35.0294 279.58 34.4875 279.077 34.064 278.48C33.6405 277.883 33.3445 277.205 33.1944 276.489C33.0442 275.772 33.0433 275.033 33.1915 274.316C33.709 272.689 34.4099 271.126 35.2805 269.658C35.3042 269.601 35.3442 269.552 35.3955 269.518C35.4467 269.484 35.507 269.466 35.5686 269.466H38.6661C38.7224 269.464 38.7782 269.476 38.8286 269.501C38.8789 269.526 38.9221 269.563 38.9543 269.61C38.9893 269.702 38.9893 269.805 38.9543 269.898C38.9543 270.042 38.2579 273.499 38.0658 274.268C38.0097 274.401 37.9808 274.544 37.9808 274.688C37.9808 274.832 38.0097 274.975 38.0658 275.108C38.0916 275.159 38.129 275.203 38.1749 275.236C38.2208 275.269 38.274 275.291 38.33 275.3L90.2189 288.651C90.2653 288.661 90.3089 288.681 90.3463 288.71C90.3838 288.739 90.4141 288.776 90.435 288.819C90.4528 288.861 90.462 288.906 90.462 288.951C90.462 288.996 90.4528 289.041 90.435 289.083L89.4265 292.805C89.406 292.879 89.3623 292.945 89.3018 292.992C89.2413 293.04 89.1672 293.067 89.0903 293.069" fill="#A2A2A2"/>
<path d="M34.9912 62.1257C34.9912 58.9082 37.3923 58.9082 38.4969 58.9082H83.0863C84.1668 58.9082 84.8392 59.6045 84.8392 60.1568V63.1102L38.3768 74.8519C36.7441 75.2841 34.9912 74.5157 34.9912 73.123V62.1257Z" fill="#434343"/>
<path d="M38.5683 59.3886C36.9836 59.3886 35.5429 59.5806 35.5429 62.1259V73.0991C35.5438 73.2726 35.5856 73.4435 35.6649 73.5979C35.7441 73.7522 35.8587 73.8857 35.9992 73.9876C36.3427 74.2323 36.7381 74.3943 37.1547 74.4609C37.5712 74.5276 37.9975 74.497 38.4003 74.3717L84.5024 62.7021V60.1569C84.5024 59.8928 84.0462 59.3886 83.2298 59.3886H38.5683ZM37.5599 75.5003C36.7929 75.5177 36.0416 75.2814 35.4228 74.828C35.1715 74.6304 34.9677 74.379 34.8264 74.0923C34.6851 73.8056 34.6099 73.4908 34.6064 73.1712V62.1259C34.6064 58.4281 37.3918 58.4281 38.5683 58.4281H83.1578C83.6783 58.3733 84.1998 58.523 84.612 58.8456C85.0242 59.1682 85.2949 59.6384 85.3668 60.1569V63.1103C85.3692 63.2164 85.3345 63.32 85.2688 63.4032C85.2031 63.4865 85.1103 63.5442 85.0066 63.5666L38.5683 75.3322C38.2331 75.3676 37.8951 75.3676 37.5599 75.3322" fill="#A2A2A2"/>
<path d="M35.207 100.064V94.4694L37.6082 92.3564H41.9303L42.8907 93.7491L86.5197 85.225L85.8234 81.7193L87.4561 80.8789H96.6286L98.5254 82.7038V99.0796C98.5254 100.064 96.1243 101.745 94.7557 101.745H36.6957C36.1435 101.745 35.207 100.064 35.207 100.064Z" fill="#434343"/>
<path d="M35.6646 99.9197C35.9274 100.431 36.2861 100.888 36.7212 101.264H94.6369C95.8855 101.264 97.9505 99.6556 97.9505 99.0793V82.9195L96.3417 81.3588H87.4335L86.2329 81.9831L86.8572 85.1046C86.8941 85.2218 86.8941 85.3475 86.8572 85.4648C86.7806 85.57 86.6705 85.6461 86.5451 85.6809L42.8441 94.229C42.7575 94.2475 42.6674 94.2391 42.5858 94.2047C42.5042 94.1703 42.4351 94.1118 42.3878 94.0369L41.5715 92.8363H37.6816L35.6646 94.6852V99.9197ZM36.6971 102.321C36.0248 102.321 35.3045 101.264 34.8003 100.4C34.7788 100.321 34.7788 100.238 34.8003 100.16V94.4691C34.8009 94.4005 34.8163 94.3329 34.8453 94.2708C34.8742 94.2087 34.9162 94.1535 34.9683 94.1089L37.3694 91.9959C37.4472 91.9214 37.5499 91.8786 37.6576 91.8758H41.9797C42.0577 91.8713 42.1354 91.8893 42.2035 91.9276C42.2716 91.9659 42.3272 92.0229 42.3639 92.0919L43.1323 93.2205L86.0168 84.8405L85.4165 81.815C85.4029 81.7107 85.4208 81.6046 85.4679 81.5105C85.5149 81.4164 85.589 81.3385 85.6806 81.2868L87.2894 80.4463H87.5055H96.702C96.804 80.4176 96.912 80.4176 97.0141 80.4463L98.887 82.2712C98.9347 82.3179 98.9722 82.3741 98.997 82.4361C99.0218 82.4981 99.0334 82.5646 99.0311 82.6314V99.0073C99.0311 100.328 96.3418 102.153 94.805 102.153L36.6971 102.321Z" fill="#A2A2A2"/>
<path d="M38.3041 75.9087C38.112 75.2124 38.4482 74.8762 39.1925 74.7322L81.1887 64.071C81.933 63.879 82.2692 64.071 82.4613 64.5032C82.6534 64.9355 86.3992 83.7125 86.5192 84.1687C86.6393 84.6249 85.919 85.6334 85.3667 85.7775C84.8144 85.9215 44.0428 93.7013 43.5146 93.8213C42.9863 93.9414 42.4341 93.4131 42.218 93.125C42.0019 92.8368 38.3041 75.9087 38.3041 75.9087Z" fill="#D3D3D3"/>
<path d="M81.7655 64.4549C81.6143 64.4319 81.4605 64.4319 81.3093 64.4549C80.829 64.599 39.5772 75.044 39.2651 75.092C38.9529 75.1401 38.7608 75.2841 38.7368 75.3322C38.7002 75.4412 38.7002 75.5593 38.7368 75.6683C40.1775 82.2235 42.3866 92.1882 42.6267 92.7885C42.7707 92.9566 43.1309 93.2688 43.371 93.2207L64.4051 89.1628L85.2471 85.1769C85.6326 84.9291 85.921 84.5559 86.0635 84.1204C86.0635 84.1204 85.6074 82.1274 83.9506 73.9875C83.0861 69.6895 82.1016 64.8151 82.0056 64.3829C81.9095 63.9507 82.0056 64.1908 81.7415 64.1908L81.7655 64.4549ZM43.323 94.0612C43.0275 94.0237 42.7436 93.9228 42.4908 93.7653C42.238 93.6078 42.0222 93.3974 41.8583 93.1487C41.8583 93.1487 41.5942 92.7885 37.8484 75.7644C37.7107 75.4174 37.7107 75.0309 37.8484 74.6839C37.9763 74.4891 38.1463 74.3255 38.3457 74.205C38.5452 74.0845 38.7691 74.0102 39.001 73.9875L80.9731 63.3504C81.5734 63.1823 82.3898 63.0623 82.798 64.0467C82.798 64.1908 83.2061 65.8236 84.7909 73.6514C85.7274 78.2135 86.7599 83.4 86.8559 83.7362C86.8977 83.8846 86.9085 84.04 86.8879 84.1928C86.8672 84.3456 86.8155 84.4926 86.7358 84.6246C86.4645 85.2204 85.9869 85.6979 85.3912 85.9693L64.5012 89.9792C54.3683 91.9241 43.8753 93.9171 43.5151 94.0131H43.227" fill="#A2A2A2"/>
<path d="M50.1913 179.614H29.8776C29.7948 179.614 29.7154 179.581 29.6569 179.523C29.5983 179.464 29.5654 179.385 29.5654 179.302C29.5654 179.219 29.5983 179.14 29.6569 179.081C29.7154 179.023 29.7948 178.99 29.8776 178.99H50.1913C50.2741 178.99 50.3536 179.023 50.4121 179.081C50.4706 179.14 50.5035 179.219 50.5035 179.302C50.5035 179.385 50.4706 179.464 50.4121 179.523C50.3536 179.581 50.2741 179.614 50.1913 179.614ZM53.673 179.614H52.5204C52.4377 179.614 52.3583 179.581 52.2997 179.523C52.2412 179.464 52.2084 179.385 52.2084 179.302C52.2084 179.219 52.2412 179.14 52.2997 179.081C52.3583 179.023 52.4377 178.99 52.5204 178.99H53.673C53.7558 178.99 53.8352 179.023 53.8937 179.081C53.9523 179.14 53.9852 179.219 53.9852 179.302C53.9852 179.385 53.9523 179.464 53.8937 179.523C53.8352 179.581 53.7558 179.614 53.673 179.614ZM76.3399 179.614H56.0021C55.9194 179.614 55.84 179.581 55.7814 179.523C55.7229 179.464 55.69 179.385 55.69 179.302C55.69 179.219 55.7229 179.14 55.7814 179.081C55.84 179.023 55.9194 178.99 56.0021 178.99H76.3399C76.4227 178.99 76.5021 179.023 76.5606 179.081C76.6192 179.14 76.6521 179.219 76.6521 179.302C76.6521 179.385 76.6192 179.464 76.5606 179.523C76.5021 179.581 76.4227 179.614 76.3399 179.614ZM79.8216 179.614H78.645C78.5622 179.614 78.4828 179.581 78.4243 179.523C78.3657 179.464 78.3328 179.385 78.3328 179.302C78.3328 179.219 78.3657 179.14 78.4243 179.081C78.4828 179.023 78.5622 178.99 78.645 178.99H79.8216C79.9044 178.99 79.9838 179.023 80.0423 179.081C80.1009 179.14 80.1337 179.219 80.1337 179.302C80.1337 179.385 80.1009 179.464 80.0423 179.523C79.9838 179.581 79.9044 179.614 79.8216 179.614ZM102.464 179.614H82.1267C82.0439 179.614 81.9645 179.581 81.906 179.523C81.8475 179.464 81.8145 179.385 81.8145 179.302C81.8145 179.219 81.8475 179.14 81.906 179.081C81.9645 179.023 82.0439 178.99 82.1267 178.99H102.464C102.547 178.99 102.627 179.023 102.685 179.081C102.744 179.14 102.777 179.219 102.777 179.302C102.777 179.385 102.744 179.464 102.685 179.523C102.627 179.581 102.547 179.614 102.464 179.614Z" fill="#A2A2A2"/>
<path d="M35.2068 179.662C35.1113 179.662 35.0197 179.625 34.9522 179.557C34.8847 179.489 34.8467 179.398 34.8467 179.302V100.064C34.8467 99.9688 34.8847 99.8771 34.9522 99.8096C35.0197 99.742 35.1113 99.7041 35.2068 99.7041C35.2981 99.7102 35.3837 99.7508 35.4462 99.8177C35.5086 99.8846 35.5432 99.9728 35.543 100.064V179.302C35.5432 179.394 35.5086 179.482 35.4462 179.549C35.3837 179.616 35.2981 179.656 35.2068 179.662Z" fill="#A2A2A2"/>
<path d="M98.4071 179.782C98.3451 179.783 98.2837 179.77 98.2267 179.746C98.1697 179.721 98.1183 179.685 98.0756 179.64C98.0329 179.596 97.9998 179.542 97.9784 179.484C97.9569 179.426 97.9476 179.364 97.9508 179.302V99.0798C97.9508 98.9588 97.9989 98.8427 98.0844 98.7572C98.17 98.6716 98.2861 98.6235 98.4071 98.6235C98.528 98.6235 98.6441 98.6716 98.7296 98.7572C98.8152 98.8427 98.8633 98.9588 98.8633 99.0798V179.302C98.8665 179.364 98.8571 179.426 98.8357 179.484C98.8142 179.542 98.7811 179.596 98.7384 179.64C98.6957 179.685 98.6444 179.721 98.5874 179.746C98.5304 179.77 98.469 179.783 98.4071 179.782Z" fill="#A2A2A2"/>
<path d="M34.992 79.8222C34.93 79.8223 34.8687 79.8098 34.8117 79.7853C34.7547 79.7609 34.7033 79.7252 34.6607 79.6802C34.618 79.6353 34.5849 79.5821 34.5634 79.524C34.542 79.4658 34.5325 79.4039 34.5358 79.342V73.3151C34.5358 73.1941 34.5839 73.0781 34.6694 72.9925C34.755 72.907 34.871 72.8589 34.992 72.8589C35.113 72.8589 35.229 72.907 35.3146 72.9925C35.4001 73.0781 35.4482 73.1941 35.4482 73.3151V79.342C35.4515 79.4039 35.4421 79.4658 35.4206 79.524C35.3991 79.5821 35.3661 79.6353 35.3234 79.6802C35.2807 79.7252 35.2293 79.7609 35.1723 79.7853C35.1154 79.8098 35.054 79.8223 34.992 79.8222Z" fill="#A2A2A2"/>
<path d="M84.9116 67.3603C84.7842 67.3603 84.6621 67.3097 84.572 67.2197C84.482 67.1296 84.4313 67.0075 84.4313 66.8801V63.1103C84.4279 63.0463 84.438 62.9823 84.4609 62.9225C84.4838 62.8627 84.519 62.8083 84.5643 62.763C84.6096 62.7177 84.6639 62.6825 84.7238 62.6596C84.7836 62.6366 84.8476 62.6266 84.9116 62.6301C84.9736 62.63 85.0349 62.6425 85.0918 62.6669C85.1488 62.6914 85.2003 62.7271 85.2429 62.7721C85.2856 62.817 85.3187 62.8702 85.3402 62.9283C85.3616 62.9865 85.3711 63.0484 85.3678 63.1103V66.8801C85.368 67.0034 85.3206 67.122 85.2357 67.2114C85.1508 67.3008 85.0347 67.3542 84.9116 67.3603Z" fill="#A2A2A2"/>
<path d="M90.2176 81.2391C90.1221 81.2391 90.0304 81.2011 89.9629 81.1336C89.8953 81.066 89.8574 80.9744 89.8574 80.8789V69.6175C89.8574 69.522 89.8953 69.4304 89.9629 69.3628C90.0304 69.2953 90.1221 69.2573 90.2176 69.2573C90.2638 69.2572 90.3096 69.2666 90.352 69.285C90.3945 69.3034 90.4326 69.3303 90.4642 69.3641C90.4957 69.3979 90.52 69.4379 90.5354 69.4815C90.5508 69.5251 90.5571 69.5714 90.5538 69.6175V80.8789C90.554 80.9704 90.5193 81.0586 90.4569 81.1255C90.3945 81.1923 90.3089 81.233 90.2176 81.2391Z" fill="#A2A2A2"/>
<path d="M38.5694 92.7164C38.5232 92.7166 38.4774 92.7071 38.435 92.6888C38.3926 92.6704 38.3544 92.6435 38.3228 92.6097C38.2913 92.5758 38.267 92.5359 38.2516 92.4923C38.2362 92.4487 38.23 92.4024 38.2333 92.3563V88.8026C38.23 88.7564 38.2362 88.7101 38.2516 88.6665C38.267 88.6229 38.2913 88.583 38.3228 88.5492C38.3544 88.5154 38.3926 88.4884 38.435 88.4701C38.4774 88.4517 38.5232 88.4423 38.5694 88.4424C38.6649 88.4424 38.7566 88.4803 38.8241 88.5479C38.8917 88.6154 38.9296 88.707 38.9296 88.8026V92.3082C38.9296 92.4038 38.8917 92.4954 38.8241 92.5629C38.7566 92.6305 38.6649 92.6684 38.5694 92.6684" fill="#A2A2A2"/>
<path d="M35.4728 94.7095C35.3815 94.7034 35.2959 94.6628 35.2335 94.5959C35.171 94.529 35.1364 94.4408 35.1366 94.3493V88.8027C35.1333 88.7553 35.1395 88.7078 35.1546 88.6629C35.1698 88.6179 35.1937 88.5764 35.2249 88.5407C35.2561 88.505 35.2941 88.4758 35.3366 88.4549C35.3792 88.4339 35.4255 88.4215 35.4728 88.4185C35.5705 88.4246 35.6621 88.4677 35.729 88.5391C35.796 88.6105 35.8331 88.7048 35.8329 88.8027V94.2533C35.8329 94.3006 35.8236 94.3474 35.8055 94.3911C35.7874 94.4348 35.7609 94.4745 35.7274 94.5079C35.694 94.5414 35.6543 94.5679 35.6106 94.586C35.5669 94.6041 35.5201 94.6134 35.4728 94.6134" fill="#A2A2A2"/>
<path d="M33.3106 179.614C33.2707 179.614 33.2312 179.606 33.1945 179.59C33.1579 179.574 33.125 179.551 33.0979 179.521C33.0708 179.492 33.0501 179.457 33.0371 179.42C33.0242 179.382 33.0192 179.342 33.0225 179.302V83.2559C33.0225 83.1795 33.0529 83.1062 33.1069 83.0522C33.1609 82.9981 33.2342 82.9678 33.3106 82.9678C33.387 82.9678 33.4604 82.9981 33.5144 83.0522C33.5684 83.1062 33.5988 83.1795 33.5988 83.2559V179.302C33.6021 179.342 33.5971 179.382 33.5842 179.42C33.5712 179.457 33.5504 179.492 33.5233 179.521C33.4962 179.551 33.4634 179.574 33.4268 179.59C33.3901 179.606 33.3506 179.614 33.3106 179.614Z" fill="#A2A2A2"/>
<path d="M34.9912 296.406C34.9912 299.624 37.3923 299.624 38.4969 299.624H83.0863C84.1668 299.624 84.8392 298.927 84.8392 298.375V295.446L38.3768 283.68C36.7441 283.248 34.9912 284.016 34.9912 285.409V296.406Z" fill="#434343"/>
<path d="M37.5377 284.112C36.9854 284.091 36.4427 284.26 36.001 284.593C35.8605 284.694 35.7459 284.828 35.6667 284.982C35.5874 285.137 35.5457 285.307 35.5447 285.481V296.406C35.5447 298.951 36.9854 299.144 38.5701 299.144H83.1596C83.976 299.144 84.4322 298.639 84.4322 298.375V295.806L38.3301 284.136C38.0665 284.113 37.8013 284.113 37.5377 284.136V284.112ZM83.1596 300.224H38.5701C38.0494 300.323 37.5127 300.297 37.0038 300.149C36.495 300.001 36.0284 299.734 35.6421 299.371C35.2558 299.009 34.9607 298.559 34.781 298.061C34.6014 297.562 34.5422 297.028 34.6083 296.502V285.505C34.6101 285.188 34.6847 284.877 34.8263 284.593C34.9678 284.31 35.1725 284.064 35.4246 283.872C35.87 283.542 36.3851 283.318 36.9304 283.219C37.4757 283.119 38.0367 283.145 38.5701 283.296C40.1549 283.728 84.5762 294.942 85.0084 295.062C85.1141 295.089 85.2073 295.151 85.2728 295.238C85.3383 295.326 85.3721 295.433 85.3687 295.542V298.471C85.2967 298.992 85.027 299.464 84.6155 299.791C84.2041 300.117 83.6826 300.272 83.1596 300.224Z" fill="#A2A2A2"/>
<path d="M35.207 258.54V264.159L37.6082 266.248H41.9303L42.8907 264.855L86.5197 273.379L85.8234 276.885L87.4561 277.725H96.6286L98.5254 275.901V259.525C98.5254 258.54 96.1243 256.859 94.7557 256.859H36.6957C36.1435 256.859 35.207 258.54 35.207 258.54Z" fill="#434343"/>
<path d="M87.4561 277.197H96.3403L97.9491 275.636V259.476C97.9491 258.9 95.8841 257.291 94.6355 257.291H36.6957C36.2777 257.678 35.9286 258.133 35.6632 258.636V263.871L37.6801 265.719H41.57L42.3864 264.519C42.4336 264.444 42.5027 264.385 42.5843 264.351C42.6659 264.317 42.756 264.308 42.8426 264.327L86.4716 272.875C86.5952 272.9 86.7059 272.968 86.7837 273.067C86.8281 273.183 86.8281 273.311 86.7837 273.427L86.1594 276.573L87.4561 277.197ZM96.5324 278.157H87.336H87.1199L85.5111 277.317C85.419 277.267 85.3456 277.189 85.3022 277.093C85.2589 276.998 85.2479 276.891 85.271 276.789L85.8472 273.763L42.9627 265.383L42.1943 266.512C42.1577 266.581 42.102 266.638 42.0339 266.676C41.9658 266.714 41.8881 266.732 41.8101 266.728H37.392C37.2988 266.761 37.1971 266.761 37.1039 266.728L34.7027 264.639C34.6039 264.544 34.544 264.415 34.5346 264.279V258.66C34.5132 258.581 34.5132 258.499 34.5346 258.42C34.9428 257.7 35.7112 256.499 36.4316 256.499H94.3714C95.9081 256.499 98.6214 258.324 98.6214 259.645V276.02C98.6192 276.089 98.6032 276.156 98.5744 276.218C98.5455 276.28 98.5043 276.335 98.4533 276.381L96.5804 278.205C96.4783 278.234 96.3703 278.234 96.2682 278.205" fill="#A2A2A2"/>
<path d="M38.3041 282.696C38.112 283.392 38.4482 283.728 39.1925 283.872L81.1887 294.534C81.933 294.726 82.2692 294.534 82.4613 294.101C82.6534 293.669 86.3992 274.892 86.5192 274.436C86.6393 273.98 85.919 272.971 85.3667 272.827C84.8144 272.683 44.0428 264.927 43.5146 264.783C42.9863 264.639 42.4341 265.191 42.218 265.48C42.0019 265.768 38.3041 282.696 38.3041 282.696Z" fill="#D3D3D3"/>
<path d="M43.3236 265.24C43.0835 265.24 42.7714 265.528 42.6033 265.768C42.4352 266.008 40.2022 276.237 38.7615 282.816C38.7265 282.925 38.7265 283.043 38.7615 283.152C38.7615 283.152 38.8815 283.296 39.3137 283.392C39.7459 283.488 80.9257 293.909 81.3338 294.053C81.742 294.197 81.9822 294.053 82.0782 293.885C82.1742 293.717 83.1348 288.747 83.9992 284.449C85.656 276.309 86.0402 274.412 86.1122 274.244C86.1842 274.076 85.5599 273.331 85.2958 273.283C85.0317 273.235 74.7787 271.242 64.982 269.37L43.3716 265.215L43.3236 265.24ZM81.7901 295.086C81.5531 295.083 81.3181 295.042 81.0938 294.966L39.0976 284.401C38.8674 284.372 38.6459 284.295 38.4474 284.175C38.2489 284.055 38.0777 283.895 37.9451 283.704C37.8074 283.357 37.8074 282.971 37.9451 282.624C41.6909 265.6 41.8829 265.336 41.955 265.24C42.027 265.143 42.8194 264.135 43.7078 264.351L65.3182 268.481L85.4158 272.395C86.0099 272.657 86.4881 273.126 86.7605 273.716C86.8415 273.856 86.8937 274.011 86.9144 274.172C86.935 274.333 86.9235 274.496 86.8805 274.652C86.8805 274.964 85.752 280.127 84.8155 284.689C83.2308 292.541 82.8947 294.173 82.8226 294.293C82.7459 294.532 82.5951 294.74 82.3921 294.887C82.1891 295.033 81.9446 295.112 81.6941 295.11" fill="#A2A2A2"/>
<path d="M35.2068 258.9C35.1113 258.9 35.0197 258.862 34.9522 258.795C34.8847 258.727 34.8467 258.636 34.8467 258.54V179.302C34.8467 179.207 34.8847 179.115 34.9522 179.047C35.0197 178.98 35.1113 178.942 35.2068 178.942C35.2981 178.948 35.3837 178.989 35.4462 179.056C35.5086 179.122 35.5432 179.211 35.543 179.302V258.54C35.5432 258.632 35.5086 258.72 35.4462 258.787C35.3837 258.854 35.2981 258.894 35.2068 258.9Z" fill="#A2A2A2"/>
<path d="M98.4071 260.005C98.3451 260.005 98.2837 259.992 98.2267 259.968C98.1697 259.943 98.1183 259.908 98.0756 259.863C98.0329 259.818 97.9998 259.765 97.9784 259.706C97.9569 259.648 97.9476 259.586 97.9508 259.524V179.302C97.9508 179.181 97.9989 179.065 98.0844 178.979C98.17 178.894 98.2861 178.846 98.4071 178.846C98.528 178.846 98.6441 178.894 98.7296 178.979C98.8152 179.065 98.8633 179.181 98.8633 179.302V259.524C98.8665 259.586 98.8571 259.648 98.8357 259.706C98.8142 259.765 98.7811 259.818 98.7384 259.863C98.6957 259.908 98.6444 259.943 98.5874 259.968C98.5304 259.992 98.469 260.005 98.4071 260.005Z" fill="#A2A2A2"/>
<path d="M34.992 285.77C34.93 285.77 34.8687 285.757 34.8117 285.733C34.7547 285.708 34.7033 285.672 34.6607 285.628C34.618 285.583 34.5849 285.529 34.5634 285.471C34.542 285.413 34.5325 285.351 34.5358 285.289V279.262C34.5358 279.141 34.5839 279.025 34.6694 278.94C34.755 278.854 34.871 278.806 34.992 278.806C35.113 278.806 35.229 278.854 35.3146 278.94C35.4001 279.025 35.4482 279.141 35.4482 279.262V285.289C35.4515 285.351 35.4421 285.413 35.4206 285.471C35.3991 285.529 35.3661 285.583 35.3234 285.628C35.2807 285.672 35.2293 285.708 35.1723 285.733C35.1154 285.757 35.054 285.77 34.992 285.77Z" fill="#A2A2A2"/>
<path d="M90.2176 289.347C90.1221 289.347 90.0304 289.309 89.9629 289.242C89.8953 289.174 89.8574 289.082 89.8574 288.987V277.725C89.8574 277.678 89.8667 277.631 89.8848 277.588C89.9029 277.544 89.9294 277.504 89.9629 277.471C89.9963 277.437 90.036 277.411 90.0797 277.393C90.1234 277.375 90.1703 277.365 90.2176 277.365C90.3089 277.371 90.3945 277.412 90.4569 277.479C90.5193 277.546 90.554 277.634 90.5538 277.725V288.987C90.5571 289.033 90.5508 289.079 90.5354 289.123C90.52 289.166 90.4957 289.206 90.4642 289.24C90.4326 289.274 90.3945 289.301 90.352 289.319C90.3096 289.338 90.2638 289.347 90.2176 289.347Z" fill="#A2A2A2"/>
<path d="M38.5685 270.186C38.4772 270.18 38.3917 270.139 38.3293 270.072C38.2669 270.005 38.2322 269.917 38.2324 269.826V266.248C38.2322 266.156 38.2669 266.068 38.3293 266.001C38.3917 265.934 38.4772 265.894 38.5685 265.888C38.6641 265.888 38.7557 265.926 38.8233 265.993C38.8908 266.061 38.9288 266.152 38.9288 266.248V269.826C38.9288 269.921 38.8908 270.013 38.8233 270.08C38.7557 270.148 38.6641 270.186 38.5685 270.186Z" fill="#A2A2A2"/>
<path d="M35.4719 270.186C35.3806 270.18 35.2951 270.139 35.2326 270.072C35.1702 270.005 35.1355 269.917 35.1357 269.826V264.351C35.1355 264.259 35.1702 264.171 35.2326 264.104C35.2951 264.037 35.3806 263.997 35.4719 263.991C35.5675 263.991 35.659 264.029 35.7266 264.096C35.7941 264.164 35.8321 264.255 35.8321 264.351V269.826C35.8321 269.921 35.7941 270.013 35.7266 270.08C35.659 270.148 35.5675 270.186 35.4719 270.186Z" fill="#A2A2A2"/>
<path d="M33.5743 179.302H32.998V275.276H33.5743V179.302Z" fill="#A2A2A2"/>
<path d="M4.11244 294.677C4.0725 294.678 4.03292 294.669 3.9963 294.653C3.95968 294.638 3.92674 294.614 3.89965 294.585C3.87255 294.555 3.85188 294.521 3.8389 294.483C3.82592 294.445 3.82091 294.405 3.82424 294.365V188.931C3.82424 188.854 3.85462 188.781 3.90866 188.727C3.96269 188.673 4.03602 188.643 4.11244 188.643C4.18886 188.643 4.26212 188.673 4.31615 188.727C4.37019 188.781 4.40057 188.854 4.40057 188.931V294.365C4.4039 294.405 4.3989 294.445 4.38591 294.483C4.37293 294.521 4.35226 294.555 4.32517 294.585C4.29807 294.614 4.26514 294.638 4.22851 294.653C4.19189 294.669 4.15239 294.678 4.11244 294.677Z" fill="#A2A2A2"/>
<path d="M4.11256 169.385C4.07467 169.392 4.03576 169.391 3.99818 169.383C3.9606 169.374 3.9251 169.359 3.89376 169.336C3.86242 169.314 3.83588 169.285 3.81572 169.253C3.79556 169.22 3.78217 169.183 3.77637 169.145V63.9747C3.77637 63.8982 3.80675 63.8249 3.86078 63.7709C3.91482 63.7169 3.98807 63.6865 4.06449 63.6865C4.14091 63.6865 4.21424 63.7169 4.26828 63.7709C4.32231 63.8249 4.35262 63.8982 4.35262 63.9747V169.145C4.35595 169.185 4.35102 169.225 4.33804 169.263C4.32506 169.301 4.30431 169.335 4.27722 169.365C4.25012 169.394 4.21726 169.417 4.18064 169.433C4.14402 169.449 4.10444 169.457 4.06449 169.457" fill="#A2A2A2"/>
<path d="M33.911 59.1726H0.462955C0.423008 59.1727 0.383505 59.1645 0.346884 59.1486C0.310263 59.1326 0.277326 59.1092 0.250231 59.0799C0.223136 59.0505 0.202466 59.0158 0.189484 58.9781C0.176502 58.9403 0.171499 58.9002 0.174829 58.8604C0.174829 58.784 0.205208 58.7107 0.259244 58.6567C0.313281 58.6026 0.386536 58.5723 0.462955 58.5723H33.911C33.9488 58.5723 33.9863 58.5797 34.0213 58.5942C34.0562 58.6087 34.088 58.6299 34.1148 58.6567C34.1415 58.6834 34.1627 58.7152 34.1772 58.7501C34.1917 58.7851 34.1992 58.8226 34.1992 58.8604C34.1994 58.9392 34.1698 59.0152 34.1164 59.0731C34.0629 59.1309 33.9896 59.1665 33.911 59.1726Z" fill="#A2A2A2"/>
<path d="M79.7973 29.1101H67.1192C67.0428 29.1101 66.9695 29.0797 66.9154 29.0257C66.8614 28.9716 66.8311 28.8983 66.8311 28.8219C66.8278 28.7821 66.8327 28.742 66.8457 28.7043C66.8587 28.6665 66.8794 28.6318 66.9065 28.6025C66.9336 28.5731 66.9664 28.5497 67.0031 28.5338C67.0397 28.5178 67.0793 28.5096 67.1192 28.5098H79.7973C79.8372 28.5096 79.8767 28.5178 79.9134 28.5338C79.95 28.5497 79.9829 28.5731 80.01 28.6025C80.0371 28.6318 80.0578 28.6665 80.0708 28.7043C80.0838 28.742 80.0888 28.7821 80.0854 28.8219C80.0854 28.8983 80.055 28.9716 80.001 29.0257C79.947 29.0797 79.8737 29.1101 79.7973 29.1101Z" fill="#A2A2A2"/>
<path d="M52.2324 29.1101H40.2266C40.1502 29.1101 40.0769 29.0797 40.0229 29.0257C39.9689 28.9716 39.9385 28.8983 39.9385 28.8219C39.9382 28.7431 39.9678 28.6672 40.0213 28.6093C40.0747 28.5514 40.148 28.5158 40.2266 28.5098H52.2324C52.2723 28.5096 52.3119 28.5178 52.3485 28.5338C52.3851 28.5497 52.418 28.5731 52.4451 28.6025C52.4722 28.6318 52.4929 28.6665 52.5059 28.7043C52.5189 28.742 52.5238 28.7821 52.5205 28.8219C52.5205 28.8983 52.4902 28.9716 52.4361 29.0257C52.3821 29.0797 52.3088 29.1101 52.2324 29.1101Z" fill="#A2A2A2"/>
<path d="M35.209 57.6357C35.1691 57.6359 35.1296 57.6277 35.093 57.6118C35.0564 57.5958 35.0234 57.5724 34.9963 57.543C34.9692 57.5137 34.9486 57.479 34.9356 57.4412C34.9226 57.4035 34.9176 57.3634 34.9209 57.3236V1.0646C34.9176 1.02479 34.9226 0.984718 34.9356 0.94694C34.9486 0.909161 34.9692 0.874502 34.9963 0.845148C35.0234 0.815795 35.0564 0.79239 35.093 0.776432C35.1296 0.760474 35.1691 0.752304 35.209 0.752443C35.2876 0.758504 35.361 0.794049 35.4144 0.851945C35.4679 0.90984 35.4974 0.985805 35.4972 1.0646V57.3236C35.4974 57.4024 35.4679 57.4784 35.4144 57.5362C35.361 57.5941 35.2876 57.6297 35.209 57.6357Z" fill="#A2A2A2"/>
<path d="M84.7198 57.7319C84.6798 57.732 84.6403 57.7239 84.6037 57.7079C84.5671 57.692 84.5342 57.6686 84.5071 57.6392C84.48 57.6098 84.4593 57.5752 84.4463 57.5374C84.4333 57.4996 84.4283 57.4596 84.4317 57.4198V25.0762C84.4317 24.9998 84.462 24.9265 84.5161 24.8725C84.5701 24.8184 84.6434 24.7881 84.7198 24.7881C84.7962 24.7881 84.8695 24.8184 84.9236 24.8725C84.9776 24.9265 85.0079 24.9998 85.0079 25.0762V57.4198C85.0112 57.4596 85.0063 57.4996 84.9933 57.5374C84.9803 57.5752 84.9596 57.6098 84.9325 57.6392C84.9054 57.6686 84.8726 57.692 84.8359 57.7079C84.7993 57.7239 84.7597 57.732 84.7198 57.7319Z" fill="#A2A2A2"/>
<path d="M92.4028 152.337H75.3546C75.3146 152.337 75.2751 152.329 75.2385 152.313C75.2019 152.297 75.1689 152.274 75.1418 152.244C75.1147 152.215 75.0941 152.18 75.0811 152.143C75.0681 152.105 75.0631 152.065 75.0664 152.025C75.0664 151.949 75.0968 151.875 75.1508 151.821C75.2049 151.767 75.2781 151.737 75.3546 151.737H92.4028C92.4792 151.737 92.5524 151.767 92.6065 151.821C92.6605 151.875 92.6909 151.949 92.6909 152.025C92.6942 152.065 92.6892 152.105 92.6762 152.143C92.6632 152.18 92.6426 152.215 92.6155 152.244C92.5884 152.274 92.5555 152.297 92.5188 152.313C92.4822 152.329 92.4427 152.337 92.4028 152.337Z" fill="#A2A2A2"/>
<path d="M58.1386 152.337H40.5382C40.4982 152.337 40.4587 152.329 40.4221 152.313C40.3855 152.297 40.3525 152.274 40.3254 152.244C40.2983 152.215 40.2777 152.18 40.2647 152.143C40.2517 152.105 40.2467 152.065 40.25 152.025C40.25 151.949 40.2804 151.875 40.3344 151.821C40.3885 151.767 40.4617 151.737 40.5382 151.737H58.1386C58.2151 151.737 58.2883 151.767 58.3424 151.821C58.3964 151.875 58.4268 151.949 58.4268 152.025C58.4301 152.065 58.4251 152.105 58.4121 152.143C58.3991 152.18 58.3785 152.215 58.3514 152.244C58.3243 152.274 58.2913 152.297 58.2547 152.313C58.2181 152.329 58.1786 152.337 58.1386 152.337Z" fill="#A2A2A2"/>
<path d="M98.5489 80.4708C98.4725 80.4708 98.3992 80.4404 98.3452 80.3864C98.2911 80.3323 98.2607 80.259 98.2607 80.1826V1.18471C98.2605 1.10592 98.29 1.02996 98.3435 0.972062C98.3969 0.914166 98.4703 0.878621 98.5489 0.87256C98.5888 0.872421 98.6283 0.880591 98.6649 0.89655C98.7016 0.912508 98.7345 0.935912 98.7616 0.965265C98.7887 0.994619 98.8094 1.02929 98.8223 1.06707C98.8353 1.10484 98.8403 1.1449 98.837 1.18471V80.3027C98.837 80.3791 98.8066 80.4524 98.7526 80.5064C98.6985 80.5605 98.6253 80.5908 98.5489 80.5908" fill="#A2A2A2"/>
<path d="M127.077 252.249C127.037 252.249 126.998 252.241 126.961 252.225C126.924 252.209 126.892 252.186 126.864 252.157C126.837 252.127 126.817 252.092 126.804 252.055C126.791 252.017 126.786 251.977 126.789 251.937V189.315C126.789 189.239 126.819 189.165 126.873 189.111C126.927 189.057 127.001 189.027 127.077 189.027C127.154 189.027 127.227 189.057 127.281 189.111C127.335 189.165 127.365 189.239 127.365 189.315V251.937C127.369 251.977 127.364 252.017 127.351 252.055C127.338 252.092 127.317 252.127 127.29 252.157C127.263 252.186 127.23 252.209 127.193 252.225C127.157 252.241 127.117 252.249 127.077 252.249Z" fill="#A2A2A2"/>
<path d="M127.076 170.178C127 170.178 126.926 170.148 126.872 170.094C126.818 170.04 126.788 169.966 126.788 169.89V106.379C126.788 106.303 126.818 106.23 126.872 106.176C126.926 106.122 127 106.091 127.076 106.091C127.153 106.091 127.226 106.122 127.28 106.176C127.334 106.23 127.364 106.303 127.364 106.379V169.89C127.364 169.966 127.334 170.04 127.28 170.094C127.226 170.148 127.153 170.178 127.076 170.178Z" fill="#A2A2A2"/>
<path d="M130.727 101.577H101.433C101.393 101.577 101.353 101.569 101.317 101.553C101.28 101.537 101.247 101.514 101.22 101.484C101.193 101.455 101.172 101.42 101.159 101.382C101.146 101.345 101.141 101.305 101.145 101.265C101.145 101.188 101.175 101.115 101.229 101.061C101.283 101.007 101.356 100.977 101.433 100.977H130.727C130.803 100.977 130.877 101.007 130.931 101.061C130.985 101.115 131.015 101.188 131.015 101.265C131.018 101.305 131.013 101.345 131 101.382C130.987 101.42 130.967 101.455 130.939 101.484C130.912 101.514 130.88 101.537 130.843 101.553C130.806 101.569 130.767 101.577 130.727 101.577Z" fill="#A2A2A2"/>
<path d="M130.726 257.34H97.8546C97.8146 257.34 97.7751 257.332 97.7385 257.316C97.7019 257.3 97.6689 257.276 97.6418 257.247C97.6147 257.218 97.5941 257.183 97.5811 257.145C97.5681 257.107 97.5631 257.067 97.5664 257.027C97.5664 256.951 97.5968 256.878 97.6508 256.824C97.7049 256.77 97.7781 256.739 97.8546 256.739H130.726C130.803 256.739 130.876 256.77 130.93 256.824C130.984 256.878 131.014 256.951 131.014 257.027C131.018 257.067 131.013 257.107 131 257.145C130.987 257.183 130.966 257.218 130.939 257.247C130.912 257.276 130.879 257.3 130.842 257.316C130.806 257.332 130.766 257.34 130.726 257.34Z" fill="#A2A2A2"/>
<path d="M61.4054 77.2532C61.34 77.2553 61.2758 77.235 61.2234 77.1957C61.171 77.1564 61.1336 77.1005 61.1173 77.0371L58.452 66.6881C58.4287 66.6117 58.4357 66.5292 58.4715 66.4577C58.5072 66.3863 58.569 66.3312 58.6441 66.3039C58.7203 66.2887 58.7994 66.3024 58.866 66.3423C58.9326 66.3823 58.9819 66.4457 59.0043 66.52L61.6695 76.869C61.6927 76.9455 61.6858 77.0279 61.6501 77.0994C61.6143 77.1709 61.5525 77.2259 61.4774 77.2532H61.4054ZM62.3659 80.7349C62.3034 80.7359 62.2426 80.7148 62.1942 80.6752C62.1459 80.6356 62.1131 80.5802 62.1018 80.5187L61.7896 79.3662C61.7674 79.2866 61.7777 79.2015 61.8182 79.1294C61.8588 79.0574 61.9262 79.0044 62.0057 78.982C62.0421 78.9713 62.0803 78.9685 62.1178 78.9739C62.1553 78.9793 62.1913 78.9927 62.2232 79.0132C62.2551 79.0337 62.2822 79.0608 62.3027 79.0927C62.3232 79.1246 62.3365 79.1606 62.3419 79.1981L62.654 80.3747C62.6647 80.4125 62.6676 80.4522 62.6624 80.4912C62.6572 80.5302 62.6441 80.5678 62.6239 80.6015C62.6036 80.6353 62.5767 80.6645 62.5447 80.6874C62.5127 80.7104 62.4763 80.7265 62.4379 80.7349H62.3659ZM74.4917 128.326C74.4292 128.327 74.3684 128.306 74.32 128.266C74.2717 128.226 74.2389 128.171 74.2275 128.11L62.5099 82.7518C62.4988 82.7156 62.495 82.6775 62.4986 82.6397C62.5023 82.602 62.5134 82.5653 62.5312 82.5319C62.5491 82.4984 62.5733 82.4688 62.6026 82.4447C62.6319 82.4207 62.6657 82.4026 62.702 82.3917C62.7383 82.3806 62.7764 82.3767 62.8142 82.3804C62.8519 82.384 62.8886 82.3951 62.922 82.4129C62.9555 82.4308 62.9851 82.455 63.0092 82.4844C63.0332 82.5137 63.0512 82.5474 63.0622 82.5837L74.7798 127.966C74.7909 128.002 74.7948 128.04 74.7911 128.078C74.7875 128.115 74.7764 128.152 74.7586 128.185C74.7407 128.219 74.7165 128.249 74.6871 128.273C74.6578 128.297 74.624 128.315 74.5877 128.326H74.4917ZM75.5002 131.831C75.4337 131.825 75.3708 131.798 75.3195 131.755C75.2682 131.712 75.2308 131.655 75.212 131.591L74.9239 130.439C74.9128 130.402 74.909 130.364 74.9126 130.327C74.9163 130.289 74.9273 130.252 74.9452 130.219C74.963 130.185 74.9873 130.156 75.0166 130.132C75.0459 130.108 75.0797 130.09 75.116 130.079C75.1522 130.067 75.1903 130.064 75.2281 130.067C75.2658 130.071 75.3025 130.082 75.3359 130.1C75.3694 130.118 75.399 130.142 75.4231 130.171C75.4471 130.201 75.4651 130.234 75.4761 130.271L75.7883 131.447C75.8035 131.523 75.7898 131.602 75.7499 131.669C75.7099 131.736 75.6466 131.785 75.5722 131.807L75.5002 131.831ZM87.8181 179.614C87.7516 179.607 87.6887 179.581 87.6374 179.538C87.5861 179.495 87.5487 179.438 87.53 179.374L75.8123 134.016C75.7971 133.94 75.8108 133.861 75.8507 133.795C75.8907 133.728 75.954 133.679 76.0284 133.656C76.0663 133.646 76.1059 133.643 76.1449 133.648C76.1839 133.653 76.2215 133.666 76.2553 133.686C76.289 133.707 76.3182 133.734 76.3412 133.766C76.3641 133.798 76.3802 133.834 76.3886 133.872L88.1062 179.23C88.1169 179.268 88.1198 179.308 88.1146 179.347C88.1094 179.386 88.0963 179.423 88.0761 179.457C88.0558 179.491 88.0289 179.52 87.9969 179.543C87.9649 179.566 87.9286 179.582 87.8901 179.59" fill="#A2A2A2"/>
<path d="M76.124 224.996C76.0478 224.969 75.9839 224.915 75.9442 224.844C75.9045 224.774 75.8916 224.691 75.9079 224.612L87.5055 179.23C87.5138 179.191 87.5299 179.155 87.5529 179.123C87.5758 179.091 87.6051 179.064 87.6388 179.044C87.6726 179.024 87.7101 179.011 87.7491 179.005C87.7881 179 87.8278 179.003 87.8656 179.014C87.9041 179.022 87.9405 179.038 87.9725 179.061C88.0044 179.084 88.0313 179.113 88.0516 179.147C88.0718 179.181 88.085 179.218 88.0901 179.257C88.0953 179.296 88.0924 179.336 88.0817 179.374L76.4842 224.78C76.4616 224.839 76.4225 224.891 76.3715 224.93C76.3205 224.968 76.2596 224.991 76.196 224.996H76.124ZM75.3076 228.478C75.2692 228.469 75.2328 228.453 75.2008 228.43C75.1688 228.407 75.1419 228.378 75.1217 228.344C75.1014 228.311 75.0883 228.273 75.0831 228.234C75.0779 228.195 75.0808 228.155 75.0915 228.117L75.3797 226.941C75.388 226.902 75.4041 226.866 75.4271 226.834C75.45 226.802 75.4792 226.775 75.513 226.755C75.5467 226.735 75.5843 226.722 75.6233 226.716C75.6623 226.711 75.702 226.714 75.7398 226.725C75.8194 226.747 75.8868 226.8 75.9273 226.872C75.9678 226.944 75.9781 227.029 75.9559 227.109L75.6438 228.261C75.6324 228.323 75.5996 228.378 75.5513 228.418C75.5029 228.457 75.4421 228.479 75.3797 228.478H75.3076ZM63.1818 276.213C63.1414 276.208 63.1026 276.194 63.0684 276.172C63.0342 276.15 63.0055 276.121 62.9846 276.086C62.9637 276.051 62.9511 276.012 62.9478 275.971C62.9445 275.931 62.9506 275.89 62.9657 275.852L74.5633 230.471C74.5716 230.432 74.5878 230.396 74.6107 230.364C74.6336 230.332 74.6628 230.305 74.6966 230.285C74.7303 230.264 74.7678 230.251 74.8069 230.246C74.8459 230.241 74.8856 230.244 74.9234 230.254C74.9619 230.263 74.9982 230.279 75.0302 230.302C75.0622 230.325 75.0892 230.354 75.1094 230.388C75.1297 230.422 75.1428 230.459 75.148 230.498C75.1531 230.537 75.1503 230.577 75.1395 230.615L63.518 275.996C63.5073 276.06 63.4755 276.119 63.4275 276.162C63.3796 276.206 63.3184 276.232 63.2538 276.237L63.1818 276.213ZM62.3654 279.718C62.2903 279.691 62.2285 279.636 62.1927 279.564C62.157 279.493 62.1501 279.41 62.1733 279.334L62.4614 278.181C62.4698 278.143 62.4859 278.107 62.5089 278.075C62.5318 278.043 62.5611 278.016 62.5948 277.995C62.6286 277.975 62.6661 277.962 62.7051 277.957C62.7441 277.952 62.7837 277.955 62.8216 277.965C62.896 277.988 62.9593 278.037 62.9993 278.104C63.0393 278.17 63.0529 278.249 63.0377 278.326L62.7255 279.502C62.7103 279.562 62.6765 279.615 62.629 279.653C62.5815 279.692 62.5228 279.715 62.4614 279.718H62.3654ZM58.9077 293.549C58.8326 293.522 58.7708 293.466 58.7351 293.395C58.6993 293.324 58.6924 293.241 58.7157 293.165L61.6451 281.663C61.6675 281.589 61.7167 281.525 61.7833 281.485C61.8499 281.445 61.9291 281.432 62.0052 281.447C62.0787 281.478 62.1398 281.533 62.1789 281.602C62.218 281.672 62.2329 281.752 62.2213 281.831L59.0038 293.309C58.992 293.375 58.9558 293.433 58.9023 293.474C58.8488 293.514 58.7821 293.532 58.7157 293.525" fill="#A2A2A2"/>
<path d="M45.6526 30.3345L35.1836 28.8218L45.6526 27.3091V30.3345Z" fill="#A2A2A2"/>
<path d="M74.25 27.3091L84.719 28.8218L74.25 30.3345V27.3091Z" fill="#A2A2A2"/>
<path d="M2.64648 69.6174L4.11119 58.8843L5.55188 69.6174H2.64648Z" fill="#A2A2A2"/>
<path d="M125.611 111.998L127.076 101.265L128.517 111.998H125.611Z" fill="#A2A2A2"/>
<path d="M128.517 246.318L127.076 257.052L125.611 246.318H128.517Z" fill="#A2A2A2"/>
<path d="M5.55188 288.747L4.11119 299.48L2.64648 288.747H5.55188Z" fill="#A2A2A2"/>
<path d="M45.7702 153.418L35.3252 151.929L45.7702 150.417V153.418Z" fill="#A2A2A2"/>
<path d="M88.0322 150.417L98.4772 151.929L88.0322 153.418V150.417Z" fill="#A2A2A2"/>
<path d="M93.4601 4.95429H74.7071C74.6672 4.95443 74.6276 4.94626 74.591 4.9303C74.5543 4.91434 74.5215 4.89095 74.4944 4.8616C74.4673 4.83224 74.4465 4.79757 74.4336 4.7598C74.4206 4.72202 74.4156 4.68196 74.419 4.64215C74.419 4.56573 74.4493 4.49244 74.5033 4.4384C74.5574 4.38436 74.6307 4.354 74.7071 4.354H93.4601C93.5365 4.354 93.6098 4.38436 93.6638 4.4384C93.7178 4.49244 93.7482 4.56573 93.7482 4.64215C93.7516 4.68196 93.7465 4.72202 93.7336 4.7598C93.7206 4.79757 93.6999 4.83224 93.6728 4.8616C93.6457 4.89095 93.6128 4.91434 93.5762 4.9303C93.5395 4.94626 93.5 4.95443 93.4601 4.95429Z" fill="#A2A2A2"/>
<path d="M59.8184 4.95429H40.129C40.0505 4.94823 39.9771 4.91269 39.9236 4.85479C39.8702 4.79689 39.8406 4.72094 39.8408 4.64215C39.8408 4.56573 39.8712 4.49244 39.9252 4.4384C39.9793 4.38436 40.0526 4.354 40.129 4.354H59.8184C59.8948 4.354 59.9682 4.38436 60.0222 4.4384C60.0762 4.49244 60.1066 4.56573 60.1066 4.64215C60.1099 4.68196 60.105 4.72202 60.092 4.7598C60.079 4.79757 60.0582 4.83224 60.0312 4.8616C60.0041 4.89095 59.9712 4.91434 59.9346 4.9303C59.898 4.94626 59.8584 4.95443 59.8184 4.95429Z" fill="#A2A2A2"/>
<path d="M45.6526 6.17926L35.1836 4.66653L45.6526 3.15381V6.17926Z" fill="#A2A2A2"/>
<path d="M88.0566 3.15381L98.5257 4.66653L88.0566 6.17926V3.15381Z" fill="#A2A2A2"/>
<path d="M63.4911 34.4165C62.662 34.7879 61.7575 34.9606 60.8498 34.9207C60.1649 34.9479 59.4822 34.8281 58.8474 34.5694C58.2126 34.3107 57.6406 33.9191 57.1697 33.421C56.6988 32.9228 56.3401 32.3297 56.1175 31.6813C55.895 31.033 55.8139 30.3445 55.8795 29.6622C55.825 28.9478 55.9219 28.2298 56.1639 27.5554C56.4059 26.881 56.7876 26.2652 57.2839 25.7485C57.7803 25.2317 58.3802 24.8255 59.0444 24.5566C59.7085 24.2876 60.422 24.1619 61.138 24.1876C61.9626 24.156 62.7837 24.3119 63.5392 24.6438L63.227 25.7483C62.5939 25.4599 61.9058 25.3124 61.2101 25.3161C60.6556 25.2942 60.1031 25.3934 59.5909 25.6069C59.0787 25.8203 58.6192 26.1428 58.2443 26.5519C57.8695 26.961 57.5883 27.4469 57.4204 27.9758C57.2525 28.5047 57.2019 29.0638 57.2721 29.6142C57.2051 30.1522 57.2564 30.6984 57.4225 31.2145C57.5886 31.7306 57.8654 32.2042 58.2336 32.6021C58.6018 33.0001 59.0525 33.3127 59.5542 33.5183C60.0559 33.7239 60.5965 33.8174 61.138 33.7922C61.8654 33.803 62.5863 33.6555 63.251 33.36L63.4911 34.4165Z" fill="#A2A2A2"/>
<path d="M66.6149 1.35275H63.5654V0.200195H70.985V1.35275H67.9355V10.5972H66.6149V1.35275Z" fill="#A2A2A2"/>
<path d="M65.2205 157.14C65.5799 157.171 65.9415 157.171 66.301 157.14C67.6457 157.14 68.8702 156.635 68.8702 155.099C68.8702 153.562 67.6937 153.106 66.277 153.106H65.2205V157.14ZM65.2205 152.145H66.397C67.7657 152.145 68.5581 151.425 68.5581 150.416C68.5581 149.408 67.6696 148.712 66.349 148.712C65.974 148.669 65.5954 148.669 65.2205 148.712V152.145ZM63.9238 147.895C64.7152 147.745 65.5194 147.672 66.325 147.679C67.3084 147.589 68.291 147.862 69.0864 148.447C69.3637 148.661 69.5851 148.938 69.7315 149.256C69.8779 149.574 69.9449 149.923 69.9267 150.272C69.9495 150.805 69.7943 151.33 69.4857 151.765C69.177 152.2 68.7323 152.519 68.2219 152.674C68.8124 152.81 69.3387 153.144 69.7141 153.619C70.0895 154.095 70.2916 154.685 70.2869 155.291C70.2943 155.678 70.2236 156.062 70.0792 156.421C69.9348 156.78 69.7197 157.106 69.4465 157.38C68.4552 158.141 67.2061 158.485 65.9648 158.34C65.2984 158.351 64.6322 158.311 63.9719 158.22L63.9238 147.895Z" fill="#A2A2A2"/>
<path d="M127.435 180.839C127.458 180.647 127.458 180.454 127.435 180.262C127.348 179.821 127.111 179.424 126.766 179.135C126.421 178.847 125.988 178.686 125.538 178.678C124.194 178.678 123.377 179.926 123.377 181.583C123.377 183.24 124.098 184.344 125.514 184.344C125.975 184.34 126.419 184.174 126.77 183.876C127.121 183.577 127.357 183.166 127.435 182.712C127.46 182.52 127.46 182.327 127.435 182.135V180.839ZM128.732 174.308V183.336C128.732 183.984 128.732 184.753 128.732 185.257H127.555V183.96C127.334 184.406 126.991 184.78 126.566 185.039C126.141 185.298 125.652 185.432 125.154 185.425C123.401 185.425 122.057 183.912 122.057 181.631C122.057 179.35 123.545 177.621 125.298 177.621C125.729 177.602 126.156 177.698 126.537 177.901C126.917 178.104 127.236 178.405 127.459 178.774V174.308H128.732Z" fill="#A2A2A2"/>
<path d="M1.37491 184.2C1.81466 184.229 2.25577 184.229 2.69552 184.2C3.28313 184.256 3.87564 184.178 4.42919 183.973C4.98273 183.768 5.48321 183.442 5.89356 183.018C6.30391 182.594 6.61367 182.083 6.79993 181.523C6.98619 180.962 7.04412 180.368 6.96957 179.782C7.03215 179.236 6.96986 178.683 6.78732 178.165C6.60479 177.647 6.30679 177.177 5.91591 176.79C5.52503 176.404 5.0515 176.112 4.53104 175.935C4.01058 175.759 3.45685 175.703 2.91169 175.772C2.39592 175.769 1.88107 175.817 1.37491 175.916V184.2ZM0.0782701 175.004C0.991983 174.863 1.91502 174.791 2.83958 174.788C3.57179 174.725 4.30922 174.808 5.00962 175.03C5.71001 175.253 6.35967 175.611 6.92157 176.085C7.40586 176.57 7.78074 177.153 8.02095 177.795C8.26116 178.437 8.36119 179.122 8.31428 179.806C8.38934 181.296 7.87134 182.755 6.87357 183.864C6.26854 184.394 5.56434 184.798 4.8018 185.054C4.03926 185.31 3.23354 185.411 2.43143 185.353C1.63165 185.397 0.830054 185.397 0.0302734 185.353L0.0782701 175.004Z" fill="#A2A2A2"/>
</svg>
