<svg width="206" height="299" viewBox="0 0 206 299" fill="none" xmlns="http://www.w3.org/2000/svg">
<path d="M201.719 172.7C201.643 172.69 201.574 172.653 201.525 172.597C201.475 172.54 201.448 172.466 201.448 172.391V132.481C201.448 132.409 201.477 132.34 201.527 132.289C201.578 132.239 201.647 132.21 201.719 132.21C201.757 132.205 201.797 132.208 201.834 132.219C201.871 132.23 201.906 132.249 201.935 132.274C201.965 132.3 201.988 132.332 202.004 132.367C202.02 132.403 202.028 132.442 202.028 132.481V172.584C202.028 172.666 201.995 172.744 201.937 172.802C201.879 172.86 201.801 172.893 201.719 172.893" fill="#A2A2A2"/>
<path d="M201.715 109.3C201.639 109.291 201.57 109.254 201.521 109.197C201.471 109.14 201.444 109.067 201.444 108.991V68.6175C201.439 68.5789 201.441 68.5395 201.452 68.5021C201.464 68.4647 201.483 68.4301 201.508 68.4008C201.534 68.3714 201.566 68.348 201.601 68.332C201.637 68.3161 201.676 68.308 201.715 68.3084C201.757 68.3018 201.8 68.3053 201.84 68.3185C201.881 68.3317 201.918 68.3543 201.948 68.3844C201.978 68.4145 202 68.4513 202.014 68.4918C202.027 68.5324 202.03 68.5754 202.024 68.6175V108.991C202.024 109.073 201.991 109.152 201.933 109.21C201.875 109.268 201.797 109.3 201.715 109.3Z" fill="#A2A2A2"/>
<path d="M200.249 73.2536H203.263L201.756 62.5518L200.249 73.2536Z" fill="#A2A2A2"/>
<path d="M200.249 167.098L201.756 177.8L203.263 167.098H200.249Z" fill="#A2A2A2"/>
<path d="M205.311 62.9384H174.172C174.1 62.9384 174.031 62.9099 173.98 62.8592C173.93 62.8085 173.901 62.7397 173.901 62.668C173.896 62.6294 173.898 62.59 173.909 62.5526C173.921 62.5152 173.94 62.4806 173.965 62.4512C173.991 62.4219 174.023 62.3984 174.058 62.3825C174.094 62.3665 174.133 62.3585 174.172 62.3589H205.311C205.393 62.3589 205.472 62.3915 205.53 62.4494C205.588 62.5074 205.62 62.586 205.62 62.668C205.611 62.7431 205.574 62.8121 205.517 62.862C205.46 62.9118 205.387 62.939 205.311 62.9384Z" fill="#A2A2A2"/>
<path d="M205.195 178.379H174.056C173.984 178.379 173.915 178.351 173.864 178.3C173.814 178.249 173.785 178.181 173.785 178.109C173.785 178.033 173.812 177.96 173.862 177.903C173.911 177.846 173.98 177.809 174.056 177.8H205.195C205.274 177.808 205.348 177.843 205.404 177.9C205.461 177.956 205.496 178.03 205.504 178.109C205.495 178.184 205.458 178.253 205.401 178.303C205.344 178.353 205.271 178.38 205.195 178.379Z" fill="#A2A2A2"/>
<path d="M124.445 268.862H94.9276C94.8856 268.869 94.8425 268.865 94.802 268.852C94.7614 268.839 94.7246 268.816 94.6944 268.786C94.6643 268.756 94.6417 268.719 94.6285 268.679C94.6153 268.638 94.6119 268.595 94.6185 268.553C94.6181 268.514 94.6261 268.475 94.6421 268.44C94.658 268.404 94.6816 268.372 94.7109 268.347C94.7403 268.321 94.7748 268.302 94.8122 268.291C94.8496 268.28 94.889 268.277 94.9276 268.283H124.445C124.483 268.277 124.523 268.28 124.56 268.291C124.598 268.302 124.632 268.321 124.661 268.347C124.691 268.372 124.714 268.404 124.73 268.44C124.746 268.475 124.754 268.514 124.754 268.553C124.76 268.595 124.757 268.638 124.744 268.679C124.731 268.719 124.708 268.756 124.678 268.786C124.648 268.816 124.611 268.839 124.57 268.852C124.53 268.865 124.487 268.869 124.445 268.862Z" fill="#A2A2A2"/>
<path d="M164.086 268.862H141.677C141.595 268.862 141.517 268.83 141.459 268.772C141.401 268.714 141.368 268.635 141.368 268.553C141.378 268.478 141.414 268.409 141.471 268.359C141.528 268.309 141.602 268.282 141.677 268.283H164.086C164.161 268.282 164.235 268.309 164.291 268.359C164.348 268.409 164.385 268.478 164.395 268.553C164.395 268.635 164.362 268.714 164.304 268.772C164.246 268.83 164.167 268.862 164.086 268.862Z" fill="#A2A2A2"/>
<path d="M92.8789 268.553L103.581 270.253V266.854L92.8789 268.553Z" fill="#A2A2A2"/>
<path d="M160.881 270.253L171.544 268.553L160.881 266.854V270.253Z" fill="#A2A2A2"/>
<path d="M91.065 239.152H33.8467C33.7749 239.152 33.7061 239.123 33.6554 239.073C33.6047 239.022 33.5762 238.953 33.5762 238.881C33.5756 238.806 33.6027 238.732 33.6526 238.675C33.7024 238.618 33.7715 238.582 33.8467 238.572H91.065C91.1401 238.582 91.2091 238.618 91.2589 238.675C91.3088 238.732 91.336 238.806 91.3354 238.881C91.3354 238.953 91.3069 239.022 91.2562 239.073C91.2055 239.123 91.1367 239.152 91.065 239.152Z" fill="#A2A2A2"/>
<path d="M91.144 1.89526H33.8484C33.8094 1.89566 33.7707 1.88762 33.7351 1.87168C33.6995 1.85574 33.6678 1.83231 33.6421 1.80294C33.6164 1.77358 33.5974 1.73899 33.5863 1.70158C33.5753 1.66416 33.5724 1.62482 33.578 1.58621C33.578 1.51448 33.6065 1.44568 33.6572 1.39497C33.7079 1.34425 33.7767 1.31576 33.8484 1.31576H91.144C91.1826 1.31019 91.222 1.31303 91.2594 1.32411C91.2968 1.33518 91.3313 1.35421 91.3607 1.3799C91.39 1.4056 91.4136 1.43732 91.4295 1.47293C91.4455 1.50854 91.4535 1.54719 91.4531 1.58621C91.4597 1.6283 91.4562 1.67135 91.443 1.71186C91.4298 1.75238 91.4072 1.7892 91.3771 1.81933C91.3469 1.84946 91.3102 1.87204 91.2697 1.88524C91.2291 1.89844 91.1861 1.90187 91.144 1.89526Z" fill="#A2A2A2"/>
<path d="M38.1767 233.55C38.1016 233.54 38.0326 233.503 37.9828 233.447C37.9329 233.39 37.9057 233.316 37.9063 233.241V132.481C37.9063 132.409 37.9348 132.34 37.9855 132.289C38.0362 132.239 38.105 132.21 38.1767 132.21C38.2153 132.205 38.2547 132.208 38.2921 132.219C38.3295 132.23 38.364 132.249 38.3934 132.274C38.4228 132.3 38.4462 132.332 38.4621 132.367C38.4781 132.403 38.4861 132.442 38.4857 132.481V233.434C38.4857 233.516 38.4532 233.594 38.3953 233.652C38.3373 233.71 38.2587 233.743 38.1767 233.743" fill="#A2A2A2"/>
<path d="M38.1767 109.648C38.1016 109.639 38.0326 109.602 37.9828 109.545C37.9329 109.488 37.9057 109.415 37.9063 109.339V7.65235C37.9057 7.57665 37.9329 7.50337 37.9828 7.4464C38.0326 7.38943 38.1016 7.35272 38.1767 7.34326C38.2587 7.34326 38.3373 7.37582 38.3953 7.43378C38.4533 7.49175 38.4857 7.57038 38.4857 7.65235V109.301C38.4857 109.383 38.4533 109.461 38.3953 109.519C38.3373 109.577 38.2587 109.61 38.1767 109.61" fill="#A2A2A2"/>
<path d="M36.5117 228.18L38.2117 238.882L39.9117 228.18H36.5117Z" fill="#A2A2A2"/>
<path d="M36.5117 12.2883H39.9117L38.2117 1.58643L36.5117 12.2883Z" fill="#A2A2A2"/>
<path d="M172.004 273.421C171.925 273.413 171.851 273.378 171.795 273.322C171.739 273.265 171.704 273.192 171.695 273.112V240.389C171.695 240.348 171.703 240.308 171.719 240.27C171.734 240.233 171.757 240.199 171.786 240.17C171.815 240.141 171.849 240.119 171.886 240.103C171.924 240.088 171.964 240.08 172.004 240.08C172.043 240.079 172.082 240.087 172.118 240.103C172.153 240.119 172.185 240.143 172.211 240.172C172.236 240.201 172.255 240.236 172.266 240.273C172.277 240.311 172.28 240.35 172.275 240.389V273.112C172.275 273.188 172.248 273.261 172.198 273.318C172.149 273.375 172.079 273.412 172.004 273.421Z" fill="#A2A2A2"/>
<path d="M92.8055 273.421C92.7235 273.421 92.645 273.389 92.587 273.331C92.529 273.273 92.4964 273.194 92.4964 273.112V240.388C92.4898 240.346 92.4933 240.303 92.5065 240.263C92.5197 240.222 92.5422 240.186 92.5724 240.155C92.6025 240.125 92.6394 240.103 92.6799 240.089C92.7204 240.076 92.7634 240.073 92.8055 240.079C92.8445 240.079 92.8832 240.087 92.9188 240.103C92.9544 240.119 92.9861 240.142 93.0118 240.172C93.0375 240.201 93.0565 240.236 93.0676 240.273C93.0787 240.311 93.0815 240.35 93.076 240.388V273.112C93.0766 273.188 93.0494 273.261 92.9996 273.318C92.9497 273.375 92.8806 273.412 92.8055 273.421Z" fill="#A2A2A2"/>
<path d="M130.434 198.74H134.877L137.62 212.417H132.443H127.266L130.434 198.74Z" fill="#434343"/>
<path d="M127.694 212.069H137.044L134.455 199.088H130.592L127.694 212.069ZM137.585 212.803H127.269C127.221 212.827 127.168 212.839 127.115 212.839C127.061 212.839 127.008 212.827 126.96 212.803C126.942 212.76 126.933 212.714 126.933 212.668C126.933 212.622 126.942 212.576 126.96 212.533L130.089 198.817C130.113 198.742 130.159 198.676 130.221 198.628C130.283 198.579 130.359 198.551 130.437 198.547H134.88C134.96 198.545 135.039 198.571 135.102 198.62C135.166 198.669 135.21 198.739 135.228 198.817L137.971 212.533C137.999 212.572 138.014 212.62 138.014 212.668C138.014 212.717 137.999 212.764 137.971 212.803C137.93 212.827 137.883 212.839 137.836 212.839C137.788 212.839 137.742 212.827 137.701 212.803" fill="#A2A2A2"/>
<path d="M130.434 41.8823H134.877L137.62 28.2056H132.443H127.266L130.434 41.8823Z" fill="#434343"/>
<path d="M130.704 41.535H134.567L137.04 28.5536H127.574L130.704 41.535ZM134.838 42.2304H130.395C130.316 42.2261 130.241 42.1979 130.179 42.1496C130.117 42.1012 130.071 42.0351 130.047 41.9599L126.918 28.1673C126.879 28.0679 126.879 27.9576 126.918 27.8582C127.017 27.8194 127.127 27.8194 127.227 27.8582H137.542C137.595 27.8569 137.648 27.8677 137.696 27.8897C137.744 27.9118 137.787 27.9446 137.82 27.9856C137.854 28.0266 137.877 28.0747 137.89 28.1263C137.902 28.1779 137.902 28.2315 137.89 28.2832L135.147 41.9599C135.129 42.0382 135.085 42.108 135.021 42.1573C134.958 42.2065 134.88 42.2324 134.799 42.2304" fill="#A2A2A2"/>
<path d="M130.281 199.668C130.323 199.343 130.249 199.014 130.073 198.738C129.896 198.463 129.628 198.258 129.315 198.161H129.663C120.967 194.871 111.873 192.753 102.618 191.864C102.294 191.837 101.972 191.927 101.709 192.119C101.447 192.31 101.262 192.59 101.189 192.907L95.0072 219.565C94.9385 219.887 94.9862 220.223 95.1418 220.513C95.2975 220.803 95.5509 221.028 95.8572 221.149H95.4708C104.261 224.484 113.463 226.615 122.824 227.485C123.147 227.504 123.466 227.41 123.726 227.22C123.987 227.03 124.174 226.755 124.254 226.442L130.281 199.668Z" fill="#D3D3D3"/>
<path d="M122.745 226.905C122.948 226.897 123.142 226.826 123.302 226.701C123.461 226.576 123.577 226.404 123.634 226.21L129.815 199.552C129.853 199.352 129.824 199.146 129.734 198.965C129.643 198.783 129.495 198.637 129.313 198.547C120.721 195.336 111.746 193.258 102.616 192.366C102.403 192.343 102.188 192.402 102.016 192.531C101.844 192.66 101.727 192.849 101.689 193.061L95.5076 219.719C95.4699 219.919 95.4986 220.125 95.5893 220.306C95.68 220.488 95.8278 220.634 96.0099 220.724C104.624 223.953 113.626 226.032 122.784 226.905H122.745ZM122.784 227.832H122.552C113.368 226.946 104.34 224.855 95.7007 221.612H95.3145C95.247 221.588 95.1867 221.547 95.1394 221.493C95.0921 221.439 95.0593 221.373 95.044 221.303C94.8379 221.085 94.6881 220.819 94.6073 220.53C94.5265 220.24 94.5173 219.936 94.5804 219.642L100.762 192.984C100.86 192.572 101.1 192.208 101.438 191.954C101.777 191.7 102.194 191.572 102.616 191.593C111.866 192.44 120.961 194.519 129.661 197.775H129.97C130.085 197.816 130.182 197.899 130.24 198.006C130.479 198.229 130.655 198.51 130.75 198.822C130.844 199.134 130.855 199.466 130.781 199.784L124.6 226.403C124.52 226.778 124.324 227.118 124.04 227.375C123.755 227.632 123.397 227.792 123.016 227.832" fill="#A2A2A2"/>
<path d="M133.68 214.04V212.456C145.163 211.372 156.452 208.774 167.253 204.729C167.552 204.609 167.8 204.39 167.955 204.108C168.11 203.826 168.162 203.499 168.103 203.183L165.36 191.593H168.799L171.658 203.492C171.836 204.27 171.731 205.086 171.363 205.793C170.995 206.501 170.388 207.055 169.649 207.356C158.67 211.826 147.023 214.437 135.186 215.083C135.01 215.103 134.83 215.082 134.663 215.022C134.495 214.961 134.344 214.863 134.221 214.735C134.083 214.622 133.97 214.48 133.89 214.321C133.81 214.161 133.765 213.986 133.757 213.808" fill="#434343"/>
<path d="M134.028 214.001C134.053 214.268 134.177 214.516 134.375 214.696C134.472 214.79 134.587 214.863 134.714 214.909C134.84 214.956 134.975 214.976 135.109 214.967C146.896 214.321 158.492 211.709 169.417 207.24C170.09 206.979 170.645 206.483 170.979 205.843C171.313 205.203 171.403 204.464 171.233 203.763L168.451 192.172H165.747L168.374 203.183C168.458 203.582 168.4 203.998 168.21 204.358C168.019 204.718 167.708 204.999 167.331 205.154C156.604 209.182 145.394 211.78 133.989 212.881L134.028 214.001ZM135.032 215.701C134.601 215.699 134.187 215.533 133.873 215.237C133.543 214.924 133.349 214.494 133.332 214.04V212.456C133.33 212.365 133.36 212.277 133.417 212.206C133.473 212.136 133.553 212.087 133.641 212.069C145.108 211.039 156.378 208.439 167.138 204.342C167.355 204.257 167.535 204.098 167.648 203.893C167.761 203.689 167.799 203.451 167.756 203.222L165.013 191.825C164.974 191.725 164.974 191.615 165.013 191.516C165.055 191.495 165.101 191.484 165.148 191.484C165.195 191.484 165.241 191.495 165.283 191.516H168.722C168.762 191.51 168.804 191.513 168.843 191.524C168.883 191.534 168.92 191.553 168.952 191.578C168.984 191.603 169.012 191.634 169.032 191.67C169.052 191.706 169.065 191.745 169.069 191.786L171.928 203.685C172.099 204.549 171.97 205.444 171.562 206.224C171.155 207.004 170.494 207.621 169.688 207.974C158.698 212.528 147.023 215.205 135.148 215.894" fill="#A2A2A2"/>
<path d="M130.977 214.04V212.456C119.495 211.368 108.206 208.77 97.4037 204.729C97.1027 204.615 96.8538 204.395 96.7043 204.11C96.5548 203.825 96.5149 203.495 96.5924 203.183L99.2969 191.593H95.8583L93.0379 203.492C92.8599 204.27 92.9642 205.086 93.3322 205.793C93.7003 206.501 94.3082 207.055 95.047 207.356C106.013 211.826 117.647 214.437 129.471 215.083C129.654 215.106 129.839 215.087 130.014 215.026C130.188 214.966 130.346 214.866 130.475 214.735C130.608 214.62 130.714 214.477 130.788 214.317C130.861 214.157 130.899 213.984 130.9 213.808" fill="#D3D3D3"/>
<path d="M130.977 214.04V212.456C119.495 211.368 108.206 208.77 97.4037 204.729C97.1027 204.615 96.8538 204.395 96.7043 204.11C96.5548 203.825 96.5149 203.495 96.5924 203.183L99.2969 191.593H95.8583L93.0379 203.492C92.8599 204.27 92.9642 205.086 93.3322 205.793C93.7003 206.501 94.3082 207.055 95.047 207.356C106.013 211.826 117.647 214.437 129.471 215.083C129.654 215.106 129.839 215.087 130.014 215.026C130.188 214.966 130.346 214.866 130.475 214.735C130.608 214.62 130.714 214.477 130.788 214.317C130.861 214.157 130.899 213.984 130.9 213.808" fill="#434343"/>
<path d="M96.2044 191.979L93.4613 203.569C93.2798 204.266 93.3605 205.005 93.6882 205.646C94.0158 206.287 94.5675 206.785 95.2385 207.046C106.179 211.511 117.786 214.123 129.585 214.773C129.713 214.779 129.841 214.758 129.961 214.711C130.081 214.665 130.189 214.594 130.28 214.503C130.392 214.425 130.482 214.321 130.543 214.2C130.604 214.078 130.633 213.943 130.628 213.808V212.571C119.222 211.475 108.011 208.877 97.2862 204.844C96.9041 204.697 96.5881 204.416 96.3965 204.054C96.2048 203.692 96.1504 203.273 96.2431 202.874L98.8702 191.863H96.1272L96.2044 191.979ZM129.546 215.585C117.658 214.9 105.969 212.222 94.968 207.665C94.1692 207.305 93.5163 206.685 93.1161 205.906C92.716 205.127 92.5925 204.235 92.7659 203.376L95.5862 191.477C95.591 191.436 95.6038 191.396 95.6239 191.361C95.6441 191.325 95.6712 191.294 95.7035 191.269C95.7359 191.243 95.7729 191.225 95.8125 191.214C95.852 191.203 95.8933 191.201 95.9339 191.206H99.4111C99.4983 191.173 99.5943 191.173 99.6815 191.206C99.7203 191.305 99.7203 191.416 99.6815 191.515L96.9771 202.912C96.9146 203.138 96.9396 203.379 97.047 203.586C97.1545 203.794 97.3365 203.954 97.5566 204.033C108.316 208.129 119.587 210.729 131.053 211.76C131.146 211.777 131.23 211.824 131.293 211.894C131.356 211.964 131.394 212.052 131.401 212.146V213.73C131.37 214.189 131.162 214.619 130.821 214.928C130.668 215.078 130.487 215.196 130.288 215.276C130.089 215.355 129.876 215.395 129.662 215.392" fill="#A2A2A2"/>
<path d="M93.0726 222.81C92.9394 222.81 92.8116 222.757 92.7175 222.663C92.6233 222.569 92.5703 222.441 92.5703 222.308V191.4C92.5703 191.267 92.6233 191.139 92.7175 191.045C92.8116 190.95 92.9394 190.897 93.0726 190.897C93.1368 190.897 93.2005 190.91 93.2594 190.936C93.3184 190.962 93.3712 190.999 93.4148 191.047C93.4584 191.094 93.4918 191.15 93.5127 191.21C93.5336 191.271 93.5415 191.336 93.5362 191.4V222.308C93.5415 222.372 93.5336 222.436 93.5127 222.497C93.4918 222.558 93.4584 222.614 93.4148 222.661C93.3712 222.708 93.3184 222.746 93.2594 222.771C93.2005 222.797 93.1368 222.81 93.0726 222.81Z" fill="#A2A2A2"/>
<path d="M171.811 180.929V191.437C159.016 191.474 146.338 193.871 134.412 198.508H130.549C118.624 193.871 105.945 191.474 93.1504 191.437V184.135C93.1503 183.527 93.3892 182.944 93.8156 182.51C94.242 182.076 94.8218 181.828 95.4298 181.817L168.836 177.954C169.219 177.933 169.603 177.99 169.963 178.123C170.323 178.255 170.653 178.459 170.931 178.723C171.21 178.987 171.431 179.305 171.582 179.658C171.734 180.011 171.812 180.391 171.811 180.774" fill="#434343"/>
<path d="M130.55 198.161H134.414C146.216 193.565 158.76 191.169 171.426 191.09V181.045C171.415 180.404 171.151 179.793 170.692 179.345C170.46 179.126 170.187 178.954 169.889 178.842C169.59 178.729 169.272 178.677 168.953 178.689L95.5469 182.552C95.0618 182.562 94.5999 182.762 94.2604 183.109C93.921 183.455 93.7309 183.921 93.731 184.407V191.245C106.397 191.323 118.941 193.719 130.743 198.315L130.55 198.161ZM134.607 199.242H130.511C118.653 194.606 106.038 192.208 93.306 192.172C93.2419 192.178 93.1775 192.17 93.1167 192.149C93.056 192.128 93.0001 192.094 92.9529 192.051C92.9056 192.007 92.8681 191.954 92.8424 191.895C92.8167 191.837 92.8035 191.773 92.8037 191.709V184.407C92.8134 183.668 93.1085 182.962 93.627 182.437C94.1456 181.911 94.8473 181.606 95.5854 181.586L168.992 177.916C169.437 177.889 169.883 177.955 170.302 178.108C170.721 178.262 171.104 178.5 171.427 178.809C171.749 179.117 172.005 179.488 172.178 179.9C172.35 180.311 172.436 180.754 172.43 181.2V191.709C172.43 191.832 172.381 191.949 172.294 192.036C172.208 192.123 172.09 192.172 171.967 192.172C159.222 192.212 146.595 194.609 134.723 199.242" fill="#A2A2A2"/>
<path d="M135.457 227.793C147.255 227.442 158.908 225.09 169.919 220.839C170.115 220.734 170.334 220.679 170.556 220.679C170.779 220.679 170.998 220.734 171.194 220.839C171.374 220.964 171.521 221.132 171.622 221.327C171.723 221.523 171.775 221.74 171.773 221.959V236.022C171.763 236.774 171.457 237.491 170.922 238.019C170.387 238.547 169.666 238.843 168.914 238.843H138.006L135.572 236.409H129.314L126.88 238.843H95.9717C95.2237 238.843 94.5064 238.546 93.9775 238.017C93.4485 237.488 93.1514 236.77 93.1514 236.022V222.114C93.1425 221.893 93.1913 221.673 93.2929 221.477C93.3945 221.281 93.5454 221.114 93.7309 220.993C93.9212 220.892 94.1335 220.839 94.3491 220.839C94.5647 220.839 94.7769 220.892 94.9671 220.993C105.985 225.223 117.634 227.573 129.43 227.948H135.534" fill="#434343"/>
<path d="M138.238 238.534H168.915C169.543 238.534 170.147 238.287 170.595 237.846C171.043 237.405 171.3 236.806 171.31 236.177V222.114C171.31 221.969 171.275 221.827 171.208 221.699C171.14 221.571 171.043 221.462 170.924 221.38C170.796 221.323 170.658 221.294 170.518 221.294C170.378 221.294 170.24 221.323 170.112 221.38C159.007 225.683 147.246 228.048 135.341 228.373C133.28 228.373 131.233 228.373 129.198 228.373C117.293 228.048 105.532 225.683 94.4265 221.38C94.2987 221.323 94.1605 221.294 94.0208 221.294C93.8811 221.294 93.743 221.323 93.6152 221.38C93.4959 221.462 93.3983 221.571 93.331 221.699C93.2637 221.827 93.2286 221.969 93.2288 222.114V236.177C93.2388 236.799 93.4903 237.393 93.9301 237.832C94.3699 238.272 94.9635 238.524 95.5855 238.534H126.3L128.58 236.216C128.692 236.177 128.815 236.177 128.927 236.216H135.302C135.416 236.182 135.536 236.182 135.65 236.216L138.238 238.534ZM168.915 239.5H138.007C137.893 239.529 137.773 239.529 137.659 239.5L135.38 237.182H129.314L126.996 239.5C126.896 239.535 126.787 239.535 126.687 239.5H95.7787C94.9006 239.49 94.0613 239.136 93.4403 238.515C92.8194 237.894 92.4661 237.055 92.4561 236.177V222.114C92.4574 221.81 92.5318 221.511 92.673 221.242C92.8142 220.973 93.0182 220.742 93.2675 220.569C93.5191 220.413 93.8019 220.315 94.0958 220.282C94.3896 220.248 94.6872 220.28 94.9673 220.375C105.925 224.621 117.528 226.96 129.275 227.291C131.284 227.291 133.332 227.291 135.341 227.291C147.087 226.956 158.69 224.617 169.649 220.375C169.929 220.283 170.226 220.252 170.52 220.286C170.813 220.319 171.096 220.416 171.349 220.569C171.593 220.744 171.791 220.976 171.926 221.246C172.06 221.515 172.128 221.813 172.121 222.114V236.177C172.121 237.058 171.771 237.903 171.148 238.526C170.525 239.15 169.68 239.5 168.799 239.5" fill="#A2A2A2"/>
<path d="M114.788 120.543H88.6708C88.6287 120.55 88.5856 120.546 88.5451 120.533C88.5046 120.52 88.4677 120.497 88.4376 120.467C88.4075 120.437 88.3849 120.4 88.3717 120.36C88.3585 120.319 88.3551 120.276 88.3617 120.234C88.3613 120.195 88.3693 120.156 88.3852 120.121C88.4012 120.085 88.4246 120.054 88.454 120.028C88.4833 120.002 88.518 119.983 88.5554 119.972C88.5928 119.961 88.6322 119.958 88.6708 119.964H114.788C114.864 119.963 114.937 119.99 114.994 120.04C115.051 120.09 115.088 120.159 115.097 120.234C115.097 120.316 115.064 120.395 115.007 120.453C114.949 120.511 114.87 120.543 114.788 120.543ZM118.342 120.543H117.183C117.141 120.55 117.098 120.546 117.058 120.533C117.017 120.52 116.98 120.497 116.95 120.467C116.92 120.437 116.897 120.4 116.884 120.36C116.871 120.319 116.868 120.276 116.874 120.234C116.874 120.195 116.882 120.156 116.898 120.121C116.914 120.085 116.937 120.054 116.967 120.028C116.996 120.002 117.031 119.983 117.068 119.972C117.105 119.961 117.145 119.958 117.183 119.964H118.342C118.381 119.958 118.42 119.961 118.458 119.972C118.495 119.983 118.53 120.002 118.559 120.028C118.588 120.054 118.612 120.085 118.628 120.121C118.644 120.156 118.652 120.195 118.651 120.234C118.658 120.276 118.655 120.319 118.641 120.36C118.628 120.4 118.606 120.437 118.575 120.467C118.545 120.497 118.509 120.52 118.468 120.533C118.428 120.546 118.384 120.55 118.342 120.543ZM146.855 120.543H120.738C120.656 120.543 120.577 120.511 120.519 120.453C120.461 120.395 120.429 120.316 120.429 120.234C120.438 120.159 120.475 120.09 120.532 120.04C120.589 119.99 120.662 119.963 120.738 119.964H146.855C146.894 119.958 146.933 119.961 146.97 119.972C147.008 119.983 147.042 120.002 147.072 120.028C147.101 120.054 147.124 120.085 147.14 120.121C147.156 120.156 147.164 120.195 147.164 120.234C147.171 120.276 147.167 120.319 147.154 120.36C147.141 120.4 147.118 120.437 147.088 120.467C147.058 120.497 147.021 120.52 146.981 120.533C146.94 120.546 146.897 120.55 146.855 120.543ZM150.448 120.543H149.25C149.168 120.543 149.09 120.511 149.032 120.453C148.974 120.395 148.941 120.316 148.941 120.234C148.951 120.159 148.987 120.09 149.044 120.04C149.101 119.99 149.175 119.963 149.25 119.964H150.448C150.52 119.964 150.589 119.992 150.639 120.043C150.69 120.094 150.718 120.162 150.718 120.234C150.724 120.273 150.721 120.312 150.71 120.35C150.699 120.387 150.68 120.422 150.654 120.451C150.629 120.48 150.597 120.504 150.561 120.52C150.526 120.536 150.487 120.544 150.448 120.543ZM176.295 120.543H152.805C152.723 120.543 152.644 120.511 152.586 120.453C152.528 120.395 152.496 120.316 152.496 120.234C152.505 120.159 152.542 120.09 152.599 120.04C152.656 119.99 152.729 119.963 152.805 119.964H176.295C176.366 119.964 176.435 119.992 176.486 120.043C176.537 120.094 176.565 120.162 176.565 120.234C176.571 120.273 176.568 120.312 176.557 120.35C176.546 120.387 176.527 120.422 176.501 120.451C176.475 120.48 176.444 120.504 176.408 120.52C176.372 120.536 176.334 120.544 176.295 120.543Z" fill="#A2A2A2"/>
<path d="M171.812 222.694C171.689 222.694 171.571 222.645 171.484 222.558C171.398 222.471 171.349 222.353 171.349 222.23V191.322C171.349 191.2 171.398 191.082 171.484 190.995C171.571 190.908 171.689 190.859 171.812 190.859C171.935 190.859 172.053 190.908 172.14 190.995C172.227 191.082 172.276 191.2 172.276 191.322V222.23C172.276 222.353 172.227 222.471 172.14 222.558C172.053 222.645 171.935 222.694 171.812 222.694Z" fill="#A2A2A2"/>
<path d="M134.644 199.668C134.567 199.345 134.611 199.006 134.768 198.714C134.925 198.422 135.183 198.198 135.494 198.084H135.147C143.842 194.793 152.937 192.676 162.191 191.786C162.521 191.749 162.853 191.835 163.124 192.028C163.395 192.22 163.585 192.505 163.659 192.829L169.802 219.487C169.879 219.81 169.835 220.149 169.679 220.441C169.522 220.733 169.263 220.957 168.952 221.071H169.377C160.574 224.41 151.36 226.541 141.985 227.408H142.178C141.85 227.436 141.521 227.347 141.253 227.156C140.984 226.965 140.791 226.684 140.71 226.364L134.644 199.668Z" fill="#D3D3D3"/>
<path d="M135.573 198.547C135.394 198.637 135.25 198.786 135.166 198.968C135.082 199.15 135.062 199.356 135.109 199.551L141.252 226.209C141.314 226.401 141.431 226.57 141.59 226.694C141.748 226.818 141.94 226.891 142.141 226.905C151.268 226.021 160.242 223.956 168.838 220.762C169.036 220.691 169.202 220.549 169.302 220.364C169.402 220.178 169.429 219.962 169.379 219.757L163.236 193.099C163.182 192.888 163.056 192.703 162.879 192.576C162.702 192.449 162.487 192.388 162.27 192.404C153.141 193.3 144.167 195.378 135.573 198.585V198.547ZM142.064 227.871C141.68 227.827 141.318 227.666 141.028 227.41C140.738 227.155 140.533 226.817 140.441 226.441L134.298 199.783C134.227 199.471 134.24 199.146 134.335 198.841C134.43 198.536 134.604 198.261 134.839 198.044C134.865 197.989 134.902 197.939 134.949 197.899C134.995 197.859 135.05 197.829 135.109 197.813H135.418C144.116 194.551 153.212 192.472 162.463 191.631C162.886 191.61 163.302 191.738 163.641 191.992C163.98 192.246 164.219 192.61 164.317 193.022L170.46 219.68C170.532 219.971 170.53 220.274 170.456 220.564C170.382 220.854 170.238 221.121 170.035 221.341C170.017 221.416 169.978 221.484 169.924 221.539C169.869 221.593 169.801 221.632 169.726 221.65C160.964 224.998 151.788 227.142 142.45 228.025H142.18" fill="#A2A2A2"/>
<path d="M93.0726 184.561C93.0086 184.567 92.9442 184.559 92.8834 184.538C92.8226 184.517 92.7667 184.484 92.7195 184.44C92.6722 184.397 92.6347 184.344 92.609 184.285C92.5833 184.226 92.5701 184.162 92.5703 184.098V120.157C92.5701 120.093 92.5833 120.029 92.609 119.97C92.6347 119.911 92.6722 119.858 92.7195 119.815C92.7667 119.771 92.8226 119.738 92.8834 119.717C92.9442 119.696 93.0086 119.688 93.0726 119.694C93.1956 119.694 93.3136 119.742 93.4005 119.829C93.4875 119.916 93.5363 120.034 93.5363 120.157V184.098C93.5363 184.221 93.4875 184.339 93.4005 184.426C93.3136 184.513 93.1956 184.561 93.0726 184.561Z" fill="#A2A2A2"/>
<path d="M171.813 181.432C171.749 181.432 171.685 181.419 171.626 181.393C171.567 181.367 171.514 181.33 171.471 181.282C171.427 181.235 171.394 181.179 171.373 181.119C171.352 181.058 171.344 180.993 171.349 180.929V120.079C171.349 119.956 171.398 119.838 171.485 119.752C171.572 119.665 171.69 119.616 171.813 119.616C171.936 119.616 172.054 119.665 172.141 119.752C172.228 119.838 172.276 119.956 172.276 120.079V180.929C172.282 180.993 172.274 181.058 172.253 181.119C172.232 181.179 172.199 181.235 172.155 181.282C172.112 181.33 172.059 181.367 172 181.393C171.941 181.419 171.877 181.432 171.813 181.432Z" fill="#A2A2A2"/>
<path d="M130.283 40.9551C130.36 41.2774 130.316 41.6168 130.159 41.9089C130.002 42.2009 129.744 42.4252 129.433 42.5392H129.78C121.09 45.8472 111.993 47.9655 102.736 48.8367C102.412 48.8636 102.089 48.7729 101.827 48.5814C101.564 48.3898 101.379 48.1102 101.306 47.7935L95.1247 21.1354C95.058 20.8188 95.1072 20.4886 95.2631 20.2051C95.4191 19.9215 95.6715 19.7033 95.9747 19.59H95.5883C104.377 16.2417 113.578 14.0974 122.942 13.2153C123.267 13.1798 123.594 13.2671 123.859 13.46C124.123 13.653 124.306 13.9377 124.371 14.2584L130.283 40.9551Z" fill="#D3D3D3"/>
<path d="M96.0491 19.899C95.8568 19.9892 95.6996 20.1403 95.6018 20.3288C95.504 20.5174 95.4711 20.733 95.5082 20.9421L101.69 47.5616C101.728 47.7733 101.844 47.9628 102.017 48.0918C102.189 48.2209 102.403 48.2799 102.617 48.257C111.735 47.3965 120.7 45.3309 129.275 42.1141C129.467 42.0239 129.625 41.8728 129.722 41.6842C129.82 41.4956 129.853 41.28 129.816 41.0709L123.634 14.4128C123.589 14.2154 123.474 14.0407 123.311 13.9203C123.148 13.7999 122.948 13.7416 122.746 13.756C113.615 14.6163 104.638 16.6819 96.0491 19.899ZM102.501 49.2229C102.086 49.2235 101.683 49.082 101.36 48.822C101.037 48.5619 100.812 48.1989 100.724 47.7934L94.5423 21.1353C94.4792 20.8415 94.4884 20.5369 94.5692 20.2475C94.65 19.9581 94.7999 19.6926 95.0059 19.474C95.0629 19.3461 95.1572 19.2384 95.2764 19.1649C104.054 15.8092 113.24 13.6394 122.591 12.7129H122.978C123.359 12.7535 123.717 12.9137 124.002 13.1704C124.286 13.4272 124.482 13.7674 124.562 14.1424L130.743 40.8004C130.814 41.1122 130.801 41.4372 130.706 41.7424C130.612 42.0477 130.438 42.3225 130.202 42.539C130.144 42.6468 130.047 42.7292 129.932 42.7708H129.661C120.959 46.0233 111.866 48.1147 102.617 48.9911" fill="#A2A2A2"/>
<path d="M133.68 26.622V28.206C145.166 29.2699 156.458 31.8687 167.253 35.933C167.551 36.0655 167.795 36.293 167.949 36.5797C168.103 36.8664 168.157 37.1961 168.103 37.517L165.36 49.1075H168.799L171.658 37.092C171.844 36.3141 171.743 35.495 171.374 34.7853C171.005 34.0756 170.393 33.5228 169.649 33.2285C158.675 28.7413 147.025 26.1293 135.186 25.5016C134.833 25.4975 134.49 25.6209 134.221 25.8493C134.078 25.967 133.962 26.1144 133.882 26.2811C133.802 26.4479 133.759 26.6302 133.757 26.8152" fill="#434343"/>
<path d="M165.745 48.6434H168.449L171.231 37.0529C171.393 36.352 171.299 35.6161 170.966 34.9784C170.633 34.3407 170.083 33.8432 169.415 33.5758C158.484 29.1245 146.891 26.5136 135.107 25.8488C134.973 25.8425 134.839 25.8631 134.713 25.9096C134.587 25.956 134.471 26.0273 134.373 26.1192C134.183 26.3059 134.061 26.5506 134.025 26.8146V28.051C145.433 29.1375 156.645 31.7359 167.367 35.7779C167.744 35.9321 168.056 36.2138 168.246 36.5739C168.437 36.934 168.495 37.3497 168.41 37.7483L165.745 48.6434ZM168.719 49.4547H165.281C165.281 49.4547 165.049 49.4547 165.01 49.4547C164.972 49.3553 164.972 49.245 165.01 49.1456L167.754 37.5551C167.799 37.3204 167.762 37.0771 167.65 36.8661C167.537 36.6551 167.356 36.4892 167.135 36.3961C156.365 32.3358 145.099 29.7371 133.639 28.6691C133.57 28.7122 133.489 28.7299 133.408 28.7192C133.328 28.7085 133.254 28.67 133.199 28.6104C133.144 28.5508 133.111 28.4738 133.107 28.3929C133.103 28.3119 133.127 28.2319 133.175 28.1669V26.5828C133.182 26.3536 133.237 26.1283 133.337 25.9219C133.437 25.7154 133.579 25.5325 133.755 25.3851C133.919 25.2304 134.114 25.1124 134.327 25.0392C134.54 24.9659 134.767 24.9389 134.991 24.9602C146.855 25.588 158.53 28.1998 169.531 32.6871C170.337 33.04 170.998 33.6574 171.406 34.4372C171.813 35.217 171.942 36.1125 171.772 36.9756L168.913 48.9911C168.908 49.0318 168.895 49.0712 168.875 49.1069C168.855 49.1426 168.828 49.1739 168.795 49.1991C168.763 49.2243 168.726 49.2428 168.686 49.2535C168.647 49.2642 168.606 49.2669 168.565 49.2615" fill="#A2A2A2"/>
<path d="M130.977 26.6215V28.2055C119.492 29.274 108.2 31.8727 97.4034 35.9325C97.1044 36.0601 96.8595 36.2884 96.7113 36.5777C96.5631 36.8671 96.5209 37.1993 96.5921 37.5165L99.1807 49.107H95.7421L93.0376 37.0915C92.8513 36.3136 92.952 35.4945 93.3211 34.7848C93.6901 34.075 94.3029 33.5223 95.0467 33.228C106.007 28.7414 117.644 26.1294 129.47 25.501C129.836 25.4911 130.193 25.6147 130.475 25.8488C130.611 25.9701 130.719 26.1191 130.792 26.2857C130.865 26.4523 130.902 26.6326 130.9 26.8147" fill="#D3D3D3"/>
<path d="M130.977 26.6215V28.2055C119.492 29.274 108.2 31.8727 97.4034 35.9325C97.1044 36.0601 96.8595 36.2884 96.7113 36.5777C96.5631 36.8671 96.5209 37.1993 96.5921 37.5165L99.1807 49.107H95.7421L93.0376 37.0915C92.8513 36.3136 92.952 35.4945 93.3211 34.7848C93.6901 34.075 94.3029 33.5223 95.0467 33.228C106.007 28.7414 117.644 26.1294 129.47 25.501C129.836 25.4911 130.193 25.6147 130.475 25.8488C130.611 25.9701 130.719 26.1191 130.792 26.2857C130.865 26.4523 130.902 26.6326 130.9 26.8147" fill="#434343"/>
<path d="M129.622 25.6559C117.825 26.3165 106.219 28.9276 95.2755 33.3829C94.6097 33.6507 94.0631 34.1501 93.7365 34.7891C93.4099 35.4281 93.3254 36.1636 93.4984 36.8601L96.1642 48.4505H98.8686L96.3573 37.3623C96.2559 36.963 96.3065 36.5403 96.4993 36.1762C96.692 35.8121 97.0132 35.5326 97.4004 35.392C108.12 31.3416 119.334 28.7429 130.742 27.665V26.4287C130.741 26.2979 130.712 26.1688 130.659 26.0492C130.606 25.9297 130.529 25.8222 130.433 25.7332C130.239 25.5663 129.994 25.4708 129.738 25.4628L129.622 25.6559ZM95.9323 49.2619C95.8537 49.2576 95.7783 49.2294 95.7162 49.1811C95.654 49.1327 95.6081 49.0666 95.5846 48.9914L92.8802 36.976C92.7068 36.1174 92.8302 35.2253 93.2304 34.4461C93.6305 33.6669 94.2836 33.0468 95.0824 32.6875C106.095 28.196 117.783 25.5841 129.661 24.9605C129.885 24.9441 130.11 24.9732 130.322 25.0463C130.535 25.1193 130.73 25.2347 130.897 25.3855C131.238 25.6946 131.446 26.124 131.476 26.5832V28.1672C131.477 28.2633 131.442 28.3562 131.377 28.4276C131.313 28.4991 131.224 28.544 131.129 28.5536C119.668 29.6215 108.402 32.2203 97.6322 36.2805C97.4143 36.3742 97.2367 36.542 97.1307 36.7541C97.0246 36.9663 96.9969 37.2091 97.0527 37.4396L99.6799 49.0301C99.7186 49.1294 99.7186 49.2398 99.6799 49.3392H99.4095C98.2505 49.3392 97.0913 49.3392 95.9323 49.3392V49.2619Z" fill="#A2A2A2"/>
<path d="M93.0726 49.5707C92.9458 49.571 92.8236 49.5234 92.7304 49.4374C92.6373 49.3515 92.5801 49.2334 92.5703 49.107V18.1991C92.5701 18.1348 92.5833 18.0712 92.609 18.0123C92.6347 17.9534 92.6722 17.9004 92.7195 17.8568C92.7667 17.8132 92.8226 17.7799 92.8834 17.7591C92.9442 17.7382 93.0086 17.7301 93.0726 17.7355C93.1956 17.7355 93.3136 17.7843 93.4005 17.8713C93.4875 17.9582 93.5363 18.0761 93.5363 18.1991V49.107C93.5363 49.1679 93.5243 49.2282 93.501 49.2844C93.4777 49.3407 93.4436 49.3918 93.4005 49.4349C93.3575 49.4779 93.3063 49.5121 93.2501 49.5354C93.1938 49.5587 93.1335 49.5707 93.0726 49.5707Z" fill="#A2A2A2"/>
<path d="M171.811 59.6932V49.1845C159.016 49.1482 146.338 46.7514 134.412 42.1143H130.549C118.624 46.7514 105.945 49.1482 93.1504 49.1845V56.6023C93.1503 57.2105 93.3892 57.7944 93.8156 58.228C94.242 58.6616 94.8218 58.9103 95.4298 58.9204L168.836 62.5135C169.219 62.5345 169.603 62.4771 169.963 62.3448C170.323 62.2125 170.653 62.0081 170.931 61.7441C171.21 61.4801 171.431 61.162 171.582 60.8094C171.734 60.4567 171.812 60.0769 171.811 59.6932Z" fill="#434343"/>
<path d="M93.5385 49.6865V56.6021C93.5384 57.0874 93.7286 57.5533 94.068 57.9C94.4075 58.2467 94.8693 58.4465 95.3544 58.4566L168.761 62.0496C169.081 62.0709 169.401 62.0233 169.701 61.91C170.001 61.7967 170.273 61.6203 170.499 61.3929C170.732 61.1752 170.917 60.9119 171.044 60.6194C171.17 60.3269 171.234 60.0115 171.233 59.6929V49.6865C158.567 49.5838 146.025 47.1749 134.221 42.5777H130.358C118.552 47.1674 106.011 49.5761 93.3454 49.6865H93.5385ZM168.915 62.9383L95.5089 59.3066C95.1454 59.3066 94.7855 59.2344 94.4502 59.0941C94.1148 58.9539 93.8107 58.7484 93.5555 58.4896C93.3003 58.2307 93.0991 57.9237 92.9635 57.5865C92.8279 57.2492 92.7608 56.8883 92.7659 56.5249V49.107C92.7756 48.9806 92.8329 48.8625 92.926 48.7765C93.0192 48.6905 93.1414 48.643 93.2682 48.6434C105.998 48.6205 118.613 46.2364 130.474 41.6118H134.723C146.598 46.2324 159.225 48.6164 171.968 48.6434C172.09 48.6434 172.208 48.6922 172.295 48.7791C172.382 48.8661 172.431 48.984 172.431 49.107V59.6157C172.435 60.0623 172.348 60.505 172.176 60.9169C172.003 61.3287 171.748 61.7011 171.427 62.011C170.797 62.5996 169.97 62.9305 169.108 62.9383" fill="#A2A2A2"/>
<path d="M135.456 12.7132C147.252 13.048 158.906 15.3866 169.918 19.6289C170.114 19.7337 170.333 19.7886 170.555 19.7886C170.778 19.7886 170.997 19.7337 171.193 19.6289C171.367 19.4969 171.509 19.3279 171.609 19.1341C171.709 18.9403 171.765 18.7265 171.772 18.5085V4.484C171.772 3.72575 171.471 2.99855 170.935 2.46239C170.399 1.92622 169.672 1.625 168.913 1.625H138.005L135.571 4.05902H129.313L126.879 1.625H95.9707C95.2192 1.63516 94.5018 1.94085 93.974 2.47592C93.4462 3.01098 93.1504 3.7324 93.1504 4.484V18.5471C93.1487 18.7669 93.2005 18.9838 93.3015 19.179C93.4024 19.3742 93.5495 19.5419 93.7299 19.6675C93.9191 19.7724 94.1318 19.8274 94.3481 19.8274C94.5644 19.8274 94.777 19.7724 94.9662 19.6675C105.941 15.4292 117.554 13.0779 129.313 12.7132H135.417" fill="#434343"/>
<path d="M135.497 12.3651C147.401 12.6941 159.162 15.0592 170.268 19.358C170.39 19.4332 170.53 19.473 170.674 19.473C170.817 19.473 170.957 19.4332 171.079 19.358C171.196 19.2824 171.292 19.1794 171.359 19.0582C171.426 18.937 171.463 18.8012 171.466 18.6625V4.48353C171.466 3.84824 171.213 3.23897 170.764 2.78975C170.315 2.34053 169.706 2.08816 169.07 2.08816H138.394L136.115 4.40625C136.001 4.43952 135.881 4.43952 135.767 4.40625H129.315C129.202 4.43952 129.081 4.43952 128.967 4.40625L126.688 2.08816H96.0118C95.3765 2.08816 94.7672 2.34053 94.3179 2.78975C93.8687 3.23897 93.6164 3.84824 93.6164 4.48353V18.5466C93.6192 18.6853 93.6558 18.8211 93.7231 18.9423C93.7905 19.0635 93.8864 19.1665 94.0027 19.2421C94.1246 19.3173 94.2651 19.3571 94.4084 19.3571C94.5517 19.3571 94.6921 19.3173 94.8141 19.2421C105.92 14.9433 117.681 12.5781 129.585 12.2491H135.728L135.497 12.3651ZM94.5436 20.4397C94.1735 20.4388 93.8114 20.3315 93.5005 20.1307C93.259 19.9612 93.0624 19.7354 92.9277 19.4729C92.7931 19.2103 92.7245 18.9189 92.7278 18.6239V4.48353C92.7226 4.04577 92.805 3.61138 92.9702 3.20592C93.1353 2.80047 93.3798 2.43213 93.6894 2.12256C93.999 1.81299 94.3674 1.56842 94.7728 1.40328C95.1783 1.23814 95.6127 1.15575 96.0504 1.16093H126.958C127.058 1.12214 127.168 1.12214 127.267 1.16093L129.585 3.47902H135.574L137.892 1.16093C137.991 1.12214 138.102 1.12214 138.201 1.16093H169.109C169.547 1.15575 169.981 1.23814 170.387 1.40328C170.792 1.56842 171.16 1.81299 171.47 2.12256C171.78 2.43213 172.024 2.80047 172.189 3.20592C172.354 3.61138 172.437 4.04577 172.432 4.48353V18.5466C172.435 18.8417 172.366 19.1331 172.232 19.3956C172.097 19.6581 171.9 19.8839 171.659 20.0534C171.395 20.1859 171.104 20.2549 170.809 20.2549C170.514 20.2549 170.223 20.1859 169.959 20.0534C158.999 15.8153 147.397 13.4765 135.651 13.1377C133.642 13.1377 131.788 13.1377 129.585 13.1377C117.751 13.5741 106.081 16.0442 95.0846 20.4397C94.8672 20.4765 94.6451 20.4765 94.4277 20.4397" fill="#A2A2A2"/>
<path d="M171.813 49.6868C171.749 49.687 171.685 49.6739 171.626 49.6482C171.567 49.6225 171.514 49.5849 171.471 49.5376C171.427 49.4904 171.394 49.4346 171.373 49.3738C171.352 49.313 171.344 49.2486 171.349 49.1845V18.2766C171.349 18.1537 171.398 18.0357 171.485 17.9488C171.572 17.8618 171.69 17.813 171.813 17.813C171.936 17.813 172.054 17.8618 172.141 17.9488C172.228 18.0357 172.276 18.1537 172.276 18.2766V49.1845C172.282 49.2486 172.274 49.313 172.253 49.3738C172.232 49.4346 172.199 49.4904 172.155 49.5376C172.112 49.5849 172.059 49.6225 172 49.6482C171.941 49.6739 171.877 49.687 171.813 49.6868Z" fill="#A2A2A2"/>
<path d="M134.644 40.9549C134.558 41.2775 134.598 41.6208 134.756 41.9151C134.914 42.2093 135.178 42.4324 135.494 42.539H135.146C143.836 45.8469 152.933 47.9653 162.191 48.8364C162.521 48.8732 162.853 48.7872 163.124 48.5948C163.395 48.4025 163.585 48.1171 163.659 47.7933L169.802 21.1352C169.877 20.8181 169.832 20.4843 169.675 20.1986C169.518 19.913 169.26 19.696 168.952 19.5898H169.377C160.576 16.2381 151.361 14.0937 141.985 13.215H142.178C141.846 13.1691 141.51 13.2516 141.237 13.4454C140.964 13.6393 140.776 13.93 140.71 14.2582L134.644 40.9549Z" fill="#D3D3D3"/>
<path d="M162.31 48.2571C162.528 48.2812 162.748 48.2234 162.926 48.095C163.105 47.9666 163.229 47.7765 163.275 47.5617L169.418 20.9422C169.471 20.7323 169.445 20.5106 169.345 20.3185C169.245 20.1265 169.079 19.9774 168.877 19.8991C160.305 16.6726 151.339 14.6067 142.219 13.7562C142.009 13.7495 141.802 13.8147 141.634 13.9411C141.465 14.0675 141.345 14.2476 141.292 14.4516L135.149 41.071C135.097 41.2709 135.118 41.4832 135.211 41.6681C135.303 41.853 135.46 41.9978 135.652 42.0755C144.232 45.3271 153.212 47.4064 162.348 48.2571H162.31ZM162.348 49.223C153.099 48.3511 144.005 46.2595 135.304 43.0028H135.033C134.974 42.986 134.919 42.9566 134.873 42.9166C134.826 42.8766 134.789 42.8269 134.763 42.771C134.528 42.5544 134.354 42.2797 134.259 41.9744C134.164 41.6691 134.151 41.3442 134.222 41.0324L140.365 14.3743C140.457 13.9989 140.662 13.6606 140.952 13.4051C141.242 13.1495 141.604 12.9889 141.988 12.9448H142.335C151.684 13.8419 160.87 15.9859 169.65 19.3196C169.79 19.3783 169.9 19.4893 169.959 19.6287C170.156 19.8526 170.297 20.1198 170.371 20.4084C170.444 20.6971 170.449 20.9992 170.384 21.29L164.241 47.9481C164.147 48.3503 163.92 48.7093 163.598 48.9683C163.276 49.2273 162.877 49.3713 162.464 49.3775" fill="#A2A2A2"/>
<path d="M93.0726 120.891C93.0086 120.896 92.9442 120.888 92.8834 120.867C92.8226 120.846 92.7667 120.813 92.7195 120.769C92.6722 120.726 92.6347 120.673 92.609 120.614C92.5833 120.555 92.5701 120.491 92.5703 120.427V56.6023C92.5703 56.4691 92.6233 56.3414 92.7175 56.2472C92.8117 56.153 92.9394 56.1001 93.0726 56.1001C93.1369 56.0999 93.2006 56.113 93.2595 56.1387C93.3185 56.1644 93.3713 56.202 93.4149 56.2492C93.4585 56.2965 93.4919 56.3523 93.5128 56.413C93.5337 56.4738 93.5416 56.5383 93.5363 56.6023V120.311C93.5363 120.434 93.4875 120.552 93.4006 120.639C93.3136 120.726 93.1956 120.775 93.0726 120.775" fill="#A2A2A2"/>
<path d="M171.812 120.891C171.689 120.891 171.571 120.842 171.484 120.755C171.398 120.668 171.349 120.55 171.349 120.427V59.6931C171.349 59.5702 171.398 59.4522 171.484 59.3653C171.571 59.2783 171.689 59.2295 171.812 59.2295C171.935 59.2295 172.053 59.2783 172.14 59.3653C172.227 59.4522 172.276 59.5702 172.276 59.6931V120.582C172.276 120.705 172.227 120.823 172.14 120.91C172.053 120.996 171.935 121.045 171.812 121.045" fill="#A2A2A2"/>
<path d="M135.533 4.05859H129.235V12.8287H135.533V4.05859Z" fill="#D3D3D3"/>
<path d="M129.582 12.4811H135.184V4.40637H129.582V12.4811ZM135.532 13.1765H129.312C129.219 13.1765 129.131 13.1399 129.066 13.0747C129.001 13.0095 128.964 12.921 128.964 12.8288V4.05867C128.964 4.013 128.973 3.96777 128.99 3.92558C129.008 3.8834 129.033 3.84507 129.066 3.81278C129.098 3.78049 129.136 3.75488 129.178 3.73741C129.221 3.71993 129.266 3.71094 129.312 3.71094H135.609C135.655 3.71094 135.7 3.71993 135.742 3.73741C135.784 3.75488 135.823 3.78049 135.855 3.81278C135.887 3.84507 135.913 3.8834 135.93 3.92558C135.948 3.96777 135.957 4.013 135.957 4.05867V12.7129C135.957 12.8051 135.92 12.8935 135.855 12.9587C135.79 13.0239 135.701 13.0606 135.609 13.0606" fill="#A2A2A2"/>
<path d="M132.289 5.64314C132.214 5.64374 132.141 5.61653 132.084 5.56668C132.027 5.51683 131.99 5.44781 131.98 5.3727V0.620624C131.98 0.538651 132.013 0.460022 132.071 0.402059C132.129 0.344095 132.208 0.311538 132.289 0.311538C132.329 0.311137 132.367 0.319179 132.403 0.335119C132.438 0.351058 132.47 0.374524 132.496 0.403886C132.522 0.433248 132.541 0.467813 132.552 0.505225C132.563 0.542637 132.566 0.582009 132.56 0.620624V5.3727C132.56 5.44443 132.531 5.51322 132.481 5.56394C132.43 5.61466 132.361 5.64314 132.289 5.64314ZM132.289 9.23619C132.21 9.2278 132.137 9.19254 132.08 9.1363C132.024 9.08005 131.989 9.0062 131.98 8.9271V7.72943C131.989 7.65033 132.024 7.57652 132.08 7.52027C132.137 7.46402 132.21 7.42874 132.289 7.42034C132.365 7.42981 132.434 7.46651 132.484 7.52348C132.533 7.58045 132.561 7.65373 132.56 7.72943V8.84985C132.561 8.92554 132.533 8.99883 132.484 9.0558C132.434 9.11277 132.365 9.14947 132.289 9.15893V9.23619ZM132.289 15.6496C132.214 15.6502 132.141 15.623 132.084 15.5731C132.027 15.5233 131.99 15.4543 131.98 15.3792V11.2838C131.99 11.2087 132.027 11.1397 132.084 11.0899C132.141 11.04 132.214 11.0128 132.289 11.0134C132.361 11.0134 132.43 11.0419 132.481 11.0926C132.531 11.1433 132.56 11.2121 132.56 11.2838V15.4564C132.56 15.5281 132.531 15.5969 132.481 15.6477C132.43 15.6984 132.361 15.7269 132.289 15.7269" fill="#A2A2A2"/>
<path d="M37.0542 116.757V123.982H38.136C38.5143 124.009 38.8936 123.946 39.2429 123.798C39.5922 123.651 39.9014 123.422 40.1451 123.132C40.6437 122.421 40.8886 121.564 40.8405 120.698V120.118C40.9065 119.226 40.6607 118.338 40.1451 117.607C39.9095 117.317 39.6072 117.088 39.2641 116.94C38.921 116.792 38.5473 116.729 38.1747 116.757H37.0542ZM34.8135 125.797V114.941H38.1747C39.0668 114.938 39.9448 115.164 40.7246 115.598C41.4603 116.031 42.0619 116.66 42.4631 117.414C42.9014 118.247 43.1271 119.176 43.12 120.118V120.62C43.1215 121.557 42.9101 122.482 42.5018 123.325C42.097 124.089 41.4798 124.719 40.7246 125.141C39.9482 125.582 39.0679 125.809 38.1747 125.797H34.8135Z" fill="#A2A2A2"/>
<path d="M198.857 121.857C198.81 122.462 198.945 123.067 199.244 123.595C199.369 123.788 199.54 123.946 199.743 124.055C199.946 124.163 200.173 124.217 200.403 124.213C200.693 124.225 200.98 124.151 201.227 123.999C201.475 123.848 201.672 123.627 201.794 123.364V120.157C201.67 119.897 201.471 119.681 201.223 119.537C200.975 119.392 200.689 119.325 200.403 119.345C199.36 119.345 198.857 120.157 198.857 121.857ZM196.694 121.857C196.635 120.786 196.934 119.725 197.544 118.843C197.814 118.486 198.165 118.198 198.568 118.003C198.971 117.808 199.414 117.712 199.862 117.723C200.23 117.718 200.594 117.795 200.928 117.949C201.262 118.103 201.558 118.329 201.794 118.611V114.516H203.957V126.107H202.025V125.257C201.78 125.575 201.463 125.831 201.101 126.005C200.739 126.18 200.341 126.267 199.939 126.261C199.498 126.269 199.061 126.171 198.664 125.976C198.268 125.781 197.923 125.495 197.66 125.141C197.061 124.21 196.764 123.117 196.81 122.011" fill="#A2A2A2"/>
<path d="M131.671 269.635V272.571H133.603C134.046 272.585 134.482 272.449 134.839 272.185C134.977 272.049 135.086 271.886 135.159 271.707C135.232 271.528 135.268 271.335 135.264 271.142C135.29 270.934 135.268 270.723 135.199 270.526C135.13 270.328 135.016 270.15 134.866 270.004C134.717 269.857 134.535 269.748 134.336 269.684C134.137 269.62 133.925 269.603 133.719 269.635H131.671ZM131.671 268.051H133.178C134.298 268.051 134.878 267.587 134.878 266.699C134.894 266.504 134.865 266.307 134.791 266.126C134.717 265.945 134.601 265.783 134.453 265.656C134.053 265.393 133.577 265.271 133.1 265.308H131.516L131.671 268.051ZM129.469 274.348V263.531H133.332C134.377 263.451 135.419 263.709 136.307 264.265C136.651 264.516 136.927 264.848 137.109 265.233C137.291 265.618 137.374 266.042 137.35 266.467C137.352 266.975 137.204 267.472 136.925 267.896C136.644 268.293 136.255 268.602 135.805 268.785C136.328 268.908 136.792 269.208 137.118 269.635C137.444 270.082 137.608 270.627 137.582 271.18C137.61 271.624 137.533 272.068 137.359 272.478C137.184 272.887 136.917 273.249 136.578 273.537C135.762 274.131 134.763 274.418 133.757 274.348H129.469Z" fill="#A2A2A2"/>
<path d="M7.06044 258.451C7.00588 259.205 6.72664 259.799 6.22272 260.232C5.72202 260.666 5.06084 260.882 4.23917 260.882C3.34047 260.882 2.63275 260.581 2.116 259.977C1.60245 259.371 1.34568 258.539 1.34568 257.483V257.055C1.34568 256.381 1.46444 255.787 1.70195 255.274C1.93947 254.76 2.27808 254.367 2.7178 254.094C3.16073 253.818 3.67427 253.68 4.25843 253.68C5.06726 253.68 5.71881 253.897 6.2131 254.33C6.70738 254.763 6.99304 255.371 7.07007 256.155H5.62573C5.59043 255.702 5.46365 255.375 5.24539 255.172C5.03034 254.967 4.70136 254.864 4.25843 254.864C3.77698 254.864 3.4159 255.038 3.17518 255.384C2.93766 255.728 2.8157 256.262 2.80928 256.988V257.517C2.80928 258.275 2.92322 258.828 3.1511 259.178C3.3822 259.528 3.74489 259.703 4.23917 259.703C4.68531 259.703 5.01751 259.602 5.23576 259.4C5.45723 259.194 5.58401 258.878 5.6161 258.451H7.06044ZM13.5118 258.451C13.4572 259.205 13.178 259.799 12.6741 260.232C12.1734 260.666 11.5122 260.882 10.6905 260.882C9.79184 260.882 9.08411 260.581 8.56736 259.977C8.05382 259.371 7.79705 258.539 7.79705 257.483V257.055C7.79705 256.381 7.91581 255.787 8.15332 255.274C8.39083 254.76 8.72945 254.367 9.16917 254.094C9.6121 253.818 10.1256 253.68 10.7098 253.68C11.5186 253.68 12.1702 253.897 12.6645 254.33C13.1587 254.763 13.4444 255.371 13.5214 256.155H12.0771C12.0418 255.702 11.915 255.375 11.6968 255.172C11.4817 254.967 11.1527 254.864 10.7098 254.864C10.2283 254.864 9.86727 255.038 9.62654 255.384C9.38903 255.728 9.26706 256.262 9.26064 256.988V257.517C9.26064 258.275 9.37459 258.828 9.60247 259.178C9.83356 259.528 10.1963 259.703 10.6905 259.703C11.1367 259.703 11.4689 259.602 11.6871 259.4C11.9086 259.194 12.0354 258.878 12.0675 258.451H13.5118ZM16.6556 257.974L15.9046 258.783V260.786H14.4603V253.776H15.9046V256.954L16.5401 256.082L18.3263 253.776H20.1028L17.6137 256.891L20.175 260.786H18.4562L16.6556 257.974Z" fill="#A2A2A2"/>
</svg>
