<svg width="275" height="301" viewBox="0 0 275 301" fill="none" xmlns="http://www.w3.org/2000/svg">
<path d="M75.0102 85.6069H122.91C124.799 87.6425 127.086 89.2683 129.629 90.3837C132.172 91.499 134.917 92.08 137.694 92.0907C140.476 92.115 143.232 91.5498 145.78 90.4323C148.329 89.3147 150.611 87.6702 152.478 85.6069H203.842C204.473 85.6124 205.077 85.8657 205.523 86.312C205.969 86.7584 206.223 87.3622 206.228 87.9935V100.665C206.228 101.252 206.112 101.834 205.887 102.376C205.662 102.918 205.331 103.41 204.915 103.824C204.499 104.238 204.006 104.566 203.462 104.789C202.919 105.011 202.338 105.124 201.751 105.122H42.2532C41.6672 105.124 41.0865 105.011 40.5445 104.788C40.0026 104.565 39.5103 104.237 39.0959 103.823C38.6815 103.408 38.3534 102.916 38.1304 102.374C37.9074 101.832 37.7941 101.251 37.7969 100.665V87.9935C37.8024 87.3622 38.0557 86.7584 38.502 86.312C38.9484 85.8657 39.5522 85.6124 40.1835 85.6069H50.1309" fill="#434343"/>
<path d="M201.878 105.65H42.2538C40.9319 105.65 39.6641 105.125 38.7294 104.191C37.7947 103.256 37.2695 101.988 37.2695 100.666V87.9941C37.2695 87.2267 37.5743 86.4908 38.117 85.9482C38.6596 85.4056 39.3956 85.1007 40.1629 85.1007H50.1104C50.1871 85.0851 50.2663 85.0868 50.3422 85.1056C50.4182 85.1244 50.4891 85.1598 50.5496 85.2093C50.6102 85.2589 50.659 85.3212 50.6925 85.3919C50.7261 85.4626 50.7435 85.5399 50.7435 85.6181C50.7435 85.6964 50.7261 85.7737 50.6925 85.8444C50.659 85.9151 50.6102 85.9774 50.5496 86.027C50.4891 86.0765 50.4182 86.1119 50.3422 86.1307C50.2663 86.1495 50.1871 86.1512 50.1104 86.1356H40.1629C39.67 86.1356 39.1973 86.3314 38.8488 86.6799C38.5002 87.0285 38.3044 87.5012 38.3044 87.9941V100.666C38.31 101.71 38.7285 102.709 39.4686 103.445C40.2087 104.181 41.21 104.594 42.2538 104.594H201.878C202.922 104.594 203.923 104.181 204.663 103.445C205.403 102.709 205.822 101.71 205.827 100.666V87.9941C205.83 87.7493 205.784 87.5063 205.692 87.2796C205.599 87.0528 205.462 86.8468 205.289 86.6736C205.116 86.5005 204.91 86.3637 204.683 86.2713C204.457 86.1789 204.214 86.1328 203.969 86.1356H152.88C150.956 88.1993 148.624 89.8397 146.031 90.9524C143.438 92.0651 140.642 92.6256 137.821 92.5983C135.008 92.595 132.224 92.0205 129.64 90.9096C127.055 89.7987 124.722 88.1746 122.784 86.1356H75.0108C74.9341 86.1512 74.8549 86.1495 74.7789 86.1307C74.703 86.1119 74.6321 86.0765 74.5715 86.027C74.5109 85.9774 74.4622 85.9151 74.4286 85.8444C74.3951 85.7737 74.3777 85.6964 74.3777 85.6181C74.3777 85.5399 74.3951 85.4626 74.4286 85.3919C74.4622 85.3212 74.5109 85.2589 74.5715 85.2093C74.6321 85.1598 74.703 85.1244 74.7789 85.1056C74.8549 85.0868 74.9341 85.0851 75.0108 85.1007H122.911C122.981 85.0963 123.051 85.1073 123.117 85.1328C123.183 85.1583 123.242 85.1978 123.291 85.2485C125.136 87.2377 127.371 88.8265 129.856 89.9164C132.341 91.0063 135.023 91.5741 137.737 91.5845C140.455 91.6051 143.147 91.0513 145.637 89.9595C148.126 88.8676 150.357 87.2623 152.183 85.2485C152.229 85.1928 152.287 85.1485 152.353 85.1191C152.419 85.0898 152.491 85.0763 152.563 85.0796H203.842C204.609 85.0796 205.345 85.3844 205.888 85.9271C206.431 86.4697 206.736 87.2056 206.736 87.973V100.645C206.736 101.967 206.21 103.235 205.276 104.169C204.341 105.104 203.073 105.629 201.751 105.629" fill="#A2A2A2"/>
<path d="M75.539 85.0586L74.863 85.4388L77.5241 86.9805L74.863 88.5223L77.5241 90.0429L74.863 91.5846L77.5241 93.1264L74.863 94.6681L77.5241 96.1888L74.863 97.7305L77.5241 99.2723L74.863 100.793L77.5241 102.335L74.863 103.876L76.975 105.08H51.9903L49.8994 103.876L52.5605 102.335L49.8994 100.793L52.5605 99.2723L49.8994 97.7305L52.5605 96.1888L49.8994 94.6681L52.5605 93.1264L49.8994 91.5846L52.5605 90.0429L49.8994 88.5223L52.5605 86.9805L50.1528 85.5866" fill="#D3D3D3"/>
<path d="M76.9516 105.482H51.9879H51.7978L49.6858 104.257C49.6291 104.221 49.5825 104.171 49.5501 104.112C49.5178 104.053 49.5009 103.986 49.5009 103.919C49.5009 103.852 49.5178 103.785 49.5501 103.726C49.5825 103.667 49.6291 103.617 49.6858 103.581L51.7978 102.377L49.6858 101.195C49.6317 101.155 49.5866 101.105 49.5538 101.046C49.521 100.988 49.5012 100.923 49.4957 100.857C49.4963 100.789 49.514 100.722 49.5472 100.663C49.5805 100.604 49.6282 100.554 49.6858 100.519L51.7978 99.3149L49.6858 98.1111C49.6291 98.0748 49.5825 98.0248 49.5501 97.9657C49.5178 97.9067 49.5009 97.8404 49.5009 97.7731C49.5009 97.7058 49.5178 97.6396 49.5501 97.5805C49.5825 97.5215 49.6291 97.4715 49.6858 97.4352L51.7978 96.2314L49.6858 95.0487C49.6317 95.0093 49.5866 94.9588 49.5538 94.9005C49.521 94.8422 49.5012 94.7774 49.4957 94.7108C49.4963 94.643 49.514 94.5764 49.5472 94.5173C49.5805 94.4582 49.6282 94.4085 49.6858 94.3728L51.7978 93.169L49.6858 91.9652C49.6282 91.9295 49.5805 91.8798 49.5472 91.8207C49.514 91.7616 49.4963 91.695 49.4957 91.6273C49.4989 91.5653 49.5157 91.5048 49.5449 91.45C49.5741 91.3953 49.615 91.3476 49.6647 91.3105L51.7767 90.1066L49.6647 88.9239C49.6105 88.8846 49.5655 88.834 49.5327 88.7757C49.4999 88.7174 49.4801 88.6527 49.4746 88.586C49.4752 88.5182 49.4929 88.4516 49.5261 88.3925C49.5593 88.3335 49.607 88.2838 49.6647 88.2481L51.7767 87.0442L49.9392 85.9882C49.8941 85.964 49.8544 85.931 49.8223 85.891C49.7903 85.851 49.7667 85.805 49.7529 85.7557C49.739 85.7064 49.7353 85.6548 49.742 85.6041C49.7486 85.5533 49.7654 85.5044 49.7914 85.4602C49.8177 85.4144 49.8527 85.3742 49.8946 85.3419C49.9364 85.3097 49.9842 85.286 50.0352 85.2723C50.0862 85.2585 50.1395 85.255 50.1919 85.2619C50.2443 85.2688 50.2948 85.286 50.3405 85.3124L52.7482 86.7063C52.8048 86.7426 52.8515 86.7926 52.8838 86.8516C52.9161 86.9107 52.933 86.9769 52.933 87.0442C52.933 87.1115 52.9161 87.1778 52.8838 87.2368C52.8515 87.2959 52.8048 87.3458 52.7482 87.3821L50.6362 88.586L52.7482 89.7687C52.8058 89.8044 52.8535 89.8541 52.8867 89.9132C52.92 89.9723 52.9377 90.0388 52.9382 90.1066C52.9422 90.1752 52.9264 90.2435 52.8927 90.3034C52.859 90.3633 52.8089 90.4123 52.7482 90.4445L50.6362 91.6484L52.7482 92.8522C52.8048 92.8885 52.8515 92.9385 52.8838 92.9975C52.9161 93.0566 52.933 93.1228 52.933 93.1901C52.933 93.2574 52.9161 93.3237 52.8838 93.3827C52.8515 93.4418 52.8048 93.4917 52.7482 93.528L50.6362 94.7319L52.7482 95.9146C52.8058 95.9503 52.8535 96 52.8867 96.0591C52.92 96.1182 52.9377 96.1847 52.9382 96.2525C52.9422 96.3211 52.9264 96.3894 52.8927 96.4493C52.859 96.5092 52.8089 96.5582 52.7482 96.5904L50.6362 97.7943L52.7482 98.9981C52.8089 99.0303 52.859 99.0793 52.8927 99.1392C52.9264 99.1991 52.9422 99.2674 52.9382 99.336C52.9398 99.4042 52.923 99.4716 52.8895 99.531C52.8561 99.5905 52.8073 99.6398 52.7482 99.6739L50.6362 100.878L52.7482 102.06C52.8058 102.096 52.8535 102.146 52.8867 102.205C52.92 102.264 52.9377 102.331 52.9382 102.398C52.9422 102.467 52.9264 102.535 52.8927 102.595C52.859 102.655 52.8089 102.704 52.7482 102.736L50.6362 103.94L52.0512 104.764H75.4521L74.6284 104.278C74.5664 104.246 74.5143 104.198 74.478 104.138C74.4416 104.078 74.4224 104.01 74.4224 103.94C74.4224 103.87 74.4416 103.802 74.478 103.742C74.5143 103.683 74.5664 103.634 74.6284 103.602L76.7404 102.398L74.6284 101.216C74.5681 101.181 74.5173 101.132 74.4804 101.073C74.4436 101.014 74.4219 100.947 74.4172 100.878C74.4177 100.807 74.4377 100.739 74.475 100.679C74.5122 100.619 74.5654 100.571 74.6284 100.54L76.7404 99.336L74.6284 98.1322C74.5664 98.1002 74.5143 98.0518 74.478 97.9921C74.4416 97.9325 74.4224 97.8641 74.4224 97.7943C74.4224 97.7244 74.4416 97.656 74.478 97.5964C74.5143 97.5368 74.5664 97.4883 74.6284 97.4563L76.7404 96.2525L74.6284 95.0698C74.5681 95.0352 74.5173 94.9862 74.4804 94.9273C74.4436 94.8684 74.4219 94.8012 74.4172 94.7319C74.4177 94.6615 74.4377 94.5927 74.475 94.533C74.5122 94.4734 74.5654 94.4252 74.6284 94.394L76.7404 93.1901L74.6284 91.9863C74.5654 91.955 74.5122 91.9069 74.475 91.8472C74.4377 91.7876 74.4177 91.7187 74.4172 91.6484C74.4199 91.5785 74.4409 91.5106 74.4779 91.4513C74.515 91.3921 74.5668 91.3435 74.6284 91.3105L76.7404 90.1066L74.6284 88.9239C74.5681 88.8893 74.5173 88.8404 74.4804 88.7814C74.4436 88.7225 74.4219 88.6553 74.4172 88.586C74.4177 88.5156 74.4377 88.4468 74.475 88.3871C74.5122 88.3275 74.5654 88.2793 74.6284 88.2481L76.7404 87.0442L74.6284 85.8404C74.5664 85.8084 74.5143 85.76 74.478 85.7004C74.4416 85.6408 74.4224 85.5723 74.4224 85.5025C74.4224 85.4327 74.4416 85.3642 74.478 85.3046C74.5143 85.245 74.5664 85.1965 74.6284 85.1646L75.2831 84.7844C75.3289 84.758 75.3794 84.7408 75.4318 84.7339C75.4841 84.727 75.5374 84.7305 75.5884 84.7443C75.6394 84.758 75.6872 84.7817 75.7291 84.8139C75.7709 84.8462 75.806 84.8864 75.8323 84.9323C75.8583 84.9764 75.875 85.0253 75.8816 85.0761C75.8883 85.1268 75.8846 85.1784 75.8708 85.2277C75.857 85.277 75.8334 85.3231 75.8013 85.363C75.7693 85.403 75.7295 85.436 75.6844 85.4602L77.7964 86.6641C77.8531 86.7004 77.8997 86.7504 77.932 86.8094C77.9643 86.8685 77.9813 86.9347 77.9813 87.002C77.9813 87.0693 77.9643 87.1355 77.932 87.1946C77.8997 87.2536 77.8531 87.3036 77.7964 87.3399L75.6844 88.5438L77.7964 89.7265C77.854 89.7621 77.9017 89.8119 77.935 89.8709C77.9682 89.93 77.9859 89.9966 77.9865 90.0644C77.9905 90.133 77.9747 90.2013 77.941 90.2612C77.9073 90.3211 77.8571 90.3701 77.7964 90.4023L75.6844 91.6061L77.7964 92.81C77.8531 92.8463 77.8997 92.8962 77.932 92.9553C77.9643 93.0143 77.9813 93.0806 77.9813 93.1479C77.9813 93.2152 77.9643 93.2814 77.932 93.3405C77.8997 93.3995 77.8531 93.4495 77.7964 93.4858L75.6844 94.6896L77.7964 95.8724C77.854 95.908 77.9017 95.9577 77.935 96.0168C77.9682 96.0759 77.9859 96.1425 77.9865 96.2103C77.9905 96.2789 77.9747 96.3472 77.941 96.4071C77.9073 96.467 77.8571 96.516 77.7964 96.5482L75.6844 97.752L77.7964 98.9559C77.8571 98.9881 77.9073 99.037 77.941 99.0969C77.9747 99.1568 77.9905 99.2252 77.9865 99.2938C77.988 99.362 77.9712 99.4293 77.9377 99.4888C77.9043 99.5482 77.8555 99.5976 77.7964 99.6317L75.6844 100.836L77.7964 102.018C77.854 102.054 77.9017 102.104 77.935 102.163C77.9682 102.222 77.9859 102.288 77.9865 102.356C77.9905 102.425 77.9747 102.493 77.941 102.553C77.9073 102.613 77.8571 102.662 77.7964 102.694L75.6844 103.898L77.205 104.785C77.2807 104.822 77.34 104.885 77.3712 104.963C77.4025 105.042 77.4035 105.129 77.374 105.207C77.3545 105.293 77.306 105.369 77.2367 105.423C77.1674 105.477 77.0816 105.505 76.9938 105.503" fill="#A2A2A2"/>
<path d="M71.2726 105.079L75.2854 100.792H74.9051L77.5663 99.2712L74.9051 97.7295L77.5663 96.1877L74.9051 94.6671L77.5663 93.1253L74.9051 91.5836L77.5663 90.0418L74.9051 88.5212L77.5663 86.9794L74.9051 85.4377L75.5811 85.0575H75.6231L72.392 83.1567H55.1158L50.6173 85.7967L50.195 85.5855L52.6025 86.9794L49.9414 88.5212L52.6025 90.0418L49.9414 91.5836L52.6025 93.1253L49.9414 94.6671L52.6025 96.1877L49.9414 97.7295L52.6025 99.2712L51.3565 100.201L56.2352 105.079H71.2726Z" fill="#D3D3D3"/>
<path d="M56.4029 104.679H71.1868L74.6504 100.983C74.6312 100.902 74.6394 100.816 74.6738 100.74C74.7081 100.663 74.7668 100.601 74.8406 100.561L76.9526 99.3571L74.8406 98.1532C74.7839 98.1169 74.7372 98.0669 74.7049 98.0079C74.6726 97.9488 74.6557 97.8826 74.6557 97.8153C74.6557 97.748 74.6726 97.6818 74.7049 97.6227C74.7372 97.5637 74.7839 97.5137 74.8406 97.4774L76.9526 96.2736L74.8406 95.0908C74.7829 95.0552 74.7352 95.0055 74.702 94.9464C74.6688 94.8873 74.651 94.8207 74.6504 94.7529C74.6465 94.6843 74.6622 94.616 74.6959 94.5561C74.7296 94.4962 74.7799 94.4472 74.8406 94.415L76.9526 93.2112L74.8406 92.0073C74.7799 91.9751 74.7296 91.9261 74.6959 91.8662C74.6622 91.8063 74.6465 91.738 74.6504 91.6694C74.6489 91.6012 74.6657 91.5339 74.6992 91.4744C74.7326 91.415 74.7815 91.3656 74.8406 91.3315L76.9526 90.1277L74.8406 88.9449C74.7829 88.9093 74.7352 88.8596 74.702 88.8005C74.6688 88.7414 74.651 88.6748 74.6504 88.607C74.6465 88.5384 74.6622 88.4701 74.6959 88.4102C74.7296 88.3503 74.7799 88.3013 74.8406 88.2691L76.9526 87.0653L74.8406 85.8614C74.7839 85.8251 74.7372 85.7752 74.7049 85.7161C74.6726 85.6571 74.6557 85.5908 74.6557 85.5235C74.6557 85.4562 74.6726 85.39 74.7049 85.3309C74.7372 85.2719 74.7839 85.2219 74.8406 85.1856H74.9461L72.3907 83.7072H55.3469L51.3552 85.8192L52.7914 86.6429C52.8534 86.6749 52.9055 86.7233 52.9418 86.7829C52.9782 86.8425 52.9974 86.911 52.9974 86.9808C52.9974 87.0506 52.9782 87.1191 52.9418 87.1787C52.9055 87.2383 52.8534 87.2867 52.7914 87.3187L50.6794 88.5226L52.7914 89.7053C52.8517 89.7399 52.9025 89.7888 52.9393 89.8478C52.9762 89.9067 52.9979 89.9738 53.0025 90.0432C53.0021 90.1135 52.9821 90.1824 52.9448 90.242C52.9075 90.3017 52.8544 90.3498 52.7914 90.3811L50.6794 91.5849L52.7914 92.7888C52.8534 92.8208 52.9055 92.8692 52.9418 92.9288C52.9782 92.9884 52.9974 93.0569 52.9974 93.1267C52.9974 93.1965 52.9782 93.265 52.9418 93.3246C52.9055 93.3842 52.8534 93.4326 52.7914 93.4646L50.6794 94.6684L52.7914 95.8512C52.8517 95.8858 52.9025 95.9347 52.9393 95.9937C52.9762 96.0526 52.9979 96.1197 53.0025 96.1891C53.0021 96.2594 52.9821 96.3283 52.9448 96.3879C52.9075 96.4476 52.8544 96.4957 52.7914 96.527L50.6794 97.7308L52.7914 98.9347C52.8489 98.9673 52.898 99.0129 52.9347 99.0679C52.9714 99.1229 52.9946 99.1858 53.0025 99.2515C53.001 99.3168 52.9851 99.3809 52.9559 99.4393C52.9267 99.4977 52.8849 99.549 52.8336 99.5894L51.9465 100.244L56.4029 104.679ZM71.1868 105.461H56.1495C56.0608 105.493 55.9636 105.493 55.8749 105.461L50.9962 100.582C50.956 100.545 50.9253 100.499 50.9069 100.447C50.8885 100.396 50.8829 100.34 50.8906 100.286C50.8897 100.229 50.9027 100.172 50.9285 100.12C50.9542 100.069 50.9919 100.024 51.0384 99.9907L51.7988 99.4204L49.6868 98.1743C49.6301 98.138 49.5834 98.0881 49.5511 98.029C49.5188 97.97 49.5019 97.9037 49.5019 97.8364C49.5019 97.7691 49.5188 97.7029 49.5511 97.6438C49.5834 97.5848 49.6301 97.5348 49.6868 97.4985L51.7988 96.2947L49.6868 95.112C49.6291 95.0763 49.5814 95.0266 49.5482 94.9675C49.515 94.9084 49.4973 94.8418 49.4967 94.774C49.4927 94.7054 49.5085 94.6371 49.5422 94.5772C49.5759 94.5173 49.6261 94.4684 49.6868 94.4361L51.7988 93.2323L49.6868 92.0285C49.6301 91.9921 49.5834 91.9422 49.5511 91.8831C49.5188 91.8241 49.5019 91.7579 49.5019 91.6905C49.5019 91.6232 49.5188 91.557 49.5511 91.498C49.5834 91.4389 49.6301 91.3889 49.6868 91.3526L51.7988 90.1488L49.6868 88.9661C49.6291 88.9304 49.5814 88.8807 49.5482 88.8216C49.515 88.7625 49.4973 88.696 49.4967 88.6282C49.4927 88.5596 49.5085 88.4912 49.5422 88.4313C49.5759 88.3714 49.6261 88.3225 49.6868 88.2902L51.7988 87.0864L49.9613 86.0304C49.8779 85.9744 49.8172 85.8904 49.7901 85.7937C49.763 85.6969 49.7713 85.5936 49.8135 85.5024C49.8629 85.4117 49.9452 85.3436 50.0436 85.3121C50.1419 85.2806 50.2486 85.2883 50.3415 85.3334L50.5738 85.4602L54.9034 82.9258H55.0935H72.3484H72.5596L75.7909 84.8266C75.8567 84.8692 75.9094 84.9294 75.943 85.0002C75.9765 85.0711 75.9897 85.1499 75.981 85.2279C75.966 85.3006 75.93 85.3674 75.8775 85.42C75.8249 85.4725 75.7581 85.5085 75.6854 85.5235L77.7973 86.7274C77.8594 86.7594 77.9114 86.8078 77.9478 86.8674C77.9841 86.927 78.0033 86.9955 78.0033 87.0653C78.0033 87.1351 77.9841 87.2036 77.9478 87.2632C77.9114 87.3228 77.8594 87.3712 77.7973 87.4032L75.6854 88.607L77.7973 89.7897C77.8576 89.8243 77.9084 89.8733 77.9453 89.9322C77.9821 89.9912 78.0039 90.0583 78.0086 90.1277C78.0081 90.198 77.988 90.2668 77.9507 90.3265C77.9135 90.3862 77.8604 90.4343 77.7973 90.4656L75.6854 91.6694L77.7973 92.8733C77.8594 92.9052 77.9114 92.9537 77.9478 93.0133C77.9841 93.0729 78.0033 93.1414 78.0033 93.2112C78.0033 93.281 77.9841 93.3494 77.9478 93.409C77.9114 93.4687 77.8594 93.5171 77.7973 93.5491L75.6854 94.7529L77.7973 95.9356C77.8576 95.9702 77.9084 96.0192 77.9453 96.0781C77.9821 96.1371 78.0039 96.2042 78.0086 96.2736C78.0081 96.3439 77.988 96.4127 77.9507 96.4724C77.9135 96.5321 77.8604 96.5802 77.7973 96.6115L75.6854 97.8153L77.7973 99.0191C77.8604 99.0504 77.9135 99.0986 77.9507 99.1582C77.988 99.2179 78.0081 99.2867 78.0086 99.3571C78.0058 99.4269 77.9849 99.4948 77.9478 99.5541C77.9108 99.6134 77.8589 99.6619 77.7973 99.695L75.6854 100.899C75.6851 100.994 75.6471 101.085 75.5797 101.152L71.5669 105.376C71.4783 105.409 71.3811 105.409 71.2924 105.376" fill="#A2A2A2"/>
<path d="M88.5269 170.149H33.3828C33.2932 170.149 33.2072 170.114 33.1439 170.05C33.0805 169.987 33.0449 169.901 33.0449 169.811C33.0503 169.726 33.0883 169.645 33.1511 169.586C33.2139 169.527 33.2968 169.494 33.3828 169.495H88.5269C88.6109 169.495 88.6915 169.528 88.7509 169.587C88.8103 169.647 88.8436 169.727 88.8436 169.811C88.8465 169.855 88.8405 169.898 88.8259 169.939C88.8113 169.98 88.7884 170.018 88.7587 170.049C88.729 170.081 88.6931 170.106 88.6532 170.123C88.6133 170.141 88.5703 170.149 88.5269 170.149ZM92.434 170.149H91.1246C91.0387 170.144 90.9581 170.106 90.8992 170.043C90.8404 169.98 90.8077 169.898 90.8078 169.811C90.8078 169.727 90.8412 169.647 90.9006 169.587C90.96 169.528 91.0406 169.495 91.1246 169.495H92.434C92.5201 169.494 92.603 169.527 92.6658 169.586C92.7286 169.645 92.7666 169.726 92.772 169.811C92.772 169.901 92.7363 169.987 92.673 170.05C92.6096 170.114 92.5237 170.149 92.434 170.149ZM150.197 170.149H95.0318C94.9459 170.144 94.8652 170.106 94.8064 170.043C94.7475 169.98 94.7148 169.898 94.715 169.811C94.715 169.727 94.7484 169.647 94.8078 169.587C94.8672 169.528 94.9478 169.495 95.0318 169.495H150.197C150.281 169.495 150.362 169.528 150.421 169.587C150.48 169.647 150.514 169.727 150.514 169.811C150.514 169.898 150.481 169.98 150.422 170.043C150.363 170.106 150.283 170.144 150.197 170.149ZM154.104 170.149H152.795C152.709 170.144 152.628 170.106 152.569 170.043C152.51 169.98 152.478 169.898 152.478 169.811C152.478 169.727 152.511 169.647 152.571 169.587C152.63 169.528 152.711 169.495 152.795 169.495H154.104C154.188 169.495 154.269 169.528 154.328 169.587C154.388 169.647 154.421 169.727 154.421 169.811C154.421 169.898 154.388 169.98 154.33 170.043C154.271 170.106 154.19 170.144 154.104 170.149ZM210.325 170.149H156.702C156.616 170.144 156.535 170.106 156.476 170.043C156.418 169.98 156.385 169.898 156.385 169.811C156.385 169.727 156.418 169.647 156.478 169.587C156.537 169.528 156.618 169.495 156.702 169.495H210.325C210.409 169.495 210.49 169.528 210.549 169.587C210.609 169.647 210.642 169.727 210.642 169.811C210.642 169.898 210.61 169.98 210.551 170.043C210.492 170.106 210.411 170.144 210.325 170.149Z" fill="#A2A2A2"/>
<path d="M137.821 92.0905C141.811 92.0946 145.713 90.9153 149.033 88.7016C152.352 86.4878 154.941 83.3393 156.47 79.6541C158 75.969 158.403 71.9129 157.627 67.9991C156.851 64.0852 154.932 60.4893 152.112 57.6665C149.292 54.8436 145.698 52.9205 141.785 52.1406C137.872 51.3606 133.815 51.7588 130.129 53.2848C126.442 54.8107 123.291 57.3959 121.073 60.7132C118.856 64.0305 117.673 67.9309 117.673 71.921C117.673 77.2666 119.795 82.3936 123.573 86.1755C127.351 89.9574 132.476 92.0849 137.821 92.0905Z" fill="#D3D3D3"/>
<path d="M137.822 52.3021C133.936 52.3021 130.138 53.4546 126.907 55.6138C123.677 57.7729 121.159 60.8418 119.673 64.432C118.187 68.0223 117.8 71.9726 118.559 75.7832C119.319 79.5939 121.192 83.0936 123.941 85.8397C126.69 88.5858 130.191 90.4548 134.003 91.2103C137.814 91.9658 141.764 91.5738 145.353 90.0839C148.942 88.5941 152.008 86.0733 154.163 82.8405C156.319 79.6077 157.468 75.8081 157.463 71.9225C157.458 66.7169 155.386 61.7264 151.703 58.0475C148.02 54.3686 143.027 52.3021 137.822 52.3021ZM137.822 92.5989C133.732 92.5989 129.735 91.3862 126.335 89.1143C122.934 86.8423 120.284 83.6131 118.719 79.835C117.154 76.0569 116.745 71.8995 117.543 67.8887C118.341 63.8779 120.31 60.1937 123.201 57.3021C126.093 54.4104 129.777 52.4412 133.788 51.6434C137.799 50.8456 141.956 51.2551 145.734 52.82C149.513 54.385 152.742 57.0351 155.014 60.4353C157.286 63.8355 158.498 67.8331 158.498 71.9225C158.493 77.4045 156.312 82.6604 152.436 86.5367C148.56 90.4131 143.304 92.5933 137.822 92.5989Z" fill="#A2A2A2"/>
<path d="M137.82 51.7736C134.581 51.7752 131.391 52.5549 128.516 54.0471C125.642 55.5394 123.169 57.7004 121.304 60.3483H111.462C111.462 59.2923 110.976 54.667 109.773 54.667C109.366 54.6438 108.96 54.7224 108.591 54.8957C108.222 55.069 107.902 55.3316 107.661 55.6597H103.331V46.5781C103.351 45.8913 103.598 45.2306 104.034 44.6993C104.47 44.1681 105.069 43.7964 105.739 43.6424C126.763 38.0671 148.877 38.0671 169.901 43.6424C170.572 43.793 171.174 44.1638 171.61 44.6958C172.046 45.2277 172.292 45.8903 172.309 46.5781V55.7441H167.937C167.695 55.4161 167.375 55.1535 167.007 54.9802C166.638 54.8069 166.232 54.7283 165.825 54.7515C164.6 54.7515 164.135 59.3768 164.135 60.4327H154.272C152.408 57.7849 149.934 55.6238 147.06 54.1316C144.186 52.6394 140.995 51.8596 137.756 51.8581" fill="#434343"/>
<path d="M154.653 59.9044H163.714C163.714 58.4049 164.2 54.2443 165.826 54.2443C166.262 54.2322 166.695 54.3146 167.096 54.486C167.497 54.6573 167.856 54.9135 168.149 55.2369H171.718V46.5777C171.694 45.9933 171.472 45.4344 171.088 44.993C170.704 44.5516 170.182 44.2539 169.606 44.149C148.664 38.6019 126.639 38.6019 105.697 44.149C105.14 44.2714 104.639 44.5772 104.275 45.0174C103.912 45.4576 103.706 46.0069 103.691 46.5777V55.2369H107.26C107.559 54.9162 107.923 54.6621 108.327 54.4911C108.731 54.3201 109.166 54.236 109.605 54.2443C111.273 54.2443 111.717 58.4682 111.717 59.9044H120.756C122.671 57.2274 125.198 55.0458 128.125 53.5408C131.053 52.0357 134.297 51.2506 137.588 51.2506C140.88 51.2506 144.124 52.0357 147.052 53.5408C149.979 55.0458 152.506 57.2274 154.421 59.9044H154.653ZM163.967 60.9393H154.104C153.983 60.941 153.866 60.8993 153.773 60.8218C153.68 60.7444 153.617 60.6362 153.597 60.5169C151.776 57.9665 149.373 55.8877 146.586 54.4535C143.8 53.0193 140.712 52.2711 137.578 52.2711C134.444 52.2711 131.356 53.0193 128.569 54.4535C125.783 55.8877 123.379 57.9665 121.558 60.5169C121.519 60.6162 121.453 60.7025 121.367 60.766C121.281 60.8295 121.179 60.8675 121.073 60.8759H111.231C111.094 60.876 110.963 60.8233 110.865 60.7288C110.766 60.6343 110.708 60.5054 110.703 60.369C110.703 58.7006 110.09 55.4059 109.52 55.2158C109.207 55.1987 108.895 55.2592 108.612 55.3919C108.328 55.5245 108.081 55.7252 107.894 55.9761C107.846 56.0499 107.781 56.1101 107.703 56.1508C107.625 56.1916 107.538 56.2114 107.45 56.2084H103.121C102.981 56.2084 102.846 56.1528 102.747 56.0538C102.648 55.9547 102.593 55.8204 102.593 55.6804V46.5777C102.602 45.7738 102.882 44.9965 103.388 44.3717C103.894 43.7469 104.596 43.3112 105.381 43.1352C126.491 37.5598 148.686 37.5598 169.796 43.1352C170.583 43.3105 171.288 43.7453 171.797 44.3698C172.307 44.9942 172.591 45.7719 172.605 46.5777V55.7438C172.605 55.8838 172.55 56.0181 172.451 56.1171C172.352 56.2161 172.217 56.2718 172.077 56.2718H167.938C167.848 56.2705 167.761 56.2466 167.683 56.2022C167.606 56.1579 167.541 56.0946 167.494 56.0183C167.302 55.774 167.054 55.5794 166.771 55.4508C166.488 55.3221 166.178 55.2633 165.868 55.2791C165.298 55.4692 164.706 58.7639 164.706 60.4324C164.701 60.5687 164.643 60.6977 164.544 60.7922C164.446 60.8867 164.315 60.9394 164.178 60.9393" fill="#A2A2A2"/>
<path d="M120.082 81.4675H113.957V63.5156H119.49C118.285 66.1684 117.666 69.0498 117.674 71.9636C117.664 75.2971 118.492 78.5797 120.082 81.5098" fill="#434343"/>
<path d="M114.334 81.0669H119.361C118.029 78.4198 117.291 75.5144 117.196 72.5528C117.101 69.5912 117.652 66.6445 118.812 63.9176H114.25L114.334 81.0669ZM120.079 81.8484H113.954C113.848 81.8484 113.746 81.8061 113.67 81.7308C113.595 81.6556 113.553 81.5535 113.553 81.4471V63.5163C113.551 63.4638 113.562 63.4117 113.584 63.3641C113.606 63.3164 113.639 63.2745 113.68 63.2417C113.722 63.2211 113.769 63.2104 113.817 63.2104C113.864 63.2104 113.911 63.2211 113.954 63.2417H119.488C119.553 63.2433 119.617 63.2592 119.675 63.2884C119.734 63.3176 119.785 63.3594 119.826 63.4107C119.857 63.4691 119.873 63.5344 119.873 63.6008C119.873 63.6671 119.857 63.7324 119.826 63.7909C118.637 66.3737 118.024 69.1843 118.03 72.0276C118.019 75.2984 118.84 78.5183 120.417 81.3837C120.452 81.4408 120.471 81.5066 120.471 81.5738C120.471 81.641 120.452 81.7069 120.417 81.7639C120.385 81.8246 120.336 81.8748 120.276 81.9085C120.216 81.9422 120.148 81.958 120.079 81.954" fill="#A2A2A2"/>
<path d="M113.954 85.9236C113.902 85.9265 113.851 85.9188 113.802 85.901C113.753 85.8831 113.709 85.8556 113.671 85.82C113.634 85.7844 113.604 85.7415 113.584 85.694C113.563 85.6464 113.553 85.5952 113.553 85.5434V81.4462C113.553 81.3944 113.563 81.3432 113.584 81.2956C113.604 81.2481 113.634 81.2052 113.671 81.1696C113.709 81.134 113.753 81.1065 113.802 81.0887C113.851 81.0708 113.902 81.0631 113.954 81.066C114.004 81.066 114.053 81.0759 114.099 81.095C114.146 81.1141 114.188 81.1421 114.223 81.1774C114.258 81.2127 114.286 81.2546 114.305 81.3007C114.324 81.3468 114.334 81.3963 114.334 81.4462V85.5434C114.334 85.6443 114.294 85.741 114.223 85.8122C114.152 85.8835 114.055 85.9236 113.954 85.9236Z" fill="#A2A2A2"/>
<path d="M137.821 247.597C141.812 247.593 145.715 248.773 149.035 250.988C152.355 253.202 154.943 256.352 156.472 260.038C158.002 263.725 158.403 267.782 157.625 271.696C156.848 275.611 154.926 279.207 152.104 282.029C149.282 284.851 145.686 286.772 141.772 287.55C137.858 288.327 133.8 287.926 130.114 286.397C126.428 284.868 123.278 282.279 121.063 278.959C118.849 275.639 117.669 271.736 117.673 267.746C117.673 265.1 118.194 262.48 119.207 260.035C120.219 257.591 121.703 255.369 123.574 253.499C125.445 251.628 127.666 250.143 130.111 249.131C132.555 248.118 135.175 247.597 137.821 247.597Z" fill="#D3D3D3"/>
<path d="M137.822 248.082C133.936 248.082 130.138 249.234 126.907 251.394C123.677 253.553 121.159 256.622 119.673 260.212C118.187 263.802 117.8 267.752 118.559 271.563C119.319 275.374 121.192 278.873 123.941 281.62C126.69 284.366 130.191 286.235 134.003 286.99C137.814 287.746 141.764 287.354 145.353 285.864C148.942 284.374 152.008 281.853 154.163 278.62C156.319 275.387 157.468 271.588 157.463 267.702C157.458 262.497 155.386 257.506 151.703 253.827C148.02 250.148 143.027 248.082 137.822 248.082ZM137.822 288.379C133.732 288.379 129.735 287.166 126.335 284.894C122.934 282.622 120.284 279.393 118.719 275.615C117.154 271.837 116.745 267.679 117.543 263.669C118.341 259.658 120.31 255.974 123.201 253.082C126.093 250.19 129.777 248.221 133.788 247.423C137.799 246.625 141.956 247.035 145.734 248.6C149.513 250.165 152.742 252.815 155.014 256.215C157.286 259.615 158.498 263.613 158.498 267.702C158.493 273.184 156.312 278.44 152.436 282.317C148.56 286.193 143.304 288.373 137.822 288.379Z" fill="#A2A2A2"/>
<path d="M137.82 287.851C134.583 287.854 131.393 287.078 128.518 285.59C125.644 284.101 123.17 281.943 121.304 279.298H111.462C111.462 280.354 110.976 284.958 109.773 284.958C109.366 284.981 108.96 284.903 108.591 284.729C108.222 284.556 107.902 284.293 107.661 283.965H103.331V293.131C103.35 293.821 103.596 294.485 104.032 295.019C104.467 295.554 105.067 295.93 105.739 296.088C126.766 301.635 148.873 301.635 169.901 296.088C170.574 295.933 171.176 295.558 171.612 295.023C172.048 294.487 172.293 293.822 172.309 293.131V283.965H167.937C167.695 284.293 167.375 284.556 167.007 284.729C166.638 284.903 166.232 284.981 165.825 284.958C164.6 284.958 164.135 280.354 164.135 279.298H154.272C152.407 281.943 149.932 284.101 147.058 285.59C144.184 287.078 140.993 287.854 137.756 287.851" fill="#434343"/>
<path d="M103.858 284.41V293.048C103.876 293.62 104.082 294.171 104.445 294.614C104.808 295.057 105.307 295.368 105.864 295.498C126.81 301.017 148.828 301.017 169.773 295.498C170.331 295.368 170.83 295.057 171.193 294.614C171.556 294.171 171.762 293.62 171.78 293.048V284.41H168.21C167.918 284.733 167.559 284.989 167.158 285.161C166.757 285.332 166.323 285.414 165.887 285.402C164.198 285.402 163.775 281.178 163.775 279.721H154.736C152.82 282.398 150.294 284.58 147.367 286.085C144.439 287.59 141.195 288.375 137.903 288.375C134.612 288.375 131.367 287.59 128.44 286.085C125.512 284.58 122.986 282.398 121.071 279.721H112.031C112.031 281.221 111.525 285.402 109.919 285.402C109.484 285.409 109.053 285.324 108.652 285.153C108.252 284.982 107.892 284.729 107.596 284.41H103.858ZM137.819 300.693C126.953 300.574 116.14 299.156 105.611 296.469C104.827 296.286 104.126 295.845 103.621 295.217C103.116 294.59 102.835 293.811 102.823 293.006V283.84C102.829 283.703 102.887 283.574 102.985 283.48C103.084 283.385 103.215 283.333 103.351 283.333H107.681C107.769 283.33 107.856 283.35 107.933 283.39C108.011 283.431 108.077 283.491 108.124 283.565C108.315 283.812 108.563 284.01 108.845 284.142C109.128 284.274 109.439 284.337 109.751 284.325C110.321 284.135 110.933 280.841 110.933 279.172C110.933 279.036 110.986 278.904 111.08 278.806C111.175 278.708 111.304 278.65 111.44 278.644H121.303C121.423 278.646 121.539 278.69 121.631 278.766C121.723 278.843 121.786 278.949 121.81 279.066C123.628 281.625 126.031 283.712 128.82 285.151C131.609 286.591 134.702 287.342 137.84 287.342C140.978 287.342 144.071 286.591 146.86 285.151C149.649 283.712 152.052 281.625 153.87 279.066C153.906 278.969 153.968 278.883 154.05 278.82C154.133 278.756 154.231 278.717 154.335 278.707H164.198C164.338 278.707 164.472 278.763 164.571 278.862C164.67 278.961 164.726 279.095 164.726 279.235C164.726 280.904 165.317 284.199 165.887 284.389C166.2 284.408 166.513 284.348 166.797 284.215C167.081 284.082 167.327 283.881 167.513 283.628C167.564 283.557 167.63 283.499 167.707 283.459C167.784 283.418 167.87 283.397 167.957 283.396H172.308C172.444 283.396 172.575 283.449 172.674 283.543C172.772 283.638 172.83 283.767 172.836 283.903V293.069C172.819 293.876 172.534 294.655 172.025 295.283C171.517 295.91 170.813 296.35 170.027 296.533C159.498 299.222 148.685 300.64 137.819 300.757" fill="#A2A2A2"/>
<path d="M160.674 60.4336V41.6791L156.007 40.8555V60.4336H160.674Z" fill="#D3D3D3"/>
<path d="M156.381 60.0309H160.267V41.9945L156.381 41.3186V60.0309ZM160.605 60.8123H155.916C155.867 60.8123 155.817 60.8024 155.771 60.7833C155.725 60.7642 155.683 60.7362 155.648 60.7009C155.612 60.6656 155.584 60.6237 155.565 60.5776C155.546 60.5315 155.536 60.482 155.536 60.4321V40.854C155.535 40.7984 155.545 40.7432 155.567 40.6921C155.589 40.641 155.622 40.5953 155.663 40.5583C155.716 40.5337 155.774 40.521 155.832 40.521C155.89 40.521 155.948 40.5337 156.001 40.5583L160.668 41.382C160.76 41.3926 160.844 41.438 160.903 41.5088C160.962 41.5795 160.991 41.6702 160.985 41.7621V60.5166C160.985 60.5665 160.975 60.616 160.956 60.6621C160.937 60.7082 160.909 60.7501 160.874 60.7854C160.839 60.8207 160.797 60.8487 160.751 60.8678C160.704 60.8869 160.655 60.8968 160.605 60.8968" fill="#A2A2A2"/>
<path d="M158.324 48.436C158.238 48.4362 158.155 48.4035 158.092 48.3446C158.03 48.2857 157.992 48.2051 157.986 48.1192V38.7631C157.992 38.6772 158.03 38.5966 158.092 38.5377C158.155 38.4788 158.238 38.4461 158.324 38.4463C158.408 38.4463 158.489 38.4797 158.548 38.5391C158.608 38.5985 158.641 38.6791 158.641 38.7631V48.1192C158.641 48.1608 158.633 48.202 158.617 48.2404C158.601 48.2789 158.578 48.3138 158.548 48.3432C158.519 48.3726 158.484 48.396 158.445 48.4119C158.407 48.4278 158.366 48.436 158.324 48.436ZM158.324 52.3432C158.238 52.3434 158.155 52.3107 158.092 52.2518C158.03 52.1929 157.992 52.1123 157.986 52.0264V50.7169C157.986 50.6273 158.022 50.5414 158.085 50.478C158.149 50.4146 158.235 50.379 158.324 50.379C158.41 50.3844 158.491 50.4224 158.55 50.4852C158.609 50.548 158.641 50.6309 158.641 50.7169V52.0264C158.641 52.1104 158.608 52.191 158.548 52.2504C158.489 52.3098 158.408 52.3432 158.324 52.3432ZM158.324 62.9031C158.235 62.9031 158.149 62.8675 158.085 62.8041C158.022 62.7408 157.986 62.6548 157.986 62.5652V54.6241C157.986 54.5807 157.995 54.5377 158.012 54.4978C158.03 54.4579 158.055 54.422 158.086 54.3923C158.118 54.3626 158.156 54.3397 158.197 54.3251C158.237 54.3105 158.281 54.3044 158.324 54.3073C158.408 54.3073 158.489 54.3407 158.548 54.4001C158.608 54.4595 158.641 54.5401 158.641 54.6241V62.6286C158.641 62.7146 158.609 62.7976 158.55 62.8604C158.491 62.9231 158.41 62.9611 158.324 62.9665" fill="#A2A2A2"/>
<path d="M120.077 258.156H113.952V276.087H119.486C118.28 273.434 117.661 270.553 117.669 267.639C117.662 264.312 118.49 261.037 120.077 258.114" fill="#434343"/>
<path d="M114.335 275.728H118.897C117.737 272.997 117.185 270.047 117.28 267.082C117.375 264.117 118.114 261.208 119.446 258.557H114.335V275.728ZM119.488 276.509H113.955C113.901 276.512 113.848 276.504 113.798 276.485C113.747 276.466 113.702 276.436 113.664 276.399C113.626 276.361 113.597 276.315 113.578 276.265C113.559 276.215 113.55 276.162 113.553 276.108V258.156C113.553 258.104 113.564 258.053 113.584 258.006C113.605 257.958 113.635 257.915 113.672 257.88C113.71 257.844 113.754 257.816 113.803 257.799C113.851 257.781 113.903 257.773 113.955 257.776H120.079C120.147 257.777 120.214 257.794 120.273 257.827C120.332 257.861 120.382 257.908 120.417 257.966C120.453 258.027 120.471 258.096 120.471 258.167C120.471 258.237 120.453 258.306 120.417 258.367C118.843 261.226 118.022 264.439 118.031 267.702C118.027 270.552 118.639 273.369 119.826 275.96C119.857 276.015 119.874 276.077 119.874 276.14C119.874 276.203 119.857 276.265 119.826 276.319C119.792 276.378 119.743 276.427 119.683 276.461C119.624 276.494 119.556 276.511 119.488 276.509Z" fill="#A2A2A2"/>
<path d="M113.952 258.58C113.898 258.583 113.845 258.574 113.795 258.555C113.745 258.536 113.699 258.507 113.661 258.469C113.623 258.431 113.594 258.385 113.575 258.335C113.556 258.285 113.548 258.232 113.551 258.178V254.102C113.537 254.043 113.537 253.982 113.55 253.923C113.563 253.864 113.589 253.809 113.627 253.761C113.664 253.714 113.712 253.676 113.767 253.649C113.821 253.623 113.881 253.609 113.941 253.609C114.002 253.609 114.061 253.623 114.116 253.649C114.17 253.676 114.218 253.714 114.256 253.761C114.293 253.809 114.32 253.864 114.333 253.923C114.346 253.982 114.346 254.043 114.332 254.102V258.157C114.335 258.209 114.327 258.261 114.309 258.309C114.292 258.358 114.264 258.402 114.228 258.44C114.193 258.477 114.15 258.507 114.102 258.528C114.055 258.548 114.004 258.558 113.952 258.558" fill="#A2A2A2"/>
<path d="M206.33 238.854C206.19 238.854 206.055 238.798 205.956 238.699C205.857 238.6 205.802 238.466 205.802 238.326V99.7581C205.786 99.6814 205.788 99.6022 205.806 99.5262C205.825 99.4503 205.861 99.3794 205.91 99.3189C205.96 99.2583 206.022 99.2094 206.093 99.1759C206.163 99.1424 206.241 99.125 206.319 99.125C206.397 99.125 206.475 99.1424 206.545 99.1759C206.616 99.2094 206.678 99.2583 206.728 99.3189C206.777 99.3794 206.813 99.4503 206.832 99.5262C206.85 99.6022 206.852 99.6814 206.836 99.7581V238.283C206.837 238.42 206.784 238.551 206.689 238.65C206.595 238.748 206.466 238.806 206.33 238.811" fill="#A2A2A2"/>
<path d="M105.231 60.2416L107.659 55.7431C107.905 55.4192 108.225 55.1596 108.593 54.9868C108.961 54.8139 109.365 54.7328 109.771 54.7504C111.714 54.7504 111.693 65.606 111.693 65.606L105.188 71.6886V83.7903H103.372V70.8227L110.067 64.4867C110.067 64.4867 110.067 56.5456 109.455 56.5456C108.842 56.5456 106.836 60.9808 106.836 60.9808L105.231 60.2416Z" fill="#A2A2A2"/>
<path d="M170.407 60.2424L167.936 55.7438C167.687 55.4239 167.365 55.1672 166.998 54.9947C166.631 54.8222 166.229 54.7388 165.824 54.7512C163.902 54.7512 163.923 65.6068 163.923 65.6068L170.428 71.6894V83.7911H172.223V70.8234L165.528 64.4875C165.528 64.4875 165.528 56.5464 166.14 56.5464C166.753 56.5464 168.78 60.9816 168.78 60.9816L170.407 60.2424Z" fill="#A2A2A2"/>
<path d="M105.231 279.381L107.659 283.859C107.901 284.188 108.221 284.452 108.589 284.629C108.957 284.806 109.363 284.889 109.771 284.872C111.714 284.872 111.693 274.017 111.693 274.017L105.188 267.934V255.833H103.372V268.716L110.067 275.052C110.067 275.052 110.067 282.993 109.455 282.993C108.842 282.993 106.836 278.558 106.836 278.558L105.231 279.381Z" fill="#A2A2A2"/>
<path d="M170.407 279.277L167.936 283.818C167.687 284.138 167.365 284.395 166.998 284.567C166.631 284.74 166.229 284.823 165.824 284.811C163.902 284.811 163.923 273.955 163.923 273.955L170.428 267.873V255.771H172.223V268.717L165.528 275.053C165.528 275.053 165.528 282.995 166.14 282.995C166.753 282.995 168.78 278.559 168.78 278.559L170.407 279.277Z" fill="#A2A2A2"/>
<path d="M37.7948 238.854C37.6584 238.848 37.5295 238.79 37.435 238.692C37.3405 238.593 37.2878 238.462 37.2879 238.326V99.7581C37.2724 99.6814 37.274 99.6022 37.2928 99.5262C37.3115 99.4503 37.347 99.3794 37.3965 99.3189C37.446 99.2583 37.5084 99.2094 37.5791 99.1759C37.6498 99.1424 37.7271 99.125 37.8053 99.125C37.8836 99.125 37.9609 99.1424 38.0316 99.1759C38.1023 99.2094 38.1646 99.2583 38.2142 99.3189C38.2637 99.3794 38.2991 99.4503 38.3179 99.5262C38.3367 99.6022 38.3383 99.6814 38.3228 99.7581V238.283C38.3228 238.423 38.2671 238.558 38.1681 238.657C38.0691 238.756 37.9348 238.811 37.7948 238.811" fill="#A2A2A2"/>
<path d="M50.5507 86.1988C50.4809 86.196 50.4129 86.1751 50.3537 86.1381C50.2944 86.101 50.2458 86.0491 50.2128 85.9876C50.1868 85.9434 50.17 85.8945 50.1633 85.8437C50.1567 85.793 50.1604 85.7414 50.1742 85.6921C50.188 85.6427 50.2116 85.5967 50.2437 85.5568C50.2757 85.5168 50.3154 85.4838 50.3606 85.4596L54.8591 82.8618H55.0703H72.3253H72.5154L75.7467 84.7626C75.8363 84.813 75.9022 84.897 75.93 84.996C75.9577 85.095 75.945 85.201 75.8946 85.2906C75.8442 85.3802 75.7602 85.4461 75.6612 85.4739C75.5622 85.5016 75.4562 85.4889 75.3666 85.4384L72.2197 83.601H55.1759L50.7408 86.1776C50.6787 86.1958 50.6128 86.1958 50.5507 86.1776" fill="#A2A2A2"/>
<path d="M55.664 88.6698C55.5611 88.6699 55.4622 88.6305 55.3875 88.5598C55.3128 88.489 55.2681 88.3923 55.2627 88.2896V83.1786C55.2626 83.1268 55.2731 83.0756 55.2935 83.0281C55.3139 82.9805 55.3438 82.9376 55.3814 82.902C55.419 82.8664 55.4634 82.8389 55.512 82.8211C55.5606 82.8033 55.6123 82.7956 55.664 82.7984C55.7648 82.7984 55.8615 82.8385 55.9328 82.9098C56.0041 82.9811 56.0441 83.0778 56.0441 83.1786V88.2896C56.0441 88.3904 56.0041 88.4871 55.9328 88.5584C55.8615 88.6297 55.7648 88.6698 55.664 88.6698ZM55.664 94.2665C55.5613 94.2611 55.4645 94.2165 55.3938 94.1418C55.323 94.0671 55.2837 93.9681 55.2838 93.8653V90.9085C55.281 90.8568 55.2886 90.8051 55.3065 90.7565C55.3243 90.7079 55.3518 90.6635 55.3874 90.6259C55.423 90.5883 55.4659 90.5584 55.5135 90.538C55.561 90.5176 55.6122 90.5071 55.664 90.5072C55.7704 90.5072 55.8725 90.5495 55.9478 90.6247C56.023 90.7 56.0653 90.802 56.0653 90.9085V93.8653C56.0601 93.97 56.0162 94.0691 55.942 94.1433C55.8679 94.2175 55.7687 94.2614 55.664 94.2665Z" fill="#A2A2A2"/>
<path d="M71.7343 88.6692C71.6314 88.6693 71.5324 88.6299 71.4577 88.5592C71.383 88.4885 71.3384 88.3917 71.333 88.289V83.178C71.333 83.0772 71.373 82.9805 71.4443 82.9092C71.5156 82.8379 71.6123 82.7979 71.7132 82.7979C71.816 82.7977 71.915 82.8371 71.9897 82.9078C72.0643 82.9786 72.109 83.0753 72.1144 83.178V88.289C72.1144 88.3389 72.1046 88.3884 72.0855 88.4345C72.0664 88.4806 72.0384 88.5225 72.0031 88.5578C71.9678 88.5931 71.9259 88.6211 71.8798 88.6402C71.8336 88.6593 71.7842 88.6692 71.7343 88.6692ZM71.7343 94.2659C71.6316 94.2605 71.5349 94.2159 71.4641 94.1412C71.3934 94.0665 71.3539 93.9675 71.3541 93.8647V90.9079C71.351 90.8544 71.3593 90.8008 71.3784 90.7508C71.3975 90.7007 71.4269 90.6552 71.4648 90.6173C71.5027 90.5794 71.5482 90.55 71.5983 90.5309C71.6484 90.5118 71.7019 90.5035 71.7554 90.5066C71.8071 90.5065 71.8584 90.517 71.9059 90.5374C71.9535 90.5578 71.9963 90.5877 72.0319 90.6253C72.0675 90.6629 72.0951 90.7073 72.1129 90.7559C72.1307 90.8045 72.1385 90.8562 72.1356 90.9079V93.8647C72.1356 93.9711 72.0933 94.0732 72.018 94.1484C71.9428 94.2237 71.8407 94.2659 71.7343 94.2659Z" fill="#A2A2A2"/>
<path d="M63.6889 91.0357C63.6049 91.0357 63.5243 91.0023 63.4649 90.9429C63.4055 90.8835 63.3721 90.8029 63.3721 90.7189V78.765C63.3721 78.681 63.4055 78.6004 63.4649 78.541C63.5243 78.4816 63.6049 78.4482 63.6889 78.4482C63.775 78.4481 63.8579 78.4807 63.9207 78.5396C63.9835 78.5985 64.0214 78.6791 64.0268 78.765V90.7189C64.0214 90.8048 63.9835 90.8854 63.9207 90.9443C63.8579 91.0032 63.775 91.0359 63.6889 91.0357ZM63.6889 94.9429C63.6049 94.9429 63.5243 94.9095 63.4649 94.8501C63.4055 94.7907 63.3721 94.7101 63.3721 94.6261V93.4222C63.3721 93.3382 63.4055 93.2576 63.4649 93.1982C63.5243 93.1388 63.6049 93.1054 63.6889 93.1054C63.775 93.1053 63.8579 93.138 63.9207 93.1968C63.9835 93.2557 64.0214 93.3363 64.0268 93.4222V94.7317C64.0214 94.8176 63.9835 94.8982 63.9207 94.9571C63.8579 95.0159 63.775 95.0486 63.6889 95.0485V94.9429ZM63.6889 108.713C63.603 108.708 63.5223 108.67 63.4635 108.607C63.4046 108.544 63.3719 108.461 63.3721 108.375V97.2238C63.3721 97.1822 63.3803 97.141 63.3962 97.1026C63.4121 97.0642 63.4355 97.0292 63.4649 96.9998C63.4943 96.9704 63.5292 96.9471 63.5677 96.9311C63.6061 96.9152 63.6473 96.907 63.6889 96.907C63.775 96.9069 63.8579 96.9395 63.9207 96.9984C63.9835 97.0573 64.0214 97.1379 64.0268 97.2238V108.206C64.0268 108.296 63.9912 108.382 63.9278 108.445C63.8645 108.508 63.7785 108.544 63.6889 108.544" fill="#A2A2A2"/>
<path d="M59.7398 88.6692C59.639 88.6692 59.5423 88.6291 59.471 88.5578C59.3997 88.4865 59.3597 88.3898 59.3597 88.289V83.178C59.3651 83.0753 59.4098 82.9786 59.4844 82.9078C59.5591 82.8371 59.6581 82.7977 59.7609 82.7979C59.8638 82.7977 59.9628 82.8371 60.0375 82.9078C60.1122 82.9786 60.1568 83.0753 60.1622 83.178V88.289C60.1626 88.3427 60.1515 88.3959 60.1298 88.445C60.1081 88.4941 60.0763 88.538 60.0364 88.5739C59.9965 88.6099 59.9494 88.6369 59.8983 88.6533C59.8472 88.6697 59.7932 88.6751 59.7398 88.6692ZM59.7398 94.2659C59.635 94.2608 59.5359 94.2169 59.4617 94.1427C59.3876 94.0686 59.3436 93.9694 59.3385 93.8647V90.9079C59.3354 90.8544 59.3437 90.8008 59.3628 90.7508C59.3819 90.7007 59.4114 90.6552 59.4492 90.6173C59.4871 90.5794 59.5327 90.55 59.5827 90.5309C59.6328 90.5118 59.6863 90.5035 59.7398 90.5066C59.7915 90.5065 59.8428 90.517 59.8904 90.5374C59.9379 90.5578 59.9808 90.5877 60.0164 90.6253C60.052 90.6629 60.0795 90.7073 60.0973 90.7559C60.1151 90.8045 60.1229 90.8562 60.12 90.9079V93.8647C60.1206 93.9642 60.0841 94.0603 60.0178 94.1345C59.9514 94.2086 59.8599 94.2555 59.7609 94.2659H59.7398Z" fill="#A2A2A2"/>
<path d="M67.6796 88.6698C67.5767 88.6699 67.4778 88.6305 67.4031 88.5598C67.3284 88.489 67.2837 88.3923 67.2783 88.2896V83.1786C67.2782 83.1268 67.2887 83.0756 67.3091 83.0281C67.3295 82.9805 67.3595 82.9376 67.397 82.902C67.4346 82.8664 67.479 82.8389 67.5276 82.8211C67.5762 82.8033 67.6279 82.7956 67.6796 82.7984C67.7804 82.7984 67.8771 82.8385 67.9484 82.9098C68.0197 82.9811 68.0597 83.0778 68.0597 83.1786V88.2896C68.0597 88.3904 68.0197 88.4871 67.9484 88.5584C67.8771 88.6297 67.7804 88.6698 67.6796 88.6698ZM67.6796 94.2665C67.5769 94.2611 67.4802 94.2165 67.4094 94.1418C67.3387 94.0671 67.2993 93.9681 67.2995 93.8653V90.9085C67.2966 90.8568 67.3043 90.8051 67.3221 90.7565C67.3399 90.7079 67.3674 90.6635 67.403 90.6259C67.4386 90.5883 67.4816 90.5584 67.5291 90.538C67.5767 90.5176 67.6279 90.5071 67.6796 90.5072C67.786 90.5072 67.8881 90.5495 67.9633 90.6247C68.0386 90.7 68.0809 90.802 68.0809 90.9085V93.8653C68.0758 93.97 68.0318 94.0691 67.9577 94.1433C67.8835 94.2175 67.7844 94.2614 67.6796 94.2665Z" fill="#A2A2A2"/>
<path d="M68.0165 96.7579C67.9479 96.7619 67.8795 96.7461 67.8196 96.7124C67.7597 96.6787 67.7108 96.6285 67.6785 96.5678C67.6525 96.5237 67.6357 96.4748 67.6291 96.424C67.6225 96.3732 67.6262 96.3216 67.64 96.2723C67.6538 96.223 67.6774 96.177 67.7095 96.137C67.7415 96.0971 67.7813 96.064 67.8264 96.0398L70.3819 94.5614C70.426 94.5354 70.4749 94.5186 70.5257 94.512C70.5765 94.5054 70.6281 94.5091 70.6774 94.5229C70.7267 94.5367 70.7727 94.5603 70.8127 94.5923C70.8526 94.6244 70.8857 94.6641 70.9099 94.7093C70.9588 94.7971 70.9729 94.9002 70.9494 94.9979C70.9259 95.0957 70.8666 95.1811 70.7832 95.2373L68.2065 96.7156C68.1447 96.7351 68.0783 96.7351 68.0165 96.7156V96.7579ZM60.0543 97.1169C59.9927 97.1378 59.9258 97.1378 59.8642 97.1169L56.6751 95.2795C56.63 95.2553 56.5902 95.2222 56.5582 95.1823C56.5261 95.1423 56.5025 95.0963 56.4887 95.047C56.4749 94.9977 56.4712 94.9461 56.4778 94.8953C56.4844 94.8445 56.5012 94.7956 56.5272 94.7515C56.5514 94.7064 56.5845 94.6666 56.6245 94.6346C56.6645 94.6025 56.7104 94.5789 56.7597 94.5651C56.809 94.5513 56.8607 94.5476 56.9114 94.5542C56.9622 94.5608 57.0111 94.5777 57.0552 94.6036L60.2444 96.4411C60.3329 96.4978 60.3972 96.5855 60.4245 96.687C60.4518 96.7886 60.4403 96.8967 60.3921 96.9902C60.3565 97.0479 60.3068 97.0955 60.2477 97.1288C60.1886 97.162 60.1221 97.1797 60.0543 97.1803V97.1169ZM63.6869 99.2923C63.625 99.3117 63.5586 99.3117 63.4968 99.2923L62.3352 98.4897C62.2894 98.4635 62.2491 98.4284 62.2169 98.3865C62.1846 98.3447 62.1609 98.2969 62.1472 98.2459C62.1335 98.1948 62.13 98.1416 62.1369 98.0892C62.1438 98.0368 62.1609 97.9863 62.1874 97.9406C62.2435 97.8572 62.3289 97.7978 62.4267 97.7744C62.5244 97.7509 62.6275 97.765 62.7153 97.8139L63.7713 98.4264L65.5032 97.4126C65.5489 97.3861 65.5994 97.369 65.6518 97.3621C65.7042 97.3552 65.7574 97.3587 65.8084 97.3725C65.8595 97.3862 65.9073 97.4099 65.9491 97.4421C65.991 97.4744 66.0261 97.5146 66.0523 97.5604C66.0783 97.6046 66.0951 97.6535 66.1018 97.7042C66.1084 97.755 66.1047 97.8066 66.0909 97.8559C66.0771 97.9052 66.0534 97.9513 66.0214 97.9912C65.9894 98.0312 65.9496 98.0642 65.9045 98.0884L63.9614 99.2078C63.9001 99.2304 63.8327 99.2304 63.7713 99.2078" fill="#A2A2A2"/>
<path d="M71.2045 105.46C71.1166 105.496 71.0179 105.496 70.93 105.46C70.8602 105.385 70.8213 105.287 70.8213 105.185C70.8213 105.083 70.8602 104.985 70.93 104.91L75.0061 100.771C75.0789 100.698 75.1777 100.657 75.2806 100.657C75.3836 100.657 75.4824 100.698 75.5552 100.771C75.628 100.844 75.6689 100.943 75.6689 101.046C75.6689 101.148 75.628 101.247 75.5552 101.32L71.5213 105.354C71.4785 105.375 71.4316 105.385 71.384 105.385C71.3365 105.385 71.2896 105.375 71.2467 105.354" fill="#A2A2A2"/>
<path d="M56.1911 105.459C56.1483 105.48 56.1013 105.491 56.0538 105.491C56.0063 105.491 55.9594 105.48 55.9165 105.459L51.0378 100.581C50.9978 100.547 50.9657 100.505 50.9437 100.457C50.9216 100.41 50.9102 100.358 50.9102 100.306C50.9102 100.254 50.9216 100.202 50.9437 100.155C50.9657 100.107 50.9978 100.065 51.0378 100.031C51.1122 99.9617 51.2104 99.9229 51.3124 99.9229C51.4144 99.9229 51.5126 99.9617 51.587 100.031L56.4657 104.91C56.5355 104.985 56.5743 105.083 56.5743 105.185C56.5743 105.287 56.5355 105.385 56.4657 105.459C56.3773 105.493 56.2794 105.493 56.1911 105.459Z" fill="#A2A2A2"/>
<path d="M76.105 100.517H51.1624C51.0615 100.517 50.9649 100.477 50.8936 100.405C50.8223 100.334 50.7822 100.237 50.7822 100.137C50.7821 100.034 50.8214 99.9348 50.8922 99.8601C50.9629 99.7854 51.0596 99.7408 51.1624 99.7354H76.105C76.2077 99.7408 76.3044 99.7854 76.3751 99.8601C76.4459 99.9348 76.4853 100.034 76.4852 100.137C76.4852 100.237 76.4451 100.334 76.3738 100.405C76.3025 100.477 76.2058 100.517 76.105 100.517Z" fill="#A2A2A2"/>
<path d="M66.1585 102.145C66.0897 102.166 66.0161 102.166 65.9473 102.145L63.7086 100.709L63.4552 100.857C63.4197 100.894 63.377 100.923 63.3299 100.943C63.2827 100.963 63.2319 100.974 63.1806 100.974C63.1293 100.974 63.0785 100.963 63.0313 100.943C62.9841 100.923 62.9415 100.894 62.906 100.857C62.8507 100.767 62.8331 100.659 62.8568 100.556C62.8805 100.453 62.9437 100.364 63.0327 100.307L63.4974 100.012C63.5599 99.9701 63.6334 99.9478 63.7086 99.9478C63.7838 99.9478 63.8573 99.9701 63.9198 100.012L66.3697 101.596C66.4395 101.67 66.4783 101.768 66.4783 101.87C66.4783 101.972 66.4395 102.071 66.3697 102.145C66.3349 102.197 66.2878 102.24 66.2325 102.269C66.1772 102.299 66.1156 102.314 66.0529 102.314L66.1585 102.145ZM58.0273 104.426C57.962 104.424 57.8979 104.408 57.8395 104.379C57.7811 104.35 57.7298 104.308 57.6894 104.257C57.6341 104.167 57.6164 104.059 57.6402 103.956C57.6639 103.854 57.7271 103.764 57.8161 103.708L60.7307 101.828C60.8015 101.76 60.8962 101.722 60.9947 101.722C61.0932 101.722 61.1878 101.76 61.2587 101.828C61.316 101.915 61.337 102.022 61.3173 102.124C61.2975 102.227 61.2387 102.317 61.1531 102.377L58.2385 104.257C58.1694 104.276 58.0965 104.276 58.0273 104.257V104.426ZM71.1428 105.545C71.0737 105.564 71.0008 105.564 70.9316 105.545L68.0171 103.666C67.9638 103.641 67.9163 103.606 67.8782 103.562C67.84 103.517 67.812 103.465 67.7961 103.409C67.7801 103.353 67.7767 103.294 67.786 103.236C67.7953 103.178 67.8171 103.123 67.8499 103.075C67.8827 103.026 67.9257 102.986 67.9759 102.956C68.0261 102.926 68.0822 102.907 68.1404 102.901C68.1985 102.895 68.2573 102.901 68.3126 102.92C68.368 102.939 68.4184 102.97 68.4606 103.011L71.3751 104.891C71.4607 104.95 71.5196 105.041 71.5393 105.144C71.5591 105.246 71.538 105.352 71.4807 105.44C71.4426 105.493 71.3918 105.537 71.3329 105.566C71.274 105.596 71.2087 105.61 71.1428 105.609" fill="#A2A2A2"/>
<path d="M63.6872 95.533C62.3571 95.5219 61.0586 95.1258 59.9489 94.3925C59.6898 94.7366 59.3551 95.0165 58.9706 95.2106C58.586 95.4047 58.1621 95.5078 57.7313 95.5118C57.2272 95.5125 56.7332 95.3699 56.307 95.1007C55.8807 94.8315 55.5397 94.4467 55.3236 93.9912C55.2785 93.8984 55.2708 93.7917 55.3023 93.6934C55.3338 93.595 55.4019 93.5126 55.4926 93.4632C55.5886 93.4248 55.6954 93.4229 55.7927 93.4579C55.89 93.4929 55.9712 93.5625 56.0206 93.6533C56.1766 93.9732 56.4201 94.2423 56.7229 94.4292C57.0257 94.6162 57.3755 94.7133 57.7313 94.7093C58.0928 94.7138 58.4484 94.6173 58.7581 94.4308C59.0677 94.2442 59.3192 93.975 59.4843 93.6533C59.5113 93.5998 59.5501 93.5531 59.5976 93.5166C59.6451 93.48 59.7002 93.4546 59.7588 93.4421C59.8081 93.4179 59.8623 93.4053 59.9173 93.4053C59.9722 93.4053 60.0263 93.4179 60.0756 93.4421C61.1166 94.2351 62.389 94.6646 63.6977 94.6646C65.0063 94.6646 66.2788 94.2351 67.3197 93.4421C67.369 93.4179 67.4232 93.4053 67.4781 93.4053C67.5331 93.4053 67.5873 93.4179 67.6366 93.4421C67.6952 93.4546 67.7503 93.48 67.7978 93.5166C67.8453 93.5531 67.8841 93.5998 67.9111 93.6533C68.0762 93.975 68.3276 94.2442 68.6373 94.4308C68.9469 94.6173 69.3026 94.7138 69.6641 94.7093C70.0194 94.7108 70.368 94.6126 70.6704 94.426C70.9728 94.2393 71.2168 93.9716 71.3748 93.6533C71.3953 93.6073 71.4248 93.5658 71.4615 93.5313C71.4981 93.4968 71.5413 93.4699 71.5884 93.4523C71.6356 93.4346 71.6858 93.4264 71.7362 93.4283C71.7865 93.4302 71.8359 93.4421 71.8816 93.4632C71.976 93.5089 72.0488 93.5898 72.0843 93.6885C72.1199 93.7872 72.1153 93.8958 72.0717 93.9912C71.8536 94.4451 71.5121 94.8285 71.0863 95.0974C70.6605 95.3663 70.1677 95.51 69.6641 95.5118C69.2333 95.5078 68.8094 95.4047 68.4248 95.2106C68.0403 95.0165 67.7056 94.7366 67.4465 94.3925C66.3302 95.1286 65.0243 95.5248 63.6872 95.533Z" fill="#A2A2A2"/>
<path d="M76.1707 86.5373H51.2704C51.1676 86.5374 51.0685 86.4981 50.9939 86.4273C50.9192 86.3566 50.8746 86.2598 50.8691 86.1571C50.8743 86.0524 50.9181 85.9532 50.9923 85.8791C51.0665 85.8049 51.1657 85.761 51.2704 85.7559H76.1707C76.2735 85.7613 76.3702 85.8059 76.4409 85.8806C76.5117 85.9553 76.5511 86.0543 76.5509 86.1571C76.5509 86.207 76.5411 86.2565 76.522 86.3026C76.5029 86.3487 76.4749 86.3906 76.4396 86.4259C76.4043 86.4612 76.3624 86.4892 76.3163 86.5083C76.2701 86.5274 76.2207 86.5373 76.1707 86.5373Z" fill="#A2A2A2"/>
<path d="M111.377 65.9663V68.8808C110.703 69.1953 110.14 69.7068 109.763 70.3479C109.386 70.989 109.212 71.7294 109.265 72.4712V76.4629C109.497 78.3214 110.173 77.8146 111.187 79.7787C112.623 82.5665 112.032 83.4325 109.962 85.6289L108.188 84.1505C108.188 84.1505 109.624 82.4187 108.505 81.6795C107.977 81.3416 107.533 81.6795 105.104 81.6795V71.6898L111.377 65.9663Z" fill="#434343"/>
<path d="M108.801 84.0029L110.005 85.0166C111.779 83.1158 112.117 82.3555 110.934 79.8845C110.667 79.3361 110.31 78.8363 109.878 78.4061C109.597 78.1552 109.37 77.8498 109.21 77.5086C109.05 77.1674 108.961 76.7974 108.949 76.4208V72.3025C108.899 71.5302 109.072 70.7599 109.446 70.0825C109.82 69.4051 110.381 68.849 111.061 68.4798V66.7057L105.633 71.7745V81.2151C106.27 81.2039 106.905 81.1474 107.534 81.0461C107.97 80.9211 108.438 80.9664 108.843 81.1728C109.001 81.2732 109.135 81.4062 109.237 81.5628C109.339 81.7195 109.406 81.8962 109.434 82.081C109.457 82.7436 109.248 83.3933 108.843 83.9184L108.801 84.0029ZM110.089 85.8403C110.007 85.8677 109.918 85.8677 109.836 85.8403L108.062 84.383C108.024 84.3457 107.994 84.3013 107.974 84.2524C107.953 84.2034 107.943 84.1509 107.943 84.0979C107.943 84.0449 107.953 83.9924 107.974 83.9435C107.994 83.8945 108.024 83.8501 108.062 83.8128C108.434 83.3889 108.656 82.8547 108.695 82.2922C108.684 82.2165 108.658 82.1438 108.618 82.0785C108.578 82.0132 108.525 81.9565 108.463 81.912C108.315 81.912 108.188 81.912 107.682 81.912C106.885 82.038 106.08 82.1015 105.274 82.1021C105.171 82.0967 105.074 82.052 105.004 81.9773C104.933 81.9027 104.894 81.8037 104.894 81.7008V71.69C104.892 71.6375 104.903 71.5854 104.925 71.5377C104.947 71.4901 104.979 71.4482 105.02 71.4154L111.209 65.6074C111.272 65.5682 111.345 65.5474 111.42 65.5474C111.494 65.5474 111.568 65.5682 111.631 65.6074C111.704 65.6362 111.766 65.6854 111.811 65.7492C111.856 65.813 111.882 65.8885 111.884 65.9665V68.881C111.883 68.962 111.859 69.0409 111.814 69.1083C111.769 69.1757 111.705 69.2288 111.631 69.2612C111.037 69.5471 110.544 70.0079 110.22 70.5817C109.895 71.1555 109.754 71.8149 109.815 72.4714V76.4631C109.827 76.7486 109.897 77.0287 110.02 77.2865C110.143 77.5442 110.318 77.7742 110.533 77.9626C111.02 78.439 111.42 78.9964 111.715 79.6099C113.215 82.5456 112.581 83.6016 110.406 85.9459C110.317 85.9782 110.22 85.9782 110.131 85.9459" fill="#A2A2A2"/>
<path d="M164.259 65.9663V68.8808C164.933 69.1953 165.496 69.7068 165.873 70.3479C166.25 70.989 166.424 71.7294 166.371 72.4712V76.4629C166.139 78.3214 165.442 77.8146 164.449 79.7787C163.013 82.5665 163.583 83.4325 165.674 85.6289L167.448 84.1505C167.448 84.1505 166.012 82.4187 167.131 81.6795C167.659 81.3416 168.103 81.6795 170.532 81.6795V71.6898L164.259 65.9663Z" fill="#434343"/>
<path d="M164.64 68.5643C165.32 68.9335 165.881 69.4897 166.255 70.167C166.629 70.8444 166.802 71.6147 166.752 72.387V76.3787C166.756 76.7764 166.675 77.1704 166.514 77.5345C166.354 77.8986 166.118 78.2245 165.823 78.4907C165.384 78.9152 165.026 79.4162 164.767 79.969C163.5 82.4401 163.901 83.2004 165.696 85.1012L166.9 84.0874C166.495 83.5623 166.286 82.9126 166.309 82.25C166.337 82.0652 166.404 81.8885 166.506 81.7319C166.608 81.5752 166.742 81.4422 166.9 81.3418C167.305 81.1354 167.773 81.0902 168.209 81.2151C168.838 81.3164 169.473 81.3729 170.11 81.3841V71.859L164.682 66.7902L164.64 68.5643ZM165.612 85.9249C165.523 85.9571 165.426 85.9571 165.337 85.9249C163.225 83.6228 162.528 82.5668 164.028 79.5889C164.323 78.9753 164.724 78.4179 165.21 77.9415C165.433 77.746 165.612 77.5058 165.736 77.2365C165.859 76.9673 165.925 76.675 165.928 76.3787V72.3025C165.989 71.646 165.848 70.9866 165.523 70.4128C165.199 69.839 164.706 69.3782 164.112 69.0923C164.038 69.0599 163.975 69.0068 163.93 68.9394C163.885 68.872 163.86 68.7931 163.859 68.7122V65.9666C163.862 65.8915 163.885 65.8186 163.926 65.7555C163.967 65.6923 164.024 65.6413 164.091 65.6075C164.154 65.5658 164.227 65.5435 164.302 65.5435C164.377 65.5435 164.451 65.5658 164.513 65.6075L170.723 71.4155C170.764 71.4483 170.796 71.4902 170.818 71.5378C170.84 71.5855 170.851 71.6376 170.849 71.69V81.7009C170.85 81.8037 170.81 81.9027 170.739 81.9774C170.669 82.0521 170.572 82.0967 170.469 82.1022C169.663 82.1016 168.858 82.038 168.062 81.9121C167.534 81.9121 167.428 81.9121 167.28 81.9121C167.214 81.9523 167.158 82.0078 167.118 82.074C167.077 82.1401 167.053 82.2149 167.048 82.2922C167.087 82.8548 167.31 83.389 167.681 83.8129C167.719 83.8502 167.749 83.8946 167.769 83.9435C167.79 83.9925 167.8 84.045 167.8 84.098C167.8 84.151 167.79 84.2035 167.769 84.2524C167.749 84.3014 167.719 84.3458 167.681 84.3831L165.907 85.8404C165.825 85.8678 165.736 85.8678 165.654 85.8404" fill="#A2A2A2"/>
<path d="M111.377 273.722V270.829C110.705 270.518 110.143 270.011 109.766 269.373C109.388 268.736 109.214 267.999 109.265 267.26V263.268C109.497 261.41 110.173 261.916 111.187 259.952C112.623 257.164 112.032 256.299 109.962 254.102L108.188 255.559C108.188 255.559 109.624 257.312 108.505 258.051C107.977 258.389 107.533 257.946 105.104 257.946V267.936L111.377 273.722Z" fill="#434343"/>
<path d="M105.569 267.745L110.912 272.941V271.167C110.234 270.796 109.675 270.239 109.301 269.562C108.927 268.885 108.753 268.116 108.8 267.344V263.352C108.797 262.955 108.878 262.561 109.038 262.197C109.198 261.833 109.434 261.507 109.729 261.24C110.155 260.805 110.511 260.306 110.785 259.762C112.053 257.291 111.63 256.531 109.856 254.63L108.652 255.644C109.06 256.167 109.27 256.818 109.244 257.481C109.21 257.661 109.141 257.833 109.039 257.985C108.937 258.138 108.806 258.268 108.652 258.368C108.452 258.481 108.23 258.551 108 258.572C107.771 258.594 107.54 258.568 107.322 258.495C106.699 258.403 106.071 258.354 105.442 258.347L105.569 267.745ZM111.377 274.081C111.276 274.078 111.179 274.041 111.102 273.976L104.914 268.168C104.873 268.135 104.84 268.093 104.818 268.045C104.796 267.998 104.786 267.946 104.787 267.893V257.882C104.787 257.779 104.826 257.68 104.897 257.606C104.968 257.531 105.065 257.486 105.167 257.481C105.974 257.471 106.78 257.534 107.575 257.671C108.103 257.671 108.209 257.671 108.335 257.671C108.402 257.629 108.458 257.573 108.502 257.508C108.545 257.442 108.575 257.368 108.589 257.291C108.55 256.722 108.327 256.181 107.955 255.749C107.917 255.715 107.887 255.673 107.869 255.625C107.85 255.577 107.844 255.526 107.85 255.475C107.864 255.368 107.917 255.271 107.997 255.2L109.772 253.743C109.842 253.674 109.937 253.636 110.036 253.636C110.134 253.636 110.229 253.674 110.3 253.743C112.412 256.045 113.108 257.101 111.609 260.079C111.313 260.692 110.913 261.25 110.426 261.726C110.204 261.922 110.025 262.162 109.901 262.431C109.777 262.7 109.712 262.993 109.708 263.289V267.217C109.647 267.874 109.789 268.533 110.113 269.107C110.438 269.681 110.93 270.142 111.525 270.428C111.597 270.456 111.66 270.506 111.705 270.569C111.75 270.633 111.775 270.709 111.778 270.787V273.701C111.778 273.78 111.754 273.857 111.708 273.921C111.663 273.985 111.599 274.034 111.525 274.06H111.377" fill="#A2A2A2"/>
<path d="M164.259 273.679V270.828C164.933 270.513 165.496 270.002 165.873 269.361C166.25 268.72 166.424 267.979 166.371 267.237V263.267C166.139 261.387 165.442 261.894 164.449 259.93C163.013 257.142 163.583 256.276 165.674 254.08L167.448 255.558C167.448 255.558 166.012 257.29 167.131 258.029C167.659 258.388 168.103 258.029 170.532 258.029V268.04L164.259 273.679Z" fill="#434343"/>
<path d="M164.643 270.997V272.771L170.07 267.702V258.261C169.434 258.272 168.798 258.329 168.17 258.43C167.954 258.497 167.727 258.52 167.502 258.498C167.278 258.476 167.059 258.41 166.86 258.304C166.701 258.205 166.565 258.073 166.463 257.916C166.36 257.759 166.294 257.581 166.269 257.395C166.25 256.733 166.459 256.085 166.86 255.558L165.656 254.565C163.861 256.445 163.544 257.205 164.727 259.697C164.991 260.241 165.348 260.735 165.783 261.155C166.343 261.668 166.677 262.381 166.712 263.14V267.174C166.762 267.946 166.589 268.716 166.215 269.394C165.841 270.071 165.281 270.627 164.6 270.997H164.643ZM164.22 274.059H164.051C163.984 274.025 163.927 273.974 163.886 273.911C163.845 273.848 163.822 273.775 163.819 273.7V270.828C163.82 270.747 163.845 270.668 163.89 270.6C163.935 270.533 163.998 270.48 164.072 270.447C164.668 270.164 165.163 269.704 165.488 269.129C165.813 268.555 165.953 267.894 165.889 267.237V263.267C165.88 262.978 165.811 262.693 165.688 262.432C165.564 262.17 165.388 261.937 165.171 261.746C164.688 261.274 164.288 260.724 163.988 260.12C162.488 257.163 163.101 256.107 165.297 253.784C165.368 253.715 165.463 253.677 165.561 253.677C165.66 253.677 165.754 253.715 165.825 253.784L167.599 255.262C167.636 255.298 167.666 255.34 167.686 255.388C167.706 255.435 167.717 255.486 167.717 255.537C167.717 255.588 167.706 255.639 167.686 255.686C167.666 255.733 167.636 255.776 167.599 255.811C167.223 256.241 167 256.783 166.966 257.353C166.975 257.427 167 257.497 167.04 257.56C167.081 257.622 167.135 257.674 167.198 257.712C167.346 257.712 167.452 257.712 167.98 257.712C168.777 257.596 169.582 257.54 170.387 257.543C170.488 257.543 170.585 257.583 170.656 257.655C170.727 257.726 170.767 257.823 170.767 257.923V267.934C170.769 267.987 170.758 268.039 170.736 268.086C170.714 268.134 170.682 268.176 170.641 268.209L164.431 274.017C164.4 274.052 164.361 274.08 164.317 274.098C164.273 274.117 164.225 274.125 164.178 274.122" fill="#A2A2A2"/>
<path d="M40.2039 253.933C39.5746 253.933 38.9708 253.684 38.5238 253.241C38.0769 252.798 37.823 252.197 37.8174 251.567V238.895C37.8147 238.308 37.9278 237.727 38.1505 237.184C38.3732 236.64 38.701 236.147 39.1151 235.731C39.5292 235.315 40.0214 234.984 40.5634 234.759C41.1055 234.534 41.6867 234.418 42.2737 234.418H201.898C202.485 234.418 203.066 234.534 203.608 234.759C204.15 234.984 204.642 235.315 205.056 235.731C205.47 236.147 205.798 236.64 206.021 237.184C206.244 237.727 206.357 238.308 206.354 238.895V251.567C206.352 251.89 206.284 252.209 206.155 252.504C206.026 252.8 205.838 253.066 205.603 253.287C205.368 253.509 205.091 253.68 204.788 253.791C204.485 253.902 204.163 253.95 203.841 253.933H152.646C150.775 251.876 148.491 250.238 145.944 249.124C143.396 248.011 140.642 247.447 137.862 247.47C135.087 247.481 132.344 248.059 129.801 249.171C127.259 250.282 124.971 251.903 123.078 253.933H40.2039Z" fill="#434343"/>
<path d="M152.879 253.509H203.841C204.334 253.509 204.807 253.313 205.155 252.965C205.504 252.616 205.699 252.144 205.699 251.651V238.979C205.694 237.935 205.275 236.936 204.535 236.2C203.795 235.464 202.794 235.05 201.75 235.05H42.2526C41.2051 235.05 40.2006 235.467 39.46 236.207C38.7193 236.948 38.3032 237.952 38.3032 239V251.672C38.3087 252.163 38.5062 252.633 38.8536 252.98C39.201 253.327 39.6705 253.525 40.1617 253.53H122.741C124.678 251.489 127.01 249.861 129.594 248.747C132.179 247.632 134.963 247.054 137.778 247.047C140.601 247.017 143.4 247.578 145.993 248.695C148.587 249.812 150.918 251.459 152.836 253.53L152.879 253.509ZM203.883 254.565H152.646C152.574 254.567 152.503 254.553 152.437 254.524C152.371 254.494 152.313 254.451 152.266 254.396C150.442 252.38 148.211 250.774 145.721 249.682C143.232 248.59 140.539 248.037 137.82 248.06C135.106 248.07 132.424 248.637 129.938 249.727C127.453 250.817 125.219 252.406 123.374 254.396C123.327 254.451 123.269 254.494 123.203 254.524C123.137 254.553 123.066 254.567 122.994 254.565H40.204C39.4366 254.565 38.7007 254.26 38.158 253.718C37.6154 253.175 37.3105 252.439 37.3105 251.672V239C37.3105 237.678 37.8357 236.41 38.7704 235.475C39.7051 234.541 40.973 234.016 42.2949 234.016H201.919C203.241 234.016 204.509 234.541 205.443 235.475C206.378 236.41 206.903 237.678 206.903 239V251.672C206.903 252.439 206.598 253.175 206.056 253.718C205.513 254.26 204.777 254.565 204.01 254.565" fill="#A2A2A2"/>
<path d="M103.37 59.1222C103.23 59.1222 103.095 59.0666 102.996 58.9676C102.897 58.8685 102.842 58.7343 102.842 58.5942V52.8918C102.826 52.8152 102.828 52.736 102.847 52.66C102.865 52.5841 102.901 52.5132 102.95 52.4526C103 52.392 103.062 52.3432 103.133 52.3097C103.204 52.2762 103.281 52.2588 103.359 52.2588C103.437 52.2588 103.515 52.2762 103.585 52.3097C103.656 52.3432 103.718 52.392 103.768 52.4526C103.817 52.5132 103.853 52.5841 103.872 52.66C103.89 52.736 103.892 52.8152 103.877 52.8918V58.5942C103.877 58.7307 103.824 58.8619 103.729 58.9603C103.635 59.0587 103.506 59.1168 103.37 59.1222Z" fill="#A2A2A2"/>
<path d="M104.279 70.8449C104.139 70.8449 104.005 70.7892 103.906 70.6902C103.807 70.5912 103.751 70.4569 103.751 70.3169V65.2692C103.751 65.1292 103.807 64.9949 103.906 64.8959C104.005 64.7968 104.139 64.7412 104.279 64.7412C104.419 64.7412 104.553 64.7968 104.652 64.8959C104.751 64.9949 104.807 65.1292 104.807 65.2692V70.3169C104.807 70.4569 104.751 70.5912 104.652 70.6902C104.553 70.7892 104.419 70.8449 104.279 70.8449Z" fill="#A2A2A2"/>
<path d="M103.372 86.1134C103.232 86.1134 103.097 86.0577 102.998 85.9587C102.899 85.8597 102.844 85.7254 102.844 85.5854V71.1183C102.868 70.9989 102.933 70.8916 103.027 70.8145C103.121 70.7374 103.239 70.6953 103.361 70.6953C103.483 70.6953 103.601 70.7374 103.695 70.8145C103.79 70.8916 103.854 70.9989 103.879 71.1183V85.5854C103.879 85.7218 103.826 85.853 103.732 85.9515C103.637 86.0499 103.508 86.1079 103.372 86.1134Z" fill="#A2A2A2"/>
<path d="M99.5528 85.6075H90.7246V82.8408H98.18V70.8869L98.4546 70.0844L101.982 65.269V57.687H104.727V65.7126L104.474 66.5362L100.947 71.3516V84.2136L99.5528 85.6075Z" fill="#A2A2A2"/>
<path d="M172.267 59.1221C172.127 59.1221 171.993 59.0665 171.894 58.9675C171.795 58.8685 171.739 58.7342 171.739 58.5942V52.8918C171.739 52.7517 171.795 52.6174 171.894 52.5184C171.993 52.4194 172.127 52.3638 172.267 52.3638C172.407 52.3638 172.542 52.4194 172.641 52.5184C172.74 52.6174 172.795 52.7517 172.795 52.8918V58.5942C172.795 58.7342 172.74 58.8685 172.641 58.9675C172.542 59.0665 172.407 59.1221 172.267 59.1221Z" fill="#A2A2A2"/>
<path d="M171.358 70.8445C171.218 70.8445 171.084 70.7888 170.985 70.6898C170.886 70.5908 170.83 70.4565 170.83 70.3165V65.2688C170.814 65.1921 170.816 65.113 170.835 65.037C170.854 64.961 170.889 64.8902 170.938 64.8296C170.988 64.769 171.05 64.7202 171.121 64.6867C171.192 64.6531 171.269 64.6357 171.347 64.6357C171.426 64.6357 171.503 64.6531 171.574 64.6867C171.644 64.7202 171.707 64.769 171.756 64.8296C171.806 64.8902 171.841 64.961 171.86 65.037C171.879 65.113 171.88 65.1921 171.865 65.2688V70.3165C171.865 70.4529 171.812 70.5841 171.718 70.6825C171.623 70.781 171.494 70.839 171.358 70.8445Z" fill="#A2A2A2"/>
<path d="M172.267 86.1135C172.127 86.1135 171.993 86.0578 171.894 85.9588C171.795 85.8598 171.739 85.7255 171.739 85.5855V71.1183C171.739 70.9783 171.795 70.844 171.894 70.745C171.993 70.646 172.127 70.5903 172.267 70.5903C172.407 70.5903 172.542 70.646 172.641 70.745C172.74 70.844 172.795 70.9783 172.795 71.1183V85.5855C172.795 85.7255 172.74 85.8598 172.641 85.9588C172.542 86.0578 172.407 86.1135 172.267 86.1135Z" fill="#A2A2A2"/>
<path d="M184.917 85.6075H176.089L174.695 84.2136V71.3516L171.168 66.5362L170.914 65.7126V57.687H173.66V65.269L177.187 70.0844L177.461 70.8869V82.8408H184.917V85.6075Z" fill="#A2A2A2"/>
<path d="M103.374 287.26C103.238 287.26 103.107 287.208 103.008 287.113C102.91 287.019 102.852 286.89 102.846 286.753V281.03C102.831 280.953 102.833 280.874 102.851 280.798C102.87 280.722 102.906 280.651 102.955 280.591C103.005 280.53 103.067 280.481 103.138 280.448C103.208 280.414 103.286 280.397 103.364 280.397C103.442 280.397 103.519 280.414 103.59 280.448C103.661 280.481 103.723 280.53 103.773 280.591C103.822 280.651 103.858 280.722 103.877 280.798C103.895 280.874 103.897 280.953 103.881 281.03V286.753C103.881 286.888 103.828 287.017 103.733 287.112C103.638 287.207 103.509 287.26 103.374 287.26Z" fill="#A2A2A2"/>
<path d="M104.284 274.884C104.147 274.884 104.016 274.832 103.918 274.737C103.819 274.643 103.761 274.514 103.756 274.377V269.309C103.761 269.172 103.819 269.043 103.918 268.949C104.016 268.854 104.147 268.802 104.284 268.802C104.42 268.802 104.552 268.854 104.65 268.949C104.748 269.043 104.806 269.172 104.812 269.309V274.377C104.806 274.514 104.748 274.643 104.65 274.737C104.552 274.832 104.42 274.884 104.284 274.884Z" fill="#A2A2A2"/>
<path d="M103.374 269.033C103.234 269.033 103.1 268.978 103.001 268.879C102.902 268.78 102.846 268.645 102.846 268.505V254.038C102.831 253.962 102.833 253.882 102.851 253.807C102.87 253.731 102.906 253.66 102.955 253.599C103.005 253.539 103.067 253.49 103.138 253.456C103.208 253.423 103.286 253.405 103.364 253.405C103.442 253.405 103.519 253.423 103.59 253.456C103.661 253.49 103.723 253.539 103.773 253.599C103.822 253.66 103.858 253.731 103.877 253.807C103.895 253.882 103.897 253.962 103.881 254.038V268.505C103.882 268.642 103.829 268.773 103.734 268.872C103.64 268.97 103.511 269.028 103.374 269.033Z" fill="#A2A2A2"/>
<path d="M104.727 281.959H101.982V274.355L98.4546 269.561L98.18 268.738V256.784H90.7246V254.038H99.5528L100.947 255.411V268.294L104.474 273.088L104.727 273.912V281.959Z" fill="#A2A2A2"/>
<path d="M172.267 287.26C172.131 287.26 172 287.208 171.901 287.113C171.803 287.019 171.745 286.89 171.739 286.753V281.03C171.739 280.89 171.795 280.756 171.894 280.657C171.993 280.558 172.127 280.502 172.267 280.502C172.407 280.502 172.542 280.558 172.641 280.657C172.74 280.756 172.795 280.89 172.795 281.03V286.753C172.79 286.89 172.732 287.019 172.633 287.113C172.535 287.208 172.404 287.26 172.267 287.26Z" fill="#A2A2A2"/>
<path d="M171.36 274.883C171.224 274.883 171.092 274.83 170.994 274.736C170.896 274.641 170.837 274.512 170.832 274.376V269.307C170.856 269.188 170.921 269.081 171.015 269.003C171.11 268.926 171.228 268.884 171.349 268.884C171.471 268.884 171.589 268.926 171.684 269.003C171.778 269.081 171.843 269.188 171.867 269.307V274.376C171.867 274.51 171.813 274.639 171.718 274.734C171.623 274.829 171.494 274.883 171.36 274.883Z" fill="#A2A2A2"/>
<path d="M172.267 269.033C172.127 269.033 171.993 268.978 171.894 268.879C171.795 268.78 171.739 268.645 171.739 268.505V254.038C171.739 253.898 171.795 253.764 171.894 253.665C171.993 253.566 172.127 253.51 172.267 253.51C172.407 253.51 172.542 253.566 172.641 253.665C172.74 253.764 172.795 253.898 172.795 254.038V268.505C172.795 268.645 172.74 268.78 172.641 268.879C172.542 268.978 172.407 269.033 172.267 269.033Z" fill="#A2A2A2"/>
<path d="M173.66 281.959H170.914V273.912L171.168 273.088L174.695 268.294V255.411L176.089 254.038H184.917V256.784H177.461V268.738L177.187 269.561L173.66 274.355V281.959Z" fill="#A2A2A2"/>
<path d="M117.251 48.4367C117.21 48.4367 117.169 48.4285 117.13 48.4126C117.092 48.3966 117.057 48.3733 117.027 48.3439C116.998 48.3145 116.975 48.2795 116.959 48.2411C116.943 48.2027 116.935 48.1615 116.935 48.1199V38.7638C116.949 38.6911 116.989 38.626 117.047 38.5797C117.105 38.5334 117.177 38.5088 117.251 38.5103C117.337 38.5102 117.42 38.5428 117.483 38.6017C117.546 38.6606 117.584 38.7412 117.589 38.8271V48.1832C117.584 48.2691 117.546 48.3498 117.483 48.4086C117.42 48.4675 117.337 48.5002 117.251 48.5V48.4367ZM117.251 52.4072C117.21 52.4072 117.169 52.399 117.13 52.3831C117.092 52.3672 117.057 52.3438 117.027 52.3144C116.998 52.285 116.975 52.2501 116.959 52.2116C116.943 52.1732 116.935 52.132 116.935 52.0904V50.781C116.934 50.6949 116.967 50.612 117.026 50.5492C117.085 50.4864 117.165 50.4484 117.251 50.4431C117.341 50.4431 117.427 50.4787 117.49 50.542C117.554 50.6054 117.589 50.6914 117.589 50.781V52.0904C117.584 52.1763 117.546 52.2569 117.483 52.3158C117.42 52.3747 117.337 52.4074 117.251 52.4072ZM117.251 62.9672C117.165 62.9618 117.085 62.9238 117.026 62.861C116.967 62.7982 116.934 62.7153 116.935 62.6292V54.6248C116.935 54.5408 116.968 54.4602 117.027 54.4008C117.087 54.3414 117.167 54.308 117.251 54.308C117.295 54.3051 117.338 54.3111 117.379 54.3258C117.42 54.3404 117.457 54.3633 117.489 54.393C117.521 54.4227 117.546 54.4586 117.563 54.4985C117.581 54.5384 117.589 54.5814 117.589 54.6248V62.6292C117.589 62.7189 117.554 62.8048 117.49 62.8682C117.427 62.9315 117.341 62.9672 117.251 62.9672Z" fill="#A2A2A2"/>
<path d="M63.6889 242.973C63.6049 242.973 63.5243 242.94 63.4649 242.88C63.4055 242.821 63.3721 242.74 63.3721 242.656V231.589C63.3721 231.505 63.4055 231.425 63.4649 231.365C63.5243 231.306 63.6049 231.272 63.6889 231.272C63.775 231.272 63.8579 231.305 63.9207 231.364C63.9835 231.423 64.0214 231.503 64.0268 231.589V242.656C64.0214 242.742 63.9835 242.823 63.9207 242.881C63.8579 242.94 63.775 242.973 63.6889 242.973ZM63.6889 246.88C63.6049 246.88 63.5243 246.847 63.4649 246.787C63.4055 246.728 63.3721 246.647 63.3721 246.563V245.254C63.3721 245.17 63.4055 245.089 63.4649 245.03C63.5243 244.97 63.6049 244.937 63.6889 244.937C63.7323 244.934 63.7757 244.94 63.8166 244.955C63.8575 244.969 63.895 244.992 63.9267 245.022C63.9584 245.052 63.9836 245.088 64.0009 245.127C64.0181 245.167 64.0269 245.21 64.0268 245.254V246.563C64.0214 246.649 63.9835 246.73 63.9207 246.789C63.8579 246.848 63.775 246.88 63.6889 246.88ZM63.6889 261.432C63.6049 261.432 63.5243 261.398 63.4649 261.339C63.4055 261.279 63.3721 261.199 63.3721 261.115V249.161C63.3721 249.077 63.4055 248.996 63.4649 248.937C63.5243 248.878 63.6049 248.844 63.6889 248.844C63.775 248.844 63.8579 248.877 63.9207 248.936C63.9835 248.994 64.0214 249.075 64.0268 249.161V261.115C64.0214 261.201 63.9835 261.281 63.9207 261.34C63.8579 261.399 63.775 261.432 63.6889 261.432Z" fill="#A2A2A2"/>
<path d="M63.669 87.8049C63.5829 87.805 63.5 87.7724 63.4372 87.7135C63.3744 87.6546 63.3364 87.574 63.3311 87.4881V60.349C63.3364 60.2631 63.3744 60.1825 63.4372 60.1236C63.5 60.0647 63.5829 60.0321 63.669 60.0322C63.753 60.0322 63.8335 60.0656 63.893 60.125C63.9524 60.1844 63.9858 60.265 63.9858 60.349V87.4881C63.9858 87.5721 63.9524 87.6527 63.893 87.7121C63.8335 87.7715 63.753 87.8049 63.669 87.8049ZM63.669 91.7121C63.5829 91.7122 63.5 91.6795 63.4372 91.6207C63.3744 91.5618 63.3364 91.4812 63.3311 91.3953V90.0858C63.3364 89.9999 63.3744 89.9193 63.4372 89.8604C63.5 89.8015 63.5829 89.7689 63.669 89.769C63.753 89.769 63.8335 89.8024 63.893 89.8618C63.9524 89.9212 63.9858 90.0018 63.9858 90.0858V91.3108C63.9858 91.3948 63.9524 91.4754 63.893 91.5348C63.8335 91.5942 63.753 91.6276 63.669 91.6276V91.7121ZM63.669 108.524C63.6256 108.526 63.5821 108.52 63.5412 108.506C63.5003 108.491 63.4628 108.468 63.4312 108.439C63.3995 108.409 63.3743 108.373 63.357 108.333C63.3398 108.293 63.331 108.25 63.3311 108.207V93.993C63.3364 93.9071 63.3744 93.8265 63.4372 93.7676C63.5 93.7087 63.5829 93.6761 63.669 93.6762C63.753 93.6762 63.8335 93.7096 63.893 93.769C63.9524 93.8284 63.9858 93.909 63.9858 93.993V108.207C63.9858 108.291 63.9524 108.371 63.893 108.431C63.8335 108.49 63.753 108.524 63.669 108.524Z" fill="#A2A2A2"/>
<path d="M103.269 42.2068C103.179 42.2068 103.093 42.1712 103.03 42.1079C102.966 42.0445 102.931 41.9585 102.931 41.8689V3.0928C102.931 3.00318 102.966 2.91723 103.03 2.85386C103.093 2.79049 103.179 2.75488 103.269 2.75488C103.355 2.76026 103.435 2.79823 103.494 2.86103C103.553 2.92383 103.586 3.00672 103.585 3.0928V41.8689C103.586 41.955 103.553 42.0379 103.494 42.1007C103.435 42.1635 103.355 42.2015 103.269 42.2068Z" fill="#A2A2A2"/>
<path d="M172.163 42.2068C172.078 42.2015 171.997 42.1635 171.938 42.1007C171.879 42.0379 171.847 41.955 171.847 41.8689V3.0928C171.847 3.00672 171.879 2.92383 171.938 2.86103C171.997 2.79823 172.078 2.76026 172.163 2.75488C172.253 2.75488 172.339 2.79049 172.402 2.85386C172.466 2.91723 172.501 3.00318 172.501 3.0928V41.8689C172.501 41.9585 172.466 42.0445 172.402 42.1079C172.339 42.1712 172.253 42.2068 172.163 42.2068Z" fill="#A2A2A2"/>
<path d="M137.505 265.739C137.421 265.739 137.341 265.706 137.281 265.646C137.222 265.587 137.188 265.506 137.188 265.422V200.141C137.188 200.056 137.222 199.976 137.281 199.917C137.341 199.857 137.421 199.824 137.505 199.824C137.589 199.824 137.67 199.857 137.729 199.917C137.789 199.976 137.822 200.056 137.822 200.141V265.422C137.822 265.506 137.789 265.587 137.729 265.646C137.67 265.706 137.589 265.739 137.505 265.739ZM137.505 269.646C137.421 269.646 137.341 269.613 137.281 269.553C137.222 269.494 137.188 269.413 137.188 269.329V268.02C137.188 267.934 137.221 267.851 137.28 267.788C137.339 267.725 137.419 267.687 137.505 267.682C137.549 267.682 137.592 267.691 137.632 267.708C137.671 267.725 137.707 267.75 137.737 267.782C137.767 267.814 137.79 267.851 137.804 267.892C137.819 267.933 137.825 267.976 137.822 268.02V269.329C137.822 269.413 137.789 269.494 137.729 269.553C137.67 269.613 137.589 269.646 137.505 269.646ZM137.505 291.991C137.421 291.991 137.341 291.958 137.281 291.898C137.222 291.839 137.188 291.758 137.188 291.674V271.927C137.188 271.843 137.222 271.762 137.281 271.703C137.341 271.644 137.421 271.61 137.505 271.61C137.548 271.607 137.59 271.613 137.63 271.628C137.67 271.643 137.706 271.666 137.736 271.696C137.766 271.726 137.79 271.762 137.804 271.802C137.819 271.842 137.825 271.885 137.822 271.927V291.674C137.822 291.758 137.789 291.839 137.729 291.898C137.67 291.958 137.589 291.991 137.505 291.991Z" fill="#A2A2A2"/>
<path d="M269.651 300.524H153.914C153.829 300.518 153.748 300.481 153.689 300.418C153.63 300.355 153.597 300.272 153.598 300.186C153.598 300.102 153.631 300.021 153.69 299.962C153.75 299.903 153.83 299.869 153.914 299.869H269.651C269.735 299.869 269.816 299.903 269.875 299.962C269.935 300.021 269.968 300.102 269.968 300.186C269.968 300.272 269.936 300.355 269.877 300.418C269.818 300.481 269.737 300.518 269.651 300.524Z" fill="#A2A2A2"/>
<path d="M269.8 39.3979H148.614C148.525 39.3979 148.439 39.3623 148.375 39.2989C148.312 39.2355 148.276 39.1496 148.276 39.06C148.282 38.974 148.32 38.8934 148.383 38.8346C148.445 38.7757 148.528 38.743 148.614 38.7432H269.8C269.884 38.7432 269.965 38.7765 270.024 38.836C270.084 38.8954 270.117 38.9759 270.117 39.06C270.117 39.146 270.084 39.2289 270.026 39.2917C269.967 39.3545 269.886 39.3925 269.8 39.3979Z" fill="#A2A2A2"/>
<path d="M265.091 159.149C265.005 159.143 264.925 159.105 264.866 159.043C264.807 158.98 264.774 158.897 264.774 158.811V45.6293C264.774 45.5453 264.808 45.4647 264.867 45.4053C264.927 45.3459 265.007 45.3125 265.091 45.3125C265.177 45.3123 265.26 45.345 265.323 45.4039C265.386 45.4628 265.424 45.5434 265.429 45.6293V158.895C265.429 158.985 265.394 159.071 265.33 159.134C265.267 159.198 265.181 159.233 265.091 159.233" fill="#A2A2A2"/>
<path d="M266.696 50.9292L264.985 39.1865L263.211 50.9292H266.696Z" fill="#A2A2A2"/>
<path d="M264.922 294.06C264.838 294.06 264.758 294.027 264.698 293.968C264.639 293.908 264.605 293.828 264.605 293.744V180.815C264.605 180.729 264.638 180.646 264.697 180.584C264.756 180.521 264.836 180.483 264.922 180.478C265.012 180.478 265.098 180.513 265.161 180.577C265.225 180.64 265.26 180.726 265.26 180.815V293.744C265.255 293.829 265.217 293.91 265.154 293.969C265.091 294.028 265.008 294.06 264.922 294.06Z" fill="#A2A2A2"/>
<path d="M263.231 288.443L264.942 300.164L266.695 288.443H263.231Z" fill="#A2A2A2"/>
<path d="M35.6232 105.334H1.26112C1.17521 105.329 1.0946 105.291 1.03573 105.228C0.976857 105.165 0.944168 105.082 0.944337 104.996C0.944337 104.912 0.977737 104.831 1.03715 104.772C1.09656 104.713 1.1771 104.679 1.26112 104.679H35.6232C35.7093 104.679 35.7922 104.712 35.855 104.771C35.9178 104.829 35.9558 104.91 35.9611 104.996C35.9611 105.086 35.9255 105.172 35.8621 105.235C35.7988 105.298 35.7128 105.334 35.6232 105.334Z" fill="#A2A2A2"/>
<path d="M35.6232 234.608H1.26112C1.17521 234.603 1.0946 234.565 1.03573 234.502C0.976857 234.439 0.944168 234.356 0.944337 234.27C0.944337 234.186 0.977737 234.106 1.03715 234.046C1.09656 233.987 1.1771 233.954 1.26112 233.954H35.6232C35.7093 233.953 35.7922 233.986 35.855 234.045C35.9178 234.104 35.9558 234.185 35.9611 234.27C35.9611 234.36 35.9255 234.446 35.8621 234.509C35.7988 234.573 35.7128 234.608 35.6232 234.608Z" fill="#A2A2A2"/>
<path d="M5.0854 228.04C5.00138 228.04 4.92078 228.007 4.86137 227.947C4.80196 227.888 4.76855 227.807 4.76855 227.723V181.386C4.76855 181.345 4.77674 181.303 4.79266 181.265C4.80858 181.226 4.83195 181.192 4.86137 181.162C4.89078 181.133 4.92573 181.109 4.96417 181.093C5.0026 181.078 5.0438 181.069 5.0854 181.069C5.16943 181.069 5.24997 181.103 5.30938 181.162C5.36879 181.222 5.40219 181.302 5.40219 181.386V227.723C5.40219 227.807 5.36879 227.888 5.30938 227.947C5.24997 228.007 5.16943 228.04 5.0854 228.04Z" fill="#A2A2A2"/>
<path d="M3.39062 222.422L5.10133 234.144L6.85432 222.422H3.39062Z" fill="#A2A2A2"/>
<path d="M5.14359 159.717C5.05751 159.717 4.97455 159.684 4.91175 159.626C4.84895 159.567 4.81104 159.486 4.80566 159.4V111.458C4.80566 111.368 4.84123 111.282 4.9046 111.219C4.96797 111.156 5.05397 111.12 5.14359 111.12C5.2295 111.125 5.31011 111.163 5.36898 111.226C5.42785 111.289 5.46054 111.372 5.46038 111.458V159.4C5.46038 159.484 5.42697 159.565 5.36756 159.624C5.30815 159.684 5.22761 159.717 5.14359 159.717Z" fill="#A2A2A2"/>
<path d="M6.85495 116.739L5.1231 105.017L3.37012 116.739H6.85495Z" fill="#A2A2A2"/>
<path d="M199.891 136.993H133.236C133.15 136.993 133.067 136.961 133.005 136.902C132.942 136.843 132.904 136.762 132.898 136.676C132.898 136.587 132.934 136.501 132.997 136.437C133.061 136.374 133.147 136.338 133.236 136.338H199.891C199.98 136.338 200.066 136.374 200.13 136.437C200.193 136.501 200.229 136.587 200.229 136.676C200.223 136.762 200.185 136.843 200.123 136.902C200.06 136.961 199.977 136.993 199.891 136.993Z" fill="#A2A2A2"/>
<path d="M194.612 138.365L206.334 136.654L194.612 134.901V138.365Z" fill="#A2A2A2"/>
<path d="M117.798 136.929H44.5332C44.4472 136.929 44.3643 136.897 44.3015 136.838C44.2387 136.779 44.2007 136.698 44.1953 136.612C44.1953 136.523 44.2309 136.437 44.2942 136.373C44.3576 136.31 44.4436 136.274 44.5332 136.274H117.798C117.842 136.274 117.885 136.283 117.924 136.3C117.964 136.318 118 136.343 118.03 136.375C118.06 136.406 118.083 136.444 118.097 136.485C118.112 136.526 118.118 136.569 118.115 136.612C118.115 136.696 118.082 136.777 118.022 136.836C117.963 136.896 117.882 136.929 117.798 136.929Z" fill="#A2A2A2"/>
<path d="M49.8153 134.901L38.0938 136.612L49.8153 138.386V134.901Z" fill="#A2A2A2"/>
<path d="M79.5521 204.492H44.5775C44.4916 204.487 44.411 204.449 44.3521 204.386C44.2933 204.323 44.2606 204.24 44.2607 204.154C44.2607 204.07 44.2941 203.99 44.3536 203.93C44.413 203.871 44.4935 203.837 44.5775 203.837H79.5521C79.6381 203.837 79.721 203.87 79.7838 203.929C79.8466 203.988 79.8846 204.068 79.89 204.154C79.89 204.244 79.8544 204.33 79.791 204.393C79.7276 204.457 79.6417 204.492 79.5521 204.492Z" fill="#A2A2A2"/>
<path d="M49.8778 202.443L38.1562 204.175L49.8778 205.928V202.443Z" fill="#A2A2A2"/>
<path d="M130.808 204.533H97.6709C97.5849 204.533 97.502 204.501 97.4392 204.442C97.3764 204.383 97.3384 204.302 97.333 204.216C97.3329 204.173 97.3418 204.13 97.359 204.09C97.3762 204.05 97.4014 204.014 97.4331 203.985C97.4648 203.955 97.5023 203.932 97.5432 203.917C97.5841 203.903 97.6276 203.897 97.6709 203.9H130.808C130.892 203.9 130.973 203.933 131.032 203.992C131.091 204.052 131.125 204.132 131.125 204.216C131.125 204.3 131.091 204.381 131.032 204.44C130.973 204.5 130.892 204.533 130.808 204.533Z" fill="#A2A2A2"/>
<path d="M125.527 205.928L137.249 204.196L125.527 202.443V205.928Z" fill="#A2A2A2"/>
<path d="M128.063 7.46428H109.921C109.835 7.4589 109.755 7.42094 109.696 7.35814C109.637 7.29535 109.604 7.21244 109.604 7.12636C109.604 7.04234 109.638 6.96177 109.697 6.90236C109.757 6.84295 109.837 6.80957 109.921 6.80957H128.063C128.149 6.8094 128.232 6.84209 128.295 6.90096C128.358 6.95984 128.396 7.04045 128.401 7.12636C128.401 7.21599 128.366 7.30193 128.302 7.36531C128.239 7.42868 128.153 7.46428 128.063 7.46428Z" fill="#A2A2A2"/>
<path d="M115.221 5.43604L103.5 7.14675L115.221 8.8997V5.43604Z" fill="#A2A2A2"/>
<path d="M165.362 7.5263H147.22C147.13 7.5263 147.044 7.4907 146.981 7.42733C146.917 7.36395 146.882 7.278 146.882 7.18838C146.887 7.10246 146.925 7.02185 146.988 6.96298C147.051 6.9041 147.134 6.87141 147.22 6.87158H165.362C165.446 6.87158 165.526 6.90496 165.586 6.96437C165.645 7.02378 165.679 7.10436 165.679 7.18838C165.679 7.27446 165.646 7.35736 165.587 7.42016C165.528 7.48295 165.448 7.52092 165.362 7.5263Z" fill="#A2A2A2"/>
<path d="M160.082 8.8997L171.803 7.16787L160.082 5.43604V8.8997Z" fill="#A2A2A2"/>
<path d="M77.4369 83.1569C77.3564 83.1571 77.2789 83.1266 77.2201 83.0717C77.1612 83.0168 77.1255 82.9415 77.1201 82.8612V44.064C77.1199 43.9779 77.1526 43.895 77.2115 43.8322C77.2704 43.7694 77.351 43.7315 77.4369 43.7261C77.4803 43.726 77.5233 43.7348 77.5632 43.752C77.6031 43.7693 77.639 43.7945 77.6687 43.8262C77.6984 43.8579 77.7213 43.8954 77.736 43.9363C77.7506 43.9772 77.7566 44.0206 77.7537 44.064V82.8612C77.7537 82.9452 77.7204 83.0258 77.6609 83.0852C77.6015 83.1446 77.5209 83.178 77.4369 83.178" fill="#A2A2A2"/>
<path d="M97.3123 48.436H84.0912C84.0053 48.4306 83.9247 48.3926 83.8658 48.3298C83.8069 48.267 83.7742 48.1841 83.7744 48.0981C83.7744 48.014 83.8078 47.9335 83.8672 47.874C83.9266 47.8146 84.0072 47.7813 84.0912 47.7813H97.3123C97.3984 47.7811 97.4812 47.8138 97.544 47.8726C97.6068 47.9315 97.6448 48.0121 97.6502 48.0981C97.6502 48.1877 97.6146 48.2736 97.5512 48.337C97.4878 48.4004 97.4019 48.436 97.3123 48.436Z" fill="#A2A2A2"/>
<path d="M89.3903 46.3892L77.6689 48.121L89.3903 49.8739V46.3892Z" fill="#A2A2A2"/>
<path d="M50.5928 83.1569C50.5067 83.1571 50.4238 83.1244 50.361 83.0655C50.2982 83.0066 50.2603 82.926 50.2549 82.8401V44.064C50.2549 43.9744 50.2905 43.8884 50.3539 43.825C50.4173 43.7617 50.5032 43.7261 50.5928 43.7261C50.6787 43.7315 50.7593 43.7694 50.8182 43.8322C50.8771 43.895 50.9098 43.9779 50.9096 44.064V82.8612C50.9096 82.9452 50.8762 83.0258 50.8168 83.0852C50.7574 83.1446 50.6768 83.178 50.5928 83.178" fill="#A2A2A2"/>
<path d="M43.8569 48.4771H30.1289C30.0429 48.4773 29.96 48.4446 29.8972 48.3857C29.8344 48.3268 29.7964 48.2462 29.791 48.1603C29.7909 48.1168 29.7998 48.0738 29.817 48.034C29.8342 47.9941 29.8595 47.9582 29.8912 47.9285C29.9229 47.8987 29.9603 47.8759 30.0012 47.8613C30.0421 47.8466 30.0856 47.8406 30.1289 47.8435H43.8569C43.8985 47.8435 43.9397 47.8517 43.9781 47.8676C44.0165 47.8835 44.0515 47.9069 44.0809 47.9363C44.1103 47.9657 44.1336 48.0006 44.1496 48.039C44.1655 48.0775 44.1737 48.1187 44.1737 48.1603C44.1737 48.2019 44.1655 48.2431 44.1496 48.2815C44.1336 48.32 44.1103 48.3549 44.0809 48.3843C44.0515 48.4137 44.0165 48.437 43.9781 48.453C43.9397 48.4689 43.8985 48.4771 43.8569 48.4771Z" fill="#A2A2A2"/>
<path d="M38.5771 49.8739L50.2987 48.1421L38.5771 46.3892V49.8739Z" fill="#A2A2A2"/>
<path d="M63.6065 38.5109C63.5204 38.511 63.4375 38.4783 63.3747 38.4195C63.3119 38.3606 63.2739 38.28 63.2686 38.1941V3.0928C63.2686 3.00318 63.3042 2.91723 63.3676 2.85386C63.4309 2.79049 63.5169 2.75488 63.6065 2.75488C63.6924 2.76026 63.773 2.79823 63.8319 2.86103C63.8907 2.92383 63.9234 3.00672 63.9233 3.0928V38.0885C63.9233 38.1725 63.8899 38.2531 63.8305 38.3125C63.771 38.3719 63.6905 38.4053 63.6065 38.4053" fill="#A2A2A2"/>
<path d="M37.7764 84.7423C37.6868 84.7423 37.6008 84.7067 37.5375 84.6433C37.4741 84.58 37.4385 84.494 37.4385 84.4044V3.0928C37.4385 3.00318 37.4741 2.91723 37.5375 2.85386C37.6008 2.79049 37.6868 2.75488 37.7764 2.75488C37.8623 2.76026 37.9429 2.79823 38.0018 2.86103C38.0607 2.92383 38.0934 3.00672 38.0932 3.0928V84.4044C38.0934 84.4905 38.0607 84.5734 38.0018 84.6362C37.9429 84.699 37.8623 84.7369 37.7764 84.7423Z" fill="#A2A2A2"/>
<path d="M83.4607 7.42327H70.2608C70.1747 7.42343 70.0918 7.39075 70.029 7.33187C69.9662 7.273 69.9282 7.19238 69.9229 7.10647C69.9229 7.01685 69.9585 6.9309 70.0219 6.86753C70.0852 6.80416 70.1712 6.76855 70.2608 6.76855H83.4607C83.5503 6.76855 83.6363 6.80416 83.6996 6.86753C83.763 6.9309 83.7986 7.01685 83.7986 7.10647C83.7933 7.19238 83.7553 7.273 83.6925 7.33187C83.6297 7.39075 83.5468 7.42343 83.4607 7.42327Z" fill="#A2A2A2"/>
<path d="M75.4521 5.39502L63.7305 7.10573L75.4521 8.85868V5.39502Z" fill="#A2A2A2"/>
<path d="M31.3328 7.42131H18.1117C18.0277 7.42131 17.9471 7.38794 17.8877 7.32853C17.8283 7.26911 17.7949 7.18854 17.7949 7.10452C17.7948 7.01844 17.8274 6.93554 17.8863 6.87274C17.9452 6.80994 18.0258 6.77198 18.1117 6.7666H31.3328C31.4224 6.7666 31.5083 6.8022 31.5717 6.86558C31.6351 6.92895 31.6707 7.0149 31.6707 7.10452C31.6653 7.19043 31.6274 7.27105 31.5646 7.32992C31.5018 7.38879 31.4189 7.42148 31.3328 7.42131Z" fill="#A2A2A2"/>
<path d="M26.0537 5.39502L37.7754 7.10573L26.0537 8.85868V5.39502Z" fill="#A2A2A2"/>
<path d="M266.419 164.702V174.797H268.193C268.762 174.83 269.331 174.737 269.86 174.526C270.39 174.314 270.866 173.988 271.255 173.572C272.034 172.584 272.418 171.342 272.332 170.087V169.454C272.405 168.23 272.046 167.019 271.319 166.032C270.952 165.621 270.498 165.298 269.99 165.086C269.482 164.874 268.933 164.779 268.383 164.807L266.419 164.702ZM264.708 176.191V163.308H268.341C269.381 163.291 270.407 163.546 271.319 164.047C272.173 164.542 272.863 165.276 273.304 166.159C273.788 167.137 274.034 168.215 274.022 169.306V170.13C274.048 171.233 273.81 172.327 273.325 173.319C272.881 174.207 272.183 174.942 271.319 175.431C270.384 175.935 269.339 176.196 268.277 176.191H264.708Z" fill="#A2A2A2"/>
<path d="M2.14734 172.453C2.09341 173.355 2.33031 174.25 2.82319 175.008C3.02909 175.306 3.3082 175.546 3.63369 175.705C3.95917 175.864 4.32008 175.937 4.68175 175.916C5.15713 175.935 5.62743 175.813 6.03339 175.565C6.43935 175.317 6.76273 174.954 6.96267 174.522V170.129C6.75794 169.709 6.43521 169.357 6.03391 169.117C5.6326 168.877 5.17008 168.759 4.70283 168.778C4.33717 168.765 3.97422 168.844 3.64625 169.006C3.31829 169.168 3.03553 169.409 2.82319 169.707C2.32074 170.531 2.08471 171.49 2.14734 172.453ZM0.521131 172.262C0.465727 171.005 0.829725 169.764 1.55598 168.735C1.87508 168.332 2.27819 168.002 2.7374 167.769C3.19662 167.537 3.70098 167.407 4.21537 167.389C4.72976 167.371 5.24187 167.465 5.71628 167.665C6.19069 167.864 6.616 168.165 6.96267 168.545V163.561H8.58888V177.141H7.08939V176.106C6.76061 176.505 6.343 176.822 5.86994 177.031C5.39687 177.24 4.88145 177.336 4.3649 177.31C3.83669 177.318 3.31451 177.197 2.84349 176.958C2.37248 176.719 1.9668 176.368 1.66156 175.937C0.923292 174.906 0.55155 173.657 0.605564 172.389L0.521131 172.262Z" fill="#A2A2A2"/>
<path d="M123.587 136.824V141.449H126.396C127.072 141.495 127.739 141.275 128.255 140.836C128.49 140.625 128.675 140.363 128.795 140.071C128.916 139.778 128.969 139.463 128.951 139.147C128.951 137.605 128.107 136.824 126.417 136.824H123.587ZM123.587 135.472H126.143C126.79 135.507 127.429 135.304 127.938 134.902C128.145 134.704 128.311 134.467 128.424 134.204C128.537 133.94 128.595 133.657 128.595 133.371C128.595 133.084 128.537 132.801 128.424 132.537C128.311 132.274 128.145 132.037 127.938 131.839C127.38 131.479 126.721 131.309 126.058 131.354H123.587V135.472ZM121.897 142.843V129.981H126.121C127.24 129.891 128.354 130.197 129.268 130.847C129.629 131.163 129.911 131.558 130.094 132.001C130.277 132.444 130.356 132.924 130.324 133.402C130.335 133.978 130.157 134.542 129.817 135.007C129.46 135.487 128.978 135.859 128.424 136.084C129.084 136.247 129.667 136.636 130.071 137.183C130.473 137.749 130.681 138.431 130.662 139.126C130.692 139.635 130.607 140.144 130.413 140.615C130.219 141.087 129.922 141.509 129.543 141.85C128.651 142.571 127.519 142.926 126.375 142.843H121.897Z" fill="#A2A2A2"/>
<path d="M143.439 9.78723C143.367 10.9974 142.83 12.1328 141.939 12.9552C140.988 13.7275 139.784 14.1189 138.56 14.0534C137.867 14.0777 137.178 13.9438 136.545 13.6621C135.912 13.3803 135.352 12.958 134.906 12.4272C133.942 11.172 133.456 9.61504 133.533 8.03427V6.83044C133.51 5.74076 133.726 4.65923 134.167 3.66245C134.555 2.79756 135.186 2.06391 135.983 1.55046C136.805 1.05736 137.75 0.808299 138.708 0.832387C139.912 0.772698 141.093 1.1814 142.003 1.97286C142.866 2.80817 143.38 3.9408 143.439 5.14085H141.728C141.665 4.31067 141.331 3.52417 140.778 2.90214C140.187 2.41337 139.43 2.17129 138.666 2.2263C138.175 2.20882 137.686 2.30896 137.242 2.51837C136.797 2.72777 136.409 3.04037 136.11 3.43013C135.441 4.4404 135.122 5.6424 135.202 6.85155V8.09763C135.145 9.27208 135.447 10.4361 136.068 11.4346C136.341 11.828 136.708 12.1464 137.136 12.3605C137.564 12.5746 138.039 12.6774 138.518 12.6595C139.274 12.6972 140.019 12.4734 140.63 12.0259C141.226 11.4277 141.579 10.6304 141.622 9.78723H143.439Z" fill="#A2A2A2"/>
<path d="M88.9725 204.808C87.8136 204.54 86.7306 204.013 85.8045 203.266C85.4838 202.985 85.2287 202.637 85.0572 202.247C84.8857 201.856 84.802 201.433 84.8119 201.006C84.8029 200.523 84.907 200.043 85.116 199.607C85.325 199.171 85.6331 198.789 86.0157 198.493C86.9169 197.788 88.0406 197.428 89.1837 197.479C90.0022 197.472 90.8115 197.653 91.5491 198.007C92.2099 198.314 92.7676 198.805 93.1542 199.422C93.533 200.007 93.7313 200.69 93.7245 201.387H92.0137C92.0307 201.045 91.9733 200.704 91.8457 200.387C91.7181 200.07 91.5233 199.784 91.2746 199.549C90.6807 199.066 89.9266 198.825 89.1626 198.873C88.4651 198.833 87.774 199.026 87.1984 199.422C86.9698 199.607 86.7877 199.843 86.6667 200.11C86.5456 200.378 86.4891 200.671 86.5015 200.964C86.499 201.222 86.557 201.476 86.6707 201.707C86.7844 201.938 86.9507 202.14 87.1562 202.295C87.8456 202.769 88.62 203.106 89.4371 203.287C90.3154 203.515 91.1603 203.855 91.9504 204.301C92.4941 204.604 92.9519 205.04 93.281 205.568C93.5853 206.078 93.739 206.664 93.7245 207.258C93.7397 207.745 93.6362 208.228 93.4228 208.666C93.2094 209.104 92.8925 209.483 92.4995 209.771C91.5542 210.447 90.4075 210.782 89.247 210.721C88.3968 210.729 87.5547 210.556 86.7761 210.215C86.0659 209.925 85.4512 209.442 85.002 208.821C84.5827 208.236 84.3607 207.534 84.3684 206.814H86.0791C86.0683 207.167 86.1411 207.518 86.2916 207.837C86.4421 208.156 86.666 208.435 86.945 208.652C87.6137 209.131 88.4253 209.37 89.247 209.328C89.9927 209.386 90.7365 209.193 91.359 208.778C91.5935 208.607 91.7819 208.381 91.9072 208.119C92.0325 207.858 92.0909 207.569 92.0771 207.279C92.0948 207.001 92.0444 206.723 91.9303 206.469C91.8162 206.215 91.6419 205.993 91.4224 205.822C90.6815 205.353 89.8679 205.01 89.0148 204.808" fill="#A2A2A2"/>
<path d="M67.9971 54.4559C67.5315 55.0789 66.903 55.5613 66.1808 55.8498C65.3037 56.1788 64.3716 56.3365 63.4352 56.3145C62.456 56.3261 61.4922 56.0706 60.6474 55.5753C59.8317 55.0656 59.1793 54.3326 58.7677 53.4633C58.305 52.4715 58.0671 51.3897 58.0708 50.2953V49.176C57.9736 47.5538 58.4606 45.9504 59.4435 44.6563C59.9158 44.1216 60.5034 43.7011 61.162 43.4267C61.8205 43.1523 62.5328 43.0311 63.2451 43.0723C64.4151 43.014 65.5678 43.3733 66.4976 44.086C67.3475 44.8422 67.8826 45.8899 67.9971 47.0217H66.3075C66.2782 46.6524 66.1762 46.2925 66.0072 45.9628C65.8383 45.633 65.6057 45.34 65.323 45.1005C65.0404 44.861 64.7131 44.6798 64.3601 44.5673C64.0071 44.4548 63.6354 44.4133 63.2662 44.4451C62.7674 44.4152 62.269 44.5095 61.8157 44.7196C61.3623 44.9297 60.9681 45.249 60.6685 45.6489C60.0116 46.6874 59.701 47.9075 59.7815 49.1337V50.1686C59.7199 51.4012 60.069 52.6194 60.7741 53.6323C61.0875 54.0423 61.4945 54.3714 61.9612 54.5918C62.4278 54.8123 62.9405 54.9178 63.4563 54.8994C64.0198 54.9116 64.5821 54.8404 65.1248 54.6882C65.5767 54.5602 65.9854 54.312 66.3075 53.9702V51.1823H63.3296V49.7884H67.9971V54.4559Z" fill="#A2A2A2"/>
<path d="M44.1316 7.61149V12.2579H46.9194C47.6042 12.2968 48.2776 12.0698 48.7991 11.6243C49.0306 11.4108 49.2114 11.1483 49.3283 10.856C49.4452 10.5637 49.4954 10.2489 49.4749 9.93468C49.4749 8.39293 48.6301 7.61149 46.9405 7.61149H44.1316ZM44.1316 6.25981H46.6871C47.3281 6.2917 47.9588 6.08898 48.4612 5.68958C48.6826 5.50932 48.859 5.27995 48.9763 5.01966C49.0936 4.75937 49.1486 4.47533 49.137 4.19007C49.1598 3.9002 49.1165 3.60894 49.0104 3.33822C48.9043 3.06751 48.7382 2.8244 48.5245 2.62719C47.9564 2.27425 47.2906 2.11151 46.6237 2.16256H44.1316V6.25981ZM42.4209 13.6307V0.768645H46.6449C47.7685 0.689414 48.8857 0.994779 49.8129 1.63456C50.1731 1.951 50.4556 2.34606 50.6388 2.78919C50.8219 3.23232 50.9006 3.71164 50.8689 4.19007C50.8816 4.76975 50.6953 5.33629 50.3409 5.79517C49.9834 6.27483 49.5013 6.64736 48.9469 6.87229C49.6074 7.03493 50.1901 7.42344 50.5943 7.97053C51.0026 8.53522 51.2175 9.21678 51.2068 9.91355C51.2319 10.422 51.1446 10.9298 50.9511 11.4007C50.7576 11.8716 50.4628 12.2941 50.0874 12.638C49.1916 13.3514 48.0621 13.7053 46.9194 13.6307H42.4209Z" fill="#A2A2A2"/>
<path d="M58.6199 18.6786C58.3481 19.0516 57.974 19.3377 57.5428 19.5023C57.036 19.6896 56.4992 19.7826 55.9588 19.7769C55.3854 19.7887 54.8206 19.6347 54.3326 19.3334C53.8481 19.0491 53.4643 18.6209 53.2344 18.1084C52.9538 17.5375 52.8161 16.9069 52.8331 16.271V15.6163C52.7698 14.6777 53.0473 13.7478 53.6145 12.9974C53.8896 12.6777 54.2346 12.4256 54.6229 12.2608C55.0111 12.096 55.4321 12.0228 55.8532 12.047C56.533 12.0186 57.2003 12.236 57.7329 12.6595C58.237 13.0949 58.5545 13.7073 58.6199 14.3702H57.6273C57.6114 14.1544 57.5526 13.9441 57.4544 13.7513C57.3562 13.5586 57.2205 13.3874 57.0552 13.2478C56.89 13.1081 56.6987 13.0028 56.4923 12.9381C56.2859 12.8733 56.0686 12.8504 55.8532 12.8707C55.562 12.8528 55.2708 12.9071 55.0056 13.0287C54.7403 13.1502 54.5092 13.3354 54.3326 13.5676C53.9387 14.1979 53.7608 14.9393 53.8257 15.6796V16.2921C53.7645 17.041 53.9661 17.7878 54.3959 18.4041C54.5794 18.6421 54.8168 18.8332 55.0885 18.9617C55.3601 19.0901 55.6584 19.1524 55.9588 19.1433C56.2872 19.1497 56.6146 19.107 56.9303 19.0166C57.1922 18.9424 57.4317 18.8046 57.6273 18.6153V16.9257H56.0011V16.1231H58.7255L58.6199 18.6786Z" fill="#A2A2A2"/>
</svg>
