<svg width="414" height="414" viewBox="0 0 414 414" fill="none" xmlns="http://www.w3.org/2000/svg">
<path d="M177.733 335.672C177.598 335.664 177.471 335.604 177.378 335.505C177.286 335.406 177.234 335.276 177.234 335.141V309.759C177.234 309.623 177.286 309.493 177.378 309.394C177.471 309.295 177.598 309.236 177.733 309.227C177.874 309.227 178.009 309.283 178.109 309.383C178.208 309.482 178.264 309.618 178.264 309.759V335.141C178.264 335.282 178.208 335.417 178.109 335.517C178.009 335.616 177.874 335.672 177.733 335.672Z" fill="#A3A3A3"/>
<path d="M177.733 142.715C177.601 142.715 177.474 142.663 177.38 142.569C177.287 142.476 177.234 142.349 177.234 142.217V116.835C177.234 116.699 177.286 116.569 177.378 116.47C177.471 116.371 177.598 116.312 177.733 116.303C177.874 116.303 178.009 116.359 178.109 116.459C178.208 116.559 178.264 116.694 178.264 116.835V142.217C178.256 142.352 178.196 142.479 178.097 142.571C177.999 142.664 177.868 142.715 177.733 142.715Z" fill="#A3A3A3"/>
<path d="M232.546 345.839C232.405 345.839 232.27 345.783 232.17 345.683C232.071 345.583 232.015 345.448 232.015 345.307V320.058C232.015 319.917 232.071 319.782 232.17 319.682C232.27 319.582 232.405 319.526 232.546 319.526C232.687 319.526 232.822 319.582 232.922 319.682C233.022 319.782 233.078 319.917 233.078 320.058V345.307C233.078 345.448 233.022 345.583 232.922 345.683C232.822 345.783 232.687 345.839 232.546 345.839Z" fill="#A3A3A3"/>
<path d="M232.546 132.383C232.405 132.383 232.27 132.327 232.17 132.227C232.071 132.127 232.015 131.992 232.015 131.851V106.635C232.015 106.494 232.071 106.359 232.17 106.259C232.27 106.16 232.405 106.104 232.546 106.104C232.687 106.104 232.822 106.16 232.922 106.259C233.022 106.359 233.078 106.494 233.078 106.635V131.884C233.078 132.025 233.022 132.16 232.922 132.26C232.822 132.36 232.687 132.416 232.546 132.416" fill="#A3A3A3"/>
<path d="M205.108 107.267C208.6 107.26 212.015 108.29 214.921 110.226C217.828 112.162 220.094 114.917 221.433 118.141C222.773 121.366 223.125 124.916 222.445 128.341C221.765 131.766 220.085 134.913 217.615 137.382C215.146 139.851 212 141.532 208.575 142.212C205.15 142.891 201.6 142.539 198.375 141.2C195.15 139.86 192.395 137.594 190.459 134.688C188.523 131.782 187.493 128.367 187.5 124.875C187.5 122.562 187.955 120.273 188.84 118.136C189.725 116 191.022 114.059 192.657 112.424C194.292 110.789 196.233 109.492 198.37 108.607C200.506 107.722 202.796 107.267 205.108 107.267Z" fill="#D3D3D3"/>
<path d="M205.107 107.798C201.722 107.798 198.413 108.803 195.598 110.684C192.784 112.566 190.591 115.24 189.297 118.368C188.003 121.497 187.666 124.938 188.329 128.258C188.992 131.578 190.625 134.627 193.021 137.018C195.417 139.41 198.469 141.037 201.79 141.693C205.111 142.349 208.552 142.006 211.678 140.706C214.804 139.406 217.474 137.208 219.35 134.39C221.226 131.572 222.224 128.26 222.217 124.875C222.208 120.343 220.402 116 217.194 112.798C213.986 109.597 209.639 107.798 205.107 107.798ZM205.107 143.014C201.52 143.014 198.013 141.951 195.03 139.957C192.047 137.964 189.721 135.131 188.349 131.817C186.976 128.502 186.616 124.855 187.316 121.336C188.016 117.817 189.744 114.585 192.281 112.048C194.818 109.511 198.05 107.784 201.569 107.084C205.087 106.384 208.734 106.743 212.049 108.116C215.364 109.489 218.197 111.814 220.19 114.797C222.183 117.78 223.247 121.287 223.247 124.875C223.238 129.683 221.324 134.292 217.924 137.692C214.524 141.092 209.916 143.006 205.107 143.014Z" fill="#A3A3A3"/>
<path d="M198.161 141.187C200.391 142.133 202.791 142.611 205.213 142.594C207.635 142.576 210.028 142.063 212.244 141.086C214.46 140.108 216.452 138.688 218.099 136.911C219.745 135.134 221.01 133.039 221.816 130.755H231.45C231.741 130.755 232.02 130.871 232.225 131.076C232.431 131.282 232.546 131.561 232.546 131.852V148.995C232.546 150.378 231.997 151.705 231.019 152.683C230.04 153.661 228.714 154.211 227.33 154.211H181.749C180.683 154.211 179.66 153.787 178.906 153.033C178.153 152.279 177.729 151.257 177.729 150.191V142.217C177.725 142.082 177.747 141.947 177.795 141.82C177.842 141.694 177.915 141.578 178.007 141.479C178.1 141.38 178.211 141.301 178.334 141.245C178.457 141.189 178.591 141.158 178.726 141.154H198.095L198.161 141.187Z" fill="#434343"/>
<path d="M178.26 142.416V150.19C178.253 150.649 178.341 151.104 178.518 151.528C178.695 151.951 178.958 152.332 179.29 152.649C179.607 152.981 179.989 153.244 180.412 153.421C180.835 153.599 181.29 153.686 181.749 153.679H227.297C228.54 153.677 229.733 153.188 230.619 152.317C231.054 151.88 231.398 151.361 231.631 150.791C231.865 150.221 231.984 149.611 231.981 148.994V131.852C231.981 131.702 231.922 131.558 231.816 131.452C231.71 131.346 231.566 131.287 231.417 131.287H222.148C221.285 133.594 219.964 135.702 218.265 137.485C216.565 139.268 214.522 140.688 212.259 141.659C209.996 142.631 207.559 143.134 205.096 143.139C202.633 143.143 200.195 142.649 197.928 141.686H178.792C178.657 141.694 178.53 141.754 178.437 141.852C178.345 141.951 178.293 142.082 178.294 142.217C178.309 142.283 178.309 142.351 178.294 142.416H178.26ZM227.297 154.742H181.749C180.548 154.733 179.398 154.25 178.552 153.397C177.706 152.545 177.231 151.392 177.231 150.19V142.217C177.212 142.141 177.212 142.061 177.231 141.985C177.281 141.63 177.45 141.303 177.709 141.056C177.968 140.809 178.303 140.656 178.659 140.622H198.161C198.279 140.579 198.408 140.579 198.526 140.622C200.684 141.512 203 141.953 205.334 141.917C207.667 141.882 209.969 141.372 212.099 140.417C214.228 139.463 216.141 138.084 217.72 136.366C219.299 134.648 220.512 132.626 221.284 130.423C221.33 130.329 221.401 130.248 221.488 130.19C221.576 130.132 221.677 130.097 221.782 130.091H231.417C231.843 130.091 232.252 130.258 232.556 130.556C232.861 130.854 233.036 131.26 233.045 131.686V148.828C233.036 150.35 232.427 151.807 231.351 152.883C230.276 153.959 228.819 154.567 227.297 154.576" fill="#A3A3A3"/>
<path d="M177.733 302.283C177.598 302.275 177.471 302.215 177.378 302.116C177.286 302.018 177.234 301.887 177.234 301.752V225.971C177.234 225.906 177.247 225.841 177.272 225.78C177.297 225.72 177.334 225.665 177.38 225.619C177.427 225.572 177.482 225.536 177.542 225.511C177.602 225.486 177.667 225.473 177.733 225.473C177.868 225.472 177.999 225.524 178.097 225.616C178.196 225.709 178.256 225.836 178.264 225.971V301.752C178.264 301.893 178.208 302.028 178.109 302.128C178.009 302.227 177.874 302.283 177.733 302.283Z" fill="#A3A3A3"/>
<path d="M177.733 226.503C177.598 226.494 177.471 226.434 177.378 226.336C177.286 226.237 177.234 226.106 177.234 225.971V150.19C177.234 150.058 177.287 149.931 177.38 149.838C177.474 149.744 177.601 149.692 177.733 149.692C177.868 149.692 177.999 149.743 178.097 149.836C178.196 149.928 178.256 150.055 178.264 150.19V225.971C178.264 226.112 178.208 226.247 178.109 226.347C178.009 226.447 177.874 226.503 177.733 226.503Z" fill="#A3A3A3"/>
<path d="M232.546 303.512C232.405 303.512 232.27 303.457 232.17 303.357C232.071 303.257 232.015 303.122 232.015 302.981V225.971C232.015 225.83 232.071 225.695 232.17 225.595C232.27 225.495 232.405 225.439 232.546 225.439C232.687 225.439 232.822 225.495 232.922 225.595C233.022 225.695 233.078 225.83 233.078 225.971V302.981C233.078 303.122 233.022 303.257 232.922 303.357C232.822 303.457 232.687 303.512 232.546 303.512Z" fill="#A3A3A3"/>
<path d="M232.546 226.502C232.405 226.502 232.27 226.446 232.17 226.347C232.071 226.247 232.015 226.112 232.015 225.971V148.994C232.015 148.853 232.071 148.718 232.17 148.618C232.27 148.518 232.405 148.462 232.546 148.462C232.687 148.462 232.822 148.518 232.922 148.618C233.022 148.718 233.078 148.853 233.078 148.994V225.971C233.078 226.112 233.022 226.247 232.922 226.347C232.822 226.446 232.687 226.502 232.546 226.502Z" fill="#A3A3A3"/>
<path d="M182.982 95.4728H228.596C229.644 95.4753 230.647 95.8935 231.387 96.6355C231.76 96.9971 232.056 97.4311 232.256 97.911C232.456 98.3908 232.556 98.9065 232.55 99.4263V106.636C232.554 106.776 232.53 106.917 232.478 107.048C232.426 107.179 232.348 107.298 232.249 107.398C232.149 107.497 232.03 107.575 231.899 107.627C231.768 107.679 231.627 107.703 231.487 107.699H209.194C205.151 106.728 200.895 107.22 197.18 109.087C193.465 110.954 190.53 114.075 188.895 117.898H178.928C178.638 117.898 178.359 117.782 178.153 117.577C177.948 117.371 177.832 117.092 177.832 116.802V100.689C177.84 99.3069 178.388 97.983 179.36 97.001C179.849 96.5126 180.429 96.1261 181.068 95.8638C181.706 95.6014 182.391 95.4685 183.081 95.4728" fill="#434343"/>
<path d="M182.947 96.0045C182.331 96.0019 181.72 96.1209 181.15 96.3546C180.58 96.5884 180.062 96.9323 179.625 97.3666C178.754 98.2532 178.265 99.4459 178.263 100.689V116.802C178.263 116.952 178.322 117.095 178.428 117.201C178.534 117.307 178.678 117.367 178.827 117.367H188.562C190.283 113.552 193.272 110.451 197.021 108.592C200.77 106.732 205.048 106.229 209.126 107.167H231.485C231.558 107.179 231.632 107.173 231.701 107.15C231.771 107.127 231.834 107.089 231.886 107.037C231.938 106.985 231.977 106.922 231.999 106.852C232.022 106.782 232.028 106.708 232.017 106.636V99.4265C232.017 98.5453 231.667 97.7003 231.044 97.0773C230.421 96.4542 229.576 96.1042 228.695 96.1042L182.947 96.0045ZM188.894 118.43H178.927C178.715 118.43 178.505 118.387 178.309 118.305C178.113 118.223 177.936 118.103 177.788 117.951C177.639 117.799 177.522 117.62 177.444 117.422C177.366 117.225 177.328 117.014 177.332 116.802V100.689C177.333 99.1723 177.93 97.7166 178.994 96.6357C179.523 96.0984 180.154 95.6719 180.85 95.3809C181.546 95.09 182.292 94.9406 183.047 94.9414H228.695C229.879 94.9586 231.009 95.4366 231.847 96.274C232.684 97.1114 233.162 98.2423 233.18 99.4265V106.636C233.18 107.059 233.012 107.464 232.713 107.763C232.413 108.062 232.008 108.23 231.585 108.23H209.359C209.274 108.264 209.179 108.264 209.093 108.23C205.157 107.296 201.016 107.784 197.405 109.608C193.793 111.432 190.943 114.474 189.359 118.197C189.325 118.294 189.262 118.377 189.179 118.437C189.096 118.496 188.996 118.528 188.894 118.529" fill="#A3A3A3"/>
<path d="M181.385 141.486C181.334 141.491 181.283 141.485 181.235 141.469C181.187 141.452 181.142 141.426 181.105 141.392C181.067 141.357 181.037 141.315 181.017 141.269C180.997 141.222 180.986 141.172 180.986 141.121V137.799C180.986 137.693 181.028 137.591 181.103 137.517C181.178 137.442 181.279 137.4 181.385 137.4C181.436 137.4 181.486 137.41 181.533 137.431C181.58 137.451 181.621 137.481 181.656 137.518C181.69 137.556 181.716 137.6 181.733 137.649C181.749 137.697 181.755 137.748 181.75 137.799V141.121C181.75 141.218 181.712 141.311 181.643 141.379C181.575 141.448 181.482 141.486 181.385 141.486Z" fill="#A3A3A3"/>
<path d="M182.119 124.177H181.388V137.898H193.248C191.335 136.175 189.823 134.054 188.818 131.683C187.814 129.312 187.341 126.75 187.434 124.177H182.119Z" fill="#434343"/>
<path d="M181.75 137.499H192.282C190.608 135.794 189.288 133.774 188.399 131.555C187.509 129.337 187.068 126.965 187.099 124.576H181.75V137.499ZM193.245 138.296H181.385C181.279 138.296 181.178 138.254 181.103 138.18C181.028 138.105 180.986 138.004 180.986 137.898V124.177C180.986 124.071 181.028 123.97 181.103 123.895C181.178 123.82 181.279 123.778 181.385 123.778H187.432C187.478 123.755 187.529 123.743 187.581 123.743C187.633 123.743 187.684 123.755 187.731 123.778C187.764 123.864 187.764 123.959 187.731 124.044C187.64 126.531 188.093 129.009 189.057 131.304C190.021 133.598 191.473 135.656 193.312 137.333C193.34 137.408 193.34 137.491 193.312 137.566C193.328 137.607 193.335 137.651 193.334 137.695C193.332 137.74 193.322 137.783 193.303 137.824C193.285 137.864 193.258 137.9 193.225 137.93C193.193 137.96 193.154 137.983 193.113 137.997H192.946" fill="#A3A3A3"/>
<path d="M229.324 131.12C229.272 131.12 229.22 131.11 229.172 131.09C229.124 131.07 229.08 131.04 229.043 131.003C229.006 130.966 228.976 130.922 228.956 130.874C228.936 130.826 228.926 130.774 228.926 130.721V124.841C228.926 124.735 228.968 124.634 229.043 124.559C229.117 124.484 229.219 124.442 229.324 124.442C229.43 124.442 229.532 124.484 229.606 124.559C229.681 124.634 229.723 124.735 229.723 124.841V130.721C229.723 130.774 229.713 130.826 229.693 130.874C229.673 130.922 229.643 130.966 229.606 131.003C229.569 131.04 229.525 131.07 229.477 131.09C229.429 131.11 229.377 131.12 229.324 131.12Z" fill="#A3A3A3"/>
<path d="M223.412 124.842H229.326V111.553H221.485L217.997 112.915C221.049 116.176 222.747 120.475 222.748 124.941H223.379" fill="#434343"/>
<path d="M223.444 124.443H228.926V111.851H221.551L218.694 112.981C221.484 116.159 223.071 120.215 223.179 124.443H223.444ZM229.325 125.24H222.68C222.574 125.24 222.473 125.198 222.398 125.123C222.324 125.048 222.282 124.947 222.282 124.841C222.262 124.765 222.262 124.685 222.282 124.609C222.236 120.421 220.665 116.393 217.863 113.28C217.863 113.28 217.697 113.28 217.664 113.28C217.607 113.209 217.576 113.121 217.576 113.031C217.576 112.94 217.607 112.852 217.664 112.782H217.863L221.185 111.453H229.159C229.264 111.453 229.366 111.495 229.441 111.569C229.515 111.644 229.557 111.746 229.557 111.851V125.14C229.55 125.244 229.505 125.341 229.432 125.414C229.359 125.487 229.262 125.531 229.159 125.539" fill="#A3A3A3"/>
<path d="M177.733 335.672C177.598 335.664 177.471 335.604 177.378 335.505C177.286 335.406 177.234 335.276 177.234 335.141V309.759C177.234 309.623 177.286 309.493 177.378 309.394C177.471 309.295 177.598 309.236 177.733 309.227C177.874 309.227 178.009 309.283 178.109 309.383C178.208 309.482 178.264 309.618 178.264 309.759V335.141C178.264 335.282 178.208 335.417 178.109 335.517C178.009 335.616 177.874 335.672 177.733 335.672Z" fill="#A3A3A3"/>
<path d="M232.546 345.839C232.405 345.839 232.27 345.783 232.17 345.683C232.071 345.583 232.015 345.448 232.015 345.307V320.058C232.015 319.917 232.071 319.782 232.17 319.682C232.27 319.582 232.405 319.526 232.546 319.526C232.687 319.526 232.822 319.582 232.922 319.682C233.022 319.782 233.078 319.917 233.078 320.058V345.307C233.078 345.448 233.022 345.583 232.922 345.683C232.822 345.783 232.687 345.839 232.546 345.839Z" fill="#A3A3A3"/>
<path d="M205.108 344.709C208.6 344.715 212.015 343.685 214.921 341.749C217.828 339.813 220.094 337.059 221.433 333.834C222.773 330.609 223.125 327.059 222.445 323.634C221.765 320.209 220.085 317.062 217.615 314.593C215.146 312.124 212 310.443 208.575 309.764C205.15 309.084 201.6 309.436 198.375 310.775C195.15 312.115 192.395 314.381 190.459 317.287C188.523 320.193 187.493 323.609 187.5 327.101C187.5 329.413 187.955 331.703 188.84 333.839C189.725 335.975 191.022 337.916 192.657 339.551C194.292 341.186 196.233 342.483 198.37 343.368C200.506 344.253 202.796 344.709 205.108 344.709Z" fill="#D3D3D3"/>
<path d="M205.107 309.991C201.723 309.991 198.415 310.994 195.602 312.874C192.788 314.754 190.595 317.427 189.3 320.553C188.005 323.679 187.666 327.119 188.326 330.438C188.987 333.757 190.616 336.806 193.009 339.199C195.402 341.592 198.45 343.221 201.769 343.881C205.088 344.542 208.529 344.203 211.655 342.908C214.781 341.613 217.453 339.42 219.333 336.606C221.213 333.792 222.217 330.484 222.217 327.1C222.208 322.565 220.403 318.219 217.196 315.012C213.989 311.805 209.642 310 205.107 309.991ZM205.107 345.207C201.518 345.207 198.01 344.142 195.026 342.147C192.042 340.153 189.717 337.318 188.345 334.001C186.973 330.685 186.616 327.036 187.319 323.516C188.021 319.997 189.752 316.764 192.292 314.229C194.833 311.693 198.068 309.968 201.589 309.272C205.11 308.576 208.758 308.94 212.072 310.318C215.386 311.696 218.217 314.026 220.206 317.014C222.195 320.001 223.253 323.511 223.247 327.1C223.238 331.906 221.323 336.511 217.922 339.906C214.521 343.3 209.912 345.207 205.107 345.207Z" fill="#A3A3A3"/>
<path d="M198.161 310.788C200.388 309.832 202.787 309.344 205.21 309.355C207.634 309.365 210.029 309.874 212.247 310.849C214.466 311.824 216.46 313.245 218.106 315.023C219.752 316.802 221.015 318.9 221.816 321.187H231.45C231.741 321.187 232.02 321.071 232.225 320.866C232.431 320.66 232.546 320.381 232.546 320.091V302.981C232.55 302.295 232.417 301.616 232.154 300.983C231.892 300.35 231.505 299.775 231.018 299.293C230.538 298.803 229.964 298.415 229.331 298.152C228.697 297.889 228.016 297.758 227.33 297.765H181.749C180.691 297.766 179.677 298.184 178.925 298.928C178.549 299.296 178.25 299.735 178.045 300.22C177.839 300.705 177.732 301.225 177.729 301.752V309.758C177.725 309.894 177.747 310.028 177.795 310.155C177.842 310.282 177.915 310.398 178.007 310.496C178.1 310.595 178.211 310.675 178.334 310.73C178.457 310.786 178.591 310.817 178.726 310.821H198.095L198.161 310.788Z" fill="#434343"/>
<path d="M222.183 320.656H231.453C231.528 320.661 231.604 320.649 231.674 320.623C231.745 320.596 231.809 320.555 231.863 320.501C231.916 320.448 231.958 320.383 231.984 320.313C232.011 320.242 232.022 320.166 232.017 320.091V302.981C232.022 302.365 231.904 301.754 231.67 301.183C231.436 300.613 231.091 300.095 230.655 299.659C230.219 299.223 229.701 298.878 229.131 298.644C228.561 298.411 227.949 298.292 227.333 298.297H181.752C180.833 298.292 179.949 298.651 179.293 299.294C178.961 299.61 178.698 299.992 178.521 300.415C178.344 300.838 178.256 301.293 178.263 301.752V309.559C178.279 309.625 178.279 309.693 178.263 309.759C178.263 309.894 178.314 310.024 178.407 310.123C178.5 310.222 178.627 310.282 178.762 310.29H197.931C200.196 309.326 202.632 308.83 205.093 308.832C207.555 308.834 209.99 309.335 212.253 310.303C214.516 311.272 216.559 312.688 218.26 314.467C219.961 316.247 221.285 318.352 222.15 320.656H222.183ZM231.419 321.719H221.785C221.675 321.713 221.57 321.675 221.481 321.61C221.393 321.545 221.325 321.456 221.287 321.353C220.511 319.154 219.296 317.135 217.716 315.42C216.135 313.706 214.222 312.331 212.093 311.38C209.963 310.428 207.662 309.921 205.331 309.888C202.999 309.855 200.684 310.297 198.529 311.187C198.412 311.234 198.281 311.234 198.164 311.187H178.662C178.301 311.166 177.96 311.017 177.698 310.768C177.437 310.518 177.272 310.184 177.233 309.825C177.218 309.76 177.218 309.691 177.233 309.626V301.619C177.215 301.004 177.324 300.391 177.552 299.82C177.781 299.248 178.125 298.73 178.562 298.297C178.99 297.853 179.508 297.504 180.08 297.275C180.653 297.046 181.268 296.941 181.884 296.968H227.3C228.821 296.977 230.278 297.585 231.354 298.661C232.43 299.737 233.039 301.194 233.047 302.715V319.825C233.047 320.257 232.876 320.671 232.571 320.976C232.265 321.281 231.851 321.453 231.419 321.453" fill="#A3A3A3"/>
<path d="M182.982 356.502H228.596C229.642 356.494 230.643 356.074 231.382 355.335C232.122 354.595 232.541 353.595 232.55 352.549V345.34C232.55 345.204 232.524 345.07 232.473 344.944C232.422 344.819 232.346 344.705 232.251 344.609C232.149 344.511 232.03 344.434 231.899 344.383C231.767 344.331 231.627 344.306 231.487 344.31H209.194C205.151 345.28 200.895 344.788 197.18 342.921C193.465 341.055 190.53 337.933 188.895 334.11H178.928C178.786 334.106 178.644 334.13 178.511 334.182C178.378 334.233 178.257 334.311 178.155 334.41C178.053 334.509 177.972 334.628 177.916 334.759C177.861 334.89 177.832 335.031 177.832 335.173V351.32C177.832 352.007 177.968 352.688 178.232 353.323C178.497 353.958 178.884 354.535 179.371 355.02C179.859 355.504 180.438 355.888 181.075 356.148C181.712 356.408 182.393 356.54 183.081 356.536" fill="#434343"/>
<path d="M178.829 334.609C178.685 334.609 178.546 334.664 178.441 334.762C178.336 334.861 178.273 334.997 178.264 335.141V351.287C178.26 351.903 178.378 352.514 178.612 353.085C178.846 353.655 179.191 354.173 179.627 354.609C180.062 355.045 180.581 355.39 181.151 355.624C181.721 355.857 182.332 355.976 182.949 355.971H228.597C229.478 355.971 230.323 355.621 230.946 354.998C231.569 354.375 231.919 353.53 231.919 352.649V345.44C231.965 345.322 231.965 345.192 231.919 345.074C231.813 344.968 231.67 344.908 231.52 344.908H209.195C205.111 345.855 200.826 345.356 197.07 343.496C193.313 341.636 190.319 338.53 188.597 334.709L178.829 334.609ZM228.663 357.001H182.949C182.197 357.005 181.452 356.861 180.757 356.575C180.061 356.289 179.43 355.869 178.898 355.337C178.367 354.806 177.946 354.174 177.661 353.479C177.375 352.783 177.23 352.038 177.234 351.287V335.141C177.234 334.718 177.403 334.312 177.702 334.013C178.001 333.714 178.406 333.546 178.829 333.546H188.796C188.898 333.547 188.998 333.579 189.081 333.639C189.164 333.698 189.227 333.782 189.261 333.878C190.84 337.605 193.689 340.652 197.302 342.477C200.915 344.302 205.058 344.786 208.995 343.845H231.387C231.597 343.844 231.805 343.885 231.998 343.965C232.192 344.045 232.368 344.162 232.517 344.31C232.811 344.6 232.978 344.994 232.982 345.406V352.483C232.983 353.071 232.867 353.654 232.638 354.196C232.41 354.738 232.075 355.229 231.653 355.639C231.238 356.052 230.746 356.379 230.204 356.601C229.662 356.823 229.082 356.937 228.497 356.935" fill="#A3A3A3"/>
<path d="M181.385 314.476C181.279 314.476 181.178 314.435 181.103 314.36C181.028 314.285 180.986 314.184 180.986 314.078V310.756C180.986 310.65 181.028 310.548 181.103 310.474C181.178 310.399 181.279 310.357 181.385 310.357C181.485 310.365 181.578 310.411 181.646 310.485C181.713 310.559 181.751 310.655 181.75 310.756V314.078C181.751 314.178 181.713 314.275 181.646 314.349C181.578 314.422 181.485 314.468 181.385 314.476Z" fill="#A3A3A3"/>
<path d="M182.119 327.798H181.388V314.077H193.248C191.347 315.806 189.847 317.93 188.854 320.301C187.861 322.671 187.399 325.23 187.501 327.798H182.119Z" fill="#434343"/>
<path d="M181.75 327.4H187.099C187.06 325.009 187.498 322.635 188.388 320.416C189.278 318.196 190.602 316.177 192.282 314.476H181.75V327.4ZM187.498 328.197H181.385C181.279 328.197 181.178 328.155 181.103 328.08C181.028 328.005 180.986 327.904 180.986 327.798V314.077C180.986 313.972 181.028 313.87 181.103 313.795C181.178 313.721 181.279 313.679 181.385 313.679H193.245C193.351 313.679 193.453 313.721 193.527 313.795C193.602 313.87 193.644 313.972 193.644 314.077C193.643 314.137 193.627 314.195 193.598 314.247C193.569 314.3 193.528 314.344 193.478 314.376C191.644 316.058 190.196 318.116 189.232 320.41C188.269 322.704 187.813 325.179 187.897 327.665C187.935 327.761 187.935 327.868 187.897 327.964C187.8 328 187.694 328 187.598 327.964" fill="#A3A3A3"/>
<path d="M229.324 327.533C229.219 327.533 229.117 327.491 229.043 327.416C228.968 327.341 228.926 327.24 228.926 327.134V321.22C228.926 321.115 228.968 321.013 229.043 320.939C229.117 320.864 229.219 320.822 229.324 320.822C229.428 320.829 229.525 320.874 229.598 320.947C229.671 321.02 229.716 321.117 229.723 321.22V327.134C229.716 327.237 229.671 327.334 229.598 327.407C229.525 327.481 229.428 327.525 229.324 327.533Z" fill="#A3A3A3"/>
<path d="M223.412 327.134H229.326V340.423H221.485L217.997 339.194C221.043 335.929 222.74 331.632 222.748 327.167H223.379" fill="#434343"/>
<path d="M221.553 340.091H228.929V327.533H223.181C223.073 331.76 221.486 335.816 218.696 338.994L221.553 340.091ZM229.328 340.888H221.354L218.032 339.559C217.995 339.575 217.956 339.583 217.916 339.583C217.876 339.583 217.836 339.575 217.799 339.559C217.743 339.488 217.712 339.401 217.712 339.31C217.712 339.219 217.743 339.132 217.799 339.061C220.673 335.942 222.294 331.872 222.351 327.632C222.331 327.556 222.331 327.476 222.351 327.4C222.351 327.294 222.393 327.192 222.468 327.118C222.542 327.043 222.644 327.001 222.75 327.001H229.394C229.5 327.001 229.601 327.043 229.676 327.118C229.751 327.192 229.793 327.294 229.793 327.4V340.689C229.793 340.794 229.751 340.896 229.676 340.971C229.601 341.045 229.5 341.087 229.394 341.087" fill="#A3A3A3"/>
<path d="M148.661 348.031C148.616 348.036 148.571 348.031 148.528 348.017C148.486 348.002 148.447 347.977 148.415 347.945C148.383 347.913 148.358 347.875 148.344 347.832C148.329 347.789 148.324 347.744 148.329 347.699V237.3C148.329 237.256 148.338 237.213 148.355 237.173C148.371 237.133 148.396 237.096 148.426 237.065C148.457 237.034 148.494 237.01 148.534 236.993C148.575 236.976 148.618 236.968 148.661 236.968C148.744 236.976 148.82 237.015 148.875 237.076C148.93 237.138 148.961 237.217 148.96 237.3V347.699C148.965 347.741 148.961 347.783 148.948 347.823C148.935 347.864 148.914 347.901 148.886 347.932C148.857 347.963 148.823 347.988 148.784 348.005C148.745 348.022 148.704 348.031 148.661 348.031Z" fill="#A3A3A3"/>
<path d="M148.66 215.506C148.617 215.506 148.573 215.497 148.533 215.481C148.493 215.464 148.456 215.44 148.425 215.409C148.395 215.378 148.37 215.341 148.353 215.301C148.337 215.261 148.328 215.217 148.328 215.174V103.911C148.328 103.868 148.337 103.824 148.353 103.784C148.37 103.744 148.395 103.707 148.425 103.676C148.456 103.646 148.493 103.621 148.533 103.604C148.573 103.588 148.617 103.579 148.66 103.579C148.743 103.587 148.819 103.626 148.874 103.687C148.929 103.749 148.96 103.829 148.959 103.911V215.174C148.96 215.256 148.929 215.336 148.874 215.398C148.819 215.459 148.743 215.498 148.66 215.506Z" fill="#A3A3A3"/>
<path d="M145.737 230.39H148.295C148.924 230.416 149.553 230.338 150.156 230.157C150.553 230.046 150.918 229.841 151.219 229.559C151.627 229.122 151.933 228.6 152.116 228.031C152.333 227.275 152.434 226.491 152.415 225.705C152.466 224.707 152.26 223.711 151.817 222.815C151.458 222.224 150.924 221.759 150.289 221.486C149.634 221.278 148.948 221.188 148.262 221.22H145.737V230.39ZM144.143 231.785V219.825H148.262C148.986 219.796 149.711 219.851 150.422 219.991C151.061 220.128 151.656 220.425 152.149 220.855C152.799 221.39 153.292 222.09 153.578 222.881C153.912 223.796 154.07 224.765 154.043 225.739C154.054 226.557 153.954 227.373 153.744 228.164C153.562 228.781 153.281 229.364 152.913 229.891C152.326 230.765 151.419 231.373 150.388 231.586C149.756 231.726 149.109 231.793 148.461 231.785H144.143Z" fill="#A3A3A3"/>
<path d="M176.701 95.8051H145.671C145.626 95.8104 145.581 95.8055 145.538 95.7907C145.495 95.7759 145.457 95.7516 145.425 95.7196C145.393 95.6876 145.368 95.6488 145.353 95.606C145.339 95.5633 145.334 95.5178 145.339 95.4728C145.339 95.3847 145.374 95.3002 145.436 95.2379C145.499 95.1756 145.583 95.1406 145.671 95.1406H176.701C176.789 95.1406 176.874 95.1756 176.936 95.2379C176.998 95.3002 177.033 95.3847 177.033 95.4728C177.039 95.5178 177.034 95.5633 177.019 95.606C177.004 95.6488 176.98 95.6876 176.948 95.7196C176.916 95.7516 176.877 95.7759 176.834 95.7907C176.792 95.8055 176.746 95.8104 176.701 95.8051Z" fill="#A3A3A3"/>
<path d="M176.635 356.602H145.671C145.583 356.602 145.499 356.567 145.436 356.505C145.374 356.442 145.339 356.358 145.339 356.27C145.334 356.225 145.339 356.179 145.353 356.137C145.368 356.094 145.393 356.055 145.425 356.023C145.457 355.991 145.495 355.967 145.538 355.952C145.581 355.937 145.626 355.932 145.671 355.938H176.635C176.723 355.938 176.807 355.973 176.87 356.035C176.932 356.097 176.967 356.182 176.967 356.27C176.959 356.355 176.922 356.436 176.861 356.496C176.801 356.557 176.72 356.595 176.635 356.602Z" fill="#A3A3A3"/>
<path d="M225.04 63.1474H213.645C213.557 63.1474 213.472 63.1124 213.41 63.0501C213.347 62.9878 213.312 62.9032 213.312 62.8151C213.312 62.727 213.347 62.6425 213.41 62.5802C213.472 62.5179 213.557 62.4829 213.645 62.4829H225.04C225.128 62.4829 225.213 62.5179 225.275 62.5802C225.337 62.6425 225.372 62.727 225.372 62.8151C225.372 62.9032 225.337 62.9878 225.275 63.0501C225.213 63.1124 225.128 63.1474 225.04 63.1474Z" fill="#A3A3A3"/>
<path d="M196.201 63.1474H185.536C185.448 63.1474 185.364 63.1124 185.301 63.0501C185.239 62.9878 185.204 62.9032 185.204 62.8151C185.204 62.727 185.239 62.6425 185.301 62.5802C185.364 62.5179 185.448 62.4829 185.536 62.4829H196.201C196.289 62.4829 196.373 62.5179 196.436 62.5802C196.498 62.6425 196.533 62.727 196.533 62.8151C196.533 62.9032 196.498 62.9878 196.436 63.0501C196.373 63.1124 196.289 63.1474 196.201 63.1474Z" fill="#A3A3A3"/>
<path d="M202.28 67.5657H205.27C205.623 67.6098 205.98 67.6098 206.333 67.5657C206.656 67.5124 206.97 67.4117 207.264 67.2667C207.512 67.0813 207.716 66.843 207.862 66.569C208.031 66.2651 208.111 65.9198 208.094 65.5724C208.107 65.1597 207.99 64.7534 207.762 64.4096C207.526 64.0778 207.187 63.8328 206.798 63.7119C206.225 63.5579 205.631 63.4907 205.038 63.5125H202.28V67.5657ZM202.28 62.0508H204.872C205.367 62.124 205.871 62.124 206.367 62.0508C206.74 61.9745 207.072 61.7612 207.297 61.4528C207.503 61.1499 207.608 60.7892 207.596 60.4228C207.604 60.0466 207.5 59.6765 207.297 59.3597C207.119 59.0645 206.833 58.8501 206.499 58.7617C205.905 58.5994 205.288 58.5321 204.672 58.5624H202.28V62.0508ZM200.719 68.9943V57.0009H205.204C205.962 56.9771 206.718 57.1012 207.43 57.3664C207.968 57.5991 208.421 57.9939 208.725 58.496C209.019 58.9648 209.18 59.5044 209.19 60.0574C209.196 60.577 209.046 61.0863 208.759 61.5192C208.447 61.982 208.025 62.3591 207.529 62.6156C208.178 62.7936 208.757 63.1643 209.19 63.6787C209.578 64.2072 209.777 64.8508 209.755 65.5059C209.773 66.0457 209.659 66.5816 209.423 67.0674C209.227 67.5152 208.918 67.9044 208.526 68.1969C208.143 68.4878 207.7 68.6918 207.23 68.795C206.599 68.9395 205.952 69.0064 205.303 68.9943H200.719Z" fill="#A3A3A3"/>
<path d="M178.194 93.878C178.149 93.8834 178.103 93.8784 178.06 93.8636C178.018 93.8488 177.979 93.8245 177.947 93.7925C177.915 93.7605 177.891 93.7217 177.876 93.679C177.861 93.6362 177.856 93.5907 177.861 93.5458V58.8614C177.861 58.8192 177.87 58.7774 177.887 58.7388C177.904 58.7001 177.929 58.6655 177.96 58.6373C177.992 58.6091 178.029 58.5878 178.069 58.5749C178.109 58.562 178.152 58.5577 178.194 58.5624C178.276 58.562 178.356 58.5924 178.418 58.6477C178.479 58.703 178.518 58.7792 178.526 58.8614V93.5458C178.526 93.6339 178.491 93.7184 178.429 93.7807C178.366 93.843 178.282 93.878 178.194 93.878Z" fill="#A3A3A3"/>
<path d="M232.384 94.8084C232.342 94.8131 232.3 94.8088 232.259 94.7959C232.219 94.783 232.182 94.7617 232.151 94.7335C232.119 94.7052 232.094 94.6706 232.077 94.632C232.06 94.5934 232.052 94.5516 232.052 94.5094V58.8615C232.052 58.7734 232.087 58.6889 232.149 58.6266C232.211 58.5643 232.296 58.5293 232.384 58.5293C232.47 58.5368 232.55 58.5742 232.611 58.635C232.671 58.6957 232.709 58.7759 232.716 58.8615V94.5094C232.708 94.5916 232.669 94.6678 232.608 94.7231C232.547 94.7784 232.467 94.8088 232.384 94.8084Z" fill="#A3A3A3"/>
<path d="M266.667 291.453C266.622 291.459 266.577 291.454 266.534 291.439C266.491 291.424 266.453 291.4 266.421 291.368C266.389 291.336 266.364 291.297 266.349 291.254C266.335 291.211 266.33 291.166 266.335 291.121V236.736C266.335 236.647 266.37 236.563 266.432 236.501C266.495 236.438 266.579 236.403 266.667 236.403C266.753 236.411 266.833 236.448 266.894 236.509C266.955 236.57 266.992 236.65 267 236.736V291.121C267 291.209 266.965 291.294 266.902 291.356C266.84 291.418 266.755 291.453 266.667 291.453Z" fill="#A3A3A3"/>
<path d="M266.666 215.24C266.578 215.24 266.494 215.205 266.431 215.143C266.369 215.08 266.334 214.996 266.334 214.908V165.938C266.334 165.895 266.342 165.854 266.36 165.815C266.377 165.776 266.402 165.742 266.433 165.713C266.464 165.685 266.501 165.664 266.542 165.651C266.582 165.638 266.624 165.634 266.666 165.639C266.749 165.638 266.829 165.669 266.89 165.724C266.952 165.779 266.99 165.855 266.998 165.938V214.908C266.991 214.993 266.954 215.074 266.893 215.134C266.832 215.195 266.752 215.232 266.666 215.24Z" fill="#A3A3A3"/>
<path d="M263.444 227.466C263.376 228.353 263.623 229.235 264.141 229.958C264.336 230.215 264.586 230.424 264.875 230.568C265.163 230.712 265.48 230.787 265.802 230.789C266.117 230.789 266.427 230.717 266.709 230.579C266.991 230.44 267.238 230.24 267.43 229.991C267.932 229.3 268.168 228.451 268.095 227.599C268.163 226.676 267.93 225.755 267.43 224.975C267.231 224.725 266.978 224.524 266.691 224.386C266.403 224.247 266.088 224.176 265.769 224.176C265.45 224.176 265.135 224.247 264.848 224.386C264.56 224.524 264.307 224.725 264.108 224.975C263.621 225.722 263.399 226.611 263.477 227.5L263.444 227.466ZM268.128 231.819V230.722C267.875 231.134 267.517 231.471 267.091 231.698C266.665 231.926 266.186 232.036 265.703 232.018C265.018 232.033 264.344 231.836 263.776 231.453C263.183 231.067 262.72 230.511 262.447 229.858C262.104 229.12 261.933 228.314 261.949 227.5C261.932 226.692 262.079 225.89 262.38 225.141C262.649 224.486 263.098 223.921 263.676 223.513C264.263 223.142 264.942 222.946 265.636 222.948C266.12 222.956 266.596 223.069 267.032 223.28C267.414 223.504 267.752 223.797 268.028 224.144V219.858H269.49V231.819H268.128Z" fill="#A3A3A3"/>
<path d="M269.556 154.642H235.47C235.425 154.647 235.38 154.642 235.337 154.627C235.294 154.613 235.255 154.588 235.223 154.556C235.191 154.524 235.167 154.486 235.152 154.443C235.137 154.4 235.132 154.355 235.138 154.31C235.138 154.267 235.146 154.226 235.163 154.187C235.18 154.148 235.206 154.114 235.237 154.086C235.268 154.057 235.305 154.036 235.345 154.023C235.386 154.01 235.428 154.006 235.47 154.011H269.556C269.636 154.011 269.712 154.042 269.768 154.098C269.824 154.154 269.855 154.23 269.855 154.31C269.86 154.352 269.856 154.394 269.843 154.434C269.83 154.474 269.809 154.512 269.781 154.543C269.752 154.574 269.718 154.599 269.679 154.616C269.64 154.633 269.599 154.642 269.556 154.642Z" fill="#A3A3A3"/>
<path d="M269.557 298.164H235.969C235.927 298.164 235.885 298.156 235.846 298.138C235.808 298.121 235.773 298.096 235.745 298.065C235.716 298.034 235.695 297.997 235.682 297.956C235.669 297.916 235.665 297.874 235.67 297.832C235.67 297.752 235.701 297.676 235.757 297.62C235.813 297.564 235.89 297.533 235.969 297.533H269.557C269.636 297.533 269.712 297.564 269.768 297.62C269.824 297.676 269.856 297.752 269.856 297.832C269.861 297.874 269.856 297.916 269.844 297.956C269.831 297.997 269.809 298.034 269.781 298.065C269.753 298.096 269.718 298.121 269.679 298.138C269.641 298.156 269.599 298.164 269.557 298.164Z" fill="#A3A3A3"/>
<path d="M220.62 64.4761L232.381 62.8149L220.62 61.1538V64.4761Z" fill="#A3A3A3"/>
<path d="M178.195 62.8149L189.923 64.4761V61.1538L178.195 62.8149Z" fill="#A3A3A3"/>
<path d="M146.998 107.233H150.287L148.626 95.4727L146.998 107.233Z" fill="#A3A3A3"/>
<path d="M265.009 166.07H268.331L266.67 154.31L265.009 166.07Z" fill="#A3A3A3"/>
<path d="M265.009 286.104L266.67 297.832L268.331 286.104H265.009Z" fill="#A3A3A3"/>
<path d="M146.998 344.509L148.626 356.27L150.287 344.509H146.998Z" fill="#A3A3A3"/>
<circle opacity="0.3" cx="207" cy="207" r="206.65" stroke="white" stroke-width="0.7"/>
</svg>
