<svg width="414" height="414" viewBox="0 0 414 414" fill="none" xmlns="http://www.w3.org/2000/svg">
<path d="M130.158 348.447C130.072 348.447 129.989 348.412 129.928 348.352C129.866 348.291 129.832 348.208 129.832 348.122V236.043C129.832 235.957 129.866 235.875 129.928 235.814C129.989 235.753 130.072 235.719 130.158 235.719C130.245 235.719 130.328 235.753 130.389 235.814C130.45 235.875 130.485 235.957 130.485 236.043V348.122C130.485 348.208 130.45 348.291 130.389 348.352C130.328 348.412 130.245 348.447 130.158 348.447Z" fill="#A3A3A3"/>
<path d="M130.154 215.928C130.108 215.928 130.063 215.919 130.022 215.901C129.98 215.883 129.943 215.856 129.912 215.823C129.881 215.789 129.858 215.75 129.843 215.707C129.829 215.664 129.823 215.619 129.828 215.574V102.669C129.828 102.583 129.862 102.501 129.923 102.44C129.984 102.379 130.067 102.345 130.154 102.345C130.24 102.345 130.324 102.379 130.385 102.44C130.446 102.501 130.48 102.583 130.48 102.669V215.722C130.484 215.767 130.479 215.812 130.465 215.855C130.45 215.898 130.427 215.937 130.396 215.97C130.365 216.004 130.328 216.03 130.286 216.048C130.244 216.066 130.199 216.076 130.154 216.075" fill="#A3A3A3"/>
<path d="M128.521 106.651L130.153 94.853L131.815 106.651H128.521Z" fill="#A3A3A3"/>
<path d="M131.815 344.76L130.153 356.528L128.521 344.76H131.815Z" fill="#A3A3A3"/>
<path d="M187.536 94.7939H126.623C126.537 94.7939 126.454 94.7597 126.392 94.6989C126.331 94.638 126.297 94.5555 126.297 94.4695C126.297 94.3834 126.331 94.3009 126.392 94.24C126.454 94.1792 126.537 94.145 126.623 94.145H187.655C187.741 94.145 187.824 94.1792 187.886 94.24C187.947 94.3009 187.981 94.3834 187.981 94.4695C187.981 94.5555 187.947 94.638 187.886 94.6989C187.824 94.7597 187.741 94.7939 187.655 94.7939" fill="#A3A3A3"/>
<path d="M187.002 356.794H126.623C126.537 356.794 126.454 356.76 126.392 356.699C126.331 356.638 126.297 356.556 126.297 356.469C126.297 356.383 126.331 356.301 126.392 356.24C126.454 356.179 126.537 356.145 126.623 356.145H187.121C187.207 356.145 187.29 356.179 187.351 356.24C187.413 356.301 187.447 356.383 187.447 356.469C187.447 356.556 187.413 356.638 187.351 356.699C187.29 356.76 187.207 356.794 187.121 356.794" fill="#A3A3A3"/>
<path d="M244.088 62.0551H227.502C227.416 62.0551 227.333 62.0209 227.271 61.9601C227.21 61.8993 227.176 61.8167 227.176 61.7307C227.176 61.6446 227.21 61.5621 227.271 61.5013C227.333 61.4404 227.416 61.4062 227.502 61.4063H243.999C244.085 61.4062 244.168 61.4404 244.23 61.5013C244.291 61.5621 244.325 61.6446 244.325 61.7307C244.325 61.8167 244.291 61.8993 244.23 61.9601C244.168 62.0209 244.085 62.0551 243.999 62.0551" fill="#A3A3A3"/>
<path d="M212.044 62.0551H196.112C196.025 62.0551 195.942 62.0209 195.881 61.9601C195.82 61.8993 195.785 61.8167 195.785 61.7307C195.785 61.6446 195.82 61.5621 195.881 61.5013C195.942 61.4404 196.025 61.4062 196.112 61.4063H212.044C212.131 61.4062 212.214 61.4404 212.275 61.5013C212.336 61.5621 212.371 61.6446 212.371 61.7307C212.371 61.8167 212.336 61.8993 212.275 61.9601C212.214 62.0209 212.131 62.0551 212.044 62.0551" fill="#A3A3A3"/>
<path d="M201.184 63.353L189.316 61.7013L201.184 60.0791V63.353Z" fill="#A3A3A3"/>
<path d="M239.281 60.0791L251.149 61.7013L239.281 63.353V60.0791Z" fill="#A3A3A3"/>
<path d="M189.319 92.8181C189.276 92.8181 189.233 92.8097 189.194 92.7933C189.154 92.777 189.118 92.7532 189.088 92.723C189.057 92.6929 189.033 92.6571 189.017 92.6178C189.001 92.5784 188.992 92.5362 188.992 92.4936V58.28C188.992 58.194 189.027 58.1114 189.088 58.0506C189.149 57.9898 189.232 57.9556 189.319 57.9556C189.405 57.9556 189.488 57.9898 189.549 58.0506C189.611 58.1114 189.645 58.194 189.645 58.28V92.4936C189.645 92.5797 189.611 92.6622 189.549 92.723C189.488 92.7839 189.405 92.8181 189.319 92.8181Z" fill="#A3A3A3"/>
<path d="M251.238 92.8181C251.152 92.8181 251.069 92.7839 251.008 92.723C250.946 92.6622 250.912 92.5797 250.912 92.4936V58.28C250.912 58.194 250.946 58.1114 251.008 58.0506C251.069 57.9898 251.152 57.9556 251.238 57.9556C251.325 57.9556 251.408 57.9898 251.469 58.0506C251.53 58.1114 251.565 58.194 251.565 58.28V92.4936C251.565 92.5797 251.53 92.6622 251.469 92.723C251.408 92.7839 251.325 92.8181 251.238 92.8181Z" fill="#A3A3A3"/>
<path d="M284.084 289.458C284.041 289.458 283.999 289.45 283.959 289.433C283.92 289.417 283.884 289.393 283.853 289.363C283.823 289.333 283.799 289.297 283.783 289.258C283.766 289.218 283.758 289.176 283.758 289.134V235.778C283.758 235.692 283.792 235.609 283.853 235.549C283.915 235.488 283.998 235.454 284.084 235.454C284.171 235.454 284.254 235.488 284.315 235.549C284.376 235.609 284.411 235.692 284.411 235.778V289.163C284.411 289.249 284.376 289.332 284.315 289.392C284.254 289.453 284.171 289.487 284.084 289.487" fill="#A3A3A3"/>
<path d="M284.087 215.928C284.038 215.912 283.994 215.885 283.958 215.849C283.922 215.814 283.895 215.77 283.879 215.722V162.632C283.879 162.546 283.913 162.463 283.975 162.402C284.036 162.341 284.119 162.307 284.205 162.307C284.292 162.307 284.375 162.341 284.436 162.402C284.497 162.463 284.532 162.546 284.532 162.632V215.722C284.536 215.767 284.53 215.812 284.516 215.855C284.501 215.898 284.478 215.937 284.447 215.97C284.416 216.004 284.379 216.03 284.337 216.048C284.296 216.066 284.251 216.076 284.205 216.076" fill="#A3A3A3"/>
<path d="M282.426 166.112L284.087 154.314L285.749 166.112H282.426Z" fill="#A3A3A3"/>
<path d="M285.749 285.476L284.087 296.654L282.426 285.476H285.749Z" fill="#A3A3A3"/>
<path d="M287.375 154.668H253.64C253.595 154.668 253.55 154.659 253.508 154.64C253.466 154.622 253.429 154.596 253.398 154.562C253.368 154.529 253.344 154.49 253.33 154.447C253.315 154.404 253.31 154.359 253.314 154.314C253.314 154.228 253.348 154.145 253.409 154.084C253.471 154.023 253.554 153.989 253.64 153.989H287.375C287.462 153.989 287.545 154.023 287.606 154.084C287.667 154.145 287.702 154.228 287.702 154.314C287.706 154.359 287.7 154.404 287.686 154.447C287.671 154.49 287.648 154.529 287.617 154.562C287.586 154.596 287.549 154.622 287.507 154.64C287.466 154.659 287.421 154.668 287.375 154.668" fill="#A3A3A3"/>
<path d="M287.375 297.008H253.64C253.554 297.008 253.471 296.974 253.409 296.913C253.348 296.853 253.314 296.77 253.314 296.684C253.31 296.639 253.315 296.594 253.33 296.551C253.344 296.508 253.368 296.469 253.398 296.435C253.429 296.402 253.466 296.375 253.508 296.357C253.55 296.339 253.595 296.33 253.64 296.33H287.375C287.421 296.33 287.466 296.339 287.507 296.357C287.549 296.375 287.586 296.402 287.617 296.435C287.648 296.469 287.671 296.508 287.686 296.551C287.7 296.594 287.706 296.639 287.702 296.684C287.702 296.77 287.667 296.853 287.606 296.913C287.545 296.974 287.462 297.008 287.375 297.008Z" fill="#A3A3A3"/>
<path d="M218.602 225.897H182.998C182.912 225.897 182.829 225.863 182.767 225.802C182.706 225.741 182.672 225.659 182.672 225.572C182.672 225.486 182.706 225.404 182.767 225.343C182.829 225.282 182.912 225.248 182.998 225.248H218.602C218.689 225.248 218.772 225.282 218.833 225.343C218.894 225.404 218.929 225.486 218.929 225.572C218.929 225.659 218.894 225.741 218.833 225.802C218.772 225.863 218.689 225.897 218.602 225.897V225.897ZM222.549 225.897H221.243C221.157 225.897 221.074 225.863 221.012 225.802C220.951 225.741 220.917 225.659 220.917 225.572C220.917 225.486 220.951 225.404 221.012 225.343C221.074 225.282 221.157 225.248 221.243 225.248H222.549C222.635 225.248 222.718 225.282 222.779 225.343C222.841 225.404 222.875 225.486 222.875 225.572C222.875 225.659 222.841 225.741 222.779 225.802C222.718 225.863 222.635 225.897 222.549 225.897V225.897ZM257.055 225.897H225.13C225.043 225.897 224.96 225.863 224.899 225.802C224.838 225.741 224.804 225.659 224.804 225.572C224.804 225.486 224.838 225.404 224.899 225.343C224.96 225.282 225.043 225.248 225.13 225.248H256.996C257.082 225.248 257.165 225.282 257.226 225.343C257.288 225.404 257.322 225.486 257.322 225.572C257.322 225.659 257.288 225.741 257.226 225.802C257.165 225.863 257.082 225.897 256.996 225.897" fill="#A3A3A3"/>
<path d="M189.851 148.238H188.783V225.573H189.851V148.238Z" fill="#A3A3A3"/>
<path d="M251.685 148.238H250.617V225.573H251.685V148.238Z" fill="#A3A3A3"/>
<path d="M189.851 225.455H188.783V302.789H189.851V225.455Z" fill="#A3A3A3"/>
<path d="M251.656 225.455H250.617V302.789H251.656V225.455Z" fill="#A3A3A3"/>
<path d="M197.302 112.255H194.127V112.786H197.302V112.255Z" fill="#A3A3A3"/>
<path d="M239.969 117.652H236.408C237.348 119.833 237.833 122.181 237.833 124.554C237.833 126.927 237.348 129.275 236.408 131.456H239.998C240.796 129.241 241.208 126.907 241.215 124.554C241.204 122.197 240.772 119.86 239.939 117.652" fill="#434343"/>
<path d="M237.029 131.072H239.759C240.481 128.974 240.851 126.772 240.857 124.554C240.857 122.328 240.455 120.12 239.67 118.036H236.97C238.592 122.232 238.592 126.876 236.97 131.072H237.029ZM239.937 131.869H236.406C236.278 131.853 236.162 131.79 236.08 131.692C236.051 131.632 236.036 131.566 236.036 131.5C236.036 131.434 236.051 131.368 236.08 131.308C236.975 129.167 237.439 126.873 237.444 124.554C237.415 122.232 236.931 119.938 236.02 117.8C235.982 117.749 235.961 117.687 235.961 117.623C235.961 117.559 235.982 117.497 236.02 117.446C236.05 117.387 236.097 117.338 236.156 117.307C236.214 117.275 236.281 117.262 236.347 117.269H239.937C240.013 117.269 240.087 117.291 240.151 117.333C240.214 117.375 240.263 117.435 240.293 117.505C241.162 119.754 241.605 122.144 241.598 124.554C241.599 126.955 241.188 129.34 240.382 131.603C240.352 131.681 240.299 131.748 240.23 131.795C240.161 131.843 240.08 131.868 239.996 131.869" fill="#A3A3A3"/>
<path d="M200.415 117.652H204.035C203.095 119.833 202.61 122.181 202.61 124.554C202.61 126.927 203.095 129.275 204.035 131.456H200.445C199.647 129.241 199.235 126.907 199.228 124.554C199.195 122.201 199.597 119.861 200.415 117.652Z" fill="#434343"/>
<path d="M200.803 131.072H203.533C202.754 128.986 202.352 126.779 202.346 124.554C202.359 122.324 202.781 120.115 203.592 118.036H200.773C200.05 120.132 199.699 122.338 199.735 124.554C199.73 126.77 200.091 128.972 200.803 131.072V131.072ZM204.126 131.869H200.536C200.452 131.868 200.371 131.843 200.302 131.795C200.233 131.748 200.18 131.681 200.15 131.603C199.344 129.34 198.932 126.955 198.934 124.554C198.9 122.152 199.302 119.765 200.12 117.505C200.151 117.43 200.206 117.367 200.275 117.325C200.344 117.282 200.425 117.263 200.506 117.269H204.185C204.251 117.262 204.318 117.275 204.376 117.307C204.435 117.338 204.482 117.387 204.512 117.446C204.55 117.497 204.571 117.559 204.571 117.623C204.571 117.687 204.55 117.749 204.512 117.8C203.601 119.938 203.117 122.232 203.087 124.554C203.093 126.873 203.557 129.167 204.452 131.308C204.481 131.368 204.496 131.434 204.496 131.5C204.496 131.566 204.481 131.632 204.452 131.692C204.37 131.79 204.253 131.853 204.126 131.869Z" fill="#A3A3A3"/>
<path d="M202.438 124.288C202.438 120.788 203.482 117.367 205.438 114.457C207.394 111.547 210.174 109.278 213.427 107.939C216.68 106.599 220.259 106.249 223.713 106.932C227.166 107.615 230.338 109.3 232.828 111.775C235.317 114.25 237.013 117.403 237.7 120.836C238.387 124.269 238.034 127.827 236.687 131.061C235.339 134.294 233.058 137.058 230.13 139.003C227.202 140.947 223.761 141.985 220.24 141.985C215.518 141.985 210.99 140.121 207.652 136.802C204.313 133.483 202.438 128.982 202.438 124.288" fill="#D3D3D3"/>
<path d="M220.204 107.27C215.653 107.27 211.286 109.059 208.057 112.248C204.827 115.436 202.997 119.764 202.966 124.289C202.966 126.538 203.412 128.765 204.279 130.842C205.145 132.919 206.416 134.806 208.017 136.395C209.618 137.984 211.518 139.244 213.61 140.102C215.701 140.96 217.942 141.399 220.204 141.395V141.395C224.649 141.212 228.85 139.328 231.929 136.137C235.008 132.946 236.728 128.696 236.728 124.274C236.728 119.852 235.008 115.601 231.929 112.411C228.85 109.22 224.649 107.336 220.204 107.152V107.27ZM220.204 142.546C216.593 142.546 213.063 141.482 210.06 139.49C207.056 137.497 204.713 134.665 203.327 131.35C201.942 128.035 201.574 124.387 202.272 120.865C202.97 117.343 204.702 114.106 207.25 111.561C209.797 109.017 213.045 107.279 216.584 106.568C220.124 105.857 223.796 106.205 227.137 107.566C230.478 108.928 233.339 111.243 235.358 114.219C237.377 117.195 238.464 120.699 238.481 124.289C238.493 126.678 238.028 129.046 237.114 131.255C236.2 133.465 234.854 135.472 233.154 137.162C231.455 138.851 229.435 140.189 227.213 141.098C224.99 142.007 222.608 142.469 220.204 142.457V142.546Z" fill="#A3A3A3"/>
<path d="M189.851 105.736H188.783V144.197H189.851V105.736Z" fill="#A3A3A3"/>
<path d="M196.259 113.936V109.276C196.215 108.897 196.082 108.534 195.871 108.217C195.66 107.899 195.376 107.635 195.042 107.447C194.014 107.093 192.964 106.807 191.897 106.592C191.993 107.187 192.052 107.788 192.075 108.391C192.059 108.916 191.999 109.439 191.897 109.954L190.592 110.692V134.671L191.393 135.083C191.393 135.083 192.075 135.349 191.838 136.558C191.838 137.296 191.156 140.245 191.156 140.245V142.221H192.075L193.767 135.939C193.767 135.939 194.271 134.405 195.339 134.464V114.555L196.259 113.936Z" fill="#434343"/>
<path d="M191.484 141.985H191.9L193.502 136.086C193.502 136.086 194.006 134.582 195.075 134.375V114.555C195.073 114.498 195.086 114.441 195.112 114.389C195.138 114.338 195.176 114.294 195.223 114.26L195.994 113.759V109.276C195.994 109.276 195.816 108.066 194.986 107.771C194.129 107.463 193.245 107.236 192.345 107.093C192.377 107.554 192.377 108.018 192.345 108.479C192.324 109.023 192.265 109.566 192.167 110.101C192.135 110.19 192.085 110.27 192.019 110.337L190.861 110.986V134.582L191.484 134.906C191.484 134.906 192.404 135.26 192.108 136.735L191.395 140.422L191.484 141.985ZM192.078 142.663H191.158C191.064 142.663 190.973 142.626 190.906 142.56C190.84 142.493 190.802 142.403 190.802 142.309V140.333L191.544 136.587C191.692 135.673 191.277 135.467 191.277 135.467L190.446 135.054C190.392 135.026 190.346 134.984 190.314 134.932C190.283 134.879 190.267 134.82 190.268 134.759V110.78C190.265 110.722 190.28 110.665 190.312 110.617C190.344 110.57 190.391 110.533 190.446 110.514L191.603 109.836C191.694 109.389 191.743 108.935 191.752 108.479C191.726 107.896 191.666 107.315 191.574 106.739C191.547 106.642 191.547 106.541 191.574 106.444C191.67 106.414 191.773 106.414 191.87 106.444C192.965 106.638 194.045 106.904 195.104 107.24C195.484 107.451 195.808 107.748 196.05 108.107C196.293 108.465 196.446 108.876 196.499 109.305V114.024C196.498 114.077 196.484 114.129 196.458 114.175C196.432 114.221 196.395 114.261 196.35 114.29L195.579 114.82V134.641C195.597 134.677 195.607 134.718 195.607 134.759C195.607 134.8 195.597 134.84 195.579 134.877C195.503 134.906 195.418 134.906 195.342 134.877C194.54 134.877 194.095 136.116 194.095 136.145L192.434 142.398C192.415 142.471 192.373 142.536 192.315 142.584C192.256 142.631 192.183 142.659 192.108 142.663" fill="#A3A3A3"/>
<path d="M195.34 111.812H192.047V134.257H195.34V111.812Z" fill="#434343"/>
<path d="M192.344 133.933H195.014V112.137H192.344V133.933ZM195.311 134.582H191.899C191.856 134.582 191.813 134.574 191.774 134.557C191.734 134.541 191.698 134.517 191.668 134.487C191.637 134.457 191.613 134.421 191.597 134.382C191.581 134.342 191.572 134.3 191.572 134.258V111.812C191.572 111.77 191.581 111.727 191.597 111.688C191.613 111.649 191.637 111.613 191.668 111.583C191.698 111.553 191.734 111.529 191.774 111.512C191.813 111.496 191.856 111.488 191.899 111.488H195.222C195.308 111.488 195.391 111.522 195.452 111.583C195.514 111.644 195.548 111.726 195.548 111.812V134.258C195.548 134.344 195.514 134.426 195.452 134.487C195.391 134.548 195.308 134.582 195.222 134.582" fill="#A3A3A3"/>
<path d="M246.374 112.255H243.199V112.786H246.374V112.255Z" fill="#A3A3A3"/>
<path d="M246.522 94.5581C247.735 94.6262 248.883 95.1303 249.751 95.9767C250.619 96.8231 251.148 97.9541 251.239 99.1593V106.592C251.239 106.592 251.239 107.005 250.527 106.916L244.89 105.884C244.89 105.884 244.118 105.737 244.118 106.208V112.107C244.118 112.107 244.296 112.845 243.258 112.845H197.269C196.26 112.845 196.409 112.107 196.409 112.107V106.208C196.409 105.737 195.667 105.884 195.667 105.884L190.03 106.916C189.258 106.916 189.317 106.592 189.317 106.592V99.1593C189.407 97.9683 189.923 96.8488 190.772 96.0043C191.622 95.1599 192.748 94.6467 193.946 94.5581H246.522Z" fill="#434343"/>
<path d="M196.943 112.491C196.943 112.491 196.943 112.491 197.27 112.491H243.169C243.287 112.511 243.408 112.511 243.525 112.491C243.525 112.491 243.525 112.491 243.525 112.491V106.592C243.518 106.468 243.542 106.344 243.593 106.231C243.645 106.118 243.724 106.019 243.822 105.943C243.977 105.839 244.152 105.768 244.335 105.732C244.519 105.697 244.707 105.698 244.89 105.737L250.528 106.769V99.1594C250.446 98.1069 249.988 97.1182 249.237 96.3718C248.486 95.6254 247.492 95.1705 246.433 95.0891H193.947C192.888 95.1705 191.893 95.6254 191.142 96.3718C190.391 97.1182 189.934 98.1069 189.852 99.1594V106.415L195.489 105.383C195.859 105.308 196.243 105.383 196.558 105.589C196.656 105.665 196.735 105.764 196.786 105.877C196.838 105.99 196.861 106.114 196.854 106.238L196.943 112.491ZM243.169 113.582H197.27C197.056 113.596 196.842 113.563 196.642 113.487C196.443 113.411 196.262 113.292 196.112 113.14C196.014 113.011 195.944 112.863 195.908 112.705C195.872 112.547 195.871 112.384 195.905 112.225V106.386H195.756L190.119 107.418C189.931 107.472 189.732 107.478 189.54 107.437C189.349 107.396 189.17 107.308 189.021 107.182C188.919 107.003 188.887 106.793 188.932 106.592V99.1594C189.016 97.8257 189.587 96.5683 190.538 95.6234C191.488 94.6785 192.753 94.1109 194.095 94.0273H246.67C248.007 94.1178 249.265 94.6884 250.209 95.6327C251.153 96.5769 251.72 97.8304 251.803 99.1594V106.592C251.814 106.699 251.801 106.808 251.766 106.91C251.73 107.012 251.672 107.105 251.596 107.182C251.452 107.308 251.279 107.396 251.092 107.437C250.905 107.479 250.711 107.472 250.528 107.418L244.831 106.386V112.284C244.857 112.57 244.772 112.855 244.594 113.081C244.448 113.238 244.268 113.36 244.067 113.437C243.866 113.514 243.651 113.543 243.436 113.523" fill="#A3A3A3"/>
<path d="M246.521 154.314C247.736 154.252 248.888 153.75 249.757 152.902C250.626 152.055 251.153 150.92 251.238 149.713V143.047C251.238 142.516 250.645 142.487 250.645 142.487H244.859C244.295 142.487 244.147 141.572 244.147 141.572L244.295 136.735C244.295 135.88 243.643 135.909 243.643 135.909H196.912C196.912 135.909 196.23 135.909 196.23 136.735L196.408 141.572C196.408 141.572 196.408 142.487 195.666 142.487H189.91C189.91 142.487 189.316 142.487 189.316 143.047V149.713C189.399 150.906 189.914 152.029 190.764 152.874C191.615 153.72 192.745 154.231 193.945 154.314H246.521Z" fill="#434343"/>
<path d="M189.909 143.018V149.713C189.983 150.758 190.43 151.743 191.17 152.489C191.91 153.235 192.894 153.694 193.944 153.783H246.52C247.583 153.701 248.581 153.242 249.333 152.489C250.084 151.737 250.539 150.741 250.614 149.684V143.047H244.68C243.879 143.047 243.523 142.192 243.434 141.691L243.612 136.735C243.612 136.47 243.612 136.47 243.612 136.47H196.911C196.911 136.47 196.763 136.47 196.763 136.765L196.941 141.602C196.941 142.192 196.466 143.047 195.665 143.047L189.909 143.018ZM246.52 154.816H193.944C192.634 154.699 191.408 154.121 190.489 153.185C189.569 152.249 189.016 151.018 188.93 149.713V143.047C188.93 142.905 188.958 142.765 189.014 142.634C189.069 142.503 189.151 142.385 189.253 142.286C189.355 142.187 189.477 142.109 189.61 142.058C189.743 142.006 189.885 141.982 190.027 141.985H195.813C195.927 141.84 195.999 141.667 196.021 141.484V136.735C196.005 136.546 196.031 136.355 196.098 136.177C196.165 135.998 196.27 135.837 196.407 135.703C196.517 135.597 196.647 135.514 196.789 135.458C196.932 135.402 197.084 135.375 197.237 135.379H243.849C244.148 135.383 244.434 135.499 244.65 135.703C244.787 135.837 244.892 135.998 244.959 136.177C245.025 136.355 245.052 136.546 245.036 136.735L244.888 141.602C244.932 141.742 245.003 141.872 245.095 141.985H250.851C250.996 141.982 251.139 142.006 251.274 142.057C251.408 142.108 251.532 142.185 251.636 142.284C251.741 142.383 251.825 142.501 251.884 142.632C251.943 142.763 251.975 142.904 251.979 143.047V149.713C251.895 151.047 251.324 152.304 250.373 153.249C249.423 154.194 248.158 154.761 246.816 154.845" fill="#A3A3A3"/>
<path d="M200.503 117.652H204.093C203.153 119.835 202.659 122.18 202.639 124.554C202.645 126.92 203.108 129.263 204.004 131.456H200.443C199.629 129.245 199.217 126.908 199.227 124.554C199.223 122.195 199.655 119.856 200.503 117.652" fill="#434343"/>
<path d="M200.801 131.072H203.531C201.908 126.877 201.908 122.232 203.531 118.036H200.801C200.039 120.126 199.648 122.331 199.644 124.554C199.668 126.775 200.059 128.977 200.801 131.072ZM204.094 131.869H200.534C200.45 131.868 200.369 131.843 200.3 131.795C200.231 131.748 200.178 131.681 200.148 131.603C199.339 129.34 198.928 126.956 198.932 124.554C198.925 122.144 199.368 119.754 200.237 117.505C200.267 117.435 200.316 117.375 200.379 117.333C200.443 117.291 200.517 117.269 200.593 117.269H204.183C204.248 117.271 204.311 117.288 204.368 117.319C204.424 117.35 204.473 117.393 204.51 117.446C204.538 117.501 204.553 117.561 204.553 117.623C204.553 117.685 204.538 117.745 204.51 117.8C203.599 119.938 203.115 122.232 203.086 124.554C203.091 126.873 203.555 129.168 204.45 131.308C204.493 131.433 204.493 131.568 204.45 131.692C204.406 131.744 204.352 131.786 204.291 131.817C204.229 131.847 204.163 131.865 204.094 131.869" fill="#A3A3A3"/>
<path d="M240.05 117.652H236.4C237.34 119.835 237.834 122.18 237.854 124.554C237.839 126.922 237.365 129.265 236.46 131.456H240.05C240.838 129.239 241.239 126.905 241.237 124.554C241.28 122.202 240.888 119.863 240.079 117.652H240.05Z" fill="#434343"/>
<path d="M237.085 131.072H239.814C240.527 128.972 240.887 126.77 240.882 124.554C240.919 122.338 240.567 120.132 239.844 118.036H236.877C237.696 120.114 238.129 122.322 238.153 124.554C238.147 126.779 237.745 128.986 236.966 131.072H237.085ZM239.933 131.869H236.402C236.275 131.853 236.158 131.79 236.076 131.692C236.047 131.632 236.032 131.566 236.032 131.5C236.032 131.434 236.047 131.368 236.076 131.308C236.961 129.165 237.415 126.871 237.411 124.554C237.396 122.231 236.912 119.934 235.987 117.8C235.958 117.745 235.943 117.684 235.943 117.623C235.943 117.561 235.958 117.501 235.987 117.446C236.017 117.387 236.064 117.338 236.122 117.307C236.181 117.275 236.247 117.262 236.313 117.269H239.992C240.073 117.263 240.154 117.282 240.224 117.325C240.293 117.367 240.347 117.43 240.378 117.505C241.197 119.765 241.599 122.152 241.565 124.554C241.571 126.958 241.149 129.345 240.319 131.603C240.299 131.681 240.252 131.75 240.188 131.798C240.123 131.846 240.044 131.871 239.963 131.869" fill="#A3A3A3"/>
<path d="M238.036 124.288C238.036 120.788 236.992 117.367 235.036 114.457C233.08 111.547 230.299 109.278 227.046 107.939C223.793 106.599 220.214 106.249 216.761 106.932C213.307 107.615 210.135 109.3 207.646 111.775C205.156 114.25 203.461 117.403 202.774 120.836C202.087 124.269 202.439 127.827 203.787 131.061C205.134 134.294 207.416 137.058 210.343 139.003C213.271 140.947 216.713 141.985 220.234 141.985C224.955 141.985 229.483 140.121 232.822 136.802C236.16 133.483 238.036 128.982 238.036 124.288" fill="#D3D3D3"/>
<path d="M220.265 107.271C217.943 107.175 215.625 107.547 213.451 108.364C211.278 109.181 209.293 110.427 207.616 112.026C205.939 113.625 204.604 115.545 203.693 117.67C202.781 119.796 202.311 122.082 202.311 124.392C202.311 126.702 202.781 128.989 203.693 131.114C204.604 133.239 205.939 135.159 207.616 136.758C209.293 138.357 211.278 139.603 213.451 140.42C215.625 141.238 217.943 141.609 220.265 141.514V141.514C222.587 141.609 224.904 141.238 227.078 140.42C229.251 139.603 231.237 138.357 232.914 136.758C234.591 135.159 235.925 133.239 236.837 131.114C237.748 128.989 238.218 126.702 238.218 124.392C238.218 122.082 237.748 119.796 236.837 117.67C235.925 115.545 234.591 113.625 232.914 112.026C231.237 110.427 229.251 109.181 227.078 108.364C224.904 107.547 222.587 107.175 220.265 107.271V107.271ZM220.265 142.664C216.044 142.655 211.958 141.193 208.7 138.526C205.443 135.858 203.216 132.151 202.4 128.035C201.583 123.919 202.227 119.649 204.221 115.952C206.216 112.255 209.438 109.359 213.339 107.758C217.24 106.157 221.578 105.95 225.615 107.172C229.653 108.393 233.139 110.968 235.481 114.458C237.823 117.948 238.876 122.137 238.46 126.312C238.045 130.487 236.186 134.389 233.201 137.355C231.501 139.041 229.484 140.378 227.264 141.289C225.045 142.2 222.666 142.667 220.265 142.664Z" fill="#A3A3A3"/>
<path d="M251.685 105.736H250.617V144.197H251.685V105.736Z" fill="#A3A3A3"/>
<path d="M244.207 113.936V109.276C244.207 109.276 244.385 107.86 245.394 107.447C246.433 107.095 247.493 106.809 248.569 106.592C248.457 107.186 248.388 107.787 248.361 108.391C248.381 108.917 248.45 109.441 248.569 109.954L249.874 110.692V134.671L249.073 135.083C249.073 135.083 248.39 135.349 248.598 136.558C248.747 137.296 249.31 140.245 249.31 140.245V142.221H248.272L246.699 136.086C246.699 136.086 246.195 134.553 245.127 134.612V114.555L244.207 113.936Z" fill="#434343"/>
<path d="M248.629 141.985H248.985V140.334L248.273 136.706C248.006 135.231 248.926 134.877 248.956 134.848L249.519 134.553V110.957L248.392 110.308C248.35 110.284 248.314 110.25 248.288 110.209C248.262 110.168 248.247 110.121 248.244 110.072C248.13 109.538 248.06 108.995 248.036 108.45C248.004 107.988 248.004 107.525 248.036 107.064C247.138 107.214 246.254 107.441 245.395 107.742C244.594 108.067 244.416 109.276 244.416 109.276V113.73L245.188 114.231C245.234 114.264 245.272 114.309 245.298 114.36C245.324 114.412 245.337 114.468 245.336 114.526V134.228C246.404 134.435 246.879 135.85 246.908 135.909L248.629 141.985ZM249.312 142.664H248.273C248.201 142.658 248.133 142.629 248.079 142.581C248.026 142.533 247.989 142.469 247.977 142.398L246.374 136.086C246.374 136.086 245.9 134.818 245.158 134.848C245.071 134.873 244.978 134.873 244.891 134.848C244.861 134.772 244.861 134.687 244.891 134.612V114.732L244.09 114.201C244.045 114.173 244.008 114.133 243.982 114.087C243.957 114.041 243.942 113.989 243.941 113.936V109.276C244.004 108.838 244.164 108.421 244.41 108.053C244.657 107.685 244.983 107.378 245.366 107.152C246.424 106.813 247.504 106.547 248.6 106.356C248.686 106.327 248.78 106.327 248.867 106.356C248.903 106.451 248.903 106.556 248.867 106.651C248.758 107.226 248.689 107.807 248.659 108.391C248.675 108.848 248.735 109.302 248.837 109.748L249.994 110.426C250.044 110.451 250.087 110.489 250.118 110.536C250.149 110.582 250.168 110.636 250.172 110.692V134.671C250.168 134.73 250.149 134.788 250.118 134.839C250.087 134.89 250.045 134.934 249.994 134.966L249.193 135.378C249.193 135.378 248.718 135.585 248.896 136.499L249.608 140.186V142.221C249.613 142.266 249.607 142.312 249.593 142.354C249.578 142.397 249.555 142.437 249.524 142.47C249.493 142.503 249.456 142.53 249.414 142.548C249.373 142.566 249.327 142.575 249.282 142.575" fill="#A3A3A3"/>
<path d="M248.422 111.812H245.129V134.257H248.422V111.812Z" fill="#434343"/>
<path d="M245.457 133.933H248.098V112.137H245.457V133.933ZM248.424 134.582H245.131C245.088 134.582 245.046 134.574 245.006 134.557C244.967 134.541 244.931 134.517 244.9 134.487C244.87 134.457 244.846 134.421 244.83 134.382C244.813 134.342 244.805 134.3 244.805 134.258V111.812C244.805 111.77 244.813 111.727 244.83 111.688C244.846 111.649 244.87 111.613 244.9 111.583C244.931 111.553 244.967 111.529 245.006 111.512C245.046 111.496 245.088 111.488 245.131 111.488H248.424C248.511 111.488 248.594 111.522 248.655 111.583C248.716 111.644 248.751 111.726 248.751 111.812V134.258C248.751 134.344 248.716 134.426 248.655 134.487C248.594 134.548 248.511 134.582 248.424 134.582Z" fill="#A3A3A3"/>
<path d="M197.302 338.212H194.127V338.743H197.302V338.212Z" fill="#A3A3A3"/>
<path d="M239.969 333.345H236.408C237.348 331.165 237.833 328.816 237.833 326.444C237.833 324.071 237.348 321.723 236.408 319.542H239.998C240.796 321.757 241.208 324.091 241.215 326.444C241.207 328.801 240.775 331.139 239.939 333.345" fill="#434343"/>
<path d="M236.969 332.962H239.669C240.455 330.877 240.857 328.669 240.856 326.444C240.851 324.226 240.48 322.024 239.758 319.925H237.028C238.651 324.121 238.651 328.766 237.028 332.962H236.969ZM239.995 333.729H236.405C236.339 333.736 236.273 333.723 236.214 333.691C236.156 333.659 236.109 333.611 236.079 333.552C236.04 333.501 236.02 333.439 236.02 333.375C236.02 333.311 236.04 333.249 236.079 333.198C236.99 331.059 237.473 328.765 237.503 326.444C237.498 324.125 237.034 321.83 236.138 319.689C236.109 319.629 236.094 319.564 236.094 319.498C236.094 319.431 236.109 319.366 236.138 319.306C236.22 319.208 236.337 319.144 236.465 319.129H240.055C240.138 319.129 240.22 319.155 240.289 319.202C240.358 319.25 240.41 319.317 240.44 319.394C241.247 321.658 241.658 324.042 241.657 326.444C241.664 328.853 241.221 331.243 240.351 333.493C240.322 333.563 240.273 333.622 240.209 333.664C240.146 333.706 240.071 333.729 239.995 333.729" fill="#A3A3A3"/>
<path d="M200.416 333.345H204.035C203.095 331.165 202.61 328.816 202.61 326.444C202.61 324.071 203.095 321.723 204.035 319.542H200.445C199.647 321.757 199.236 324.091 199.229 326.444C199.193 328.797 199.595 331.137 200.416 333.345V333.345Z" fill="#434343"/>
<path d="M200.625 332.962H203.444C202.633 330.882 202.211 328.674 202.197 326.444C202.203 324.218 202.605 322.012 203.384 319.925H200.803C200.091 322.025 199.73 324.227 199.735 326.444C199.699 328.66 200.05 330.865 200.773 332.962H200.625ZM204.185 333.729H200.506C200.425 333.735 200.344 333.715 200.275 333.673C200.206 333.631 200.151 333.567 200.12 333.493C199.302 331.233 198.9 328.845 198.934 326.444C198.932 324.042 199.344 321.658 200.15 319.394C200.18 319.317 200.233 319.25 200.302 319.202C200.371 319.155 200.452 319.129 200.536 319.129H204.126C204.253 319.144 204.37 319.208 204.452 319.306C204.481 319.366 204.496 319.431 204.496 319.498C204.496 319.564 204.481 319.629 204.452 319.689C203.557 321.83 203.093 324.125 203.087 326.444C203.117 328.765 203.601 331.059 204.512 333.198C204.55 333.249 204.571 333.311 204.571 333.375C204.571 333.439 204.55 333.501 204.512 333.552C204.482 333.611 204.435 333.659 204.376 333.691C204.318 333.723 204.251 333.736 204.185 333.729Z" fill="#A3A3A3"/>
<path d="M202.438 326.591C202.438 330.091 203.482 333.513 205.438 336.423C207.394 339.333 210.174 341.601 213.427 342.941C216.68 344.28 220.259 344.631 223.713 343.948C227.166 343.265 230.338 341.58 232.828 339.105C235.317 336.63 237.013 333.477 237.7 330.044C238.387 326.611 238.034 323.053 236.687 319.819C235.339 316.585 233.058 313.822 230.13 311.877C227.202 309.932 223.761 308.895 220.24 308.895C215.518 308.895 210.99 310.759 207.652 314.078C204.313 317.397 202.438 321.898 202.438 326.591" fill="#D3D3D3"/>
<path d="M220.205 309.484C217.942 309.48 215.701 309.92 213.61 310.778C211.519 311.636 209.618 312.895 208.017 314.484C206.416 316.073 205.146 317.96 204.279 320.038C203.412 322.115 202.966 324.342 202.966 326.591C202.96 329.982 203.966 333.298 205.857 336.12C207.748 338.942 210.438 341.142 213.587 342.444C216.736 343.746 220.203 344.089 223.549 343.431C226.895 342.773 229.97 341.144 232.383 338.748C234.797 336.353 236.442 333.3 237.109 329.975C237.777 326.65 237.437 323.203 236.134 320.07C234.83 316.937 232.62 314.259 229.785 312.374C226.949 310.49 223.615 309.484 220.205 309.484V309.484ZM220.205 344.878C215.357 344.878 210.708 342.964 207.281 339.556C203.853 336.149 201.928 331.528 201.928 326.709C201.928 321.891 203.853 317.269 207.281 313.862C210.708 310.455 215.357 308.541 220.205 308.541C225.052 308.541 229.701 310.455 233.128 313.862C236.556 317.269 238.481 321.891 238.481 326.709C238.481 331.528 236.556 336.149 233.128 339.556C229.701 342.964 225.052 344.878 220.205 344.878Z" fill="#A3A3A3"/>
<path d="M189.851 306.771H188.783V345.232H189.851V306.771Z" fill="#A3A3A3"/>
<path d="M196.265 337.062V341.722C196.221 342.101 196.088 342.464 195.877 342.781C195.665 343.099 195.382 343.363 195.048 343.551C194.022 343.89 192.971 344.147 191.903 344.318C191.999 343.732 192.059 343.141 192.081 342.548C192.066 342.013 192.006 341.481 191.903 340.955L190.598 340.218V316.239L191.399 315.826C191.399 315.826 192.081 315.561 191.873 314.351C191.725 313.644 191.161 310.665 191.161 310.665V308.688H192.081L193.772 314.971C193.772 314.971 194.277 316.504 195.345 316.445V336.443L196.265 337.062Z" fill="#434343"/>
<path d="M190.922 340.012L192.08 340.66C192.146 340.727 192.196 340.808 192.228 340.896C192.326 341.432 192.385 341.974 192.406 342.519C192.438 342.98 192.438 343.443 192.406 343.905C193.302 343.758 194.185 343.541 195.047 343.256C195.877 342.931 196.055 341.693 196.055 341.693V337.239L195.284 336.738C195.237 336.704 195.199 336.66 195.173 336.608C195.147 336.557 195.134 336.5 195.136 336.443V316.74C194.067 316.534 193.593 315.118 193.563 315.059L191.961 309.013H191.605V310.665L192.287 314.292C192.584 315.767 191.664 316.121 191.635 316.15L191.041 316.445L190.922 340.012ZM191.902 344.642C191.825 344.672 191.741 344.672 191.664 344.642C191.638 344.546 191.638 344.444 191.664 344.347C191.781 343.753 191.861 343.152 191.902 342.548C191.893 342.092 191.844 341.638 191.753 341.191L190.596 340.542C190.542 340.515 190.496 340.472 190.464 340.42C190.433 340.368 190.417 340.308 190.418 340.247V316.268C190.417 316.208 190.433 316.148 190.464 316.096C190.496 316.043 190.542 316.001 190.596 315.974L191.397 315.59C191.397 315.59 191.842 315.354 191.694 314.44L190.982 310.753V308.718C190.982 308.673 190.991 308.628 191.009 308.587C191.027 308.545 191.054 308.508 191.088 308.477C191.121 308.447 191.161 308.424 191.204 308.409C191.247 308.395 191.293 308.389 191.338 308.393H192.258C192.331 308.391 192.403 308.412 192.462 308.455C192.521 308.498 192.564 308.559 192.584 308.629L194.246 314.912C194.246 314.912 194.691 316.209 195.492 316.15C195.568 316.121 195.653 316.121 195.729 316.15C195.747 316.187 195.757 316.228 195.757 316.268C195.757 316.309 195.747 316.35 195.729 316.386V336.207L196.5 336.738C196.545 336.766 196.582 336.806 196.608 336.852C196.634 336.898 196.648 336.95 196.649 337.003V341.663C196.605 342.106 196.452 342.531 196.203 342.902C195.955 343.272 195.619 343.576 195.225 343.787C194.176 344.125 193.106 344.391 192.02 344.583V344.583" fill="#A3A3A3"/>
<path d="M195.34 316.74H192.047V339.186H195.34V316.74Z" fill="#434343"/>
<path d="M192.344 338.861H195.014V317.065H192.344V338.861ZM195.311 339.51H191.899C191.856 339.51 191.813 339.502 191.774 339.485C191.734 339.469 191.698 339.445 191.668 339.415C191.637 339.385 191.613 339.349 191.597 339.31C191.581 339.271 191.572 339.228 191.572 339.186V316.74C191.572 316.698 191.581 316.656 191.597 316.616C191.613 316.577 191.637 316.541 191.668 316.511C191.698 316.481 191.734 316.457 191.774 316.441C191.813 316.424 191.856 316.416 191.899 316.416H195.222C195.308 316.416 195.391 316.45 195.452 316.511C195.514 316.572 195.548 316.654 195.548 316.74V339.186C195.548 339.272 195.514 339.354 195.452 339.415C195.391 339.476 195.308 339.51 195.222 339.51" fill="#A3A3A3"/>
<path d="M246.374 338.212H243.199V338.743H246.374V338.212Z" fill="#A3A3A3"/>
<path d="M246.522 356.44C247.72 356.351 248.846 355.838 249.695 354.993C250.545 354.149 251.061 353.029 251.15 351.839V344.406C251.15 344.406 251.15 343.993 250.438 344.082L244.801 345.114C244.801 345.114 244.029 345.114 244.029 344.789V338.89C244.029 338.89 244.207 338.183 243.169 338.183H197.269C196.26 338.183 196.409 338.89 196.409 338.89V344.789C196.409 345.261 195.667 345.114 195.667 345.114L190.03 344.082C189.258 344.082 189.317 344.406 189.317 344.406V351.839C189.407 353.029 189.923 354.149 190.772 354.993C191.622 355.838 192.748 356.351 193.946 356.44H246.522Z" fill="#434343"/>
<path d="M189.851 344.524V351.779C189.933 352.832 190.391 353.821 191.142 354.567C191.892 355.313 192.887 355.768 193.946 355.85H246.521C247.58 355.768 248.575 355.313 249.326 354.567C250.076 353.821 250.534 352.832 250.616 351.779V344.524L245.008 345.556C244.629 345.632 244.235 345.558 243.91 345.35C243.821 345.268 243.75 345.167 243.704 345.055C243.658 344.943 243.637 344.822 243.643 344.701V338.802C243.643 338.654 243.643 338.595 243.287 338.595H197.269C197.002 338.595 196.943 338.595 196.943 338.595V344.789C196.95 344.913 196.926 345.037 196.875 345.15C196.823 345.263 196.744 345.362 196.646 345.438C196.331 345.645 195.947 345.719 195.578 345.645L189.911 344.612L189.851 344.524ZM246.581 357H193.946C192.604 356.916 191.339 356.349 190.389 355.404C189.438 354.459 188.867 353.202 188.783 351.868V344.435C188.791 344.217 188.875 344.009 189.021 343.845C189.164 343.719 189.337 343.631 189.524 343.59C189.711 343.549 189.905 343.555 190.089 343.609L195.756 344.642H195.904V338.743C195.876 338.603 195.88 338.459 195.916 338.321C195.952 338.183 196.019 338.055 196.112 337.947C196.261 337.794 196.442 337.676 196.642 337.599C196.841 337.523 197.055 337.491 197.269 337.504H243.169C243.383 337.484 243.599 337.514 243.799 337.59C244 337.667 244.18 337.789 244.326 337.947C244.52 338.21 244.605 338.537 244.563 338.861V344.612L250.23 343.58C250.419 343.526 250.617 343.52 250.809 343.561C251 343.602 251.179 343.69 251.328 343.816C251.411 343.907 251.473 344.015 251.509 344.132C251.545 344.249 251.554 344.373 251.536 344.494V351.838C251.452 353.167 250.886 354.421 249.941 355.365C248.997 356.309 247.739 356.88 246.403 356.97" fill="#A3A3A3"/>
<path d="M246.526 296.684C247.738 296.745 248.885 297.243 249.753 298.084C250.622 298.926 251.152 300.053 251.244 301.255V307.921C251.244 308.452 250.651 308.482 250.651 308.482H244.865C244.301 308.482 244.153 309.396 244.153 309.396L244.301 314.233C244.301 315.088 243.648 315.059 243.648 315.059H196.918C196.918 315.059 196.235 315.059 196.235 314.233L196.413 309.396C196.413 309.396 196.413 308.482 195.672 308.482H189.916C189.916 308.482 189.322 308.482 189.322 307.921V301.255C189.405 300.062 189.92 298.939 190.77 298.094C191.621 297.248 192.751 296.737 193.951 296.654L246.526 296.684Z" fill="#434343"/>
<path d="M193.949 297.185C192.886 297.267 191.887 297.726 191.136 298.479C190.384 299.231 189.93 300.227 189.855 301.285V307.95H195.789C196.62 307.95 196.976 308.806 197.035 309.307L196.887 314.262C196.887 314.528 196.887 314.528 196.887 314.528H243.558C243.558 314.528 243.558 314.528 243.558 314.233L243.38 309.425C243.38 308.806 243.825 307.95 244.626 307.95H250.412V301.255C250.337 300.197 249.882 299.202 249.131 298.449C248.379 297.697 247.381 297.238 246.317 297.155L193.949 297.185ZM196.916 315.619C196.627 315.613 196.351 315.497 196.145 315.294C196.008 315.161 195.903 314.999 195.836 314.821C195.77 314.643 195.743 314.452 195.759 314.262V309.396C195.714 309.256 195.644 309.126 195.551 309.012H189.795C189.501 309.012 189.219 308.898 189.009 308.694C188.798 308.491 188.676 308.213 188.668 307.921V301.255C188.752 299.921 189.323 298.664 190.274 297.719C191.224 296.774 192.489 296.207 193.831 296.123H246.406C247.748 296.207 249.013 296.774 249.963 297.719C250.914 298.664 251.485 299.921 251.569 301.255V307.921C251.569 308.21 251.453 308.488 251.247 308.693C251.041 308.897 250.762 309.012 250.471 309.012H244.537C244.428 309.149 244.356 309.311 244.329 309.484L244.507 314.233C244.523 314.422 244.497 314.613 244.43 314.792C244.363 314.97 244.258 315.132 244.122 315.265C244.012 315.371 243.882 315.454 243.739 315.51C243.596 315.566 243.444 315.593 243.291 315.589H196.887" fill="#A3A3A3"/>
<path d="M200.508 333.345H204.098C203.159 331.163 202.665 328.817 202.645 326.444C202.65 324.077 203.114 321.734 204.009 319.542H200.449C199.635 321.753 199.223 324.09 199.233 326.444C199.226 328.803 199.658 331.143 200.508 333.345" fill="#434343"/>
<path d="M200.802 332.962H203.532C201.909 328.766 201.909 324.121 203.532 319.925H200.802C200.08 322.024 199.709 324.226 199.704 326.444C199.708 328.666 200.1 330.872 200.861 332.962H200.802ZM204.185 333.729H200.505C200.429 333.729 200.355 333.706 200.291 333.664C200.228 333.622 200.179 333.563 200.149 333.493C199.28 331.243 198.837 328.853 198.844 326.444C198.843 324.042 199.254 321.658 200.06 319.394C200.09 319.317 200.143 319.25 200.212 319.202C200.281 319.155 200.362 319.129 200.446 319.129H204.006C204.075 319.133 204.142 319.151 204.203 319.181C204.264 319.211 204.318 319.254 204.363 319.306C204.405 319.43 204.405 319.565 204.363 319.689C203.467 321.83 203.003 324.125 202.998 326.444C203.027 328.765 203.511 331.059 204.422 333.198C204.45 333.252 204.465 333.313 204.465 333.375C204.465 333.436 204.45 333.497 204.422 333.552C204.385 333.604 204.336 333.648 204.28 333.679C204.223 333.709 204.16 333.726 204.095 333.729" fill="#A3A3A3"/>
<path d="M240.056 333.345H236.406C237.346 331.163 237.84 328.817 237.86 326.444C237.845 324.076 237.371 321.732 236.466 319.542H240.056C240.844 321.759 241.245 324.093 241.243 326.444C241.289 328.796 240.896 331.136 240.085 333.345H240.056Z" fill="#434343"/>
<path d="M237.004 332.962H239.971C240.694 330.865 241.045 328.66 241.009 326.444C241.018 324.225 240.647 322.02 239.911 319.925H237.211C237.99 322.012 238.392 324.218 238.398 326.444C238.374 328.675 237.942 330.884 237.122 332.962H237.004ZM240.238 333.729H236.41C236.341 333.731 236.272 333.716 236.209 333.686C236.147 333.655 236.094 333.609 236.054 333.552C236.008 333.438 236.008 333.311 236.054 333.198C236.979 331.064 237.464 328.767 237.478 326.444C237.482 324.127 237.029 321.832 236.143 319.689C236.114 319.63 236.099 319.564 236.099 319.498C236.099 319.431 236.114 319.366 236.143 319.306C236.225 319.208 236.342 319.145 236.47 319.129H240.06C240.141 319.127 240.22 319.151 240.284 319.2C240.349 319.248 240.396 319.317 240.416 319.395C241.246 321.653 241.668 324.039 241.662 326.444C241.696 328.845 241.294 331.233 240.475 333.493C240.444 333.568 240.39 333.631 240.321 333.673C240.251 333.715 240.17 333.735 240.089 333.729" fill="#A3A3A3"/>
<path d="M238.042 326.591C238.042 330.091 236.998 333.513 235.042 336.423C233.085 339.333 230.305 341.601 227.052 342.941C223.799 344.28 220.22 344.631 216.767 343.948C213.313 343.265 210.141 341.58 207.652 339.105C205.162 336.63 203.466 333.477 202.78 330.044C202.093 326.611 202.445 323.053 203.793 319.819C205.14 316.585 207.422 313.822 210.349 311.877C213.277 309.932 216.719 308.895 220.24 308.895C224.961 308.895 229.489 310.759 232.828 314.078C236.166 317.397 238.042 321.898 238.042 326.591" fill="#D3D3D3"/>
<path d="M220.267 309.484C216.287 309.489 212.432 310.866 209.358 313.379C206.284 315.893 204.181 319.388 203.408 323.269C202.635 327.15 203.24 331.178 205.119 334.666C206.997 338.154 210.034 340.887 213.712 342.399C217.39 343.911 221.482 344.109 225.29 342.96C229.098 341.81 232.388 339.384 234.599 336.094C236.81 332.804 237.805 328.854 237.416 324.916C237.026 320.978 235.275 317.297 232.462 314.498C230.86 312.907 228.958 311.646 226.866 310.785C224.774 309.925 222.531 309.483 220.267 309.484V309.484ZM220.267 344.878C215.42 344.878 210.771 342.964 207.343 339.556C203.916 336.149 201.99 331.528 201.99 326.709C201.99 321.891 203.916 317.269 207.343 313.862C210.771 310.455 215.42 308.541 220.267 308.541C225.114 308.541 229.763 310.455 233.191 313.862C236.618 317.269 238.544 321.891 238.544 326.709C238.544 331.528 236.618 336.149 233.191 339.556C229.763 342.964 225.114 344.878 220.267 344.878Z" fill="#A3A3A3"/>
<path d="M251.685 306.771H250.617V345.232H251.685V306.771Z" fill="#A3A3A3"/>
<path d="M244.207 337.062V341.722C244.207 341.722 244.385 343.138 245.394 343.55C246.43 343.887 247.492 344.144 248.569 344.317C248.457 343.733 248.387 343.142 248.361 342.548C248.379 342.011 248.449 341.478 248.569 340.955L249.874 340.218V316.239L249.073 315.826C249.073 315.826 248.39 315.56 248.598 314.351C248.747 313.643 249.31 310.664 249.31 310.664V308.688H248.272L246.581 314.97C246.581 314.97 246.076 316.504 245.008 316.445V336.442L244.207 337.062Z" fill="#434343"/>
<path d="M244.536 341.722C244.536 341.722 244.714 342.931 245.515 343.226C246.374 343.528 247.258 343.755 248.156 343.904C248.156 343.521 248.156 342.961 248.156 342.518C248.18 341.973 248.25 341.43 248.364 340.896C248.395 340.808 248.446 340.727 248.512 340.66L249.669 340.011V316.416L249.046 316.091C249.046 316.091 248.126 315.737 248.393 314.263L249.105 310.576V308.983H248.749L247.147 315.029C247.147 315.029 246.643 316.504 245.575 316.711V336.413C245.576 336.47 245.563 336.527 245.537 336.579C245.511 336.63 245.473 336.674 245.426 336.708L244.655 337.209L244.536 341.722ZM248.571 344.671C247.476 344.481 246.395 344.214 245.337 343.875C244.953 343.67 244.625 343.375 244.382 343.015C244.139 342.655 243.988 342.242 243.943 341.81V337.091C243.937 337.037 243.948 336.983 243.975 336.935C244.002 336.888 244.042 336.85 244.091 336.826L244.863 336.295V316.475C244.833 316.399 244.833 316.315 244.863 316.239H245.13C245.871 316.239 246.376 315 246.376 314.97L248.037 308.718C248.052 308.645 248.093 308.58 248.154 308.536C248.214 308.492 248.289 308.473 248.364 308.482H249.283C249.327 308.477 249.372 308.482 249.414 308.497C249.455 308.511 249.493 308.535 249.525 308.566C249.556 308.597 249.58 308.635 249.595 308.677C249.609 308.718 249.614 308.762 249.61 308.806V310.782L248.898 314.528C248.72 315.442 249.165 315.649 249.165 315.649L249.995 316.062C250.046 316.094 250.089 316.137 250.12 316.188C250.151 316.239 250.169 316.297 250.174 316.357V340.336C250.175 340.396 250.158 340.456 250.127 340.508C250.096 340.561 250.05 340.603 249.995 340.631L248.838 341.279C248.736 341.725 248.677 342.179 248.66 342.636C248.688 343.22 248.758 343.802 248.868 344.376C248.895 344.473 248.895 344.575 248.868 344.671C248.791 344.696 248.708 344.696 248.631 344.671" fill="#A3A3A3"/>
<path d="M248.422 316.74H245.129V339.186H248.422V316.74Z" fill="#434343"/>
<path d="M245.452 338.861H248.092V317.064H245.452V338.861ZM248.419 339.51H245.125C245.082 339.51 245.04 339.501 245 339.485C244.961 339.469 244.925 339.445 244.894 339.415C244.864 339.385 244.84 339.349 244.824 339.309C244.807 339.27 244.799 339.228 244.799 339.185V316.74C244.799 316.697 244.807 316.655 244.824 316.616C244.84 316.576 244.864 316.541 244.894 316.511C244.925 316.48 244.961 316.457 245 316.44C245.04 316.424 245.082 316.416 245.125 316.416H248.419C248.505 316.416 248.588 316.45 248.649 316.511C248.711 316.571 248.745 316.654 248.745 316.74V339.185C248.745 339.271 248.711 339.354 248.649 339.415C248.588 339.476 248.505 339.51 248.419 339.51" fill="#A3A3A3"/>
<path d="M218.336 63.3822V67.6884H220.947C221.585 67.7221 222.212 67.5109 222.698 67.0985C222.915 66.901 223.085 66.6588 223.198 66.3887C223.311 66.1187 223.363 65.8274 223.35 65.5353C223.35 64.0901 222.549 63.3822 220.977 63.3822H218.336ZM218.336 62.114H220.739C221.334 62.1378 221.92 61.9611 222.401 61.6126C222.606 61.4388 222.768 61.2211 222.876 60.9759C222.984 60.7306 223.035 60.4643 223.024 60.1968C223.045 59.9266 223.003 59.6553 222.9 59.4044C222.797 59.1534 222.636 58.9299 222.431 58.7516C221.908 58.4268 221.296 58.2722 220.68 58.3092H218.336V62.114ZM216.764 68.9567V57.0114H220.68C221.736 56.9369 222.784 57.2288 223.647 57.8373C223.978 58.1326 224.237 58.4979 224.407 58.9063C224.576 59.3147 224.651 59.7557 224.626 60.1968C224.637 60.7362 224.47 61.2644 224.152 61.701C223.809 62.133 223.359 62.4685 222.846 62.6744C223.458 62.8452 223.999 63.2071 224.389 63.7067C224.776 64.237 224.974 64.8805 224.953 65.5353C224.974 66.0032 224.892 66.4699 224.712 66.903C224.533 67.336 224.261 67.7249 223.914 68.0424C223.073 68.7013 222.016 69.027 220.947 68.9567H216.764Z" fill="#A3A3A3"/>
<path d="M129.592 219.585V228.935H131.254C131.801 228.986 132.354 228.912 132.868 228.718C133.383 228.524 133.846 228.214 134.221 227.814C134.956 226.908 135.326 225.762 135.259 224.599V223.891C135.334 222.755 134.985 221.632 134.28 220.735C133.946 220.346 133.525 220.04 133.051 219.841C132.578 219.641 132.064 219.553 131.55 219.585H129.592ZM128.02 230.232V218.435H131.402C132.369 218.416 133.324 218.661 134.161 219.142C134.974 219.581 135.628 220.262 136.031 221.089C136.482 222.007 136.716 223.016 136.713 224.039V224.569C136.733 225.593 136.499 226.607 136.031 227.519C135.636 228.352 134.98 229.035 134.161 229.466C133.26 229.977 132.231 230.223 131.194 230.173L128.02 230.232Z" fill="#A3A3A3"/>
<path d="M281.414 227.519C281.364 228.352 281.582 229.178 282.037 229.879C282.234 230.155 282.497 230.378 282.803 230.527C283.109 230.676 283.447 230.748 283.787 230.734C284.229 230.754 284.667 230.64 285.042 230.409C285.418 230.177 285.715 229.838 285.894 229.436V225.366C285.703 224.978 285.402 224.653 285.027 224.433C284.653 224.213 284.222 224.107 283.787 224.127C283.447 224.114 283.109 224.185 282.803 224.334C282.497 224.484 282.234 224.707 282.037 224.983C281.568 225.743 281.35 226.63 281.414 227.519V227.519ZM279.901 227.342C279.844 226.172 280.189 225.018 280.88 224.068C281.176 223.696 281.55 223.393 281.975 223.178C282.401 222.964 282.869 222.845 283.346 222.828C283.823 222.811 284.297 222.897 284.737 223.081C285.177 223.265 285.572 223.541 285.894 223.891V219.261H287.437V231.855H286.013V230.911C285.703 231.28 285.311 231.574 284.869 231.768C284.426 231.962 283.944 232.053 283.461 232.032C282.968 232.046 282.479 231.937 282.038 231.715C281.598 231.494 281.22 231.167 280.939 230.764C280.248 229.803 279.903 228.639 279.96 227.46L279.901 227.342Z" fill="#A3A3A3"/>
<circle opacity="0.3" cx="207" cy="207" r="206.65" stroke="white" stroke-width="0.7"/>
<path d="M376.011 397.782V399.322H368.787V398.104L372.679 394.408C373.118 393.988 373.412 393.624 373.561 393.316C373.72 392.999 373.799 392.686 373.799 392.378C373.799 391.921 373.645 391.571 373.337 391.328C373.029 391.086 372.576 390.964 371.979 390.964C370.98 390.964 370.215 391.305 369.683 391.986L368.409 391.006C368.792 390.493 369.305 390.096 369.949 389.816C370.602 389.527 371.33 389.382 372.133 389.382C373.197 389.382 374.046 389.634 374.681 390.138C375.316 390.642 375.633 391.328 375.633 392.196C375.633 392.728 375.521 393.228 375.297 393.694C375.073 394.161 374.644 394.693 374.009 395.29L371.391 397.782H376.011ZM384.173 399.322L382.171 396.452C382.087 396.462 381.961 396.466 381.793 396.466H379.581V399.322H377.761V389.522H381.793C382.643 389.522 383.38 389.662 384.005 389.942C384.64 390.222 385.125 390.624 385.461 391.146C385.797 391.669 385.965 392.29 385.965 393.008C385.965 393.746 385.783 394.38 385.419 394.912C385.065 395.444 384.551 395.841 383.879 396.102L386.133 399.322H384.173ZM384.131 393.008C384.131 392.383 383.926 391.902 383.515 391.566C383.105 391.23 382.503 391.062 381.709 391.062H379.581V394.968H381.709C382.503 394.968 383.105 394.8 383.515 394.464C383.926 394.119 384.131 393.634 384.131 393.008ZM391.04 399.462C390.284 399.462 389.551 399.355 388.842 399.14C388.142 398.926 387.586 398.641 387.176 398.286L387.806 396.872C388.207 397.19 388.697 397.451 389.276 397.656C389.864 397.852 390.452 397.95 391.04 397.95C391.768 397.95 392.309 397.834 392.664 397.6C393.028 397.367 393.21 397.059 393.21 396.676C393.21 396.396 393.107 396.168 392.902 395.99C392.706 395.804 392.454 395.659 392.146 395.556C391.838 395.454 391.418 395.337 390.886 395.206C390.139 395.029 389.532 394.852 389.066 394.674C388.608 394.497 388.212 394.222 387.876 393.848C387.549 393.466 387.386 392.952 387.386 392.308C387.386 391.767 387.53 391.277 387.82 390.838C388.118 390.39 388.562 390.036 389.15 389.774C389.747 389.513 390.475 389.382 391.334 389.382C391.931 389.382 392.519 389.457 393.098 389.606C393.676 389.756 394.176 389.97 394.596 390.25L394.022 391.664C393.592 391.412 393.144 391.221 392.678 391.09C392.211 390.96 391.758 390.894 391.32 390.894C390.601 390.894 390.064 391.016 389.71 391.258C389.364 391.501 389.192 391.823 389.192 392.224C389.192 392.504 389.29 392.733 389.486 392.91C389.691 393.088 389.948 393.228 390.256 393.33C390.564 393.433 390.984 393.55 391.516 393.68C392.244 393.848 392.841 394.026 393.308 394.212C393.774 394.39 394.171 394.665 394.498 395.038C394.834 395.412 395.002 395.916 395.002 396.55C395.002 397.092 394.852 397.582 394.554 398.02C394.264 398.459 393.821 398.809 393.224 399.07C392.626 399.332 391.898 399.462 391.04 399.462Z" fill="#EF7B05"/>
<path d="M375.89 397.782V399.322H368.666V398.104L372.558 394.408C372.996 393.988 373.29 393.624 373.44 393.316C373.598 392.999 373.678 392.686 373.678 392.378C373.678 391.921 373.524 391.571 373.216 391.328C372.908 391.086 372.455 390.964 371.858 390.964C370.859 390.964 370.094 391.305 369.562 391.986L368.288 391.006C368.67 390.493 369.184 390.096 369.828 389.816C370.481 389.527 371.209 389.382 372.012 389.382C373.076 389.382 373.925 389.634 374.56 390.138C375.194 390.642 375.512 391.328 375.512 392.196C375.512 392.728 375.4 393.228 375.176 393.694C374.952 394.161 374.522 394.693 373.888 395.29L371.27 397.782H375.89ZM384.052 399.322L382.05 396.452C381.966 396.462 381.84 396.466 381.672 396.466H379.46V399.322H377.64V389.522H381.672C382.522 389.522 383.259 389.662 383.884 389.942C384.519 390.222 385.004 390.624 385.34 391.146C385.676 391.669 385.844 392.29 385.844 393.008C385.844 393.746 385.662 394.38 385.298 394.912C384.944 395.444 384.43 395.841 383.758 396.102L386.012 399.322H384.052ZM384.01 393.008C384.01 392.383 383.805 391.902 383.394 391.566C382.984 391.23 382.382 391.062 381.588 391.062H379.46V394.968H381.588C382.382 394.968 382.984 394.8 383.394 394.464C383.805 394.119 384.01 393.634 384.01 393.008ZM390.918 399.462C390.162 399.462 389.43 399.355 388.72 399.14C388.02 398.926 387.465 398.641 387.054 398.286L387.684 396.872C388.086 397.19 388.576 397.451 389.154 397.656C389.742 397.852 390.33 397.95 390.918 397.95C391.646 397.95 392.188 397.834 392.542 397.6C392.906 397.367 393.088 397.059 393.088 396.676C393.088 396.396 392.986 396.168 392.78 395.99C392.584 395.804 392.332 395.659 392.024 395.556C391.716 395.454 391.296 395.337 390.764 395.206C390.018 395.029 389.411 394.852 388.944 394.674C388.487 394.497 388.09 394.222 387.754 393.848C387.428 393.466 387.264 392.952 387.264 392.308C387.264 391.767 387.409 391.277 387.698 390.838C387.997 390.39 388.44 390.036 389.028 389.774C389.626 389.513 390.354 389.382 391.212 389.382C391.81 389.382 392.398 389.457 392.976 389.606C393.555 389.756 394.054 389.97 394.474 390.25L393.9 391.664C393.471 391.412 393.023 391.221 392.556 391.09C392.09 390.96 391.637 390.894 391.198 390.894C390.48 390.894 389.943 391.016 389.588 391.258C389.243 391.501 389.07 391.823 389.07 392.224C389.07 392.504 389.168 392.733 389.364 392.91C389.57 393.088 389.826 393.228 390.134 393.33C390.442 393.433 390.862 393.55 391.394 393.68C392.122 393.848 392.72 394.026 393.186 394.212C393.653 394.39 394.05 394.665 394.376 395.038C394.712 395.412 394.88 395.916 394.88 396.55C394.88 397.092 394.731 397.582 394.432 398.02C394.143 398.459 393.7 398.809 393.102 399.07C392.505 399.332 391.777 399.462 390.918 399.462Z" fill="#EF7B05"/>
</svg>
