<svg width="138" height="301" viewBox="0 0 138 301" fill="none" xmlns="http://www.w3.org/2000/svg">
<path d="M67.1455 169.828H34.4628C34.3794 169.828 34.2993 169.795 34.2402 169.736C34.1812 169.677 34.1481 169.597 34.1481 169.513C34.1454 169.47 34.1515 169.427 34.1662 169.387C34.1808 169.346 34.2035 169.309 34.233 169.278C34.2625 169.247 34.2981 169.222 34.3376 169.205C34.3772 169.188 34.4198 169.179 34.4628 169.179H67.1455C67.1886 169.179 67.2311 169.188 67.2707 169.205C67.3102 169.222 67.3459 169.247 67.3754 169.278C67.4049 169.309 67.4277 169.346 67.4423 169.387C67.4569 169.427 67.463 169.47 67.4603 169.513C67.4603 169.597 67.4272 169.677 67.3682 169.736C67.3091 169.795 67.229 169.828 67.1455 169.828ZM71.0808 169.828H69.7625C69.679 169.828 69.5989 169.795 69.5399 169.736C69.4808 169.677 69.4476 169.597 69.4476 169.513C69.4449 169.47 69.4511 169.427 69.4658 169.387C69.4804 169.346 69.5031 169.309 69.5327 169.278C69.5622 169.247 69.5977 169.222 69.6373 169.205C69.6768 169.188 69.7195 169.179 69.7625 169.179H71.0808C71.1695 169.179 71.2545 169.214 71.3173 169.277C71.38 169.34 71.4153 169.425 71.4153 169.513C71.4103 169.599 71.3729 169.679 71.3107 169.737C71.2485 169.796 71.1662 169.828 71.0808 169.828ZM104.708 169.828H73.6781C73.6352 169.831 73.592 169.825 73.5515 169.81C73.511 169.796 73.474 169.773 73.4426 169.743C73.4113 169.714 73.3864 169.678 73.3694 169.639C73.3523 169.599 73.3436 169.556 73.3437 169.513C73.3408 169.469 73.3473 169.424 73.3631 169.382C73.3789 169.34 73.4035 169.302 73.4352 169.27C73.4668 169.239 73.5048 169.214 73.5467 169.198C73.5886 169.183 73.6334 169.176 73.6781 169.179H104.688C104.777 169.179 104.862 169.214 104.925 169.277C104.987 169.34 105.023 169.425 105.023 169.513C105.018 169.599 104.98 169.679 104.918 169.737C104.856 169.796 104.774 169.828 104.688 169.828" fill="#A2A2A2"/>
<path d="M69.4481 53.3446C73.2171 53.3212 76.9081 54.4177 80.0531 56.4951C83.198 58.5724 85.6551 61.537 87.1128 65.0127C88.5704 68.4885 88.963 72.3189 88.2406 76.0181C87.5182 79.7173 85.7136 83.1186 83.0553 85.7907C80.3971 88.4627 77.0052 90.2851 73.3098 91.0266C69.6144 91.7682 65.782 91.3956 62.2987 89.9559C58.8154 88.5163 55.8382 86.0746 53.7445 82.9405C51.6509 79.8064 50.5352 76.1211 50.5391 72.3521C50.5443 67.3126 52.5485 62.481 56.112 58.9175C59.6755 55.354 64.507 53.3498 69.5465 53.3446" fill="#D3D3D3"/>
<path d="M69.4471 53.8745C65.7873 53.8707 62.2086 54.9526 59.1639 56.9835C56.1193 59.0143 53.7457 61.9028 52.3433 65.2833C50.941 68.6638 50.5729 72.3843 51.286 75.974C51.999 79.5637 53.761 82.8611 56.3489 85.449C58.9367 88.0369 62.2343 89.7988 65.8239 90.5119C69.4136 91.2249 73.1341 90.857 76.5146 89.4546C79.8951 88.0523 82.7836 85.6786 84.8144 82.6339C86.8453 79.5893 87.9272 76.0106 87.9234 72.3508C87.913 67.4537 85.963 62.7603 82.5003 59.2976C79.0376 55.8349 74.3441 53.8849 69.4471 53.8745ZM69.4471 91.8895C65.5819 91.8934 61.8023 90.7508 58.5866 88.6062C55.3709 86.4616 52.8636 83.4115 51.3817 79.8416C49.8998 76.2717 49.51 72.3425 50.2617 68.551C51.0134 64.7596 52.8728 61.2763 55.6045 58.5418C58.3363 55.8072 61.8177 53.9444 65.6084 53.1889C69.399 52.4334 73.3286 52.8192 76.9 54.2974C80.4714 55.7757 83.5241 58.28 85.6719 61.4936C87.8197 64.7071 88.9663 68.4855 88.9663 72.3508C88.9611 77.5277 86.9035 82.4915 83.2447 86.154C79.5858 89.8166 74.6241 91.8791 69.4471 91.8895Z" fill="#A2A2A2"/>
<path d="M86.9202 79.8485H90.1472V63.2612H86.2119C87.5897 65.7863 88.3764 68.5911 88.5127 71.4644C88.649 74.3376 88.1315 77.2043 86.999 79.8485H86.9202Z" fill="#434343"/>
<path d="M87.5105 79.4751H89.7536V63.7339H86.7825C88.1527 66.4274 88.861 69.4088 88.8485 72.4309C88.852 74.868 88.3981 77.2841 87.5105 79.5538V79.4751ZM90.1472 80.3211H86.9596C86.8938 80.33 86.8268 80.3219 86.7648 80.2979C86.7029 80.2738 86.6481 80.2344 86.6055 80.1834C86.5727 80.123 86.5556 80.0554 86.5556 79.9866C86.5556 79.9179 86.5727 79.8503 86.6055 79.7899C87.5945 77.4626 88.1032 74.9596 88.1009 72.4309C88.1108 69.3139 87.3251 66.246 85.8183 63.5174C85.7838 63.4576 85.7656 63.3897 85.7656 63.3207C85.7656 63.2516 85.7838 63.1837 85.8183 63.1239C85.8533 63.0673 85.9027 63.021 85.9615 62.9899C86.0203 62.9588 86.0863 62.9439 86.1528 62.9468H90.0881C90.1388 62.9441 90.1896 62.9518 90.2373 62.9694C90.2849 62.987 90.3285 63.0141 90.3653 63.0491C90.4021 63.0841 90.4315 63.1262 90.4515 63.1729C90.4715 63.2196 90.4817 63.2699 90.4817 63.3207V79.8686C90.4802 79.9724 90.4378 80.0714 90.3636 80.144C90.2738 80.1714 90.1779 80.1714 90.0881 80.144" fill="#A2A2A2"/>
<path d="M69.4484 53.3436C74.2569 53.3444 78.8853 55.1732 82.3955 58.4595H93.434C93.434 58.4595 93.8473 54.3865 95.7165 54.3865C97.5858 54.3865 97.8612 57.1609 97.8612 57.1609H100.222V44.8827C100.217 44.1712 99.9715 43.4824 99.5249 42.9286C99.0782 42.3747 98.4571 41.9885 97.7628 41.8329C79.1122 37.7666 59.8043 37.7666 41.1536 41.8329C40.4666 41.9962 39.8544 42.3857 39.4155 42.9388C38.9765 43.492 38.7363 44.1766 38.7334 44.8827V57.1609H41.0946C41.0946 57.1609 41.3701 54.3865 43.2393 54.3865C45.1086 54.3865 45.5218 58.4595 45.5218 58.4595H56.4422C59.9482 55.1664 64.5794 53.3364 69.3894 53.3436" fill="#434343"/>
<path d="M82.5932 57.9285H92.9627C93.1595 56.7283 93.8089 53.8358 95.7175 53.8358C97.6261 53.8358 98.118 55.8035 98.2951 56.6102H99.7315V44.8043C99.7269 44.2094 99.5198 43.6338 99.1442 43.1724C98.7686 42.711 98.2471 42.3913 97.6654 42.2661C79.0915 38.2261 59.8662 38.2261 41.2923 42.2661C40.7289 42.4104 40.2297 42.7382 39.8734 43.1979C39.517 43.6575 39.3239 44.2228 39.3246 44.8043V56.6102H40.7217C40.9185 55.7051 41.5284 53.8358 43.319 53.8358C45.1095 53.8358 45.8769 56.7283 46.054 57.9285H56.4235C60.013 54.6363 64.7066 52.8098 69.5772 52.8098C74.4479 52.8098 79.1415 54.6363 82.7309 57.9285H82.5932ZM93.5727 58.9911H82.5145C82.4243 59.0046 82.3321 58.9955 82.2462 58.9646C82.1604 58.9337 82.0835 58.8819 82.0226 58.814C78.616 55.6806 74.1566 53.9416 69.5281 53.9416C64.8996 53.9416 60.4401 55.6806 57.0335 58.814C56.9892 58.8827 56.9279 58.9388 56.8555 58.9768C56.7831 59.0147 56.7021 59.0332 56.6203 59.0304H45.562C45.432 59.0271 45.3074 58.9779 45.2102 58.8914C45.1129 58.805 45.0494 58.687 45.0309 58.5582C44.9128 57.3776 44.3225 54.9574 43.2796 54.9574C41.9023 54.9574 41.6465 57.2202 41.6465 57.2399C41.644 57.3045 41.6287 57.368 41.6016 57.4267C41.5745 57.4854 41.5361 57.5382 41.4886 57.5821C41.4411 57.6259 41.3854 57.66 41.3247 57.6823C41.264 57.7046 41.1995 57.7147 41.1349 57.7121H38.7344C38.5968 57.7122 38.4646 57.6589 38.3655 57.5635C38.2664 57.4681 38.2082 57.338 38.2031 57.2005V44.883C38.2141 44.0505 38.5056 43.246 39.0305 42.5997C39.5554 41.9534 40.283 41.5031 41.0956 41.3216C59.819 37.2528 79.1979 37.2528 97.9212 41.3216C98.7318 41.5037 99.4569 41.9548 99.9785 42.6015C100.5 43.2481 100.787 44.0523 100.794 44.883V57.1612C100.794 57.2968 100.74 57.427 100.644 57.5229C100.548 57.6188 100.418 57.6727 100.282 57.6727H97.9212C97.79 57.6736 97.663 57.6258 97.5649 57.5386C97.4668 57.4514 97.4045 57.3309 97.3899 57.2005C97.3899 57.2005 97.0751 54.8787 95.7962 54.8787C94.5172 54.8787 94.1433 57.2989 94.0252 58.4795C94.0111 58.6066 93.9515 58.7243 93.8576 58.8111C93.7636 58.8978 93.6416 58.9478 93.5137 58.9517" fill="#A2A2A2"/>
<path d="M38.6133 92.028C38.4724 92.028 38.3372 91.972 38.2376 91.8724C38.138 91.7727 38.082 91.6376 38.082 91.4967V57.0825C38.082 56.9416 38.138 56.8065 38.2376 56.7069C38.3372 56.6073 38.4724 56.5513 38.6133 56.5513C38.7542 56.5513 38.8893 56.6073 38.9889 56.7069C39.0886 56.8065 39.1445 56.9416 39.1445 57.0825V91.4967C39.1445 91.6376 39.0886 91.7727 38.9889 91.8724C38.8893 91.972 38.7542 92.028 38.6133 92.028Z" fill="#A2A2A2"/>
<path d="M100.261 92.0282C100.123 92.0231 99.9931 91.9649 99.8977 91.8658C99.8023 91.7667 99.749 91.6345 99.7491 91.4969V57.0827C99.7341 57.0058 99.7362 56.9265 99.7555 56.8505C99.7747 56.7745 99.8106 56.7037 99.8605 56.6432C99.9103 56.5827 99.9729 56.534 100.044 56.5005C100.115 56.4671 100.192 56.4497 100.271 56.4497C100.349 56.4497 100.426 56.4671 100.497 56.5005C100.568 56.534 100.631 56.5827 100.681 56.6432C100.73 56.7037 100.766 56.7745 100.786 56.8505C100.805 56.9265 100.807 57.0058 100.792 57.0827V91.4969C100.792 91.6378 100.736 91.7729 100.636 91.8726C100.537 91.9722 100.402 92.0282 100.261 92.0282Z" fill="#A2A2A2"/>
<path d="M38.6133 170.064C38.4757 170.064 38.3435 170.011 38.2444 169.915C38.1453 169.82 38.0871 169.69 38.082 169.552V101.314C38.082 101.174 38.138 101.038 38.2376 100.939C38.3372 100.839 38.4724 100.783 38.6133 100.783C38.7542 100.783 38.8893 100.839 38.9889 100.939C39.0886 101.038 39.1445 101.174 39.1445 101.314V169.552C39.1394 169.69 39.0812 169.82 38.9821 169.915C38.8831 170.011 38.7508 170.064 38.6133 170.064Z" fill="#A2A2A2"/>
<path d="M100.261 170.064C100.125 170.064 99.9949 170.01 99.899 169.914C99.8031 169.818 99.7491 169.688 99.7491 169.552V101.314C99.7341 101.237 99.7362 101.158 99.7555 101.082C99.7747 101.006 99.8106 100.935 99.8605 100.875C99.9103 100.814 99.9729 100.765 100.044 100.732C100.115 100.698 100.192 100.681 100.271 100.681C100.349 100.681 100.426 100.698 100.497 100.732C100.568 100.765 100.631 100.814 100.681 100.875C100.73 100.935 100.766 101.006 100.786 101.082C100.805 101.158 100.807 101.237 100.792 101.314V169.552C100.787 169.69 100.729 169.82 100.63 169.915C100.53 170.011 100.398 170.064 100.261 170.064Z" fill="#A2A2A2"/>
<path d="M90.1484 85.947C90.0968 85.947 90.0456 85.9368 89.9978 85.917C89.9501 85.8973 89.9067 85.8683 89.8702 85.8317C89.8336 85.7952 89.8047 85.7518 89.7849 85.7041C89.7651 85.6563 89.7549 85.6051 89.7549 85.5535V80.0244C89.7549 79.92 89.7964 79.8199 89.8702 79.7461C89.944 79.6723 90.0441 79.6309 90.1484 79.6309C90.2528 79.6309 90.3529 79.6723 90.4267 79.7461C90.5005 79.8199 90.542 79.92 90.542 80.0244V85.5535C90.542 85.6578 90.5005 85.7579 90.4267 85.8317C90.3529 85.9055 90.2528 85.947 90.1484 85.947Z" fill="#A2A2A2"/>
<path d="M46.0925 58.2422H44.8135V77.348H46.0925V58.2422Z" fill="#A2A2A2"/>
<path d="M45.0484 58.4781H45.8551V77.1314H45.0484V58.4781ZM44.8123 58.0059L44.5762 58.242V77.3478L44.8123 77.584H46.0912L46.3076 77.3478V58.242L46.0912 58.0059H44.8123Z" fill="#A2A2A2"/>
<path d="M45.1292 77.4857L44.6373 78.6072L45.5031 80.0043L46.5459 81.0471L47.0772 82.267V83.3296L46.3688 84.7266L43.2402 85.5924L42.3548 84.5495L44.2831 83.3296L43.7518 81.5784L41.8433 80.1813L41.3906 78.0563L42.5122 76.856V61.2722L41.4694 59.5407L41.4103 56.4712L42.1777 54.8184L43.6732 56.0973L45.0898 58.3405V77.3283" fill="#434343"/>
<path d="M42.845 84.629L43.3566 85.2193L46.1507 84.4519L46.7606 83.2517V82.4253L46.2884 81.3234L45.2849 80.3199L44.36 78.8638C44.3358 78.8149 44.3232 78.761 44.3232 78.7064C44.3232 78.6518 44.3358 78.5979 44.36 78.549L44.8127 77.5258C44.8035 77.487 44.8035 77.4466 44.8127 77.4077V58.5183L43.4746 56.3933L42.3334 55.4291L41.7824 56.6294V59.5218L42.7859 61.1746C42.8041 61.2323 42.8041 61.2941 42.7859 61.3517V76.9355C42.8166 77.0112 42.8166 77.0959 42.7859 77.1716L41.7824 78.2342L42.1563 80.0641L43.9665 81.4021C44.0272 81.4395 44.0753 81.4943 44.1043 81.5595L44.6158 83.3107C44.633 83.3796 44.6291 83.4522 44.6045 83.5188C44.58 83.5855 44.5359 83.6432 44.4781 83.6845L42.845 84.629ZM43.2385 85.9277C43.1896 85.9292 43.1411 85.9193 43.0967 85.8988C43.0523 85.8783 43.0132 85.8478 42.9827 85.8096L42.1169 84.7471C42.0851 84.6648 42.0851 84.5736 42.1169 84.4913C42.1391 84.4013 42.1956 84.3236 42.2743 84.2748L43.9862 83.173L43.5533 81.7759L41.7234 80.4379C41.6621 80.3883 41.6203 80.3186 41.6053 80.2412L41.1528 78.1161C41.1441 78.0626 41.1485 78.0078 41.1656 77.9564C41.1827 77.905 41.2121 77.8585 41.2512 77.821L42.2743 76.7388V61.3517L41.2709 59.6989C41.2511 59.6483 41.2511 59.5921 41.2709 59.5415V56.4917C41.2621 56.4395 41.2621 56.3863 41.2709 56.3342L42.0186 54.6814C42.0405 54.6349 42.0734 54.5944 42.1146 54.5635C42.1558 54.5326 42.2039 54.5123 42.2547 54.5043C42.2971 54.4819 42.3444 54.4702 42.3924 54.4702C42.4404 54.4702 42.4877 54.4819 42.5301 54.5043L44.0256 55.7636L45.4619 58.0067C45.4788 58.0645 45.4788 58.126 45.4619 58.1838V77.1716C45.4815 77.2149 45.4916 77.2619 45.4916 77.3094C45.4916 77.3569 45.4815 77.4038 45.4619 77.4471L45.0291 78.4309L45.8161 79.6705L46.7999 80.674L47.3312 81.894C47.3312 81.894 47.3312 81.894 47.3312 82.012V83.0746C47.3397 83.1201 47.3397 83.1668 47.3312 83.2123L46.6426 84.6093C46.6214 84.6527 46.5911 84.691 46.5537 84.7216C46.5163 84.7522 46.4727 84.7743 46.426 84.7864L43.2778 85.6522" fill="#A2A2A2"/>
<path d="M94.4 58.2422H93.1211V77.348H94.4V58.2422Z" fill="#A2A2A2"/>
<path d="M93.3549 58.4781H94.1615V77.1314H93.3549V58.4781ZM93.1188 58.0059L92.9023 58.242V77.3478L93.1188 77.584H94.3977L94.6338 77.3478V58.242L94.3977 58.0059H93.1188Z" fill="#A2A2A2"/>
<path d="M94.0632 77.4857L94.5551 78.6072L93.6893 80.0043L92.6464 81.0471L92.1152 82.267V83.3296L92.8236 84.7266L95.9717 85.5924L96.8375 84.5495L94.9093 83.3296L95.4406 81.5784L97.3491 80.1813L97.8018 78.0563L96.6802 76.856V61.2722L97.7427 59.5407L97.7821 56.4712L97.0344 54.8184L95.5192 56.0973L94.1026 58.3405V77.3283" fill="#434343"/>
<path d="M93.0587 84.3922L95.8528 85.1596L96.3447 84.5693L94.7508 83.5462C94.6883 83.5093 94.6405 83.4519 94.6154 83.3838C94.5903 83.3156 94.5895 83.2409 94.6132 83.1723L95.1247 81.4211C95.1537 81.3559 95.2017 81.3011 95.2624 81.2637L97.0728 79.9257L97.4466 78.0958L96.4431 77.0332C96.4125 76.9575 96.4125 76.8728 96.4431 76.7971V61.2724C96.4339 61.2137 96.4339 61.154 96.4431 61.0953L97.4466 59.4425V56.55L96.8956 55.3498L95.7544 56.3139L94.4164 58.439V77.3284C94.4256 77.3672 94.4256 77.4076 94.4164 77.4464L94.869 78.4696C94.8933 78.5185 94.9059 78.5724 94.9059 78.627C94.9059 78.6816 94.8933 78.7355 94.869 78.7844L94.0032 80.1815L92.9406 81.244L92.4684 82.3459V83.251L93.0587 84.3922ZM95.9709 85.868L92.8226 85.0022C92.7759 84.9901 92.7324 84.9679 92.695 84.9374C92.6577 84.9068 92.6273 84.8685 92.6062 84.8251L91.9175 83.4281C91.909 83.3826 91.909 83.3359 91.9175 83.2904V82.2278C91.9175 82.2278 91.9175 82.2278 91.9175 82.1098L92.4487 80.8898L93.4916 79.8273L94.2196 78.6467L93.7867 77.6629C93.7625 77.621 93.7498 77.5735 93.7498 77.5252C93.7498 77.4768 93.7625 77.4293 93.7867 77.3874V58.3406C93.7686 58.2829 93.7686 58.2211 93.7867 58.1635L95.2232 55.9204L96.7185 54.6611C96.7476 54.6205 96.786 54.5874 96.8305 54.5645C96.875 54.5417 96.9243 54.5298 96.9743 54.5298C97.0243 54.5298 97.0736 54.5417 97.118 54.5645C97.1625 54.5874 97.2009 54.6205 97.2301 54.6611L97.9778 56.3139C97.9866 56.366 97.9866 56.4192 97.9778 56.4713V59.5212C97.9976 59.5718 97.9976 59.628 97.9778 59.6786L96.9743 61.3314V76.7184L97.9975 77.8006C98.0366 77.8382 98.066 77.8846 98.0831 77.9361C98.1003 77.9875 98.1046 78.0423 98.0959 78.0958L97.7614 80.2405C97.7465 80.318 97.7047 80.3876 97.6433 80.4373L95.8134 81.7753L95.3805 83.1723L97.0923 84.2742C97.1711 84.323 97.2276 84.4007 97.2498 84.4906C97.2816 84.5729 97.2816 84.6641 97.2498 84.7464L96.384 85.8089C96.3535 85.8471 96.3144 85.8777 96.27 85.8982C96.2256 85.9187 96.1771 85.9285 96.1282 85.927" fill="#A2A2A2"/>
<path d="M95.0854 106.036H43.7494C42.3647 106.031 41.0385 105.477 40.0612 104.496C39.0839 103.515 38.5351 102.187 38.5352 100.802V87.7569C38.535 87.4763 38.5914 87.1984 38.7011 86.9401C38.8108 86.6818 38.9716 86.4483 39.1736 86.2535C39.3757 86.0588 39.615 85.9068 39.8772 85.8068C40.1394 85.7067 40.4191 85.6606 40.6996 85.6712H55.9685C57.6826 87.5444 59.7818 89.0243 62.122 90.0093C64.4622 90.9943 66.988 91.461 69.5257 91.3774C75.8812 91.3774 79.0293 88.9768 82.8663 85.6318H84.6372H98.2927C98.8458 85.6318 99.3763 85.8516 99.7674 86.2427C100.159 86.6339 100.378 87.1644 100.378 87.7176V100.724C100.383 101.41 100.251 102.09 99.9908 102.725C99.7308 103.36 99.3476 103.937 98.8632 104.423C97.8812 105.403 96.5514 105.955 95.1641 105.958" fill="#434343"/>
<path d="M40.7006 86.1833C40.2853 86.1892 39.8893 86.3589 39.5987 86.6555C39.4545 86.8004 39.3403 86.9723 39.2626 87.1614C39.185 87.3505 39.1454 87.553 39.1461 87.7574V100.724C39.145 101.342 39.2661 101.954 39.5025 102.524C39.7389 103.095 40.0859 103.613 40.5235 104.05C40.9562 104.492 41.4738 104.841 42.0453 105.078C42.6168 105.315 43.2303 105.433 43.8488 105.427H95.165C95.7836 105.433 96.397 105.315 96.9685 105.078C97.54 104.841 98.0577 104.492 98.4904 104.05C98.9279 103.613 99.2749 103.095 99.5113 102.524C99.7477 101.954 99.8688 101.342 99.8677 100.724V87.7574C99.8685 87.553 99.8288 87.3505 99.7511 87.1614C99.6735 86.9723 99.5594 86.8004 99.4152 86.6555C99.115 86.3612 98.7139 86.1923 98.2936 86.1833H83.0641C79.1288 89.548 75.9018 91.9091 69.5266 91.9091C66.9557 92.0034 64.3945 91.5424 62.0177 90.5577C59.6408 89.5731 57.5042 88.0878 55.7531 86.203L40.7006 86.1833ZM95.165 106.489H43.7701C42.2426 106.484 40.7793 105.875 39.6992 104.795C38.6191 103.715 38.0101 102.252 38.0049 100.724V87.7574C38.0047 87.407 38.0749 87.0602 38.2113 86.7374C38.3477 86.4147 38.5475 86.1226 38.799 85.8785C39.0504 85.6345 39.3482 85.4434 39.6749 85.3166C40.0015 85.1898 40.3503 85.1299 40.7006 85.1404H55.9695C56.1101 85.1414 56.2445 85.198 56.3434 85.2978C58.0082 87.1218 60.0492 88.5626 62.3253 89.5206C64.6015 90.4786 67.0585 90.931 69.5266 90.8466C75.6264 90.8466 78.6368 88.6232 82.5131 85.2388C82.6138 85.1594 82.739 85.1177 82.8672 85.1208H98.2936C98.6374 85.1199 98.9779 85.1873 99.2954 85.319C99.6129 85.4508 99.9011 85.6442 100.143 85.8881C100.634 86.3786 100.91 87.0438 100.911 87.7377V100.724C100.913 101.48 100.766 102.23 100.479 102.929C100.191 103.628 99.7685 104.264 99.2347 104.8C98.7009 105.335 98.0667 105.76 97.3683 106.05C96.6699 106.34 95.9212 106.489 95.165 106.489Z" fill="#A2A2A2"/>
<path d="M69.4479 247.707C73.2072 247.707 76.8821 248.822 80.0079 250.91C83.1336 252.999 85.5699 255.967 87.0085 259.441C88.4471 262.914 88.8236 266.736 88.0902 270.423C87.3568 274.11 85.5465 277.497 82.8882 280.155C80.23 282.813 76.8431 284.623 73.156 285.357C69.469 286.09 65.6472 285.714 62.174 284.275C58.7009 282.837 55.7323 280.4 53.6437 277.275C51.5552 274.149 50.4404 270.474 50.4404 266.715C50.4456 261.675 52.4499 256.843 56.0134 253.28C59.5768 249.716 64.4084 247.712 69.4479 247.707Z" fill="#D3D3D3"/>
<path d="M69.4471 248.12C65.7881 248.116 62.2102 249.198 59.1659 251.228C56.1217 253.258 53.748 256.145 52.3451 259.524C50.9422 262.904 50.5731 266.623 51.2845 270.212C51.996 273.801 53.756 277.099 56.3419 279.688C58.9278 282.276 62.2234 284.04 65.8118 284.755C69.4002 285.47 73.1201 285.105 76.5009 283.706C79.8818 282.306 82.7716 279.936 84.8048 276.894C86.8381 273.852 87.9234 270.275 87.9234 266.616C87.9182 261.715 85.9706 257.017 82.5073 253.55C79.044 250.083 74.3475 248.13 69.4471 248.12ZM69.4471 286.155C65.5819 286.159 61.8023 285.016 58.5866 282.871C55.3709 280.727 52.8636 277.677 51.3817 274.107C49.8998 270.537 49.51 266.608 50.2617 262.816C51.0134 259.025 52.8728 255.541 55.6045 252.807C58.3363 250.072 61.8177 248.21 65.6084 247.454C69.399 246.699 73.3286 247.084 76.9 248.563C80.4714 250.041 83.5241 252.545 85.6719 255.759C87.8197 258.972 88.9663 262.751 88.9663 266.616C88.9611 271.793 86.9035 276.757 83.2447 280.419C79.5858 284.082 74.6241 286.144 69.4471 286.155Z" fill="#A2A2A2"/>
<path d="M86.9208 259.12H90.3248V275.707H86.1338C87.5118 273.179 88.2986 270.37 88.4349 267.494C88.5713 264.618 88.0535 261.748 86.9208 259.1V259.12Z" fill="#434343"/>
<path d="M87.5086 259.512C88.3961 261.775 88.8499 264.185 88.8466 266.615C88.8592 269.644 88.151 272.632 86.7806 275.332H89.8895V259.591L87.5086 259.512ZM86.1706 276.119C86.0996 276.12 86.0298 276.102 85.9678 276.067C85.9057 276.033 85.8536 275.983 85.8164 275.922C85.7837 275.862 85.7666 275.794 85.7666 275.726C85.7666 275.657 85.7837 275.589 85.8164 275.529C87.3232 272.8 88.1089 269.732 88.099 266.615C88.0991 264.093 87.5905 261.597 86.6035 259.276C86.5742 259.218 86.5589 259.154 86.5589 259.089C86.5589 259.024 86.5742 258.96 86.6035 258.902C86.6399 258.847 86.6896 258.802 86.748 258.771C86.8065 258.74 86.8719 258.724 86.938 258.725H90.342C90.3937 258.725 90.4449 258.735 90.4926 258.755C90.5403 258.775 90.5837 258.804 90.6203 258.84C90.6568 258.877 90.6859 258.92 90.7056 258.968C90.7254 259.016 90.7355 259.067 90.7355 259.119V275.706C90.7355 275.758 90.7254 275.809 90.7056 275.857C90.6859 275.904 90.6568 275.948 90.6203 275.984C90.5837 276.021 90.5403 276.05 90.4926 276.07C90.4449 276.089 90.3937 276.099 90.342 276.099L86.1706 276.119Z" fill="#A2A2A2"/>
<path d="M69.4468 285.623C74.2512 285.62 78.8764 283.799 82.394 280.527H93.4325C93.4325 280.527 93.8457 284.6 95.715 284.6C97.5843 284.6 97.8597 281.845 97.8597 281.845H100.221V294.123C100.211 294.837 99.9614 295.526 99.5115 296.079C99.0615 296.633 98.4379 297.018 97.7416 297.173C79.0878 301.211 59.7862 301.211 41.1324 297.173C40.4414 297.011 39.8242 296.623 39.3787 296.071C38.9332 295.518 38.6848 294.833 38.6729 294.123V281.845H41.0341C41.0341 281.845 41.3095 284.6 43.1788 284.6C45.048 284.6 45.4612 280.527 45.4612 280.527H56.4407C59.954 283.806 64.5821 285.628 69.3879 285.623" fill="#434343"/>
<path d="M39.1854 282.338V294.144C39.1881 294.725 39.3824 295.288 39.7382 295.747C40.094 296.206 40.5914 296.535 41.1531 296.682C59.727 300.722 78.9523 300.722 97.5262 296.682C98.1061 296.554 98.6257 296.233 99.0007 295.772C99.3757 295.312 99.5841 294.738 99.5922 294.144V282.338H98.1951C98.018 283.243 97.4081 285.112 95.6175 285.112C93.8269 285.112 93.0596 282.24 92.8629 281.039H82.4933C78.9038 284.332 74.2103 286.158 69.3396 286.158C64.4689 286.158 59.7754 284.332 56.1859 281.039H45.8163C45.6392 282.24 44.99 285.112 43.0813 285.112C41.1727 285.112 40.6808 283.243 40.4841 282.338H39.1854ZM69.4478 300.716C59.8937 300.744 50.3655 299.721 41.035 297.666C40.2224 297.485 39.4948 297.034 38.9699 296.388C38.445 295.742 38.1536 294.937 38.1426 294.105V281.826C38.1426 281.686 38.1985 281.55 38.2982 281.451C38.3978 281.351 38.5329 281.295 38.6738 281.295H41.035C41.1629 281.299 41.2849 281.349 41.3789 281.436C41.4729 281.523 41.5324 281.64 41.5466 281.767C41.5466 281.767 41.8024 284.07 43.1798 284.07C44.2226 284.07 44.8129 281.63 44.931 280.469C44.9456 280.338 45.0079 280.218 45.106 280.131C45.2041 280.044 45.3309 279.996 45.4622 279.997H56.4417C56.5298 279.998 56.6159 280.023 56.6917 280.068C56.7676 280.112 56.8305 280.176 56.8745 280.252C60.279 283.39 64.7394 285.132 69.3691 285.132C73.9989 285.132 78.4592 283.39 81.8637 280.252C81.9164 280.188 81.9823 280.135 82.0569 280.098C82.1315 280.06 82.2133 280.039 82.2966 280.036H93.3548C93.4839 280.036 93.6084 280.084 93.7033 280.172C93.7982 280.259 93.8565 280.379 93.8664 280.508C93.9844 281.669 94.5747 284.109 95.6372 284.109C96.6997 284.109 97.2507 281.827 97.2507 281.807C97.2653 281.676 97.3277 281.556 97.4258 281.469C97.5239 281.382 97.6507 281.334 97.782 281.335H100.143C100.212 281.335 100.28 281.348 100.344 281.375C100.407 281.402 100.464 281.442 100.512 281.491C100.56 281.541 100.597 281.6 100.622 281.664C100.646 281.728 100.657 281.797 100.655 281.866V294.144C100.648 294.975 100.361 295.779 99.8392 296.426C99.3176 297.072 98.5926 297.523 97.782 297.705C88.4513 299.76 78.9232 300.782 69.3691 300.755" fill="#A2A2A2"/>
<path d="M38.6133 282.417C38.5435 282.417 38.4744 282.403 38.41 282.377C38.3455 282.35 38.2869 282.311 38.2376 282.262C38.1883 282.212 38.1491 282.154 38.1224 282.089C38.0957 282.025 38.082 281.956 38.082 281.886V247.472C38.082 247.331 38.138 247.196 38.2376 247.096C38.3372 246.996 38.4724 246.94 38.6133 246.94C38.7542 246.94 38.8893 246.996 38.9889 247.096C39.0886 247.196 39.1445 247.331 39.1445 247.472V281.886C39.1445 282.027 39.0886 282.162 38.9889 282.262C38.8893 282.361 38.7542 282.417 38.6133 282.417Z" fill="#A2A2A2"/>
<path d="M100.261 282.417C100.123 282.412 99.9931 282.354 99.8977 282.255C99.8023 282.156 99.749 282.024 99.7491 281.886V247.472C99.7341 247.395 99.7362 247.316 99.7555 247.24C99.7747 247.164 99.8106 247.093 99.8605 247.032C99.9103 246.972 99.9729 246.923 100.044 246.89C100.115 246.856 100.192 246.839 100.271 246.839C100.349 246.839 100.426 246.856 100.497 246.89C100.568 246.923 100.631 246.972 100.681 247.032C100.73 247.093 100.766 247.164 100.786 247.24C100.805 247.316 100.807 247.395 100.792 247.472V281.886C100.792 282.027 100.736 282.162 100.636 282.262C100.537 282.361 100.402 282.417 100.261 282.417Z" fill="#A2A2A2"/>
<path d="M38.6133 238.184C38.4724 238.184 38.3372 238.128 38.2376 238.029C38.138 237.929 38.082 237.794 38.082 237.653V169.435C38.082 169.294 38.138 169.159 38.2376 169.059C38.3372 168.959 38.4724 168.903 38.6133 168.903C38.7542 168.903 38.8893 168.959 38.9889 169.059C39.0886 169.159 39.1445 169.294 39.1445 169.435V237.653C39.1445 237.794 39.0886 237.929 38.9889 238.029C38.8893 238.128 38.7542 238.184 38.6133 238.184Z" fill="#A2A2A2"/>
<path d="M100.261 238.184C100.123 238.179 99.9931 238.121 99.8977 238.022C99.8023 237.922 99.749 237.79 99.7491 237.653V169.434C99.7341 169.357 99.7362 169.278 99.7555 169.202C99.7747 169.126 99.8106 169.055 99.8605 168.995C99.9103 168.934 99.9729 168.886 100.044 168.852C100.115 168.819 100.192 168.801 100.271 168.801C100.349 168.801 100.426 168.819 100.497 168.852C100.568 168.886 100.631 168.934 100.681 168.995C100.73 169.055 100.766 169.126 100.786 169.202C100.805 169.278 100.807 169.357 100.792 169.434V237.653C100.792 237.794 100.736 237.929 100.636 238.028C100.537 238.128 100.402 238.184 100.261 238.184Z" fill="#A2A2A2"/>
<path d="M90.2646 259.336C90.213 259.336 90.1618 259.326 90.114 259.306C90.0663 259.286 90.0229 259.257 89.9864 259.221C89.9498 259.184 89.9209 259.141 89.9011 259.093C89.8813 259.045 89.8711 258.994 89.8711 258.943V253.414C89.8711 253.309 89.9126 253.209 89.9864 253.135C90.0602 253.061 90.1603 253.02 90.2646 253.02C90.369 253.02 90.4691 253.061 90.5429 253.135C90.6167 253.209 90.6582 253.309 90.6582 253.414V258.943C90.6582 259.047 90.6167 259.147 90.5429 259.221C90.4691 259.295 90.369 259.336 90.2646 259.336Z" fill="#A2A2A2"/>
<path d="M46.0925 261.619H44.8135V280.725H46.0925V261.619Z" fill="#A2A2A2"/>
<path d="M45.0484 261.855H45.8551V280.489H45.0484V261.855ZM44.8123 261.383L44.5762 261.619V280.725L44.8123 280.961H46.0912L46.3076 280.725V261.619L46.0912 261.383H44.8123Z" fill="#A2A2A2"/>
<path d="M45.1292 261.5L44.6373 260.359L45.5031 258.962L46.5459 257.919L47.0772 256.699V255.656L46.3688 254.259L43.2402 253.374L42.3548 254.417L44.2831 255.656L43.7518 257.388L41.8433 258.785L41.3906 260.93L42.5122 262.11V277.694L41.4694 279.445L41.4103 282.495L42.1777 284.148L43.6732 282.869L45.0898 280.626V261.638" fill="#434343"/>
<path d="M41.7432 282.436L42.2941 283.617L43.4157 282.653L44.7734 280.547V261.638C44.7613 261.607 44.7613 261.572 44.7734 261.54L44.3208 260.497C44.2967 260.452 44.2841 260.401 44.2841 260.35C44.2841 260.298 44.2967 260.247 44.3208 260.202L45.1867 258.805L46.2491 257.742L46.7214 256.641V255.735L46.1114 254.535L43.3173 253.748L42.8058 254.358L44.4192 255.381C44.4793 255.421 44.525 255.478 44.5498 255.545C44.5746 255.613 44.5771 255.686 44.5569 255.755L44.0257 257.487C44.0097 257.558 43.9676 257.621 43.9076 257.664L42.0974 258.982L41.7235 260.832L42.727 261.894C42.7544 261.964 42.7544 262.041 42.727 262.111V277.694C42.7405 277.753 42.7405 277.813 42.727 277.871L41.7235 279.524L41.7432 282.436ZM42.1761 284.404C42.1281 284.389 42.084 284.363 42.0466 284.329C42.0093 284.295 41.9797 284.254 41.9597 284.207L41.212 282.555C41.2034 282.509 41.2034 282.462 41.212 282.417V279.347C41.1954 279.296 41.1954 279.241 41.212 279.19L42.2154 277.537V262.17L41.1923 261.068C41.1548 261.033 41.1263 260.99 41.1092 260.942C41.092 260.894 41.0868 260.843 41.0939 260.792L41.5464 258.648C41.5613 258.57 41.6032 258.5 41.6645 258.451L43.4944 257.113L43.9273 255.716L42.2154 254.634C42.1354 254.577 42.0793 254.493 42.058 254.397C42.0401 254.357 42.0309 254.314 42.0309 254.27C42.0309 254.225 42.0401 254.182 42.058 254.142L42.9238 253.099C42.9612 253.048 43.0132 253.009 43.0728 252.988C43.1325 252.967 43.1971 252.965 43.2583 252.981L46.4066 253.866C46.4525 253.874 46.496 253.892 46.5336 253.919C46.5713 253.946 46.6019 253.982 46.623 254.024L47.3116 255.421C47.3204 255.473 47.3204 255.526 47.3116 255.578V256.621C47.3116 256.621 47.3116 256.621 47.3116 256.759L46.7804 257.979V258.077L45.7375 259.12L45.0095 260.32L45.4423 261.284C45.4619 261.327 45.4721 261.374 45.4721 261.422C45.4721 261.469 45.4619 261.516 45.4423 261.56V280.547C45.4423 280.547 45.4423 280.685 45.4423 280.725L44.006 282.968L42.5106 284.247C42.4411 284.274 42.3637 284.274 42.2941 284.247" fill="#A2A2A2"/>
<path d="M94.4 261.619H93.1211V280.725H94.4V261.619Z" fill="#A2A2A2"/>
<path d="M93.3549 261.855H94.1615V280.489H93.3549V261.855ZM93.1188 261.383L92.9023 261.619V280.725L93.1188 280.961H94.3977L94.6338 280.725V261.619L94.3977 261.383H93.1188Z" fill="#A2A2A2"/>
<path d="M94.0632 261.5L94.5551 260.359L93.6893 258.962L92.6464 257.919L92.1152 256.699V255.656L92.8236 254.259L95.9717 253.374L96.8375 254.417L94.9093 255.656L95.4406 257.388L97.3491 258.785L97.8018 260.93L96.6802 262.11V277.694L97.7427 279.445L97.7821 282.495L97.0344 284.148L95.5192 282.869L94.1026 280.626V261.638" fill="#434343"/>
<path d="M95.795 282.653L96.9363 283.617L97.4872 282.436V279.524L96.4837 277.871C96.4837 277.871 96.4837 277.773 96.4837 277.694V262.111C96.4563 262.041 96.4563 261.964 96.4837 261.894L97.4872 260.832L97.1133 258.982L95.2834 257.664C95.2286 257.617 95.1877 257.555 95.1654 257.487L94.6538 255.755C94.6301 255.686 94.6309 255.612 94.656 255.544C94.6811 255.475 94.729 255.418 94.7915 255.381L96.3853 254.358L95.8934 253.748L93.0994 254.535L92.4894 255.735V256.641L92.9616 257.742L93.9651 258.746L94.8899 260.202C94.914 260.247 94.9266 260.298 94.9266 260.35C94.9266 260.401 94.914 260.452 94.8899 260.497L94.4374 261.52C94.4466 261.559 94.4466 261.6 94.4374 261.638V280.547L95.795 282.653ZM97.0544 284.483C96.9848 284.51 96.9075 284.51 96.8379 284.483L95.3425 283.204L93.906 280.961C93.906 280.961 93.906 280.961 93.906 280.784V261.815C93.8819 261.77 93.8694 261.719 93.8694 261.668C93.8694 261.616 93.8819 261.566 93.906 261.52L94.339 260.556L93.5519 259.297L92.5681 258.313V258.215L92.0369 256.995C92.0288 256.949 92.0288 256.903 92.0369 256.857V255.578C92.0281 255.526 92.0281 255.473 92.0369 255.421L92.7255 254.024C92.7466 253.982 92.7772 253.946 92.8149 253.919C92.8525 253.892 92.896 253.874 92.9419 253.866L96.0902 252.981C96.1514 252.965 96.216 252.967 96.2757 252.988C96.3353 253.009 96.3873 253.048 96.4247 253.099L97.2905 254.142C97.3274 254.171 97.3572 254.209 97.3777 254.251C97.3981 254.294 97.4088 254.34 97.4088 254.388C97.4088 254.435 97.3981 254.481 97.3777 254.524C97.3572 254.567 97.3274 254.604 97.2905 254.634L95.5786 255.716L96.0114 257.113L97.8413 258.451C97.9027 258.5 97.9445 258.57 97.9594 258.648L98.412 260.792C98.4192 260.843 98.4139 260.894 98.3968 260.942C98.3796 260.99 98.3511 261.033 98.3137 261.068L97.2905 262.17V277.537L98.294 279.19C98.3105 279.241 98.3105 279.296 98.294 279.347V282.417C98.3025 282.462 98.3025 282.509 98.294 282.555L97.5463 284.207C97.5263 284.254 97.4966 284.295 97.4593 284.329C97.422 284.363 97.3779 284.389 97.3299 284.404" fill="#A2A2A2"/>
<path d="M137.333 233.481H104.67C104.582 233.481 104.497 233.445 104.434 233.383C104.371 233.32 104.336 233.235 104.336 233.146C104.336 233.057 104.371 232.972 104.434 232.91C104.497 232.847 104.582 232.812 104.67 232.812H137.333C137.422 232.812 137.507 232.847 137.57 232.91C137.633 232.972 137.668 233.057 137.668 233.146C137.668 233.235 137.633 233.32 137.57 233.383C137.507 233.445 137.422 233.481 137.333 233.481Z" fill="#A2A2A2"/>
<path d="M137.313 106.037H103.765C103.72 106.04 103.675 106.033 103.633 106.018C103.592 106.002 103.554 105.977 103.522 105.946C103.49 105.914 103.466 105.876 103.45 105.834C103.434 105.792 103.427 105.747 103.43 105.703C103.43 105.66 103.439 105.617 103.456 105.577C103.473 105.538 103.498 105.502 103.529 105.473C103.561 105.443 103.598 105.421 103.638 105.406C103.679 105.391 103.722 105.385 103.765 105.388H137.313C137.397 105.388 137.477 105.421 137.536 105.48C137.595 105.539 137.628 105.619 137.628 105.703C137.631 105.746 137.625 105.789 137.61 105.829C137.595 105.87 137.573 105.907 137.543 105.938C137.514 105.969 137.478 105.994 137.438 106.011C137.399 106.028 137.356 106.037 137.313 106.037Z" fill="#A2A2A2"/>
<path d="M49.4382 300.518H1.05373C1.01068 300.519 0.968066 300.51 0.928528 300.493C0.88899 300.476 0.853371 300.451 0.823864 300.419C0.794358 300.388 0.771583 300.351 0.756971 300.31C0.742359 300.27 0.736206 300.227 0.738897 300.184C0.738897 300.1 0.772089 300.02 0.83113 299.961C0.890171 299.902 0.970231 299.869 1.05373 299.869H49.4382C49.5217 299.869 49.6018 299.902 49.6608 299.961C49.7199 300.02 49.753 300.1 49.753 300.184C49.7556 300.227 49.7496 300.27 49.7349 300.31C49.7203 300.351 49.6976 300.388 49.668 300.419C49.6385 300.451 49.6029 300.476 49.5633 300.493C49.5238 300.51 49.4812 300.519 49.4382 300.518Z" fill="#A2A2A2"/>
<path d="M49.9107 39.275H1.21142C1.1227 39.275 1.03762 39.2397 0.974891 39.177C0.91216 39.1143 0.876953 39.0292 0.876953 38.9405C0.876953 38.8517 0.91216 38.7667 0.974891 38.7039C1.03762 38.6412 1.1227 38.606 1.21142 38.606H49.9107C49.9994 38.606 50.0846 38.6412 50.1473 38.7039C50.21 38.7667 50.2452 38.8517 50.2452 38.9405C50.2452 39.0292 50.21 39.1143 50.1473 39.177C50.0846 39.2397 49.9994 39.275 49.9107 39.275Z" fill="#A2A2A2"/>
<path d="M5.79591 158.928C5.71065 158.923 5.63053 158.886 5.572 158.823C5.51346 158.761 5.48094 158.679 5.48108 158.593V45.5324C5.47839 45.4895 5.48455 45.4464 5.49916 45.4059C5.51377 45.3654 5.53655 45.3283 5.56605 45.297C5.59556 45.2656 5.63118 45.2407 5.67072 45.2236C5.71025 45.2066 5.75286 45.1978 5.79591 45.1979C5.84059 45.195 5.88535 45.2017 5.92724 45.2175C5.96913 45.2333 6.00721 45.2578 6.03887 45.2895C6.07053 45.3211 6.09502 45.3592 6.11081 45.4011C6.12659 45.443 6.13327 45.4877 6.13038 45.5324V158.593C6.13038 158.682 6.09517 158.767 6.03244 158.83C5.96971 158.893 5.88463 158.928 5.79591 158.928Z" fill="#A2A2A2"/>
<path d="M38.2427 40.77C38.1555 40.7652 38.0732 40.7285 38.0114 40.6667C37.9497 40.605 37.9129 40.5226 37.9082 40.4354V1.75149C37.9082 1.66277 37.9435 1.57769 38.0062 1.51496C38.0689 1.45223 38.154 1.41699 38.2427 1.41699C38.3314 1.41699 38.4165 1.45223 38.4793 1.51496C38.542 1.57769 38.5773 1.66277 38.5773 1.75149V40.4354C38.5725 40.5226 38.5358 40.605 38.474 40.6667C38.4123 40.7285 38.3299 40.7652 38.2427 40.77Z" fill="#A2A2A2"/>
<path d="M100.362 40.7693C100.277 40.7643 100.196 40.7268 100.138 40.6647C100.079 40.6025 100.047 40.5202 100.047 40.4348V1.75086C100.047 1.66736 100.08 1.58729 100.139 1.52825C100.198 1.46921 100.278 1.43604 100.362 1.43604C100.447 1.43589 100.529 1.46842 100.592 1.52696C100.654 1.58549 100.691 1.6656 100.696 1.75086V40.4348C100.692 40.522 100.655 40.6044 100.593 40.6661C100.531 40.7278 100.449 40.7646 100.362 40.7693Z" fill="#A2A2A2"/>
<path d="M95.0864 233.009H43.7504C42.3657 233.014 41.0395 233.568 40.0622 234.549C39.0849 235.53 38.5361 236.858 38.5361 238.243V251.21C38.5412 251.763 38.7619 252.293 39.1514 252.686C39.541 253.079 40.0685 253.305 40.6218 253.315H55.8907C57.6023 251.439 59.7011 249.957 62.0419 248.972C64.3827 247.987 66.9097 247.522 69.4479 247.609C75.8034 247.609 78.9517 249.99 82.7886 253.335H98.2149C98.4889 253.335 98.7603 253.282 99.0135 253.177C99.2667 253.072 99.4967 252.919 99.6906 252.725C100.079 252.324 100.298 251.788 100.301 251.23V238.263C100.303 237.576 100.17 236.896 99.9094 236.261C99.6485 235.627 99.2649 235.049 98.7804 234.563C98.296 234.077 97.7202 233.691 97.0863 233.428C96.4524 233.164 95.7728 233.029 95.0864 233.029" fill="#434343"/>
<path d="M69.4492 247.078C75.8244 247.078 79.1104 249.458 82.9866 252.823H84.5412H98.3147C98.7335 252.825 99.1363 252.663 99.4362 252.371C99.5827 252.223 99.6983 252.048 99.776 251.856C99.8538 251.663 99.8921 251.457 99.8888 251.249V238.282C99.8888 237.035 99.3933 235.839 98.5114 234.957C97.6295 234.075 96.4333 233.58 95.1861 233.58H43.7714C43.1537 233.578 42.5418 233.7 41.9711 233.936C41.4004 234.172 40.8821 234.519 40.4461 234.957C40.0041 235.39 39.6542 235.907 39.4175 236.479C39.1808 237.05 39.0622 237.664 39.0688 238.282V251.249C39.0662 251.455 39.1044 251.659 39.1814 251.85C39.2583 252.041 39.3724 252.214 39.517 252.361C39.6616 252.507 39.8339 252.624 40.0238 252.703C40.2137 252.782 40.4174 252.823 40.6232 252.823H55.6757C57.4268 250.938 59.5635 249.453 61.9404 248.468C64.3172 247.484 66.8782 247.023 69.4492 247.117V247.078ZM82.7899 253.905C82.7246 253.908 82.6593 253.897 82.5984 253.874C82.5374 253.85 82.482 253.814 82.4358 253.768C78.5005 250.383 75.5686 248.179 69.4492 248.179C66.9825 248.091 64.526 248.54 62.2497 249.495C59.9735 250.449 57.9318 251.887 56.2659 253.709C56.1671 253.808 56.0326 253.865 55.8921 253.866H40.7019C40.0078 253.866 39.3422 253.59 38.8514 253.099C38.3606 252.609 38.085 251.943 38.085 251.249V238.282C38.085 237.526 38.2342 236.777 38.5242 236.079C38.8141 235.381 39.2391 234.746 39.7747 234.213C40.3103 233.679 40.946 233.256 41.6454 232.968C42.3447 232.681 43.094 232.534 43.8502 232.537H95.1664C96.687 232.547 98.1424 233.156 99.2177 234.231C100.293 235.306 100.902 236.762 100.912 238.282V251.249C100.912 251.943 100.636 252.609 100.145 253.099C99.6547 253.59 98.9891 253.866 98.295 253.866H82.8686L82.7899 253.905Z" fill="#A2A2A2"/>
<path d="M7.50719 50.824L5.77565 39.0771L4.02441 50.824H7.50719Z" fill="#A2A2A2"/>
<path d="M62.0316 6.09961H44.7754V6.74893H62.0316V6.09961Z" fill="#A2A2A2"/>
<path d="M50.086 4.72168L38.3193 6.45321L50.086 8.20442V4.72168Z" fill="#A2A2A2"/>
<path d="M93.9066 6.15918H76.6504V6.8085H93.9066V6.15918Z" fill="#A2A2A2"/>
<path d="M88.5938 8.20442L100.36 6.47289L88.5938 4.72168V8.20442Z" fill="#A2A2A2"/>
<path d="M132.706 161.917C132.663 161.917 132.62 161.908 132.581 161.891C132.541 161.874 132.506 161.849 132.476 161.818C132.447 161.786 132.424 161.749 132.409 161.709C132.395 161.668 132.389 161.625 132.391 161.582V112.391C132.391 112.306 132.424 112.224 132.482 112.161C132.541 112.099 132.621 112.062 132.706 112.057C132.793 112.061 132.876 112.098 132.937 112.16C132.999 112.222 133.036 112.304 133.041 112.391V161.582C133.041 161.626 133.032 161.67 133.015 161.71C132.998 161.751 132.974 161.788 132.943 161.819C132.912 161.85 132.875 161.875 132.834 161.891C132.794 161.908 132.75 161.917 132.706 161.917Z" fill="#A2A2A2"/>
<path d="M134.42 117.626L132.689 105.879L130.938 117.645L134.42 117.626Z" fill="#A2A2A2"/>
<path d="M132.65 226.89C132.564 226.885 132.484 226.847 132.426 226.785C132.367 226.723 132.335 226.641 132.335 226.555V179.332C132.335 179.246 132.367 179.164 132.426 179.102C132.484 179.04 132.564 179.002 132.65 178.997C132.737 179.002 132.819 179.039 132.881 179.1C132.943 179.162 132.98 179.244 132.984 179.332V226.555C132.98 226.642 132.943 226.725 132.881 226.786C132.819 226.848 132.737 226.885 132.65 226.89Z" fill="#A2A2A2"/>
<path d="M130.938 221.261L132.649 233.008L134.42 221.261H130.938Z" fill="#A2A2A2"/>
<path d="M5.73671 294.045C5.65321 294.045 5.57309 294.012 5.51405 293.953C5.45501 293.894 5.42187 293.814 5.42188 293.731V180.65C5.42188 180.566 5.45501 180.486 5.51405 180.427C5.57309 180.368 5.65321 180.335 5.73671 180.335C5.77967 180.332 5.82273 180.339 5.86323 180.353C5.90372 180.368 5.9408 180.391 5.97215 180.42C6.0035 180.45 6.02843 180.485 6.04547 180.525C6.06251 180.564 6.07126 180.607 6.07117 180.65V293.731C6.07126 293.774 6.06251 293.816 6.04547 293.856C6.02843 293.895 6.0035 293.931 5.97215 293.961C5.9408 293.99 5.90372 294.013 5.86323 294.027C5.82273 294.042 5.77967 294.048 5.73671 294.045Z" fill="#A2A2A2"/>
<path d="M4.02441 288.419L5.75595 300.166L7.50719 288.419H4.02441Z" fill="#A2A2A2"/>
<path d="M3.06031 164.161V174.275H4.85088C5.42036 174.306 5.98984 174.213 6.51985 174.002C7.04986 173.792 7.52773 173.468 7.92041 173.055C8.70544 172.07 9.09797 170.829 9.02228 169.572V168.805C9.0912 167.576 8.72164 166.363 7.97943 165.381C7.61375 164.971 7.16029 164.648 6.65274 164.436C6.14518 164.225 5.59659 164.131 5.04766 164.161H3.06031ZM1.36816 175.672V162.764H5.00827C6.04829 162.738 7.07573 162.996 7.97943 163.512C8.82563 164.008 9.50928 164.739 9.94708 165.617C10.4344 166.601 10.6775 167.687 10.6555 168.785V169.611C10.6814 170.716 10.4383 171.81 9.94708 172.799C9.51531 173.686 8.83068 174.425 7.97943 174.924C7.04228 175.427 5.99305 175.684 4.9296 175.672H1.36816Z" fill="#A2A2A2"/>
<path d="M129.424 172.189C129.373 173.094 129.614 173.991 130.113 174.747C130.319 175.043 130.597 175.283 130.92 175.444C131.243 175.606 131.601 175.684 131.962 175.672C132.439 175.692 132.91 175.57 133.316 175.321C133.723 175.072 134.046 174.708 134.245 174.275V169.867C134.041 169.445 133.719 169.091 133.317 168.849C132.915 168.608 132.451 168.49 131.982 168.509C131.617 168.49 131.254 168.565 130.926 168.727C130.599 168.889 130.319 169.132 130.113 169.434C129.602 170.259 129.362 171.221 129.424 172.189ZM127.791 172.012C127.734 170.742 128.1 169.489 128.834 168.45C129.155 168.049 129.56 167.721 130.02 167.491C130.48 167.26 130.984 167.132 131.499 167.115C132.013 167.099 132.525 167.193 132.999 167.393C133.473 167.593 133.898 167.893 134.245 168.273V163.256H135.878V176.872H134.383V175.829C134.049 176.231 133.626 176.551 133.148 176.763C132.671 176.974 132.15 177.072 131.628 177.049C131.097 177.057 130.573 176.936 130.1 176.696C129.627 176.456 129.219 176.105 128.913 175.672C128.179 174.633 127.812 173.38 127.87 172.11L127.791 172.012Z" fill="#A2A2A2"/>
<path d="M67.8165 7.6546V12.3179H70.6302C71.3107 12.3537 71.9792 12.1285 72.4993 11.6883C72.7306 11.4735 72.912 11.2107 73.031 10.9184C73.15 10.6261 73.2036 10.3113 73.1881 9.9961C73.1881 8.44166 72.3419 7.6546 70.6498 7.6546H67.8165ZM67.8165 6.29693H70.3941C71.0456 6.32021 71.6828 6.10311 72.1846 5.68696C72.4086 5.50586 72.5862 5.27392 72.7025 5.01041C72.8189 4.74689 72.8707 4.45942 72.8536 4.17187C72.8722 3.88389 72.8271 3.59536 72.7216 3.32673C72.6162 3.0581 72.4531 2.81594 72.2437 2.61742C71.6588 2.24499 70.9662 2.07877 70.276 2.14519H67.7574L67.8165 6.29693ZM66.1045 13.6953V0.767836H70.335C71.4585 0.689777 72.5752 0.994979 73.5029 1.6336C73.8601 1.95656 74.1396 2.35627 74.3202 2.80271C74.5009 3.24915 74.578 3.73071 74.5458 4.21122C74.5635 4.7855 74.3829 5.34836 74.0342 5.80502C73.6783 6.28872 73.1944 6.66351 72.6371 6.88722C73.2983 7.06495 73.8805 7.46 74.29 8.00878C74.711 8.57628 74.9261 9.27029 74.8999 9.97643C74.925 10.4867 74.8376 10.9962 74.6438 11.4688C74.45 11.9415 74.1545 12.3657 73.7784 12.7115C72.8709 13.4163 71.7376 13.7661 70.5908 13.6953H66.1045Z" fill="#A2A2A2"/>
</svg>
