<svg width="724" height="305" viewBox="0 0 724 305" fill="none" xmlns="http://www.w3.org/2000/svg">
<path d="M487.342 186.399C486.637 187.425 485.868 188.258 485.644 188.258C484.857 187.548 484.205 186.701 483.721 185.758C477.729 176.142 477.024 164.955 481.927 157.486C482.69 156.33 483.57 155.256 484.554 154.281L485.644 153.255L486.797 154.313C489.113 156.911 490.83 159.985 491.828 163.32C492.801 167.283 492.904 171.409 492.129 175.416C491.355 179.422 489.722 183.213 487.342 186.527" fill="#D3D3D3"/>
<path d="M583.216 298.558C583.216 295.801 583.216 295.737 585.427 297.083C587.029 298.205 586.709 299.199 584.305 300.481C583.312 301.026 583.216 300.801 583.216 298.558Z" fill="#D3D3D3"/>
<path d="M541.015 299.263C540.021 298.205 540.085 298.077 541.527 297.083C543.61 295.737 543.738 295.801 543.738 298.269C543.738 300.737 542.681 301.09 541.015 299.263Z" fill="#D3D3D3"/>
<path d="M426.073 122.002C425.585 121.096 425.33 120.083 425.33 119.053C425.33 118.024 425.585 117.011 426.073 116.104C426.371 115.843 426.718 115.646 427.095 115.524C427.472 115.403 427.869 115.361 428.263 115.4C428.657 115.439 429.038 115.559 429.384 115.752C429.729 115.944 430.031 116.206 430.271 116.521C430.72 117.365 430.955 118.306 430.955 119.262C430.955 120.218 430.72 121.159 430.271 122.002C429.695 122.48 428.969 122.741 428.22 122.74C427.479 122.754 426.76 122.491 426.202 122.002" fill="#D3D3D3"/>
<path d="M554.055 239.674C553.574 239.674 553.414 240.155 553.414 241.566C553.369 242.312 553.456 243.061 553.67 243.777C554.279 244.418 554.728 243.521 554.728 241.598C554.728 240.187 554.567 239.674 554.055 239.674Z" fill="#A2A2A2"/>
<path d="M521.437 152.518C521.437 152.134 520.988 151.941 519.579 151.941C517.656 151.941 516.791 152.39 517.399 152.999C518.008 153.608 521.213 152.999 521.437 152.518Z" fill="#A2A2A2"/>
<path d="M553.48 233.135C553.48 234.802 553.481 235.219 554.025 235.219C554.57 235.219 554.731 234.706 554.731 232.975C554.731 230.058 553.673 230.218 553.48 233.135Z" fill="#A2A2A2"/>
<path d="M554.055 248.521C553.574 248.521 553.414 249.065 553.414 250.508C553.414 251.95 553.414 252.495 554.055 252.495C554.696 252.495 554.728 251.982 554.728 250.508C554.728 249.033 554.568 248.521 554.055 248.521Z" fill="#A2A2A2"/>
<path d="M558.735 235.219C558.991 235.219 559.152 234.257 559.152 233.007C559.152 231.757 558.991 230.795 558.735 230.795C558.478 230.795 558.286 231.821 558.286 233.007C558.286 234.193 558.511 235.219 558.735 235.219Z" fill="#A2A2A2"/>
<path d="M558.735 244.098C558.991 244.098 559.152 243.104 559.152 241.886C559.152 240.668 558.991 239.674 558.735 239.674C558.478 239.674 558.286 240.668 558.286 241.886C558.286 243.104 558.511 244.098 558.735 244.098Z" fill="#A2A2A2"/>
<path d="M558.671 248.521C558.446 248.521 558.286 249.418 558.286 250.508C558.286 252.463 558.927 253.297 559.248 251.758C559.568 250.219 559.248 248.553 558.671 248.553" fill="#A2A2A2"/>
<path d="M555.176 224.609C553.767 224.609 553.414 224.609 553.414 225.41C553.414 226.628 553.895 226.917 554.728 226.148C555.142 225.782 555.655 225.548 556.202 225.474C556.586 225.474 556.939 225.474 556.939 225.026C556.939 224.577 556.138 224.609 555.176 224.609Z" fill="#A2A2A2"/>
<path d="M563.411 224.609C562.033 224.609 560.943 224.833 560.943 225.026C560.943 225.218 561.905 225.474 563.09 225.474C564.276 225.474 565.462 225.474 565.59 225.026C565.718 224.577 564.917 224.609 563.411 224.609Z" fill="#A2A2A2"/>
<path d="M563.444 153.192C564.254 153.206 565.048 152.971 565.719 152.518C565.719 152.102 565.239 151.941 563.637 151.941C562.034 151.941 561.361 152.102 561.361 152.647C561.361 153.192 561.81 153.256 563.444 153.192Z" fill="#A2A2A2"/>
<path d="M614.17 152.614C614.17 152.165 584.722 151.717 583.568 152.165C583.502 152.186 583.44 152.221 583.388 152.267C583.337 152.314 583.296 152.371 583.268 152.435C583.241 152.499 583.228 152.569 583.23 152.638C583.232 152.708 583.249 152.776 583.28 152.838C593.572 153.374 603.887 153.299 614.17 152.614Z" fill="#A2A2A2"/>
<path d="M573.122 179.347C572.898 179.347 572.641 180.277 572.545 181.463C572.545 183.162 572.545 183.546 573.122 183.546C573.699 183.546 573.827 183.162 573.699 181.463C573.699 180.277 573.378 179.347 573.122 179.347Z" fill="#A2A2A2"/>
<path d="M572.513 133.894C572.465 134.521 572.575 135.149 572.833 135.722C573.346 136.266 573.923 135.241 573.763 133.959C573.539 132.099 572.513 132.035 572.513 133.959" fill="#A2A2A2"/>
<path d="M572.514 223.903C572.037 224.313 571.442 224.56 570.816 224.608C569.374 224.608 569.598 225.41 571.072 225.57C571.905 225.57 572.322 225.987 572.386 226.724C572.61 228.038 573.443 227.75 573.86 226.147C574.092 225.472 574.092 224.739 573.86 224.063C573.411 223.262 573.347 223.262 572.61 224.063" fill="#A2A2A2"/>
<path d="M573.701 167.84C573.701 161.878 573.412 159.73 573.028 159.57C572.643 159.409 572.451 161.333 572.451 168.032C572.35 170.996 572.457 173.962 572.771 176.911C573.573 177.68 573.797 175.276 573.701 167.84Z" fill="#A2A2A2"/>
<path d="M577.545 216.659C577.193 217.204 577.161 217.14 579.083 218.358C581.006 219.576 581.294 219.512 581.294 218.615C581.294 217.717 577.93 216.018 577.545 216.659Z" fill="#A2A2A2"/>
<path d="M564.344 218.229C562.389 219.191 561.78 219.768 562.1 220.216C562.421 220.665 565.305 219.287 566.202 218.582C566.202 218.582 566.202 218.261 566.202 218.005C566.202 217.748 565.433 217.716 564.504 218.229" fill="#A2A2A2"/>
<path d="M568.476 153.031C568.602 152.961 568.708 152.859 568.781 152.735C568.855 152.611 568.893 152.47 568.893 152.325C568.893 152.272 568.882 152.219 568.861 152.17C568.839 152.122 568.808 152.078 568.769 152.041C568.73 152.005 568.684 151.978 568.633 151.96C568.583 151.943 568.529 151.936 568.476 151.941C568.252 151.941 568.027 152.261 568.027 152.646C568.027 153.031 568.252 153.191 568.476 153.031Z" fill="#A2A2A2"/>
<path d="M573.795 154.826V153.32H577C578.73 153.32 580.204 152.999 580.204 152.743C579.201 152.286 578.099 152.087 577 152.166H573.795V150.499C573.795 148.928 573.154 148.127 572.674 148.992C572.39 150.21 572.282 151.462 572.353 152.711C572.287 153.959 572.394 155.21 572.674 156.429C573.154 157.262 573.795 156.429 573.795 154.922" fill="#A2A2A2"/>
<path d="M591.068 229.481C590.844 229.481 590.619 230.571 590.619 231.917C590.619 233.263 590.844 234.353 591.068 234.353C591.292 234.353 591.485 233.231 591.485 231.917C591.485 230.603 591.324 229.481 591.068 229.481Z" fill="#A2A2A2"/>
<path d="M567.576 93.8265C567.576 94.4675 568.153 94.8201 569.115 94.6919C570.076 94.5637 569.98 94.4034 569.916 94.1149C569.852 93.8265 567.576 93.2495 567.576 93.8265Z" fill="#A2A2A2"/>
<path d="M716.199 59.3361H717.289V154.954V250.508H716.327C715.078 250.7 715.078 250.508 716.327 255.252C716.767 256.739 717.131 258.248 717.417 259.772C717.417 260.221 710.239 260.349 682.425 260.349C654.61 260.349 647.432 260.349 647.432 259.772C647.72 258.245 648.094 256.736 648.554 255.252C649.868 250.444 649.868 250.7 648.554 250.508C647.24 250.316 647.529 250.348 647.529 242.623C647.529 234.898 647.529 234.866 648.554 234.737C649.579 234.609 649.74 234.449 648.554 229.577C647.913 227.397 647.432 225.442 647.432 225.313C647.432 225.185 648.073 224.929 648.778 224.768C649.483 224.608 650.092 224.288 650.092 224.031C647.067 223.508 643.993 223.326 640.927 223.486H631.731L631.186 221.275C630.032 216.498 627.982 200.375 628.719 202.363C629.007 203.1 630.834 203.036 631.667 202.17C632.5 201.305 632.82 200.279 632.948 195.15V190.695L650.413 190.47L667.812 190.278L669.767 188.098C673.956 183.58 676.25 177.624 676.176 171.462C676.555 165.823 674.793 160.248 671.241 155.852C670.606 155.128 670.028 154.356 669.511 153.544C669.511 153.544 670.312 153.255 671.337 153.255C673.388 153.255 673.613 152.262 671.594 152.037C670.953 152.037 670.408 151.813 670.408 151.717C670.754 151.074 671.14 150.453 671.562 149.858C674.53 145.361 676.02 140.049 675.824 134.664C675.839 128.034 673.752 121.57 669.863 116.2L668.101 113.38H632.852V49.271H675.055C709.502 49.271 717.353 49.271 717.353 49.848C717.074 51.4686 716.71 53.0735 716.263 54.6562C715.686 56.9 715.142 58.9514 715.142 59.1758C715.142 59.4002 715.622 59.4643 716.263 59.4643L716.199 59.3361ZM679.188 268.138C677.253 268.525 675.26 268.525 673.324 268.138C673.926 266.473 674.889 264.963 676.144 263.715C677.495 264.936 678.585 266.419 679.348 268.074L679.188 268.138ZM642.369 260.413H638.172V245.347C638.172 228.711 638.172 228.262 635.48 226.115L634.006 224.961H640.126C642.259 224.782 644.403 224.782 646.535 224.961C646.311 226.378 646.001 227.78 645.606 229.16C644.228 234.032 644.228 234.577 645.606 234.737C646.984 234.898 646.599 234.93 646.599 242.623C646.599 250.316 646.599 250.38 645.606 250.508C644.613 250.636 644.388 250.829 645.606 255.701C646.215 257.913 646.727 259.836 646.727 260.06C645.337 260.343 643.914 260.441 642.498 260.349L642.369 260.413ZM636.986 260.349H573.795V245.219C573.795 233.583 573.539 230.057 573.122 229.865C572.705 229.673 572.545 233.071 572.545 245.027V260.413L566.136 260.253H559.728V258.746C559.728 257.913 559.439 257.175 559.183 257.079C558.926 256.983 558.606 257.432 558.606 258.682V260.477H555.081V258.714C555.081 257.432 554.889 256.951 554.408 256.951C553.928 256.951 553.735 257.432 553.735 258.714V260.477H531.913C519.865 260.477 509.899 260.477 509.771 260.189C509.643 259.9 509.45 253.297 509.45 245.251C509.45 228.583 509.45 228.23 512.655 226.564C513.698 225.997 514.606 225.209 515.314 224.256L516.18 222.877H537.232H558.253V224.801C558.253 225.826 558.574 226.66 558.798 226.66C559.023 226.66 559.247 225.826 559.343 224.801V222.877H572.93H586.484L586.805 224.256C587.093 225.634 587.093 225.634 589.593 225.41C591.003 225.41 600.776 225.185 611.447 225.153H630.673L632.756 226.339C636.569 228.455 636.537 228.102 636.537 245.572L636.986 260.349ZM636.986 275.19C636.986 287.787 636.986 288.717 636.217 288.717C634.6 288.461 633.004 288.086 631.442 287.595L627.373 286.505C627.373 286.505 627.373 286.986 627.373 287.595V288.717H573.122C521.21 288.717 519.32 288.717 519.32 287.916C519.344 287.549 519.267 287.183 519.095 286.858C516.627 287.036 514.198 287.577 511.886 288.46C510.091 288.941 509.482 288.973 509.29 288.46C509.098 287.948 509.29 282.05 509.29 274.837V261.791L540.853 261.631H572.385V263.65C572.385 266.279 573.474 266.087 573.635 263.49V261.631H636.601L636.986 275.19ZM630.097 223.134C623.081 223.65 616.043 223.8 609.012 223.583C602.087 223.836 595.154 223.686 588.247 223.134C595.262 222.602 602.301 222.452 609.332 222.685C616.256 222.447 623.189 222.597 630.097 223.134ZM632.115 153.127V176.142C632.115 199.446 632.115 200.888 630.449 201.401C630.032 201.401 629.872 196.304 629.872 177.392V153.191L632.115 153.127ZM667.043 116.2C667.973 115.335 668.005 115.335 668.646 116.2C671.314 120.45 673.273 125.105 674.446 129.984C675.169 132.813 675.169 135.778 674.446 138.606C674.13 141.275 673.349 143.868 672.138 146.267C671.241 148.363 669.921 150.251 668.261 151.813C667.665 151.38 667.136 150.861 666.691 150.274C664.722 147.893 663.173 145.194 662.109 142.293C661.143 139.594 660.793 136.714 661.083 133.862C660.851 130.964 661.177 128.047 662.045 125.272C663.189 121.995 664.867 118.93 667.011 116.2H667.043ZM516.436 220.089C516.436 219.287 517.045 216.05 517.557 212.844C518.07 209.639 518.903 203.805 519.544 199.798L521.531 186.72C522.012 183.515 522.813 178.482 523.293 175.405C524.126 170.244 524.703 166.398 526.081 157.262L526.626 153.48H542.936C556.972 153.48 559.183 153.48 559.183 152.742C559.183 152.005 557.196 152.069 544.571 152.069H529.894V149.313V146.524L552.486 146.299C574.916 146.075 575.141 146.075 578.762 147.069C583.28 148.287 583.28 148.287 583.28 147.069V145.947H596.578C601.005 146.143 605.439 146.004 609.845 145.53C605.489 144.966 601.093 144.784 596.706 144.985H583.504V143.992C583.504 143.383 583.056 142.998 582.607 142.998C579.859 143.52 577.141 144.194 574.468 145.017C573.795 145.21 573.667 144.793 573.571 141.62C573.571 139.183 573.346 137.901 572.898 137.773C572.481 137.773 572.321 138.542 572.321 141.395V145.21H529.958V130.272V115.303H551.14H572.257V123.092C572.257 129.118 572.257 130.849 572.834 130.721C573.41 130.593 573.41 128.509 573.507 122.932V115.303H614.235V117.963C614.235 119.983 614.395 120.624 614.908 120.624C615.42 120.624 615.581 119.951 615.677 118.092V115.527H640.607C654.29 115.527 665.505 115.527 665.505 115.527C665.226 116.116 664.87 116.666 664.448 117.162C660.854 122.247 658.897 128.308 658.84 134.536C658.782 140.295 660.592 145.919 663.999 150.563C664.429 151.053 664.785 151.604 665.057 152.197C665.057 152.197 658.648 152.486 651.117 152.55C646.41 152.373 641.696 152.566 637.018 153.127C641.912 153.669 646.838 153.862 651.758 153.704H666.563L668.293 155.403C670.709 157.785 672.503 160.724 673.516 163.961C674.846 168.225 674.999 172.769 673.962 177.113C672.924 181.458 670.733 185.441 667.62 188.643L666.531 189.605H649.515H632.5V172.135C632.5 157.102 632.5 154.602 633.077 153.928C633.653 153.255 633.589 153.063 633.429 152.935C631.448 152.623 629.44 152.516 627.437 152.614C622.694 152.614 621.765 152.614 621.765 153.287C621.765 153.96 622.406 153.928 624.969 153.928H628.174V177.969C628.174 191.047 628.174 201.689 627.95 201.689C627.725 201.689 626.091 191.24 622.182 165.244C621.316 159.378 620.387 154.153 620.163 153.64C619.939 153.127 619.394 152.614 618.208 152.614C616.318 152.614 616.029 153.8 617.856 154.025C618.913 154.025 619.137 154.441 619.394 156.172C619.65 157.903 622.374 174.764 623.752 183.835C624.2 186.784 625.29 193.868 626.187 199.574C628.622 215.601 629.392 221.371 629.392 221.755C629.392 222.14 587.734 222.268 586.164 221.755C584.594 221.243 584.946 221.339 584.754 221.755C584.562 222.172 583.088 222.3 579.082 222.3H573.795V204.478C573.795 190.759 573.539 186.688 573.122 186.496C572.705 186.303 572.545 189.381 572.545 200.471V214.575L571.231 215.345C569.181 216.531 569.629 217.652 571.712 216.531C572.513 216.082 572.545 216.242 572.545 219.191V222.396H516.18L516.436 220.089ZM487.436 189.156C487.852 188.13 488.379 187.152 489.006 186.239C491.291 182.886 492.842 179.089 493.56 175.096C494.278 171.103 494.146 167.003 493.172 163.064C492.575 160.28 491.347 157.669 489.583 155.435C489.086 154.855 488.656 154.22 488.301 153.544C488.301 153.544 494.261 153.223 501.471 153.191C511.469 153.191 514.609 152.903 514.802 152.518C514.994 152.133 511.95 151.941 500.83 151.941H486.763L484.488 149.152C482.36 147.044 480.714 144.5 479.662 141.694C478.611 138.889 478.181 135.889 478.399 132.901C478.235 130.32 478.561 127.731 479.361 125.272C480.636 121.811 482.573 118.631 485.065 115.912L486.346 114.726H507.624H528.837V129.311C528.837 137.356 528.837 144.056 528.613 144.216C527.221 144.232 525.84 143.982 524.543 143.479C519.929 142.132 519.288 142.132 519.095 143.479C518.903 144.825 518.743 144.472 514.673 144.601C513.199 144.491 511.718 144.677 510.315 145.146C511.722 145.595 513.201 145.769 514.673 145.658C518.775 145.658 518.967 145.851 519.095 146.876C519.224 147.902 519.288 147.998 524.735 146.46C525.936 146.095 527.155 145.796 528.388 145.562C528.741 145.562 528.933 146.492 528.933 148.768V151.973H526.273C524.191 151.973 523.614 151.973 523.614 152.646C523.614 153.319 523.998 153.287 524.511 153.287C525.024 153.287 525.344 153.512 525.152 154.313C524.96 155.114 524.671 157.294 524.287 159.73C523.902 162.166 523.357 166.141 522.941 168.577C522.076 174.155 520.602 183.899 520.249 186.528C520.153 187.419 519.903 188.286 519.512 189.092C508.788 189.78 498.031 189.78 487.308 189.092L487.436 189.156ZM485.513 188.194C484.726 187.484 484.075 186.637 483.591 185.694C477.598 176.078 476.893 164.891 481.796 157.422C482.559 156.266 483.44 155.192 484.424 154.217L485.513 153.191L486.667 154.249C488.982 156.847 490.7 159.922 491.698 163.256C492.671 167.219 492.773 171.346 491.999 175.352C491.224 179.358 489.591 183.149 487.212 186.464C486.507 187.489 485.738 188.323 485.513 188.323V188.194ZM449.912 189.316C450.097 187.629 450.451 185.964 450.97 184.348C451.491 182.767 451.835 181.133 451.995 179.476C451.835 179.251 451.642 179.219 450.521 179.059C450.233 179.059 450.104 169.635 450.104 151.781C450.104 125.112 450.104 124.535 450.938 124.535C451.771 124.535 451.899 124.535 451.995 124.182C451.895 122.721 451.615 121.279 451.162 119.887C450.585 117.675 450.104 115.623 450.104 115.367C450.104 115.111 453.757 114.79 466.928 114.79C476.188 114.79 483.751 114.79 483.751 115.143C483.561 115.637 483.24 116.069 482.822 116.393C480.722 119.042 479.076 122.02 477.951 125.208C476.812 128.799 476.505 132.603 477.054 136.331C477.428 140.716 479.165 144.874 482.02 148.223C483.43 150.05 484.648 151.653 484.648 151.749C483.783 151.996 482.887 152.114 481.988 152.101C478.784 152.101 478.207 153.063 480.995 153.255C481.637 153.225 482.276 153.357 482.854 153.64C482.494 154.304 482.065 154.927 481.572 155.499C475.163 163.513 475.74 175.854 482.693 186.88C483.279 187.609 483.685 188.466 483.879 189.381C483.494 189.797 450.168 189.701 449.912 189.381V189.316ZM573.667 107.001L575.493 106.712C577.861 106.19 580.063 105.089 581.902 103.507L583.216 102.417H604.974V107.193C604.97 109.055 605.152 110.913 605.519 112.739C605.871 113.444 604.942 113.476 589.497 113.476H573.795L573.667 107.001ZM582.223 101.103L581.133 102.257C579.325 103.884 577.11 104.991 574.724 105.462C573.795 105.462 573.699 105.238 573.699 103.25V101.007L582.223 101.103ZM562.227 99.7886L561.522 98.0257C560.368 95.1728 560.497 94.8202 563.349 94.8202C564.855 94.8202 565.912 94.4676 566.04 94.1471C566.168 93.8265 565.463 93.5701 563.477 93.5701H560.689L560.945 91.8071C561.362 88.8581 561.618 88.6017 567.354 88.6017H572.513V91.0378C572.513 92.929 572.513 93.474 571.872 93.474C571.231 93.474 571.007 94.2112 571.872 94.692C572.338 95.1009 572.626 95.6762 572.673 96.2947C572.866 97.9936 573.667 97.9936 573.827 96.2947C573.987 94.5958 574.147 94.8523 575.557 94.7241C577.865 94.5638 578.025 93.474 575.782 93.474H574.019L573.827 91.2301C573.736 90.4206 573.736 89.6035 573.827 88.794C575.465 88.6159 577.114 88.5517 578.762 88.6017C583.28 88.6017 583.6 88.6017 584.209 89.6274C584.622 90.3382 584.894 91.1217 585.01 91.9353C585.01 93.1213 585.01 93.2816 583.697 93.474C581.774 93.7945 581.646 94.5638 583.504 94.7241C585.363 94.8843 585.331 95.5575 584.273 97.9295L583.6 99.5322L562.227 99.7886ZM563.349 101.103H572.513V103.347C572.513 105.462 572.513 105.558 571.295 105.558C570.085 105.392 568.913 105.012 567.835 104.437C566.667 103.856 565.588 103.111 564.63 102.225L563.349 101.103ZM546.557 102.449H562.355L563.925 103.699C565.592 105.228 567.659 106.251 569.885 106.648L572.129 107.129V110.335V113.54H551.076C539.091 113.54 529.958 113.54 529.83 113.155C529.591 109.743 529.72 106.315 530.215 102.93C535.539 102.412 540.892 102.262 546.237 102.481L546.557 102.449ZM539.828 68.2792C540.924 68.9916 542.082 69.6031 543.289 70.1063C544.169 70.3914 545.018 70.7674 545.82 71.2282L546.846 71.9013V99.2117L545.179 99.8527C543.023 100.472 540.79 100.785 538.546 100.782C533.868 101.071 533.547 101.007 533.547 100.205C533.547 99.404 537.521 68.151 537.809 67.3496C538.098 66.5483 538.514 67.1253 539.828 68.0548V68.2792ZM572.737 49.7518V73.5682H569.309C562.602 73.8959 555.977 75.1804 549.634 77.3827L548.48 77.8314V74.626C548.561 73.2957 548.409 71.9614 548.031 70.6833C547.218 69.8594 546.217 69.2437 545.115 68.8882C543.533 68.3007 542.027 67.526 540.629 66.5804L538.642 65.234L538.963 61.644C539.764 52.0277 540.373 51.4827 550.082 50.7776C562.067 49.88 566.905 49.6236 569.95 49.6236L572.737 49.7518ZM580.396 43.7256C581.261 44.1744 581.421 44.559 581.293 46.1297V47.9888H576.807C572.994 47.9888 572.257 47.9888 572.033 47.4118C571.328 45.5527 571.712 44.4949 573.442 43.7897C575.705 42.8832 578.216 42.815 580.524 43.5974L580.396 43.7256ZM590.49 33.0194L590.201 34.4298C590.12 35.0984 589.816 35.7198 589.336 36.1928C587.352 36.7173 585.265 36.7173 583.28 36.1928C583.28 36.0005 582.96 35.7761 582.607 35.7761C582.255 35.7761 581.934 36.0005 581.934 36.1928C581.934 36.3851 580.396 36.6416 578.217 36.6416C575.013 36.6416 574.468 36.6416 574.244 35.9043C574.019 35.1671 573.923 34.6542 573.763 34.1413L573.507 33.1156L590.49 33.0194ZM583.056 31.6732L583.312 28.4677C583.536 25.679 583.312 23.9481 582.671 24.6212C582.471 25.7754 582.364 26.9438 582.351 28.1151C582.527 29.3783 582.451 30.6641 582.126 31.8975C579.338 32.3797 576.487 32.3797 573.699 31.8975C574.075 29.6245 574.891 27.4467 576.102 25.4867C576.871 24.2045 577.095 24.1404 580.62 23.8519C587.798 23.2749 587.35 23.1467 589.144 26.3842C589.929 27.7046 590.553 29.1144 591.003 30.5833L591.323 31.9616L583.056 31.6732ZM591.419 47.7003C588.676 48.0709 585.895 48.0709 583.152 47.7003C582.875 47.0882 582.764 46.4137 582.831 45.745C582.831 44.4949 583.056 43.95 583.665 43.5653C585.942 42.9599 588.346 43.0267 590.586 43.7576C591.9 44.3346 592.124 44.6552 592.124 45.9374C592.124 47.2195 591.868 47.5721 591.419 47.7324V47.7003ZM597.828 74.4657C597.934 75.2891 597.835 76.126 597.54 76.9018C596.442 76.854 595.359 76.6266 594.335 76.2287L591.547 75.3953V62.7979C591.48 58.4629 591.672 54.1278 592.124 49.8159C595.436 49.772 598.74 50.138 601.962 50.9058C603.943 53.1874 605.369 55.8974 606.127 58.8232C606.929 61.4196 606.961 62.0286 606.48 63.2147C605.272 65.7014 603.231 67.6861 600.712 68.8242C597.892 70.2987 597.508 71.0038 597.508 74.4657H597.828ZM596.803 99.5322C597.091 99.2117 597.988 99.7887 597.988 100.334C597.988 100.879 597.219 100.879 596.867 100.334C596.514 99.7887 596.642 99.7566 596.867 99.6284L596.803 99.5322ZM589.176 56.0024C589.176 51.2584 589.464 49.5916 590.105 49.5916C590.512 51.4101 590.652 53.278 590.522 55.1369C590.522 59.7528 590.522 60.6823 589.849 60.6823C589.176 60.6823 589.176 59.881 589.176 56.1627V56.0024ZM589.625 63.7596C590.223 67.5828 590.223 71.4759 589.625 75.2991C589.026 71.4759 589.026 67.5828 589.625 63.7596ZM586.965 76.2607V84.1461H583.761V80.2035C583.645 78.8045 583.764 77.396 584.113 76.0364C584.617 75.8987 585.148 75.8987 585.651 76.0364L586.965 76.2607ZM582.543 63.7596H588.535V74.8503H587.125L584.466 74.5619L583.216 74.4016L582.543 63.7596ZM583.889 62.3492C583.248 62.3492 583.024 62.3491 583.344 62.1248C583.715 62.0588 584.095 62.0588 584.466 62.1248C584.722 62.1248 584.466 62.3492 583.889 62.3492ZM585.651 62.3492C585.331 62.3492 585.203 62.3492 585.331 62.0286C585.426 61.9652 585.537 61.9314 585.651 61.9314C585.765 61.9314 585.877 61.9652 585.972 62.0286C585.972 62.2209 585.972 62.3492 585.651 62.3492ZM586.965 62.3492C586.677 62.3492 586.549 62.3492 586.677 62.0286C586.767 61.968 586.873 61.9356 586.981 61.9356C587.09 61.9356 587.196 61.968 587.285 62.0286C587.285 62.2209 587.286 62.3492 586.965 62.3492ZM576.967 42.0588H573.763L574.211 40.1035L574.628 38.1161H578.922C582.319 38.1161 582.351 38.1161 582.351 39.2059C582.351 40.2958 582.543 40.3278 582.799 40.3278C583.056 40.3278 583.344 39.847 583.504 39.2059C583.664 38.5648 584.017 38.1161 586.132 38.1161C587.145 38.1671 588.159 38.0699 589.144 37.8276C589.625 37.8276 589.849 38.1482 590.073 39.7188C590.178 40.452 590.242 41.1904 590.266 41.9305C589.977 41.9305 580.652 42.3152 577.672 42.187L576.967 42.0588ZM583.216 60.7144V55.0728V49.3992H585.876C588.343 49.3992 588.535 49.3992 588.503 50.425C588.471 51.4507 588.503 53.4701 588.503 56.0665V60.7144H583.216ZM578.922 63.9519H581.485V68.7921C581.605 70.494 581.529 72.2039 581.261 73.8888C580.415 74.0555 579.544 74.0555 578.698 73.8888L576.487 73.6643V68.6639L576.326 63.6634L578.922 63.9519ZM578.922 62.4133C577.576 62.4133 576.999 62.4133 577.704 62.221C578.515 62.1569 579.329 62.1569 580.14 62.221C580.813 62.221 580.14 62.4133 578.922 62.4133ZM579.082 60.8426C577.576 60.8426 576.519 60.8426 576.39 60.49C576.29 58.5787 576.29 56.6636 576.39 54.7523V49.4633H581.261V55.1049V60.6823L579.082 60.8426ZM574.66 55.2331C574.66 52.0277 574.66 50.8417 574.66 52.4764C574.66 54.1112 574.66 56.7397 574.66 58.2462C574.66 59.7528 574.66 58.4065 574.66 55.2331ZM574.916 68.9524C575.088 70.5245 574.947 72.1152 574.5 73.6323C574.211 73.6323 574.051 71.7411 574.051 68.9524C574.051 66.1636 574.051 64.3045 574.5 64.3045C574.949 65.8101 575.091 67.3908 574.916 68.9524ZM547.551 101.007C546.878 101.007 546.878 101.007 547.551 100.269C548.224 99.5322 548.384 99.6604 548.544 99.7886C548.704 99.9168 548.288 101.007 547.487 101.007H547.551ZM552.582 100.301C552.325 101.007 550.467 101.295 549.922 100.718C549.696 100.296 549.596 99.8175 549.634 99.3399C549.634 98.4103 549.634 98.3141 550.851 98.5706C552.421 98.9232 552.902 99.4681 552.582 100.301ZM559.535 87.8324C557.452 88.3452 557.132 89.2428 557.132 94.2432C557.132 98.0898 557.292 98.8911 558.093 99.9169L558.958 101.039H554.921V98.25C555.029 96.9969 554.809 95.7372 554.28 94.5958C553.74 93.4009 553.508 92.0892 553.607 90.7814C553.607 88.1529 553.607 87.5759 554.697 86.6464C555.786 85.7168 556.203 85.5565 559.023 85.5565C561.842 85.5565 562.227 85.5565 561.49 86.5181C560.994 87.1587 560.311 87.6291 559.535 87.8644V87.8324ZM559.952 98.3141C560.336 99.7566 559.952 100.109 559.023 99.1796C558.221 96.0243 558.221 92.7186 559.023 89.5633C559.535 89.1787 559.599 89.7556 559.567 92.9611C559.517 94.7514 559.624 96.5427 559.888 98.3141H559.952ZM582.511 87.4157C579.199 87.7367 575.871 87.8544 572.545 87.7682C564.887 87.7682 562.932 87.7683 562.932 87.1913C562.932 86.1976 565.688 83.9859 567.995 82.896C569.482 82.2762 571.078 81.9571 572.689 81.9571C574.301 81.9571 575.896 82.2762 577.384 82.896C579.691 83.9218 582.992 86.8066 582.607 87.4798L582.511 87.4157ZM579.979 82.7357C577.812 81.4167 575.323 80.719 572.785 80.719C570.248 80.719 567.759 81.4167 565.592 82.7357C563.895 84.0383 561.752 84.6147 559.631 84.3384C556.427 84.3384 556.074 84.3385 555.145 83.2486C554.896 82.9043 554.568 82.6241 554.189 82.4308C553.811 82.2376 553.391 82.1368 552.966 82.1368C552.541 82.1368 552.122 82.2376 551.743 82.4308C551.364 82.6241 551.037 82.9043 550.787 83.2486C549.73 84.3385 549.153 84.5628 548.64 84.05C548.359 83.2928 548.25 82.4826 548.32 81.6779C548.32 79.6585 548.32 79.5624 550.21 78.8892C554.265 77.4709 558.452 76.4615 562.708 75.8761C568.712 75.2458 574.762 75.1707 580.781 75.6517L582.863 75.9723V79.9791C582.902 81.3701 582.849 82.7622 582.703 84.1461C582.703 84.1461 581.421 83.4409 579.979 82.6075V82.7357ZM586.388 99.0514C585.523 100.141 585.01 99.7566 585.427 98.25C585.673 96.4764 585.79 94.6875 585.779 92.8969C585.779 90.3647 585.779 89.0825 586.228 89.1466C586.96 92.4023 587.014 95.7737 586.388 99.0514ZM590.971 100.462C591.355 100.846 590.971 100.975 589.176 100.975C587.894 100.975 586.901 100.814 586.901 100.59C587.009 100.219 587.234 99.8932 587.542 99.6604C588.087 99.2117 588.215 98.0257 588.215 94.3074C588.215 90.0441 588.215 89.371 587.318 88.5696C586.918 88.1315 586.391 87.829 585.811 87.7042C585.106 87.7042 583.793 86.5502 583.793 85.877C583.793 85.2039 585.106 85.4924 586.709 85.4924C588.173 85.3095 589.656 85.6378 590.906 86.422C592.124 87.2554 592.188 87.5118 592.188 90.0441C592.293 91.4969 591.994 92.9503 591.323 94.2432C590.808 95.189 590.509 96.2375 590.448 97.3129C590.387 98.3883 590.566 99.4638 590.971 100.462ZM594.912 83.0563C594.207 81.8382 593.694 81.4856 592.733 81.4856C591.772 81.4856 589.977 82.6396 589.977 83.6332C589.969 83.7092 589.946 83.7828 589.91 83.8498C589.873 83.9168 589.823 83.9759 589.764 84.0236C589.704 84.0713 589.636 84.1067 589.562 84.1277C589.489 84.1488 589.412 84.155 589.336 84.1461C588.792 84.1461 588.663 83.473 588.663 80.6522C588.573 79.3912 588.692 78.1239 589.016 76.9018C591.579 77.1106 594.107 77.6272 596.546 78.4405C597.924 78.8892 597.956 78.9854 597.956 81.2612C597.956 83.5371 597.796 83.7615 597.123 84.1461C595.905 84.7872 595.905 84.7872 594.912 83.0563ZM595.617 91.1981C595.372 89.5886 595.426 87.9476 595.777 86.3579C596.243 90.5441 596.243 94.769 595.777 98.9552C595.521 100.846 595.393 100.975 594.239 100.975C593.085 100.975 592.957 100.814 592.957 99.6604C592.957 98.5065 593.15 98.3462 594.079 98.3462C595.585 98.3462 595.777 97.0961 595.489 91.1981H595.617ZM607.569 107.225C607.608 108.947 607.555 110.67 607.409 112.386C607.127 112.243 606.892 112.02 606.736 111.745C606.078 108.613 606.188 105.369 607.057 102.289C607.441 102.289 607.569 103.347 607.569 107.225ZM606.865 100.205C605.935 100.911 605.262 100.943 602.122 100.43C598.277 99.7566 598.181 99.5322 598.437 91.6148C598.597 87.8003 598.853 81.71 599.014 78.0558L599.366 71.4526L602.026 69.9781C603.522 69.1501 604.902 68.1259 606.127 66.9329L607.473 65.3623L607.698 66.6124C607.986 67.8625 608.371 71.0359 609.556 80.9086C610.52 86.9452 611.098 93.0373 611.287 99.1475C610.711 99.467 610.051 99.6013 609.396 99.5322C608.508 99.535 607.636 99.7668 606.865 100.205ZM614.876 109.822C614.395 109.822 614.203 110.302 614.203 111.585V113.348H608.851V107.962V102.513H611.415H613.914V105.43C613.914 107.674 614.074 108.315 614.587 108.315C615.1 108.315 615.26 107.674 615.26 105.43V102.417H620.579V113.476H615.26V111.713C615.26 110.431 615.068 109.95 614.587 109.95L614.876 109.822ZM622.79 107.289C622.915 108.853 622.763 110.426 622.342 111.937C622.085 112.13 621.893 110.463 621.893 107.289C621.893 104.116 622.085 102.449 622.342 102.641C622.763 104.152 622.915 105.726 622.79 107.289ZM630.769 108.924V113.476H626.988C623.367 113.476 623.239 113.476 623.784 112.642C624.112 110.813 624.252 108.955 624.2 107.097V102.417H626.828C630.513 102.417 630.866 102.994 630.866 108.828L630.769 108.924ZM630.545 101.359C630.321 101.359 628.59 101.167 626.604 101.039C625.166 101.046 623.74 100.774 622.406 100.237C621.222 99.7765 619.96 99.5479 618.689 99.5643H615.484L615.26 97.1282C614.94 93.9227 614.203 93.9227 614.01 97.1282C613.786 101.712 612.504 99.9809 611.992 94.3394C611.319 87.031 608.979 68.1189 608.178 63.2467C607.814 60.9266 607.289 58.6346 606.608 56.3871C605.645 53.8619 604.16 51.5682 602.25 49.6556C601.577 49.3351 605.775 49.2069 616.061 49.2069H630.769V75.3632C630.769 89.7236 630.769 101.423 630.449 101.423L630.545 101.359ZM529.414 58.9514C529.414 22.5697 529.638 17.5693 530.215 17.5693C530.792 17.5693 532.778 18.1462 535.086 18.7873C536.567 19.2817 538.108 19.5728 539.668 19.6528C539.828 19.6528 539.956 19.0758 539.956 18.595C539.956 18.1142 540.661 17.7616 580.268 17.7616H620.579V18.8835C620.579 19.4925 620.579 19.9733 620.932 19.9733C621.284 19.9733 623.271 19.3963 625.771 18.6912C627.323 18.1869 628.923 17.8432 630.545 17.6654C630.545 17.6654 630.769 24.6853 630.769 32.9233V47.9247H593.726V46.29C593.681 45.1228 593.265 44.0004 592.541 43.0845C592.031 42.5177 591.656 41.8422 591.445 41.1092C591.234 40.3762 591.192 39.6048 591.323 38.8533C591.366 37.0209 591.581 35.1965 591.964 33.4041L592.573 30.5833L590.586 26.7368L588.631 22.8903L586.42 22.6659L584.209 22.4415V20.5824C584.017 17.986 582.863 17.986 582.703 20.5824L582.543 22.4415L579.339 22.6659L576.134 22.8903L574.436 26.0957C573.538 27.5118 572.976 29.1145 572.793 30.7813C572.61 32.448 572.81 34.1346 573.378 35.712C573.898 36.8146 574.092 38.0425 573.939 39.2518C573.786 40.4611 573.291 41.6016 572.513 42.5396C571.606 43.703 571.06 45.1074 570.943 46.5784V48.2132L568.187 48.4696C566.649 48.662 562.323 48.9505 558.574 49.1748C544.859 50.0724 544.09 50.1685 542.327 51.1302C539.7 52.6367 538.835 54.3356 538.258 59.2399L533.74 93.7945C532.81 100.654 532.714 100.943 531.689 101.167C530.663 101.391 530.503 101.167 530.407 100.846C530.311 100.526 530.407 81.6138 530.407 58.9193L529.414 58.9514ZM720.942 260.509C718.827 260.509 718.506 260.509 718.731 259.772C719.564 257.087 720.249 254.358 720.781 251.598C720.743 251.367 720.638 251.152 720.478 250.981C720.319 250.81 720.112 250.69 719.884 250.636C719.019 250.412 719.019 250.027 719.019 154.89C719.019 59.7528 719.019 59.3681 719.884 59.3681C720.749 59.3681 721.038 58.695 719.66 53.8227C719.051 51.611 718.57 49.7198 718.57 49.5274C718.57 49.3351 719.66 49.1748 721.038 49.1748C722.416 49.1748 723.473 49.1748 723.313 48.662C723.153 48.1491 713.508 47.9247 678.259 47.9247H633.397C632.948 47.9247 632.82 43.982 632.724 30.5513C632.947 24.7751 632.754 18.9904 632.147 13.2419C631.772 13.8012 631.571 14.4595 631.571 15.1331C631.55 15.7247 631.485 16.3139 631.378 16.8961L626.636 15.6139C625.018 15.0965 623.355 14.7317 621.669 14.5241C621.413 14.8268 621.286 15.2184 621.316 15.6139C621.316 16.4794 620.611 16.4794 581.005 16.4794C541.398 16.4794 540.693 16.4794 540.693 15.6139C540.693 14.7485 540.693 14.6523 540.341 14.5241C538.654 14.7114 536.99 15.0657 535.374 15.5819C533.769 16.0989 532.115 16.4532 530.439 16.6397C530.215 16.6397 530.087 15.614 530.087 14.6523C530.087 13.6907 529.894 12.9214 529.638 12.9214C529.382 12.9214 529.189 29.9743 529.189 63.2147V113.476H487.532C454.655 113.476 445.875 113.764 445.618 114.181C445.362 114.598 446.035 114.726 447.285 114.726C448.534 114.726 449.079 114.95 449.079 115.207C449.079 115.463 448.598 117.483 447.99 119.63C447.49 121.046 447.188 122.524 447.092 124.022C447.243 124.172 447.423 124.29 447.622 124.367C447.821 124.445 448.033 124.48 448.246 124.47C449.079 124.47 449.079 124.951 448.983 151.845C448.983 177.681 448.823 179.187 448.054 179.059C447.285 178.931 446.836 179.796 448.054 184.508C448.575 186.058 448.93 187.659 449.111 189.284C449.111 189.477 448.15 189.605 447.188 189.605C446.227 189.605 445.458 189.829 445.458 190.054C445.458 190.278 458.083 190.47 482.373 190.47C502.721 190.47 519.448 190.631 519.544 190.823C519.64 191.015 519.063 195.439 518.262 200.664C517.461 205.888 516.34 213.005 515.827 216.402C515.581 218.848 515.054 221.257 514.257 223.583C513.62 224.384 512.809 225.031 511.886 225.474C508.521 227.205 508.681 226.852 508.329 244.706L508.104 260.413H476.797C449.399 260.413 445.458 260.605 445.458 261.182C445.458 261.759 449.399 261.855 476.797 261.919L508.104 262.08L508.265 277.722C508.071 282.846 508.242 287.977 508.777 293.076C509.034 293.076 509.226 292.179 509.226 291.442C509.226 290.127 509.226 290.127 511.116 290.384C512.72 290.668 514.304 291.053 515.859 291.538C518.871 292.467 519.416 292.371 519.416 291.057C519.416 289.743 520.153 290.191 573.122 290.288H626.828V291.313C626.988 292.371 627.405 292.371 631.122 291.121C632.312 290.765 633.521 290.476 634.743 290.256C636.569 289.999 636.602 289.999 636.73 291.442C636.73 292.275 637.082 292.948 637.306 292.948C637.864 287.775 638.056 282.57 637.883 277.37V261.727H656.501C662.699 261.468 668.908 261.617 675.087 262.176C674.469 263.429 673.717 264.612 672.843 265.702C671.95 266.724 671.264 267.911 670.825 269.196C674.232 269.741 677.704 269.741 681.111 269.196C680.693 267.831 680.018 266.558 679.124 265.445C677.874 263.618 676.849 262.016 676.849 261.952C676.849 261.887 687.231 261.727 699.889 261.727C720.077 261.727 722.928 261.727 722.928 261.054C722.928 260.381 722.352 260.381 720.429 260.381" fill="#A2A2A2"/>
<path d="M631.38 108.828V113.38H627.599C623.978 113.38 623.849 113.38 624.394 112.546C624.722 110.717 624.862 108.859 624.811 107.001V102.417H627.438C631.124 102.417 631.476 102.994 631.476 108.828" fill="#D3D3D3"/>
<path d="M623.399 107.193C623.524 108.756 623.372 110.33 622.951 111.841C622.694 112.033 622.502 110.366 622.502 107.193C622.502 104.019 622.694 102.352 622.951 102.545C623.372 104.056 623.524 105.629 623.399 107.193Z" fill="#D3D3D3"/>
<path d="M621.186 102.417V113.476H615.867V111.713C615.867 110.431 615.675 109.95 615.194 109.95C614.714 109.95 614.521 110.431 614.521 111.713V113.476H609.17V108.091V102.641H611.733H614.233V105.558C614.233 107.802 614.393 108.443 614.906 108.443C615.419 108.443 615.579 107.802 615.579 105.558V102.417H621.186Z" fill="#D3D3D3"/>
<path d="M607.762 107.353C607.801 109.075 607.747 110.798 607.602 112.514C607.319 112.372 607.085 112.149 606.929 111.873C606.27 108.741 606.38 105.497 607.249 102.417C607.634 102.417 607.762 103.475 607.762 107.353Z" fill="#D3D3D3"/>
<path d="M590.011 113.38H573.797V106.969L575.623 106.681C577.992 106.159 580.194 105.057 582.032 103.476L583.346 102.386H605.104V107.162C605.1 109.024 605.283 110.882 605.649 112.707C606.001 113.412 605.072 113.444 589.627 113.444" fill="#D3D3D3"/>
<path d="M572.515 113.379H551.461C539.477 113.379 530.344 113.379 530.216 112.994C529.977 109.582 530.106 106.154 530.601 102.769C535.925 102.251 541.278 102.101 546.623 102.32H562.421L563.991 103.57C565.658 105.099 567.725 106.122 569.951 106.519L572.194 107V110.206L572.515 113.379Z" fill="#D3D3D3"/>
<path d="M573.123 49.8163V73.5686H569.31C562.603 73.8963 555.978 75.1808 549.635 77.3831L548.481 77.8319V74.6264C548.562 73.2961 548.41 71.9618 548.032 70.6837C547.219 69.8599 546.219 69.2441 545.117 68.8887C543.534 68.3012 542.028 67.5264 540.63 66.5808L538.644 65.2345L538.964 61.6444C539.765 52.0281 540.374 51.4832 550.083 50.778C562.068 49.8805 566.907 49.624 569.951 49.624L573.123 49.8163Z" fill="#D3D3D3"/>
<path d="M583.088 75.78V79.9791C583.126 81.3702 583.073 82.7622 582.927 84.1462C582.927 84.1462 581.646 83.441 580.204 82.6076C578.036 81.2885 575.547 80.5909 573.01 80.5909C570.472 80.5909 567.984 81.2885 565.816 82.6076C564.12 83.9102 561.976 84.4866 559.856 84.2103C556.651 84.2103 556.299 84.2103 555.37 83.1204C555.12 82.7761 554.792 82.4959 554.414 82.3026C554.035 82.1094 553.616 82.0086 553.191 82.0086C552.765 82.0086 552.346 82.1094 551.967 82.3026C551.589 82.4959 551.261 82.7761 551.012 83.1204C549.954 84.2103 549.377 84.4347 548.865 83.9218C548.583 83.1646 548.474 82.3545 548.544 81.5498C548.544 79.5304 548.544 79.4342 550.435 78.761C554.49 77.3427 558.676 76.3333 562.932 75.7479C568.937 75.1176 574.986 75.0425 581.005 75.5236L583.088 75.78Z" fill="#D3D3D3"/>
<path d="M598.147 81.2612C598.147 83.1845 597.987 83.7615 597.314 84.1462C596.096 84.7873 596.096 84.7873 595.103 83.0563C594.398 81.8383 593.885 81.4856 592.924 81.4856C591.963 81.4856 590.168 82.6396 590.168 83.6333C590.16 83.7092 590.137 83.7829 590.101 83.8499C590.064 83.9169 590.015 83.9759 589.955 84.0236C589.895 84.0714 589.827 84.1067 589.754 84.1278C589.68 84.1488 589.603 84.1551 589.527 84.1462C588.983 84.1462 588.855 83.473 588.855 80.6523C588.764 79.3912 588.883 78.1239 589.207 76.9019C591.77 77.1107 594.298 77.6273 596.737 78.4405C598.115 78.8893 598.147 78.9854 598.147 81.2612Z" fill="#D3D3D3"/>
<path d="M606.962 63.4711C605.753 65.9578 603.713 67.9426 601.194 69.0806C598.374 70.5551 597.989 71.2603 597.989 74.7222C598.096 75.5456 597.996 76.3825 597.701 77.1583C596.603 77.1104 595.521 76.8831 594.496 76.4852L591.709 75.6517V63.0544C591.641 58.7194 591.833 54.3843 592.285 50.0724C595.597 50.0284 598.901 50.3945 602.123 51.1622C604.105 53.4438 605.531 56.1539 606.289 59.0796C607.09 61.676 607.122 62.2851 606.641 63.4711" fill="#D3D3D3"/>
<path d="M674.192 138.735C673.876 141.404 673.095 143.996 671.885 146.396C670.987 148.491 669.667 150.379 668.007 151.941C667.411 151.508 666.882 150.99 666.437 150.403C664.468 148.021 662.919 145.322 661.855 142.421C660.889 139.722 660.539 136.842 660.829 133.991C660.597 131.092 660.923 128.176 661.791 125.4C662.935 122.123 664.613 119.058 666.758 116.329C667.687 115.463 667.719 115.463 668.36 116.329C671.028 120.578 672.987 125.233 674.16 130.112C674.883 132.941 674.883 135.906 674.16 138.735" fill="#D3D3D3"/>
<path d="M579.756 94.7887C580.461 94.7887 580.878 94.5323 580.878 94.1155C580.878 93.6988 580.461 93.4424 579.756 93.4424C579.051 93.4424 578.666 93.7309 578.666 94.1155C578.666 94.5002 579.051 94.7887 579.756 94.7887Z" fill="#A2A2A2"/>
<path d="M586.709 239.161C586.709 240.956 586.709 241.469 587.158 241.34C587.607 241.212 587.735 240.379 587.735 239.096C587.735 236.212 586.901 236.244 586.709 239.096" fill="#A2A2A2"/>
<path d="M591.068 238.327C590.844 238.327 590.619 239.353 590.619 240.539C590.619 241.725 590.844 242.751 591.068 242.751C591.292 242.751 591.485 241.789 591.485 240.539C591.485 239.289 591.324 238.327 591.068 238.327Z" fill="#A2A2A2"/>
<path d="M580.364 224.609C579.018 224.609 578.249 224.609 578.441 225.026C578.634 225.442 579.595 225.474 580.684 225.474C581.774 225.474 582.639 225.474 582.639 225.026C582.639 224.577 581.614 224.609 580.364 224.609Z" fill="#A2A2A2"/>
<path d="M587.192 249.867C587.513 249.867 587.737 248.873 587.737 247.719C587.737 246.565 587.513 245.732 587.192 245.636C586.872 245.539 586.615 246.084 586.615 247.719C586.615 249.354 586.808 249.963 587.192 249.867Z" fill="#A2A2A2"/>
<path d="M587.32 254.291C586.808 254.291 586.615 254.803 586.615 256.534C586.615 259.451 587.705 259.291 587.865 256.374C587.865 254.739 587.865 254.291 587.32 254.291Z" fill="#A2A2A2"/>
<path d="M591.068 255.605C590.844 255.605 590.619 256.631 590.619 257.817C590.619 259.003 590.844 260.028 591.068 260.028C591.292 260.028 591.485 259.067 591.485 257.817C591.485 256.567 591.324 255.605 591.068 255.605Z" fill="#A2A2A2"/>
<path d="M591.064 246.982C590.688 247.747 590.533 248.602 590.615 249.45C590.615 250.636 590.84 251.63 591.064 251.63C591.289 251.63 591.481 250.508 591.481 249.13C591.481 247.751 591.321 246.79 591.064 246.982Z" fill="#A2A2A2"/>
<path d="M587.192 232.494C587.513 232.334 587.737 231.5 587.737 230.346C587.737 229.192 587.513 228.359 587.192 228.263C586.872 228.166 586.615 228.711 586.615 230.346C586.615 231.981 586.808 232.558 587.192 232.494Z" fill="#A2A2A2"/>
<path d="M434.949 150.723C434.914 151.516 435.127 152.301 435.558 152.967C435.738 153.233 435.982 153.45 436.268 153.595C436.553 153.741 436.872 153.812 437.192 153.801C437.615 153.818 438.034 153.708 438.394 153.486C438.754 153.263 439.038 152.937 439.211 152.55V148.672C439.032 148.299 438.75 147.986 438.397 147.77C438.045 147.554 437.638 147.444 437.225 147.454C436.899 147.443 436.577 147.514 436.286 147.659C435.995 147.805 435.745 148.021 435.558 148.287C435.112 149.018 434.899 149.868 434.949 150.723ZM433.507 150.723C433.441 149.58 433.769 148.448 434.437 147.518C434.71 147.138 435.071 146.832 435.49 146.625C435.91 146.418 436.373 146.317 436.84 146.332C437.287 146.314 437.732 146.397 438.143 146.574C438.553 146.752 438.918 147.02 439.211 147.358V142.934H440.653V154.954H439.339V154.057C439.048 154.407 438.679 154.685 438.262 154.868C437.845 155.052 437.391 155.136 436.936 155.115C436.466 155.128 435.999 155.024 435.58 154.811C435.16 154.599 434.8 154.284 434.533 153.897C433.865 152.966 433.537 151.835 433.604 150.691L433.507 150.723Z" fill="#A2A2A2"/>
<path d="M593.761 132.516C593.764 132.341 593.724 132.168 593.646 132.012C593.568 131.856 593.453 131.721 593.312 131.618C592.845 131.323 592.321 131.126 591.774 131.041C591.172 130.952 590.588 130.768 590.044 130.496C589.653 130.327 589.319 130.049 589.082 129.695C588.873 129.382 588.761 129.014 588.762 128.637C588.759 128.293 588.839 127.953 588.996 127.646C589.152 127.339 589.379 127.075 589.659 126.874C590.293 126.366 591.09 126.104 591.902 126.137C592.75 126.101 593.581 126.374 594.242 126.906C594.526 127.132 594.755 127.42 594.91 127.748C595.066 128.075 595.144 128.435 595.139 128.797H593.665C593.664 128.602 593.621 128.409 593.538 128.232C593.455 128.054 593.334 127.898 593.184 127.772C592.821 127.483 592.366 127.335 591.902 127.355C591.462 127.325 591.024 127.437 590.653 127.676C590.513 127.78 590.4 127.916 590.322 128.071C590.245 128.227 590.204 128.399 590.204 128.573C590.202 128.731 590.24 128.886 590.312 129.026C590.385 129.165 590.491 129.285 590.621 129.374C591.098 129.611 591.604 129.783 592.127 129.887C592.736 130.007 593.328 130.2 593.889 130.464C594.283 130.642 594.625 130.918 594.883 131.266C595.107 131.607 595.219 132.011 595.203 132.42C595.216 132.775 595.141 133.127 594.984 133.446C594.828 133.765 594.595 134.04 594.306 134.247C593.61 134.725 592.777 134.962 591.934 134.92C591.317 134.94 590.704 134.819 590.14 134.567C589.65 134.355 589.228 134.011 588.922 133.574C588.636 133.159 588.479 132.668 588.474 132.163H589.916C589.922 132.389 589.98 132.611 590.085 132.811C590.191 133.011 590.341 133.184 590.524 133.317C590.932 133.615 591.43 133.763 591.934 133.734C592.404 133.758 592.871 133.646 593.28 133.413C593.432 133.318 593.555 133.186 593.64 133.028C593.724 132.871 593.766 132.694 593.761 132.516Z" fill="#A2A2A2"/>
<path d="M659.032 238.551V247.494H660.603C661.109 247.528 661.617 247.447 662.088 247.259C662.559 247.07 662.983 246.778 663.326 246.405C664.054 245.503 664.399 244.352 664.288 243.199V242.526C664.34 241.449 664.023 240.386 663.39 239.513C663.062 239.155 662.66 238.872 662.212 238.683C661.764 238.495 661.28 238.406 660.795 238.423L659.032 238.551ZM657.526 248.713V237.333H660.731C661.646 237.325 662.549 237.546 663.358 237.974C664.115 238.422 664.727 239.079 665.121 239.866C665.547 240.732 665.755 241.689 665.73 242.654V243.456C665.759 244.431 665.55 245.4 665.121 246.276C664.736 247.069 664.122 247.728 663.358 248.168C662.529 248.604 661.604 248.825 660.667 248.809L657.526 248.713Z" fill="#A2A2A2"/>
<path d="M706.843 154.569H705.337V149.28H699.601V154.569H698.095V143.158H699.601V148.062H705.337V143.158H706.843V154.569Z" fill="#A2A2A2"/>
<path d="M566.105 280.029H569.982L568.027 274.676L566.105 280.029ZM570.431 281.247H565.656L564.598 284.228H563.028L567.386 272.817H568.7L573.058 284.228H571.52L570.431 281.247Z" fill="#A2A2A2"/>
<path d="M582.13 6.8946V10.9976H584.63C585.224 11.0305 585.808 10.8356 586.264 10.4526C586.473 10.264 586.636 10.0304 586.742 9.76942C586.847 9.50844 586.892 9.22692 586.873 8.94608C586.873 7.59979 586.136 6.8946 584.662 6.8946H582.13ZM582.13 5.7086H584.405C584.973 5.73141 585.531 5.54939 585.976 5.19572C586.178 5.03665 586.338 4.83128 586.444 4.59695C586.55 4.36263 586.598 4.10625 586.584 3.84945C586.603 3.59823 586.564 3.34602 586.47 3.11248C586.375 2.87894 586.228 2.67041 586.04 2.50317C585.548 2.17688 584.963 2.01939 584.373 2.05441H582.13V5.7086ZM580.656 12.1195V0.740173H584.373C585.363 0.674277 586.345 0.945425 587.161 1.50947C587.48 1.79257 587.729 2.14492 587.89 2.53944C588.051 2.93396 588.12 3.36019 588.09 3.78535C588.089 4.29032 587.932 4.78257 587.642 5.19572C587.308 5.60367 586.879 5.92296 586.392 6.1253C586.987 6.27988 587.51 6.63579 587.872 7.1325C588.234 7.62922 588.413 8.23608 588.379 8.84992C588.406 9.29968 588.33 9.74967 588.158 10.1661C587.986 10.5825 587.722 10.9544 587.386 11.254C586.597 11.8802 585.602 12.1889 584.598 12.1195H580.656Z" fill="#A2A2A2"/>
<path d="M169.743 129.457C169.321 132.254 168.287 134.924 166.712 137.275C166.168 137.087 165.641 136.854 165.136 136.578C164.076 136.063 163.682 136.002 163.44 136.426C163.396 136.486 163.367 136.555 163.353 136.628C163.338 136.7 163.34 136.775 163.357 136.847C163.375 136.919 163.407 136.986 163.453 137.044C163.498 137.102 163.556 137.15 163.621 137.184C164.189 137.463 164.727 137.798 165.227 138.184L166.258 139.032L164.743 141.366C162.175 144.791 159.204 147.894 155.894 150.608C150.42 154.435 144.055 156.793 137.409 157.457H134.924V144.214C135.087 139.781 134.885 135.342 134.318 130.941C133.71 135.338 133.497 139.78 133.682 144.214V157.457H130.955C128.911 157.361 126.881 157.067 124.894 156.578C118.773 154.889 113.177 151.682 108.626 147.253C104.076 142.824 100.718 137.318 98.8638 131.244C97.8559 127.826 97.4861 124.251 97.7729 120.699C97.3725 116.929 97.871 113.118 99.2274 109.578C102.229 100.637 108.555 93.1936 116.895 88.7898C125.235 84.386 134.95 83.3593 144.026 85.9225C153.103 88.4856 160.845 94.4422 165.649 102.558C170.454 110.674 171.952 120.327 169.833 129.517" fill="#D3D3D3"/>
<path d="M169.44 120.092C164.198 119.52 158.923 119.318 153.652 119.486C144.925 119.486 137.773 119.486 137.773 119.759C137.788 120.034 137.908 120.294 138.107 120.486C148.551 120.888 159.009 120.757 169.44 120.092Z" fill="#A2A2A2"/>
<path d="M114.318 119.395C105.561 119.395 98.3789 119.577 98.3789 119.759C98.3795 119.897 98.4096 120.033 98.4671 120.158C98.5246 120.284 98.6081 120.395 98.7122 120.486C98.7122 120.668 106.015 120.789 114.652 120.789C128.197 120.789 130.288 120.789 130.288 120.092C130.288 119.395 128.197 119.395 114.318 119.395Z" fill="#A2A2A2"/>
<path d="M346.359 131.133C347.377 131.133 347.377 131.495 347.377 180.32C347.377 229.144 347.377 229.506 346.359 229.506C346.231 229.492 346.102 229.505 345.981 229.546C345.859 229.586 345.748 229.652 345.654 229.74C345.56 229.828 345.487 229.934 345.438 230.053C345.389 230.172 345.367 230.3 345.373 230.428C345.581 231.923 345.911 233.399 346.359 234.84C346.797 236.208 347.137 237.605 347.377 239.021C347.377 239.548 343.27 239.713 328.321 239.713H309.363V222.165C309.363 202.905 309.166 204.024 312.648 204.024C313.47 204.024 314.127 203.827 314.127 203.497C314.127 203.168 313.108 203.004 311.827 203.004C310.546 203.004 309.527 202.74 309.527 202.477C309.792 201.066 310.132 199.67 310.546 198.296C310.992 196.818 311.332 195.311 311.564 193.785C311.53 193.516 311.414 193.264 311.232 193.064C311.049 192.864 310.81 192.725 310.546 192.666C309.593 192.402 309.527 191.941 309.527 178.575C309.752 173.971 309.587 169.356 309.034 164.78C308.43 169.385 308.222 174.033 308.41 178.674V192.567H307.293C306.603 192.567 306.11 192.765 306.11 192.863C306.11 192.962 306.669 194.905 307.391 197.308C308.114 199.711 308.64 201.884 308.64 202.246C308.64 202.609 304.336 202.872 288.598 202.872H268.556L267.964 200.205C266.026 191.151 256.728 144.5 254.264 131.759C252.292 121.421 252.259 120.598 253.212 120.565C254.165 120.532 254.526 119.544 253.212 119.38C251.898 119.215 251.799 118.886 251.602 117.602C251.405 116.318 250.748 112.663 249.959 108.581C249.171 104.499 248.251 98.7041 247.692 95.4118C245.491 82.6049 237.836 66.0447 227.552 52.6122C224.792 48.9578 224.627 48.6285 225.547 48.1347C226.419 47.5816 227.223 46.9298 227.946 46.1923C229.26 44.9741 229.359 44.5461 229.359 40.9905V37.1056L231.724 35.6899C233.677 34.8454 235.38 33.5113 236.669 31.816C237.958 30.1207 238.79 28.1214 239.084 26.0106L239.741 23.3438L237.77 21.3355L235.766 19.2943L238.361 16.6934C239.807 15.2119 241.154 14.1913 241.417 14.323C242.246 15.8795 242.896 17.5252 243.355 19.2285L244.834 23.8706L246.115 23.0475C247.627 22.0269 247.265 21.6318 252.686 30.7515C267.8 55.9374 274.766 73.5511 279.332 97.5189C281.534 108.943 281.534 108.482 280.088 108.482C278.643 108.482 278.117 108.877 279.168 111.577L281.205 116.647L282.224 119.182H269.772C265.615 118.949 261.445 119.115 257.319 119.676C261.507 120.281 265.745 120.457 269.969 120.203C279.628 120.203 282.75 120.203 282.947 120.861C283.144 121.52 283.308 121.388 283.571 120.861C283.834 120.334 290.668 120.203 315.441 120.203C332.855 120.203 347.344 120.4 347.64 120.598C347.936 120.795 347.903 122.145 347.048 124.977C345.504 129.981 345.504 130.903 346.818 130.903L346.359 131.133ZM308.673 239.548H268.03V221.835L268.194 204.123L287.021 203.958C297.403 203.958 306.34 203.958 306.997 204.123L308.114 204.353L308.673 239.548ZM266.65 298.249C266.354 298.776 265.237 298.611 261.722 297.69C260.125 297.169 258.469 296.848 256.793 296.735C256.531 296.735 256.366 297.393 256.366 297.953C256.366 298.513 254.789 298.908 134.57 298.908H12.7071L12.1814 297.69L11.7214 296.439L7.25304 297.657C4.82171 298.348 2.62036 298.908 2.42322 298.908C2.22609 298.908 2.02897 285.969 2.02897 270.133V241.326H47.7972V257.985C47.7972 270.726 48.0929 274.644 48.6186 274.874C49.1443 275.105 49.21 274.545 49.21 273.755C49.21 272.965 49.21 272.405 49.44 272.405C49.67 272.405 51.8056 272.965 54.4012 273.689C56.9968 274.413 59.1982 274.973 59.231 274.973C59.377 274.616 59.4658 274.238 59.4939 273.853L59.6582 272.668H210.795V273.853C210.842 274.235 210.93 274.61 211.058 274.973C211.058 274.973 213.292 274.413 215.888 273.689C217.576 273.085 219.352 272.763 221.145 272.734C221.304 272.899 221.428 273.095 221.507 273.311C221.586 273.526 221.619 273.756 221.605 273.985C221.605 274.512 221.835 274.973 222.098 274.973C222.687 269.386 222.862 263.762 222.623 258.149V241.326H244.637H266.617V269.343C266.617 284.784 266.617 297.69 266.322 297.986L266.65 298.249ZM26.9008 204.123V239.285H14.2842H1.73323V221.572V203.86L26.9008 204.123ZM31.2378 239.548H28.1822V221.835V204.123H30.745V221.835L31.2378 239.548ZM30.0879 203.004C28.8065 203.004 28.5765 202.806 28.5765 201.72C28.5765 200.633 28.8065 200.436 30.0879 200.436C31.3692 200.436 31.6321 200.666 31.6321 201.72C31.6321 202.773 31.3692 203.004 30.0879 203.004ZM41.7845 196.419C39.7446 196.497 37.7017 196.42 35.6734 196.189C35.6734 195.958 47.1729 189.275 47.6329 189.275C47.903 190.439 47.9917 191.639 47.8957 192.83V196.419H41.7845ZM40.8318 197.44C47.4029 197.44 47.9286 197.44 47.7972 198.329C47.6658 199.217 46.8115 199.217 40.6675 199.349C38.2431 199.657 35.7831 199.523 33.4063 198.954C32.6506 197.736 33.9977 197.44 40.8318 197.44ZM47.8957 239.745H33.0449V222.033V204.321H47.2715L47.4358 222.033L47.8957 239.745ZM33.1434 200.469H47.8957V203.037H33.0449L33.1434 200.469ZM207.28 239.745V222.198C207.28 205.901 207.28 204.617 208.167 204.419C212.474 204.058 216.804 204.058 221.112 204.419C221.966 204.683 222.032 205.637 222.032 222.263V239.811L207.28 239.745ZM207.28 201.917C207.28 200.732 207.51 200.732 214.541 200.732C221.572 200.732 221.67 200.732 221.67 201.753C221.67 202.773 221.243 202.773 214.376 202.938H207.115L207.28 201.917ZM210.204 196.057C213.692 193.668 217.386 191.596 221.243 189.867C221.802 189.867 221.933 190.328 221.802 192.929V196.221L216.085 196.386C214.165 196.523 212.235 196.435 210.335 196.123L210.204 196.057ZM214.968 197.604C220.619 197.604 221.802 197.901 221.802 198.526C221.802 199.152 220.619 199.283 214.836 199.415C210.138 199.415 207.772 199.415 207.542 198.954C206.787 197.736 208.364 197.44 214.968 197.604ZM203.238 201.785C203.238 200.666 203.435 200.501 204.651 200.666C205.867 200.831 206.064 201.127 206.195 201.983C206.327 202.839 206.195 203.102 204.815 203.102C203.435 203.102 203.238 202.905 203.238 201.785ZM203.238 222.099V204.386H205.801L205.965 222.099V239.811H202.91L203.238 222.099ZM177.709 239.811V223.778C177.57 218.001 177.735 212.22 178.202 206.46C178.958 204.485 181.488 204.024 192.1 204.222L201.366 204.386V222.099V239.811H177.709ZM69.2849 239.811V222.099L69.4492 204.386H79.0103C88.4728 204.386 88.637 204.386 89.5899 205.604C90.5427 206.823 90.5427 207.777 90.5427 223.284V239.745L69.2849 239.811ZM65.2108 201.818C65.2108 200.798 65.4736 200.534 66.4922 200.534C67.5107 200.534 67.7736 200.798 67.7736 201.818C67.7736 202.839 67.5107 203.102 66.4922 203.102C65.4736 203.102 65.2108 202.839 65.2108 201.818ZM65.2108 222.099C65.2108 204.781 65.2108 204.386 66.3936 204.386C67.5764 204.386 67.4122 204.781 67.5764 222.099V239.811H65.0137L65.2108 222.099ZM70.2706 241.326C82.8872 241.326 91.5283 241.128 92.0869 240.832C93.0342 240.042 93.8255 239.082 94.4197 238.001C97.0153 233.984 97.081 233.951 116.663 233.786H133.781V238.988C133.781 246.165 134.701 246.56 134.898 239.449L135.062 233.951L150.57 233.786C156.663 233.58 162.763 233.733 168.838 234.247C171.697 234.807 172.387 235.367 175.639 239.482L177.118 241.326H221.802V256.306C221.802 264.569 221.802 271.45 221.44 271.549C219.827 271.447 218.236 271.126 216.709 270.594C211.419 269.113 211.321 269.113 210.959 270.364C210.598 271.615 210.237 271.384 135.391 271.384C60.5453 271.384 59.8224 271.384 59.8224 270.364C59.8224 269.343 58.7053 269.113 54.664 270.364C48.98 272.174 49.4728 273.656 49.4728 256.371V241.326H70.2706ZM50.5571 204.386C52.8725 204.174 55.1997 204.119 57.5225 204.222L63.3709 204.386V222.099V239.811H49.1114V204.518L50.5571 204.386ZM63.6994 203.102H49.44V200.534H63.6994V203.102ZM63.4366 198.526C63.4366 199.119 62.2866 199.283 56.8654 199.415C52.3313 199.415 50.0314 199.415 49.8342 198.954C49.0785 197.736 50.6557 197.44 56.9968 197.604C62.4509 197.604 63.568 197.901 63.568 198.526H63.4366ZM55.1898 196.485H49.5714V193.193C49.5714 191.382 49.7357 189.9 49.9985 189.9C53.7142 191.74 57.3133 193.807 60.7752 196.09C58.9364 196.448 57.0594 196.57 55.1898 196.452V196.485ZM224.2 204.353C226.699 204.087 229.216 204.032 231.724 204.189L238.033 204.353L238.197 222.066V239.778H222.952V204.518L224.2 204.353ZM230.574 200.633C237.638 200.633 238.033 200.831 238.033 201.785C238.033 202.74 237.638 202.806 230.574 202.971H223.05V200.337L230.574 200.633ZM238.033 198.493C238.033 199.086 236.817 199.25 230.804 199.382C225.942 199.382 223.478 199.382 223.28 198.921C222.525 197.703 224.168 197.473 230.969 197.571C236.883 197.571 238.033 197.868 238.033 198.493ZM229.293 196.452H223.05V189.242L228.11 191.942C236.62 196.485 236.554 196.452 229.293 196.452ZM242.435 222.231V239.778H239.38V222.231C239.162 216.267 239.326 210.296 239.873 204.353C240.374 204.188 240.915 204.188 241.417 204.353C242.37 204.65 242.435 205.144 242.435 222.231ZM240.891 203.069C239.643 203.069 239.38 202.872 239.38 201.785C239.38 200.699 239.643 200.501 240.891 200.501C242.14 200.501 242.435 200.732 242.435 201.785C242.435 202.839 242.173 203.069 240.891 203.069ZM267.176 204.353V220.815C267.176 229.934 267.176 237.869 267.176 238.527L266.913 239.68H255.512C251.631 239.787 247.748 239.666 243.881 239.317C243.651 239.153 243.52 231.35 243.52 222.066C243.52 208.304 243.52 205.012 244.21 204.551C248.116 203.883 252.092 203.728 256.038 204.09L267.176 204.353ZM2.32466 203.069L2.55463 201.95C3.27746 199.152 11.7214 156.978 16.387 133.043C17.6355 126.458 18.7526 121.256 18.884 121.158C19.0154 121.059 24.5024 120.894 31.1064 120.861C44.643 120.861 43.4602 120.334 43.5588 125.075C43.9893 131.548 45.0904 137.959 46.8444 144.203C50.1632 156.247 55.9606 167.462 63.8637 177.126C69.227 183.391 75.253 189.054 81.8359 194.016C89.1821 198.868 97.0379 202.898 105.262 206.033C112.732 208.414 120.448 209.938 128.261 210.576L133.912 210.938V212.617C134.11 214.461 135.03 214.856 135.03 213.111C135.014 212.512 135.161 211.92 135.457 211.399C137.372 210.756 139.385 210.455 141.404 210.51C163.055 208.992 183.451 199.764 198.906 184.495C214.362 169.225 223.858 148.92 225.679 127.248C225.705 125.094 226.082 122.959 226.796 120.927H238.033C252.522 120.927 252.095 119.841 237.376 119.643H226.303L225.745 112.795C224.586 99.0048 220.437 85.6342 213.588 73.617C210.204 68.261 206.426 63.1658 202.286 58.3737L200.051 55.9703L207.312 48.2993C211.288 44.1181 214.705 40.6283 214.902 40.6283C218.473 44.109 221.769 47.8625 224.759 51.855C231.473 60.4373 237.05 69.8547 241.351 79.8723C244.029 85.8414 245.854 92.1588 246.772 98.6383C247.2 101.404 248.021 106.145 248.579 109.207C249.138 112.268 250.288 118.458 251.175 122.968C253.541 135.611 258.272 159.71 262.806 181.834C265.04 192.896 266.88 202.246 266.88 202.609C266.88 202.971 264.383 203.234 255.315 203.135H243.75L243.585 201.522C243.421 200.041 243.224 199.876 241.548 199.711C239.873 199.547 239.675 199.382 239.511 198.296C239.347 197.209 238.131 196.32 231.264 192.501L223.149 187.991V185.489C223.149 184.139 222.919 183.019 222.623 183.019C222.328 183.019 222.13 184.139 222.13 185.555V188.057L214.245 192.501C207.674 196.254 206.36 197.176 206.261 198.263C206.162 199.349 205.801 199.613 204.06 199.843C202.318 200.073 202.023 200.337 201.957 201.094C201.891 201.851 201.957 202.411 201.957 202.773C201.957 203.135 199.361 203.399 190.917 203.399H179.943L176.986 206.362V222.198C177.233 227.493 177.057 232.799 176.461 238.066C176.198 238.066 175.639 237.375 175.245 236.585C174.482 235.488 173.453 234.605 172.255 234.017C170.152 232.996 169.298 232.963 152.969 232.963C137.855 232.963 135.818 232.963 135.588 232.14C135.307 229.516 135.197 226.877 135.26 224.239C135.475 221.868 135.308 219.478 134.767 217.16C134.176 219.75 133.999 222.417 134.241 225.062V232.963H117.123C97.4096 232.963 96.851 232.963 94.124 236.98C93.6967 237.734 93.19 238.441 92.6126 239.087C92.6126 239.087 92.4155 232.074 92.4155 223.58C92.6133 217.879 92.4267 212.17 91.8569 206.493C90.8712 203.695 89.5241 203.399 78.9445 203.399H69.5149V201.621C69.5149 199.876 69.5149 199.843 67.4779 199.843C66.2293 199.843 65.4408 199.58 65.4079 199.217C65.3751 198.855 65.4079 198.263 65.4079 197.835C63.0262 195.827 60.4117 194.113 57.6211 192.732L49.8342 188.419V185.653C49.8342 182.361 48.6186 182.196 48.4215 185.653V187.958L40.3389 192.501C33.5377 196.32 32.2235 197.242 32.0921 198.296C31.9607 199.349 31.6649 199.58 30.0879 199.711C28.5108 199.843 28.1822 200.041 28.0508 201.522V203.135H15.3684L2.32466 203.069ZM207.51 75.5923C202.516 75.5923 202.417 75.5923 201.563 74.2096C201.103 73.3865 198.869 70.5222 196.667 67.625L192.659 62.6207L195.714 59.526L198.803 56.4313L201.103 58.9663C205.532 63.8668 209.39 69.2569 212.602 75.0326C210.942 75.4712 209.221 75.627 207.51 75.4935V75.5923ZM222.886 112.993C222.256 106.394 220.923 99.8824 218.911 93.5682C217.184 88.5128 215.131 83.575 212.767 78.7858C211.847 77.4689 211.945 77.008 213.062 77.008C214.179 77.008 214.541 78.2262 216.118 81.5843C220.742 91.6744 223.46 102.536 224.135 113.618C224.562 121.454 223.642 121.059 222.886 112.993ZM214.376 159.085C218.348 148.779 221.083 138.036 222.525 127.084C222.919 121.882 223.182 120.697 223.905 120.697C224.627 120.697 224.102 129.125 222.82 136.039C222.069 139.939 221.071 143.788 219.831 147.562C218.564 151.916 216.719 156.08 214.344 159.941C214.179 159.941 214.179 159.545 214.344 159.085H214.376ZM213.489 157.57C212.569 159.644 212.274 159.941 210.992 159.941C209.711 159.941 209.514 159.743 209.514 159.513C209.77 158.489 210.134 157.496 210.598 156.55C214.897 146.508 217.538 135.834 218.418 124.944L218.779 120.697H220.258C221.572 120.697 221.736 120.861 221.736 122.376C220.598 134.428 217.823 146.269 213.489 157.57ZM60.1839 161.488H65.4737L67.6093 164.78C77.0375 178.705 90.4667 189.428 106.116 195.53C112.956 197.955 120.059 199.557 127.276 200.304L133.847 200.995V203.695C133.847 205.209 134.11 206.428 134.372 206.428C134.635 206.428 134.865 205.275 134.865 203.892C134.865 202.51 135.128 201.226 135.522 201.094C135.917 200.962 138.808 200.633 142.094 200.304C156.144 198.98 169.619 194.06 181.225 186.015C188.556 180.294 195.126 173.655 200.774 166.262L203.665 161.916H208.758C210.439 161.762 212.134 161.862 213.785 162.212C211.069 167.254 207.867 172.018 204.224 176.435C190.55 193.155 171.375 204.443 150.143 208.271C141.294 209.627 132.31 209.882 123.399 209.028C101.542 206.304 81.4263 195.687 66.8207 179.167C62.4258 173.881 58.4699 168.244 54.9926 162.311C56.7158 161.851 58.5058 161.695 60.2824 161.85L60.1839 161.488ZM56.6026 76.7446H58.0482L55.9454 80.9587C51.0224 90.9814 47.9396 101.81 46.8444 112.927C46.7456 115.265 46.3818 117.585 45.7601 119.841C45.4644 120.269 45.563 120.565 46.0887 120.762C46.6144 120.96 46.8444 121.783 46.8444 123.725C47.621 133.849 49.7766 143.818 53.2513 153.356C55.7812 160.336 55.7483 160.171 54.7626 160.171C53.7769 160.171 53.4155 158.953 52.397 156.879C47.0768 145.148 44.3407 132.408 44.3747 119.523C44.4087 106.638 47.2122 93.9117 52.5942 82.2098C54.9926 77.1068 55.2226 76.7117 56.6026 76.7117V76.7446ZM187.599 58.3078C176.363 48.4334 162.611 41.8798 147.876 39.3773C142.819 38.529 137.681 38.2748 132.565 38.62C120.297 38.5376 108.21 41.5853 97.4424 47.4763C85.9156 53.7069 75.9682 62.5032 68.3649 73.189L67.0507 75.1643H56.0112L57.9825 71.8721C63.3899 63.3779 70.0979 55.7896 77.8603 49.3858C94.6109 35.9343 115.594 28.8981 137.05 29.5376C158.507 30.1771 179.035 38.4504 194.959 52.8756C195.896 53.627 196.715 54.5148 197.39 55.5094C196.577 56.7113 195.629 57.8159 194.564 58.8017L191.772 61.7318L187.599 58.3078ZM135.03 176.83C135.26 176.237 136.048 176.007 138.019 176.007C145.236 175.473 152.284 173.562 158.784 170.377C163.484 167.965 167.802 164.869 171.598 161.192C175.409 157.669 175.607 157.57 177.676 157.899L179.878 158.163L182.013 154.179C182.708 152.738 183.544 151.371 184.51 150.097C185.083 150.269 185.619 150.548 186.088 150.92C186.876 151.468 187.435 151.567 187.763 151.216C188.125 150.854 187.763 150.393 186.876 149.8L185.233 148.78C185.733 147.344 186.359 145.955 187.106 144.631C189.505 140.055 189.57 139.693 188.223 137.652C187.369 136.335 187.303 135.973 187.993 133.207C188.472 130.703 188.823 128.175 189.045 125.635L189.439 120.993H196.996C204.618 120.993 206.195 120.795 205.67 119.972C202.934 119.524 200.158 119.37 197.39 119.511H189.34L189.012 115.594C188.051 104.5 183.729 93.9663 176.625 85.4033C175.68 84.4891 174.97 83.3596 174.555 82.1111C178.218 77.6001 182.252 73.4042 186.613 69.5674C190.086 72.5896 193.097 76.1059 195.55 80.004C200.852 88.0089 204.597 96.9448 206.59 106.342C207.956 114.892 208.111 123.593 207.05 132.187C204.234 148.394 196.091 163.192 183.917 174.229C171.742 185.265 156.234 191.905 139.859 193.094C138.317 193.373 136.737 193.373 135.194 193.094C134.731 187.704 134.731 182.285 135.194 176.896L135.03 176.83ZM131.908 172.451C129.97 172.323 128.04 172.092 126.126 171.76C114.599 170.051 104.003 164.443 96.0955 155.867C88.1884 147.291 83.4466 136.263 82.6573 124.614C82.6573 120.828 82.6573 120.73 83.7744 120.697C84.4315 120.697 85.0886 120.367 85.1872 120.071C85.2858 119.775 84.8915 119.413 83.8072 119.413H82.1316L82.493 115.89C83.6602 104.968 88.2055 94.6852 95.493 86.4797C102.78 78.2742 112.445 72.5568 123.136 70.1272C129.901 69.0586 136.787 68.992 143.572 69.9296C150.524 71.364 157.116 74.1855 162.957 78.2261C165.409 79.879 167.688 81.7762 169.758 83.8889C169.15 84.7485 168.48 85.5628 167.754 86.3252C166.21 88.0042 165.553 88.4652 165.027 88.0701C164.501 87.675 162.76 86.3252 160.821 84.7778C152.217 78.2909 141.563 75.1381 130.822 75.9004C120.081 76.6627 109.977 81.2887 102.371 88.9261C95.2821 95.8237 90.7606 104.943 89.557 114.77C89.4953 116.395 89.0922 117.988 88.3742 119.446C87.9799 119.709 87.9142 120.038 88.3742 120.532C88.9709 122.312 89.3461 124.158 89.4913 126.03C90.2897 132.639 92.5467 138.988 96.0987 144.614C99.6506 150.24 104.408 155.004 110.026 158.558C117.129 163.279 125.525 165.662 134.044 165.373C140.617 165.642 147.148 164.202 153.002 161.192C157.099 159.406 160.857 156.922 164.107 153.85L166.703 151.578L169.2 153.093C170.58 153.982 171.795 154.772 171.894 154.87C171.992 154.969 166.308 160.961 162.431 163.562C155.2 168.456 146.819 171.372 138.118 172.023H135.062L134.898 170.147C134.701 167.546 133.781 167.644 133.781 170.147C133.781 172.188 133.781 172.188 131.908 172.122V172.451ZM124.877 173.933C111.083 171.558 98.7431 163.924 90.4441 152.632C84.4623 144.571 80.9055 134.964 80.1931 124.944C80.1931 119.018 81.0473 119.281 81.5073 125.306C82.5969 137.642 87.9896 149.2 96.7382 157.948C105.487 166.696 117.032 172.076 129.345 173.143C132.631 173.373 133.748 173.669 133.748 174.13C133.748 174.591 130.463 174.986 124.844 174.13L124.877 173.933ZM131.12 193.193C129.641 193.193 127.604 193.193 126.651 192.929C109.842 191.208 94.1356 183.744 82.1698 171.789C70.204 159.835 62.7076 144.119 60.9395 127.281C60.6452 125.199 60.5791 123.09 60.7424 120.993C66.4635 120.597 72.2049 120.597 77.926 120.993C78.3385 122.737 78.624 124.508 78.7803 126.293C79.6725 135.565 82.9108 144.456 88.1887 152.124C93.4666 159.792 100.61 165.984 108.942 170.114C115.033 173.402 121.753 175.355 128.655 175.842L133.584 176.139V193.324L131.12 193.193ZM57.5225 138.475C56.2203 133.576 55.5468 128.531 55.5183 123.462C55.5183 120.565 55.7812 120.499 58.8039 120.861C59.2868 122.373 59.5415 123.949 59.5596 125.536C60.7206 143.181 68.3503 159.773 80.9816 172.122C93.6468 185.063 110.609 192.9 128.655 194.147L133.847 194.477V199.481H130.2C128.163 199.481 125.83 199.283 124.943 199.185C124.056 199.086 121.131 198.526 118.372 197.901C103.72 194.73 90.2545 187.491 79.5168 177.01C68.779 166.53 61.2024 153.233 57.6539 138.64L57.5225 138.475ZM183.328 64.4315C173.109 55.8038 160.822 49.9941 147.679 47.575C139.242 46.1798 130.64 46.1132 122.183 47.3775C110.531 49.3304 99.494 53.9772 89.9469 60.9493C80.3998 67.9213 72.6054 77.0268 67.1821 87.5433C62.716 96.8234 60.1043 106.889 59.4939 117.174V119.215H55.2883L55.584 113.519C56.4172 101.709 59.8698 90.2346 65.6902 79.9313C71.5106 69.6281 79.5521 60.7561 89.2284 53.9621C103.603 43.8285 120.945 38.7977 138.499 39.6685C156.054 40.5394 172.815 47.262 186.12 58.7688C187.653 59.9766 189.051 61.3452 190.293 62.8512C189.37 64.4596 188.102 65.8426 186.58 66.9007C185.376 66.1823 184.271 65.3078 183.295 64.2998L183.328 64.4315ZM172.978 80.7612C171.976 80.1993 171.049 79.5136 170.218 78.72C163.545 73.0408 155.686 68.9343 147.219 66.7032C146.89 66.7032 146.168 65.6497 145.543 64.4644L144.525 62.4232H124.187L122.906 64.4644C122.216 65.6497 121.329 66.6702 121 66.7032C109.551 69.5114 99.2892 75.8958 91.6996 84.9332C84.11 93.9705 79.5855 105.192 78.7803 116.976L78.5503 119.248L69.6135 119.413C62.1223 119.413 60.611 119.413 60.611 118.787C60.611 118.162 60.8738 115.725 61.1695 112.828C63.1794 94.7729 71.8072 78.1086 85.3805 66.0648C98.9538 54.0209 116.506 47.4555 134.635 47.6409C146.698 47.4814 158.6 50.4288 169.2 56.2008C174.711 59.2402 179.868 62.8841 184.576 67.0653L185.693 68.2834L179.549 74.5388C177.47 76.7282 175.277 78.8052 172.978 80.7612ZM187.665 119.511C187.172 119.511 186.81 118.096 186.416 114.507C185.61 108.57 183.857 102.801 181.225 97.4201C179.055 93.2355 176.444 89.2953 173.438 85.6667C172.354 84.7119 172.058 83.3951 172.879 83.3951C173.701 83.3951 179.779 91.6586 182.342 96.8934C185.276 102.951 187.164 109.463 187.928 116.153C188.19 118.853 188.125 119.446 187.566 119.446L187.665 119.511ZM185.168 136.17C184.675 136.368 184.576 136.17 184.773 135.183C185.682 131.089 186.341 126.944 186.745 122.771C186.745 121.585 187.106 120.828 187.435 120.96C188.782 121.684 186.745 135.644 185.168 136.17ZM184.28 143.874L186.088 139.561C186.712 138.146 186.745 138.113 187.435 139.002C188.125 139.891 187.927 140.384 186.153 143.611C184.379 146.837 183.098 148.286 183.098 146.903C183.397 145.774 183.793 144.672 184.28 143.611V143.874ZM167.853 144.862C169.957 141.851 171.679 138.588 172.978 135.15C172.978 134.36 174.325 134.228 174.719 134.919C173.511 138.713 171.751 142.307 169.495 145.586C168.05 147.463 166.374 148.451 166.374 147.331C166.747 146.442 167.245 145.61 167.853 144.862ZM175.015 133.24C175.015 133.24 174.818 133.438 174.522 133.438C174.38 133.429 174.246 133.367 174.148 133.263C174.051 133.159 173.996 133.021 173.997 132.878C173.997 132.648 174.259 132.549 174.522 132.68C174.639 132.734 174.743 132.812 174.828 132.908C174.913 133.005 174.976 133.118 175.015 133.24ZM174.818 129.256C175.015 127.808 175.344 125.207 175.475 123.528C175.672 121.256 176.001 120.466 176.559 120.466C177.118 120.466 177.315 121.157 177.216 124.121C177.216 128.763 176.231 131.923 175.212 131.923C174.194 131.923 174.457 131.528 174.818 129.256ZM172.584 100.68C175.08 105.465 176.694 110.662 177.348 116.022C177.676 118.985 177.611 119.314 176.691 119.314C175.771 119.314 175.639 118.853 175.344 116.318C174.428 108.783 171.512 101.631 166.9 95.6094C164.534 92.5146 163.976 90.7697 165.323 90.7697C166.67 90.7697 170.35 96.3337 172.584 100.811V100.68ZM185.726 120.828L185.43 124.549C185.003 129.652 183.689 134.82 182.703 134.952C181.669 134.817 180.674 134.469 179.779 133.932L177.545 132.812L177.874 130.277C178.104 128.894 178.399 126.129 178.596 124.153C178.794 122.178 179.056 120.631 179.319 120.861C180.414 120.919 181.51 120.919 182.605 120.861L185.726 120.828ZM172.584 86.4239C176.178 90.7152 179.092 95.5342 181.225 100.712C183.241 105.775 184.545 111.093 185.102 116.515L185.365 119.413H178.399V117.437C177.784 108.633 174.596 100.206 169.233 93.206C166.374 89.4858 166.374 89.2224 169.233 86.6215L170.81 85.107L172.584 86.4239ZM124.351 64.9912C124.516 64.0693 125.173 64.0035 134.208 63.8718C143.244 63.7401 144.065 63.8718 144.262 64.5632C144.459 65.2546 144.525 65.5509 144.262 65.6497C142.525 65.6709 140.788 65.5498 139.071 65.2875C134.697 64.7326 130.265 64.8547 125.928 65.6497C124.45 65.8801 124.253 65.6496 124.384 64.9912H124.351ZM169.462 79.4443C171.335 81.0246 171.992 81.9135 171.598 82.3086C171.204 82.7037 170.58 82.3086 169.462 81.288C161.982 74.609 152.774 70.1771 142.895 68.5001C133.017 66.8231 122.866 67.9689 113.607 71.8062C102.032 76.9472 92.5517 85.8893 86.7314 97.1568C83.6624 103.408 81.8854 110.217 81.5073 117.174C81.5073 118.787 81.3102 119.314 80.6859 119.314C80.0616 119.314 79.8645 118.853 80.1602 115.429C81.1322 105.54 84.7905 96.108 90.7377 88.157C96.6849 80.206 104.693 74.0406 113.893 70.3311C123.092 66.6215 133.13 65.5096 142.915 67.1164C152.701 68.7231 161.86 72.9868 169.397 79.4443H169.462ZM90.8055 115.89C91.609 108.782 94.1459 101.981 98.1924 96.0881C102.239 90.1948 107.671 85.3901 114.008 82.0976C120.346 78.8051 127.395 77.1262 134.533 77.209C141.672 77.2917 148.68 79.1335 154.94 82.572C158.438 84.4496 161.576 86.9356 164.206 89.9137C164.206 91.2636 162.431 90.7039 159.343 88.3335C155.345 85.1984 150.783 82.8624 145.905 81.4526C142.312 80.1896 138.498 79.6852 134.701 79.971C129.069 79.6034 123.432 80.6088 118.273 82.9012C111.495 85.7814 105.598 90.4089 101.184 96.3131C96.7687 102.217 93.9929 109.188 93.1383 116.515C92.8426 119.149 92.6783 119.413 91.4955 119.413C90.3127 119.413 90.247 119.413 90.5427 116.12L90.8055 115.89ZM91.6598 120.828C92.514 120.828 92.744 121.388 93.2369 125.405C93.7431 130.761 95.3304 135.958 97.9024 140.681C101.048 146.632 105.612 151.711 111.189 155.468C116.767 159.224 123.184 161.541 129.871 162.212C133.157 162.443 133.617 162.673 133.617 163.43C133.617 164.188 133.222 164.385 131.251 164.352C129.262 164.172 127.293 163.808 125.37 163.266C118.606 161.878 112.267 158.905 106.871 154.59C101.474 150.275 97.1736 144.742 94.3211 138.442C92.1907 133.982 91.0049 129.128 90.8384 124.186C90.8384 120.894 90.8384 120.565 91.7912 120.565L91.6598 120.828ZM157.832 153.126C151.896 157.283 144.995 159.845 137.789 160.566H135.227V146.179C135.403 141.362 135.184 136.539 134.57 131.759C133.91 136.535 133.679 141.361 133.88 146.179V160.566H130.923C128.706 160.463 126.506 160.143 124.351 159.611C117.714 157.777 111.647 154.292 106.713 149.48C101.779 144.669 98.1384 138.686 96.1282 132.088C95.0354 128.374 94.6345 124.49 94.9454 120.631C94.5113 116.535 95.0518 112.394 96.5225 108.548C99.7771 98.8343 106.636 90.7474 115.679 85.9628C124.722 81.1783 135.254 80.0629 145.095 82.8476C154.936 85.6324 163.331 92.1039 168.54 100.921C173.749 109.739 175.374 120.226 173.077 130.211C172.62 133.251 171.498 136.151 169.791 138.705C169.201 138.501 168.63 138.248 168.083 137.948C166.933 137.388 166.505 137.323 166.243 137.783C166.196 137.849 166.164 137.923 166.148 138.002C166.133 138.081 166.135 138.162 166.153 138.24C166.172 138.318 166.207 138.391 166.257 138.455C166.306 138.518 166.369 138.57 166.44 138.607C167.055 138.909 167.638 139.273 168.181 139.693L169.298 140.615L167.655 143.15C164.872 146.871 161.651 150.243 158.061 153.191L157.832 153.126ZM163.943 152.27C160.198 155.724 155.928 158.558 151.293 160.665C145.346 163.233 136.015 164.978 135.26 163.694C134.504 162.41 135.522 162.311 138.907 162.015C147.433 161.093 155.467 157.551 161.906 151.874C163.384 150.393 164.304 149.866 164.896 150.13C165.487 150.393 165.586 150.689 164.041 152.27H163.943ZM165.586 148.385C165.747 148.411 165.9 148.472 166.036 148.563C166.172 148.654 166.287 148.773 166.374 148.911C166.538 149.208 166.374 149.405 166.177 149.405C166.011 149.394 165.85 149.343 165.707 149.258C165.564 149.172 165.444 149.053 165.355 148.911C165.355 148.648 165.356 148.385 165.586 148.385ZM174.785 156.517C173.907 157.736 172.88 158.842 171.729 159.809C163.802 167.34 153.817 172.337 143.046 174.163C137.789 175.085 135.818 175.151 135.358 174.427C134.898 173.702 135.358 173.669 141.206 172.945C152.398 171.47 162.827 166.452 170.974 158.624C173.307 156.286 174.785 155.331 174.785 156.55V156.517ZM174.489 152.368C173.579 152.166 172.725 151.761 171.992 151.183C170.875 150.426 169.758 149.669 169.495 149.405C169.232 149.142 169.857 147.924 170.875 146.541C172.859 143.699 174.512 140.639 175.804 137.421C175.858 137.015 176.016 136.629 176.264 136.302C176.559 135.775 177.216 135.841 179.549 136.697C181.159 137.323 182.441 138.146 182.441 138.475C182.128 139.723 181.665 140.928 181.061 142.063L179.681 144.862L177.545 143.578C175.968 142.656 175.278 142.459 175.015 142.919C174.752 143.38 174.851 143.578 175.015 143.677C176.436 144.266 177.722 145.14 178.794 146.245C177.591 148.456 176.123 150.513 174.424 152.368H174.489ZM177.939 156.681C177.052 156.846 176.855 156.681 177.151 156.187C180.206 151.183 182.145 148.615 182.572 149.043C182.999 149.471 179.286 156.484 177.939 156.681ZM176.297 154.245C176.075 154.187 175.871 154.074 175.705 153.916C176.032 152.708 176.615 151.585 177.414 150.623C178.948 148.29 180.331 145.859 181.553 143.347C183.361 139.43 184.478 138.047 184.478 139.561C182.51 144.864 179.752 149.837 176.297 154.311V154.245ZM59.1653 156.286C56.3183 149.939 54.1168 143.321 52.5942 136.532C51.5714 131.498 51.1851 126.354 51.4442 121.223C51.0753 112.741 52.3472 104.267 55.1898 96.2678C57.424 89.387 63.6009 76.9422 64.7508 76.9092C65.0465 76.9092 65.3751 76.9092 65.3751 77.1068C65.3751 77.3043 64.0937 79.8064 62.5823 82.8683C55.7712 96.4106 52.8264 111.575 54.0727 126.689C54.8177 136.629 57.4377 146.337 61.7938 155.298L64.2908 160.467H62.9437C61.3338 160.467 61.1695 160.27 59.3953 156.352L59.1653 156.286ZM48.3886 119.709C47.5015 119.149 48.06 109.141 49.3742 103.247C51.0292 96.3372 53.3397 89.6013 56.274 83.1317C58.4753 78.4566 58.541 78.3908 60.3153 78.3908C60.9248 78.3309 61.5401 78.3981 62.1223 78.5883C62.1223 78.5883 61.1038 80.6954 59.8882 83.0329C56.5441 89.4318 54.0058 96.2219 52.3313 103.247C50.7542 109.536 50.6885 110.03 50.6885 120.697C50.3623 126.157 50.7601 131.637 51.8713 136.993C53.2679 143.453 55.2927 149.761 57.9168 155.825C58.5804 157.174 59.1406 158.572 59.5924 160.006C59.5924 160.862 57.0954 160.434 56.5369 159.48C55.9783 158.525 54.9269 155.101 53.547 150.92C49.4728 138.574 46.7787 122.869 48.3886 120.96C48.9472 120.236 48.9472 120.038 48.3886 119.676V119.709ZM212.898 106.935C214.629 116.827 214.384 126.966 212.175 136.763C208.532 153.575 199.577 168.763 186.639 180.072C173.701 191.382 157.469 198.211 140.352 199.547C136.212 199.81 135.391 199.711 135.128 199.02C134.903 198.217 134.847 197.376 134.964 196.551L135.128 194.839L139.958 194.51C151.994 193.578 163.637 189.798 173.931 183.48C183.835 177.347 192.163 168.968 198.241 159.017C204.319 149.066 207.978 137.823 208.922 126.195L209.284 121.289L210.762 120.993C212.438 120.631 212.241 119.676 210.467 119.676C209.35 119.676 209.284 119.413 208.922 115.001C207.695 99.1409 201.339 84.1148 190.819 72.2013C189.682 71.0164 188.659 69.7267 187.763 68.3493C188.305 67.4698 188.981 66.6811 189.767 66.0118L191.739 64.0693L195.024 67.7896C204.485 78.9684 210.712 92.5287 213.029 107.001L212.898 106.935ZM217.399 124.516C216.615 135.662 213.948 146.594 209.514 156.846C207.937 160.138 207.707 160.5 206.228 160.5H204.717L206.951 156.089C211.502 146.729 214.277 136.603 215.132 126.228C215.428 121.882 215.592 121.256 216.414 121.256C217.235 121.256 217.366 121.684 217.366 124.549L217.399 124.516ZM209.481 78.4566C211.255 78.4566 211.387 78.4566 213.062 82.1769C217.981 92.3176 220.946 103.297 221.802 114.54L222.098 119.742H219.042L218.451 113.157C217.944 108.726 217.176 104.328 216.151 99.9881C214.349 93.131 211.77 86.5032 208.462 80.2344C207.345 78.5883 207.51 78.292 209.481 78.292V78.4566ZM212.767 93.3377C215.11 100.137 216.59 107.205 217.169 114.375C217.465 119.413 217.399 119.577 216.348 119.577C215.296 119.577 215.264 119.281 215.264 116.91C214.842 104.747 211.734 92.8276 206.162 82.0123C204.585 78.9505 203.994 77.2714 204.388 77.2714C205.768 77.2714 209.875 85.107 212.767 93.3377ZM25.0938 86.7531C31.7215 68.5825 42.3184 52.126 56.1097 38.5871C64.9214 29.6626 75.1323 22.2446 86.3371 16.6276C102.502 8.52631 120.453 4.66377 138.512 5.40091C163.814 6.24175 188.02 15.9463 206.918 32.8256C209.025 34.555 211.042 36.39 212.964 38.3237L213.949 39.3773L206.655 46.7849C204.214 49.3782 201.636 51.8399 198.934 54.1596C197.19 53.0381 195.551 51.7598 194.039 50.3405C181.33 39.4135 165.896 32.1532 149.388 29.3358C139.436 28.1175 129.374 28.1175 119.423 29.3358C103.198 32.1088 88.0091 39.179 75.429 49.8137C66.0732 57.6478 58.3971 67.2988 52.8633 78.1852C47.3296 89.0715 44.0527 100.968 43.2302 113.157L42.8688 119.149L30.8107 119.314C26.7777 119.554 22.7312 119.433 18.7197 118.952C18.7197 116.91 24.0095 89.3212 24.8638 86.6873L25.0938 86.7531ZM208.43 28.5456C210.072 26.4386 211.978 26.702 213.687 29.2041C213.969 29.5148 214.185 29.8798 214.321 30.2768C214.458 30.6739 214.513 31.0947 214.482 31.5136C214.451 31.9325 214.336 32.3407 214.143 32.7134C213.949 33.0862 213.682 33.4156 213.358 33.6816L212.208 34.801L209.81 32.3647L207.378 29.8955L208.43 28.5456ZM222.163 42.2086C222.417 41.8489 222.748 41.5511 223.133 41.3373C223.517 41.1236 223.945 40.9995 224.383 40.9742C224.822 40.9489 225.261 41.023 225.668 41.1912C226.074 41.3593 226.437 41.617 226.73 41.9452C228.077 43.2621 228.012 44.0852 226.73 45.2375C225.449 46.3898 224.266 46.6532 222.558 44.8424L221.079 43.295L222.163 42.2086ZM214.081 36.5459C213.522 35.8874 213.621 35.5253 214.902 34.2413C216.184 32.9573 216.545 32.8256 217.399 33.4841C218.253 34.1425 218.352 34.2413 216.939 35.7557C215.526 37.2702 214.968 37.6653 214.081 36.5459ZM217.958 36.8422C219.732 35.0973 219.798 35.0644 220.488 36.085C221.052 36.8165 221.547 37.5991 221.966 38.4225C222.623 39.6406 222.59 39.8382 221.309 41.1222L219.896 42.4391L218.024 40.4966L216.118 38.5871L217.958 36.8422ZM216.939 26.702L219.272 25.9777L223.872 30.6198L228.472 35.2619L227.782 37.6982C227.059 40.1674 227.059 40.1674 225.449 39.6406C224.529 39.3772 223.74 39.048 223.74 38.8175C223.325 37.9229 222.818 37.0735 222.229 36.2825C221.309 34.8668 220.915 33.8791 221.211 33.5828C222.131 32.661 221.736 32.1671 220.455 32.4634C219.424 32.59 218.38 32.3917 217.468 31.8961C216.555 31.4005 215.819 30.6321 215.362 29.6979C214.311 27.6238 214.344 27.4592 216.939 26.702ZM220.553 22.7842L221.375 21.5002L223.806 23.9035L226.303 26.3398L225.186 27.525C224.802 28.0184 224.307 28.4134 223.74 28.6773C222.938 28.1253 222.209 27.4725 221.572 26.7349C219.436 24.562 219.371 24.4961 220.553 22.7842ZM222.788 19.7223C224.07 18.8877 225.449 18.2133 226.895 17.714L230.18 16.5617L231.856 17.8457L233.531 19.1626L230.574 22.1257C229.598 23.2344 228.47 24.1988 227.223 24.99C226.158 24.401 225.211 23.6197 224.43 22.6854C222.393 20.6113 222.229 20.3479 222.952 19.5906L222.788 19.7223ZM233.137 32.7598L232.02 33.6816C230.443 34.9327 229.983 34.801 227.322 32.1013L224.923 29.6321L226.205 28.4139L227.486 27.1958L230.344 29.9942L233.137 32.7598ZM234.649 20.0186L236.39 21.8952L238.098 23.7718L237.211 26.4715C235.963 29.9613 235.01 32.0025 234.649 32.0025C233.47 31.1119 232.371 30.1205 231.363 29.0395L228.472 26.0764L231.56 23.0804L234.649 20.0186ZM352.075 239.713C350.866 239.769 349.654 239.692 348.461 239.482C348.461 239.482 349.02 237.112 349.743 234.511C350.466 231.91 351.024 229.704 351.024 229.671C351.024 229.638 350.466 229.671 349.743 229.671H348.461V180.649V131.561H349.644C350.466 131.396 350.696 131.1 350.564 130.54C349.471 127.571 348.764 124.473 348.461 121.322C349.505 120.912 350.636 120.776 351.747 120.927C353.817 120.927 355.032 120.927 355.032 120.367C355.032 119.808 347.311 119.742 318.891 119.742H283.078L283.308 118.063C283.472 117.207 283.768 115.067 283.932 113.355C284.061 112.026 284.27 110.707 284.557 109.404C284.754 108.614 284.557 108.482 283.374 108.614C282.191 108.746 281.895 108.614 281.534 106.737C277.361 84.4156 274.963 75.8557 270.1 63.9377C264.79 51.398 258.518 39.29 251.339 27.7226L248.054 22.2903L249.237 21.4014L250.419 20.5454L247.725 18.1091C246.247 16.7922 244.44 15.2448 243.783 14.8168C243.234 14.4461 242.811 13.9183 242.567 13.3024C243.232 12.2122 244.103 11.2618 245.13 10.5039C247.364 8.56149 248.415 6.8166 247.265 6.8166C246.203 7.55398 245.222 8.40389 244.341 9.35164C243.477 10.3901 242.43 11.2605 241.253 11.9196C240.891 11.9196 240.497 12.3805 240.3 12.8744C239.4 14.2362 238.291 15.4473 237.014 16.463L234.057 18.998L232.612 17.5165C230.837 15.6728 230.344 15.6399 226.04 17.2531C224.41 17.7491 222.907 18.5951 221.636 19.7323C220.365 20.8694 219.356 22.2704 218.681 23.8377L217.301 26.1752H213.687C209.448 26.1752 208.528 26.5373 207.115 28.9407L206.031 30.7185L201.858 27.4263C178.508 9.52491 149.039 1.60697 119.883 5.40091C84.99 10.043 54.4012 31.2124 34.4577 64.662C27.9179 74.9058 23.4523 86.3385 21.3154 98.3091C20.9539 100.811 18.2269 116.614 17.7669 118.787C17.5041 119.808 17.1426 119.906 13.6928 120.071C8.96152 120.269 8.66583 121.256 13.2985 121.289C15.2042 121.289 16.7812 121.585 16.8798 121.915C16.9784 122.244 10.3744 155.101 2.02897 196.189L0.517578 203.761L0.846157 254.133C1.07615 281.788 1.40471 304.439 1.66755 304.439C1.9304 304.439 2.09465 303.418 2.09465 302.134C2.09465 299.5 2.09465 299.5 6.92446 300.85C8.36446 301.3 9.83615 301.642 11.3271 301.871C11.4567 301.872 11.585 301.845 11.7035 301.792C11.8221 301.74 11.9283 301.663 12.0152 301.567C12.102 301.471 12.1676 301.357 12.2075 301.233C12.2475 301.11 12.261 300.979 12.2471 300.85C12.2471 299.83 12.6085 299.83 134.34 299.83C256.071 299.83 256.399 299.83 256.399 300.85C256.399 301.871 257.023 302.134 262.116 300.85C263.53 300.394 265.001 300.139 266.486 300.093C266.902 301.207 267.091 302.394 267.044 303.583C267.044 304.044 267.34 304.472 267.603 304.472C267.866 304.472 268.096 293.607 268.096 272.866V241.26H288.204C299.243 241.26 308.279 241.26 308.279 241.655C308.279 242.05 306.701 247.976 305.946 250.544C305.946 251.137 305.946 251.4 306.866 251.565C307.786 251.729 308.049 251.96 308.18 256.207C308.07 257.705 308.283 259.21 308.804 260.619C309.324 259.21 309.526 257.703 309.396 256.207C309.56 252.026 309.658 251.696 310.677 251.565L311.761 251.4L310.546 246.824C309.856 244.256 309.297 241.984 309.297 241.721C309.297 241.457 318.76 241.194 332.296 241.161C350.104 241.161 355.295 240.865 355.492 240.404C355.69 239.943 354.737 239.745 352.207 239.745" fill="#A2A2A2"/>
<path d="M134.928 116.577C134.746 112.91 133.625 112.82 133.625 116.577C133.625 118.395 133.443 119.607 133.049 119.607C132.655 119.607 132.595 119.911 133.049 120.426C133.475 121.377 133.672 122.415 133.625 123.456C133.625 125.335 133.807 125.941 134.322 125.941C134.837 125.941 135.019 125.335 135.019 123.395C134.93 122.42 135.097 121.438 135.504 120.547C135.837 120.304 135.867 120.032 135.504 119.638C135.134 118.669 134.929 117.644 134.898 116.607" fill="#A2A2A2"/>
<path d="M255.669 48.3268H259.032V43.0541L258.85 43.3571L255.669 48.3268ZM260.396 48.3268H261.881V49.448H260.396V51.9632H259.032V49.448H254.123V48.6602L258.941 41.1753H260.396V48.3268Z" fill="#A2A2A2"/>
<path d="M263.761 46.5389L264.307 41.1753H269.822V42.448H265.458L265.155 45.4783C265.697 45.1598 266.314 44.9923 266.943 44.9935C267.379 44.9777 267.813 45.0562 268.215 45.2235C268.618 45.3909 268.98 45.6432 269.276 45.9632C269.882 46.7047 270.195 47.6428 270.155 48.5995C270.211 49.5638 269.884 50.5111 269.246 51.2359C268.916 51.5598 268.521 51.8108 268.088 51.9727C267.655 52.1345 267.192 52.2035 266.731 52.1753C265.881 52.2171 265.048 51.9356 264.397 51.3874C264.085 51.1137 263.833 50.7788 263.656 50.4035C263.479 50.0282 263.38 49.6204 263.367 49.2056H264.67C264.715 49.736 264.952 50.2318 265.337 50.5996C265.724 50.9303 266.222 51.1033 266.731 51.0844C267.013 51.0939 267.293 51.0388 267.551 50.9233C267.808 50.8077 268.035 50.6348 268.216 50.4177C268.605 49.9058 268.798 49.2718 268.761 48.6298C268.801 48.0011 268.594 47.3817 268.185 46.9026C267.99 46.6801 267.746 46.5046 267.474 46.3892C267.201 46.2738 266.906 46.2214 266.61 46.2359C266.114 46.2047 265.622 46.3436 265.216 46.6298L264.852 46.9329L263.761 46.5389Z" fill="#A2A2A2"/>
<path d="M273.58 43.9022C273.709 43.9052 273.837 43.8826 273.956 43.8358C274.076 43.789 274.185 43.7188 274.277 43.6295C274.369 43.5452 274.441 43.4417 274.488 43.3265C274.535 43.2113 274.556 43.0871 274.55 42.9628C274.557 42.8339 274.536 42.7051 274.489 42.5849C274.442 42.4648 274.37 42.356 274.277 42.2658C274.191 42.1664 274.084 42.0875 273.963 42.0351C273.843 41.9826 273.712 41.9579 273.58 41.9628C273.454 41.9643 273.33 41.992 273.215 42.0442C273.1 42.0964 272.998 42.1718 272.914 42.2658C272.824 42.3581 272.754 42.4673 272.707 42.5869C272.661 42.7066 272.638 42.8343 272.641 42.9628C272.641 43.2119 272.74 43.4509 272.916 43.627C273.092 43.8032 273.331 43.9022 273.58 43.9022ZM271.702 42.9628C271.698 42.4543 271.893 41.9646 272.247 41.5991C272.417 41.4156 272.624 41.2691 272.853 41.169C273.082 41.0688 273.33 41.0171 273.58 41.0171C273.831 41.0171 274.078 41.0688 274.308 41.169C274.537 41.2691 274.743 41.4156 274.914 41.5991C275.267 41.9646 275.463 42.4543 275.459 42.9628C275.463 43.2106 275.417 43.4568 275.324 43.6866C275.231 43.9164 275.093 44.1251 274.918 44.3004C274.743 44.4757 274.534 44.614 274.304 44.7069C274.074 44.7999 273.828 44.8457 273.58 44.8416C273.333 44.8428 273.088 44.7953 272.859 44.7017C272.631 44.6081 272.422 44.4703 272.247 44.2961C272.07 44.1228 271.93 43.9151 271.837 43.6858C271.743 43.4565 271.697 43.2105 271.702 42.9628Z" fill="#A2A2A2"/>
<path d="M102.852 243.145H107.973V244.297H101.428V233.539H102.852V243.145Z" fill="#A2A2A2"/>
<path d="M112.64 239.509C111.666 239.276 110.755 238.831 109.973 238.206C109.709 237.97 109.5 237.68 109.358 237.356C109.217 237.032 109.148 236.681 109.155 236.327C109.151 235.921 109.239 235.519 109.412 235.152C109.585 234.785 109.839 234.461 110.155 234.206C110.912 233.636 111.844 233.347 112.791 233.388C113.481 233.378 114.164 233.523 114.791 233.812C115.333 234.08 115.793 234.488 116.124 234.994C116.445 235.49 116.614 236.069 116.609 236.66H115.185C115.201 236.372 115.152 236.083 115.042 235.816C114.932 235.548 114.763 235.309 114.549 235.115C114.062 234.698 113.43 234.491 112.791 234.539C112.205 234.5 111.625 234.672 111.155 235.024C110.964 235.174 110.812 235.369 110.711 235.59C110.611 235.812 110.566 236.054 110.579 236.297C110.579 236.513 110.628 236.726 110.722 236.92C110.817 237.114 110.954 237.285 111.124 237.418C111.706 237.805 112.353 238.082 113.033 238.236C113.763 238.431 114.465 238.716 115.124 239.085C115.583 239.335 115.97 239.701 116.246 240.145C116.52 240.568 116.658 241.065 116.64 241.569C116.649 241.975 116.561 242.377 116.381 242.741C116.202 243.106 115.937 243.421 115.609 243.66C114.815 244.224 113.854 244.502 112.882 244.448C112.164 244.448 111.453 244.304 110.791 244.024C110.202 243.779 109.69 243.382 109.306 242.872C108.969 242.371 108.79 241.78 108.791 241.176H110.215C110.201 241.473 110.259 241.769 110.386 242.039C110.513 242.308 110.704 242.543 110.943 242.721C111.504 243.129 112.189 243.333 112.882 243.297C113.492 243.339 114.099 243.179 114.609 242.842C114.8 242.692 114.952 242.498 115.053 242.276C115.153 242.055 115.198 241.812 115.185 241.569C115.194 241.339 115.15 241.109 115.055 240.899C114.961 240.689 114.818 240.503 114.64 240.357C114.026 239.964 113.349 239.677 112.64 239.509Z" fill="#A2A2A2"/>
<path d="M107.913 268.721H113.003V269.872H106.488V259.115H107.913V268.721Z" fill="#A2A2A2"/>
<path d="M265.336 160.084C265.309 160.586 265.183 161.078 264.964 161.53C264.746 161.983 264.439 162.388 264.063 162.721C263.279 163.384 262.27 163.72 261.245 163.66C260.67 163.676 260.098 163.561 259.573 163.325C259.049 163.089 258.584 162.737 258.214 162.296C257.408 161.249 257 159.95 257.063 158.63V157.599C257.045 156.691 257.231 155.79 257.608 154.963C257.926 154.238 258.453 153.626 259.124 153.205C259.806 152.787 260.596 152.576 261.396 152.599C262.402 152.545 263.39 152.882 264.154 153.539C264.876 154.246 265.308 155.197 265.366 156.205H263.942C263.895 155.503 263.606 154.839 263.124 154.327C262.889 154.12 262.615 153.962 262.318 153.863C262.022 153.764 261.708 153.726 261.396 153.751C260.988 153.733 260.582 153.814 260.212 153.989C259.842 154.163 259.521 154.424 259.275 154.751C258.702 155.597 258.425 156.609 258.487 157.63V158.66C258.425 159.647 258.692 160.628 259.245 161.448C259.463 161.784 259.765 162.059 260.121 162.244C260.476 162.43 260.874 162.521 261.275 162.508C261.927 162.55 262.572 162.357 263.093 161.963C263.587 161.455 263.887 160.79 263.942 160.084H265.336Z" fill="#A2A2A2"/>
<path d="M307.001 156.903C307.287 156.551 307.647 156.268 308.056 156.074C308.465 155.88 308.912 155.78 309.365 155.781C311.062 155.781 311.91 156.751 311.91 158.812V164.084H310.547V158.812C310.589 158.343 310.448 157.876 310.153 157.509C309.987 157.365 309.795 157.256 309.587 157.189C309.378 157.121 309.159 157.096 308.941 157.115C308.532 157.109 308.132 157.225 307.789 157.448C307.441 157.678 307.167 158.004 307.001 158.387V164.084H305.607V152.721H307.001V156.903Z" fill="#A2A2A2"/>
</svg>
