<svg width="138" height="301" viewBox="0 0 138 301" fill="none" xmlns="http://www.w3.org/2000/svg">
<path d="M39.6714 85.1298C37.8024 85.1298 34.4609 82.6662 34.4609 80.6273C34.4609 78.5884 34.4609 68.8753 34.4609 68.8753V68.4221L34.6308 67.9691L34.9423 67.601L35.3104 67.3179L35.7352 67.1196H43.5793V72.6133H73.1998L80.9873 74.7372L81.412 74.9071L81.7801 75.1902L82.0633 75.5583L82.2332 76.0115V76.4645V82.298V83.0343L81.95 83.7422L81.497 84.337L80.9023 84.79L80.2227 85.0731H79.4864H39.6714" fill="#434343"/>
<path d="M34.8017 68.932C34.8017 68.932 34.8017 78.5885 34.8017 80.6274C34.8017 82.6662 37.86 84.6768 39.5591 84.6768H79.3741H79.9971L80.5634 84.4219L81.0731 84.0537L81.4413 83.5724L81.6678 82.9776V82.298V76.1814L81.5262 75.8416L81.328 75.5867L81.0448 75.3601H80.6767L73.0026 73.2929H43.6085C43.481 73.2926 43.3588 73.2417 43.2687 73.1514C43.1827 73.07 43.1318 72.9583 43.1271 72.8399V67.7993H35.8494L35.5663 67.9408L35.2831 68.1391L35.0565 68.4222V68.7621L34.8017 68.932ZM39.5874 85.583C37.4069 85.583 33.9238 82.7512 33.9238 80.6274C33.9238 78.5035 33.9238 68.8754 33.9238 68.8754V68.3656L34.0937 67.9125L34.3769 67.5443L34.745 67.2612L35.1698 67.0913H35.3397H43.1838C43.3018 67.0981 43.4131 67.1479 43.4966 67.2315C43.5802 67.315 43.6301 67.4264 43.6369 67.5443V72.0469H72.9176L80.705 74.1424L81.1864 74.3407L81.5545 74.6238L81.8377 75.0203L82.0076 75.4735V75.9265V81.8167V82.6378L81.7245 83.3174L81.2714 83.8838L80.6767 84.337L79.9687 84.6201H79.2325L39.5874 85.583Z" fill="#A2A2A2"/>
<path d="M34.9169 48.1182H34.0107V76.4644H34.9169V48.1182Z" fill="#A2A2A2"/>
<path d="M82.8026 48.0898H81.8965V76.4644H82.8026V48.0898Z" fill="#A2A2A2"/>
<path d="M82.8026 82.2983H81.8965V147.826H82.8026V82.2983Z" fill="#A2A2A2"/>
<path d="M34.9169 80.6274H34.0107V147.826H34.9169V80.6274Z" fill="#A2A2A2"/>
<path d="M43.5832 45.2301H73.2321V49.3928H80.9345C81.1179 49.397 81.3003 49.3641 81.4707 49.296C81.641 49.2279 81.7958 49.1258 81.9257 48.9963C82.1899 48.7331 82.3421 48.3781 82.3504 48.0052V37.7825C82.3558 37.2569 82.2558 36.7354 82.0564 36.2491C81.857 35.7627 81.5622 35.3213 81.1894 34.9507C80.8169 34.5805 80.3751 34.2873 79.8891 34.0881C79.4032 33.8888 78.8828 33.7874 78.3576 33.7896H38.4293C37.3779 33.7896 36.3695 34.2072 35.626 34.9507C34.8825 35.6942 34.4648 36.7027 34.4648 37.7542V48.0619C34.4648 48.2391 34.5001 48.4145 34.5688 48.5778C34.6374 48.7412 34.738 48.8891 34.8646 49.0131C34.9912 49.137 35.1413 49.2346 35.3061 49.2998C35.4708 49.365 35.6469 49.3966 35.8241 49.3928H43.5832V45.2301Z" fill="#434343"/>
<path d="M73.6841 48.9965H80.9618C81.2037 48.999 81.4372 48.9078 81.6131 48.7417C81.7866 48.5569 81.8872 48.3155 81.8963 48.0621V37.7827C81.8993 37.3223 81.8078 36.8661 81.6276 36.4423C81.4474 36.0186 81.1822 35.6363 80.8485 35.3191C80.2037 34.6702 79.3279 34.3035 78.4132 34.2995H38.4283C37.4993 34.3069 36.6105 34.6793 35.9536 35.3362C35.2967 35.9931 34.9243 36.8819 34.9169 37.8109V48.1186C34.9168 48.2363 34.9405 48.3528 34.9863 48.4612C35.0322 48.5696 35.0994 48.6678 35.184 48.7497C35.2685 48.8316 35.3686 48.8957 35.4784 48.9381C35.5882 48.9805 35.7054 49.0003 35.8231 48.9965H43.1291V45.2303C43.1291 45.1102 43.1768 44.9949 43.2618 44.9099C43.3468 44.8249 43.462 44.7771 43.5822 44.7771H73.231C73.3512 44.7771 73.4664 44.8249 73.5514 44.9099C73.6364 44.9949 73.6841 45.1102 73.6841 45.2303V48.9965ZM80.9618 49.931H73.231C73.1083 49.9238 72.993 49.8698 72.9088 49.7803C72.8245 49.6908 72.7777 49.5726 72.778 49.4497V45.7117H44.0353V49.393C44.0355 49.5159 43.9887 49.6343 43.9044 49.7238C43.8202 49.8133 43.7049 49.8671 43.5822 49.8743H35.8231C35.3424 49.8743 34.8815 49.6834 34.5416 49.3435C34.2017 49.0037 34.0107 48.5428 34.0107 48.0621V37.7544C34.0182 36.585 34.486 35.4656 35.3128 34.6388C36.1397 33.8119 37.259 33.3442 38.4283 33.3368H78.4132C79.0062 33.3176 79.597 33.4187 80.1497 33.6342C80.7025 33.8498 81.2059 34.1752 81.6294 34.5907C82.0529 35.0063 82.3877 35.5035 82.6137 36.0521C82.8397 36.6007 82.952 37.1894 82.9441 37.7827V48.0621C82.937 48.5507 82.7417 49.0177 82.3988 49.3658C82.0559 49.714 81.5919 49.9165 81.1034 49.931" fill="#A2A2A2"/>
<path d="M79.2339 52.7622H73.4854V61.1443H79.2339V52.7622Z" fill="#434343"/>
<path d="M73.8261 60.7195H78.8667V53.0171H73.8261V60.7195ZM79.2065 61.3991H73.5429C73.4528 61.3991 73.3664 61.3633 73.3027 61.2995C73.239 61.2358 73.2031 61.1494 73.2031 61.0593V52.5639C73.2031 52.4738 73.239 52.3874 73.3027 52.3237C73.3664 52.2599 73.4528 52.2241 73.5429 52.2241H79.2065C79.2966 52.2241 79.3831 52.2599 79.4468 52.3237C79.5105 52.3874 79.5464 52.4738 79.5464 52.5639V61.0593C79.5464 61.1494 79.5105 61.2358 79.4468 61.2995C79.3831 61.3633 79.2966 61.3991 79.2065 61.3991Z" fill="#A2A2A2"/>
<path d="M79.5459 61.144H78.8662V74.142H79.5459V61.144Z" fill="#A2A2A2"/>
<path d="M43.355 52.7622H37.6064V61.1443H43.355V52.7622Z" fill="#434343"/>
<path d="M37.9463 60.7195H43.0151V53.0171H37.9463V60.7195ZM43.355 61.3991H37.6914C37.6013 61.3991 37.5148 61.3633 37.4511 61.2995C37.3874 61.2358 37.3516 61.1494 37.3516 61.0593V52.5639C37.3516 52.4738 37.3874 52.3874 37.4511 52.3237C37.5148 52.2599 37.6013 52.2241 37.6914 52.2241H43.355C43.4451 52.2241 43.5315 52.2599 43.5953 52.3237C43.659 52.3874 43.6948 52.4738 43.6948 52.5639V61.0593C43.6948 61.1494 43.659 61.2358 43.5953 61.2995C43.5315 61.3633 43.4451 61.3991 43.355 61.3991Z" fill="#A2A2A2"/>
<path d="M37.9482 61.144H37.2686V67.1758H37.9482V61.144Z" fill="#A2A2A2"/>
<path d="M45.9597 45.6826C45.4519 45.6955 44.9672 45.8975 44.6005 46.249C44.4203 46.4264 44.2773 46.638 44.1801 46.8714C44.0828 47.1048 44.0332 47.3553 44.0341 47.6082V70.2625C44.0384 70.5172 44.0932 70.7685 44.1953 71.0018C44.2974 71.2351 44.4447 71.4458 44.6288 71.6217C44.8052 71.8033 45.0166 71.9472 45.2503 72.0445C45.4839 72.1419 45.7349 72.1907 45.988 72.1881H70.9361C71.4227 72.1798 71.8881 71.9876 72.2388 71.6501C72.4109 71.4799 72.5472 71.277 72.6396 71.0533C72.732 70.8296 72.7787 70.5896 72.7768 70.3476V47.6932C72.7801 47.4484 72.7313 47.2056 72.6337 46.981C72.536 46.7564 72.3918 46.5551 72.2104 46.3906C72.0437 46.212 71.842 46.0695 71.6179 45.9721C71.3938 45.8747 71.1521 45.8243 70.9078 45.8242L45.9597 45.6826ZM70.9361 73.0376H46.1296C45.3786 73.0376 44.6583 72.7394 44.1273 72.2084C43.5962 71.6773 43.2979 70.9569 43.2979 70.2059V47.5515C43.2979 46.8005 43.5962 46.0802 44.1273 45.5492C44.6583 45.0181 45.3786 44.7197 46.1296 44.7197H71.0777C71.8108 44.7302 72.5112 45.0247 73.0316 45.5411C73.295 45.7931 73.5038 46.0966 73.6451 46.4327C73.7864 46.7688 73.8571 47.1304 73.8528 47.495V70.1493C73.8571 70.5139 73.7864 70.8753 73.6451 71.2114C73.5038 71.5475 73.295 71.8512 73.0316 72.1033C72.5138 72.6026 71.8253 72.886 71.1061 72.8961" fill="#A2A2A2"/>
<path d="M39.6714 210.465C37.8024 210.465 34.4609 212.928 34.4609 214.967C34.4609 217.006 34.4609 226.719 34.4609 226.719V227.201L34.6308 227.626L34.9423 227.994L35.3104 228.305L35.7352 228.475H43.5793V222.981H73.1998L80.9873 220.857L81.412 220.688L81.7801 220.404L82.0633 220.036L82.2332 219.611V219.13V213.297V212.56L81.95 211.852L81.497 211.286L80.9023 210.833L80.2227 210.55H79.4864H39.6714" fill="#434343"/>
<path d="M35.8505 228.022H43.1282V222.981C43.1329 222.863 43.1837 222.751 43.2698 222.669C43.3598 222.579 43.482 222.528 43.6096 222.528H73.1452L81.2158 220.291L81.499 220.093L81.7255 219.753V219.498V219.073V213.409V212.786L81.499 212.22L81.0742 211.682L80.6211 211.342L80.0547 211.087H79.3751H39.73C38.031 211.087 34.9726 213.438 34.9726 215.137C34.9726 216.836 34.9726 226.889 34.9726 226.889V227.229V227.568L35.1992 227.852L35.4824 228.05L35.8505 228.022ZM43.6096 228.928H35.5956L35.1709 228.729L34.8027 228.446L34.5195 228.078L34.3496 227.653V227.172C34.3496 227.172 34.3496 217.431 34.3496 215.363C34.3496 213.296 37.8327 210.408 40.0132 210.408H79.8282H80.6211L81.329 210.691L81.9237 211.144L82.4618 211.824L82.7449 212.532V213.268V219.3V219.838L82.575 220.262L82.2352 220.744L81.8671 221.027L81.4423 221.197L73.5983 223.321H44.0627V228.333C44.0595 228.46 44.009 228.581 43.9211 228.673C43.821 228.712 43.7097 228.712 43.6096 228.673" fill="#A2A2A2"/>
<path d="M34.9169 219.158H34.0107V247.504H34.9169V219.158Z" fill="#A2A2A2"/>
<path d="M82.8026 219.158H81.8965V247.533H82.8026V219.158Z" fill="#A2A2A2"/>
<path d="M82.8026 147.797H81.8965V213.325H82.8026V147.797Z" fill="#A2A2A2"/>
<path d="M34.9169 147.797H34.0107V214.996H34.9169V147.797Z" fill="#A2A2A2"/>
<path d="M43.5834 250.45H73.2323V246.23H80.9347C81.1182 246.226 81.3006 246.259 81.4709 246.327C81.6412 246.395 81.796 246.497 81.9259 246.627C82.1854 246.893 82.3367 247.246 82.3506 247.618V257.897C82.349 258.957 81.9322 259.973 81.1896 260.729C80.8158 261.095 80.373 261.384 79.887 261.579C79.401 261.773 78.8813 261.869 78.3579 261.862H38.4296C37.9035 261.87 37.3811 261.772 36.8943 261.572C36.4075 261.373 35.9664 261.076 35.5978 260.701C35.225 260.33 34.9302 259.889 34.7308 259.402C34.5314 258.916 34.4314 258.395 34.4367 257.869V247.618C34.4367 247.441 34.472 247.265 34.5407 247.102C34.6093 246.939 34.7099 246.791 34.8365 246.667C34.9631 246.543 35.1132 246.445 35.278 246.38C35.4427 246.315 35.6189 246.283 35.796 246.287H43.5551L43.5834 250.45Z" fill="#434343"/>
<path d="M35.8231 246.598C35.7054 246.594 35.5882 246.614 35.4784 246.657C35.3686 246.699 35.2685 246.763 35.184 246.845C35.0994 246.927 35.0322 247.025 34.9863 247.133C34.9405 247.242 34.9168 247.358 34.9169 247.476V257.812C34.9167 258.269 35.0066 258.722 35.1816 259.145C35.3565 259.568 35.6129 259.952 35.9363 260.276C36.6037 260.925 37.497 261.291 38.4283 261.295H78.4132C79.3279 261.291 80.2037 260.924 80.8485 260.276C81.1771 259.956 81.437 259.573 81.6123 259.149C81.7876 258.725 81.8746 258.27 81.868 257.812V247.618C81.8708 247.498 81.8497 247.378 81.8059 247.266C81.7622 247.155 81.6967 247.053 81.6131 246.966C81.5314 246.875 81.4309 246.802 81.3185 246.753C81.2061 246.704 81.0844 246.68 80.9618 246.683H73.6841V250.449C73.6841 250.569 73.6364 250.685 73.5514 250.77C73.4665 250.855 73.3512 250.902 73.2311 250.902H43.5822C43.462 250.902 43.3468 250.855 43.2618 250.77C43.1768 250.685 43.1291 250.569 43.1291 250.449V246.683L35.8231 246.598ZM78.3 262.201H38.4283C37.8495 262.205 37.2758 262.094 36.74 261.875C36.2041 261.656 35.7169 261.334 35.3063 260.926C34.8958 260.518 34.5699 260.033 34.3476 259.498C34.1252 258.964 34.0107 258.391 34.0107 257.812V247.618C34.0182 247.142 34.2124 246.688 34.5515 246.354C34.8905 246.02 35.3473 245.833 35.8231 245.833H43.5822C43.7024 245.833 43.8176 245.881 43.9026 245.966C43.9875 246.051 44.0353 246.167 44.0353 246.287V250.053H72.778V246.287C72.778 246.167 72.8257 246.051 72.9107 245.966C72.9956 245.881 73.1109 245.833 73.2311 245.833H80.9618C81.4484 245.842 81.9138 246.034 82.2644 246.372C82.6069 246.719 82.8 247.186 82.8025 247.674V257.954C82.8025 258.53 82.689 259.101 82.4684 259.633C82.2478 260.166 81.9245 260.65 81.5169 261.057C81.1093 261.465 80.6255 261.788 80.0929 262.009C79.5604 262.229 78.9896 262.343 78.4132 262.343" fill="#A2A2A2"/>
<path d="M70.9088 223.463H46.1306C45.6147 223.47 45.122 223.678 44.7571 224.043C44.3922 224.408 44.184 224.901 44.1767 225.417V248.071C44.1767 248.582 44.3796 249.072 44.7407 249.433C45.1018 249.794 45.5916 249.997 46.1023 249.997H71.0504C71.2945 249.997 71.5362 249.948 71.7614 249.854C71.9866 249.76 72.1908 249.622 72.3621 249.448C72.5334 249.274 72.6684 249.067 72.7592 248.841C72.85 248.614 72.8948 248.372 72.8911 248.128V225.473C72.8962 225.231 72.8511 224.99 72.7585 224.766C72.6659 224.542 72.5278 224.339 72.353 224.171C72.1828 223.999 71.9799 223.862 71.7562 223.77C71.5324 223.678 71.2925 223.631 71.0504 223.633L70.9088 223.463ZM71.0504 250.988H46.1023C45.3513 250.988 44.631 250.69 44.1 250.158C43.5689 249.627 43.2706 248.907 43.2706 248.156V225.502C43.2683 225.122 43.3424 224.746 43.4883 224.396C43.6343 224.046 43.8491 223.728 44.1201 223.463C44.3847 223.2 44.6985 222.993 45.0435 222.852C45.3885 222.711 45.758 222.639 46.1306 222.642H71.0504C71.7795 222.645 72.4794 222.929 73.0044 223.435C73.5207 223.955 73.8151 224.656 73.8256 225.389V248.043C73.8298 248.407 73.7591 248.769 73.6178 249.105C73.4765 249.441 73.2678 249.745 73.0044 249.997C72.7533 250.262 72.45 250.471 72.1136 250.613C71.7773 250.754 71.4152 250.824 71.0504 250.818" fill="#A2A2A2"/>
<path d="M79.2339 234.535H73.4854V242.917H79.2339V234.535Z" fill="#434343"/>
<path d="M73.8261 242.549H78.8667V234.847H73.8261V242.549ZM79.2065 243.229H73.5429C73.4528 243.229 73.3664 243.193 73.3027 243.129C73.239 243.065 73.2031 242.979 73.2031 242.889V234.394C73.2031 234.303 73.239 234.217 73.3027 234.153C73.3664 234.089 73.4528 234.054 73.5429 234.054H79.2065C79.2966 234.054 79.3831 234.089 79.4468 234.153C79.5105 234.217 79.5464 234.303 79.5464 234.394V242.889C79.5464 242.979 79.5105 243.065 79.4468 243.129C79.3831 243.193 79.2966 243.229 79.2065 243.229Z" fill="#A2A2A2"/>
<path d="M79.5459 221.509H78.8662V234.507H79.5459V221.509Z" fill="#A2A2A2"/>
<path d="M43.355 234.535H37.6064V242.917H43.355V234.535Z" fill="#434343"/>
<path d="M37.9463 242.549H43.0151V234.847H37.9463V242.549ZM43.355 243.229H37.6914C37.6013 243.229 37.5148 243.193 37.4511 243.129C37.3874 243.065 37.3516 242.979 37.3516 242.889V234.394C37.3516 234.303 37.3874 234.217 37.4511 234.153C37.5148 234.089 37.6013 234.054 37.6914 234.054H43.355C43.4451 234.054 43.5315 234.089 43.5953 234.153C43.659 234.217 43.6948 234.303 43.6948 234.394V242.889C43.6948 242.979 43.659 243.065 43.5953 243.129C43.5315 243.193 43.4451 243.229 43.355 243.229Z" fill="#A2A2A2"/>
<path d="M37.9482 228.475H37.2686V234.507H37.9482V228.475Z" fill="#A2A2A2"/>
<path d="M110.838 203.045C110.799 203.05 110.761 203.046 110.724 203.033C110.688 203.021 110.655 203 110.627 202.973C110.6 202.945 110.579 202.912 110.567 202.876C110.554 202.839 110.55 202.8 110.555 202.762V159.549C110.55 159.511 110.554 159.472 110.567 159.436C110.579 159.399 110.6 159.366 110.627 159.339C110.655 159.312 110.688 159.291 110.724 159.278C110.761 159.266 110.799 159.261 110.838 159.266C110.913 159.266 110.985 159.296 111.038 159.349C111.091 159.402 111.121 159.474 111.121 159.549V202.762C111.121 202.799 111.114 202.836 111.099 202.871C111.085 202.905 111.064 202.936 111.038 202.963C111.012 202.989 110.98 203.01 110.946 203.024C110.912 203.038 110.875 203.045 110.838 203.045Z" fill="#A2A2A2"/>
<path d="M110.838 138.509C110.799 138.513 110.761 138.509 110.724 138.497C110.688 138.484 110.655 138.463 110.627 138.436C110.6 138.409 110.579 138.376 110.567 138.339C110.554 138.303 110.55 138.264 110.555 138.226V91.8694C110.55 91.8311 110.554 91.7922 110.567 91.7558C110.579 91.7194 110.6 91.6863 110.627 91.659C110.655 91.6318 110.688 91.6111 110.724 91.5985C110.761 91.5859 110.799 91.5817 110.838 91.5863C110.913 91.5863 110.985 91.6159 111.038 91.669C111.091 91.7222 111.121 91.7943 111.121 91.8694V138.169C111.121 138.244 111.091 138.316 111.038 138.369C110.985 138.423 110.913 138.452 110.838 138.452" fill="#A2A2A2"/>
<path d="M106.731 149.695C106.67 150.469 106.88 151.24 107.325 151.875C107.497 152.097 107.715 152.278 107.965 152.405C108.214 152.533 108.489 152.603 108.769 152.612C109.049 152.615 109.325 152.552 109.576 152.43C109.827 152.307 110.045 152.126 110.214 151.904C110.66 151.301 110.871 150.556 110.808 149.808C110.873 149.007 110.663 148.208 110.214 147.542C110.041 147.308 109.814 147.119 109.553 146.991C109.292 146.863 109.004 146.8 108.713 146.806C108.437 146.801 108.164 146.862 107.917 146.985C107.671 147.109 107.458 147.29 107.297 147.514C106.857 148.152 106.656 148.924 106.731 149.695ZM110.78 153.489V152.526C110.561 152.889 110.248 153.186 109.874 153.385C109.5 153.585 109.079 153.679 108.656 153.659C108.059 153.67 107.475 153.491 106.985 153.15C106.471 152.811 106.067 152.328 105.824 151.762C105.529 151.114 105.384 150.407 105.4 149.695C105.385 148.997 105.511 148.304 105.768 147.656C105.987 147.084 106.376 146.594 106.882 146.25C107.388 145.905 107.988 145.724 108.6 145.73C109.026 145.726 109.446 145.833 109.817 146.042C110.169 146.207 110.471 146.461 110.695 146.778V143.04H111.969V153.489H110.78Z" fill="#A2A2A2"/>
<path d="M113.699 85.4129H86.1171C86.042 85.4129 85.97 85.3832 85.9169 85.3301C85.8638 85.277 85.834 85.2049 85.834 85.1298C85.834 85.0547 85.8638 84.9827 85.9169 84.9296C85.97 84.8765 86.042 84.8467 86.1171 84.8467H113.699C113.774 84.8467 113.846 84.8765 113.899 84.9296C113.952 84.9827 113.982 85.0547 113.982 85.1298C113.982 85.2049 113.952 85.277 113.899 85.3301C113.846 85.3832 113.774 85.4129 113.699 85.4129Z" fill="#A2A2A2"/>
<path d="M88.607 85.4129H84.1611C84.086 85.4129 84.014 85.3832 83.9608 85.3301C83.9077 85.277 83.8779 85.2049 83.8779 85.1298C83.8779 85.0547 83.9077 84.9827 83.9608 84.9296C84.014 84.8765 84.086 84.8467 84.1611 84.8467H88.607C88.6821 84.8467 88.7542 84.8765 88.8073 84.9296C88.8604 84.9827 88.8902 85.0547 88.8902 85.1298C88.8902 85.2049 88.8604 85.277 88.8073 85.3301C88.7542 85.3832 88.6821 85.4129 88.607 85.4129Z" fill="#A2A2A2"/>
<path d="M113.699 210.805H84.2764C84.2013 210.805 84.1292 210.775 84.0761 210.722C84.023 210.669 83.9932 210.597 83.9932 210.522C83.9995 210.449 84.0314 210.38 84.0832 210.328C84.135 210.277 84.2034 210.245 84.2764 210.238H113.699C113.774 210.238 113.846 210.268 113.899 210.321C113.952 210.374 113.982 210.446 113.982 210.522C113.986 210.56 113.982 210.599 113.97 210.635C113.957 210.671 113.936 210.704 113.909 210.732C113.882 210.759 113.849 210.78 113.812 210.792C113.776 210.805 113.737 210.809 113.699 210.805Z" fill="#A2A2A2"/>
<path d="M33.0767 34.1289H4.75879C4.75879 34.1289 4.75879 34.129 4.75879 33.8458C4.75879 33.5626 4.75879 33.5625 4.75879 33.5625H33.0767C33.0767 33.5625 33.0767 33.5626 33.0767 33.8458C33.0767 34.129 33.0767 34.1289 33.0767 34.1289Z" fill="#A2A2A2"/>
<path d="M33.0767 262.032H4.75879C4.75879 262.032 4.75879 262.032 4.75879 261.748C4.75879 261.465 4.75879 261.465 4.75879 261.465H33.0767C33.0767 261.465 33.0767 261.607 33.0767 261.748C33.0767 261.89 33.0767 262.032 33.0767 262.032Z" fill="#A2A2A2"/>
<path d="M50.9461 5.64142H39.7606C39.7234 5.64142 39.6866 5.63404 39.6522 5.61981C39.6178 5.60558 39.5866 5.58475 39.5603 5.55845C39.534 5.53216 39.5132 5.50103 39.4989 5.46668C39.4847 5.43232 39.4774 5.39549 39.4774 5.35831C39.4728 5.32002 39.477 5.28118 39.4896 5.24475C39.5023 5.20832 39.523 5.17522 39.5503 5.14796C39.5775 5.1207 39.6106 5.09992 39.6471 5.0873C39.6835 5.07467 39.7223 5.07047 39.7606 5.07502H50.9461C51.0212 5.07502 51.0933 5.10488 51.1464 5.15799C51.1995 5.21109 51.2293 5.2832 51.2293 5.35831C51.223 5.43127 51.1911 5.49958 51.1393 5.55137C51.0875 5.60316 51.0191 5.63504 50.9461 5.64142Z" fill="#A2A2A2"/>
<path d="M75.5235 5.6411H64.8193C64.7464 5.63472 64.678 5.60284 64.6262 5.55105C64.5744 5.49926 64.5425 5.43095 64.5361 5.35799C64.5361 5.28289 64.566 5.21078 64.6191 5.15767C64.6722 5.10456 64.7442 5.07471 64.8193 5.07471H75.5235C75.5986 5.07471 75.6706 5.10456 75.7238 5.15767C75.7769 5.21078 75.8067 5.28289 75.8067 5.35799C75.8003 5.43095 75.7684 5.49926 75.7166 5.55105C75.6648 5.60284 75.5965 5.63472 75.5235 5.6411Z" fill="#A2A2A2"/>
<path d="M82.3476 34.0446C82.2697 34.0449 82.1945 34.0159 82.1368 33.9635C82.0791 33.9111 82.0432 33.8389 82.0361 33.7613V1.96032C82.0359 1.92062 82.0441 1.88138 82.0601 1.84504C82.076 1.80869 82.0995 1.77599 82.1289 1.74928C82.1582 1.72258 82.1929 1.70244 82.2306 1.69C82.2683 1.67756 82.3081 1.67324 82.3476 1.67721C82.4227 1.67721 82.4948 1.70689 82.5479 1.76C82.601 1.81311 82.6308 1.88522 82.6308 1.96032V33.7613C82.6244 33.8342 82.5926 33.9027 82.5408 33.9545C82.489 34.0063 82.4206 34.0382 82.3476 34.0446Z" fill="#A2A2A2"/>
<path d="M34.4374 34.3839C34.3623 34.3839 34.2903 34.3541 34.2372 34.301C34.1841 34.2479 34.1543 34.1758 34.1543 34.1007V1.53506C34.1543 1.45996 34.1841 1.38802 34.2372 1.33492C34.2903 1.28181 34.3623 1.25195 34.4374 1.25195C34.5104 1.25833 34.5788 1.29021 34.6306 1.342C34.6824 1.39379 34.7143 1.4621 34.7206 1.53506V34.1007C34.7143 34.1736 34.6824 34.2421 34.6306 34.2939C34.5788 34.3457 34.5104 34.3776 34.4374 34.3839Z" fill="#A2A2A2"/>
<path d="M112.252 95.296L110.836 85.1299L109.392 95.296H112.252Z" fill="#A2A2A2"/>
<path d="M109.392 200.327L110.836 210.493L112.252 200.327H109.392Z" fill="#A2A2A2"/>
<path d="M133.578 215.59C133.505 215.584 133.437 215.552 133.385 215.5C133.333 215.449 133.301 215.38 133.295 215.307V159.549C133.295 159.474 133.325 159.402 133.378 159.349C133.431 159.296 133.503 159.266 133.578 159.266C133.618 159.262 133.657 159.267 133.695 159.279C133.733 159.291 133.768 159.312 133.797 159.338C133.826 159.365 133.85 159.398 133.866 159.434C133.882 159.47 133.89 159.51 133.89 159.549V215.307C133.882 215.385 133.847 215.457 133.789 215.509C133.731 215.562 133.656 215.591 133.578 215.59Z" fill="#A2A2A2"/>
<path d="M133.578 138.509C133.541 138.509 133.504 138.502 133.47 138.488C133.435 138.473 133.404 138.453 133.378 138.426C133.352 138.4 133.331 138.369 133.316 138.334C133.302 138.3 133.295 138.263 133.295 138.226V79.3814C133.295 79.3442 133.302 79.3074 133.316 79.273C133.331 79.2386 133.352 79.2073 133.378 79.181C133.404 79.1548 133.435 79.1339 133.47 79.1197C133.504 79.1055 133.541 79.0981 133.578 79.0981C133.618 79.0941 133.657 79.0986 133.695 79.111C133.733 79.1235 133.768 79.1436 133.797 79.1703C133.826 79.197 133.85 79.2296 133.866 79.2659C133.882 79.3023 133.89 79.3417 133.89 79.3814V138.226C133.89 138.266 133.882 138.305 133.866 138.341C133.85 138.378 133.826 138.41 133.797 138.437C133.768 138.464 133.733 138.484 133.695 138.496C133.657 138.509 133.618 138.513 133.578 138.509Z" fill="#A2A2A2"/>
<path d="M130.121 153.489V143.04H137.201V144.258H131.509V147.514H136.436V148.732H131.509V153.489H130.121Z" fill="#A2A2A2"/>
<path d="M136.464 72.868H77.6473C77.609 72.8725 77.5702 72.8683 77.5337 72.8557C77.4973 72.8431 77.4642 72.8225 77.4369 72.7952C77.4097 72.7679 77.389 72.7349 77.3764 72.6984C77.3637 72.662 77.3595 72.6232 77.3641 72.5849C77.3641 72.5098 77.3939 72.4377 77.447 72.3845C77.5002 72.3314 77.5722 72.3018 77.6473 72.3018H136.464C136.537 72.3081 136.605 72.34 136.657 72.3918C136.709 72.4436 136.74 72.5119 136.747 72.5849C136.747 72.66 136.717 72.7319 136.664 72.785C136.611 72.8381 136.539 72.868 136.464 72.868Z" fill="#A2A2A2"/>
<path d="M136.465 223.293H77.5916C77.5165 223.293 77.4445 223.263 77.3914 223.21C77.3383 223.157 77.3084 223.085 77.3084 223.01C77.3039 222.972 77.3081 222.933 77.3207 222.896C77.3333 222.86 77.3541 222.827 77.3813 222.8C77.4086 222.772 77.4416 222.752 77.4781 222.739C77.5145 222.727 77.5533 222.722 77.5916 222.727H136.465C136.54 222.727 136.612 222.757 136.665 222.81C136.718 222.863 136.748 222.935 136.748 223.01C136.741 223.083 136.709 223.151 136.658 223.203C136.606 223.255 136.538 223.287 136.465 223.293Z" fill="#A2A2A2"/>
<path d="M135.021 82.7511L133.605 72.6133L132.161 82.7511H135.021Z" fill="#A2A2A2"/>
<path d="M132.161 212.843L133.577 223.009L135.021 212.843H132.161Z" fill="#A2A2A2"/>
<path d="M5.77828 254.527C5.73879 254.531 5.69888 254.527 5.66119 254.515C5.6235 254.502 5.58885 254.482 5.55948 254.455C5.53011 254.429 5.5067 254.396 5.49074 254.36C5.47477 254.323 5.4666 254.284 5.4668 254.244V159.096C5.47388 159.018 5.50981 158.946 5.56747 158.894C5.62514 158.841 5.70035 158.813 5.77828 158.813C5.85124 158.819 5.91963 158.851 5.97142 158.903C6.0232 158.955 6.05508 159.023 6.06146 159.096V254.244C6.06146 254.319 6.03161 254.391 5.9785 254.445C5.9254 254.498 5.85338 254.527 5.77828 254.527Z" fill="#A2A2A2"/>
<path d="M5.77828 140.265C5.73879 140.268 5.69888 140.264 5.66119 140.252C5.6235 140.239 5.58885 140.219 5.55948 140.192C5.53011 140.166 5.5067 140.133 5.49074 140.097C5.47477 140.06 5.4666 140.021 5.4668 139.981V40.1039C5.4666 40.0642 5.47477 40.0249 5.49074 39.9886C5.5067 39.9522 5.53011 39.9197 5.55948 39.893C5.58885 39.8663 5.6235 39.846 5.66119 39.8336C5.69888 39.8211 5.73879 39.8168 5.77828 39.8208C5.85338 39.8208 5.9254 39.8506 5.9785 39.9037C6.03161 39.9568 6.06146 40.0288 6.06146 40.1039V140.01C6.06146 140.085 6.03161 140.157 5.9785 140.21C5.9254 140.263 5.85338 140.293 5.77828 140.293" fill="#A2A2A2"/>
<path d="M1.58779 152.044H3.82489C4.36947 152.053 4.9126 151.986 5.43903 151.846C5.82402 151.763 6.1833 151.588 6.48678 151.337C6.85064 150.965 7.1138 150.507 7.25137 150.006C7.4587 149.356 7.55442 148.676 7.53453 147.995C7.59346 147.121 7.4071 146.248 6.99648 145.475C6.69997 144.95 6.24364 144.533 5.69388 144.285C5.11635 144.109 4.51306 144.033 3.90984 144.059H1.70104L1.58779 152.044ZM0.200195 153.262V142.841H3.79658C4.41821 142.783 5.04395 142.783 5.66558 142.841C6.23012 142.967 6.75513 143.23 7.19473 143.606C7.76399 144.077 8.19466 144.693 8.44072 145.39C8.73756 146.186 8.88165 147.032 8.86547 147.882C8.86644 148.59 8.77121 149.295 8.58232 149.977C8.42638 150.52 8.18759 151.036 7.87437 151.506C7.60497 151.867 7.27995 152.182 6.91153 152.441C6.53738 152.704 6.11334 152.887 5.66558 152.979C5.11692 153.099 4.55635 153.156 3.99479 153.149L0.200195 153.262Z" fill="#A2A2A2"/>
<path d="M7.19315 44.0123L5.77725 33.8462L4.33301 44.0123H7.19315Z" fill="#A2A2A2"/>
<path d="M4.33301 251.61L5.77725 261.777L7.19315 251.61H4.33301Z" fill="#A2A2A2"/>
<path d="M44.6027 3.94238L34.4365 5.35828L44.6027 6.77417V3.94238Z" fill="#A2A2A2"/>
<path d="M72.1846 6.77417L82.3507 5.35828L72.1846 3.94238V6.77417Z" fill="#A2A2A2"/>
<path d="M56.4392 148.109H30.6982C30.6253 148.102 30.5569 148.07 30.5051 148.019C30.4533 147.967 30.4214 147.899 30.415 147.826C30.415 147.75 30.4449 147.678 30.498 147.625C30.5511 147.572 30.6231 147.542 30.6982 147.542H56.4392C56.4775 147.538 56.5163 147.542 56.5528 147.555C56.5892 147.567 56.6223 147.588 56.6495 147.615C56.6768 147.643 56.6975 147.676 56.7101 147.712C56.7228 147.748 56.727 147.787 56.7224 147.826C56.7224 147.901 56.6926 147.973 56.6395 148.026C56.5863 148.079 56.5143 148.109 56.4392 148.109ZM59.8657 148.109H58.733C58.655 148.109 58.5798 148.08 58.5221 148.028C58.4645 147.975 58.4285 147.903 58.4215 147.826C58.4213 147.786 58.4294 147.747 58.4454 147.71C58.4614 147.674 58.4848 147.641 58.5141 147.615C58.5435 147.588 58.5782 147.568 58.6159 147.555C58.6536 147.543 58.6935 147.538 58.733 147.542H59.8657C59.9408 147.542 60.0128 147.572 60.0659 147.625C60.119 147.678 60.1489 147.75 60.1489 147.826C60.1425 147.899 60.1106 147.967 60.0588 148.019C60.007 148.07 59.9387 148.102 59.8657 148.109ZM85.7483 148.109H62.1311C62.0581 148.102 61.9898 148.07 61.938 148.019C61.8862 147.967 61.8543 147.899 61.848 147.826C61.848 147.75 61.8778 147.678 61.9309 147.625C61.984 147.572 62.056 147.542 62.1311 147.542H85.7766C85.8517 147.542 85.9237 147.572 85.9768 147.625C86.0299 147.678 86.0598 147.75 86.0598 147.826C86.0534 147.899 86.0215 147.967 85.9697 148.019C85.9179 148.07 85.8495 148.102 85.7766 148.109" fill="#A2A2A2"/>
<path d="M59.5835 299.921H55.1092L46.4156 285.677V299.921H41.9697V278.286H46.4156L55.1375 292.558V278.286H59.5835V299.921Z" fill="#A2A2A2"/>
<path d="M72.211 278.258H76.6569V293.266C76.6739 294.542 76.3618 295.8 75.7508 296.919C75.1432 297.961 74.2487 298.807 73.1738 299.355C72.003 299.931 70.7124 300.222 69.4075 300.204C67.4688 300.329 65.5552 299.712 64.0554 298.477C63.3981 297.837 62.8859 297.063 62.5537 296.208C62.2215 295.353 62.0769 294.437 62.1298 293.521H66.6324C66.5539 294.358 66.7857 295.194 67.2837 295.871C67.5664 296.138 67.9008 296.343 68.2661 296.475C68.6315 296.606 69.02 296.661 69.4075 296.636C69.7916 296.653 70.1745 296.583 70.5276 296.431C70.8807 296.279 71.1948 296.049 71.4464 295.758C71.9967 295.049 72.2686 294.162 72.211 293.266V278.258Z" fill="#A2A2A2"/>
<path d="M55.9842 5.9812V9.74753H58.2497C58.7932 9.78551 59.3305 9.61321 59.7505 9.26617C59.9362 9.09297 60.0828 8.88199 60.1805 8.64758C60.2782 8.41318 60.3247 8.16062 60.3169 7.9068C60.3169 6.63249 59.6372 6.00954 58.278 6.00954L55.9842 5.9812ZM55.9842 4.9051H58.0515C58.57 4.91962 59.0784 4.76019 59.4957 4.45209C59.6601 4.2889 59.7905 4.09471 59.8796 3.88086C59.9686 3.66702 60.0145 3.43774 60.0145 3.2061C60.0145 2.97446 59.9686 2.74518 59.8796 2.53134C59.7905 2.31749 59.6601 2.1233 59.4957 1.9601C59.0486 1.67771 58.5218 1.54848 57.9948 1.59196H55.9559L55.9842 4.9051ZM54.625 10.852V0.459171H58.0231C58.9204 0.391197 59.8128 0.641887 60.5434 1.16712C60.8449 1.41594 61.0821 1.73373 61.2349 2.09353C61.3877 2.45334 61.4516 2.84472 61.4213 3.23444C61.4277 3.695 61.278 4.14419 60.9965 4.50879C60.7118 4.90485 60.3184 5.20979 59.8638 5.38663C60.4046 5.51303 60.879 5.83605 61.1948 6.29283C61.5294 6.74127 61.6994 7.29123 61.6762 7.85028C61.6951 8.26222 61.6237 8.67327 61.4672 9.05479C61.3107 9.43631 61.0727 9.779 60.77 10.059C60.0509 10.6353 59.1405 10.9186 58.2214 10.852H54.625Z" fill="#A2A2A2"/>
</svg>
