<svg width="153" height="301" viewBox="0 0 153 301" fill="none" xmlns="http://www.w3.org/2000/svg">
<g clip-path="url(#clip0)">
<path d="M64.867 32.0532V61.7047H54.9428C54.3568 61.6279 53.8192 61.3393 53.4313 60.8934C53.0434 60.4475 52.832 59.8751 52.837 59.2841V33.7718C52.837 32.8762 53.8536 32.0532 55.4028 32.0532H64.867Z" fill="#434343"/>
<path d="M55.4012 32.4649C54.0699 32.4649 53.2711 33.1426 53.2711 33.7719V59.2601C53.2682 59.7407 53.4336 60.2072 53.7387 60.5786C54.0438 60.95 54.4692 61.2029 54.9413 61.2933H64.4298V32.4649H55.4012ZM64.8654 62.1405H54.9413C54.2595 62.0303 53.6401 61.6788 53.1958 61.1501C52.7515 60.6214 52.5119 59.9506 52.5207 59.2601V33.7719C52.5207 32.5375 53.8037 31.6177 55.498 31.6177H64.9623C65.0778 31.6177 65.1886 31.6636 65.2703 31.7453C65.352 31.827 65.398 31.9378 65.398 32.0534V61.7048C65.398 61.8204 65.352 61.9312 65.2703 62.0129C65.1886 62.0946 65.0778 62.1405 64.9623 62.1405" fill="#A2A2A2"/>
<path d="M53.2962 59.2598H52.4248V221.798H53.2962V59.2598Z" fill="#A2A2A2"/>
<path d="M65.3011 61.7046H64.4297V219.329H65.3011V61.7046Z" fill="#A2A2A2"/>
<path d="M84.6904 33.5298V63.8106H93.259C93.7124 63.8377 94.1666 63.77 94.5924 63.6118C95.0181 63.4537 95.4062 63.2084 95.7319 62.8918C96.0576 62.5753 96.3138 62.1943 96.484 61.7731C96.6542 61.352 96.7347 60.9 96.7204 60.446V36.8943C96.5648 36.0101 96.1227 35.2017 95.4622 34.5937C94.8017 33.9857 93.9594 33.6118 93.0654 33.5298H84.763" fill="#434343"/>
<path d="M85.1265 63.375H93.2594C93.6547 63.3987 94.0506 63.3398 94.422 63.2023C94.7933 63.0648 95.132 62.8515 95.4165 62.5761C95.7011 62.3007 95.9252 61.9691 96.0747 61.6025C96.2242 61.2358 96.2959 60.842 96.2851 60.4462V36.8945C96.1298 36.1273 95.7339 35.4297 95.155 34.903C94.576 34.3763 93.8442 34.0479 93.0658 33.9656H85.1991L85.1265 63.375ZM93.2594 64.2464H84.6908C84.5795 64.2402 84.4748 64.1916 84.3982 64.1105C84.3217 64.0295 84.2791 63.9222 84.2793 63.8107V33.5299C84.2791 33.4185 84.3217 33.3111 84.3982 33.2301C84.4748 33.1491 84.5795 33.1004 84.6908 33.0942H93.0658C94.0873 33.1635 95.0551 33.577 95.8112 34.2672C96.5674 34.9574 97.0672 35.8835 97.2291 36.8945V60.4462C97.2396 60.9564 97.1452 61.4633 96.9518 61.9355C96.7584 62.4077 96.4701 62.8352 96.1048 63.1915C95.7394 63.5477 95.3048 63.8252 94.8279 64.0066C94.3509 64.1881 93.8418 64.2697 93.332 64.2464" fill="#A2A2A2"/>
<path d="M85.1507 63.8105H84.2793V217.248H85.1507V63.8105Z" fill="#A2A2A2"/>
<path d="M97.1556 67.1748H96.2842V220.612H97.1556V67.1748Z" fill="#A2A2A2"/>
<path d="M96.7199 67.175C96.6044 67.175 96.4935 67.1291 96.4118 67.0474C96.3301 66.9657 96.2842 66.8549 96.2842 66.7393V60.4459C96.2842 60.3304 96.3301 60.2196 96.4118 60.1379C96.4935 60.0562 96.6044 60.0103 96.7199 60.0103C96.8355 60.0103 96.9463 60.0562 97.028 60.1379C97.1097 60.2196 97.1556 60.3304 97.1556 60.4459V66.7393C97.1556 66.8549 97.1097 66.9657 97.028 67.0474C96.9463 67.1291 96.8355 67.175 96.7199 67.175Z" fill="#A2A2A2"/>
<path d="M81.9551 57.8804H67.5771V63.7865H81.9551V57.8804Z" fill="#434343"/>
<path d="M67.9152 63.4962H81.6397V58.2194H67.9152V63.4962ZM81.9786 64.1255H67.6006C67.5573 64.1288 67.5138 64.1232 67.4728 64.1089C67.4317 64.0946 67.3941 64.0719 67.3623 64.0423C67.3304 64.0128 67.3051 63.977 67.2878 63.9371C67.2705 63.8973 67.2616 63.8543 67.2617 63.8108V57.8805C67.2616 57.8371 67.2705 57.7941 67.2878 57.7543C67.3051 57.7144 67.3304 57.6786 67.3623 57.649C67.3941 57.6195 67.4317 57.5968 67.4728 57.5825C67.5138 57.5682 67.5573 57.5625 67.6006 57.5659H81.9786C82.062 57.5659 82.142 57.599 82.2011 57.658C82.2601 57.717 82.2932 57.7971 82.2932 57.8805V63.8108C82.2932 63.8943 82.2601 63.9743 82.2011 64.0333C82.142 64.0923 82.062 64.1255 81.9786 64.1255Z" fill="#A2A2A2"/>
<path d="M81.9551 32.0532H67.5771V38.7581H81.9551V32.0532Z" fill="#434343"/>
<path d="M67.9152 38.4434H81.6396V32.3679H67.9152V38.4434ZM81.9786 39.0728H67.6006C67.5573 39.0761 67.5138 39.0704 67.4728 39.0561C67.4317 39.0418 67.3941 39.0192 67.3623 38.9896C67.3304 38.96 67.3051 38.9242 67.2878 38.8844C67.2705 38.8445 67.2616 38.8015 67.2617 38.7581V32.0532C67.2617 31.9634 67.2974 31.8772 67.361 31.8136C67.4246 31.7501 67.5108 31.7144 67.6006 31.7144H81.9786C82.022 31.7142 82.065 31.7231 82.1048 31.7404C82.1446 31.7577 82.1805 31.7831 82.2101 31.8149C82.2396 31.8467 82.2622 31.8843 82.2765 31.9254C82.2909 31.9664 82.2965 32.0099 82.2932 32.0532V38.7581C82.2932 38.8415 82.2601 38.9216 82.201 38.9806C82.142 39.0396 82.062 39.0728 81.9786 39.0728Z" fill="#A2A2A2"/>
<path d="M92.1702 5.42733H81.8104C81.7397 5.42733 81.672 5.39927 81.6221 5.34934C81.5721 5.29941 81.5441 5.23168 81.5441 5.16107C81.5407 5.12412 81.5451 5.08689 81.557 5.05173C81.5689 5.01658 81.5879 4.98429 81.613 4.95694C81.6381 4.92959 81.6685 4.90779 81.7025 4.89293C81.7365 4.87806 81.7733 4.87045 81.8104 4.87061H92.1702C92.2472 4.87061 92.3211 4.9012 92.3756 4.95568C92.43 5.01015 92.4607 5.08403 92.4607 5.16107C92.4608 5.19817 92.4532 5.23489 92.4384 5.26888C92.4235 5.30287 92.4017 5.33338 92.3743 5.35845C92.347 5.38351 92.3147 5.40259 92.2795 5.41446C92.2444 5.42632 92.2072 5.4307 92.1702 5.42733Z" fill="#A2A2A2"/>
<path d="M68.8598 5.42733H58.0643C57.9937 5.42733 57.9259 5.39927 57.876 5.34934C57.826 5.29941 57.798 5.23168 57.798 5.16107C57.7946 5.12412 57.799 5.08689 57.8109 5.05173C57.8228 5.01658 57.8418 4.98429 57.8669 4.95694C57.892 4.92959 57.9224 4.90779 57.9564 4.89293C57.9904 4.87806 58.0272 4.87045 58.0643 4.87061H68.8598C68.8969 4.87045 68.9336 4.87806 68.9676 4.89293C69.0016 4.90779 69.0321 4.92959 69.0572 4.95694C69.0822 4.98429 69.1013 5.01658 69.1132 5.05173C69.125 5.08689 69.1294 5.12412 69.126 5.16107C69.126 5.23168 69.098 5.29941 69.0481 5.34934C68.9982 5.39927 68.9304 5.42733 68.8598 5.42733Z" fill="#A2A2A2"/>
<path d="M62.4468 6.51693L52.7646 5.16144L62.4468 3.78174V6.51693Z" fill="#A2A2A2"/>
<path d="M87.0635 3.78174L96.7456 5.16144L87.0635 6.51693V3.78174Z" fill="#A2A2A2"/>
<path d="M70.9902 10.6316V0.755859H72.2973V4.82234H77.4288V0.755859H78.7359V10.6316H77.4288V5.9842H72.2973V10.6316H70.9902Z" fill="#A2A2A2"/>
<path d="M52.8358 30.9641C52.7651 30.9641 52.6974 30.9361 52.6475 30.8861C52.5975 30.8362 52.5695 30.7685 52.5695 30.6979V2.47454C52.5661 2.4376 52.5705 2.40036 52.5824 2.36521C52.5942 2.33006 52.6133 2.29777 52.6384 2.27042C52.6634 2.24307 52.6939 2.22127 52.7279 2.2064C52.7619 2.19153 52.7987 2.18393 52.8358 2.18408C52.9128 2.18408 52.9866 2.21469 53.0411 2.26916C53.0956 2.32363 53.1262 2.39751 53.1262 2.47454V30.6979C53.1264 30.735 53.1188 30.7717 53.1039 30.8057C53.089 30.8397 53.0672 30.8702 53.0399 30.8953C53.0125 30.9203 52.9802 30.9394 52.9451 30.9513C52.9099 30.9631 52.8727 30.9675 52.8358 30.9641Z" fill="#A2A2A2"/>
<path d="M96.7438 32.2228C96.6731 32.2228 96.6055 32.1948 96.5555 32.1448C96.5056 32.0949 96.4775 32.0272 96.4775 31.9566V2.45034C96.4775 2.37973 96.5056 2.312 96.5555 2.26207C96.6055 2.21214 96.6731 2.18408 96.7438 2.18408C96.8144 2.18408 96.8821 2.21214 96.9321 2.26207C96.982 2.312 97.0101 2.37973 97.0101 2.45034V31.8355C97.0101 31.9061 96.982 31.9739 96.9321 32.0238C96.8821 32.0737 96.8144 32.1018 96.7438 32.1018" fill="#A2A2A2"/>
<path d="M4.49872 242.203C4.4281 242.203 4.36036 242.175 4.31043 242.125C4.26049 242.076 4.23242 242.008 4.23242 241.937V147.924C4.23242 147.853 4.26049 147.786 4.31043 147.736C4.36036 147.686 4.4281 147.658 4.49872 147.658C4.56933 147.658 4.63708 147.686 4.68701 147.736C4.73694 147.786 4.76494 147.853 4.76494 147.924V241.937C4.76494 242.008 4.73694 242.076 4.68701 242.125C4.63708 242.175 4.56933 242.203 4.49872 242.203Z" fill="#A2A2A2"/>
<path d="M4.49872 132.118C4.4281 132.118 4.36036 132.09 4.31043 132.04C4.26049 131.99 4.23242 131.922 4.23242 131.852V35.8053C4.23242 35.7347 4.26049 35.667 4.31043 35.617C4.36036 35.5671 4.4281 35.5391 4.49872 35.5391C4.56933 35.5391 4.63708 35.5671 4.68701 35.617C4.73694 35.667 4.76494 35.7347 4.76494 35.8053V131.852C4.76494 131.922 4.73694 131.99 4.68701 132.04C4.63708 132.09 4.56933 132.118 4.49872 132.118Z" fill="#A2A2A2"/>
<path d="M3.14453 41.5659L4.50003 31.8838L5.85552 41.5659H3.14453Z" fill="#A2A2A2"/>
<path d="M5.85552 237.459L4.50003 247.141L3.14453 237.459H5.85552Z" fill="#A2A2A2"/>
<path d="M1.90867 143.979H4.01451C4.53765 143.992 5.05984 143.926 5.56368 143.785C5.88992 143.686 6.18835 143.512 6.43504 143.277C6.77018 142.928 7.01892 142.505 7.16124 142.042C7.34782 141.422 7.43759 140.777 7.42746 140.13C7.48863 139.291 7.31249 138.453 6.91917 137.71C6.64252 137.206 6.20906 136.807 5.68468 136.572C5.1329 136.422 4.56168 136.357 3.99036 136.378H1.90867V143.979ZM0.601562 145.141V135.265H4.01451C4.59903 135.248 5.18354 135.297 5.75729 135.41C6.29417 135.514 6.79473 135.756 7.20963 136.112C7.74949 136.56 8.15906 137.146 8.39566 137.806C8.66771 138.584 8.79887 139.403 8.78295 140.227C8.78918 140.898 8.69956 141.566 8.51673 142.212C8.359 142.725 8.13092 143.214 7.83899 143.664C7.59096 144.009 7.28849 144.312 6.9434 144.56C6.57611 144.783 6.17574 144.946 5.75729 145.044C5.23411 145.168 4.69728 145.225 4.15974 145.213L0.601562 145.141Z" fill="#A2A2A2"/>
<path d="M50.9982 32.2229H1.8131C1.74248 32.2229 1.67481 32.1949 1.62488 32.145C1.57495 32.095 1.54687 32.0273 1.54688 31.9567C1.54687 31.8861 1.57495 31.8183 1.62488 31.7684C1.67481 31.7185 1.74248 31.6904 1.8131 31.6904H50.9982C51.0688 31.6904 51.1366 31.7185 51.1865 31.7684C51.2364 31.8183 51.2645 31.8861 51.2645 31.9567C51.2645 32.0273 51.2364 32.095 51.1865 32.145C51.1366 32.1949 51.0688 32.2229 50.9982 32.2229Z" fill="#A2A2A2"/>
<path d="M50.8046 247.408H1.8131C1.74248 247.408 1.67481 247.379 1.62488 247.33C1.57495 247.28 1.54687 247.212 1.54688 247.141C1.54687 247.071 1.57495 247.003 1.62488 246.953C1.67481 246.903 1.74248 246.875 1.8131 246.875H50.8046C50.8752 246.875 50.9429 246.903 50.9928 246.953C51.0427 247.003 51.0708 247.071 51.0708 247.141C51.0708 247.212 51.0427 247.28 50.9928 247.33C50.9429 247.379 50.8752 247.408 50.8046 247.408Z" fill="#A2A2A2"/>
<path d="M123.614 210.495C123.543 210.495 123.476 210.467 123.426 210.417C123.376 210.367 123.348 210.299 123.348 210.229V146.932C123.348 146.861 123.376 146.793 123.426 146.744C123.476 146.694 123.543 146.666 123.614 146.666C123.684 146.666 123.752 146.694 123.802 146.744C123.852 146.793 123.88 146.861 123.88 146.932V210.229C123.88 210.299 123.852 210.367 123.802 210.417C123.752 210.467 123.684 210.495 123.614 210.495Z" fill="#A2A2A2"/>
<path d="M123.614 131.586C123.543 131.586 123.476 131.558 123.426 131.508C123.376 131.458 123.348 131.39 123.348 131.319V67.7321C123.348 67.6615 123.376 67.5937 123.426 67.5438C123.476 67.4939 123.543 67.4658 123.614 67.4658C123.684 67.4658 123.752 67.4939 123.802 67.5438C123.852 67.5937 123.88 67.6615 123.88 67.7321V131.319C123.88 131.39 123.852 131.458 123.802 131.508C123.752 131.558 123.684 131.586 123.614 131.586Z" fill="#A2A2A2"/>
<path d="M122.257 73.4927L123.612 63.8105L124.968 73.4927H122.257Z" fill="#A2A2A2"/>
<path d="M124.968 205.75L123.612 215.432L122.257 205.75H124.968Z" fill="#A2A2A2"/>
<path d="M121.095 140.687C121.041 141.42 121.246 142.148 121.676 142.744C121.838 142.951 122.043 143.119 122.278 143.236C122.512 143.353 122.77 143.417 123.032 143.422C123.292 143.423 123.55 143.365 123.785 143.251C124.02 143.138 124.226 142.973 124.387 142.768C124.799 142.192 124.996 141.49 124.944 140.784C125.002 140.024 124.806 139.266 124.387 138.629C124.223 138.412 124.011 138.236 123.767 138.114C123.524 137.992 123.255 137.928 122.983 137.927C122.72 137.925 122.46 137.986 122.224 138.104C121.989 138.221 121.784 138.393 121.628 138.605C121.219 139.218 121.031 139.952 121.095 140.687ZM124.92 144.245V143.349C124.709 143.689 124.413 143.967 124.059 144.154C123.706 144.341 123.31 144.431 122.911 144.414C122.35 144.411 121.803 144.243 121.337 143.93C120.858 143.607 120.48 143.153 120.248 142.623C119.968 142.016 119.828 141.355 119.837 140.687C119.826 140.016 119.95 139.349 120.2 138.726C120.415 138.187 120.785 137.723 121.265 137.395C121.74 137.086 122.296 136.926 122.862 136.935C123.265 136.931 123.663 137.022 124.024 137.201C124.346 137.383 124.626 137.631 124.847 137.927V134.369H126.057V144.245H124.92Z" fill="#A2A2A2"/>
<path d="M126.301 64.077H98.8033C98.7327 64.077 98.665 64.0489 98.615 63.999C98.5651 63.949 98.5371 63.8813 98.5371 63.8107C98.5371 63.7401 98.5651 63.6724 98.615 63.6224C98.665 63.5725 98.7327 63.5444 98.8033 63.5444H126.301C126.371 63.5444 126.439 63.5725 126.489 63.6224C126.539 63.6724 126.567 63.7401 126.567 63.8107C126.567 63.8813 126.539 63.949 126.489 63.999C126.439 64.0489 126.371 64.077 126.301 64.077Z" fill="#A2A2A2"/>
<path d="M126.301 215.699H98.8033C98.7327 215.699 98.665 215.671 98.615 215.621C98.5651 215.571 98.5371 215.503 98.5371 215.433C98.5371 215.362 98.5651 215.294 98.615 215.244C98.665 215.195 98.7327 215.167 98.8033 215.167H126.301C126.371 215.167 126.439 215.195 126.489 215.244C126.539 215.294 126.567 215.362 126.567 215.433C126.567 215.503 126.539 215.571 126.489 215.621C126.439 215.671 126.371 215.699 126.301 215.699Z" fill="#A2A2A2"/>
<path d="M145.133 240.727C145.063 240.727 144.995 240.699 144.945 240.649C144.895 240.599 144.867 240.532 144.867 240.461V146.932C144.867 146.861 144.895 146.793 144.945 146.744C144.995 146.694 145.063 146.666 145.133 146.666C145.204 146.666 145.272 146.694 145.322 146.744C145.372 146.793 145.4 146.861 145.4 146.932V240.388C145.4 240.459 145.372 240.527 145.322 240.577C145.272 240.627 145.204 240.655 145.133 240.655" fill="#A2A2A2"/>
<path d="M145.133 131.586C145.063 131.586 144.995 131.558 144.945 131.508C144.895 131.458 144.867 131.39 144.867 131.319V37.4513C144.867 37.3807 144.895 37.313 144.945 37.263C144.995 37.2131 145.063 37.1851 145.133 37.1851C145.204 37.1851 145.272 37.2131 145.322 37.263C145.372 37.313 145.4 37.3807 145.4 37.4513V131.319C145.4 131.39 145.372 131.458 145.322 131.508C145.272 131.558 145.204 131.586 145.133 131.586Z" fill="#A2A2A2"/>
<path d="M143.752 43.2119L145.132 33.5298L146.487 43.2119H143.752Z" fill="#A2A2A2"/>
<path d="M146.487 235.982L145.132 245.665L143.752 235.982H146.487Z" fill="#A2A2A2"/>
<path d="M142.615 140.687C142.56 141.42 142.766 142.148 143.196 142.744C143.357 142.951 143.563 143.119 143.797 143.236C144.031 143.353 144.289 143.417 144.551 143.422C144.812 143.423 145.069 143.365 145.304 143.251C145.539 143.138 145.745 142.973 145.907 142.768C146.319 142.192 146.516 141.49 146.463 140.784C146.528 140.02 146.323 139.257 145.882 138.629C145.725 138.411 145.517 138.234 145.277 138.112C145.038 137.989 144.772 137.926 144.503 137.927C144.239 137.925 143.979 137.986 143.744 138.104C143.508 138.221 143.304 138.393 143.147 138.605C142.738 139.218 142.55 139.952 142.615 140.687ZM146.439 144.245V143.349C146.229 143.689 145.932 143.967 145.579 144.154C145.226 144.341 144.829 144.431 144.43 144.414C143.869 144.411 143.322 144.243 142.857 143.93C142.377 143.601 141.992 143.15 141.743 142.623C141.483 142.011 141.351 141.352 141.356 140.687C141.346 140.016 141.469 139.349 141.719 138.726C141.934 138.187 142.305 137.723 142.784 137.395C143.259 137.086 143.815 136.926 144.382 136.935C144.785 136.931 145.183 137.022 145.544 137.201C145.865 137.383 146.146 137.631 146.367 137.927V134.369H147.577V144.245H146.439Z" fill="#A2A2A2"/>
<path d="M152.417 147.706H151.497V141.897C151.248 142.148 150.962 142.36 150.65 142.526C150.34 142.711 150.016 142.873 149.682 143.01V142.115C150.167 141.893 150.616 141.599 151.013 141.243C151.343 140.972 151.622 140.644 151.836 140.275H152.417V147.706Z" fill="#A2A2A2"/>
<path d="M147.818 33.7962H97.9068C97.8362 33.7962 97.7685 33.7681 97.7186 33.7182C97.6686 33.6683 97.6406 33.6005 97.6406 33.5299C97.6406 33.4593 97.6686 33.3916 97.7186 33.3417C97.7685 33.2917 97.8362 33.2637 97.9068 33.2637H147.721C147.792 33.2637 147.86 33.2917 147.91 33.3417C147.959 33.3916 147.988 33.4593 147.988 33.5299C147.988 33.6005 147.959 33.6683 147.91 33.7182C147.86 33.7681 147.792 33.7962 147.721 33.7962" fill="#A2A2A2"/>
<path d="M147.818 245.931H97.9068C97.8362 245.931 97.7685 245.903 97.7186 245.853C97.6686 245.803 97.6406 245.735 97.6406 245.665C97.6406 245.594 97.6686 245.526 97.7186 245.476C97.7685 245.426 97.8362 245.398 97.9068 245.398H147.721C147.792 245.398 147.86 245.426 147.91 245.476C147.959 245.526 147.988 245.594 147.988 245.665C147.988 245.735 147.959 245.803 147.91 245.853C147.86 245.903 147.792 245.931 147.721 245.931" fill="#A2A2A2"/>
<path d="M26.0182 212.528C25.9476 212.528 25.8799 212.5 25.83 212.45C25.78 212.4 25.752 212.332 25.752 212.262V147.924C25.752 147.853 25.78 147.786 25.83 147.736C25.8799 147.686 25.9476 147.658 26.0182 147.658C26.0551 147.654 26.0924 147.659 26.1276 147.671C26.1627 147.683 26.195 147.702 26.2223 147.727C26.2497 147.752 26.2715 147.782 26.2863 147.816C26.3012 147.85 26.3089 147.887 26.3087 147.924V212.262C26.3089 212.299 26.3012 212.335 26.2863 212.369C26.2715 212.403 26.2497 212.434 26.2223 212.459C26.195 212.484 26.1627 212.503 26.1276 212.515C26.0924 212.527 26.0551 212.531 26.0182 212.528Z" fill="#A2A2A2"/>
<path d="M26.0182 132.118C25.9476 132.118 25.8799 132.09 25.83 132.04C25.78 131.99 25.752 131.922 25.752 131.852V65.6262C25.752 65.5556 25.78 65.4879 25.83 65.438C25.8799 65.388 25.9476 65.36 26.0182 65.36C26.0551 65.3566 26.0924 65.361 26.1276 65.3729C26.1627 65.3847 26.195 65.4038 26.2223 65.4289C26.2497 65.4539 26.2715 65.4844 26.2863 65.5184C26.3012 65.5524 26.3089 65.5891 26.3087 65.6262V131.852C26.3089 131.889 26.3012 131.926 26.2863 131.96C26.2715 131.994 26.2497 132.024 26.2223 132.049C26.195 132.074 26.1627 132.093 26.1276 132.105C26.0924 132.117 26.0551 132.121 26.0182 132.118Z" fill="#A2A2A2"/>
<path d="M24.6611 71.3867L26.0166 61.7046L27.3963 71.3867H24.6611Z" fill="#A2A2A2"/>
<path d="M27.3721 207.784L26.0166 217.466L24.6611 207.784H27.3721Z" fill="#A2A2A2"/>
<path d="M21.5386 143.979H23.6686C24.1837 143.992 24.6979 143.926 25.1935 143.785C25.5197 143.686 25.8182 143.512 26.0649 143.277C26.4001 142.928 26.6487 142.505 26.7911 142.042C26.9895 141.425 27.0797 140.778 27.0573 140.13C27.1185 139.291 26.9423 138.453 26.549 137.709C26.2723 137.206 25.8389 136.807 25.3146 136.572C24.7631 136.42 24.1916 136.355 23.6202 136.378H21.5386V143.93V143.979ZM20.2314 145.14V135.265H23.6444C24.2369 135.249 24.8294 135.297 25.4113 135.41C25.9393 135.519 26.4309 135.76 26.8395 136.112C27.3794 136.56 27.7889 137.146 28.0255 137.806C28.2976 138.584 28.4288 139.403 28.4128 140.227C28.4191 140.898 28.3294 141.566 28.1465 142.212C27.9992 142.729 27.7704 143.219 27.4688 143.664C27.2208 144.009 26.9183 144.312 26.5732 144.56C26.2059 144.783 25.8056 144.946 25.3872 145.044C24.872 145.166 24.3433 145.223 23.8139 145.213L20.2314 145.14Z" fill="#A2A2A2"/>
<path d="M32.9883 148.602H32.0927V142.792C31.8283 143.036 31.5358 143.247 31.2214 143.422C30.9221 143.605 30.606 143.759 30.2773 143.882V143.01C30.7593 142.783 31.2073 142.49 31.6086 142.139C31.9332 141.86 32.2039 141.523 32.4074 141.146H32.9883V148.602Z" fill="#A2A2A2"/>
<path d="M51.2143 61.9952H23.3299C23.2928 61.9953 23.256 61.9877 23.222 61.9729C23.1881 61.958 23.1576 61.9362 23.1325 61.9089C23.1074 61.8815 23.0884 61.8492 23.0765 61.8141C23.0647 61.7789 23.0602 61.7417 23.0636 61.7047C23.0636 61.6341 23.0917 61.5664 23.1416 61.5165C23.1915 61.4665 23.2593 61.4385 23.3299 61.4385H51.2143C51.2849 61.4385 51.3527 61.4665 51.4026 61.5165C51.4526 61.5664 51.4806 61.6341 51.4806 61.7047C51.484 61.7417 51.4796 61.7789 51.4677 61.8141C51.4558 61.8492 51.4368 61.8815 51.4117 61.9089C51.3866 61.9362 51.3562 61.958 51.3222 61.9729C51.2882 61.9877 51.2514 61.9953 51.2143 61.9952Z" fill="#A2A2A2"/>
<path d="M51.0207 217.756H23.3299C23.2928 217.757 23.256 217.749 23.222 217.734C23.1881 217.719 23.1576 217.697 23.1325 217.67C23.1074 217.643 23.0884 217.61 23.0765 217.575C23.0647 217.54 23.0602 217.503 23.0636 217.466C23.0636 217.395 23.0917 217.328 23.1416 217.278C23.1915 217.228 23.2593 217.2 23.3299 217.2H51.0207C51.0557 217.2 51.0903 217.207 51.1226 217.22C51.1549 217.233 51.1843 217.253 51.209 217.278C51.2337 217.302 51.2533 217.332 51.2667 217.364C51.2801 217.396 51.2869 217.431 51.2869 217.466C51.2903 217.503 51.2859 217.54 51.2741 217.575C51.2622 217.61 51.2432 217.643 51.2181 217.67C51.193 217.697 51.1625 217.719 51.1285 217.734C51.0945 217.749 51.0578 217.757 51.0207 217.756Z" fill="#A2A2A2"/>
<path d="M64.867 247.141V217.465H54.9428C54.3568 217.542 53.8192 217.831 53.4313 218.277C53.0434 218.722 52.832 219.295 52.837 219.886V245.374C52.837 246.27 53.8536 247.093 55.4028 247.093L64.867 247.141Z" fill="#434343"/>
<path d="M54.9434 217.901C54.4713 217.992 54.0459 218.245 53.7408 218.616C53.4357 218.988 53.2703 219.454 53.2732 219.935V245.423C53.2732 246.052 54.072 246.706 55.4033 246.706H64.4319V217.901H54.9434ZM64.8676 247.577H55.4033C53.7089 247.577 52.426 246.657 52.426 245.423V219.935C52.4172 219.244 52.6567 218.573 53.101 218.045C53.5453 217.516 54.1648 217.164 54.8465 217.054H64.7707C64.8822 217.054 64.9895 217.097 65.0706 217.173C65.1516 217.25 65.2002 217.354 65.2064 217.466V247.141C65.2064 247.199 65.1951 247.255 65.1732 247.308C65.1513 247.361 65.1193 247.409 65.0788 247.449C65.0384 247.49 64.9903 247.522 64.9374 247.544C64.8846 247.566 64.8279 247.577 64.7707 247.577" fill="#A2A2A2"/>
<path d="M84.6914 245.665V215.384H93.26C93.7134 215.357 94.1676 215.424 94.5933 215.582C95.0191 215.741 95.4072 215.986 95.7329 216.302C96.0586 216.619 96.3148 217 96.485 217.421C96.6552 217.842 96.7357 218.294 96.7214 218.748V242.3C96.5624 243.195 96.1096 244.012 95.4346 244.622C94.7595 245.231 93.9007 245.598 92.9938 245.665H84.6914Z" fill="#434343"/>
<path d="M85.1275 245.229H93.0668C93.8581 245.162 94.6063 244.84 95.1997 244.312C95.793 243.784 96.1996 243.078 96.3587 242.3V218.748C96.3694 218.353 96.2978 217.959 96.1483 217.592C95.9988 217.226 95.7746 216.894 95.4901 216.619C95.2056 216.343 94.8669 216.13 94.4956 215.992C94.1242 215.855 93.7283 215.796 93.333 215.82H85.2001L85.1275 245.229ZM92.9942 246.1H84.6918C84.5805 246.094 84.4757 246.046 84.3992 245.965C84.3227 245.883 84.2801 245.776 84.2803 245.665V215.384C84.2801 215.272 84.3227 215.165 84.3992 215.084C84.4757 215.003 84.5805 214.954 84.6918 214.948H93.2604C93.7702 214.925 94.2793 215.007 94.7562 215.188C95.2332 215.369 95.6678 215.647 96.0331 216.003C96.3985 216.359 96.6868 216.787 96.8802 217.259C97.0736 217.731 97.168 218.238 97.1575 218.748V242.3C96.9956 243.311 96.4957 244.237 95.7396 244.927C94.9834 245.618 94.0156 246.031 92.9942 246.1Z" fill="#A2A2A2"/>
<path d="M84.7155 38.5884H64.8672V57.88H84.7155V38.5884Z" fill="#D3D3D3"/>
<path d="M65.3009 57.4687H84.2778V39.0243H65.3009V57.4687ZM84.6651 58.3159H64.841C64.7254 58.3159 64.6146 58.27 64.5328 58.1883C64.4511 58.1066 64.4053 57.9957 64.4053 57.8802V38.516C64.4115 38.4047 64.4601 38.3 64.5411 38.2234C64.6222 38.1469 64.7295 38.1043 64.841 38.1045H84.6651C84.7765 38.1043 84.8838 38.1469 84.9649 38.2234C85.0459 38.3 85.0945 38.4047 85.1007 38.516V57.8802C85.1007 57.9957 85.0549 58.1066 84.9732 58.1883C84.8915 58.27 84.7806 58.3159 84.6651 58.3159Z" fill="#A2A2A2"/>
<path d="M67.9153 63.8105H67.2617V215.408H67.9153V63.8105Z" fill="#A2A2A2"/>
<path d="M82.2952 63.8105H81.6416V215.408H82.2952V63.8105Z" fill="#A2A2A2"/>
<path d="M81.9551 215.384H67.5771V221.29H81.9551V215.384Z" fill="#434343"/>
<path d="M67.9152 221.024H81.6396V215.699H67.9152V221.024ZM81.9786 221.677H67.6006C67.5108 221.677 67.4246 221.642 67.361 221.578C67.2974 221.514 67.2617 221.428 67.2617 221.338V215.432C67.2616 215.389 67.2705 215.346 67.2878 215.306C67.3051 215.266 67.3304 215.23 67.3623 215.201C67.3941 215.171 67.4317 215.149 67.4728 215.134C67.5138 215.12 67.5573 215.114 67.6006 215.118H81.9786C82.062 215.118 82.142 215.151 82.201 215.21C82.2601 215.269 82.2932 215.349 82.2932 215.432V221.338C82.2965 221.382 82.2909 221.425 82.2765 221.466C82.2622 221.507 82.2396 221.545 82.2101 221.577C82.1805 221.609 82.1446 221.634 82.1048 221.651C82.065 221.669 82.022 221.677 81.9786 221.677Z" fill="#A2A2A2"/>
<path d="M81.9551 240.437H67.5771V247.141H81.9551V240.437Z" fill="#434343"/>
<path d="M67.9152 246.826H81.6396V240.751H67.9152V246.826ZM81.9786 247.48H67.6006C67.5108 247.48 67.4246 247.444 67.361 247.381C67.2974 247.317 67.2617 247.231 67.2617 247.141V240.388C67.2616 240.344 67.2705 240.301 67.2878 240.262C67.3051 240.222 67.3304 240.186 67.3623 240.156C67.3941 240.127 67.4317 240.104 67.4728 240.09C67.5138 240.076 67.5573 240.07 67.6006 240.073H81.9786C82.062 240.073 82.142 240.106 82.201 240.165C82.2601 240.224 82.2932 240.304 82.2932 240.388V247.093C82.2965 247.136 82.2909 247.18 82.2765 247.221C82.2622 247.262 82.2396 247.299 82.2101 247.331C82.1805 247.363 82.1446 247.388 82.1048 247.406C82.065 247.423 82.022 247.432 81.9786 247.432" fill="#A2A2A2"/>
<path d="M84.7155 221.29H64.8672V240.582H84.7155V221.29Z" fill="#D3D3D3"/>
<path d="M65.3038 240.17H84.2807V221.725H65.3038V240.17ZM84.668 241.017H64.8439C64.7283 241.017 64.6175 240.971 64.5358 240.889C64.4541 240.808 64.4082 240.697 64.4082 240.581V221.217C64.4144 221.106 64.463 221.001 64.544 220.925C64.6251 220.848 64.7324 220.805 64.8439 220.806H84.668C84.7795 220.805 84.8868 220.848 84.9678 220.925C85.0489 221.001 85.0975 221.106 85.1037 221.217V240.581C85.1037 240.697 85.0578 240.808 84.9761 240.889C84.8944 240.971 84.7835 241.017 84.668 241.017Z" fill="#A2A2A2"/>
<path d="M48.2863 274.275H37.9265C37.8558 274.275 37.7881 274.247 37.7382 274.197C37.6882 274.147 37.6602 274.079 37.6602 274.008C37.6602 273.938 37.6882 273.87 37.7382 273.82C37.7881 273.77 37.8558 273.742 37.9265 273.742H48.2863C48.3569 273.742 48.4247 273.77 48.4746 273.82C48.5245 273.87 48.5525 273.938 48.5525 274.008C48.5525 274.079 48.5245 274.147 48.4746 274.197C48.4247 274.247 48.3569 274.275 48.2863 274.275Z" fill="#A2A2A2"/>
<path d="M80.9642 274.275H70.1686C70.098 274.275 70.0303 274.247 69.9803 274.197C69.9304 274.147 69.9023 274.079 69.9023 274.008C69.9023 273.938 69.9304 273.87 69.9803 273.82C70.0303 273.77 70.098 273.742 70.1686 273.742H80.9642C81.0348 273.742 81.1025 273.77 81.1525 273.82C81.2024 273.87 81.2304 273.938 81.2304 274.008C81.2304 274.079 81.2024 274.147 81.1525 274.197C81.1025 274.247 81.0348 274.275 80.9642 274.275Z" fill="#A2A2A2"/>
<path d="M74.5493 272.678L64.8672 274.033L74.5493 275.389V272.678Z" fill="#A2A2A2"/>
<path d="M43.1543 275.389L52.8364 274.033L43.1543 272.678V275.389Z" fill="#A2A2A2"/>
<path d="M56.5161 277.107H58.9366C59.2342 277.14 59.5346 277.14 59.8322 277.107C60.097 277.067 60.3516 276.976 60.5826 276.841C60.7923 276.707 60.9667 276.524 61.0909 276.308C61.2205 276.045 61.2867 275.755 61.2845 275.461C61.2915 275.123 61.1897 274.792 60.9941 274.517C60.8129 274.238 60.5384 274.032 60.2195 273.936C59.7476 273.802 59.2572 273.745 58.7672 273.767H56.3466L56.5161 277.107ZM56.5161 272.556H58.6704C59.0801 272.611 59.4951 272.611 59.9048 272.556C60.201 272.481 60.4644 272.311 60.6552 272.072C60.8336 271.817 60.9268 271.512 60.9215 271.201C60.9156 270.895 60.8323 270.595 60.6794 270.33C60.5162 270.09 60.2777 269.911 60.0017 269.821C59.5107 269.703 59.0055 269.654 58.5009 269.676H56.5161V272.556ZM55.209 278.269V268.393H58.9366C59.5566 268.377 60.1736 268.484 60.752 268.708C61.1903 268.902 61.561 269.222 61.817 269.628C62.0687 270.017 62.2031 270.471 62.2043 270.935C62.1957 271.353 62.0789 271.761 61.8654 272.121C61.6122 272.514 61.2507 272.825 60.8246 273.016C61.3675 273.162 61.8505 273.475 62.2043 273.912C62.5287 274.344 62.6991 274.872 62.6885 275.413C62.6905 275.865 62.5912 276.311 62.398 276.72C62.2211 277.066 61.9737 277.371 61.6718 277.615C61.3436 277.851 60.9741 278.024 60.5826 278.124C60.0579 278.239 59.5222 278.296 58.9851 278.293H55.209V278.269Z" fill="#A2A2A2"/>
<path d="M88.3471 299.594H90.7676H91.6633C91.9291 299.558 92.1846 299.467 92.4136 299.328C92.636 299.198 92.8133 299.004 92.9219 298.771C93.0512 298.516 93.1176 298.234 93.1155 297.948C93.1227 297.603 93.021 297.264 92.8251 296.98C92.6395 296.705 92.3666 296.5 92.0505 296.399C91.5748 296.287 91.0866 296.238 90.5982 296.254H88.3229L88.3471 299.594ZM88.3471 295.043H90.4772C90.9001 295.056 91.323 295.015 91.7359 294.922C92.0353 294.84 92.2992 294.662 92.4862 294.414C92.659 294.166 92.7441 293.868 92.7282 293.567C92.7407 293.258 92.6561 292.953 92.4862 292.695C92.3342 292.445 92.0914 292.263 91.8085 292.187C91.3178 292.067 90.8123 292.018 90.3077 292.042H88.3471V295.043ZM87.04 300.756V290.88H90.6466C91.2647 290.86 91.881 290.959 92.462 291.17C92.9098 291.362 93.2835 291.693 93.527 292.114C93.7743 292.497 93.9085 292.942 93.9143 293.397C93.9227 293.825 93.8048 294.246 93.5754 294.608C93.3222 295 92.9607 295.311 92.5346 295.503C93.0803 295.642 93.5652 295.957 93.9143 296.399C94.2387 296.831 94.4091 297.359 94.3984 297.899C94.4027 298.344 94.3033 298.783 94.1079 299.182C93.9449 299.544 93.6956 299.86 93.3818 300.102C93.0576 300.34 92.6861 300.505 92.2926 300.586C91.7698 300.713 91.2326 300.77 90.695 300.756H87.04Z" fill="#A2A2A2"/>
<path d="M52.8376 276.986C52.8026 276.986 52.768 276.979 52.7356 276.966C52.7033 276.953 52.674 276.933 52.6493 276.908C52.6246 276.884 52.605 276.854 52.5916 276.822C52.5782 276.79 52.5713 276.755 52.5713 276.72V249.562C52.5713 249.491 52.5994 249.423 52.6493 249.374C52.6992 249.324 52.767 249.296 52.8376 249.296C52.8745 249.292 52.9118 249.297 52.9469 249.308C52.9821 249.32 53.0143 249.339 53.0417 249.364C53.069 249.389 53.0909 249.42 53.1057 249.454C53.1206 249.488 53.1282 249.525 53.128 249.562V276.696C53.1282 276.733 53.1206 276.77 53.1057 276.804C53.0909 276.838 53.069 276.868 53.0417 276.893C53.0143 276.918 52.9821 276.937 52.9469 276.949C52.9118 276.961 52.8745 276.966 52.8376 276.962" fill="#A2A2A2"/>
<path d="M64.8922 276.986C64.8572 276.986 64.8226 276.979 64.7903 276.966C64.758 276.953 64.7287 276.933 64.704 276.908C64.6793 276.884 64.6596 276.854 64.6462 276.822C64.6328 276.79 64.626 276.755 64.626 276.72V249.223C64.626 249.152 64.654 249.084 64.704 249.035C64.7539 248.985 64.8216 248.957 64.8922 248.957C64.9628 248.957 65.0306 248.985 65.0805 249.035C65.1304 249.084 65.1585 249.152 65.1585 249.223V276.696C65.1585 276.731 65.1516 276.765 65.1383 276.798C65.1249 276.83 65.1052 276.859 65.0805 276.884C65.0558 276.909 65.0264 276.928 64.9941 276.942C64.9618 276.955 64.9272 276.962 64.8922 276.962" fill="#A2A2A2"/>
<path d="M80.1408 295.818H69.7809C69.7103 295.818 69.6426 295.79 69.5927 295.74C69.5427 295.69 69.5146 295.622 69.5146 295.551C69.5146 295.481 69.5427 295.413 69.5927 295.363C69.6426 295.313 69.7103 295.285 69.7809 295.285H80.1408C80.2114 295.285 80.2792 295.313 80.3291 295.363C80.379 295.413 80.407 295.481 80.407 295.551C80.407 295.622 80.379 295.69 80.3291 295.74C80.2792 295.79 80.2114 295.818 80.1408 295.818Z" fill="#A2A2A2"/>
<path d="M112.819 295.818H102.023C101.953 295.818 101.885 295.79 101.835 295.74C101.785 295.69 101.757 295.622 101.757 295.551C101.757 295.481 101.785 295.413 101.835 295.363C101.885 295.313 101.953 295.285 102.023 295.285H112.819C112.889 295.285 112.957 295.313 113.007 295.363C113.057 295.413 113.085 295.481 113.085 295.551C113.085 295.622 113.057 295.69 113.007 295.74C112.957 295.79 112.889 295.818 112.819 295.818Z" fill="#A2A2A2"/>
<path d="M106.404 294.196L96.7217 295.552L106.404 296.907V294.196Z" fill="#A2A2A2"/>
<path d="M75.0088 296.907L84.6909 295.552L75.0088 294.196V296.907Z" fill="#A2A2A2"/>
<path d="M84.6921 298.698C84.6571 298.698 84.6224 298.692 84.5901 298.678C84.5578 298.665 84.5285 298.645 84.5038 298.62C84.4791 298.596 84.4595 298.566 84.4461 298.534C84.4327 298.502 84.4258 298.467 84.4258 298.432V247.916C84.4258 247.845 84.4539 247.777 84.5038 247.728C84.5537 247.678 84.6215 247.65 84.6921 247.65C84.729 247.646 84.7662 247.651 84.8014 247.662C84.8366 247.674 84.8688 247.693 84.8962 247.718C84.9235 247.743 84.9454 247.774 84.9602 247.808C84.9751 247.842 84.9827 247.879 84.9825 247.916V298.481C84.9827 298.518 84.9751 298.554 84.9602 298.588C84.9454 298.622 84.9235 298.653 84.8962 298.678C84.8688 298.703 84.8366 298.722 84.8014 298.734C84.7662 298.746 84.729 298.75 84.6921 298.747" fill="#A2A2A2"/>
<path d="M96.7467 298.698C96.7117 298.698 96.6771 298.691 96.6448 298.678C96.6125 298.665 96.5832 298.645 96.5585 298.62C96.5337 298.596 96.5141 298.566 96.5007 298.534C96.4873 298.502 96.4805 298.467 96.4805 298.432V247.19C96.4805 247.119 96.5085 247.051 96.5585 247.001C96.6084 246.951 96.6761 246.923 96.7467 246.923C96.8173 246.923 96.885 246.951 96.935 247.001C96.9849 247.051 97.013 247.119 97.013 247.19V298.481C97.013 298.551 96.9849 298.619 96.935 298.669C96.885 298.719 96.8173 298.747 96.7467 298.747" fill="#A2A2A2"/>
</g>
<defs>
<clipPath id="clip0">
<rect width="151.815" height="300" fill="white" transform="translate(0.601562 0.755859)"/>
</clipPath>
</defs>
</svg>
