<svg width="171" height="298" viewBox="0 0 171 298" fill="none" xmlns="http://www.w3.org/2000/svg">
<path d="M5.6762 234.173C5.63759 234.178 5.59819 234.175 5.56078 234.164C5.52337 234.153 5.48887 234.134 5.45951 234.108C5.43015 234.083 5.40672 234.051 5.39078 234.015C5.37484 233.98 5.3668 233.941 5.3672 233.902V128.622C5.3672 128.54 5.39967 128.461 5.45763 128.404C5.51558 128.346 5.59423 128.313 5.6762 128.313C5.7513 128.322 5.82029 128.359 5.87013 128.416C5.91998 128.473 5.94724 128.546 5.94665 128.622V233.902C5.94665 233.974 5.91813 234.043 5.86742 234.093C5.81671 234.144 5.74792 234.173 5.6762 234.173Z" fill="#A2A2A2"/>
<path d="M5.67364 110.193C5.63155 110.2 5.58847 110.196 5.54795 110.183C5.50743 110.17 5.47066 110.147 5.44053 110.117C5.4104 110.087 5.38782 110.05 5.37462 110.01C5.36142 109.969 5.358 109.926 5.3646 109.884V7.15381C5.3646 7.07184 5.39707 6.99321 5.45504 6.93525C5.513 6.87728 5.59166 6.84473 5.67364 6.84473C5.74875 6.85419 5.81775 6.89089 5.86761 6.94786C5.91746 7.00483 5.94472 7.07811 5.94413 7.15381V109.884C5.94971 109.923 5.94683 109.962 5.93576 109.999C5.92469 110.037 5.90568 110.071 5.87999 110.101C5.85429 110.13 5.82257 110.154 5.78696 110.17C5.75134 110.185 5.71266 110.193 5.67364 110.193Z" fill="#A2A2A2"/>
<path d="M4.20605 11.249H7.18103L5.67424 0.663086L4.20605 11.249Z" fill="#A2A2A2"/>
<path d="M4.20605 227.605L5.67424 238.191L7.18103 227.605H4.20605Z" fill="#A2A2A2"/>
<path d="M56.4008 0.972665H2.31196C2.22998 0.972665 2.15133 0.940107 2.09336 0.882144C2.0354 0.82418 2.00293 0.745551 2.00293 0.663578C2.00293 0.581606 2.0354 0.503006 2.09336 0.445043C2.15133 0.387079 2.22998 0.354492 2.31196 0.354492H56.4008C56.4828 0.354492 56.5614 0.387079 56.6194 0.445043C56.6774 0.503006 56.7098 0.581606 56.7098 0.663578C56.7098 0.745551 56.6774 0.82418 56.6194 0.882144C56.5614 0.940107 56.4828 0.972665 56.4008 0.972665Z" fill="#A2A2A2"/>
<path d="M56.6735 238.5H2.23689C2.15492 238.5 2.07626 238.467 2.0183 238.409C1.96034 238.351 1.92775 238.273 1.92775 238.191C1.92735 238.152 1.93539 238.113 1.95133 238.077C1.96727 238.042 1.99071 238.01 2.02007 237.984C2.04943 237.959 2.08405 237.94 2.12147 237.929C2.15888 237.918 2.19828 237.915 2.23689 237.92H56.6735C56.7492 237.92 56.8225 237.947 56.8794 237.997C56.9364 238.047 56.973 238.116 56.9825 238.191C56.9741 238.27 56.9389 238.344 56.8826 238.4C56.8264 238.456 56.7526 238.491 56.6735 238.5Z" fill="#A2A2A2"/>
<path d="M131.275 268.558H106.317C106.276 268.558 106.236 268.55 106.199 268.535C106.161 268.519 106.127 268.496 106.098 268.468C106.07 268.439 106.047 268.405 106.031 268.367C106.016 268.33 106.008 268.29 106.008 268.249C106.008 268.208 106.016 268.168 106.031 268.131C106.047 268.093 106.07 268.059 106.098 268.03C106.127 268.002 106.161 267.979 106.199 267.963C106.236 267.948 106.276 267.94 106.317 267.94H131.275C131.357 267.94 131.436 267.972 131.493 268.03C131.551 268.088 131.584 268.167 131.584 268.249C131.584 268.331 131.551 268.41 131.493 268.468C131.436 268.526 131.357 268.558 131.275 268.558Z" fill="#A2A2A2"/>
<path d="M90.7504 268.558H64.6334C64.5928 268.558 64.5526 268.55 64.5151 268.535C64.4776 268.519 64.4435 268.496 64.4148 268.468C64.3861 268.439 64.3633 268.405 64.3478 268.367C64.3323 268.33 64.3242 268.29 64.3242 268.249C64.3242 268.208 64.3323 268.168 64.3478 268.131C64.3633 268.093 64.3861 268.059 64.4148 268.03C64.4435 268.002 64.4776 267.979 64.5151 267.963C64.5526 267.948 64.5928 267.94 64.6334 267.94H90.7504C90.8324 267.94 90.9111 267.972 90.969 268.03C91.027 268.088 91.0596 268.167 91.0596 268.249C91.0596 268.331 91.027 268.41 90.969 268.468C90.9111 268.526 90.8324 268.558 90.7504 268.558Z" fill="#A2A2A2"/>
<path d="M59.1855 268.249L69.8102 269.717V266.742L59.1855 268.249Z" fill="#A2A2A2"/>
<path d="M127.838 269.717L137.844 268.249L127.838 266.742V269.717Z" fill="#A2A2A2"/>
<path d="M167.592 173.98C167.52 173.98 167.451 173.951 167.4 173.901C167.35 173.85 167.321 173.781 167.321 173.709V129.279C167.316 129.241 167.318 129.201 167.329 129.164C167.341 129.127 167.36 129.092 167.385 129.063C167.411 129.033 167.443 129.01 167.478 128.994C167.514 128.978 167.553 128.97 167.592 128.97C167.674 128.97 167.752 129.003 167.81 129.061C167.868 129.119 167.901 129.197 167.901 129.279V173.709C167.891 173.785 167.855 173.854 167.798 173.903C167.741 173.953 167.667 173.98 167.592 173.98Z" fill="#A2A2A2"/>
<path d="M167.592 110.657C167.52 110.657 167.451 110.629 167.4 110.578C167.35 110.527 167.321 110.459 167.321 110.387V67.4248C167.316 67.3862 167.318 67.3469 167.329 67.3095C167.341 67.272 167.36 67.2374 167.385 67.2081C167.411 67.1787 167.443 67.1553 167.478 67.1393C167.514 67.1234 167.553 67.1153 167.592 67.1157C167.674 67.1157 167.752 67.1483 167.81 67.2063C167.868 67.2643 167.901 67.3429 167.901 67.4248V110.387C167.891 110.462 167.855 110.531 167.798 110.581C167.741 110.631 167.667 110.658 167.592 110.657Z" fill="#A2A2A2"/>
<path d="M166.163 71.5196H169.138L167.67 60.895L166.163 71.5196Z" fill="#A2A2A2"/>
<path d="M166.163 167.218L167.67 177.804L169.138 167.218H166.163Z" fill="#A2A2A2"/>
<path d="M165.546 120.857C165.499 121.462 165.634 122.067 165.933 122.595C166.058 122.788 166.229 122.946 166.432 123.055C166.635 123.163 166.862 123.217 167.092 123.213C167.382 123.225 167.669 123.151 167.916 122.999C168.164 122.848 168.361 122.627 168.483 122.364V119.157C168.359 118.897 168.16 118.681 167.912 118.537C167.664 118.392 167.378 118.325 167.092 118.345C166.049 118.345 165.546 119.157 165.546 120.857ZM163.383 120.857C163.341 119.788 163.638 118.733 164.233 117.843C164.503 117.486 164.854 117.198 165.257 117.003C165.66 116.808 166.103 116.712 166.551 116.723C166.919 116.718 167.283 116.795 167.617 116.949C167.951 117.103 168.247 117.329 168.483 117.611V113.516H170.646V125.107H168.714V124.257C168.473 124.569 168.162 124.822 167.807 124.997C167.452 125.171 167.062 125.261 166.667 125.261C166.219 125.272 165.776 125.176 165.373 124.981C164.969 124.786 164.618 124.498 164.349 124.141C163.75 123.21 163.453 122.117 163.499 121.011" fill="#A2A2A2"/>
<path d="M170.377 61.2041H140.551C140.469 61.2041 140.391 61.1715 140.333 61.1136C140.275 61.0556 140.242 60.977 140.242 60.895C140.242 60.8131 140.275 60.7344 140.333 60.6765C140.391 60.6185 140.469 60.5859 140.551 60.5859H170.377C170.453 60.5954 170.522 60.6321 170.571 60.689C170.621 60.746 170.648 60.8193 170.648 60.895C170.648 60.9667 170.619 61.0355 170.569 61.0862C170.518 61.137 170.449 61.1655 170.377 61.1655" fill="#A2A2A2"/>
<path d="M141.053 178.152C140.981 178.152 140.912 178.123 140.861 178.073C140.811 178.022 140.782 177.953 140.782 177.881C140.776 177.843 140.779 177.803 140.79 177.766C140.802 177.729 140.821 177.694 140.846 177.665C140.872 177.635 140.904 177.612 140.939 177.596C140.975 177.58 141.014 177.572 141.053 177.572H170.376C170.448 177.572 170.517 177.601 170.568 177.652C170.618 177.702 170.647 177.771 170.647 177.843C170.652 177.881 170.65 177.921 170.638 177.958C170.627 177.996 170.608 178.03 170.583 178.06C170.557 178.089 170.525 178.112 170.49 178.128C170.454 178.144 170.415 178.152 170.376 178.152H141.053Z" fill="#A2A2A2"/>
<path d="M80.2806 119.89H55.0907C55.0521 119.896 55.0127 119.893 54.9753 119.882C54.9379 119.871 54.9034 119.852 54.874 119.826C54.8446 119.801 54.8211 119.769 54.8051 119.733C54.7892 119.698 54.7812 119.659 54.7816 119.62C54.775 119.578 54.7785 119.535 54.7917 119.494C54.8049 119.454 54.8275 119.417 54.8576 119.387C54.8877 119.357 54.9245 119.334 54.965 119.321C55.0055 119.308 55.0486 119.304 55.0907 119.311H80.2806C80.3626 119.311 80.4412 119.343 80.4992 119.401C80.5572 119.459 80.5897 119.538 80.5897 119.62C80.5803 119.695 80.5436 119.764 80.4866 119.814C80.4296 119.864 80.3563 119.891 80.2806 119.89ZM83.8351 119.89H82.5987C82.527 119.89 82.4582 119.862 82.4075 119.811C82.3568 119.76 82.3282 119.692 82.3282 119.62C82.3227 119.581 82.3255 119.542 82.3366 119.505C82.3477 119.467 82.3667 119.433 82.3924 119.403C82.4181 119.374 82.4498 119.35 82.4854 119.334C82.521 119.319 82.5597 119.31 82.5987 119.311H83.7964C83.8784 119.311 83.957 119.343 84.015 119.401C84.073 119.459 84.1055 119.538 84.1055 119.62C84.0961 119.695 84.0593 119.764 84.0024 119.814C83.9454 119.864 83.8721 119.891 83.7964 119.89H83.8351ZM111.382 119.89H86.1917C86.1531 119.896 86.1138 119.893 86.0764 119.882C86.039 119.871 86.0044 119.852 85.975 119.826C85.9457 119.801 85.9222 119.769 85.9063 119.733C85.8904 119.698 85.8823 119.659 85.8827 119.62C85.8761 119.578 85.8795 119.535 85.8927 119.494C85.9059 119.454 85.9285 119.417 85.9586 119.387C85.9888 119.357 86.0255 119.334 86.066 119.321C86.1066 119.308 86.1496 119.304 86.1917 119.311H111.382C111.464 119.311 111.542 119.343 111.6 119.401C111.658 119.459 111.691 119.538 111.691 119.62C111.681 119.695 111.645 119.764 111.588 119.814C111.531 119.864 111.457 119.891 111.382 119.89ZM114.936 119.89H113.738C113.667 119.89 113.598 119.862 113.547 119.811C113.496 119.76 113.468 119.692 113.468 119.62C113.462 119.581 113.465 119.542 113.476 119.505C113.487 119.467 113.506 119.433 113.532 119.403C113.558 119.374 113.59 119.35 113.625 119.334C113.661 119.319 113.699 119.31 113.738 119.311H114.936C115.018 119.311 115.097 119.343 115.155 119.401C115.213 119.459 115.245 119.538 115.245 119.62C115.236 119.695 115.199 119.764 115.142 119.814C115.085 119.864 115.012 119.891 114.936 119.89ZM141.71 119.89H117.37C117.332 119.896 117.292 119.893 117.255 119.882C117.217 119.871 117.183 119.852 117.153 119.826C117.124 119.801 117.101 119.769 117.085 119.733C117.069 119.698 117.061 119.659 117.061 119.62C117.054 119.578 117.058 119.535 117.071 119.494C117.084 119.454 117.107 119.417 117.137 119.387C117.167 119.357 117.204 119.334 117.244 119.321C117.285 119.308 117.328 119.304 117.37 119.311H141.749C141.831 119.311 141.909 119.343 141.967 119.401C142.025 119.459 142.058 119.538 142.058 119.62C142.048 119.695 142.012 119.764 141.955 119.814C141.898 119.864 141.824 119.891 141.749 119.89" fill="#A2A2A2"/>
<path d="M91.3642 12.5626C91.6651 12.5759 91.9542 12.684 92.1901 12.8713C92.426 13.0586 92.5967 13.3157 92.6778 13.6058C92.9482 14.6489 96.2322 42.2729 96.2322 42.2729C96.2322 42.2729 96.2323 42.7365 95.5368 42.9297H95.305C91.6734 44.0115 88.3894 44.7841 84.2169 45.6341C78.4063 46.8286 72.5194 47.6161 66.5993 47.9908H66.4061C65.4016 47.9908 65.5562 47.1409 65.5562 47.1409C65.5562 47.1409 60.9973 18.976 60.9201 18.4351C60.8428 17.8942 61.5381 17.6238 61.5381 17.6238C71.1842 14.7162 81.1477 12.9908 91.2098 12.4854" fill="#D3D3D3"/>
<path d="M66.0225 47.3733C66.0225 47.3733 66.0225 47.3733 66.4089 47.3733H66.602C72.4809 46.9692 78.3274 46.182 84.1038 45.0166C88.315 44.1666 91.8307 43.3552 95.1533 42.3121H95.3464C95.6169 42.3121 95.6942 42.3121 95.6942 42.0417C94.4193 31.0693 92.3716 14.3404 92.1784 13.5291C92.1293 13.3378 92.0203 13.1671 91.8674 13.042C91.7145 12.9169 91.5257 12.8439 91.3285 12.8337C81.3027 13.3238 71.3756 15.0497 61.7727 17.9721C61.7727 17.9721 61.425 17.9721 61.425 18.2812C61.425 18.5903 66.0226 46.7165 66.0612 47.0256L66.0225 47.3733ZM66.6407 48.571H66.3702C66.1608 48.5681 65.9548 48.5179 65.7675 48.4243C65.5802 48.3306 65.4164 48.1959 65.2884 48.0301C65.2141 47.791 65.2141 47.535 65.2884 47.296C64.9794 45.4415 60.7296 19.1698 60.6523 18.5903C60.6325 18.2981 60.7139 18.0081 60.8827 17.7689C61.0516 17.5297 61.2976 17.3559 61.5795 17.2767C71.2837 14.3296 81.3144 12.5907 91.4444 12.0996C91.8506 12.1296 92.2381 12.2824 92.5555 12.5377C92.8729 12.793 93.1051 13.1388 93.2215 13.5291C93.492 14.5723 96.4283 39.4145 96.776 42.2735C96.7635 42.5515 96.6574 42.8173 96.4751 43.0276C96.2928 43.2379 96.0449 43.3806 95.7715 43.4325H95.5397C91.8801 44.5367 88.1662 45.4522 84.4128 46.1756C78.5754 47.3653 72.6633 48.1527 66.718 48.5323" fill="#A2A2A2"/>
<path d="M60.5769 18.0109C59.3406 18.4359 59.1475 16.9291 59.1475 16.9291V5.02955C59.1577 3.82716 59.6425 2.67749 60.4964 1.83087C61.3503 0.984242 62.5039 0.509234 63.7063 0.509277H92.2189L95.4257 3.56144V12.2929C83.6318 12.5427 71.9298 14.428 60.6543 17.895L60.5769 18.0109Z" fill="#434343"/>
<path d="M63.6658 0.972328C62.6186 0.970649 61.6106 1.37016 60.8489 2.08873C60.0872 2.80731 59.6298 3.79035 59.5705 4.83582V16.6967C59.58 16.8243 59.6158 16.9485 59.6757 17.0615C59.7355 17.1745 59.8181 17.2739 59.9182 17.3535C59.9182 17.3535 59.9182 17.3535 60.3818 17.3535C71.5237 13.9378 83.0785 12.0532 94.7283 11.7515C94.7283 6.41985 94.7283 4.41084 94.7283 3.63815L91.792 0.817785L63.6658 0.972328ZM60.15 18.5512C59.9236 18.6224 59.6809 18.6224 59.4546 18.5512C59.2367 18.3906 59.0528 18.1884 58.9135 17.9563C58.7743 17.7242 58.6823 17.4668 58.6432 17.199V5.22216C58.6329 4.55612 58.7553 3.89469 59.0031 3.27639C59.2509 2.65808 59.6193 2.09523 60.0867 1.62063C60.5541 1.14602 61.1112 0.769165 61.7257 0.511941C62.3401 0.254717 62.9997 0.122277 63.6658 0.122356H92.1784C92.2778 0.0835637 92.388 0.0835637 92.4874 0.122356L95.6942 3.17452C95.7213 3.22844 95.7354 3.28798 95.7354 3.34837C95.7354 3.40875 95.7213 3.46829 95.6942 3.52222V12.2151C95.722 12.2757 95.7363 12.3416 95.7363 12.4083C95.7363 12.4749 95.722 12.5408 95.6942 12.6014C95.633 12.6269 95.5672 12.6401 95.5009 12.6401C95.4346 12.6401 95.369 12.6269 95.3078 12.6014C83.5786 12.866 71.9423 14.7512 60.7295 18.2035H60.1887" fill="#A2A2A2"/>
<path d="M98.3625 26.2012H94.4991L95.3877 31.301C95.3432 31.8277 95.1432 32.3293 94.813 32.742C94.4828 33.1548 94.0373 33.4601 93.5332 33.6191C91.7946 34.2372 64.7116 38.7189 64.7116 38.7189L63.4753 39.028C62.6568 39.2503 61.9227 39.7103 61.3657 40.3499C60.8087 40.9894 60.4537 41.7798 60.3458 42.621C60.1632 44.5295 60.4007 46.4547 61.0414 48.2617H63.9775L63.2821 43.046C63.2821 43.046 63.2821 42.0415 64.557 41.8483C65.832 41.6551 92.9151 37.019 92.9151 37.019C94.5902 36.6828 96.0786 35.7318 97.0877 34.3531C97.855 33.3647 98.3 32.1644 98.3625 30.9146V26.2012Z" fill="#D3D3D3"/>
<path d="M98.3625 26.2012H94.4991L95.3877 31.301C95.3432 31.8277 95.1432 32.3293 94.813 32.742C94.4828 33.1548 94.0373 33.4601 93.5332 33.6191C91.7946 34.2372 64.7116 38.7189 64.7116 38.7189L63.4753 39.028C62.6568 39.2503 61.9227 39.7103 61.3657 40.3499C60.8087 40.9894 60.4537 41.7798 60.3458 42.621C60.1632 44.5295 60.4007 46.4547 61.0414 48.2617H63.9775L63.2821 43.046C63.2821 43.046 63.2821 42.0415 64.557 41.8483C65.832 41.6551 92.9151 37.019 92.9151 37.019C94.5902 36.6828 96.0786 35.7318 97.0877 34.3531C97.855 33.3647 98.3 32.1644 98.3625 30.9146V26.2012Z" fill="#434343"/>
<path d="M61.154 47.9139H63.2789L62.7766 43.0845C62.7385 42.7575 62.8209 42.4278 63.0084 42.1573C63.3453 41.7773 63.8159 41.542 64.322 41.5005C65.6356 41.5005 92.4096 36.7098 92.68 36.6711C94.2331 36.3381 95.6087 35.444 96.5435 34.1599C97.3478 33.2911 97.8728 32.2009 98.0503 31.0304C98.0503 30.335 98.0503 26.7033 98.0503 26.7033H94.8822L95.6936 31.3781C95.6736 31.9954 95.4619 32.591 95.0881 33.0826C94.7143 33.5741 94.1968 33.9371 93.6073 34.1212C91.8688 34.7394 65.8288 39.0279 64.7084 39.2211L63.5494 39.5301C62.7852 39.7223 62.0981 40.1437 61.5802 40.7375C61.0622 41.3314 60.7383 42.0695 60.6518 42.8527C60.5084 44.6124 60.7051 46.3832 61.2313 48.0684L61.154 47.9139ZM63.9358 48.8025H60.9995C60.9254 48.8013 60.8533 48.7788 60.7916 48.7377C60.73 48.6966 60.6814 48.6386 60.6518 48.5707C60.0068 46.7112 59.7697 44.7347 59.9564 42.7755C60.0876 41.8712 60.4789 41.0246 61.0825 40.3387C61.6861 39.6528 62.476 39.1571 63.3561 38.912L64.5925 38.6029C73.9808 37.0575 92.0233 34.0053 93.3755 33.5417C93.8178 33.3985 94.2078 33.1277 94.4966 32.7633C94.7853 32.399 94.9598 31.9574 94.9981 31.4941L94.0709 26.4715C94.0529 26.4287 94.0436 26.3828 94.0436 26.3363C94.0436 26.2899 94.0529 26.2439 94.0709 26.2011C94.1131 26.1806 94.1593 26.1699 94.2062 26.1699C94.253 26.1699 94.2993 26.1806 94.3414 26.2011H98.2049C98.254 26.2008 98.3025 26.2109 98.3474 26.2307C98.3924 26.2505 98.4326 26.2797 98.4655 26.3162C98.4983 26.3527 98.5231 26.3957 98.5381 26.4425C98.5531 26.4892 98.5581 26.5386 98.5526 26.5874V31.0304C98.547 32.4269 98.0858 33.7835 97.239 34.8939C96.1692 36.3562 94.5788 37.352 92.796 37.6756C91.7143 37.6756 65.7515 42.3891 64.4379 42.5437C64.28 42.5407 64.1232 42.5699 63.977 42.6297C63.8309 42.6895 63.6985 42.7786 63.5879 42.8914C63.5341 43.0279 63.5341 43.1798 63.5879 43.3163L64.1676 48.532C64.1895 48.6339 64.1895 48.7393 64.1676 48.8411C64.0798 48.8706 63.9848 48.8706 63.8971 48.8411" fill="#A2A2A2"/>
<path d="M59.1063 119.89C58.9834 119.89 58.8654 119.842 58.7784 119.755C58.6915 119.668 58.6426 119.55 58.6426 119.427V13.8762C58.6426 13.7532 58.6915 13.6353 58.7784 13.5484C58.8654 13.4614 58.9834 13.4126 59.1063 13.4126C59.2293 13.4126 59.3472 13.4614 59.4341 13.5484C59.5211 13.6353 59.5699 13.7532 59.5699 13.8762V119.504C59.5699 119.627 59.5211 119.745 59.4341 119.832C59.3472 119.919 59.2293 119.968 59.1063 119.968" fill="#A2A2A2"/>
<path d="M136.684 18.0109C137.921 18.4359 138.152 16.9291 138.152 16.9291V5.02955C138.142 3.82716 137.657 2.67749 136.804 1.83087C135.95 0.984242 134.796 0.509234 133.593 0.509277H105.004L101.797 3.56144V12.2929C113.59 12.5516 125.291 14.4367 136.568 17.895L136.684 18.0109Z" fill="#434343"/>
<path d="M101.913 11.9057C113.706 12.1702 125.406 14.0552 136.685 17.5077C136.994 17.5077 137.11 17.5077 137.148 17.5077C137.248 17.4281 137.331 17.3287 137.391 17.2157C137.451 17.1026 137.486 16.9785 137.496 16.8509V5.02863C137.437 3.98316 136.979 3.00012 136.217 2.28155C135.456 1.56297 134.448 1.16346 133.401 1.16514H105.004L101.913 3.9855C101.913 4.7582 101.913 6.72857 101.913 12.0988V11.9057ZM136.685 18.744H136.144C124.868 15.2771 113.166 13.3917 101.372 13.142C101.318 13.1665 101.258 13.1792 101.198 13.1792C101.138 13.1792 101.079 13.1665 101.025 13.142C100.997 13.0814 100.982 13.0155 100.982 12.9488C100.982 12.8821 100.997 12.8162 101.025 12.7556V3.59916C100.997 3.54523 100.983 3.48569 100.983 3.42531C100.983 3.36492 100.997 3.30536 101.025 3.25143L104.193 0.199269C104.306 0.165999 104.427 0.165999 104.54 0.199269H133.13C134.455 0.199229 135.727 0.723086 136.668 1.65665C137.609 2.59022 138.143 3.85782 138.153 5.18317V17.1214C138.118 17.396 138.029 17.6608 137.889 17.8999C137.75 18.139 137.564 18.3473 137.341 18.5122C137.115 18.5834 136.872 18.5834 136.646 18.5122" fill="#A2A2A2"/>
<path d="M98.6701 26.0466H102.611L103.963 18.4355H98.6701H98.786H93.2998L94.3044 26.0466H98.3997H98.6701Z" fill="#434343"/>
<path d="M94.6151 25.6985H102.342L103.578 18.7828H93.7266L94.6151 25.6985ZM102.613 26.4325H94.1902C94.1016 26.4278 94.0167 26.3954 93.9474 26.34C93.8781 26.2845 93.8279 26.2088 93.8038 26.1234L92.838 18.3965C92.8142 18.3553 92.8018 18.3087 92.8018 18.2612C92.8018 18.2138 92.8142 18.1671 92.838 18.126C92.8807 18.108 92.9267 18.0986 92.9732 18.0986C93.0196 18.0986 93.0656 18.108 93.1084 18.126H103.772C103.815 18.108 103.861 18.0986 103.907 18.0986C103.953 18.0986 103.999 18.108 104.042 18.126C104.081 18.2254 104.081 18.3357 104.042 18.4351L102.69 26.1621C102.68 26.2474 102.64 26.3263 102.575 26.3833C102.511 26.4404 102.428 26.4717 102.342 26.4711" fill="#A2A2A2"/>
<path d="M99.984 61.629H133.403C133.997 61.6341 134.586 61.5223 135.136 61.2998C135.686 61.0773 136.188 60.7486 136.611 60.3324C137.034 59.9163 137.371 59.4208 137.603 58.8743C137.835 58.3278 137.957 57.741 137.962 57.1474V49.4204C137.946 49.1515 137.838 48.8963 137.654 48.6989C137.471 48.5015 137.225 48.3741 136.958 48.3387C128.868 48.398 120.797 47.5688 112.888 45.866C108.519 45.0005 104.199 43.9043 99.9453 42.582H97.2023C92.9608 43.8998 88.6536 44.996 84.2982 45.866C76.3764 47.567 68.2923 48.3962 60.1901 48.3387C59.92 48.3666 59.6692 48.4917 59.4844 48.6907C59.2997 48.8897 59.1935 49.149 59.1855 49.4204V57.1474C59.1906 57.741 59.3125 58.3278 59.5443 58.8743C59.7762 59.4208 60.1134 59.9163 60.5367 60.3324C60.9601 60.7486 61.4612 61.0773 62.0116 61.2998C62.562 61.5223 63.1508 61.6341 63.7444 61.629H100.061H99.984Z" fill="#434343"/>
<path d="M59.4153 49.3052V57.0322C59.4746 58.0777 59.9321 59.0607 60.6938 59.7793C61.4554 60.4979 62.4635 60.8974 63.5106 60.8957H133.053C134.101 60.8974 135.109 60.4979 135.87 59.7793C136.632 59.0607 137.089 58.0777 137.149 57.0322V49.3052C137.149 49.3052 137.149 48.7257 136.569 48.6871C128.44 48.7742 120.327 47.9448 112.384 46.2144C108.003 45.3438 103.67 44.2477 99.4025 42.9305H96.8912C93.0277 44.1668 88.546 45.2485 83.9871 46.1758C76.0288 47.8979 67.9053 48.7401 59.763 48.6871C59.338 48.6871 59.2608 49.1507 59.2222 49.2666L59.4153 49.3052ZM96.7367 62.0934H63.6652C62.3398 62.0934 61.068 61.5696 60.1272 60.636C59.1864 59.7024 58.6528 58.4348 58.6426 57.1095V49.3825C58.6502 48.9945 58.8 48.6228 59.0635 48.338C59.327 48.0531 59.686 47.8749 60.0722 47.8371C68.1227 47.8825 76.1543 47.0534 84.0257 45.3645C88.546 44.4372 92.8732 43.3555 96.8912 42.1191H99.9433C103.807 43.3555 108.289 44.4372 112.809 45.3645C120.693 47.0553 128.738 47.8844 136.801 47.8371C137.201 47.8565 137.579 48.0267 137.858 48.3135C138.138 48.6002 138.299 48.9821 138.308 49.3825V57.1095C138.308 58.4415 137.779 59.719 136.837 60.6609C135.895 61.6028 134.617 62.132 133.285 62.132L96.7367 62.0934Z" fill="#A2A2A2"/>
<path d="M98.7073 26.2012H102.571L101.914 31.301C101.958 31.8277 102.158 32.3293 102.489 32.742C102.819 33.1548 103.264 33.4601 103.768 33.6191C106.975 34.7781 132.59 38.7189 132.59 38.7189L133.826 39.028C134.595 39.2943 135.271 39.7735 135.777 40.4096C136.284 41.0458 136.598 41.8127 136.685 42.621C136.878 44.4789 136.64 46.356 135.99 48.1072H133.054L133.633 43.0073C133.633 43.0073 133.633 42.0028 132.397 41.8097C131.161 41.6165 104 36.9803 104 36.9803C102.325 36.6441 100.837 35.6931 99.8276 34.3145C99.0603 33.3261 98.6152 32.1257 98.5527 30.876V26.2012H98.7073Z" fill="#434343"/>
<path d="M99.0947 26.549C99.0947 26.549 99.0947 30.1807 99.0947 30.8761C99.1614 32.0531 99.5785 33.1833 100.292 34.1214C101.235 35.3976 102.607 36.2896 104.156 36.6327C104.426 36.6327 131.2 41.3075 132.514 41.462C133.02 41.5035 133.491 41.7388 133.828 42.1189C134.021 42.4013 134.104 42.7452 134.059 43.0847L133.557 47.7596H135.837C136.492 46.1295 136.782 44.3755 136.687 42.6211C136.6 41.8379 136.276 41.0998 135.758 40.5059C135.24 39.912 134.553 39.4907 133.789 39.2985L132.591 38.9894C131.587 38.9894 106.938 35.1259 103.731 33.8896C103.153 33.71 102.644 33.3587 102.272 32.8824C101.899 32.4061 101.68 31.8276 101.645 31.2238L102.495 26.4717L99.0947 26.549ZM133.209 48.4936C133.122 48.523 133.027 48.523 132.939 48.4936C132.922 48.4042 132.922 48.3125 132.939 48.2232L133.518 43.1234C133.572 42.9868 133.572 42.8349 133.518 42.6984C133.414 42.5885 133.288 42.501 133.148 42.4412C133.009 42.3815 132.859 42.3507 132.707 42.3507C131.355 42.3507 105.431 37.6758 104.31 37.4827C102.537 37.1611 100.958 36.1638 99.9062 34.7009C99.0351 33.6011 98.5589 32.2404 98.5539 30.8375V26.2013C98.5485 26.1525 98.5534 26.1031 98.5684 26.0563C98.5834 26.0096 98.6082 25.9665 98.641 25.93C98.6739 25.8935 98.714 25.8644 98.7589 25.8446C98.8039 25.8247 98.8525 25.8146 98.9016 25.8149H102.765C102.854 25.7902 102.947 25.7902 103.036 25.8149C103.052 25.9043 103.052 25.996 103.036 26.0854L102.108 31.1852C102.165 31.6332 102.348 32.0559 102.635 32.4045C102.922 32.7532 103.302 33.0135 103.731 33.1556C106.86 34.276 132.244 38.1781 132.475 38.2167L133.75 38.5258C134.633 38.7665 135.425 39.2609 136.03 39.9476C136.634 40.6343 137.024 41.4833 137.15 42.3893C137.344 44.3106 137.106 46.2508 136.455 48.0686C136.422 48.134 136.372 48.1896 136.311 48.2302C136.25 48.2708 136.18 48.295 136.107 48.3004L133.209 48.4936Z" fill="#A2A2A2"/>
<path d="M137.96 119.89C137.837 119.89 137.719 119.842 137.632 119.755C137.545 119.668 137.496 119.55 137.496 119.427V13.8762C137.496 13.7532 137.545 13.6353 137.632 13.5484C137.719 13.4614 137.837 13.4126 137.96 13.4126C138.083 13.4126 138.201 13.4614 138.288 13.5484C138.375 13.6353 138.423 13.7532 138.423 13.8762V119.504C138.423 119.627 138.375 119.745 138.288 119.832C138.201 119.919 138.083 119.968 137.96 119.968" fill="#A2A2A2"/>
<path d="M101.607 3.98589H95.3871C95.3228 3.98612 95.2592 3.97298 95.2003 3.94731C95.1414 3.92163 95.0884 3.88397 95.0448 3.83674C95.0012 3.78951 94.968 3.73373 94.9471 3.67294C94.9262 3.61216 94.9181 3.5477 94.9235 3.48365C94.9235 3.36069 94.9724 3.24276 95.0593 3.15582C95.1463 3.06887 95.2641 3.02002 95.3871 3.02002H101.607C101.73 3.02002 101.848 3.06887 101.935 3.15582C102.022 3.24276 102.071 3.36069 102.071 3.48365C102.076 3.5477 102.068 3.61216 102.047 3.67294C102.026 3.73373 101.993 3.78951 101.95 3.83674C101.906 3.88397 101.853 3.92163 101.794 3.94731C101.735 3.97298 101.672 3.98612 101.607 3.98589Z" fill="#A2A2A2"/>
<path d="M95.4219 12.3697H101.642L98.5513 12.3311L95.4219 12.3697Z" fill="#D3D3D3"/>
<path d="M101.606 12.8335H95.3855C95.2625 12.8335 95.1446 12.7846 95.0577 12.6977C94.9708 12.6107 94.9219 12.4928 94.9219 12.3698C94.9219 12.2469 94.9708 12.129 95.0577 12.042C95.1446 11.9551 95.2625 11.9062 95.3855 11.9062H101.606C101.668 11.9003 101.731 11.9081 101.79 11.9293C101.849 11.9505 101.902 11.9845 101.947 12.0288C101.991 12.0731 102.025 12.1266 102.046 12.1856C102.067 12.2446 102.075 12.3075 102.069 12.3698C102.069 12.4928 102.02 12.6107 101.934 12.6977C101.847 12.7846 101.729 12.8335 101.606 12.8335Z" fill="#A2A2A2"/>
<path d="M105.778 12.5631C105.482 12.5784 105.199 12.6879 104.969 12.8756C104.74 13.0632 104.577 13.3192 104.503 13.6062C104.503 13.9539 100.446 42.3119 100.446 42.3119C100.446 42.3119 100.446 42.7755 101.103 42.9687H101.335C104.967 44.0505 108.598 44.8232 112.925 45.6732C118.672 46.8638 124.494 47.6513 130.35 48.0299H130.582C130.826 48.0309 131.063 47.9523 131.259 47.8058C131.454 47.6594 131.596 47.4532 131.663 47.2186C131.663 47.2186 136.222 19.0151 136.299 18.4742C136.377 17.9333 135.72 17.6629 135.72 17.6629C126.101 14.7536 116.163 13.0281 106.126 12.5244" fill="#D3D3D3"/>
<path d="M100.988 42.3507C101.103 42.3717 101.22 42.3717 101.335 42.3507H101.606C105.006 43.3552 108.328 44.0893 112.926 45.0165C118.662 46.1905 124.47 46.9778 130.312 47.3732C130.891 47.3732 130.968 46.9869 130.968 46.9869C130.968 46.9869 135.527 18.7834 135.605 18.2425C135.682 17.7016 135.334 17.9334 135.296 17.9334C125.694 15.0995 115.781 13.4517 105.778 13.0268C105.581 13.037 105.392 13.11 105.239 13.2351C105.086 13.3602 104.978 13.5309 104.928 13.7222C104.928 14.3017 102.224 32.6919 100.872 42.3507H100.988ZM130.196 48.5709C124.29 48.181 118.417 47.3936 112.617 46.2142C107.981 45.2869 104.619 44.5529 101.026 43.5097H100.756C100.493 43.4445 100.257 43.2969 100.083 43.0884C99.9093 42.8799 99.8067 42.6215 99.79 42.3507C100.717 35.6668 103.653 13.9154 103.847 13.5677C103.951 13.1776 104.174 12.8299 104.486 12.5735C104.798 12.3171 105.182 12.1649 105.585 12.1382C115.664 12.6321 125.644 14.371 135.296 17.3152C135.592 17.3879 135.852 17.5643 136.029 17.8124C136.206 18.0605 136.289 18.3638 136.261 18.6675C136.261 19.2084 131.818 46.2528 131.625 47.3732C131.548 47.7178 131.357 48.0266 131.084 48.2505C130.811 48.4745 130.471 48.6009 130.118 48.6095L130.196 48.5709Z" fill="#A2A2A2"/>
<path d="M101.027 35.8596C100.966 35.8503 100.908 35.8287 100.855 35.7963C100.802 35.7639 100.756 35.7212 100.72 35.6707C100.684 35.6203 100.659 35.5632 100.645 35.5027C100.631 35.4423 100.63 35.3797 100.641 35.3187L101.414 31.1848C101.423 31.1235 101.445 31.0648 101.477 31.012C101.51 30.9592 101.552 30.9134 101.603 30.8774C101.653 30.8414 101.71 30.8158 101.771 30.8022C101.831 30.7887 101.894 30.7874 101.955 30.7984C102.016 30.8078 102.075 30.8293 102.127 30.8617C102.18 30.8942 102.226 30.9369 102.262 30.9873C102.298 31.0377 102.324 31.0948 102.337 31.1553C102.351 31.2158 102.352 31.2783 102.341 31.3393L101.568 35.4733C101.551 35.5863 101.496 35.69 101.411 35.7673C101.327 35.8446 101.219 35.8908 101.105 35.8982" fill="#A2A2A2"/>
<path d="M98.5545 5.95648C98.5159 5.96205 98.4765 5.95921 98.4391 5.94814C98.4017 5.93707 98.3672 5.91803 98.3379 5.89234C98.3085 5.86665 98.2849 5.83489 98.269 5.79928C98.2531 5.76367 98.245 5.72505 98.2454 5.68604V0.93393C98.2388 0.891835 98.2424 0.848787 98.2556 0.808273C98.2688 0.767759 98.2913 0.730933 98.3215 0.700803C98.3516 0.670674 98.3884 0.648093 98.4289 0.634895C98.4694 0.621697 98.5125 0.618242 98.5545 0.624843C98.5936 0.624443 98.6321 0.632485 98.6677 0.648424C98.7033 0.664363 98.7352 0.68783 98.7609 0.717192C98.7865 0.746554 98.8056 0.781119 98.8166 0.818531C98.8277 0.855942 98.8306 0.895315 98.825 0.93393V5.68604C98.825 5.75776 98.7965 5.82653 98.7458 5.87725C98.6951 5.92796 98.6263 5.95648 98.5545 5.95648ZM98.5545 9.54953C98.4726 9.54953 98.3939 9.51694 98.336 9.45898C98.278 9.40101 98.2454 9.32241 98.2454 9.24044V8.04277C98.245 8.00375 98.2531 7.9651 98.269 7.92949C98.2849 7.89388 98.3085 7.86216 98.3379 7.83646C98.3672 7.81077 98.4017 7.79174 98.4391 7.78067C98.4765 7.76959 98.5159 7.76675 98.5545 7.77232C98.6263 7.77232 98.6951 7.80081 98.7458 7.85153C98.7965 7.90224 98.825 7.97104 98.825 8.04277V9.24044C98.8256 9.31614 98.7983 9.38942 98.7485 9.44639C98.6986 9.50336 98.6296 9.54007 98.5545 9.54953ZM98.5545 14.6493C98.5125 14.6559 98.4694 14.6525 98.4289 14.6393C98.3884 14.6261 98.3516 14.6035 98.3215 14.5734C98.2913 14.5432 98.2688 14.5064 98.2556 14.4659C98.2424 14.4254 98.2388 14.3823 98.2454 14.3402V11.7131C98.245 11.6741 98.2531 11.6354 98.269 11.5998C98.2849 11.5642 98.3085 11.5325 98.3379 11.5068C98.3672 11.4811 98.4017 11.462 98.4391 11.451C98.4765 11.4399 98.5159 11.4371 98.5545 11.4426C98.6263 11.4426 98.6951 11.4711 98.7458 11.5218C98.7965 11.5725 98.825 11.6413 98.825 11.7131V14.4561C98.8306 14.4948 98.8277 14.5341 98.8166 14.5715C98.8056 14.609 98.7865 14.6435 98.7609 14.6729C98.7352 14.7022 98.7033 14.7257 98.6677 14.7417C98.6321 14.7576 98.5936 14.7656 98.5545 14.7652" fill="#A2A2A2"/>
<path d="M105.778 12.5244C105.481 12.5536 105.199 12.6728 104.971 12.8661C104.744 13.0594 104.58 13.3176 104.503 13.6062C104.503 13.9539 100.446 42.2733 100.446 42.2733C100.446 42.2733 100.446 42.7369 101.103 42.9687H101.335C104.967 44.0505 108.598 44.8232 112.925 45.6732C118.678 46.8255 124.498 47.6126 130.35 48.0299H130.582C130.827 48.0377 131.068 47.9615 131.265 47.8141C131.461 47.6666 131.602 47.4566 131.663 47.2186C131.663 47.2186 136.222 19.0537 136.299 18.4742C136.377 17.8947 135.72 17.7015 135.72 17.7015C126.101 14.7922 116.163 13.0667 106.126 12.5631" fill="#D3D3D3"/>
<path d="M100.988 42.3506H101.335H101.606C105.469 43.471 109.062 44.2823 112.926 45.055C118.66 46.2332 124.469 47.0078 130.312 47.3732C130.852 47.3732 130.93 47.0254 130.968 46.9482C131.007 46.8709 135.527 18.7833 135.605 18.2424C135.682 17.7015 135.334 17.9334 135.334 17.9334C125.718 15.1027 115.793 13.455 105.778 13.0267C105.581 13.037 105.392 13.11 105.239 13.2351C105.086 13.3602 104.978 13.5308 104.928 13.7221C104.928 14.3017 102.224 32.6919 100.872 42.3506H100.988ZM130.196 48.5708C124.29 48.1758 118.418 47.3885 112.617 46.2141C108.753 45.4414 104.89 44.6301 101.026 43.5097H100.756C100.496 43.452 100.261 43.3118 100.087 43.1099C99.9129 42.9079 99.8087 42.6552 99.79 42.3893C100.717 35.6668 103.653 13.954 103.847 13.5676C103.952 13.1818 104.177 12.8394 104.49 12.5896C104.802 12.3397 105.186 12.1952 105.585 12.1768C115.66 12.7085 125.635 14.4466 135.296 17.3538C135.588 17.4333 135.843 17.6114 136.019 17.8578C136.195 18.1042 136.281 18.4039 136.261 18.706C136.261 19.2856 131.818 46.2914 131.625 47.4504C131.548 47.795 131.357 48.1037 131.084 48.3277C130.811 48.5517 130.471 48.6781 130.118 48.6867L130.196 48.5708Z" fill="#A2A2A2"/>
<path d="M91.3642 226.407C91.6651 226.394 91.9542 226.285 92.1901 226.098C92.426 225.911 92.5967 225.654 92.6778 225.364C92.9482 224.321 96.2322 196.697 96.2322 196.697C96.2322 196.697 96.2323 196.233 95.5368 196.04H95.305C91.6586 194.935 87.9576 194.02 84.2169 193.297C78.4031 192.122 72.5175 191.334 66.5993 190.94H66.4061C65.4016 190.94 65.5562 191.751 65.5562 191.751C65.5562 191.751 60.9973 219.916 60.9201 220.457C60.8428 220.998 61.5381 221.268 61.5381 221.268C71.1842 224.176 81.1477 225.901 91.2098 226.407" fill="#D3D3D3"/>
<path d="M66.603 191.327H66.4099C66.3552 191.302 66.296 191.289 66.2361 191.289C66.1762 191.289 66.1169 191.302 66.0622 191.327C66.0622 191.327 61.5419 219.53 61.426 220.071C61.3101 220.612 61.7351 220.38 61.7351 220.38C71.3537 223.292 81.2922 225.018 91.3295 225.519C91.5267 225.508 91.7155 225.435 91.8684 225.31C92.0213 225.185 92.1303 225.014 92.1794 224.823C92.3726 224.012 94.4203 207.283 95.6952 196.233C95.6952 196.233 95.6951 196.233 95.3861 196.04H95.1156C91.6385 194.997 88.3159 194.186 84.1047 193.336C78.3149 192.173 72.4559 191.386 66.5645 190.979L66.603 191.327ZM91.3295 226.562C81.2122 226.071 71.1943 224.332 61.5033 221.385C61.2142 221.313 60.9593 221.142 60.7829 220.902C60.6065 220.662 60.5197 220.368 60.5374 220.071C60.5374 219.491 64.8645 193.22 65.1735 191.365C65.0992 191.126 65.0992 190.87 65.1735 190.631C65.3015 190.465 65.4653 190.331 65.6526 190.237C65.8399 190.143 66.0459 190.093 66.2553 190.09H66.4871C72.4447 190.475 78.3694 191.262 84.2206 192.447C87.9741 193.17 91.6878 194.086 95.3474 195.19H95.5792C95.8466 195.24 96.09 195.377 96.2716 195.58C96.4533 195.782 96.5629 196.039 96.5837 196.311C96.236 199.208 93.2998 224.05 93.0294 225.132C92.9065 225.515 92.6714 225.853 92.3545 226.101C92.0376 226.349 91.6536 226.496 91.2521 226.523L91.3295 226.562Z" fill="#A2A2A2"/>
<path d="M98.3626 212.808H94.4991L95.3878 207.669C95.3433 207.143 95.1433 206.641 94.8131 206.228C94.4829 205.815 94.0373 205.51 93.5332 205.351C91.7947 204.733 64.7116 200.251 64.7116 200.251L63.4753 199.981C62.6562 199.747 61.9235 199.278 61.3675 198.633C60.8114 197.988 60.4563 197.194 60.3458 196.349C60.1632 194.441 60.4007 192.515 61.0414 190.708H63.9775L63.398 195.924C63.398 195.924 63.398 196.929 64.6729 197.122C65.9479 197.315 93.0311 201.951 93.0311 201.951C94.7061 202.287 96.1946 203.238 97.2036 204.617C97.971 205.605 98.416 206.806 98.4785 208.056V212.808H98.3626Z" fill="#D3D3D3"/>
<path d="M98.3626 212.808H94.4991L95.3878 207.669C95.3433 207.143 95.1433 206.641 94.8131 206.228C94.4829 205.815 94.0373 205.51 93.5332 205.351C91.7947 204.733 64.7116 200.251 64.7116 200.251L63.4753 199.981C62.6562 199.747 61.9235 199.278 61.3675 198.633C60.8114 197.988 60.4563 197.194 60.3458 196.349C60.1632 194.441 60.4007 192.515 61.0414 190.708H63.9775L63.398 195.924C63.398 195.924 63.398 196.929 64.6729 197.122C65.9479 197.315 93.0311 201.951 93.0311 201.951C94.7061 202.287 96.1946 203.238 97.2036 204.617C97.971 205.605 98.416 206.806 98.4785 208.056V212.808H98.3626Z" fill="#434343"/>
<path d="M94.8078 212.615H98.0531C98.0531 212.615 98.0531 208.983 98.0531 208.288C97.9865 207.111 97.5694 205.981 96.8555 205.042C95.9206 203.758 94.545 202.864 92.992 202.531C92.7215 202.531 65.9475 197.856 64.6339 197.702C64.1278 197.66 63.6572 197.425 63.3204 197.045C63.1268 196.763 63.0443 196.419 63.0886 196.079L63.5907 191.288H61.3113C60.7851 192.974 60.5884 194.745 60.7318 196.504C60.8108 197.294 61.1314 198.041 61.6499 198.642C62.1684 199.244 62.8595 199.671 63.6294 199.865L64.8271 200.136C65.9088 200.136 91.8715 204.617 93.6874 205.236C94.2649 205.415 94.7739 205.767 95.1467 206.243C95.5194 206.719 95.7381 207.298 95.7737 207.901L94.8078 212.615ZM98.3622 213.349H94.4987C94.4576 213.373 94.411 213.385 94.3636 213.385C94.3161 213.385 94.2694 213.373 94.2283 213.349C94.2103 213.306 94.201 213.26 94.201 213.214C94.201 213.167 94.2103 213.121 94.2283 213.079L95.1555 207.979C95.0983 207.531 94.9156 207.108 94.6285 206.759C94.3414 206.411 93.9615 206.15 93.5328 206.008C92.1806 205.545 74.2154 202.493 64.7498 200.947L63.5135 200.638C62.6309 200.397 61.8384 199.903 61.234 199.216C60.6297 198.53 60.2401 197.681 60.1136 196.775C59.9269 194.815 60.1641 192.839 60.809 190.979C60.8386 190.911 60.8872 190.854 60.9488 190.812C61.0105 190.771 61.0827 190.749 61.1568 190.748H64.093C64.093 190.748 64.2862 190.748 64.3635 190.748C64.3854 190.849 64.3854 190.955 64.3635 191.057L63.784 196.272C63.7301 196.409 63.7301 196.561 63.784 196.697C64.0124 196.923 64.3137 197.06 64.6339 197.084C65.9475 197.084 91.9102 201.72 92.992 201.913C94.7747 202.237 96.3651 203.232 97.435 204.695C98.243 205.752 98.7021 207.035 98.7485 208.365V213.117C98.7485 213.209 98.7119 213.298 98.6467 213.363C98.5815 213.428 98.4931 213.465 98.4008 213.465" fill="#A2A2A2"/>
<path d="M59.1069 225.596C59.0427 225.596 58.979 225.583 58.9201 225.557C58.8611 225.532 58.8083 225.494 58.7647 225.447C58.7211 225.4 58.6877 225.344 58.6668 225.283C58.6459 225.222 58.6379 225.158 58.6432 225.094V119.505C58.6432 119.382 58.6921 119.264 58.779 119.177C58.866 119.09 58.984 119.041 59.1069 119.041C59.2299 119.041 59.3478 119.09 59.4347 119.177C59.5217 119.264 59.5705 119.382 59.5705 119.505V225.094C59.5759 225.158 59.5678 225.222 59.547 225.283C59.5261 225.344 59.4928 225.4 59.4492 225.447C59.4056 225.494 59.3526 225.532 59.2937 225.557C59.2348 225.583 59.1712 225.596 59.1069 225.596Z" fill="#A2A2A2"/>
<path d="M98.6701 212.885H102.611L103.963 220.535H98.6701H98.786H93.2998L94.3044 212.885H98.3997H98.6701Z" fill="#434343"/>
<path d="M98.7841 220.341H103.536L102.3 213.426H94.5729L93.6456 220.341H98.7841ZM103.961 221.037H93.2979C93.2551 221.055 93.2091 221.064 93.1626 221.064C93.1162 221.064 93.0703 221.055 93.0275 221.037C93.0038 220.996 92.9912 220.949 92.9912 220.901C92.9912 220.854 93.0038 220.807 93.0275 220.766L94.032 213.039C94.0028 212.962 94.0024 212.876 94.0308 212.798C94.0591 212.72 94.1143 212.655 94.1865 212.614H102.493C102.579 212.614 102.662 212.645 102.726 212.702C102.79 212.759 102.831 212.838 102.841 212.923L104.193 220.65C104.232 220.75 104.232 220.86 104.193 220.959C104.15 220.977 104.104 220.987 104.058 220.987C104.011 220.987 103.965 220.977 103.922 220.959" fill="#A2A2A2"/>
<path d="M99.984 177.34H133.403C133.997 177.335 134.586 177.447 135.136 177.67C135.686 177.892 136.188 178.221 136.611 178.637C137.034 179.053 137.371 179.549 137.603 180.095C137.835 180.642 137.957 181.229 137.962 181.822V189.549C137.946 189.818 137.838 190.073 137.654 190.271C137.471 190.468 137.225 190.595 136.958 190.631C128.868 190.572 120.797 191.401 112.888 193.104C108.519 193.969 104.199 195.065 99.9453 196.388H97.2023C92.9608 195.07 88.6536 193.974 84.2982 193.104C76.3764 191.403 68.2923 190.573 60.1901 190.631C59.92 190.603 59.6692 190.478 59.4844 190.279C59.2997 190.08 59.1935 189.821 59.1855 189.549V181.822C59.1906 181.229 59.3125 180.642 59.5443 180.095C59.7762 179.549 60.1134 179.053 60.5367 178.637C60.9601 178.221 61.4612 177.892 62.0116 177.67C62.562 177.447 63.1508 177.335 63.7444 177.34H100.061H99.984Z" fill="#434343"/>
<path d="M62.0445 190.245C69.5395 190.351 77.0061 191.192 84.337 192.756C88.7176 193.627 93.0504 194.723 97.3183 196.04H99.8295C103.886 194.804 108.252 193.683 112.734 192.795C120.695 191.094 128.816 190.252 136.958 190.284C137.383 190.284 137.46 189.82 137.499 189.704V181.977C137.439 180.932 136.982 179.949 136.22 179.23C135.458 178.511 134.45 178.112 133.403 178.114H63.8604C62.8132 178.112 61.8052 178.511 61.0435 179.23C60.2818 179.949 59.8244 180.932 59.7651 181.977V189.704C59.7651 189.704 59.7651 190.284 60.3446 190.284H62.2378L62.0445 190.245ZM98.9795 197.006H97.2024C93.1457 195.77 88.8186 194.649 84.337 193.761C76.4524 192.072 68.4079 191.243 60.3446 191.288C59.9446 191.269 59.5669 191.098 59.2873 190.812C59.0078 190.525 58.8472 190.143 58.8379 189.743V182.016C58.8481 180.69 59.3817 179.423 60.3225 178.489C61.2634 177.556 62.535 177.032 63.8604 177.032H133.403C134.729 177.032 136 177.556 136.941 178.489C137.882 179.423 138.416 180.69 138.426 182.016V189.743C138.418 190.131 138.268 190.502 138.005 190.787C137.741 191.072 137.383 191.25 136.996 191.288C128.907 191.239 120.837 192.068 112.927 193.761C108.445 194.649 104.118 195.77 100.061 197.006H98.7864H98.9795Z" fill="#A2A2A2"/>
<path d="M98.7067 212.808H102.57L101.682 207.669C101.726 207.143 101.926 206.641 102.256 206.228C102.586 205.816 103.032 205.51 103.536 205.351C106.743 204.192 132.358 200.252 132.358 200.252L133.594 199.981C134.413 199.747 135.146 199.279 135.702 198.633C136.258 197.988 136.613 197.194 136.723 196.349C136.916 194.492 136.678 192.614 136.028 190.863H133.092L133.671 195.963C133.671 195.963 133.671 196.968 132.435 197.161C131.199 197.354 104.038 201.99 104.038 201.99C102.363 202.326 100.875 203.277 99.8657 204.656C99.0984 205.644 98.6533 206.845 98.5908 208.094V212.847L98.7067 212.808Z" fill="#434343"/>
<path d="M99.0947 212.615H102.302L101.452 207.94C101.472 207.323 101.683 206.727 102.057 206.236C102.431 205.744 102.948 205.381 103.538 205.197C106.745 204.038 131.394 200.252 132.437 200.097L133.596 199.827C134.366 199.632 135.057 199.205 135.575 198.604C136.094 198.002 136.414 197.256 136.493 196.466C136.664 194.756 136.467 193.031 135.914 191.404H133.634L134.137 196.118C134.175 196.445 134.092 196.774 133.905 197.045C133.568 197.425 133.097 197.66 132.591 197.702C131.278 197.702 104.504 202.493 104.233 202.531C102.676 202.854 101.297 203.75 100.37 205.042C99.6312 205.97 99.1991 207.104 99.1334 208.288C99.1334 208.983 99.1334 212.615 99.1334 212.615H99.0947ZM102.726 213.349H98.8629C98.8141 213.354 98.7648 213.349 98.718 213.334C98.6713 213.319 98.6283 213.295 98.5918 213.262C98.5553 213.229 98.5261 213.189 98.5063 213.144C98.4864 213.099 98.4763 213.05 98.4766 213.001V208.249C98.5236 206.913 98.9975 205.626 99.8288 204.579C100.887 203.122 102.463 202.126 104.233 201.797C105.354 201.604 131.278 197.084 132.63 196.968C132.937 196.935 133.223 196.799 133.441 196.581C133.495 196.445 133.495 196.293 133.441 196.156L132.862 191.057C132.845 190.967 132.845 190.876 132.862 190.786C132.905 190.768 132.951 190.759 132.997 190.759C133.043 190.759 133.089 190.768 133.132 190.786H136.068C136.138 190.788 136.206 190.806 136.266 190.84C136.327 190.873 136.378 190.921 136.416 190.979C137.067 192.797 137.305 194.737 137.111 196.659C136.985 197.565 136.595 198.414 135.991 199.1C135.387 199.787 134.594 200.281 133.712 200.522L132.475 200.831C132.205 200.831 106.822 204.695 103.692 205.892C103.25 206.036 102.86 206.306 102.571 206.671C102.283 207.035 102.108 207.477 102.07 207.94L102.997 212.963C103.02 213.051 103.02 213.144 102.997 213.233C102.954 213.251 102.908 213.26 102.862 213.26C102.815 213.26 102.769 213.251 102.726 213.233" fill="#A2A2A2"/>
<path d="M137.961 225.596C137.897 225.596 137.833 225.583 137.775 225.557C137.716 225.532 137.663 225.494 137.619 225.447C137.575 225.4 137.542 225.344 137.521 225.283C137.5 225.222 137.492 225.158 137.498 225.094V119.505C137.498 119.382 137.547 119.264 137.634 119.177C137.72 119.09 137.838 119.041 137.961 119.041C138.084 119.041 138.202 119.09 138.289 119.177C138.376 119.264 138.425 119.382 138.425 119.505V225.094C138.43 225.158 138.422 225.222 138.401 225.283C138.381 225.344 138.347 225.4 138.304 225.447C138.26 225.494 138.207 225.532 138.148 225.557C138.089 225.583 138.026 225.596 137.961 225.596Z" fill="#A2A2A2"/>
<path d="M101.604 235.409L104.811 238.461H133.401C133.999 238.461 134.592 238.343 135.145 238.114C135.698 237.885 136.201 237.549 136.624 237.126C137.048 236.702 137.383 236.2 137.612 235.647C137.842 235.093 137.959 234.501 137.959 233.902V222.041C137.959 222.041 137.728 220.534 136.491 220.959C125.212 224.411 113.512 226.296 101.72 226.561H95.4997C83.7059 226.312 72.0038 224.426 60.7283 220.959C59.492 220.534 59.2988 222.041 59.2988 222.041V233.902C59.2988 234.501 59.4167 235.093 59.6458 235.647C59.8749 236.2 60.2108 236.702 60.6341 237.126C61.0574 237.549 61.56 237.885 62.1131 238.114C62.6662 238.343 63.259 238.461 63.8577 238.461H92.3703L95.577 235.409H101.797H101.604Z" fill="#434343"/>
<path d="M105.004 237.997H133.401C134.448 237.999 135.456 237.599 136.218 236.881C136.98 236.162 137.437 235.179 137.496 234.134V222.273C137.487 222.145 137.451 222.021 137.391 221.908C137.331 221.795 137.249 221.696 137.149 221.616C137.149 221.616 137.149 221.616 136.685 221.616C125.405 225.062 113.706 226.947 101.914 227.218C101.871 227.236 101.825 227.245 101.778 227.245C101.732 227.245 101.686 227.236 101.643 227.218H95.8095C95.7732 227.235 95.7336 227.244 95.6936 227.244C95.6535 227.244 95.6138 227.235 95.5775 227.218C83.7816 226.959 72.0791 225.06 60.8061 221.577C60.3811 221.577 60.2653 221.577 60.2266 221.577C60.1265 221.657 60.0439 221.756 59.9841 221.869C59.9243 221.982 59.8885 222.107 59.8789 222.234V234.095C59.9382 235.141 60.3957 236.124 61.1574 236.842C61.919 237.561 62.9271 237.96 63.9742 237.959H92.2937L95.3457 235.022C95.4585 234.984 95.5808 234.984 95.6936 235.022H101.914C101.989 235.021 102.063 235.037 102.131 235.071C102.198 235.105 102.256 235.154 102.3 235.215L105.004 237.997ZM133.401 238.924H104.811C104.698 238.958 104.577 238.958 104.464 238.924L101.411 235.988H95.5775L92.4868 238.924C92.3874 238.963 92.2771 238.963 92.1778 238.924H63.6652C62.3398 238.924 61.068 238.401 60.1272 237.467C59.1864 236.533 58.6528 235.266 58.6426 233.941V221.964C58.7296 221.426 59.0201 220.941 59.454 220.611C59.6528 220.516 59.8706 220.466 60.0914 220.466C60.3121 220.466 60.5301 220.516 60.7289 220.611C72.0006 224.1 83.7039 225.998 95.5003 226.252H101.682C113.476 226.002 125.178 224.117 136.453 220.65C136.645 220.555 136.857 220.505 137.072 220.505C137.286 220.505 137.498 220.555 137.69 220.65C138.124 220.98 138.414 221.464 138.501 222.002V233.979C138.491 235.304 137.957 236.572 137.016 237.506C136.076 238.439 134.804 238.963 133.478 238.963" fill="#A2A2A2"/>
<path d="M105.778 226.407C105.482 226.391 105.199 226.282 104.969 226.094C104.74 225.907 104.577 225.651 104.503 225.364C104.503 225.016 100.446 196.697 100.446 196.697C100.462 196.524 100.535 196.361 100.654 196.235C100.773 196.109 100.931 196.026 101.103 196.001H101.335C104.967 194.919 108.598 194.147 112.925 193.297C118.672 192.106 124.494 191.319 130.35 190.94H130.582C130.831 190.941 131.072 191.025 131.268 191.179C131.464 191.333 131.603 191.548 131.663 191.79C131.663 191.79 136.222 219.955 136.299 220.496C136.377 221.037 135.72 221.307 135.72 221.307C126.101 224.216 116.163 225.942 106.126 226.445" fill="#D3D3D3"/>
<path d="M130.236 191.327C124.422 191.732 118.64 192.52 112.928 193.683C108.485 194.572 105.201 195.345 101.569 196.388H101.338C101.029 196.388 100.99 196.619 100.99 196.619C102.342 206.201 104.853 224.591 105.047 225.171C105.096 225.362 105.205 225.533 105.357 225.658C105.51 225.783 105.699 225.856 105.896 225.866C115.896 225.366 125.796 223.64 135.375 220.728C135.375 220.728 135.761 220.728 135.723 220.419C135.684 220.11 131.125 191.983 131.086 191.674C131.048 191.365 131.086 191.326 130.391 191.288L130.236 191.327ZM105.781 226.909C105.383 226.885 105.002 226.739 104.691 226.489C104.38 226.24 104.153 225.901 104.042 225.518C104.042 225.132 100.913 203.381 99.9854 196.735C99.9961 196.453 100.101 196.181 100.282 195.965C100.464 195.748 100.713 195.598 100.99 195.538H101.222C104.737 194.495 108.215 193.722 112.812 192.833C118.585 191.648 124.433 190.86 130.314 190.477H130.584C130.942 190.483 131.288 190.608 131.567 190.832C131.847 191.055 132.044 191.365 132.13 191.713C132.323 192.833 136.688 219.878 136.766 220.457C136.781 220.743 136.702 221.026 136.542 221.263C136.382 221.5 136.148 221.679 135.877 221.771C126.196 224.701 116.192 226.44 106.09 226.948" fill="#A2A2A2"/>
<path d="M101.916 208.21C101.805 208.212 101.698 208.174 101.613 208.103C101.528 208.032 101.471 207.933 101.452 207.824L100.68 203.69C100.68 203.567 100.729 203.449 100.816 203.362C100.902 203.275 101.02 203.227 101.143 203.227C101.266 203.227 101.384 203.275 101.471 203.362C101.558 203.449 101.607 203.567 101.607 203.69L102.38 207.824C102.391 207.885 102.39 207.948 102.376 208.008C102.362 208.069 102.337 208.126 102.301 208.176C102.265 208.227 102.219 208.269 102.166 208.302C102.113 208.334 102.055 208.356 101.993 208.365" fill="#A2A2A2"/>
<path d="M105.778 226.446C105.481 226.417 105.199 226.298 104.971 226.104C104.744 225.911 104.58 225.653 104.503 225.364C104.503 225.016 100.446 196.697 100.446 196.697C100.446 196.697 100.446 196.233 101.103 196.002H101.335C104.967 194.92 108.598 194.147 112.925 193.297C118.675 192.126 124.496 191.338 130.35 190.94H130.582C130.827 190.933 131.068 191.009 131.265 191.156C131.461 191.304 131.602 191.514 131.663 191.752C131.663 191.752 136.222 219.917 136.299 220.496C136.377 221.076 135.72 221.269 135.72 221.269C126.101 224.178 116.163 225.904 106.126 226.407" fill="#D3D3D3"/>
<path d="M130.236 191.365C124.42 191.738 118.637 192.513 112.928 193.683C109.065 194.417 105.201 195.267 101.569 196.388H101.338C101.201 196.427 101.079 196.508 100.99 196.619C102.342 206.201 104.853 224.591 105.047 225.209C105.102 225.393 105.214 225.556 105.367 225.673C105.519 225.791 105.704 225.858 105.896 225.866C115.896 225.37 125.797 223.644 135.375 220.728C135.375 220.728 135.761 220.728 135.723 220.419C135.684 220.11 131.125 191.983 131.086 191.713C131.048 191.442 131.086 191.326 130.391 191.288L130.236 191.365ZM105.781 226.909C105.381 226.891 104.998 226.746 104.685 226.496C104.373 226.247 104.148 225.904 104.042 225.518C104.042 225.132 100.913 203.419 99.9854 196.735C99.9979 196.457 100.104 196.192 100.286 195.981C100.468 195.771 100.716 195.628 100.99 195.576H101.222C105.085 194.417 108.949 193.567 112.812 192.833C118.588 191.667 124.435 190.88 130.314 190.477H130.584C130.94 190.49 131.283 190.617 131.561 190.839C131.839 191.062 132.039 191.368 132.13 191.713C132.323 192.872 136.688 219.878 136.766 220.457C136.788 220.744 136.712 221.03 136.551 221.269C136.389 221.508 136.152 221.684 135.877 221.771C126.194 224.703 116.193 226.454 106.09 226.987" fill="#A2A2A2"/>
<path d="M59.1851 272.19C59.1465 272.195 59.1071 272.192 59.0697 272.181C59.0323 272.17 58.9978 272.151 58.9684 272.125C58.9391 272.1 58.9156 272.068 58.8997 272.032C58.8838 271.997 58.8756 271.958 58.876 271.919V239.968C58.8756 239.929 58.8838 239.89 58.8997 239.855C58.9156 239.819 58.9391 239.787 58.9684 239.762C58.9978 239.736 59.0323 239.717 59.0697 239.706C59.1071 239.695 59.1465 239.692 59.1851 239.698C59.2569 239.698 59.3257 239.726 59.3764 239.777C59.4271 239.828 59.4556 239.896 59.4556 239.968V271.919C59.4556 271.991 59.4271 272.06 59.3764 272.11C59.3257 272.161 59.2569 272.19 59.1851 272.19Z" fill="#A2A2A2"/>
<path d="M137.844 272.189C137.768 272.19 137.695 272.163 137.638 272.113C137.581 272.063 137.545 271.994 137.535 271.919V239.968C137.535 239.886 137.568 239.807 137.626 239.749C137.684 239.691 137.762 239.659 137.844 239.659C137.926 239.659 138.005 239.691 138.063 239.749C138.121 239.807 138.153 239.886 138.153 239.968V271.919C138.144 271.994 138.107 272.063 138.05 272.113C137.993 272.163 137.92 272.19 137.844 272.189Z" fill="#A2A2A2"/>
<path d="M5.32917 115.757V122.982H6.41094C6.78918 123.009 7.16855 122.947 7.51782 122.799C7.86709 122.651 8.17623 122.423 8.41991 122.132C8.9059 121.484 9.17624 120.701 9.19265 119.891V119.312C9.26989 118.424 9.0378 117.537 8.53581 116.8C8.29213 116.51 7.98299 116.281 7.63372 116.133C7.28445 115.986 6.90508 115.923 6.52684 115.95L5.32917 115.757ZM3.12695 124.798V113.941H6.44961C7.34286 113.93 8.22309 114.156 8.99952 114.598C9.75469 115.019 10.3719 115.65 10.7767 116.414C11.2031 117.251 11.4155 118.18 11.3949 119.118V119.621C11.4155 120.559 11.2031 121.489 10.7767 122.325C10.3755 123.079 9.77378 123.707 9.03808 124.141C8.25827 124.574 7.38031 124.8 6.48816 124.798H3.12695Z" fill="#A2A2A2"/>
<path d="M96.5065 269.446V272.383H98.3996C98.8434 272.397 99.2791 272.261 99.6359 271.996C99.7869 271.871 99.9046 271.71 99.9787 271.528C100.053 271.346 100.081 271.149 100.061 270.953C100.087 270.746 100.065 270.535 99.996 270.337C99.927 270.14 99.8132 269.961 99.6634 269.815C99.5136 269.669 99.332 269.56 99.1328 269.496C98.9336 269.432 98.7223 269.415 98.5155 269.446H96.5065ZM96.5065 267.862H98.0519C99.1723 267.862 99.7518 267.399 99.7518 266.51C99.7687 266.315 99.7389 266.119 99.665 265.937C99.5912 265.756 99.4752 265.595 99.3268 265.467C98.9233 265.216 98.4473 265.107 97.9746 265.158H96.4292L96.5065 267.862ZM94.2656 274.16V263.342H98.1291C99.1737 263.263 100.216 263.52 101.104 264.076C101.486 264.342 101.789 264.707 101.981 265.131C102.174 265.555 102.248 266.023 102.197 266.486C102.145 266.948 101.97 267.389 101.689 267.76C101.409 268.132 101.033 268.421 100.602 268.597C101.125 268.719 101.589 269.019 101.915 269.446C102.236 269.897 102.399 270.44 102.379 270.992C102.413 271.436 102.339 271.883 102.164 272.293C101.989 272.703 101.718 273.065 101.374 273.349C100.559 273.942 99.5604 274.23 98.5541 274.16H94.2656Z" fill="#A2A2A2"/>
<path d="M5.57088 256.748H2.79775V258.626H6.05232V259.786H1.35342V252.776H6.0427V253.946H2.79775V255.617H5.57088V256.748Z" fill="#A2A2A2"/>
</svg>
