<svg width="211" height="299" viewBox="0 0 211 299" fill="none" xmlns="http://www.w3.org/2000/svg">
<path d="M206.784 181.161C206.709 181.151 206.64 181.115 206.59 181.058C206.54 181.001 206.513 180.928 206.514 180.852V132.79C206.513 132.714 206.54 132.641 206.59 132.584C206.64 132.527 206.709 132.49 206.784 132.481C206.866 132.481 206.945 132.514 207.003 132.571C207.061 132.629 207.093 132.708 207.093 132.79V180.852C207.093 180.934 207.061 181.012 207.003 181.07C206.945 181.128 206.866 181.161 206.784 181.161Z" fill="#A2A2A2"/>
<path d="M206.784 109.803C206.709 109.793 206.64 109.756 206.59 109.699C206.54 109.642 206.513 109.569 206.514 109.493V60.1953C206.513 60.1196 206.54 60.0463 206.59 59.9894C206.64 59.9324 206.709 59.8957 206.784 59.8862C206.866 59.8862 206.945 59.9188 207.003 59.9768C207.061 60.0347 207.093 60.1133 207.093 60.1953V109.493C207.093 109.575 207.061 109.654 207.003 109.712C206.945 109.77 206.866 109.803 206.784 109.803Z" fill="#A2A2A2"/>
<path d="M205.314 63.0158H208.328L206.821 52.314L205.314 63.0158Z" fill="#A2A2A2"/>
<path d="M205.314 178.92L206.821 189.622L208.328 178.92H205.314Z" fill="#A2A2A2"/>
<path d="M210.377 52.6228H179.237C179.165 52.6228 179.097 52.5943 179.046 52.5436C178.995 52.4929 178.967 52.4241 178.967 52.3524C178.961 52.3138 178.964 52.2744 178.975 52.237C178.986 52.1996 179.005 52.165 179.031 52.1357C179.056 52.1063 179.088 52.0828 179.124 52.0669C179.159 52.0509 179.198 52.0429 179.237 52.0433H210.377C210.419 52.0367 210.462 52.0401 210.503 52.0533C210.543 52.0665 210.58 52.0891 210.61 52.1192C210.64 52.1494 210.663 52.1862 210.676 52.2267C210.689 52.2672 210.693 52.3103 210.686 52.3524C210.686 52.3914 210.678 52.43 210.662 52.4656C210.646 52.5013 210.623 52.533 210.594 52.5587C210.564 52.5844 210.53 52.6034 210.492 52.6145C210.455 52.6256 210.416 52.6284 210.377 52.6228Z" fill="#A2A2A2"/>
<path d="M210.264 190.433H179.124C179.052 190.433 178.983 190.405 178.933 190.354C178.882 190.303 178.853 190.235 178.853 190.163C178.848 190.124 178.851 190.085 178.862 190.048C178.873 190.01 178.892 189.976 178.917 189.946C178.943 189.917 178.975 189.893 179.011 189.877C179.046 189.861 179.085 189.853 179.124 189.854H210.264C210.306 189.847 210.349 189.851 210.389 189.864C210.43 189.877 210.467 189.9 210.497 189.93C210.527 189.96 210.549 189.997 210.563 190.037C210.576 190.078 210.579 190.121 210.573 190.163C210.573 190.202 210.565 190.241 210.549 190.276C210.533 190.312 210.51 190.344 210.48 190.369C210.451 190.395 210.416 190.414 210.379 190.425C210.342 190.436 210.302 190.439 210.264 190.433Z" fill="#A2A2A2"/>
<path d="M129.552 269.365H99.9965C99.9559 269.365 99.9158 269.357 99.8783 269.341C99.8408 269.326 99.8068 269.303 99.7781 269.274C99.7493 269.245 99.7265 269.211 99.711 269.174C99.6954 269.136 99.6875 269.096 99.6875 269.056C99.6875 269.015 99.6954 268.975 99.711 268.937C99.7265 268.9 99.7493 268.866 99.7781 268.837C99.8068 268.808 99.8408 268.786 99.8783 268.77C99.9158 268.755 99.9559 268.747 99.9965 268.747H129.552C129.634 268.747 129.713 268.779 129.771 268.837C129.829 268.895 129.861 268.974 129.861 269.056C129.861 269.138 129.829 269.216 129.771 269.274C129.713 269.332 129.634 269.365 129.552 269.365Z" fill="#A2A2A2"/>
<path d="M169.076 269.365H146.668C146.586 269.365 146.507 269.332 146.449 269.274C146.391 269.216 146.358 269.138 146.358 269.056C146.358 268.974 146.391 268.895 146.449 268.837C146.507 268.779 146.586 268.747 146.668 268.747H169.076C169.158 268.747 169.236 268.779 169.294 268.837C169.352 268.895 169.385 268.974 169.385 269.056C169.385 269.138 169.352 269.216 169.294 269.274C169.236 269.332 169.158 269.365 169.076 269.365Z" fill="#A2A2A2"/>
<path d="M97.9512 269.055L108.615 270.755V267.355L97.9512 269.055Z" fill="#A2A2A2"/>
<path d="M165.947 270.755L176.649 269.055L165.947 267.355V270.755Z" fill="#A2A2A2"/>
<path d="M96.1331 240.659H38.9148C38.8758 240.659 38.8371 240.651 38.8015 240.636C38.7659 240.62 38.7342 240.596 38.7085 240.567C38.6828 240.537 38.6638 240.503 38.6527 240.465C38.6417 240.428 38.6388 240.389 38.6444 240.35C38.6444 240.278 38.6729 240.209 38.7236 240.159C38.7743 240.108 38.8431 240.08 38.9148 240.08H96.1331C96.2049 240.08 96.2737 240.108 96.3244 240.159C96.3751 240.209 96.4036 240.278 96.4036 240.35C96.4092 240.389 96.4063 240.428 96.3952 240.465C96.3842 240.503 96.3652 240.537 96.3395 240.567C96.3138 240.596 96.282 240.62 96.2464 240.636C96.2108 240.651 96.1721 240.659 96.1331 240.659Z" fill="#A2A2A2"/>
<path d="M96.2105 2.12674H38.9148C38.8431 2.12674 38.7743 2.09823 38.7236 2.04751C38.6729 1.99679 38.6444 1.92803 38.6444 1.8563C38.6388 1.81769 38.6417 1.77831 38.6527 1.7409C38.6638 1.70349 38.6828 1.66892 38.7085 1.63956C38.7342 1.6102 38.7659 1.58673 38.8015 1.5708C38.8371 1.55486 38.8758 1.54681 38.9148 1.54721H96.2105C96.2526 1.54061 96.2956 1.54404 96.3361 1.55724C96.3766 1.57043 96.4135 1.59302 96.4436 1.62314C96.4738 1.65327 96.4963 1.6901 96.5095 1.73061C96.5227 1.77113 96.5262 1.81421 96.5196 1.8563C96.52 1.89531 96.5119 1.93394 96.496 1.96955C96.48 2.00516 96.4566 2.03691 96.4272 2.0626C96.3979 2.0883 96.3633 2.10733 96.3258 2.1184C96.2884 2.12947 96.2491 2.13232 96.2105 2.12674Z" fill="#A2A2A2"/>
<path d="M43.2432 234.052C43.1681 234.043 43.0991 234.006 43.0492 233.949C42.9993 233.892 42.9721 233.819 42.9727 233.743V132.79C42.9727 132.719 43.0012 132.65 43.0519 132.599C43.1026 132.548 43.1714 132.52 43.2432 132.52C43.2818 132.514 43.3212 132.517 43.3586 132.528C43.396 132.539 43.4305 132.558 43.4599 132.584C43.4893 132.61 43.5128 132.641 43.5288 132.677C43.5447 132.713 43.5528 132.751 43.5524 132.79V233.743C43.5524 233.825 43.5198 233.904 43.4618 233.962C43.4038 234.02 43.3252 234.052 43.2432 234.052Z" fill="#A2A2A2"/>
<path d="M43.2431 110.15C43.168 110.14 43.099 110.104 43.0492 110.047C42.9993 109.99 42.9721 109.917 42.9727 109.841V8.15381C42.9721 8.07811 42.9993 8.00483 43.0492 7.94786C43.099 7.89089 43.168 7.85419 43.2431 7.84473C43.3251 7.84473 43.4038 7.87728 43.4618 7.93525C43.5197 7.99321 43.5523 8.07184 43.5523 8.15381V109.841C43.5523 109.923 43.5197 110.001 43.4618 110.059C43.4038 110.117 43.3251 110.15 43.2431 110.15Z" fill="#A2A2A2"/>
<path d="M41.583 229.647L43.283 240.349L44.983 229.647H41.583Z" fill="#A2A2A2"/>
<path d="M41.583 12.5197H44.983L43.283 1.81787L41.583 12.5197Z" fill="#A2A2A2"/>
<path d="M177.071 274.851C176.992 274.842 176.918 274.807 176.862 274.751C176.805 274.695 176.77 274.621 176.762 274.542V241.818C176.762 241.777 176.77 241.737 176.785 241.7C176.801 241.662 176.824 241.628 176.852 241.599C176.881 241.571 176.915 241.548 176.953 241.532C176.99 241.517 177.03 241.509 177.071 241.509C177.11 241.508 177.148 241.516 177.184 241.532C177.22 241.548 177.252 241.572 177.277 241.601C177.303 241.63 177.322 241.665 177.333 241.702C177.344 241.74 177.347 241.779 177.341 241.818V274.542C177.342 274.617 177.315 274.691 177.265 274.748C177.215 274.805 177.146 274.841 177.071 274.851Z" fill="#A2A2A2"/>
<path d="M97.872 274.851C97.8314 274.851 97.7912 274.843 97.7537 274.828C97.7162 274.812 97.6821 274.789 97.6534 274.76C97.6247 274.732 97.602 274.698 97.5864 274.66C97.5709 274.623 97.5628 274.583 97.5628 274.542V241.818C97.5562 241.776 97.5597 241.733 97.5729 241.693C97.5861 241.652 97.6086 241.615 97.6388 241.585C97.6689 241.555 97.7058 241.532 97.7463 241.519C97.7868 241.506 97.8299 241.503 97.872 241.509C97.911 241.509 97.9496 241.517 97.9852 241.533C98.0208 241.549 98.0527 241.572 98.0784 241.601C98.104 241.631 98.1231 241.665 98.1341 241.703C98.1452 241.74 98.1481 241.78 98.1425 241.818V274.542C98.1431 274.618 98.1158 274.691 98.066 274.748C98.0161 274.805 97.9471 274.842 97.872 274.851Z" fill="#A2A2A2"/>
<path d="M100.307 17.6966C109.083 13.8599 118.427 11.4847 127.97 10.665H128.511C130.211 10.665 130.404 11.6696 130.404 11.6696C130.404 11.6696 134.963 30.3302 135.156 31.412C135.237 31.6539 135.227 31.9172 135.128 32.1522C135.028 32.3871 134.845 32.5774 134.615 32.6869C129.765 34.6653 124.765 36.2543 119.663 37.439C115.163 38.526 110.593 39.3005 105.986 39.7571C105.059 39.7571 104.789 38.714 104.789 38.714C104.789 38.714 100.578 21.4828 100.191 19.7056C99.8049 17.9284 100.191 17.7739 100.191 17.7352L100.307 17.6966Z" fill="#D3D3D3"/>
<path d="M100.498 18.1222C100.498 18.1222 100.266 18.3926 100.498 19.5517C100.73 20.7107 105.057 38.3669 105.095 38.56C105.134 38.7532 105.096 39.2168 105.868 39.2555C110.463 38.8027 115.02 38.028 119.506 36.9374C124.559 35.7874 129.508 34.2238 134.303 32.2625C134.303 32.2625 134.69 32.0307 134.574 31.4899C134.458 30.949 129.899 12.1724 129.822 11.7861C129.745 11.3997 129.629 11.0906 128.392 11.1292H127.89C118.403 11.9566 109.113 14.3183 100.382 18.1222H100.498ZM105.598 40.26C105.21 40.2315 104.841 40.082 104.543 39.8324C104.245 39.5828 104.033 39.2458 103.936 38.8691C103.936 38.8691 99.7253 21.5993 99.3389 19.8221C98.9526 18.0449 99.3388 17.5426 99.8411 17.3495C108.66 13.4751 118.059 11.0862 127.658 10.2793H128.199C130.247 10.2793 130.595 11.5929 130.595 11.6702C130.788 12.4042 135.153 30.3308 135.347 31.4126C135.437 31.7569 135.405 32.1218 135.257 32.4456C135.11 32.7694 134.855 33.0323 134.535 33.1898C129.656 35.2058 124.616 36.8084 119.468 37.9805C114.942 39.0684 110.346 39.8429 105.714 40.2986" fill="#A2A2A2"/>
<path d="M134.809 10.2403V4.21324L132.452 1.93377H102.317C101.742 1.92861 101.172 2.03801 100.64 2.25559C100.108 2.47316 99.625 2.79455 99.2186 3.20097C98.8122 3.6074 98.4908 4.09072 98.2732 4.62272C98.0557 5.15473 97.9462 5.72475 97.9513 6.2995V16.5764C97.9513 16.5764 98.1446 18.4309 100.192 17.6968C111.04 12.8946 122.753 10.3573 134.616 10.2403H134.809Z" fill="#434343"/>
<path d="M98.4122 16.5768C98.4595 16.8651 98.6107 17.1262 98.8372 17.3109C99.2211 17.4676 99.651 17.4676 100.035 17.3109C110.82 12.4504 122.477 9.82198 134.304 9.58389V4.4068L132.256 2.3978H102.314C101.29 2.3978 100.307 2.80484 99.5824 3.52939C98.8578 4.25393 98.4508 5.23663 98.4508 6.26129L98.4122 16.5768ZM99.3008 18.3926C98.9612 18.3856 98.6288 18.2926 98.3349 18.1222C97.8618 17.7645 97.5438 17.2391 97.4463 16.6541V6.29991C97.4564 5.01196 97.9726 3.77963 98.8833 2.86889C99.7941 1.95814 101.026 1.44203 102.314 1.43193H132.411C132.523 1.39053 132.646 1.39053 132.759 1.43193L135.115 3.71137C135.16 3.82289 135.16 3.94759 135.115 4.0591V10.0861C135.115 10.2091 135.067 10.327 134.98 10.414C134.893 10.5009 134.775 10.5498 134.652 10.5498C122.844 10.6723 111.184 13.1961 100.383 17.9677C100.041 18.1146 99.6731 18.1934 99.3008 18.1995" fill="#A2A2A2"/>
<path d="M145.125 18.1216H132.491H131.139L114.256 20.1306C114.256 20.1306 113.715 20.1306 113.715 20.5942V27.1235C113.715 27.1235 113.715 27.4712 114.372 27.4712H134.5V27.7417H142.227L145.125 18.1216Z" fill="#D3D3D3"/>
<path d="M145.125 18.1216H132.491H131.139L114.256 20.1306C114.256 20.1306 113.715 20.1306 113.715 20.5942V27.1235C113.715 27.1235 113.715 27.4712 114.372 27.4712H134.5V27.7417H142.227L145.125 18.1216Z" fill="#434343"/>
<path d="M134.843 27.4716H142.029L144.463 18.4697H132.332H131.018C129.975 18.4697 114.328 20.4401 114.174 20.4401C114.019 20.4401 113.942 20.4401 113.942 20.4401V26.8921C113.942 26.8921 113.942 26.8921 114.212 26.8921H134.341C134.39 26.8708 134.442 26.8599 134.496 26.8599C134.549 26.8599 134.601 26.8708 134.65 26.8921L134.843 27.4716ZM142.57 28.1671H134.843C134.795 28.1909 134.742 28.2033 134.689 28.2033C134.635 28.2033 134.582 28.1909 134.534 28.1671H114.637C114.423 28.1743 114.211 28.1152 114.031 27.9976C113.851 27.8801 113.712 27.7099 113.633 27.5103V20.6719C113.652 20.4499 113.754 20.2432 113.919 20.0929C114.084 19.9427 114.299 19.8597 114.521 19.8606L131.366 17.8516H132.757H145.391C145.479 17.8268 145.573 17.8268 145.661 17.8516C145.688 17.8985 145.703 17.9518 145.703 18.0061C145.703 18.0604 145.688 18.1137 145.661 18.1606L143.034 27.858C143.01 27.9331 142.965 27.9993 142.902 28.0476C142.84 28.096 142.765 28.1241 142.686 28.1284" fill="#A2A2A2"/>
<path d="M97.9485 121.934C97.8153 121.934 97.6876 121.881 97.5934 121.787C97.4992 121.693 97.4463 121.565 97.4463 121.432V11.554C97.4463 11.4208 97.4992 11.2931 97.5934 11.1989C97.6876 11.1047 97.8153 11.0518 97.9485 11.0518C98.0128 11.0515 98.0765 11.0647 98.1354 11.0903C98.1943 11.116 98.2472 11.1537 98.2908 11.2009C98.3344 11.2481 98.3677 11.3039 98.3886 11.3647C98.4095 11.4255 98.4174 11.49 98.4121 11.554V121.432C98.4174 121.496 98.4095 121.56 98.3886 121.621C98.3677 121.682 98.3344 121.738 98.2908 121.785C98.2472 121.832 98.1943 121.87 98.1354 121.895C98.0765 121.921 98.0128 121.934 97.9485 121.934Z" fill="#A2A2A2"/>
<path d="M140.525 10.2401V4.21307L142.882 1.93359H172.94C174.098 1.93359 175.208 2.39356 176.027 3.2123C176.846 4.03103 177.306 5.14146 177.306 6.29933V16.5762C177.306 16.5762 177.113 18.4307 175.026 17.6966C164.203 12.9026 152.517 10.3654 140.68 10.2401H140.525Z" fill="#434343"/>
<path d="M140.99 9.77666C152.761 9.96462 164.375 12.5134 175.143 17.2718C175.338 17.3593 175.548 17.4045 175.762 17.4045C175.975 17.4045 176.185 17.3593 176.38 17.2718C176.607 17.1043 176.759 16.8548 176.805 16.5764V6.29952C176.805 5.27486 176.398 4.29219 175.673 3.56764C174.948 2.8431 173.966 2.43603 172.941 2.43603H143.076L140.99 4.44506V9.77666ZM175.762 18.3923C175.415 18.4394 175.064 18.4394 174.718 18.3923C163.967 13.633 152.361 11.1092 140.604 10.9744C140.473 10.9757 140.346 10.9294 140.246 10.8442C140.147 10.7589 140.082 10.6404 140.063 10.5107V4.21326C140.025 4.10051 140.025 3.97828 140.063 3.86553L142.458 1.58609C142.558 1.55073 142.667 1.55073 142.767 1.58609H172.941C174.226 1.59628 175.454 2.11364 176.358 3.02546C177.263 3.93729 177.771 5.16965 177.771 6.45406V16.5764C177.743 16.883 177.65 17.18 177.496 17.4468C177.343 17.7136 177.133 17.944 176.882 18.1218C176.588 18.2922 176.256 18.3852 175.916 18.3923" fill="#A2A2A2"/>
<path d="M172.942 52.3529C174.097 52.3428 175.202 51.8796 176.018 51.0631C176.835 50.2465 177.298 49.1419 177.308 47.9872V38.2512C177.308 36.6672 176.111 36.7831 176.111 36.7831H171.243C171.009 37.3352 170.815 37.9033 170.663 38.483C170.972 38.7148 169.543 39.7966 169.543 39.7966C164.936 39.3374 160.366 38.5629 155.866 37.4785C150.588 36.2556 145.419 34.6016 140.412 32.5332C140.412 32.5332 140.412 32.5332 139.91 32.5332H135.698C135.273 32.5332 135.196 32.5332 135.196 32.5332C125.772 36.3573 115.842 38.791 105.718 39.7579L104.79 39.4875L103.979 36.7444H99.1112C99.1112 36.7444 97.9135 36.7444 97.9521 38.2125V45.4759C97.9419 46.0594 98.0466 46.6392 98.2605 47.1821C98.4744 47.7251 98.7932 48.2206 99.1986 48.6404C99.604 49.0602 100.088 49.396 100.623 49.6286C101.159 49.8612 101.734 49.9861 102.318 49.9962L172.942 52.3529Z" fill="#434343"/>
<path d="M99.0684 37.246C98.9293 37.2082 98.7825 37.2082 98.6434 37.246C98.4644 37.4912 98.3819 37.7938 98.4116 38.096V45.3593C98.4116 46.384 98.8187 47.3667 99.5432 48.0912C100.268 48.8158 101.25 49.2228 102.275 49.2228L172.9 51.5409C173.924 51.5409 174.907 51.1339 175.632 50.4093C176.356 49.6848 176.763 48.7021 176.763 47.6774V38.2505C176.789 37.9486 176.707 37.6473 176.531 37.4005C176.393 37.3562 176.245 37.3562 176.106 37.4005H171.509C171.509 37.8641 171.161 38.3278 171.084 38.5596C171.084 38.5596 171.084 39.1391 169.732 40.1822C169.671 40.21 169.605 40.2244 169.538 40.2244C169.472 40.2244 169.406 40.21 169.345 40.1822C159.32 39.1973 149.493 36.7503 140.176 32.9189H135.656C130.655 35.0145 125.485 36.6817 120.202 37.9028C115.636 38.9969 111.003 39.7843 106.332 40.2595H106.139L105.25 39.9504C105.175 39.9318 105.107 39.8931 105.053 39.8387C104.998 39.7842 104.96 39.716 104.941 39.6414L104.207 37.246H99.6479H99.0684ZM173.518 52.6999L102.893 50.3819C101.595 50.3515 100.361 49.8118 99.4575 48.8793C98.554 47.9468 98.0534 46.6964 98.0639 45.398V38.2505C98.043 37.9663 98.084 37.681 98.184 37.4142C98.2841 37.1474 98.4408 36.9055 98.6434 36.7051C98.7989 36.5633 98.9825 36.4557 99.1821 36.3892C99.3817 36.3226 99.5931 36.2986 99.8025 36.3188H104.593C104.695 36.3058 104.798 36.3299 104.883 36.3867C104.968 36.4435 105.03 36.5291 105.057 36.6278L105.791 39.1391H106.37C110.964 38.6768 115.52 37.9023 120.008 36.821C125.292 35.634 130.462 33.9923 135.462 31.9144C135.562 31.8132 135.683 31.7362 135.817 31.6893C135.951 31.6424 136.094 31.6269 136.235 31.6439C136.699 31.6439 138.128 31.6439 138.128 31.6439H138.553C138.553 31.6439 139.983 31.6439 140.446 31.6439C140.724 31.6187 141.001 31.7017 141.219 31.8757C150.45 35.6742 160.185 38.108 170.118 39.1005C170.399 38.8958 170.658 38.6628 170.891 38.405C170.976 37.704 171.185 37.0237 171.509 36.396C171.556 36.3145 171.623 36.2467 171.705 36.1992C171.786 36.1518 171.878 36.1264 171.972 36.1256H176.841C177.038 36.1092 177.237 36.1352 177.423 36.2019C177.61 36.2685 177.78 36.3742 177.922 36.5119C178.125 36.7123 178.282 36.9542 178.382 37.221C178.482 37.4878 178.523 37.7731 178.502 38.0573V47.7933C178.502 49.0742 177.993 50.3025 177.087 51.2082C176.182 52.1139 174.953 52.6227 173.672 52.6227" fill="#A2A2A2"/>
<path d="M137.858 32.1461H139.751L140.717 28.0122H137.819H137.433H134.535L135.501 32.1461H137.394H137.858Z" fill="#434343"/>
<path d="M135.775 31.7983H139.445L140.256 28.3985H134.963L135.775 31.7983ZM139.638 32.4938H135.427C135.348 32.4895 135.273 32.4613 135.211 32.4129C135.149 32.3646 135.103 32.2985 135.079 32.2233L134.306 28.1667C134.268 28.0673 134.268 27.9569 134.306 27.8576C134.406 27.8222 134.515 27.8222 134.615 27.8576H140.797C140.884 27.825 140.98 27.825 141.068 27.8576C141.106 27.9569 141.106 28.0673 141.068 28.1667L140.063 32.2619C140.045 32.3402 140.001 32.41 139.937 32.4593C139.874 32.5086 139.796 32.5344 139.715 32.5324" fill="#A2A2A2"/>
<path d="M177.308 121.895C177.244 121.9 177.179 121.892 177.119 121.871C177.058 121.851 177.002 121.817 176.955 121.774C176.908 121.73 176.87 121.677 176.844 121.618C176.819 121.559 176.805 121.496 176.806 121.431V15.1082C176.815 14.9818 176.873 14.8637 176.966 14.7777C177.059 14.6917 177.181 14.6442 177.308 14.6445C177.428 14.6535 177.541 14.7052 177.626 14.7903C177.711 14.8754 177.763 14.9882 177.771 15.1082V121.431C177.771 121.492 177.76 121.553 177.736 121.609C177.713 121.665 177.679 121.716 177.636 121.759C177.593 121.802 177.542 121.836 177.485 121.86C177.429 121.883 177.369 121.895 177.308 121.895Z" fill="#A2A2A2"/>
<path d="M140.526 4.71532H134.808C134.685 4.71532 134.567 4.66646 134.48 4.57952C134.393 4.49257 134.345 4.37465 134.345 4.25169C134.345 4.12873 134.393 4.0108 134.48 3.92385C134.567 3.83691 134.685 3.78809 134.808 3.78809H140.526C140.649 3.78809 140.767 3.83691 140.854 3.92385C140.941 4.0108 140.99 4.12873 140.99 4.25169C140.99 4.37465 140.941 4.49257 140.854 4.57952C140.767 4.66646 140.649 4.71532 140.526 4.71532Z" fill="#A2A2A2"/>
<path d="M140.526 10.7041H134.808C134.685 10.7041 134.567 10.6553 134.48 10.5683C134.393 10.4814 134.345 10.3634 134.345 10.2405C134.345 10.1175 134.393 9.9996 134.48 9.91265C134.567 9.82571 134.685 9.77686 134.808 9.77686H140.526C140.649 9.77686 140.767 9.82571 140.854 9.91265C140.941 9.9996 140.99 10.1175 140.99 10.2405C140.99 10.3634 140.941 10.4814 140.854 10.5683C140.767 10.6553 140.649 10.7041 140.526 10.7041Z" fill="#A2A2A2"/>
<path d="M137.665 4.98599C137.59 4.98659 137.516 4.95938 137.459 4.90953C137.403 4.85968 137.366 4.79066 137.356 4.71555V1.1225C137.366 1.0474 137.403 0.978371 137.459 0.928521C137.516 0.878672 137.59 0.851467 137.665 0.85206C137.737 0.85206 137.806 0.880544 137.857 0.931263C137.907 0.981981 137.936 1.05078 137.936 1.1225V4.98599C137.936 5.05772 137.907 5.12652 137.857 5.17723C137.806 5.22795 137.737 5.25644 137.665 5.25644V4.98599ZM137.665 8.0768C137.584 8.0768 137.505 8.04421 137.447 7.98625C137.389 7.92828 137.356 7.84968 137.356 7.76771V6.84048C137.365 6.76138 137.4 6.68754 137.456 6.63129C137.513 6.57504 137.586 6.53979 137.665 6.5314C137.741 6.54086 137.81 6.57753 137.859 6.6345C137.909 6.69147 137.937 6.76478 137.936 6.84048V7.76771C137.942 7.80633 137.939 7.8457 137.928 7.88311C137.917 7.92052 137.898 7.95509 137.872 7.98445C137.846 8.01381 137.814 8.03725 137.779 8.05319C137.743 8.06913 137.704 8.0772 137.665 8.0768ZM137.665 13.2539C137.59 13.2545 137.516 13.2272 137.459 13.1774C137.403 13.1275 137.366 13.0585 137.356 12.9834V9.66081C137.356 9.57884 137.389 9.50024 137.447 9.44228C137.505 9.38431 137.584 9.35173 137.665 9.35173C137.704 9.35133 137.743 9.35937 137.779 9.37531C137.814 9.39125 137.846 9.41471 137.872 9.44407C137.898 9.47344 137.917 9.508 137.928 9.54541C137.939 9.58282 137.942 9.6222 137.936 9.66081V12.713C137.936 12.7847 137.907 12.8535 137.857 12.9042C137.806 12.9549 137.737 12.9834 137.665 12.9834" fill="#A2A2A2"/>
<path d="M174.948 17.6966C166.159 13.8598 156.802 11.4847 147.247 10.665H146.706C145.044 10.665 144.812 11.6696 144.812 11.6696C144.812 11.6696 140.254 30.3302 140.06 31.412C139.979 31.6539 139.989 31.9172 140.089 32.1522C140.188 32.3871 140.371 32.5774 140.601 32.6869C149.831 36.3775 159.533 38.7573 169.423 39.7571C170.35 39.7571 170.621 38.714 170.621 38.714L175.257 19.7056C175.643 17.8898 175.025 17.7739 175.025 17.7352L174.948 17.6966Z" fill="#D3D3D3"/>
<path d="M146.591 11.0899C145.471 11.0899 145.278 11.6694 145.278 11.7467C145.278 11.8239 140.719 30.4073 140.526 31.4505C140.332 32.4936 140.796 32.1845 140.796 32.1845H140.989C145.796 34.163 150.758 35.7396 155.825 36.898C160.308 37.9951 164.867 38.757 169.463 39.1774C169.927 39.1774 170.12 38.482 170.12 38.482C170.12 38.482 174.37 21.2122 174.756 19.4736C175.143 17.7351 174.756 18.0441 174.756 18.0441H174.563C165.834 14.2357 156.543 11.8738 147.055 11.0512H146.437L146.591 11.0899ZM169.347 40.2206H169.154C164.548 39.7616 159.978 38.987 155.477 37.9025C150.341 36.7354 145.313 35.1327 140.448 33.1118H140.255C139.936 32.9543 139.681 32.6914 139.533 32.3676C139.385 32.0438 139.354 31.6789 139.444 31.3346C139.637 30.2528 144.003 12.3262 144.196 11.5535C144.196 11.5535 144.544 10.124 146.591 10.2013H147.132C156.743 11.013 166.154 13.4017 174.988 17.2715H175.181C175.567 17.2715 176.031 18.0442 175.645 19.7441C175.258 21.444 171.047 38.5979 171.009 38.7911C170.952 39.1668 170.775 39.5138 170.502 39.7789C170.23 40.0441 169.879 40.2127 169.502 40.2592L169.347 40.2206Z" fill="#A2A2A2"/>
<path d="M100.307 224.586C109.071 228.459 118.421 230.836 127.97 231.618H128.511C130.211 231.618 130.404 230.613 130.404 230.613C130.404 230.613 134.963 211.991 135.156 210.871C135.235 210.634 135.224 210.377 135.124 210.148C135.024 209.92 134.842 209.737 134.615 209.635C125.465 205.905 115.821 203.523 105.986 202.564C105.059 202.564 104.789 203.646 104.789 203.646C104.789 203.646 100.578 220.877 100.191 222.655C99.8049 224.432 100.191 224.586 100.191 224.586H100.307Z" fill="#D3D3D3"/>
<path d="M100.498 224.162C109.227 227.97 118.518 230.332 128.006 231.155H128.547C129.706 231.155 129.938 230.575 129.938 230.498C129.938 230.421 134.497 211.876 134.69 210.794C134.883 209.713 134.69 210.099 134.42 210.06C129.601 208.069 124.626 206.479 119.545 205.308C115.074 204.214 110.529 203.452 105.946 203.029C105.482 203.029 105.289 203.724 105.289 203.763C105.289 203.801 101.078 220.994 100.691 222.771C100.421 223.892 100.691 224.162 100.691 224.162H100.498ZM128.624 232.159H127.967C118.362 231.32 108.955 228.933 100.112 225.089C99.7641 225.089 99.2232 224.471 99.6482 222.617C100.073 220.762 104.207 203.763 104.246 203.608C104.329 203.222 104.537 202.873 104.836 202.615C105.136 202.357 105.512 202.203 105.907 202.179C110.528 202.608 115.111 203.37 119.622 204.458C124.748 205.666 129.773 207.267 134.651 209.249H134.845C135.157 209.413 135.404 209.678 135.544 210.001C135.685 210.325 135.71 210.686 135.617 211.026C135.617 212.108 131.058 229.996 130.865 230.769C130.865 230.769 130.556 232.159 128.624 232.159Z" fill="#A2A2A2"/>
<path d="M145.125 224.201H132.491H131.139L114.256 222.192C114.256 222.192 113.715 222.192 113.715 221.728V215.199C113.715 215.199 113.715 214.851 114.372 214.851H134.5V214.581H142.227L145.125 224.201Z" fill="#D3D3D3"/>
<path d="M145.125 224.201H132.491H131.139L114.256 222.192C114.256 222.192 113.715 222.192 113.715 221.728V215.199C113.715 215.199 113.715 214.851 114.372 214.851H134.5V214.581H142.227L145.125 224.201Z" fill="#434343"/>
<path d="M114.059 215.198V221.612H114.291L131.175 223.621H132.488H144.62L142.186 214.619H134.845C134.745 214.654 134.636 214.654 134.536 214.619H114.407C114.358 214.598 114.306 214.587 114.253 214.587C114.199 214.587 114.147 214.598 114.098 214.619L114.059 215.198ZM145.006 223.969H132.372H130.982L114.098 221.96C113.988 221.965 113.879 221.948 113.776 221.909C113.673 221.871 113.579 221.812 113.499 221.736C113.42 221.66 113.357 221.569 113.313 221.468C113.27 221.367 113.248 221.258 113.248 221.148V214.542C113.329 214.346 113.47 214.181 113.65 214.07C113.831 213.959 114.041 213.907 114.253 213.923H134.304C134.328 213.863 134.372 213.811 134.427 213.776C134.483 213.742 134.548 213.726 134.613 213.73H142.34C142.419 213.735 142.494 213.763 142.556 213.811C142.618 213.859 142.664 213.926 142.688 214.001L145.315 223.698C145.342 223.745 145.356 223.798 145.356 223.853C145.356 223.907 145.342 223.96 145.315 224.007C145.272 224.025 145.226 224.035 145.18 224.035C145.133 224.035 145.087 224.025 145.045 224.007" fill="#A2A2A2"/>
<path d="M97.9485 231.193C97.8845 231.199 97.8201 231.191 97.7593 231.17C97.6985 231.149 97.6427 231.116 97.5954 231.072C97.5482 231.029 97.5106 230.976 97.485 230.917C97.4593 230.858 97.4461 230.794 97.4463 230.73V121.277C97.4463 121.144 97.4992 121.016 97.5934 120.922C97.6876 120.828 97.8153 120.775 97.9485 120.775C98.0128 120.775 98.0765 120.788 98.1354 120.813C98.1943 120.839 98.2472 120.877 98.2908 120.924C98.3344 120.971 98.3677 121.027 98.3886 121.088C98.4095 121.149 98.4174 121.213 98.4121 121.277V230.73C98.4121 230.853 98.3633 230.971 98.2764 231.058C98.1894 231.145 98.0715 231.193 97.9485 231.193Z" fill="#A2A2A2"/>
<path d="M172.938 189.97C174.089 189.97 175.194 190.425 176.012 191.235C176.829 192.046 177.294 193.146 177.304 194.297V204.033C177.304 205.656 176.106 205.501 176.106 205.501H171.238C171.005 204.949 170.811 204.381 170.659 203.802C170.968 203.57 169.538 202.488 169.538 202.488C159.536 203.463 149.733 205.91 140.446 209.751C140.446 209.751 140.446 209.751 139.944 209.751H135.733C135.308 209.751 135.23 209.751 135.23 209.751C130.233 207.646 125.062 205.979 119.777 204.767C115.241 203.664 110.631 202.889 105.984 202.449L105.057 202.758L104.245 205.463H99.3773C99.3773 205.463 98.1797 205.463 98.2183 203.995V196.731C98.2029 196.146 98.3041 195.564 98.5162 195.019C98.7282 194.474 99.0467 193.976 99.4531 193.556C99.8596 193.135 100.346 192.799 100.883 192.568C101.421 192.337 101.999 192.216 102.584 192.211L172.938 189.97Z" fill="#434343"/>
<path d="M135.346 209.481H139.867C144.87 207.391 150.039 205.724 155.321 204.497C159.831 203.403 164.415 202.641 169.036 202.218C169.103 202.189 169.175 202.174 169.249 202.174C169.322 202.174 169.394 202.189 169.461 202.218C170.852 203.261 170.813 203.686 170.813 203.84C170.813 204.072 171.084 204.536 171.238 204.999H175.797C175.87 205.031 175.949 205.048 176.029 205.048C176.109 205.048 176.188 205.031 176.261 204.999C176.359 204.883 176.431 204.747 176.471 204.6C176.511 204.453 176.518 204.299 176.493 204.149V194.297C176.493 193.273 176.085 192.29 175.361 191.565C174.636 190.841 173.654 190.434 172.629 190.434L102.005 192.752C100.98 192.752 99.9971 193.159 99.2725 193.884C98.548 194.608 98.141 195.591 98.141 196.615V203.879C98.1034 204.182 98.1867 204.487 98.3728 204.729C98.5114 204.771 98.6592 204.771 98.7977 204.729H103.357L104.091 202.333C104.109 202.259 104.148 202.191 104.202 202.136C104.257 202.082 104.325 202.043 104.4 202.024L105.288 201.715H105.482C110.155 202.152 114.79 202.926 119.352 204.033C124.63 205.272 129.798 206.939 134.805 209.017L135.346 209.481ZM135.655 209.867H134.96C134.683 209.889 134.407 209.806 134.187 209.635C129.193 207.533 124.021 205.878 118.733 204.69C114.244 203.615 109.688 202.841 105.095 202.372H104.516L103.782 204.883C103.755 204.985 103.695 205.075 103.611 205.139C103.527 205.202 103.423 205.234 103.318 205.231H98.45C98.055 205.235 97.6715 205.098 97.3683 204.845C97.1647 204.637 97.0078 204.388 96.9079 204.115C96.8079 203.842 96.7673 203.551 96.7888 203.261V195.997C96.7784 194.692 97.2842 193.436 98.1961 192.503C99.1079 191.569 100.352 191.034 101.657 191.013L172.243 188.695C173.524 188.695 174.752 189.204 175.658 190.11C176.563 191.015 177.072 192.244 177.072 193.525V203.261C177.093 203.551 177.053 203.842 176.953 204.115C176.853 204.388 176.696 204.637 176.493 204.845C176.181 205.11 175.781 205.248 175.372 205.231H170.543C170.444 205.231 170.347 205.202 170.264 205.147C170.182 205.092 170.117 205.013 170.079 204.922C169.763 204.305 169.554 203.639 169.461 202.952C169.241 202.67 168.981 202.422 168.688 202.218C158.767 203.205 149.044 205.639 139.828 209.442C139.592 209.609 139.306 209.691 139.017 209.674H135.501" fill="#A2A2A2"/>
<path d="M137.858 210.138H139.751L140.717 214.272H137.819H137.433H134.535L135.501 210.138H137.394H137.858Z" fill="#434343"/>
<path d="M134.963 213.924H140.256L139.444 210.524H135.774L134.963 213.924ZM140.719 214.619H134.538C134.438 214.658 134.328 214.658 134.229 214.619C134.193 214.519 134.193 214.41 134.229 214.31L135.195 210.176C135.218 210.101 135.264 210.035 135.326 209.987C135.388 209.938 135.464 209.91 135.542 209.906H139.753C139.834 209.904 139.912 209.93 139.976 209.979C140.039 210.028 140.083 210.098 140.101 210.176L141.106 214.31C141.138 214.411 141.138 214.519 141.106 214.619C141.063 214.637 141.017 214.647 140.97 214.647C140.924 214.647 140.878 214.637 140.835 214.619" fill="#A2A2A2"/>
<path d="M177.308 227.639C177.244 227.644 177.179 227.636 177.119 227.615C177.058 227.595 177.002 227.561 176.955 227.518C176.908 227.474 176.87 227.421 176.844 227.362C176.819 227.303 176.805 227.24 176.806 227.175V121.277C176.806 121.144 176.859 121.016 176.953 120.922C177.047 120.828 177.175 120.775 177.308 120.775C177.434 120.785 177.552 120.842 177.638 120.935C177.724 121.028 177.772 121.15 177.771 121.277V227.175C177.771 227.298 177.723 227.416 177.636 227.503C177.549 227.59 177.431 227.639 177.308 227.639Z" fill="#A2A2A2"/>
<path d="M134.805 232.082C122.941 231.983 111.223 229.445 100.381 224.625C98.2951 223.891 98.1406 225.784 98.1406 225.784V236.1C98.1406 236.671 98.2537 237.237 98.4736 237.765C98.6935 238.292 99.0156 238.771 99.4215 239.173C99.8274 239.575 100.309 239.893 100.839 240.109C101.368 240.324 101.935 240.432 102.506 240.427H132.642L134.998 238.147H140.716L143.073 240.427H172.938C174.089 240.427 175.193 239.972 176.011 239.162C176.829 238.351 177.293 237.251 177.303 236.1V225.784C177.303 225.784 177.11 223.891 175.024 224.625C164.207 229.437 152.516 231.975 140.678 232.082" fill="#434343"/>
<path d="M172.939 240.852H142.881C142.781 240.887 142.672 240.887 142.572 240.852L140.292 238.688H134.999L132.759 240.852C132.646 240.893 132.523 240.893 132.411 240.852H102.314C101.03 240.852 99.7975 240.344 98.8857 239.44C97.9738 238.535 97.4565 237.307 97.4463 236.022V225.707C97.4858 225.409 97.5849 225.122 97.7375 224.863C97.8902 224.604 98.0934 224.379 98.3349 224.2C98.6438 224.034 98.9889 223.948 99.3395 223.948C99.69 223.948 100.035 224.034 100.344 224.2C111.136 228.959 122.78 231.483 134.574 231.618V232.12V232.584C122.673 232.443 110.924 229.893 100.035 225.089C99.8353 224.996 99.6176 224.947 99.3974 224.947C99.1771 224.947 98.9595 224.996 98.7599 225.089C98.528 225.285 98.3768 225.56 98.3349 225.861V236.138C98.3349 237.163 98.7419 238.146 99.4665 238.87C100.191 239.595 101.174 240.002 102.198 240.002H132.14L134.304 237.916C134.336 237.841 134.391 237.779 134.46 237.737C134.529 237.696 134.61 237.677 134.69 237.684H140.408C140.498 237.683 140.585 237.708 140.661 237.756C140.736 237.804 140.796 237.873 140.833 237.954L142.958 240.002H172.939C173.964 240.002 174.946 239.595 175.671 238.87C176.395 238.146 176.802 237.163 176.802 236.138V225.823C176.755 225.535 176.604 225.273 176.377 225.089C176.19 225.002 175.985 224.957 175.778 224.957C175.572 224.957 175.367 225.002 175.18 225.089C164.297 229.982 152.532 232.611 140.602 232.816C140.537 232.821 140.473 232.813 140.412 232.792C140.351 232.771 140.296 232.738 140.248 232.694C140.201 232.651 140.163 232.598 140.138 232.539C140.112 232.48 140.099 232.416 140.099 232.352C140.088 232.293 140.09 232.233 140.104 232.175C140.118 232.117 140.144 232.062 140.18 232.015C140.217 231.967 140.263 231.928 140.315 231.9C140.368 231.871 140.426 231.854 140.486 231.85C152.293 231.719 163.95 229.195 174.755 224.432C175.064 224.266 175.409 224.18 175.759 224.18C176.11 224.18 176.455 224.266 176.764 224.432C177.007 224.6 177.213 224.817 177.366 225.07C177.519 225.324 177.617 225.606 177.652 225.9V236.254C177.652 237.535 177.144 238.763 176.238 239.669C175.332 240.575 174.104 241.084 172.823 241.084" fill="#A2A2A2"/>
<path d="M140.523 232.623H134.805C134.651 232.623 134.504 232.562 134.395 232.454C134.287 232.345 134.226 232.198 134.226 232.044C134.226 231.89 134.287 231.743 134.395 231.634C134.504 231.525 134.651 231.464 134.805 231.464H140.523C140.677 231.464 140.824 231.525 140.933 231.634C141.042 231.743 141.103 231.89 141.103 232.044C141.103 232.198 141.042 232.345 140.933 232.454C140.824 232.562 140.677 232.623 140.523 232.623Z" fill="#A2A2A2"/>
<path d="M174.951 224.586C166.174 228.459 156.811 230.835 147.25 231.618H146.709C145.048 231.618 144.816 230.613 144.816 230.613C144.816 230.613 140.257 211.991 140.064 210.871C139.985 210.634 139.996 210.377 140.096 210.148C140.196 209.92 140.377 209.737 140.605 209.635C145.461 207.626 150.475 206.023 155.595 204.844C160.091 203.746 164.663 202.985 169.272 202.564C170.199 202.564 170.47 203.646 170.47 203.646L175.106 222.655C175.492 224.432 174.874 224.586 174.874 224.586H174.951Z" fill="#D3D3D3"/>
<path d="M169.503 202.99C164.894 203.41 160.323 204.172 155.826 205.27C150.747 206.446 145.773 208.036 140.952 210.022C140.952 210.022 140.566 210.022 140.643 210.756C140.72 211.49 145.356 230.305 145.395 230.46C145.434 230.614 145.627 231.155 146.824 231.116H147.327C156.819 230.317 166.113 227.954 174.835 224.123C174.835 224.123 175.066 223.853 174.835 222.733C174.448 220.955 170.237 203.879 170.198 203.724C170.16 203.57 170.005 203.029 169.464 203.029L169.503 202.99ZM146.593 232.198C144.622 232.198 144.313 230.846 144.313 230.807C144.12 230.035 139.754 212.147 139.561 211.065C139.464 210.71 139.496 210.333 139.652 210C139.807 209.668 140.077 209.401 140.411 209.249C145.296 207.237 150.335 205.622 155.479 204.42C159.989 203.325 164.573 202.564 169.194 202.14C169.584 202.163 169.955 202.31 170.255 202.561C170.554 202.811 170.765 203.151 170.855 203.531C170.855 203.531 175.105 220.839 175.491 222.578C175.878 224.317 175.491 224.896 174.989 225.051C166.144 228.89 156.738 231.277 147.134 232.121H146.477" fill="#A2A2A2"/>
<path d="M120.048 121.78H93.3123C93.2733 121.78 93.2346 121.772 93.199 121.756C93.1634 121.74 93.1317 121.717 93.106 121.687C93.0803 121.658 93.0613 121.623 93.0502 121.586C93.0391 121.548 93.0363 121.509 93.0418 121.47C93.0418 121.399 93.0703 121.33 93.1211 121.279C93.1718 121.229 93.2406 121.2 93.3123 121.2H120.048C120.086 121.194 120.126 121.197 120.163 121.208C120.2 121.219 120.235 121.238 120.264 121.264C120.294 121.29 120.317 121.322 120.333 121.357C120.349 121.393 120.357 121.431 120.357 121.47C120.363 121.513 120.36 121.556 120.347 121.596C120.333 121.637 120.311 121.673 120.281 121.704C120.251 121.734 120.214 121.756 120.173 121.77C120.133 121.783 120.09 121.786 120.048 121.78ZM123.641 121.78H122.443C122.361 121.78 122.282 121.747 122.224 121.689C122.167 121.631 122.134 121.552 122.134 121.47C122.143 121.395 122.18 121.326 122.237 121.277C122.294 121.227 122.367 121.199 122.443 121.2H123.641C123.712 121.2 123.781 121.229 123.832 121.279C123.883 121.33 123.911 121.399 123.911 121.47C123.917 121.509 123.914 121.548 123.903 121.586C123.892 121.623 123.873 121.658 123.847 121.687C123.821 121.717 123.79 121.74 123.754 121.756C123.718 121.772 123.68 121.78 123.641 121.78ZM152.733 121.78H125.997C125.915 121.78 125.837 121.747 125.779 121.689C125.721 121.631 125.688 121.552 125.688 121.47C125.698 121.395 125.734 121.326 125.791 121.277C125.848 121.227 125.922 121.199 125.997 121.2H152.733C152.808 121.199 152.882 121.227 152.939 121.277C152.996 121.326 153.032 121.395 153.042 121.47C153.042 121.552 153.009 121.631 152.951 121.689C152.893 121.747 152.815 121.78 152.733 121.78ZM156.287 121.78H155.09C155.05 121.78 155.012 121.772 154.976 121.756C154.941 121.74 154.909 121.717 154.883 121.687C154.857 121.658 154.838 121.623 154.827 121.586C154.816 121.548 154.813 121.509 154.819 121.47C154.819 121.399 154.848 121.33 154.898 121.279C154.949 121.229 155.018 121.2 155.09 121.2H156.287C156.363 121.199 156.436 121.227 156.493 121.277C156.55 121.326 156.587 121.395 156.596 121.47C156.596 121.552 156.564 121.631 156.506 121.689C156.448 121.747 156.369 121.78 156.287 121.78ZM181.902 121.78H158.721C158.679 121.786 158.636 121.783 158.596 121.77C158.555 121.756 158.518 121.734 158.488 121.704C158.458 121.673 158.435 121.637 158.422 121.596C158.409 121.556 158.405 121.513 158.412 121.47C158.412 121.431 158.42 121.393 158.436 121.357C158.452 121.322 158.475 121.29 158.504 121.264C158.534 121.238 158.568 121.219 158.606 121.208C158.643 121.197 158.683 121.194 158.721 121.2H181.902C181.978 121.199 182.051 121.227 182.108 121.277C182.165 121.326 182.202 121.395 182.211 121.47C182.211 121.552 182.179 121.631 182.121 121.689C182.063 121.747 181.984 121.78 181.902 121.78Z" fill="#A2A2A2"/>
<path d="M42.1198 118.573V125.797H43.2015C43.5787 125.816 43.9553 125.749 44.3031 125.602C44.6509 125.455 44.9611 125.231 45.2105 124.947C45.7175 124.227 45.9628 123.354 45.9059 122.475V121.895C45.9628 121.016 45.7175 120.143 45.2105 119.423C44.9749 119.133 44.6726 118.904 44.3295 118.756C43.9864 118.608 43.6127 118.545 43.2401 118.573H42.1198ZM39.8789 127.575V116.757H43.2401C44.129 116.74 45.0072 116.953 45.79 117.375C46.5271 117.824 47.1282 118.465 47.5286 119.229C47.9715 120.061 48.1973 120.991 48.1853 121.934V122.436C48.1906 123.361 47.9788 124.274 47.5671 125.102C47.1623 125.866 46.5451 126.497 45.79 126.918C45.0135 127.36 44.1333 127.586 43.2401 127.575H39.8789Z" fill="#A2A2A2"/>
<path d="M204.31 123.673C204.272 124.277 204.406 124.88 204.696 125.411C204.823 125.6 204.996 125.752 205.199 125.854C205.403 125.956 205.629 126.003 205.855 125.991C206.147 126.013 206.439 125.944 206.688 125.791C206.938 125.638 207.133 125.411 207.246 125.141V121.973C207.124 121.71 206.927 121.488 206.68 121.337C206.432 121.186 206.145 121.111 205.855 121.123C204.812 121.123 204.31 121.973 204.31 123.673ZM202.146 123.673C202.081 122.601 202.381 121.539 202.996 120.659C203.259 120.295 203.609 120.001 204.014 119.805C204.418 119.61 204.865 119.518 205.315 119.539C205.682 119.534 206.047 119.611 206.381 119.765C206.715 119.919 207.011 120.145 207.246 120.427V116.293H209.41V127.884H207.478V127.034C207.232 127.352 206.916 127.608 206.553 127.783C206.191 127.957 205.794 128.044 205.392 128.038C204.95 128.046 204.513 127.948 204.117 127.754C203.72 127.559 203.376 127.272 203.112 126.918C202.491 126.012 202.192 124.924 202.262 123.827" fill="#A2A2A2"/>
<path d="M136.776 270.446V273.383H138.669C139.113 273.397 139.549 273.261 139.906 272.996C140.057 272.871 140.174 272.71 140.248 272.528C140.322 272.346 140.351 272.149 140.331 271.953C140.357 271.746 140.335 271.535 140.266 271.337C140.197 271.14 140.083 270.961 139.933 270.815C139.783 270.669 139.602 270.56 139.402 270.496C139.203 270.432 138.992 270.415 138.785 270.446H136.776ZM136.776 268.862H138.399C139.519 268.862 140.099 268.399 140.099 267.51C140.116 267.315 140.086 267.119 140.012 266.937C139.938 266.756 139.822 266.595 139.674 266.467C139.27 266.216 138.794 266.107 138.321 266.158H136.776V268.862ZM134.535 275.16V264.342H138.399C139.443 264.263 140.486 264.52 141.374 265.076C141.756 265.342 142.059 265.707 142.251 266.131C142.443 266.555 142.518 267.023 142.466 267.486C142.415 267.948 142.24 268.389 141.959 268.76C141.678 269.132 141.303 269.421 140.871 269.597C141.395 269.719 141.859 270.019 142.185 270.446C142.505 270.897 142.668 271.44 142.649 271.992C142.682 272.436 142.609 272.883 142.434 273.293C142.259 273.703 141.988 274.065 141.644 274.349C140.829 274.942 139.83 275.23 138.824 275.16H134.535Z" fill="#A2A2A2"/>
<path d="M7.06435 258.451C7.00978 259.205 6.73054 259.799 6.22663 260.232C5.72593 260.666 5.06474 260.882 4.24308 260.882C3.34438 260.882 2.63665 260.581 2.1199 259.977C1.60636 259.371 1.34959 258.539 1.34959 257.483V257.055C1.34959 256.381 1.46835 255.787 1.70586 255.274C1.94337 254.76 2.28199 254.367 2.72171 254.094C3.16464 253.818 3.67818 253.68 4.26233 253.68C5.07116 253.68 5.72272 253.897 6.217 254.33C6.71129 254.763 6.99694 255.371 7.07397 256.155H5.62964C5.59433 255.702 5.46755 255.375 5.2493 255.172C5.03425 254.967 4.70526 254.864 4.26233 254.864C3.78089 254.864 3.4198 255.038 3.17908 255.384C2.94157 255.728 2.8196 256.262 2.81318 256.988V257.517C2.81318 258.275 2.92713 258.828 3.15501 259.178C3.3861 259.528 3.74879 259.703 4.24308 259.703C4.68922 259.703 5.02141 259.602 5.23967 259.4C5.46113 259.194 5.58791 258.878 5.62001 258.451H7.06435ZM11.9703 259.342H9.43787L8.95643 260.786H7.42061L10.03 253.776H11.3685L13.9923 260.786H12.4565L11.9703 259.342ZM9.82784 258.172H11.5803L10.6993 255.548L9.82784 258.172ZM16.8425 257.974L16.0914 258.783V260.786H14.6471V253.776H16.0914V256.954L16.727 256.082L18.5131 253.776H20.2896L17.8006 256.891L20.3619 260.786H18.6431L16.8425 257.974Z" fill="#A2A2A2"/>
</svg>
