<svg width="666" height="309" viewBox="0 0 666 309" fill="none" xmlns="http://www.w3.org/2000/svg">
<path d="M275.73 160.053C273.177 163.36 269.963 166.096 266.293 168.084C262.624 170.073 258.579 171.27 254.421 171.6H252.227V169.041C252.227 167.663 252.031 166.482 251.737 166.482C251.442 166.482 251.213 167.663 251.213 169.041V171.6H249.052C247.37 171.521 245.702 171.257 244.077 170.812C239.661 169.439 235.558 167.21 231.999 164.252C226.477 159.143 222.94 152.24 222.015 144.766V142.306H229.969C232.621 142.527 235.291 142.35 237.891 141.781C235.269 141.213 232.577 141.036 229.904 141.256H221.852L222.179 137.976C222.953 131.284 225.961 125.051 230.714 120.287C235.468 115.524 241.688 112.509 248.365 111.733L251.245 111.373V116.884C251.245 123.903 252.162 124.067 252.358 117.08L252.522 111.799L253.897 111.635C257.955 111.913 261.911 113.03 265.517 114.915C271.145 117.875 275.77 122.441 278.806 128.037C281.357 133.108 282.424 138.799 281.886 144.452C281.347 150.106 279.224 155.491 275.762 159.987" fill="#D3D3D3"/>
<path d="M139.464 32.9069V30.3154L142.377 30.5122C144.341 30.5122 145.65 31.0699 146.043 31.8244C147.222 33.6614 145.781 35.1047 142.377 35.3015L139.464 35.4984V32.9069Z" fill="#D3D3D3"/>
<path d="M139.464 26.2157C139.464 23.9851 139.464 23.9851 142.05 24.1819C147.025 24.5755 146.861 28.4791 142.05 28.4791C139.628 28.4791 139.562 28.4791 139.562 26.2157" fill="#D3D3D3"/>
<path d="M252.227 125.675C252.227 124.954 252.031 124.396 251.704 124.396C251.376 124.396 250.983 126.102 251.704 126.627C252.424 127.152 252.358 127.02 252.358 125.675" fill="#A2A2A2"/>
<path d="M278.348 142.307C278.905 142.307 279.363 142.077 279.363 141.782C279.363 141.487 278.905 141.257 278.348 141.257C277.792 141.257 277.301 141.52 277.301 141.782C277.301 142.045 277.792 142.307 278.348 142.307Z" fill="#A2A2A2"/>
<path d="M240.965 141.323C240.376 141.323 239.918 141.586 239.918 141.848C239.918 142.111 240.376 142.373 240.965 142.373C241.555 142.373 241.98 142.143 241.98 141.848C241.98 141.553 241.522 141.323 240.965 141.323Z" fill="#A2A2A2"/>
<path d="M231.739 237.438C233.179 237.438 234.292 237.241 234.292 236.946C234.292 236.651 233.179 236.421 231.739 236.421C230.298 236.421 229.186 236.683 229.186 236.946C229.186 237.208 230.364 237.438 231.739 237.438Z" fill="#A2A2A2"/>
<path d="M198.712 237.438C199.988 237.438 201.003 237.241 201.003 236.946C201.003 236.651 199.988 236.421 198.712 236.421C197.435 236.421 196.388 236.683 196.388 236.946C196.388 237.208 197.435 237.438 198.712 237.438Z" fill="#A2A2A2"/>
<path d="M306.238 46.9145C307.547 46.9145 308.562 46.6848 308.562 46.3896C308.562 46.0944 307.547 45.8647 306.238 45.8647C304.928 45.8647 303.946 46.1272 303.946 46.3896C303.946 46.652 304.961 46.9145 306.238 46.9145Z" fill="#A2A2A2"/>
<path d="M206.894 237.438C208.17 237.438 209.218 237.241 209.218 236.946C209.218 236.651 208.17 236.421 206.894 236.421C205.617 236.421 204.603 236.683 204.603 236.946C204.603 237.208 205.617 237.438 206.894 237.438Z" fill="#A2A2A2"/>
<path d="M215.076 237.438C216.386 237.438 217.4 237.241 217.4 236.946C217.4 236.651 216.386 236.421 215.076 236.421C213.767 236.421 212.785 236.683 212.785 236.946C212.785 237.208 213.8 237.438 215.076 237.438Z" fill="#A2A2A2"/>
<path d="M223.229 237.438C224.506 237.438 225.684 237.241 225.848 236.946C226.012 236.651 225.193 236.421 223.589 236.421C221.985 236.421 220.971 236.683 220.971 236.946C220.971 237.208 222.018 237.438 223.229 237.438Z" fill="#A2A2A2"/>
<path d="M251.703 159.825C252.289 157 252.499 154.11 252.325 151.23L252.488 142.636H263.912C267.71 142.824 271.516 142.616 275.27 142.012C271.514 141.429 267.71 141.221 263.912 141.389H252.488L252.325 135.386C252.128 127.316 251.212 127.415 251.212 135.386V141.52H247.939C243.454 141.52 243.094 142.472 247.48 142.668H250.983V151.263C250.829 154.142 251.038 157.03 251.605 159.857" fill="#A2A2A2"/>
<path d="M264.765 237.438C266.041 237.438 267.089 237.241 267.089 236.946C267.089 236.651 266.041 236.421 264.765 236.421C263.488 236.421 262.474 236.683 262.474 236.946C262.474 237.208 263.488 237.438 264.765 237.438Z" fill="#A2A2A2"/>
<path d="M251.705 239.373C252.032 239.373 252.229 238.914 252.229 238.356C252.229 237.799 252.032 237.307 251.705 237.307C251.378 237.307 251.214 237.766 251.214 238.356C251.214 238.947 251.443 239.373 251.705 239.373Z" fill="#A2A2A2"/>
<path d="M272.915 237.438C274.191 237.438 275.37 237.241 275.533 236.946C275.697 236.651 274.846 236.421 273.275 236.421C271.704 236.421 270.656 236.683 270.656 236.946C270.656 237.208 271.671 237.438 272.915 237.438Z" fill="#A2A2A2"/>
<path d="M256.583 237.438C257.859 237.438 258.874 237.241 258.874 236.946C258.874 236.651 257.859 236.421 256.583 236.421C255.306 236.421 254.259 236.683 254.259 236.946C254.259 237.208 255.306 237.438 256.583 237.438Z" fill="#A2A2A2"/>
<path d="M252.227 163.105C252.227 162.383 252.031 161.924 251.703 162.12C251.536 162.3 251.406 162.512 251.322 162.743C251.237 162.974 251.2 163.22 251.212 163.465C251.212 163.957 251.441 164.449 251.703 164.449C251.965 164.449 252.227 163.826 252.227 163.105Z" fill="#A2A2A2"/>
<path d="M240.248 237.438C241.459 237.438 242.474 237.241 242.474 236.946C242.474 236.651 241.328 236.421 239.888 236.421C238.448 236.421 237.433 236.618 237.63 236.946C237.826 237.274 238.972 237.438 240.248 237.438Z" fill="#A2A2A2"/>
<path d="M248.429 237.438C249.673 237.438 250.688 237.241 250.688 236.946C250.688 236.651 249.509 236.421 248.069 236.421C246.629 236.421 245.614 236.618 245.81 236.946C246.007 237.274 247.152 237.438 248.429 237.438Z" fill="#A2A2A2"/>
<path d="M264.765 46.9145C266.041 46.9145 267.089 46.6848 267.089 46.3896C267.089 46.0944 266.041 45.8647 264.765 45.8647C263.488 45.8647 262.474 46.1272 262.474 46.3896C262.474 46.652 263.488 46.9145 264.765 46.9145Z" fill="#A2A2A2"/>
<path d="M165.943 142.307C166.63 142.307 167.22 142.077 167.22 141.782C167.22 141.487 166.63 141.257 165.943 141.257C165.256 141.257 164.634 141.52 164.634 141.782C164.634 142.045 165.223 142.307 165.943 142.307Z" fill="#A2A2A2"/>
<path d="M206.894 46.9145C208.17 46.9145 209.218 46.6848 209.218 46.3896C209.218 46.0944 208.17 45.8647 206.894 45.8647C205.617 45.8647 204.603 46.1272 204.603 46.3896C204.603 46.652 205.617 46.9145 206.894 46.9145Z" fill="#A2A2A2"/>
<path d="M198.712 46.9145C199.988 46.9145 201.003 46.6848 201.003 46.3896C201.003 46.0944 199.988 45.8647 198.712 45.8647C197.435 45.8647 196.388 46.1272 196.388 46.3896C196.388 46.652 197.435 46.9145 198.712 46.9145Z" fill="#A2A2A2"/>
<path d="M251.705 51.5075C252.032 51.5075 252.229 51.0482 252.229 50.4906C252.229 49.9329 252.032 49.4736 251.705 49.4736C251.378 49.4736 251.214 49.9329 251.214 50.4906C251.214 51.0482 251.443 51.5075 251.705 51.5075Z" fill="#A2A2A2"/>
<path d="M231.737 46.9149C233.374 46.9149 234.258 46.6853 234.028 46.3901C233.314 46.0443 232.531 45.8647 231.737 45.8647C230.944 45.8647 230.161 46.0443 229.446 46.3901C229.217 46.6853 230.101 46.9149 231.737 46.9149Z" fill="#A2A2A2"/>
<path d="M248.072 46.9152C249.512 46.9152 250.69 46.6856 250.69 46.3904C250.69 46.0951 249.676 45.8655 248.432 45.8655C247.527 45.7819 246.617 45.9643 245.813 46.3904C245.617 46.6856 246.501 46.9152 248.072 46.9152Z" fill="#A2A2A2"/>
<path d="M256.583 46.9145C257.859 46.9145 258.874 46.6848 258.874 46.3896C258.874 46.0944 257.859 45.8647 256.583 45.8647C255.306 45.8647 254.259 46.1272 254.259 46.3896C254.259 46.652 255.306 46.9145 256.583 46.9145Z" fill="#A2A2A2"/>
<path d="M251.705 199.844C251.443 199.844 251.214 200.303 251.214 200.861C251.214 201.418 251.443 201.91 251.705 201.91C251.967 201.91 252.229 201.451 252.229 200.861C252.229 200.27 252.032 199.844 251.705 199.844Z" fill="#A2A2A2"/>
<path d="M223.589 46.9152C225.193 46.9152 226.044 46.6856 225.848 46.3904C225.044 45.9643 224.134 45.7819 223.229 45.8655C222.018 45.8655 220.971 46.1279 220.971 46.3904C220.971 46.6528 222.149 46.9152 223.589 46.9152Z" fill="#A2A2A2"/>
<path d="M215.076 46.9145C216.386 46.9145 217.4 46.6848 217.4 46.3896C217.4 46.0944 216.386 45.8647 215.076 45.8647C213.767 45.8647 212.785 46.1272 212.785 46.3896C212.785 46.652 213.8 46.9145 215.076 46.9145Z" fill="#A2A2A2"/>
<path d="M243.719 78.0129C244.369 77.8268 245.039 77.7167 245.715 77.6849C246.173 77.6849 246.599 77.4881 246.599 77.1929C246.599 76.8976 244.079 76.4712 242.802 76.996C241.525 77.5209 242.442 78.3738 243.719 78.0129Z" fill="#A2A2A2"/>
<path d="M241.459 205.487C238.84 205.487 238.742 206.373 241.459 206.668C242.151 206.709 242.84 206.797 243.521 206.93C243.521 206.93 243.521 206.668 243.521 206.274C243.521 205.88 242.965 205.487 241.459 205.487Z" fill="#A2A2A2"/>
<path d="M234.719 79.5543C235.21 79.5543 236.094 79.1935 236.749 78.9967C237.992 78.6358 238.287 77.6846 237.174 77.6846C236.061 77.6846 233.279 78.8327 233.573 79.2919C233.716 79.4454 233.902 79.5526 234.106 79.5993C234.31 79.6461 234.524 79.6304 234.719 79.5543Z" fill="#A2A2A2"/>
<path d="M297.761 46.9152C299.201 46.9152 300.38 46.6856 300.38 46.3904C300.38 46.0951 299.332 45.8655 298.121 45.8655C297.216 45.7819 296.306 45.9643 295.502 46.3904C295.306 46.6856 296.157 46.9152 297.761 46.9152Z" fill="#A2A2A2"/>
<path d="M289.543 46.9145C290.984 46.9145 292.096 46.6848 292.096 46.3896C292.096 46.0944 290.984 45.8647 289.543 45.8647C288.103 45.8647 286.99 46.1272 286.99 46.3896C286.99 46.652 288.169 46.9145 289.543 46.9145Z" fill="#A2A2A2"/>
<path d="M273.18 46.9152C274.751 46.9152 275.635 46.6856 275.439 46.3904C274.635 45.9643 273.725 45.7819 272.82 45.8655C271.576 45.8655 270.562 46.1279 270.562 46.3904C270.562 46.6528 271.74 46.9152 273.18 46.9152Z" fill="#A2A2A2"/>
<path d="M281.458 46.9152C283.062 46.9152 283.913 46.6856 283.717 46.3904C282.913 45.9643 282.004 45.7819 281.098 45.8655C279.887 45.8655 278.84 46.1279 278.84 46.3904C278.84 46.6528 280.018 46.9152 281.458 46.9152Z" fill="#A2A2A2"/>
<path d="M281.426 237.438C282.833 237.438 283.979 237.241 283.979 236.946C283.979 236.651 282.833 236.421 281.426 236.421C280.018 236.421 278.84 236.683 278.84 236.946C278.84 237.208 280.018 237.438 281.426 237.438Z" fill="#A2A2A2"/>
<path d="M239.89 46.9152C241.33 46.9152 242.509 46.6856 242.509 46.3904C242.509 46.0951 241.461 45.8655 240.25 45.8655C239.345 45.7819 238.435 45.9643 237.631 46.3904C237.435 46.6856 238.286 46.9152 239.89 46.9152Z" fill="#A2A2A2"/>
<path d="M103.197 165.958C104.833 165.958 105.717 165.762 105.488 165.466C104.801 165.049 103.997 164.864 103.197 164.941C102.387 164.873 101.575 165.056 100.873 165.466C100.676 165.762 101.56 165.958 103.197 165.958Z" fill="#A2A2A2"/>
<path d="M111.38 165.959C113.016 165.959 113.9 165.762 113.704 165.467C113.001 165.057 112.19 164.874 111.38 164.942C110.58 164.872 109.778 165.055 109.088 165.467C108.892 165.762 109.743 165.959 111.38 165.959Z" fill="#A2A2A2"/>
<path d="M113.934 117.737C113.934 117.475 112.822 117.212 111.381 117.212C109.941 117.212 108.828 117.475 108.828 117.737C108.828 118 110.007 118.229 111.381 118.229C112.756 118.229 113.934 118.032 113.934 117.737Z" fill="#A2A2A2"/>
<path d="M103.229 117.212C101.822 117.212 100.644 117.475 100.644 117.737C100.644 118 101.658 118.229 102.902 118.229C104.146 118.229 105.357 118.032 105.488 117.737C105.619 117.442 104.833 117.212 103.229 117.212Z" fill="#A2A2A2"/>
<path d="M289.543 237.438C290.984 237.438 292.096 237.241 292.096 236.946C292.096 236.651 290.984 236.421 289.543 236.421C288.103 236.421 286.99 236.683 286.99 236.946C286.99 237.208 288.169 237.438 289.543 237.438Z" fill="#A2A2A2"/>
<path d="M67.5209 240.52C67.4608 241.61 66.9794 242.634 66.1789 243.374C65.3156 244.086 64.2183 244.448 63.1021 244.391C62.4807 244.408 61.8636 244.284 61.2968 244.029C60.7299 243.773 60.2281 243.392 59.8288 242.915C58.9579 241.782 58.5171 240.375 58.5849 238.946V237.831C58.5681 236.837 58.7692 235.851 59.1741 234.944C59.5271 234.175 60.0957 233.525 60.8107 233.074C61.5582 232.617 62.4231 232.389 63.2984 232.418C64.3753 232.358 65.4328 232.723 66.2444 233.435C67.0293 234.197 67.4971 235.228 67.5537 236.322H66.0153C65.9617 235.569 65.6626 234.854 65.1642 234.288C64.6467 233.845 63.9776 233.621 63.2984 233.665C62.8529 233.645 62.4091 233.733 62.0046 233.922C61.6002 234.11 61.2468 234.393 60.9744 234.747C60.3695 235.668 60.0821 236.763 60.1561 237.863V238.979C60.1004 240.042 60.3749 241.096 60.9417 241.997C61.1795 242.357 61.5066 242.649 61.8911 242.845C62.2755 243.04 62.7041 243.132 63.1348 243.112C63.8351 243.169 64.5326 242.971 65.0987 242.554C65.632 242.004 65.9563 241.285 66.0153 240.52H67.5209Z" fill="#A2A2A2"/>
<path d="M372.162 252.395C371.77 252.822 341.099 252.756 340.674 252.395C340.248 252.034 340.314 227.399 340.314 197.22V142.307H341.917C342.768 142.307 343.358 142.077 343.128 141.782C342.933 141.597 342.701 141.454 342.447 141.364C342.194 141.273 341.924 141.237 341.656 141.257C340.51 141.257 340.477 141.028 340.183 136.796C339.485 127.115 337.161 117.622 333.309 108.716C332.327 106.486 331.41 104.255 331.246 103.894C331.083 103.533 331.246 103.304 331.77 103.304C333.309 103.304 335.043 101.237 335.469 99.0393C336.025 95.7589 336.516 95.1684 338.939 94.5124C340.339 94.2172 341.644 93.5809 342.74 92.6598C343.837 91.7386 344.689 90.561 345.223 89.2311L346.664 86.4428L345.714 84.6714C345.191 83.6872 343.947 81.7847 342.997 80.4397L341.295 78.0451L338.644 78.4059C337.185 78.4706 335.753 78.8259 334.432 79.451C333.112 80.0762 331.929 80.9587 330.952 82.0471C329.315 83.6217 328.235 84.3106 327.679 84.0481C326.65 83.5806 325.534 83.3387 324.405 83.3387C323.276 83.3387 322.16 83.5806 321.132 84.0481C319.495 85.0978 319.397 85.0322 317.662 80.7678C316.517 78.0451 316.484 77.2906 316.222 55.6076C316.026 38.7794 315.797 33.006 315.306 32.1532L314.618 30.9722H343.259C358.971 30.9722 371.999 30.9722 372.13 31.2347C372.056 32.7602 371.747 34.2652 371.213 35.6959C369.74 40.8461 369.74 41.2397 371.017 41.2397C372.293 41.2397 372.031 41.6005 372.031 141.585C372.031 228.645 372.031 241.931 371.311 241.931C369.937 241.931 369.937 242.915 371.311 247.507C371.881 249.076 372.191 250.727 372.228 252.395H372.162ZM339.495 274.767C339.495 291.169 339.331 295.925 338.84 296.089C337.153 295.969 335.489 295.616 333.898 295.039C332.443 294.53 330.94 294.168 329.413 293.957C329.17 294.302 329.044 294.716 329.053 295.138C328.89 296.024 325.322 296.089 218.483 296.22H108.01V294.941C108.01 294.219 108.01 293.662 108.01 293.662C108.01 293.662 105.817 294.219 103.296 294.941C100.776 295.663 98.5501 296.22 98.2882 296.22C98.0264 296.22 97.9936 280.475 98.0264 261.219L98.19 226.185H121.758V230.81C121.758 233.369 121.758 236.289 121.758 237.371C121.758 238.454 122.052 239.274 122.314 239.274C122.576 239.274 122.838 238.814 122.838 238.224C122.838 237.634 123.132 237.207 123.492 237.207C124.909 237.459 126.308 237.798 127.682 238.224C129.145 238.698 130.645 239.049 132.166 239.274C132.297 239.27 132.426 239.239 132.544 239.183C132.662 239.127 132.767 239.048 132.853 238.949C132.939 238.851 133.004 238.735 133.044 238.611C133.083 238.486 133.097 238.354 133.083 238.224C133.083 237.273 133.443 237.207 142.084 237.207C150.726 237.207 151.086 237.207 151.348 238.224C151.61 239.241 152.428 239.503 156.618 238.224C160.808 236.945 161.757 236.945 161.757 238.224C161.757 238.814 162.019 239.274 162.281 239.274C162.844 233.716 163.008 228.125 162.772 222.544V205.814L170.857 206.011C178.352 206.175 179.105 206.273 181.462 207.487C183.055 208.355 184.42 209.59 185.445 211.09C186.469 212.59 187.123 214.312 187.354 216.115C187.681 217.82 187.878 230.745 187.878 249.082C187.878 268.764 187.877 279.294 188.368 279.294C188.859 279.294 188.892 278.638 188.892 277.752C188.892 275.915 189.056 275.915 193.9 277.227C195.366 277.691 196.865 278.042 198.385 278.277C198.777 278.277 199.138 277.818 199.138 277.227C199.138 276.637 199.498 276.21 251.837 276.21H304.569V277.391C304.569 278.014 305.028 278.474 305.355 278.408C305.682 278.343 307.81 277.818 310.068 277.227C314.291 276.112 315.371 276.21 315.109 277.654C315.109 278.179 315.109 278.572 315.469 278.671C316.121 274.55 316.351 270.373 316.157 266.205V253.642H339.07L339.495 274.767ZM97.8627 215.393L98.0264 205.781L109.548 205.945C113.537 205.888 117.527 206.063 121.496 206.47C121.793 209.577 121.87 212.701 121.725 215.819V224.742H109.777H97.8954L97.8627 215.393ZM121.594 203.78C121.332 204.961 121.234 204.961 113.247 204.863C108.828 204.863 104.016 204.863 102.576 204.601C98.1245 204.305 98.0264 204.043 98.0264 192.201V182.13H121.594V192.398C121.594 198.04 121.594 203.19 121.594 203.78ZM97.7645 178.555C97.6845 177.895 97.7582 177.226 97.9797 176.6C98.2012 175.974 98.5645 175.408 99.0411 174.946C100.285 173.667 100.383 173.667 109.81 173.667C119.237 173.667 119.335 173.667 120.612 174.946C121.101 175.373 121.463 175.926 121.659 176.545C121.855 177.164 121.878 177.825 121.725 178.456V180.588L109.843 180.752H97.8954L97.7645 178.555ZM97.7645 142.471H109.712H121.594V153.624V164.744L119.466 164.908C116.782 165.105 116.749 165.991 119.466 166.057H121.43V169.567C121.594 172.847 121.136 173.864 120.252 172.486C113.1 171.786 105.898 171.786 98.7465 172.486C97.6663 174.225 97.4699 171.764 97.4699 157.593L97.7645 142.471ZM97.7645 126.069C97.7645 117.606 97.7645 110.684 97.9282 110.684C98.5489 110.91 99.1509 111.184 99.7284 111.505C101.038 112.095 103.002 112.259 110.661 112.095C114.107 112.122 117.551 111.924 120.972 111.505C121.823 111.078 121.888 111.505 121.725 114.063V117.081H119.564C116.651 117.278 116.749 118.196 119.564 118.196H121.856V141.159H97.7972L97.7645 126.069ZM97.7645 101.959H121.823V105.436C121.823 110.717 121.987 110.684 110.105 110.684C100.285 110.684 100.285 110.684 99.0411 109.372C97.7972 108.06 97.7645 107.634 97.7645 105.009V101.959ZM122.609 204.961V181.999H141.921L161.266 182.163V204.633H141.954L122.609 204.961ZM134.13 225.004C133.214 225.004 132.854 224.742 132.854 223.955C132.854 223.167 131.97 222.675 127.715 223.955C122.183 225.66 122.609 226.382 122.609 215.491V206.011H161.528V221.035C161.528 233.271 161.528 236.19 160.873 236.19C159.187 235.88 157.524 235.453 155.898 234.911C153.541 234.189 151.544 233.632 151.479 233.632C151.321 234.008 151.221 234.406 151.184 234.812C151.02 235.928 150.922 235.928 141.954 236.092C132.985 236.256 132.854 236.092 132.854 235.272C132.872 234.833 132.758 234.399 132.527 234.025C130.919 234.102 129.332 234.411 127.813 234.944C125.358 235.633 123.23 236.19 123.001 236.19C122.588 234.507 122.455 232.767 122.609 231.04C122.454 229.324 122.587 227.595 123.001 225.923C123.23 225.923 125.325 226.48 127.715 227.202C129.247 227.695 130.827 228.025 132.428 228.186C132.719 227.825 132.87 227.371 132.854 226.907C132.854 226.185 133.214 225.923 134.13 225.923C135.047 225.923 135.407 225.726 135.407 225.398C135.407 225.07 134.851 224.906 134.13 224.906V225.004ZM146.733 142.307H161.593V161.431V180.523L142.837 180.687C127.944 180.687 123.951 180.687 123.558 180.129C123.165 179.572 123.034 173.569 123.067 161.038V142.537H124.245C125.784 142.274 125.653 141.388 124.082 141.388H122.609V122.625C122.609 108.585 122.609 103.566 123.23 103.107C135.773 102.221 148.363 102.221 160.906 103.107C161.364 103.566 161.528 108.585 161.528 122.625V141.487H146.667C141.708 141.25 136.737 141.426 131.806 142.012C136.737 142.597 141.708 142.773 146.667 142.537L146.733 142.307ZM314.913 254.068V264.467C315.02 268.035 314.9 271.607 314.553 275.161C312.858 275.012 311.188 274.659 309.577 274.111C308.003 273.577 306.361 273.268 304.7 273.192C304.498 273.576 304.397 274.005 304.406 274.439C304.406 275.292 302.474 275.357 251.87 275.357C199.792 275.357 199.334 275.357 199.072 274.341C199.009 274.07 198.866 273.825 198.661 273.638C198.457 273.451 198.201 273.33 197.926 273.291C196.386 273.527 194.865 273.878 193.377 274.341C191.999 274.755 190.601 275.094 189.187 275.357C188.581 271.54 188.405 267.667 188.663 263.811C188.663 257.447 188.827 252.264 188.958 252.264C189.455 252.416 189.929 252.637 190.365 252.92C191.216 253.379 205.16 253.576 253.179 253.806L314.913 254.068ZM339.135 205.257C339.135 242.259 339.135 252.001 338.611 252.362C331.265 252.837 323.896 252.837 316.55 252.362C316.353 252.198 316.19 242.292 316.19 230.384C316.19 206.372 316.19 205.65 319.463 199.057C321.041 196.068 322.778 193.166 324.667 190.364C329.485 183.039 333.315 175.109 336.058 166.778C337.237 163.104 338.284 159.693 338.513 159.299C338.742 158.905 338.873 179.768 338.971 205.224L339.135 205.257ZM252.164 203.616L256.78 203.256C269.026 202.319 280.722 197.769 290.392 190.18C300.062 182.591 307.273 172.302 311.116 160.611C314.979 148.245 314.979 134.991 311.116 122.625C307.307 111.074 300.182 100.907 290.633 93.397C281.084 85.8869 269.535 81.3682 257.434 80.407C252.786 80.0789 252.328 79.9477 252.328 78.9964C252.325 78.7096 252.427 78.4317 252.613 78.2144C252.8 77.9971 253.059 77.8553 253.343 77.8155C255.601 77.4546 255.896 77.061 254.128 76.7658C252.361 76.4705 252.263 76.1753 252.164 75.3224C252.066 74.4695 252.164 74.1415 254.979 74.1415C259.874 74.3897 264.731 75.1259 269.48 76.3393C271.215 76.8642 271.837 77.2578 271.935 78.1435C272.033 79.0292 271.935 79.3244 270.298 78.9636C267.909 78.5372 267.909 79.4228 270.298 80.1773C272.688 80.9318 273.015 80.6366 273.015 78.9636C273.015 77.2906 273.964 77.3562 279.824 79.9805C291.257 85.2906 301.083 93.5417 308.301 103.894C311.423 108.313 313.934 113.135 315.764 118.229C318.841 126.266 321.132 140.404 319.561 141.421C318.939 141.815 318.939 141.946 319.561 142.34C320.183 142.733 320.216 143.717 319.954 147.162C319.02 159.528 314.751 171.408 307.601 181.531C300.452 191.654 290.692 199.639 279.365 204.633C273.703 207.094 273.244 207.159 273.244 204.994C273.244 202.829 272.361 203.682 272.099 205.88C272.099 207.159 271.64 207.454 269.644 208.045C264.928 209.256 260.103 209.992 255.241 210.243H252.394L252.164 203.616ZM196.257 142.307C196.894 143.613 197.209 145.053 197.174 146.506C198.195 157.557 202.523 168.042 209.59 176.588C216.657 185.133 226.134 191.341 236.78 194.399C243.48 196.469 250.534 197.128 257.5 196.334C263.95 195.733 270.238 193.966 276.059 191.118C284.523 187.071 291.806 180.911 297.211 173.231C302.616 165.551 305.962 156.608 306.926 147.26C306.923 145.693 307.2 144.137 307.744 142.668C308.465 142.668 308.17 147.982 307.253 152.804C305.083 163.427 299.897 173.195 292.319 180.935C284.741 188.674 275.094 194.056 264.537 196.432C257.697 197.517 250.753 197.781 243.85 197.22C232.976 195.611 222.81 190.845 214.608 183.512C206.406 176.178 200.527 166.598 197.697 155.953C196.257 150.344 195.439 142.307 196.257 142.307ZM247.516 87.5909C234.367 88.6915 222.056 94.5162 212.853 103.993C203.942 113.047 198.407 124.894 197.174 137.55C196.977 139.65 196.552 141.388 196.257 141.388C195.962 141.388 195.864 140.011 196.093 137.354C196.952 127.934 200.188 118.888 205.496 111.066C210.804 103.244 218.01 96.9045 226.437 92.6426C233.597 89.1019 241.382 87.0064 249.349 86.4755C252.623 86.4755 251.543 87.3613 247.647 87.7221L247.516 87.5909ZM252.459 192.693L252.623 190.987L256.616 190.626C264.098 189.872 271.314 187.439 277.729 183.508C279.122 182.524 280.705 181.842 282.377 181.507C284.57 181.507 291.182 174.717 291.64 171.961C292.131 170.079 292.892 168.278 293.898 166.614C297.471 160.274 299.636 153.236 300.249 145.981L300.609 142.504H305.911V144.997C305.621 149.975 304.64 154.888 302.998 159.594C300.441 167.235 296.097 174.152 290.331 179.768C282.209 187.967 271.676 193.336 260.282 195.088C254.292 196.072 252.688 196.072 252.328 195.088C252.199 194.273 252.199 193.442 252.328 192.627L252.459 192.693ZM255.209 186.821C262.12 186.195 268.816 184.092 274.848 180.654C281.062 176.845 286.269 171.592 290.03 165.34C293.79 159.088 295.993 152.02 296.452 144.734C296.615 143.094 296.812 142.668 297.63 142.668C298.448 142.668 298.645 142.996 298.481 145.948C298.145 150.752 297.04 155.47 295.208 159.922C292.181 167.397 287.273 173.957 280.963 178.965C274.653 183.972 267.155 187.255 259.202 188.494C253.31 189.314 252.164 189.281 252.164 188.1C252.164 186.92 252.688 187.018 255.143 186.756L255.209 186.821ZM252.263 180.752L252.426 176.488L255.863 176.127C263.628 175.242 270.866 171.754 276.404 166.228C281.941 160.702 285.453 153.463 286.37 145.686L286.73 142.602H290.723L294.684 142.438V144.964C294.167 150.147 292.911 155.229 290.953 160.054C287.76 166.802 282.974 172.668 277.009 177.144C270.671 181.728 263.197 184.475 255.405 185.083H252.132L252.263 180.752ZM291.705 122.1C288.274 115.27 283.172 109.423 276.876 105.104C270.58 100.784 263.294 98.1337 255.7 97.3991C252.623 97.1039 252.066 96.9398 252.066 96.1198C252.066 94.7748 255.339 94.8404 261.591 96.1198C269.692 97.8116 277.19 101.655 283.3 107.247C289.409 112.839 293.907 119.975 296.321 127.906C297.431 131.454 298.123 135.12 298.383 138.83C298.612 140.995 298.579 141.224 297.597 141.224C297.366 141.239 297.136 141.192 296.929 141.089C296.722 140.985 296.546 140.828 296.419 140.634C296.142 139.259 295.956 137.867 295.862 136.468C295.208 131.452 293.773 126.571 291.607 122.002L291.705 122.1ZM282.377 125.052C279.113 119.694 274.709 115.124 269.48 111.669C265.42 109.403 260.984 107.892 256.387 107.207L252.295 106.551L252.132 102.844C252.132 98.7768 251.772 99.0064 255.634 99.1377C269.709 99.6625 284.603 110.291 290.822 124.232C292.705 128.543 293.887 133.128 294.324 137.813L294.684 141.093H290.854C289.458 141.196 288.055 141.075 286.697 140.732C286.399 140.04 286.276 139.286 286.337 138.535C285.825 133.795 284.472 129.185 282.344 124.921L282.377 125.052ZM281.231 156.347C277.969 162.925 272.597 168.216 265.978 171.371C260.577 174.061 252.034 175.504 252.034 173.7C252.034 173.142 252.59 172.912 253.997 172.912C255.937 172.758 257.857 172.406 259.726 171.863C266.98 170.004 273.31 165.561 277.532 159.365C280.388 155.39 282.221 150.77 282.868 145.915C283.293 143.422 283.686 142.143 284.144 142.143C285.781 142.143 284.144 150.606 281.231 156.347ZM284.111 141.093C283.62 141.093 283.293 140.7 283.293 140.076C282.841 135.636 281.657 131.302 279.791 127.25C277.331 122.585 273.775 118.591 269.429 115.613C265.083 112.635 260.079 110.764 254.848 110.16C253.048 110.16 252.295 109.733 252.295 109.241C252.295 108.093 257.663 108.552 262.115 110.094C267.089 111.718 271.586 114.546 275.208 118.328C280.409 123.531 283.677 130.36 284.472 137.682C284.799 140.634 284.733 140.962 283.981 140.962L284.111 141.093ZM250.888 168.681V171.24H248.727C247.045 171.161 245.377 170.897 243.752 170.452C239.336 169.079 235.233 166.85 231.674 163.892C226.152 158.783 222.615 151.88 221.69 144.406V142.307H229.644C232.296 142.527 234.966 142.35 237.566 141.782C234.944 141.214 232.252 141.037 229.579 141.257H221.527L221.854 137.977C222.628 131.285 225.636 125.052 230.389 120.288C235.143 115.524 241.363 112.51 248.04 111.734L250.921 111.373V116.884C250.921 123.904 251.837 124.068 252.034 117.081L252.197 111.8L253.572 111.636C257.63 111.914 261.586 113.03 265.192 114.916C270.82 117.875 275.445 122.442 278.481 128.037C280.707 132.435 281.817 137.314 281.713 142.243C281.61 147.172 280.297 152 277.889 156.3C275.482 160.6 272.055 164.239 267.911 166.896C263.766 169.553 259.033 171.146 254.128 171.535H251.935V168.976C251.935 167.598 251.739 166.417 251.444 166.417C251.15 166.417 250.921 167.598 250.921 168.976L250.888 168.681ZM248.302 184.951C246.965 184.939 245.63 184.829 244.309 184.623C235.994 182.857 228.369 178.713 222.356 172.693C216.344 166.673 212.201 159.035 210.43 150.705C210.053 148.701 209.824 146.673 209.743 144.636V142.307L213.474 142.471H217.141L217.501 145.981C218.525 153.624 222.043 160.713 227.508 166.142C232.973 171.572 240.077 175.036 247.713 175.996L250.986 176.357L251.15 180.621V184.82L248.302 184.951ZM248.302 97.4975C239.192 98.3922 230.577 102.078 223.631 108.053C216.685 114.028 211.744 122.002 209.481 130.891C208.82 133.305 208.393 135.776 208.204 138.272C208.324 139.361 208.045 140.457 207.419 141.356C206.764 141.946 206.764 142.077 207.419 142.766C208.048 143.737 208.325 144.895 208.204 146.047C208.388 148.516 208.793 150.965 209.416 153.362C211.12 160.041 214.336 166.238 218.815 171.471C223.293 176.705 228.914 180.835 235.242 183.541C239.797 185.156 244.518 186.256 249.317 186.821C250.757 187.018 251.215 187.28 251.215 188.035C251.215 189.281 249.382 189.314 243.425 188.232C234.641 186.552 226.56 182.28 220.217 175.963C213.701 169.761 209.148 161.776 207.124 153.001C205.57 145.68 205.57 138.114 207.124 130.793C209.438 121.353 214.61 112.862 221.929 106.484C229.249 100.106 238.358 96.1536 248.007 95.1685C251.084 94.8732 251.281 94.906 251.281 95.9229C251.281 96.9398 250.855 97.0054 248.367 97.3335L248.302 97.4975ZM248.367 107.01C240.535 107.764 233.242 111.343 227.844 117.081C222.133 122.379 218.558 129.592 217.795 137.354L217.37 140.962H213.704L209.972 141.126V139.027C210.084 136.985 210.358 134.956 210.79 132.958C212.704 123.87 217.494 115.645 224.447 109.504C231.4 103.363 240.146 99.6355 249.382 98.8752H251.182L251.346 102.746V106.65L248.367 107.01ZM221.134 146.375C221.912 151.301 223.842 155.974 226.766 160.01C229.69 164.046 233.525 167.332 237.958 169.599C241.701 171.338 245.705 172.447 249.808 172.88C250.921 172.88 251.444 173.142 251.444 173.667C251.444 174.192 248.171 174.651 244.178 173.667C241.8 172.948 239.48 172.048 237.238 170.977C231.082 167.663 226.021 162.625 222.672 156.478C219.792 150.606 218.09 142.11 219.857 142.11C220.25 142.11 220.708 143.586 221.134 146.342V146.375ZM220.708 139.387C220.708 140.568 220.446 141.06 219.955 141.06C219.464 141.06 219.17 140.503 219.17 138.863C219.855 131.688 222.723 124.897 227.386 119.41C232.959 113.413 240.429 109.53 248.531 108.421C250.986 108.159 251.444 108.224 251.444 108.88C251.444 109.536 250.79 109.832 249.546 110.028C245.56 110.415 241.678 111.527 238.089 113.309C232.384 116.301 227.641 120.85 224.407 126.43C222.425 130.452 221.173 134.795 220.708 139.256V139.387ZM254.685 86.5412C259.381 86.8369 264.033 87.6286 268.563 88.903C271.122 89.7688 273.635 90.7651 276.092 91.8881C284.032 95.5771 290.992 101.091 296.407 107.982C301.821 114.873 305.537 122.947 307.253 131.547C308.072 135.451 308.203 142.701 307.45 140.962C307.121 139.382 306.892 137.782 306.763 136.173C306.507 133.33 305.981 130.518 305.191 127.775C303.091 120.253 299.403 113.27 294.377 107.299C289.351 101.329 283.104 96.5094 276.059 93.1675C270.331 90.3249 264.127 88.5678 257.762 87.9845C252.066 87.3613 250.331 86.5412 254.685 86.5412ZM272.72 92.8722C281.78 96.5498 289.662 102.642 295.513 110.489C301.363 118.336 304.96 127.638 305.911 137.386L306.239 141.323H300.642L299.823 135.582C299.271 130.31 297.727 125.19 295.273 120.493C292.07 114.071 287.504 108.43 281.895 103.964C276.285 99.4987 269.769 96.3174 262.802 94.6436C262.048 94.5864 261.316 94.3662 260.655 93.9981C259.993 93.63 259.42 93.1228 258.973 92.5114L257.893 91.0352H245.683L244.341 92.6426C243.121 93.8933 241.562 94.7597 239.857 95.1356C231.59 97.3128 224.074 101.714 218.122 107.863C210.337 115.865 205.481 126.269 204.342 137.386C204.08 140.208 203.786 141.323 203.262 141.323C202.738 141.323 202.345 142.143 203.262 142.504C204.075 144.193 204.511 146.041 204.538 147.916C205.334 153.61 207.012 159.144 209.514 164.318C213.218 171.506 218.656 177.654 225.332 182.202C232.009 186.751 239.713 189.556 247.746 190.364L251.248 190.659V193.119C251.248 195.645 251.248 195.645 249.611 195.58C247.325 195.38 245.052 195.052 242.803 194.596C233.585 193.053 224.932 189.115 217.707 183.175C210.482 177.235 204.937 169.5 201.625 160.742C199.926 155.876 198.827 150.819 198.352 145.686C198.09 142.996 198.188 142.668 199.105 142.405C200.021 142.143 200.447 141.224 199.105 141.224C197.763 141.224 198.123 140.995 198.385 137.55C199.142 129.105 201.876 120.958 206.364 113.77C210.853 106.582 216.969 100.556 224.217 96.181C231.465 91.8062 239.641 89.2058 248.079 88.591C256.518 87.9762 264.983 89.3643 272.786 92.6426L272.72 92.8722ZM244.276 201.812C234.736 200.311 225.621 196.8 217.533 191.512C210.895 186.661 205.137 180.702 200.512 173.897C195.353 165.686 192.212 156.366 191.347 146.703L191.053 142.176L192.787 142.34C194.424 142.34 194.522 142.602 194.686 144.538C195.168 154.043 198.022 163.276 202.985 171.391C207.949 179.505 214.864 186.243 223.098 190.987C231.73 196.013 241.518 198.7 251.501 198.784C261.484 198.869 271.316 196.348 280.032 191.469C288.747 186.591 296.046 179.523 301.209 170.96C306.372 162.398 309.222 152.636 309.479 142.635C309.479 142.373 310.199 142.241 311.018 142.241C311.836 142.241 312.556 142.012 312.556 141.716C312.556 141.421 311.902 141.192 311.018 141.192C310.134 141.192 309.479 141.192 309.479 140.831C308.963 125.777 302.596 111.521 291.738 101.106C281.04 90.7842 266.719 85.0933 251.87 85.2618C239.976 85.278 228.383 89.0127 218.708 95.9454C209.032 102.878 201.756 112.663 197.894 123.937C196.345 128.842 195.335 133.902 194.882 139.027C194.719 140.962 194.62 141.093 192.984 141.224L191.249 141.388L191.544 136.599C192.83 122.035 199.314 108.425 209.806 98.2659C220.298 88.1068 234.094 82.0804 248.662 81.2926C251.248 81.2926 251.313 81.2926 251.313 82.8344C251.313 83.6873 251.575 84.3761 251.837 84.3761C252.099 84.3761 252.328 83.6545 252.328 82.736V81.1286L257.598 81.4239C271.385 82.5781 284.368 88.4063 294.406 97.9474C304.444 107.489 310.938 120.173 312.818 133.909C313.503 140.627 313.238 147.407 312.032 154.051C309.615 165.188 304.132 175.425 296.207 183.6C288.281 191.775 278.228 197.561 267.189 200.303C259.686 202.064 251.944 202.573 244.276 201.812ZM184.179 141.29V139.027C184.297 136.564 184.559 134.11 184.964 131.679C186.714 120.67 191.128 110.258 197.822 101.354C204.515 92.4506 213.283 85.326 223.36 80.6038C229.906 77.4874 230.266 77.3234 230.266 79.0292C230.266 79.7509 230.528 80.3413 230.79 80.3413C231.052 80.3413 231.314 79.7837 231.314 79.1276C231.307 78.4864 231.54 77.8659 231.968 77.389C236.689 75.7281 241.61 74.7022 246.6 74.3383L251.313 74.0431V77.061L251.15 80.1117L246.534 80.4725C238.537 81.11 230.748 83.3405 223.621 87.0332C213.533 92.4724 205.045 100.469 199.007 110.225C194.344 118.256 191.495 127.214 190.66 136.468L190.332 141.159H187.419L184.179 141.29ZM249.644 206.897C250.724 206.897 251.084 207.356 251.182 208.504C251.281 209.652 251.182 209.882 248.367 209.816C246.429 209.754 244.495 209.59 242.574 209.324C238.946 208.846 235.386 207.944 231.968 206.634C231.767 206.451 231.605 206.229 231.492 205.98C231.38 205.732 231.319 205.464 231.314 205.191C231.314 204.24 231.314 204.24 234.391 204.961C234.391 204.961 234.685 204.961 234.751 204.502C234.816 204.043 231.477 202.6 230.725 202.993C230.37 203.524 230.208 204.161 230.266 204.797C230.324 205.298 230.256 205.805 230.07 206.274C225.994 204.798 222.052 202.976 218.286 200.828C210.314 196.323 203.377 190.187 197.926 182.819C189.989 172.374 185.267 159.832 184.342 146.735L184.048 141.946L187.059 142.11H190.071V144.702C190.941 159.686 197.178 173.851 207.635 184.596C218.092 195.341 232.067 201.944 246.993 203.19C248.486 203.286 249.973 203.473 251.444 203.748C251.608 203.748 251.641 204.404 251.444 204.961C251.248 205.519 250.724 206.011 249.677 206.011C247.778 206.011 247.746 206.93 249.677 207.126L249.644 206.897ZM324.635 89.8215C323.62 90.5432 323.456 90.4448 322.18 88.4438C320.903 86.4428 320.805 86.3115 321.689 85.3602C323.423 83.4248 325.518 84.5402 325.616 87.5253C325.71 87.9628 325.665 88.4185 325.489 88.8296C325.313 89.2408 325.015 89.5873 324.635 89.8215ZM328.137 90.904C330.526 93.069 331.246 96.3166 329.61 97.2351C327.973 98.1535 328.399 98.0552 326.599 95.2669C324.307 91.6257 324.176 91.3305 325.78 90.6088C327.384 89.8871 327.319 90.1496 328.137 90.904ZM333.047 101.532C331.574 102.615 331.345 102.582 330.396 101.073C329.446 99.5641 329.348 98.5144 330.788 97.7927C331.272 97.547 331.83 97.4924 332.351 97.6397C332.873 97.787 333.321 98.1255 333.605 98.588C333.889 99.0505 333.99 99.6032 333.886 100.136C333.783 100.67 333.483 101.145 333.047 101.467V101.532ZM333.309 89.3623L336.287 93.9219L335.338 95.5621C334.323 97.3007 334.291 97.3663 333.047 96.6446C332.363 95.9829 331.857 95.1594 331.574 94.25C330.988 92.7807 330.134 91.4344 329.053 90.2808C326.893 87.9189 326.075 85.3602 327.482 85.3602C328.098 85.3143 328.711 85.2266 329.315 85.0978C330.134 84.901 330.886 85.6555 333.309 89.3623ZM334.651 80.5709C335.762 80.0696 336.967 79.8124 338.186 79.8165L341.197 79.6197L343.358 82.9L345.485 86.1803L344.012 88.8374C343.514 89.9569 342.736 90.9287 341.754 91.6585C341.23 91.6585 339.692 89.8543 337.498 86.3771C334.945 82.3751 334.225 80.8006 334.651 80.3085V80.5709ZM336.418 86.8692C337.821 88.6713 338.926 90.6869 339.692 92.8394C338.808 94.25 337.335 93.2003 334.553 88.8702C330.919 83.3265 330.985 83.4249 332.163 82.3096C333.341 81.1942 333.276 81.5879 336.549 86.7708L336.418 86.8692ZM97.6008 90.0512C97.6008 80.9646 97.6008 79.5212 98.4846 78.9308C99.3684 78.3403 106.406 78.1435 139.04 77.9467C182.673 77.6515 180.873 77.7499 184.866 74.4039C188.859 71.058 188.565 70.4019 188.859 58.0022L189.121 46.9475H191.053C193.508 46.7179 193.508 45.8978 191.053 45.701H189.154L189.318 39.1403C189.223 36.693 189.454 34.2439 190.005 31.8579C190.398 31.3331 197.206 31.1691 220.938 31.1691H251.346V39.1403C251.346 49.6702 252.328 49.8014 252.459 39.3043L252.623 31.4315H312.753L313.931 32.6124C315.011 33.6621 315.109 34.3838 315.306 39.8948L315.469 46.0618H313.865C311.934 46.0618 311.771 46.9475 313.865 47.2099H315.24L315.502 63.1196C315.797 81.5551 315.797 81.4894 321.132 89.1982C331.967 104.944 338.12 120.985 338.906 135.91L339.201 141.388H321.787L321.427 136.304C320.528 125.928 317.307 115.888 312.003 106.932C306.698 97.9758 299.447 90.3332 290.789 84.5729C280.991 77.9522 269.618 74.0476 257.827 73.2558L252.754 72.895L252.59 63.2836C252.772 60.0568 252.574 56.8198 252.001 53.6394C251.385 56.8146 251.176 60.0554 251.379 63.2836L251.215 72.895L246.862 73.2558C230.474 74.4483 215.085 81.5993 203.589 93.3643C198.52 98.1877 194.313 103.846 191.151 110.094C186.739 118.355 184.107 127.452 183.426 136.796L183.099 141.159H176.356C174.068 141.034 171.774 141.244 169.547 141.782C171.774 142.32 174.068 142.53 176.356 142.405H183.099L183.426 147.031C184.273 158.115 187.759 168.835 193.59 178.292C199.422 187.749 207.43 195.668 216.944 201.386C225.974 206.606 236.023 209.806 246.403 210.768L251.379 211.096V222.839C251.138 226.75 251.313 230.676 251.903 234.55C252.494 230.699 252.691 226.797 252.492 222.905L252.655 211.194L257.762 210.833C274.251 209.589 289.748 202.455 301.432 190.728C313.116 179 320.211 163.459 321.427 146.932L321.787 142.405H330.396H338.939V145.981C338.594 154.503 336.869 162.911 333.832 170.879C331.146 177.362 327.858 183.578 324.013 189.445C320.728 194.148 318.055 199.252 316.059 204.633C315.164 210.316 314.846 216.075 315.109 221.822V236.19L313.735 236.354C312.884 236.354 312.294 236.715 312.294 236.945C312.294 237.174 312.884 237.47 313.735 237.568C314.586 237.666 315.109 237.929 315.24 240.291C315.4 242.234 315.4 244.187 315.24 246.13C315.276 247.008 315.135 247.885 314.825 248.707C314.516 249.53 314.045 250.282 313.44 250.919L312 252.362H252.23V247.212C252.432 245.491 252.264 243.746 251.739 242.095C251.412 242.095 251.215 244.129 251.215 247.212V252.362H221.756C196.192 252.362 192.035 252.362 191.053 251.575C190.071 250.788 188.761 246.458 188.958 241.537L189.121 237.732H191.053C192.1 237.732 192.951 237.371 192.951 237.109C192.951 236.846 192.1 236.617 191.053 236.518L189.121 236.354L188.859 225.562C188.565 213.818 188.303 212.703 185.324 209.16C182.346 205.617 180.938 205.486 171.446 205.158L162.87 204.633L162.608 153.296L162.346 102.024L161.069 101.368C160.087 100.843 152.723 100.679 128.697 100.679H97.5681L97.6008 90.0512ZM97.6008 48.3252C97.6008 29.4961 97.7645 19.9503 98.1245 19.9503C99.5384 20.2135 100.937 20.553 102.314 20.9672C105.948 22.0169 106.57 21.9513 106.57 20.9672C106.57 20.4752 123.165 20.2783 174.588 20.1799C233.507 20.1799 242.541 20.1799 242.541 20.8032C242.541 22.0825 243.294 22.1481 246.927 21.0984C248.891 20.5408 250.626 20.0815 250.888 20.0815C251.196 21.647 251.284 23.248 251.15 24.838L250.986 29.5617L219.988 29.8241C202.935 29.8241 188.958 30.1521 188.958 30.2506C188.205 31.4643 188.008 35.0071 187.747 50.359C187.485 68.0729 187.419 68.6305 186.306 70.7299C185.557 72.0371 184.55 73.1771 183.345 74.0797C182.141 74.9823 180.765 75.6284 179.302 75.9785C177.894 76.3721 164.343 76.6017 137.404 76.7002H97.6008V48.3252ZM94.9167 142.307L96.0297 142.504V165.04H88.8612C82.3147 165.04 81.6927 165.04 81.6927 164.154C81.921 162.547 82.2601 160.958 82.7075 159.398C83.9513 154.608 83.9513 154.772 82.7075 154.772C81.4636 154.772 81.6927 154.411 81.6927 141.651C81.6927 128.89 81.6927 128.53 82.7075 128.53C83.7222 128.53 83.9513 128.694 82.7075 123.904C81.1363 117.803 80.6126 118.262 88.8612 118.262H96.0297V129.776C96.0297 141.224 96.0296 141.257 94.9167 141.618L93.7383 142.044L94.9167 142.307ZM50.8586 170.583L49.6802 170.419V112.325H50.8586C51.2491 112.281 51.6334 112.193 52.0042 112.062C52.0042 112.062 51.415 109.897 50.7276 107.371C50.1752 105.751 49.8449 104.062 49.7457 102.352C49.7457 102.156 60.3511 101.959 73.0513 101.959H95.9642V117.344H86.6026C83.4292 117.097 80.2373 117.274 77.1102 117.868C77.1102 118.164 77.9285 118.36 78.9759 118.36C80.0234 118.36 80.7108 118.524 80.5144 119.279C80.318 120.033 79.8924 121.641 79.4342 123.511C78.9759 125.38 78.5177 127.25 78.354 127.709C78.1903 128.169 78.354 128.595 79.2705 128.726L80.4489 128.89V142.012C80.4489 154.543 80.4489 154.936 79.5651 154.936C79.1006 154.908 78.6431 155.06 78.2886 155.363C78.6853 158.397 79.3759 161.385 80.3507 164.285C80.5471 164.941 80.3507 165.138 78.9104 165.302C77.4702 165.466 77.3066 165.663 77.4703 165.86C80.5255 166.309 83.6145 166.484 86.7008 166.385H95.6368V173.733L95.8005 181.015H72.4294C59.6309 181.015 49.1238 181.015 49.1238 180.818C49.1238 180.621 49.7129 178.391 50.433 175.766C51.1532 173.142 51.7096 170.944 51.7096 170.911C51.3443 170.763 50.9575 170.674 50.564 170.649L50.8586 170.583ZM56.8159 204.633C34.9832 204.633 17.1766 204.633 17.1766 204.633C17.1766 204.633 17.7331 202.534 18.4532 200.172C20.0244 194.825 20.0244 194.53 18.4532 194.53H17.1766V141.815L17.3403 89.067H18.5187C19.8935 88.8702 19.8935 89.067 18.5187 83.7201C18.0238 82.1884 17.716 80.6023 17.6022 78.9964C18.0277 78.5371 95.9642 78.6355 96.1606 78.9964C96.357 79.3572 96.1606 84.3105 96.1606 90.3135V101.172H69.9744C61.2426 100.88 52.5015 101.055 43.7883 101.696C43.7883 101.992 44.8358 102.221 46.1124 102.221C48.8292 102.221 48.8619 102.221 47.3889 107.863C46.1451 112.62 46.1451 112.489 47.3889 112.489C48.6328 112.489 48.4036 112.817 48.4036 141.716C48.4036 170.616 48.4036 170.977 47.3889 170.977C46.3742 170.977 46.1124 170.977 47.3889 175.701C48.8619 181.08 48.8291 181.245 46.1451 181.245C45.25 181.154 44.3484 181.337 43.5592 181.769C52.1642 182.387 60.7957 182.552 69.418 182.261C89.8759 182.261 95.6041 182.425 95.7678 182.95C95.9315 183.475 96.0951 188.33 96.1933 194.235L96.4224 204.633H56.8159ZM375.207 252.854C374.581 252.899 373.956 252.762 373.406 252.461C373.505 250.751 373.836 249.063 374.388 247.442C375.108 244.916 375.665 242.816 375.665 242.718C375.278 242.438 374.846 242.228 374.388 242.095L373.112 241.57V141.651V41.6661H374.29C375.698 41.4365 375.698 41.6661 374.29 36.352C373.603 33.9901 373.013 31.8907 373.013 31.6939C373.013 31.4971 373.832 31.2675 374.781 31.2675C375.73 31.2675 376.581 31.0707 376.581 30.7754C376.581 30.4802 355.272 30.2178 314.389 30.1521H252.197L252.034 23.3947C252.169 21.1037 251.971 18.8051 251.444 16.5715C251.117 16.5715 250.921 17.2932 250.921 18.1133C250.921 19.8519 250.593 19.8847 247.32 18.9334C242.476 17.49 242.214 17.4901 242.214 18.6054C242.214 19.7207 242.05 19.6551 174.392 19.6551C106.733 19.6551 106.537 19.6551 106.242 18.6054C105.948 17.5557 105.228 17.5229 101.169 18.9662C97.8954 20.1471 97.2735 19.9503 97.2735 17.326C97.2735 16.0467 97.0771 15.0298 96.7498 15.0298C96.4225 15.0298 96.2588 25.7893 96.2588 46.3242V77.6514H55.3429C28.5349 77.6514 14.2635 77.6515 14.0671 78.1435C13.8707 78.6356 14.067 78.6684 14.7217 78.6684C15.1546 78.6595 15.5826 78.7611 15.9656 78.9636C15.8928 80.5776 15.5727 82.1709 15.0163 83.6873C13.5434 89.0998 13.5434 88.9358 14.8199 88.9358C16.0965 88.9358 15.8346 89.2966 15.8346 141.782C15.8346 194.267 15.8347 194.661 14.8199 194.661C13.8052 194.661 13.5433 194.464 15.0818 200.041C15.8019 202.567 16.3583 204.699 16.3583 204.765C16.3583 204.83 15.9001 204.765 15.3764 204.765C14.8527 204.765 14.198 204.961 14.0671 205.257C13.9361 205.552 28.0112 205.847 54.8847 205.88L95.9969 206.044V215.688C95.9969 226.71 96.6516 225.956 90.5633 224.217C86.6027 223.134 85.3261 223.167 85.3261 224.512C85.3261 225.168 83.7876 225.299 73.8042 225.299C69.9568 225.073 66.0965 225.238 62.2823 225.792C66.0919 226.391 69.956 226.567 73.8042 226.316C82.6747 226.316 85.3261 226.316 85.3261 226.972C85.3261 228.777 86.1117 228.875 90.6615 227.596C92.2794 227.088 93.9476 226.758 95.6368 226.612C95.8987 226.612 96.0951 243.243 96.0951 263.319C96.0951 287.232 96.2588 299.698 96.5861 299.698C96.9134 299.698 97.1098 299.238 97.1098 298.681C97.1098 298.123 97.3717 297.664 97.6335 297.664C99.0474 297.927 100.446 298.266 101.823 298.681C103.337 299.124 104.879 299.464 106.439 299.698C106.568 299.698 106.696 299.672 106.814 299.62C106.932 299.567 107.038 299.491 107.124 299.395C107.211 299.299 107.276 299.185 107.316 299.062C107.356 298.939 107.369 298.809 107.355 298.681C107.355 297.664 107.715 297.664 217.762 297.664C327.81 297.664 328.202 297.664 328.432 298.681C328.661 299.698 329.021 299.698 329.315 299.698C330.762 299.435 332.193 299.096 333.603 298.681C338.415 297.336 338.84 297.336 338.84 298.976C338.84 299.698 339.037 300.157 339.364 299.96C339.913 292.253 340.077 284.524 339.855 276.801V253.838H358.055C364.115 254.079 370.185 253.904 376.221 253.314C376.221 253.051 375.567 252.789 374.748 252.789" fill="#A2A2A2"/>
<path d="M267.32 205.748C268.243 205.677 269.133 205.373 269.906 204.863C270.266 204.535 269.906 204.403 268.4 204.633C267.487 204.724 266.609 205.039 265.847 205.552C265.422 206.011 265.847 206.044 267.32 205.748Z" fill="#A2A2A2"/>
<path d="M316.253 142.307C316.809 142.307 317.267 142.077 317.267 141.782C317.267 141.487 316.809 141.257 316.253 141.257C315.696 141.257 315.205 141.52 315.205 141.782C315.205 142.045 315.663 142.307 316.253 142.307Z" fill="#A2A2A2"/>
<path d="M298.054 237.438C299.331 237.438 300.345 237.241 300.345 236.946C300.345 236.651 299.331 236.421 298.054 236.421C296.777 236.421 295.763 236.683 295.763 236.946C295.763 237.208 296.777 237.438 298.054 237.438Z" fill="#A2A2A2"/>
<path d="M248.37 270.666H246.831L240.972 261.678V270.666H239.434V259.021H240.972L246.831 268.042V259.021H248.37V270.666Z" fill="#A2A2A2"/>
<path d="M261.921 77.1924C260.677 77.1924 259.957 77.3892 260.153 77.6844C260.35 77.9797 261.397 78.2093 262.51 78.2093C263.623 78.2093 264.474 78.0125 264.277 77.6844C263.554 77.3017 262.737 77.1311 261.921 77.1924Z" fill="#A2A2A2"/>
<path d="M258.875 206.931C260.151 206.931 261.133 206.57 261.035 206.274C260.937 205.979 257.762 205.914 257.074 206.57C256.387 207.226 257.402 207.029 258.875 206.931Z" fill="#A2A2A2"/>
<path d="M128.236 141.323C127.712 141.323 127.254 141.585 127.254 141.848C127.254 142.11 127.876 142.372 128.596 142.372C129.316 142.372 129.774 142.143 129.578 141.848C129.401 141.674 129.191 141.538 128.961 141.447C128.73 141.357 128.483 141.315 128.236 141.323Z" fill="#A2A2A2"/>
<path d="M306.238 237.438C307.547 237.438 308.562 237.241 308.562 236.946C308.562 236.651 307.547 236.421 306.238 236.421C304.928 236.421 303.946 236.683 303.946 236.946C303.946 237.208 304.961 237.438 306.238 237.438Z" fill="#A2A2A2"/>
<path d="M2.11852 140.635H4.76985C5.45328 140.676 6.12823 140.466 6.66835 140.044C6.89064 139.828 7.06411 139.567 7.17705 139.279C7.29 138.99 7.33976 138.681 7.323 138.371C7.33363 138.062 7.28105 137.754 7.16846 137.467C7.05587 137.179 6.88566 136.917 6.66835 136.698C6.1692 136.265 5.52824 136.031 4.86805 136.042H2.02032L2.11852 140.635ZM2.11852 141.881V146.441H0.580078V134.796H4.76985C5.85156 134.731 6.91689 135.083 7.74854 135.78C8.43214 136.468 8.81589 137.4 8.81589 138.371C8.81589 139.342 8.43214 140.274 7.74854 140.963C6.88414 141.639 5.798 141.967 4.70437 141.881H2.11852Z" fill="#A2A2A2"/>
<path d="M39.073 140.241C39.1688 139.087 38.8811 137.934 38.2547 136.961C37.9839 136.603 37.6317 136.315 37.2275 136.121C36.8233 135.927 36.3787 135.832 35.9307 135.845C35.4861 135.824 35.0431 135.914 34.6427 136.109C34.2422 136.304 33.8972 136.597 33.6394 136.961C33.0299 137.869 32.7312 138.951 32.7884 140.044V140.897C32.6901 142.051 32.978 143.205 33.6067 144.177C33.8825 144.526 34.2333 144.807 34.6329 145.001C35.0325 145.194 35.4706 145.295 35.9143 145.295C36.3581 145.295 36.7962 145.194 37.1958 145.001C37.5953 144.807 37.9462 144.526 38.222 144.177C38.8645 143.211 39.1642 142.055 39.073 140.897V140.241ZM40.6115 140.996C40.6292 141.997 40.4397 142.991 40.055 143.915C39.7534 144.676 39.2427 145.336 38.5821 145.818L40.6442 147.458L39.5968 148.409L37.1418 146.474C36.7397 146.524 36.3329 146.524 35.9307 146.474C35.0685 146.5 34.2181 146.268 33.4889 145.806C32.7597 145.344 32.1851 144.674 31.8391 143.882C31.4306 142.964 31.2294 141.967 31.2499 140.963V140.143C31.2262 139.116 31.4273 138.097 31.8391 137.158C32.1686 136.348 32.7404 135.66 33.4758 135.189C34.2152 134.737 35.0646 134.498 35.9307 134.498C36.7969 134.498 37.6463 134.737 38.3857 135.189C39.1262 135.64 39.7006 136.319 40.0223 137.125C40.4311 138.066 40.6321 139.084 40.6115 140.11V140.996Z" fill="#A2A2A2"/>
<path d="M62.3763 141.258C61.3337 141.007 60.3606 140.525 59.5285 139.847C59.2342 139.598 58.9992 139.286 58.8407 138.934C58.6821 138.582 58.604 138.2 58.612 137.814C58.6069 137.37 58.7048 136.932 58.898 136.534C59.0912 136.135 59.3743 135.787 59.7249 135.517C60.5405 134.895 61.549 134.582 62.5727 134.632C63.3071 134.624 64.0339 134.781 64.7003 135.091C65.2884 135.39 65.7942 135.829 66.1733 136.37C66.5082 136.913 66.6893 137.536 66.697 138.174H65.1258C65.1494 137.864 65.1028 137.553 64.9894 137.263C64.8761 136.973 64.6989 136.713 64.4712 136.501C63.9299 136.135 63.2915 135.939 62.6381 135.939C61.9848 135.939 61.3464 136.135 60.8051 136.501C60.5987 136.664 60.4345 136.874 60.3263 137.114C60.218 137.354 60.1689 137.616 60.1832 137.879C60.1831 138.113 60.2361 138.344 60.3382 138.554C60.4403 138.764 60.5888 138.949 60.7724 139.093C61.3935 139.524 62.0948 139.825 62.8346 139.979C63.619 140.2 64.3764 140.508 65.0931 140.897C65.5889 141.169 66.0062 141.564 66.3042 142.045C66.5751 142.513 66.711 143.046 66.697 143.587C66.7113 144.023 66.6206 144.457 66.4326 144.851C66.2446 145.245 65.9648 145.588 65.6168 145.85C64.7428 146.452 63.6971 146.751 62.6381 146.703C61.8727 146.703 61.1154 146.547 60.4123 146.244C59.7764 145.979 59.2226 145.549 58.8084 144.998C58.4443 144.454 58.2505 143.815 58.252 143.16H59.7904C59.7746 143.482 59.838 143.803 59.975 144.095C60.1119 144.387 60.3183 144.64 60.576 144.833C61.1735 145.268 61.9003 145.488 62.6381 145.457C63.2971 145.502 63.9527 145.329 64.5039 144.965C64.7206 144.809 64.8944 144.602 65.0089 144.361C65.1234 144.12 65.1749 143.853 65.1586 143.587C65.1688 143.337 65.1209 143.089 65.0187 142.861C64.9164 142.633 64.7626 142.433 64.5694 142.275C63.9045 141.829 63.1597 141.518 62.3763 141.356" fill="#A2A2A2"/>
<path d="M73.1499 146.44H71.6769V136.566L68.6982 137.649V136.304L72.9208 134.729H73.1499V146.44Z" fill="#A2A2A2"/>
<path d="M357.202 133.122H362.734V134.369H355.664V122.724H357.202V133.122Z" fill="#A2A2A2"/>
<path d="M154.816 4.53272C155.124 4.15213 155.514 3.84556 155.955 3.63552C156.397 3.42549 156.88 3.31732 157.369 3.31898C159.202 3.31898 160.119 4.36869 160.119 6.59932V12.3071H158.613V6.56654C158.637 6.32009 158.611 6.0714 158.538 5.8349C158.465 5.59839 158.346 5.37875 158.188 5.18878C158.011 5.03023 157.803 4.91041 157.578 4.83697C157.353 4.76354 157.114 4.73812 156.878 4.76234C156.438 4.76026 156.006 4.88555 155.635 5.12318C155.268 5.38237 154.974 5.73282 154.784 6.14008V12.3071H153.311V0.00585938H154.784L154.816 4.53272Z" fill="#A2A2A2"/>
<path d="M142.409 291.267H140.87V285.887H134.978V291.267H133.473V279.589H134.978V284.608H140.87V279.589H142.409V291.267Z" fill="#A2A2A2"/>
<path d="M145.748 252.559C145.849 251.404 145.561 250.249 144.93 249.278C144.665 248.914 144.314 248.622 143.908 248.427C143.503 248.232 143.055 248.142 142.606 248.163C142.161 248.141 141.718 248.232 141.318 248.427C140.917 248.622 140.572 248.914 140.315 249.278C139.701 250.184 139.402 251.268 139.464 252.362V253.215C139.356 254.374 139.658 255.535 140.315 256.495C140.571 256.863 140.915 257.16 141.315 257.361C141.715 257.561 142.159 257.658 142.606 257.643C143.052 257.665 143.497 257.578 143.902 257.39C144.306 257.201 144.659 256.917 144.93 256.561C145.522 255.634 145.808 254.543 145.748 253.444V252.559ZM147.287 253.313C147.31 254.339 147.109 255.358 146.698 256.298C146.379 257.096 145.817 257.773 145.094 258.234C144.349 258.701 143.484 258.94 142.606 258.922C141.749 258.937 140.906 258.697 140.184 258.234C139.451 257.775 138.879 257.098 138.547 256.298C138.139 255.391 137.927 254.407 137.925 253.411V252.559C137.905 251.543 138.106 250.536 138.514 249.606C138.846 248.799 139.416 248.113 140.147 247.638C140.878 247.164 141.735 246.923 142.606 246.949C143.469 246.935 144.319 247.162 145.061 247.605C145.796 248.076 146.368 248.764 146.698 249.573C147.106 250.514 147.307 251.533 147.287 252.559V253.313Z" fill="#A2A2A2"/>
<path d="M641.135 101.237C641.058 99.3868 641.147 97.5332 641.4 95.6987C644.14 97.2639 646.711 99.1088 649.073 101.204C647.092 103.114 644.867 104.753 642.458 106.079L641.235 106.809L641.135 101.237Z" fill="#D3D3D3"/>
<path d="M652.58 89.1992C652.588 89.0819 652.641 88.9722 652.727 88.8922C652.813 88.8121 652.926 88.7678 653.043 88.7681C653.157 88.7681 653.266 88.8135 653.347 88.8944C653.428 88.9752 653.473 89.0849 653.473 89.1992C653.478 89.2571 653.47 89.3154 653.451 89.37C653.431 89.4246 653.399 89.4742 653.358 89.5153C653.317 89.5564 653.268 89.588 653.213 89.6079C653.159 89.6277 653.101 89.6354 653.043 89.6304C652.984 89.635 652.924 89.6272 652.868 89.6076C652.812 89.5879 652.761 89.5569 652.718 89.5164C652.674 89.4759 652.639 89.4268 652.616 89.3722C652.592 89.3176 652.58 89.2587 652.58 89.1992Z" fill="#D3D3D3"/>
<path d="M614.745 167.267C614.745 166.836 611.438 166.505 610.412 166.836C610.115 166.836 609.982 167.267 610.115 167.466C611.632 167.962 613.276 167.891 614.745 167.267Z" fill="#A2A2A2"/>
<path d="M555.842 166.671C553.825 166.671 553.296 166.671 553.296 167.268C553.296 167.865 553.825 167.865 555.842 167.865C557.86 167.865 558.389 167.865 558.389 167.268C558.389 166.671 557.86 166.671 555.842 166.671Z" fill="#A2A2A2"/>
<path d="M660.58 73.5119C660.58 74.142 660.249 74.9048 660.15 75.2033C659.437 77.4406 658.874 79.7229 658.463 82.0351C658.463 82.4994 658.761 82.6984 659.422 82.6984H660.414V167.4V252.036H659.554C658.364 252.202 658.397 252.666 659.786 257.442C660.259 258.817 660.581 260.241 660.745 261.687C660.546 262.052 574.36 262.085 573.996 261.687C573.632 261.289 573.632 210.149 573.996 209.851C574.36 209.552 574.889 209.851 575.716 210.149C579.192 210.704 582.717 210.893 586.233 210.713C597.907 210.713 597.18 211.177 597.312 204.08V198.907H627.375L628.367 197.845C630.461 195.082 632.081 191.988 633.163 188.692C633.99 184.499 633.99 180.183 633.163 175.99C632.526 174.231 631.671 172.559 630.616 171.015C629.558 169.423 628.698 168.031 628.698 167.964C630.453 167.752 632.223 167.686 633.989 167.765C638.454 167.765 639.314 167.765 639.314 167.168C639.314 166.571 638.421 166.571 633.626 166.571C631.716 166.652 629.803 166.585 627.904 166.372C628.309 165.639 628.774 164.94 629.293 164.283C632.331 159.869 633.851 154.584 633.626 149.226C633.122 144.737 631.52 140.442 628.962 136.723L627.441 134.236H597.246V103.426V72.5501H628.996H660.745L660.58 73.5119ZM620.694 265.667C620.066 265.667 619.537 265.501 619.537 265.269C619.537 265.036 620.926 264.075 621.422 264.539C621.918 265.003 621.951 265.667 620.694 265.667ZM572.376 199.338L572.144 204.777L570.953 204.08C569.928 203.55 568.043 203.417 557.195 203.317H544.132C543.735 203.317 543.636 201.858 543.636 197.414V191.478H545.322C549.341 191.142 553.187 189.696 556.435 187.299C561.523 183.647 565.063 178.216 566.356 172.077C566.588 170.75 566.853 169.224 566.952 168.76V167.898H574.36H581.702V170.65C581.382 176.612 579.387 182.36 575.947 187.233C572.64 191.544 572.64 192.307 572.21 199.238L572.376 199.338ZM572.21 216.882C572.21 227.295 572.21 227.428 571.35 228.191C569.101 230.247 568.771 230.28 555.674 230.28H543.503V204.942H556.302C568.771 204.942 569.168 204.943 570.656 205.805L572.21 206.667V216.882ZM572.21 269.945C572.21 276.345 572.21 276.843 571.45 277.241C569.516 277.569 567.555 277.702 565.596 277.639C561.296 277.639 560.437 277.639 560.238 277.009C560.049 274.803 559.972 272.589 560.007 270.376C560.142 268.267 560.009 266.15 559.61 264.075C558.419 263.312 559.775 263.08 565.728 263.08H572.343L572.21 269.945ZM556.005 283.608C555.376 283.94 555.31 283.807 555.31 282.381C555.31 280.955 555.31 280.557 556.699 281.42C558.088 282.282 557.526 282.779 556.005 283.608ZM528.72 281.42C530.043 280.557 530.142 280.591 530.142 282.182C530.142 283.774 529.448 283.973 528.389 282.813C527.761 282.149 527.827 282.05 528.72 281.42ZM572.21 291.369C572.21 300.954 572.21 303.673 571.747 303.673C570.173 303.357 568.617 302.958 567.084 302.479C564.802 301.849 562.718 301.285 562.487 301.285C562.255 301.285 561.991 301.816 561.991 302.479V303.673H542.445H522.866V302.612C522.845 302.226 522.767 301.846 522.635 301.484L518.104 302.645C514.797 303.507 513.672 303.673 513.507 303.341C513.341 303.01 513.507 297.604 513.507 291.137V279.43H519.493H525.479V282.58C525.479 284.338 525.777 285.897 526.008 285.897C526.24 285.897 526.438 285.499 526.504 285.035C526.67 283.841 527.199 283.874 528.952 285.3C531.432 287.29 531.697 287.024 531.697 282.978C531.792 281.704 531.657 280.424 531.3 279.198C531.068 279.198 530.076 279.463 529.117 280.126C528.461 280.652 527.724 281.066 526.934 281.353C526.576 278.55 526.465 275.72 526.603 272.896C526.603 264.871 526.603 264.406 527.364 264.008C529.937 263.631 532.542 263.531 535.136 263.71H542.114V265.998C542.114 267.656 542.379 268.253 542.776 268.253C543.173 268.253 543.371 267.69 543.371 265.899V263.511H549.986C559.213 263.511 558.651 262.848 558.651 273.46C558.901 276.098 558.756 278.759 558.221 281.353C557.428 281.074 556.689 280.659 556.038 280.126C555.046 279.463 554.153 279.032 554.02 279.164C553.593 281.27 553.493 283.429 553.723 285.565L553.954 286.892L556.005 285.499C556.724 284.951 557.5 284.484 558.32 284.106C558.32 284.106 558.651 284.504 558.717 285.035C558.981 286.925 559.61 285.565 559.808 282.746L560.007 279.795H566.026H572.012L572.21 291.369ZM542.114 231.673V261.521L534.541 261.72L526.901 261.886L525.975 263.013C525.049 264.075 525.016 264.34 525.016 270.343C525.211 272.564 525.055 274.803 524.553 276.976C520.99 277.639 517.335 277.639 513.771 276.976C513.573 276.677 513.474 266.131 513.54 253.462C513.54 231.971 513.705 230.479 514.334 230.811C514.962 231.142 520.948 231.176 528.555 231.308L542.114 231.673ZM528.885 230.214C515.656 230.214 515.656 230.214 514.598 229.385L513.507 228.522V206.833L514.764 205.738L516.086 204.677H529.051H542.015V229.882L528.885 230.214ZM508.678 186.802C507.803 185.531 506.997 184.213 506.264 182.855C506.066 182.391 506.76 182.192 510.1 181.827C516.153 181.13 516.02 181.164 515.723 179.837C515.425 178.51 515.723 178.61 516.979 178.046C519.361 177.018 519.857 177.118 520.783 178.709C523.32 183.153 527.104 186.751 531.664 189.057C534.133 190.228 536.784 190.968 539.502 191.246C542.148 191.246 542.247 191.478 542.247 197.381C542.247 202.024 542.247 202.687 541.585 203.019C537.186 203.398 532.77 203.542 528.356 203.45C518.435 203.45 515.59 203.649 514.764 204.08L513.705 204.611L513.474 199.703C513.242 194.131 512.878 193.07 508.711 186.802H508.678ZM511.092 208.723C510.846 206.078 510.758 203.42 510.828 200.764C510.828 194.595 510.828 193.136 511.357 193.534C511.907 196.149 512.097 198.827 511.919 201.493C511.919 208.358 511.919 209.552 511.092 208.723ZM509.274 208.226C509.009 208.226 508.877 206.634 508.81 204.18C508.744 201.726 508.81 197.878 508.81 195.126C508.81 192.373 508.811 190.184 509.174 190.184C509.768 196.181 509.834 202.218 509.373 208.226H509.274ZM507.388 197.945H496.375C490.323 197.945 485.362 197.945 485.362 197.713C485.554 197.258 485.81 196.833 486.123 196.452C487.508 194.212 488.681 191.847 489.629 189.388C490.236 187.109 490.46 184.744 490.29 182.391C490.608 179.719 490.185 177.01 489.066 174.564C488.336 172.996 487.485 171.488 486.52 170.054C485.759 169.025 485.131 168.064 485.065 167.931C486.572 167.592 488.121 167.48 489.662 167.599C493.63 167.599 494.424 167.599 494.424 167.002C494.424 166.405 493.564 166.405 488.967 166.405H483.477L482.419 165.178C478.753 159.92 477.27 153.438 478.285 147.104C479.168 143.419 480.751 139.94 482.948 136.856L484.072 135.463H495.35H506.595V143.754C506.595 151.448 506.595 152.045 507.322 151.913C508.05 151.78 507.951 151.481 507.851 150.918C507.812 150.73 507.819 150.535 507.871 150.351C507.923 150.166 508.018 149.996 508.149 149.856C509.839 149.949 511.508 150.273 513.11 150.818C517.442 151.979 518.468 152.045 518.368 151.083C518.203 149.624 518.368 149.591 525.214 149.691H531.829V150.785C531.829 151.382 532.16 151.846 532.424 151.846C534.021 151.52 535.599 151.11 537.154 150.619C538.65 150.086 540.228 149.817 541.817 149.823C542.098 152.544 542.176 155.282 542.048 158.015V165.842L522.999 166.041C516.654 165.897 510.306 166.096 503.982 166.638C506.245 167.1 508.553 167.301 510.861 167.235L517.641 167.434L518.137 170.385C518.35 171.711 518.66 173.019 519.063 174.299C519.559 175.426 519.394 175.592 516.946 176.487L515.061 177.25L514.334 176.288L513.639 175.36L509.935 178.212C508.644 179.274 507.261 180.218 505.801 181.031C504.875 181.031 503.42 175.426 503.089 170.518C502.858 167.201 502.791 166.969 501.7 166.472C500.609 165.974 496.805 166.041 496.905 166.472C497.636 166.868 498.455 167.073 499.286 167.069L501.568 167.268L501.998 171.811C502.227 176.212 503.545 180.486 505.834 184.248L507.256 186.404L507.388 197.945ZM483.973 196.253C483.676 196.253 483.146 195.922 482.683 195.325C481.247 193.142 480.133 190.763 479.376 188.261C478.192 184.099 478.192 179.688 479.376 175.526C480.216 173.058 481.568 170.797 483.345 168.893C483.929 169.426 484.461 170.015 484.932 170.65C490.224 177.283 490.621 184.248 486.156 192.738C485.6 194.046 484.853 195.265 483.94 196.353L483.973 196.253ZM475.705 198.044C473.497 198.151 471.283 198.062 469.091 197.779C469.091 197.779 469.653 195.524 470.281 193.036C470.794 191.467 471.116 189.841 471.24 188.194C471.24 187.962 470.645 187.796 470.215 187.796C469.785 187.796 469.488 187.332 469.488 166.704C469.488 146.076 469.487 145.611 470.281 145.611C470.475 145.621 470.669 145.581 470.843 145.494C471.017 145.407 471.165 145.276 471.273 145.114C471.146 143.475 470.813 141.86 470.281 140.305C469.834 138.862 469.491 137.387 469.256 135.894C473.354 135.662 477.461 135.662 481.559 135.894C481.342 136.578 481.006 137.218 480.567 137.785C478.215 141.42 476.848 145.607 476.598 149.933C476.349 154.259 477.227 158.576 479.145 162.459C480.104 164.482 480.898 166.206 480.898 166.306C479.53 166.517 478.145 166.583 476.763 166.505C473.456 166.505 472.629 166.505 472.629 167.102C472.629 167.699 473.357 167.699 476.995 167.699C478.404 167.578 479.823 167.69 481.195 168.031L479.872 170.65C477.82 174.095 476.873 178.09 477.16 182.092C476.907 186.444 478.068 190.761 480.468 194.396C481.394 196.22 482.187 197.713 482.187 197.713C479.987 197.888 477.779 197.943 475.573 197.878L475.705 198.044ZM520.254 174.265C519.544 172.219 519.197 170.064 519.228 167.898C522.522 167.524 525.838 167.402 529.15 167.533C532.175 167.379 535.209 167.501 538.212 167.898C538.013 168.097 535.401 169.224 532.358 170.485L524.09 173.801C520.783 175.161 520.783 175.161 520.419 174.199L520.254 174.265ZM521.742 176.222C522.205 175.791 540.031 168.362 541.585 168.031L542.511 167.798V178.743V189.753H540.56C538.803 189.754 537.063 189.416 535.434 188.758C531.712 187.522 528.374 185.339 525.744 182.424C523.329 179.837 521.477 176.653 522.073 176.156L521.742 176.222ZM508.678 135.596C508.976 135.596 516.781 135.297 525.975 135.397H542.71V142.03C542.777 144.245 542.677 146.462 542.412 148.662C540.891 148.539 539.392 148.227 537.947 147.734C532.854 146.275 532.49 146.275 532.49 147.535C532.49 148.066 532.259 148.497 532.027 148.497L525.413 148.662C520.452 148.828 519.162 148.662 518.798 148.298C518.435 147.933 518.435 147.568 518.6 147.336C519.261 146.208 516.946 146.573 509.307 148.729C509.173 148.796 509.026 148.831 508.877 148.831C508.727 148.831 508.58 148.796 508.447 148.729C508.195 146.527 508.107 144.31 508.182 142.096C508.182 137.088 508.182 135.795 508.744 135.463L508.678 135.596ZM508.579 74.8385C508.579 47.8758 508.579 25.523 508.81 25.0918C509.042 24.6607 509.207 24.5612 509.373 24.6607C512.467 25.682 515.642 26.4365 518.865 26.9159C519.07 26.594 519.205 26.2324 519.261 25.8546C519.261 25.0587 519.758 25.0587 551.97 24.926C584.182 24.7934 586.101 24.926 585.472 26.0204C585.414 26.1332 585.384 26.2583 585.384 26.3852C585.384 26.5122 585.414 26.6372 585.472 26.7501C585.704 27.148 586.861 26.9822 590.4 26.0536L595.526 24.6275C596.055 24.4285 596.122 27.3138 596.122 47.4778V70.6929H573.765V63.2309C573.599 53.5801 574.128 54.177 566.423 54.0444H560.668V51.8555C560.668 50.6948 560.668 47.2457 560.668 44.2609C560.668 40.0821 560.668 38.8219 560.172 38.9546C559.676 39.0872 559.61 39.9495 559.544 41.1103V43.1333L555.343 41.9725C550.085 40.5465 549.754 40.5465 549.754 41.8067V42.8016H537.187V41.8067C537.187 40.5133 536.525 40.5465 531.498 41.9725C530.12 42.4231 528.703 42.7451 527.265 42.9343C526.982 42.2535 526.88 41.5109 526.967 40.7786C526.967 39.3857 526.802 38.8551 526.504 38.9546C526.207 39.0541 525.942 41.0771 525.843 46.7814V54.4423H520.287C514.995 54.4423 514.73 54.4424 513.672 55.2051L512.746 56.0674V89.7293C512.746 116.261 512.746 123.424 512.283 123.557C511.82 123.69 511.093 123.822 510.299 123.955L508.81 124.187L508.579 74.8385ZM593.807 123.623C593.153 123.465 592.578 123.076 592.186 122.529C591.548 121.85 590.751 121.342 589.867 121.053C588.983 120.763 588.04 120.7 587.126 120.871C586.035 120.871 585.538 120.871 585.373 120.506C585.327 120.357 585.234 120.228 585.11 120.136C584.985 120.043 584.834 119.994 584.678 119.994C584.523 119.994 584.372 120.043 584.248 120.136C584.123 120.228 584.03 120.357 583.984 120.506C583.984 120.804 583.124 120.937 581.867 120.838C580.895 120.725 579.911 120.831 578.984 121.146C578.058 121.462 577.213 121.979 576.51 122.662C576.045 123.142 575.422 123.437 574.757 123.491C574.095 123.491 574.029 122.297 573.93 97.6224V71.92H596.353V97.9541C596.353 126.807 596.585 124.088 593.906 123.69L593.807 123.623ZM591.822 132.412C592.748 131.583 592.814 131.185 592.814 128.299C592.814 125.414 592.814 125.149 593.641 125.149C594.19 125.187 594.727 125.321 595.229 125.547C595.89 125.945 595.956 126.409 595.956 129.891V133.805H593.674C592.816 133.873 591.953 133.783 591.128 133.539C590.962 133.539 591.326 132.909 591.822 132.412ZM591.26 131.052C590.995 131.052 590.863 129.792 590.863 128.101C590.863 126.409 590.863 125.149 591.26 125.149C591.657 125.149 591.624 126.409 591.624 128.101C591.624 129.792 591.624 131.052 591.26 131.052ZM582.297 123.557C581.559 123.624 580.815 123.533 580.115 123.292C579.453 122.662 580.115 122.396 582 122.396C583.885 122.396 584.182 122.396 584.182 122.96C584.182 123.524 583.686 123.557 582.297 123.557ZM587.556 122.396C589.11 122.396 589.706 122.396 589.606 122.894C589.507 123.391 586.101 123.756 585.638 123.325C585.175 122.894 585.638 122.396 587.556 122.396ZM589.706 125.149V128.465V131.782H587.82C586.167 131.782 585.902 131.782 585.704 131.085C585.505 130.389 584.414 130.024 584.414 131.085C584.414 132.147 584.116 131.881 582.43 131.881H580.478V125.248H584.414V127.205C584.414 128.698 584.414 129.195 584.976 129.195C585.538 129.195 585.572 128.698 585.572 127.205V125.68L589.706 125.149ZM583.422 171.745L583.885 167.334H593.608V209.254H584.513C581.33 209.479 578.131 209.311 574.988 208.756C573.566 208.06 573.302 206.269 573.467 199.802C573.632 193.335 573.897 192.539 576.543 188.957C580.167 184.139 582.357 178.39 582.86 172.375L583.422 171.745ZM572.111 111.386V123.988H569.565C568.399 124.05 567.23 123.95 566.092 123.69C565.476 123.431 564.972 122.961 564.67 122.363C564.315 118.416 564.227 114.449 564.405 110.49C564.405 101.37 564.637 99.5791 565.133 99.0485C565.629 98.5179 571.747 97.6224 571.979 98.3189C571.979 98.5179 571.979 104.388 571.979 111.319L572.111 111.386ZM547.803 119.047C552.598 119.047 552.565 119.047 551.375 121.6C550.266 123.828 548.418 125.598 546.149 126.608C543.437 127.703 543.47 127.769 543.47 123.292V119.047H547.803ZM544.496 108.202C546.499 108.637 548.318 109.684 549.704 111.198C551.09 112.713 551.974 114.62 552.235 116.659V117.853H543.603V112.878C543.603 107.97 543.603 107.97 544.496 108.202ZM554.781 124.154C552.929 124.154 551.904 124.154 552.069 123.756C552.155 123.644 552.265 123.552 552.391 123.489C552.517 123.426 552.656 123.392 552.797 123.391C553.251 123.279 553.656 123.023 553.954 122.662C554.45 122.065 554.616 121.136 554.616 118.118C554.616 115.1 554.616 114.205 553.822 113.508C553.505 113.146 553.092 112.882 552.631 112.745C552.526 112.745 552.425 112.703 552.351 112.629C552.276 112.554 552.235 112.453 552.235 112.347C552.235 112.115 553.26 111.949 554.583 111.949C556.766 111.949 556.898 111.949 557.89 113.442C558.444 114.264 558.754 115.228 558.783 116.22C558.812 117.212 558.56 118.193 558.055 119.047C557.7 119.649 557.517 120.337 557.526 121.037C557.758 124.353 557.791 124.353 554.517 124.353L554.781 124.154ZM562.024 123.756C562.024 124.021 561.627 124.22 561.131 124.287C560.635 124.353 560.238 124.287 560.238 123.756C560.238 123.225 560.503 123.192 561.131 123.259C561.759 123.325 562.024 123.59 562.024 123.756ZM561.429 109.761C560.892 109.267 560.19 108.992 559.461 108.992C558.732 108.992 558.03 109.267 557.493 109.761C556.832 110.457 556.203 110.557 553.69 110.557C551.176 110.557 550.382 110.557 549.258 109.396C548.164 108.586 546.947 107.959 545.653 107.539L543.338 106.809V102.464H545.025C550.974 102.976 556.871 103.985 562.652 105.482C563.115 105.748 563.082 110.358 562.652 110.358C562.21 110.186 561.814 109.914 561.495 109.562L561.429 109.761ZM576.907 132.777L578.163 133.871H543.47V131.085C543.47 128.499 543.47 128.333 544.363 128.333C546.182 127.994 547.901 127.245 549.39 126.144C549.92 125.646 552.036 125.58 562.785 125.646H575.517V128.598C575.517 131.384 575.683 131.649 576.873 132.644L576.907 132.777ZM577.535 123.093C577.587 123.088 577.64 123.094 577.689 123.11C577.739 123.126 577.786 123.151 577.826 123.185C577.866 123.219 577.898 123.261 577.922 123.307C577.946 123.354 577.961 123.405 577.965 123.458C577.965 123.723 577.965 123.855 577.799 123.855C577.702 123.827 577.613 123.776 577.538 123.707C577.464 123.638 577.406 123.552 577.37 123.458C577.37 123.259 577.37 123.093 577.535 123.093ZM577.37 125.248C577.601 125.248 577.799 126.575 577.899 128.333C577.998 130.09 577.899 131.351 577.568 131.351C577.426 131.325 577.294 131.262 577.183 131.169C577.073 131.076 576.989 130.956 576.94 130.82C576.662 128.954 576.809 127.049 577.37 125.248ZM559.874 71.0246V64.3917C559.855 61.8451 559.966 59.2992 560.205 56.7639C560.47 55.7689 560.503 55.7689 565.497 55.6694C567.365 55.4129 569.266 55.537 571.086 56.0342C571.516 56.3659 571.648 58.0241 571.648 63.6952V70.9582L559.874 71.0246ZM571.681 72.2185V84.0582C571.681 97.3239 571.913 96.6607 568.142 96.6607C567.258 96.5734 566.365 96.7028 565.541 97.0379C564.717 97.3729 563.987 97.9036 563.413 98.5842C563.134 99.4743 563 100.404 563.016 101.337C563.016 103.294 563.016 103.36 561.958 103.327C561.121 103.265 560.291 103.132 559.477 102.929C555.468 102.02 551.402 101.389 547.307 101.038L543.57 100.806V72.6165H557.625L571.681 72.2185ZM557.129 50.9269C556.17 51.557 555.939 51.3912 555.939 50.0978C555.939 48.8044 556.567 48.6717 557.295 49.8657C557.592 50.3631 557.559 50.6616 557.129 50.9269ZM527.364 49.5672C528.356 48.8707 528.753 49.1029 528.753 50.3631C528.753 51.6234 528.489 51.5239 527.43 50.7279C526.372 49.932 526.637 50.131 527.43 49.5672H527.364ZM541.585 106.312C541.387 106.312 540.329 106.676 539.27 106.942C537.961 107.333 536.73 107.95 535.632 108.766C534.045 109.993 533.681 110.059 530.969 110.059C528.257 110.059 528.026 110.059 528.026 109.462C528.026 108.865 527.529 108.633 526.901 108.301C526.606 108.12 526.277 108.001 525.935 107.951C525.592 107.901 525.243 107.922 524.909 108.012C524.575 108.102 524.262 108.259 523.99 108.474C523.719 108.689 523.494 108.958 523.329 109.263C522.8 110.225 522.304 110.291 521.973 109.263C521.818 108.555 521.74 107.832 521.742 107.107C521.742 105.847 521.94 105.482 522.833 105.051C527.932 103.093 533.347 102.093 538.807 102.1H542.114V104.056C542.114 105.084 542.114 106.013 541.718 106.046L541.585 106.312ZM537.253 117.223H532.424L532.689 115.73C533.079 113.719 534.063 111.871 535.514 110.428C536.965 108.985 538.816 108.013 540.825 107.638H542.114V117.09L537.253 117.223ZM541.155 126.674C540.262 126.641 539.384 126.427 538.576 126.044C536.449 125.153 534.72 123.514 533.714 121.434C532.292 118.383 532.259 118.45 537.517 118.549H542.114V122.496C542.114 126.376 542.114 126.409 541.155 126.542V126.674ZM531.895 122.695C533.483 123.259 533.086 123.458 530.142 123.458H527.331V120.838C527.331 119.312 527.331 116.957 527.331 115.498C526.967 112.182 527.662 111.253 530.903 111.253H533.053L531.664 112.58C530.274 113.873 530.275 113.939 530.275 117.09C530.275 120.838 530.704 122.164 532.027 122.695H531.895ZM524.421 121.899C524.884 121.899 525.148 122.164 525.148 122.695C525.148 123.225 523.858 123.822 523.395 123.06C522.932 122.297 523.395 121.899 524.421 121.899ZM534.574 125.049L536.823 126.31C537.968 126.951 539.191 127.441 540.461 127.769L541.85 128.001L542.048 130.488C542.144 131.381 542.144 132.282 542.048 133.175C541.751 133.44 509.505 133.34 509.24 133.175C508.798 130.874 508.798 128.511 509.24 126.21L509.604 125.182L534.574 125.049ZM515.061 97.9872C515.987 97.9872 517.641 98.4847 518.699 98.75L520.617 99.2143V123.259H517.31C516.095 123.36 514.873 123.304 513.672 123.093C513.672 123.093 513.374 117.156 513.374 110.192V97.6224L515.061 97.9872ZM526.14 70.7924L527.066 71.8205H542.048V100.077L540.031 100.375C538.873 100.375 537.021 100.607 535.897 100.607C532.005 100.891 528.157 101.603 524.421 102.73C523.759 103.005 523.072 103.216 522.37 103.36C522.172 103.36 522.006 102.199 522.006 100.839C522.006 98.3189 522.006 98.2857 520.75 97.8877C520.055 97.6887 518.401 97.2908 517.079 97.0586C515.756 96.8265 514.433 96.4948 514.069 96.4285C513.705 96.3622 513.341 94.9361 513.341 76.3641C513.341 58.8532 513.341 56.4654 513.97 55.9016C514.598 55.3378 515.524 55.2383 519.096 55.2383C525.347 55.2383 525.148 54.973 525.148 63.2973C525.148 69.5653 525.148 69.9301 526.14 70.7924ZM543.47 231.806H555.972C566.555 231.806 568.705 231.806 569.73 231.176C570.296 230.982 570.799 230.638 571.185 230.181C572.045 228.854 572.177 231.043 572.078 245.934V261.985H557.824H543.57L543.47 231.806ZM543.47 69.6648C543.305 67.4096 542.445 67.2438 542.28 69.4326V71.1241H534.938C527.728 71.1241 527.596 71.124 527 70.3281C526.405 69.5322 526.372 68.0066 526.372 60.6773C526.292 57.7444 526.391 54.8093 526.67 51.8887C527.266 52.1242 527.823 52.4485 528.323 52.8505C528.821 53.2638 529.379 53.5992 529.977 53.8454C530.292 52.6908 530.404 51.4899 530.308 50.2968C530.365 49.1102 530.298 47.9209 530.109 46.7482C529.478 47.0108 528.879 47.3446 528.323 47.7431C527.767 48.1127 527.181 48.4344 526.57 48.7049C526.361 48.0069 526.293 47.2739 526.372 46.5492C526.372 43.9624 526.207 43.9955 531.829 45.5543C533.268 46.0297 534.754 46.352 536.261 46.516C536.506 46.169 536.623 45.7466 536.591 45.3221V44.3935H549.159V45.6206C549.159 46.5824 549.324 46.7814 549.886 46.6819C552.796 45.6541 555.797 44.91 558.849 44.4599C558.978 45.2839 558.978 46.1231 558.849 46.9472V49.2024L557.195 47.9753C556.595 47.5248 555.965 47.1149 555.31 46.7482C555.102 47.9187 555.035 49.1102 555.112 50.2968C555.014 51.488 555.115 52.6872 555.41 53.8454C556.012 53.6071 556.57 53.271 557.063 52.8505C557.568 52.4553 558.124 52.1317 558.717 51.8887C559.179 58.0707 559.179 64.2788 558.717 70.4608C558.32 71.1572 557.791 71.1904 551.044 71.1904H543.503L543.47 69.6648ZM563.314 167.865H565.695V169.125C565.042 175.454 561.944 181.276 557.063 185.342C553.554 188.116 549.335 189.84 544.892 190.317H543.669V167.865H547.406C551.639 167.865 552.433 167.069 548.696 166.737L546.215 166.505L548.1 165.643C548.791 165.319 549.497 165.032 550.217 164.78C550.712 164.651 551.19 164.462 551.639 164.217C552.896 163.686 565.893 158.28 568.407 157.285C569.631 156.821 569.763 156.821 570.391 157.683C571.02 158.545 570.987 158.811 575.451 155.395C576.522 154.385 577.781 153.596 579.155 153.073C580.148 153.405 582.463 163.023 582.132 165.41V166.538L571.582 166.737C568.077 166.633 564.569 166.833 561.098 167.334C561.098 167.566 562.156 167.765 563.446 167.865H563.314ZM596.022 188.559C596.022 203.848 595.791 208.624 595.427 209.022C595.063 209.42 594.898 209.32 594.898 209.022C594.898 205.175 594.898 168.031 595.096 167.865C595.989 167.002 596.089 169.921 596.022 188.46V188.559ZM625.589 138.481C626.714 136.69 626.846 136.657 627.507 137.221C628.353 138.314 629.064 139.505 629.624 140.769C631.3 143.736 632.216 147.073 632.291 150.482C632.366 153.891 631.598 157.265 630.054 160.303C628.235 163.852 626.747 165.709 626.085 164.979C624.424 162.288 623.123 159.389 622.216 156.357C621.257 152.102 621.579 147.659 623.142 143.588C623.847 141.835 624.665 140.129 625.589 138.481ZM625.126 136.093C625.126 136.093 625.126 136.591 624.729 136.955C623.334 138.864 622.22 140.964 621.422 143.19C620.302 146.7 619.952 150.411 620.397 154.068C620.68 157.604 621.815 161.018 623.704 164.018C624.224 164.814 624.688 165.645 625.093 166.505C623.795 166.737 622.474 166.815 621.157 166.737C617.85 166.737 617.222 166.737 617.222 167.334C617.222 167.931 618.016 167.931 621.852 167.931H626.515L628.235 170.02C629.36 171.446 630.325 172.992 631.112 174.63C632.117 176.69 632.584 178.973 632.468 181.263C632.916 186.455 631.432 191.63 628.301 195.789L626.945 197.878H597.18V168.031H602.471C604.263 168.137 606.06 167.958 607.796 167.5C603.747 167.021 599.667 166.855 595.592 167.002H583.422V165.311C583.246 161.188 582.363 157.127 580.809 153.305C580.313 152.112 580.148 152.045 578.825 152.244C575.491 152.565 572.179 153.074 568.903 153.77C568.903 153.77 568.903 154.334 569.168 154.765C569.697 155.793 569.664 155.793 559.643 159.872L548.134 164.283C546.776 164.903 545.385 165.446 543.966 165.908C543.402 160.932 543.259 155.918 543.536 150.918V135.927H560.073C581.074 135.927 583.554 135.927 583.554 136.591C583.533 136.678 583.532 136.77 583.551 136.858C583.571 136.946 583.61 137.029 583.665 137.1C583.721 137.171 583.792 137.228 583.873 137.267C583.954 137.307 584.043 137.327 584.133 137.327C584.223 137.327 584.312 137.307 584.393 137.267C584.474 137.228 584.545 137.171 584.6 137.1C584.656 137.029 584.695 136.946 584.714 136.858C584.734 136.77 584.733 136.678 584.712 136.591C584.712 136.193 585.108 135.994 585.836 135.961C590.499 135.961 624.63 135.96 624.762 136.193L625.126 136.093ZM616.56 67.7745C617.685 67.7745 617.751 67.7744 617.354 68.5704C616.957 69.3663 615.932 69.5985 615.634 68.5704C615.337 67.5423 615.304 67.6086 616.56 67.6086V67.7745ZM663.589 72.6165C665.243 72.6165 665.739 72.6165 665.739 72.0195C665.739 71.4226 662.795 71.4225 641.563 71.4225C628.334 71.4225 617.387 71.4226 617.387 71.1904C617.78 70.421 618.257 69.6979 618.809 69.0347C619.537 67.9734 620.099 66.9453 619.934 66.7132C618.778 66.3584 617.567 66.2234 616.362 66.3152C612.559 66.3152 612.426 66.3152 614.245 68.9684C614.732 69.5972 615.133 70.2888 615.436 71.0246C612.417 71.4996 609.353 71.6109 606.308 71.3562H597.147L596.948 46.516C596.948 30.3318 596.618 21.7754 596.353 21.7754C596.088 21.7754 595.923 22.6045 595.857 23.4668C595.791 24.3291 595.526 25.0255 595.328 25.0255C595.129 25.0255 592.88 24.5281 590.367 23.8648C584.778 22.4055 584.679 22.4055 584.976 23.6658C585.175 24.4285 584.976 24.6275 584.282 24.8265C583.587 25.0255 568.87 24.8265 551.209 24.8265H518.997L518.765 23.8648C518.435 22.6377 517.409 22.6708 512.382 24.0969C511.14 24.5054 509.851 24.7507 508.546 24.8265C508.205 24.1508 508.067 23.3904 508.149 22.6377C508.149 21.2116 507.984 20.681 507.686 20.8136C507.388 20.9463 507.157 32.5538 507.091 76.9278C507.091 107.671 506.892 133.307 506.727 133.772L506.495 134.634H486.487C479.737 134.339 472.975 134.494 466.246 135.098C465.916 135.596 466.875 136.292 467.536 136.027C468.198 135.761 468.396 136.425 467.206 140.769C466.577 143.157 466.081 145.346 466.081 145.611C466.081 145.877 466.577 146.076 467.239 146.076H468.429V188.261H467.239C466.577 188.261 466.081 188.46 466.081 188.791C466.081 189.123 466.61 191.179 467.239 193.6C467.718 195.084 468.018 196.621 468.132 198.177C467.835 198.39 467.497 198.537 467.139 198.608C466.743 198.608 466.379 198.907 466.346 199.106C473.145 199.641 479.967 199.818 486.784 199.636H507.289V204.379C507.289 209.751 507.653 210.216 510.332 210.547L511.952 210.813V259.564C511.952 286.394 511.952 308.482 512.184 308.581C512.415 308.681 513.11 308.382 513.11 306.923C513.077 306.352 513.144 305.78 513.308 305.232C514.44 305.295 515.555 305.53 516.616 305.928C518.302 306.426 520.353 306.956 521.147 307.089C522.469 307.354 522.569 307.321 522.569 306.326V305.298H561.892V306.293C561.892 307.553 562.289 307.553 567.382 306.094C569.664 305.464 571.648 304.933 571.78 304.933C571.913 304.933 572.111 305.762 572.177 306.824C572.243 307.885 572.508 308.581 572.706 308.581C572.905 308.581 573.136 300.589 573.202 285.996V263.511H596.022C608.557 263.511 618.842 263.511 618.842 263.843C618.552 264.407 618.146 264.904 617.652 265.302C617.168 265.71 616.764 266.205 616.461 266.761C617.754 267.036 619.077 267.136 620.397 267.059C621.716 267.139 623.04 267.038 624.332 266.761C624.055 266.188 623.647 265.688 623.142 265.302C622.664 264.896 622.271 264.4 621.984 263.843C621.984 263.677 631.377 263.478 642.886 263.445C659.157 263.445 663.821 263.212 663.953 262.848C664.085 262.483 663.655 262.35 662.696 262.35C661.737 262.35 661.307 262.151 661.307 261.853C661.61 260.285 661.996 258.735 662.465 257.21C663.093 254.921 663.655 252.965 663.655 252.799C663.655 252.633 663.192 252.467 662.597 252.401H661.506V167.765V83.0632H662.663C663.056 83.1419 663.461 83.1419 663.854 83.0632C663.854 83.0632 663.49 81.5377 663.027 79.7468C662.379 77.6606 661.871 75.5333 661.506 73.3792C661.506 73.0476 662.2 72.8818 663.655 72.8818" fill="#A2A2A2"/>
<path d="M542.084 104.554C542.084 105.582 542.084 106.51 541.687 106.543C541.29 106.577 540.431 106.908 539.372 107.174C538.063 107.565 536.832 108.182 535.734 108.998C534.147 110.225 533.783 110.291 531.071 110.291C528.359 110.291 528.128 110.291 528.128 109.694C528.128 109.097 527.631 108.865 527.003 108.533C526.708 108.352 526.379 108.232 526.037 108.183C525.694 108.133 525.345 108.154 525.011 108.244C524.677 108.334 524.364 108.491 524.092 108.706C523.821 108.921 523.596 109.19 523.431 109.495C522.902 110.457 522.406 110.523 522.075 109.495C521.92 108.787 521.842 108.064 521.844 107.339C521.844 106.079 522.042 105.714 522.935 105.283C528.034 103.325 533.449 102.325 538.909 102.332H542.216L542.084 104.554Z" fill="#D3D3D3"/>
<path d="M562.722 110.292C562.279 110.12 561.883 109.848 561.564 109.496C561.027 109.002 560.325 108.728 559.596 108.728C558.868 108.728 558.166 109.002 557.629 109.496C556.967 110.192 556.339 110.292 553.825 110.292C551.312 110.292 550.518 110.292 549.394 109.131C548.299 108.321 547.082 107.694 545.789 107.274L543.474 106.544V102.465H545.16C551.11 102.976 557.006 103.985 562.788 105.483C563.251 105.748 563.218 110.358 562.788 110.358" fill="#D3D3D3"/>
<path d="M571.784 63.9936V71.2566H559.977V64.6237C559.958 62.0771 560.068 59.5312 560.307 56.9959C560.572 56.001 560.605 56.001 565.599 55.9015C567.468 55.6449 569.369 55.769 571.188 56.2663C571.618 56.5979 571.751 58.2561 571.751 63.9272" fill="#D3D3D3"/>
<path d="M568.245 96.8931C567.36 96.8058 566.467 96.9352 565.644 97.2702C564.82 97.6053 564.089 98.1359 563.515 98.8166C563.236 99.7067 563.102 100.636 563.118 101.569C563.118 103.526 563.118 103.592 562.06 103.559C561.224 103.497 560.394 103.364 559.58 103.161C555.571 102.253 551.504 101.621 547.409 101.271L543.672 101.039V72.6167H557.728H571.783V84.4564C571.783 97.7222 572.015 97.0589 568.245 97.0589" fill="#D3D3D3"/>
<path d="M541.884 72.6159V100.872L539.866 101.17C538.709 101.17 536.857 101.403 535.732 101.403C531.841 101.687 527.992 102.398 524.256 103.525C523.594 103.8 522.907 104.011 522.206 104.155C522.007 104.155 521.842 102.994 521.842 101.635C521.842 99.1143 521.842 99.0811 520.585 98.6831C519.891 98.4841 518.237 98.0862 516.914 97.854C515.591 97.6219 514.268 97.2902 513.904 97.2239C513.541 97.1575 513.177 95.7315 513.177 77.1594C513.177 59.6486 513.177 57.2607 513.805 56.6969C514.434 56.1332 515.36 56.0337 518.931 56.0337C525.182 56.0337 524.984 55.7684 524.984 64.0926C524.984 70.3607 524.984 70.7255 525.976 71.5878L526.902 72.6159H541.884Z" fill="#D3D3D3"/>
<path d="M583.59 123.491C583.59 123.955 583.094 124.088 581.705 124.088C580.967 124.154 580.223 124.064 579.522 123.822C578.861 123.192 579.522 122.927 581.407 122.927C583.292 122.927 583.59 122.927 583.59 123.491Z" fill="#D3D3D3"/>
<path d="M589.013 123.424C588.814 123.955 585.507 124.286 585.044 123.855C584.581 123.424 585.044 122.927 586.962 122.927C588.517 122.927 589.112 122.927 589.013 123.424Z" fill="#D3D3D3"/>
<path d="M595.366 130.422V134.336H593.084C592.226 134.404 591.363 134.314 590.537 134.07C590.372 134.07 590.736 133.44 591.232 132.943C591.728 132.445 592.224 131.716 592.224 128.83C592.224 125.945 592.224 125.68 593.051 125.68C593.599 125.717 594.137 125.852 594.638 126.078C595.3 126.476 595.366 126.94 595.366 130.422Z" fill="#D3D3D3"/>
<path d="M591.131 128.631C591.131 130.323 591.131 131.583 590.767 131.583C590.403 131.583 590.37 130.323 590.37 128.631C590.37 126.94 590.37 125.68 590.767 125.68C591.164 125.68 591.131 126.94 591.131 128.631Z" fill="#D3D3D3"/>
<path d="M577.673 131.583C577.531 131.557 577.399 131.494 577.289 131.401C577.178 131.308 577.094 131.188 577.045 131.052C576.767 129.186 576.914 127.281 577.475 125.48C577.706 125.48 577.905 126.807 578.004 128.565C578.103 130.322 578.004 131.583 577.673 131.583Z" fill="#D3D3D3"/>
<path d="M589.113 125.68V128.996V132.313H587.228C585.574 132.313 585.31 132.313 585.111 131.616C584.913 130.92 583.821 130.555 583.821 131.616C583.821 132.677 583.524 132.412 581.837 132.412H579.886V125.779H583.821V127.736C583.821 129.228 583.821 129.726 584.384 129.726C584.946 129.726 584.979 129.228 584.979 127.736V125.68H589.113Z" fill="#D3D3D3"/>
<path d="M541.952 133.805C541.654 134.07 509.409 133.971 509.144 133.805C508.702 131.505 508.702 129.141 509.144 126.841L509.508 125.812H534.279L536.528 127.073C537.673 127.714 538.896 128.204 540.166 128.532L541.555 128.764L541.753 131.251C541.849 132.144 541.849 133.045 541.753 133.938" fill="#D3D3D3"/>
<path d="M578.233 133.971H543.474V131.185C543.474 128.598 543.474 128.432 544.367 128.432C546.186 128.093 547.905 127.345 549.394 126.244C549.923 125.746 552.039 125.68 562.788 125.746H575.521V128.698C575.521 131.484 575.686 131.749 576.877 132.744L578.233 133.971Z" fill="#D3D3D3"/>
<path d="M629.727 160.336C627.908 163.885 626.42 165.742 625.759 165.013C624.097 162.321 622.796 159.422 621.889 156.39C620.93 152.136 621.252 147.692 622.815 143.622C623.521 141.868 624.338 140.162 625.263 138.514C626.387 136.723 626.519 136.69 627.181 137.254C628.026 138.347 628.737 139.538 629.297 140.803C630.973 143.769 631.89 147.106 631.965 150.515C632.04 153.924 631.271 157.298 629.727 160.336Z" fill="#D3D3D3"/>
<path d="M486.093 192.904C485.537 194.212 484.791 195.431 483.878 196.519C483.58 196.519 483.051 196.187 482.588 195.59C481.152 193.408 480.038 191.028 479.28 188.526C478.097 184.364 478.097 179.953 479.28 175.791C480.12 173.323 481.473 171.062 483.249 169.158C483.833 169.692 484.365 170.28 484.837 170.916C490.128 177.549 490.525 184.513 486.06 193.003" fill="#D3D3D3"/>
<path d="M583.656 139.409C583.656 140.006 583.656 140.271 584.119 140.271C584.582 140.271 584.748 139.907 584.748 139.243C584.748 138.016 583.855 138.149 583.656 139.243" fill="#A2A2A2"/>
<path d="M527.994 160.204C527.997 160.023 527.956 159.844 527.875 159.683C527.795 159.521 527.677 159.381 527.531 159.275C527.051 158.968 526.509 158.776 525.944 158.711C525.324 158.594 524.723 158.393 524.158 158.114C523.764 157.939 523.423 157.664 523.165 157.318C522.939 156.987 522.823 156.592 522.835 156.191C522.832 155.834 522.915 155.483 523.076 155.165C523.237 154.848 523.472 154.574 523.761 154.367C524.415 153.84 525.238 153.569 526.076 153.604C526.95 153.566 527.808 153.849 528.49 154.4C528.783 154.633 529.019 154.931 529.18 155.27C529.341 155.609 529.421 155.981 529.416 156.357H527.895C527.895 156.151 527.847 155.947 527.755 155.763C527.663 155.579 527.53 155.419 527.366 155.295C527.006 154.993 526.545 154.839 526.076 154.864C525.621 154.83 525.168 154.947 524.786 155.196C524.646 155.307 524.532 155.448 524.452 155.609C524.372 155.769 524.328 155.945 524.323 156.124C524.318 156.288 524.355 156.45 524.431 156.595C524.506 156.74 524.617 156.863 524.753 156.953C525.237 157.218 525.763 157.398 526.307 157.484C526.934 157.613 527.545 157.813 528.126 158.081C528.533 158.265 528.886 158.551 529.152 158.91C529.384 159.264 529.499 159.681 529.482 160.104C529.496 160.471 529.418 160.836 529.257 161.166C529.095 161.496 528.854 161.781 528.556 161.994C527.837 162.485 526.978 162.73 526.109 162.691C525.472 162.714 524.838 162.589 524.257 162.326C523.751 162.107 523.316 161.751 523 161.298C522.704 160.869 522.543 160.361 522.537 159.839H524.025C524.035 160.069 524.092 160.294 524.195 160.5C524.298 160.706 524.443 160.887 524.621 161.033C525.052 161.348 525.575 161.511 526.109 161.497C526.587 161.517 527.061 161.39 527.465 161.132C527.629 161.041 527.766 160.906 527.859 160.742C527.953 160.579 527.999 160.392 527.994 160.204Z" fill="#A2A2A2"/>
<path d="M549.594 143.621V152.841H551.247C551.762 152.87 552.276 152.787 552.756 152.598C553.235 152.409 553.668 152.119 554.025 151.746C554.764 150.807 555.119 149.621 555.017 148.43V147.733C555.091 146.616 554.762 145.51 554.091 144.616C553.76 144.236 553.346 143.937 552.882 143.741C552.418 143.546 551.915 143.459 551.413 143.488L549.594 143.621ZM548.072 154.134V142.261H551.38C552.33 142.243 553.267 142.484 554.091 142.958C554.871 143.408 555.503 144.076 555.91 144.881C556.345 145.781 556.571 146.767 556.572 147.766V148.529C556.588 149.541 556.361 150.542 555.91 151.448C555.513 152.26 554.879 152.931 554.091 153.371C553.239 153.834 552.283 154.074 551.313 154.068L548.072 154.134Z" fill="#A2A2A2"/>
<path d="M562.36 148.895C561.298 148.657 560.303 148.18 559.45 147.502C559.149 147.214 558.914 146.865 558.761 146.478C558.607 146.091 558.539 145.675 558.561 145.259C558.583 144.843 558.695 144.437 558.888 144.069C559.081 143.7 559.352 143.378 559.682 143.124C560.501 142.483 561.52 142.154 562.559 142.195C563.305 142.182 564.043 142.353 564.709 142.693C565.312 142.968 565.819 143.419 566.164 143.986C566.521 144.514 566.705 145.14 566.693 145.777H565.139C565.149 145.465 565.096 145.154 564.982 144.863C564.869 144.572 564.697 144.307 564.477 144.086C563.931 143.659 563.249 143.447 562.559 143.489C561.925 143.452 561.297 143.627 560.773 143.986C560.558 144.147 560.386 144.358 560.271 144.601C560.156 144.843 560.101 145.111 560.112 145.379C560.107 145.62 560.162 145.858 560.272 146.072C560.382 146.286 560.542 146.469 560.74 146.606C561.355 147.05 562.052 147.365 562.79 147.535C563.598 147.729 564.377 148.03 565.105 148.43C565.595 148.72 566.014 149.117 566.329 149.591C566.604 150.075 566.741 150.626 566.726 151.183C566.737 151.627 566.64 152.067 566.444 152.466C566.248 152.864 565.959 153.209 565.602 153.471C564.733 154.083 563.685 154.387 562.625 154.333C561.852 154.334 561.087 154.176 560.376 153.869C559.726 153.598 559.165 153.15 558.756 152.576C558.374 152.046 558.177 151.405 558.193 150.752H559.748C559.74 151.076 559.808 151.398 559.945 151.691C560.083 151.985 560.287 152.242 560.541 152.443C561.149 152.871 561.883 153.081 562.625 153.04C563.291 153.086 563.953 152.911 564.51 152.543C564.72 152.385 564.89 152.179 565.005 151.943C565.12 151.706 565.177 151.446 565.172 151.183C565.185 150.93 565.137 150.678 565.034 150.447C564.93 150.217 564.774 150.014 564.576 149.856C563.894 149.419 563.146 149.094 562.36 148.895Z" fill="#A2A2A2"/>
<path d="M641.762 189.257H647.319V190.517H640.208V178.71H641.762V189.257Z" fill="#A2A2A2"/>
<path d="M652.546 185.376C651.493 185.123 650.51 184.635 649.669 183.95C649.373 183.697 649.137 183.381 648.977 183.026C648.817 182.67 648.737 182.284 648.743 181.894C648.733 181.445 648.829 181 649.025 180.597C649.22 180.193 649.509 179.842 649.867 179.573C650.691 178.944 651.71 178.627 652.745 178.677C653.488 178.654 654.226 178.813 654.894 179.141C655.502 179.423 656.019 179.871 656.383 180.435C656.715 180.972 656.887 181.594 656.879 182.226H655.324C655.335 181.913 655.282 181.602 655.168 181.311C655.054 181.02 654.882 180.756 654.663 180.534C654.117 180.108 653.435 179.896 652.745 179.937C652.111 179.901 651.483 180.076 650.959 180.435C650.744 180.603 650.572 180.82 650.457 181.068C650.341 181.316 650.287 181.588 650.297 181.861C650.306 182.094 650.367 182.323 650.476 182.53C650.585 182.736 650.738 182.916 650.926 183.055C651.55 183.504 652.259 183.82 653.009 183.983C653.805 184.183 654.572 184.484 655.291 184.879C655.796 185.163 656.218 185.574 656.515 186.073C656.788 186.545 656.926 187.085 656.912 187.631C656.922 188.076 656.826 188.516 656.63 188.914C656.434 189.313 656.145 189.658 655.787 189.92C654.919 190.532 653.871 190.835 652.811 190.782C652.037 190.782 651.272 190.624 650.562 190.318C649.917 190.038 649.358 189.592 648.941 189.024C648.568 188.49 648.372 187.852 648.379 187.2H649.933C649.926 187.525 649.993 187.846 650.131 188.14C650.269 188.434 650.473 188.691 650.727 188.892C651.331 189.331 652.065 189.554 652.811 189.522C653.48 189.558 654.143 189.372 654.696 188.991C654.91 188.837 655.083 188.633 655.198 188.395C655.313 188.158 655.368 187.895 655.357 187.631C655.37 187.379 655.323 187.127 655.22 186.896C655.116 186.665 654.959 186.463 654.762 186.305C654.086 185.862 653.335 185.548 652.546 185.376Z" fill="#A2A2A2"/>
<path d="M543.639 28.6416H545.193V36.9659C545.221 37.4529 545.146 37.9404 544.976 38.3971C544.805 38.8539 544.541 39.27 544.201 39.619C543.454 40.2772 542.483 40.6216 541.489 40.5808C540.495 40.6384 539.515 40.3188 538.744 39.6854C538.417 39.3561 538.163 38.9615 537.998 38.5273C537.832 38.0931 537.76 37.6289 537.785 37.1649H539.34C539.305 37.744 539.495 38.3141 539.869 38.7568C540.315 39.1489 540.896 39.3511 541.489 39.3205C541.778 39.3334 542.067 39.2838 542.335 39.1751C542.603 39.0664 542.845 38.9011 543.044 38.6904C543.251 38.4632 543.411 38.1963 543.513 37.9057C543.616 37.615 543.658 37.3066 543.639 36.9991V28.6416Z" fill="#A2A2A2"/>
<path d="M542.547 15.0108V19.2558H545.126C545.739 19.2834 546.34 19.0825 546.813 18.692C547.029 18.4969 547.197 18.2552 547.306 17.9851C547.415 17.7151 547.461 17.4238 547.441 17.1333C547.441 15.7072 546.681 15.0108 545.126 15.0108H542.547ZM542.547 13.7505H544.829C545.41 13.7806 545.984 13.6045 546.449 13.2531C546.654 13.0849 546.817 12.8718 546.926 12.6302C547.035 12.3887 547.087 12.1251 547.078 11.8602C547.101 11.5918 547.06 11.3218 546.956 11.0733C546.852 10.8248 546.689 10.6054 546.482 10.4341C545.974 10.0988 545.368 9.94679 544.762 10.003H542.48L542.547 13.7505ZM540.992 20.3834V8.61003H544.829C545.861 8.53688 546.887 8.81755 547.739 9.40599C548.065 9.69382 548.321 10.0527 548.487 10.4551C548.653 10.8575 548.726 11.2928 548.698 11.7275C548.708 12.2517 548.545 12.7645 548.235 13.1867C547.894 13.6209 547.451 13.9629 546.945 14.1817C547.546 14.3592 548.077 14.7183 548.467 15.2098C548.832 15.7335 549.017 16.362 548.996 17.0006C549.023 17.466 548.946 17.9315 548.768 18.3623C548.59 18.7932 548.318 19.178 547.971 19.488C547.153 20.1302 546.129 20.4488 545.093 20.3834H540.992Z" fill="#A2A2A2"/>
<path d="M543.97 296.411H538.877V300.59H544.797V301.85H537.322V290.077H544.697V291.337H538.877V295.151H543.97V296.411Z" fill="#A2A2A2"/>
<path d="M451.27 169.689C451.224 170.506 451.432 171.317 451.866 172.011C452.057 172.278 452.311 172.493 452.605 172.638C452.899 172.783 453.225 172.852 453.552 172.84C453.986 172.865 454.417 172.759 454.789 172.534C455.161 172.309 455.456 171.976 455.636 171.58V167.567C455.455 167.178 455.164 166.852 454.799 166.628C454.435 166.404 454.013 166.292 453.585 166.306C453.25 166.295 452.917 166.368 452.616 166.519C452.316 166.669 452.058 166.893 451.866 167.169C451.416 167.929 451.208 168.808 451.27 169.689ZM449.749 169.523C449.68 168.34 450.019 167.17 450.708 166.207C450.995 165.812 451.374 165.493 451.812 165.279C452.25 165.065 452.734 164.962 453.221 164.98C453.679 164.954 454.136 165.036 454.555 165.221C454.975 165.405 455.345 165.686 455.636 166.041V161.464H457.124V173.901H455.768V172.972C455.451 173.324 455.063 173.604 454.63 173.793C454.196 173.982 453.727 174.075 453.255 174.067C452.771 174.072 452.292 173.961 451.861 173.741C451.429 173.522 451.056 173.201 450.774 172.807C450.09 171.842 449.752 170.673 449.815 169.49L449.749 169.523Z" fill="#A2A2A2"/>
</svg>
