<svg width="289" height="132" viewBox="0 0 289 132" fill="none" xmlns="http://www.w3.org/2000/svg">
<path d="M210.953 8.59919C210.971 8.32152 211.043 8.05014 211.167 7.80092C211.291 7.5517 211.463 7.32964 211.673 7.14772C211.884 6.9658 212.129 6.82766 212.393 6.74139C212.658 6.65511 212.937 6.62242 213.214 6.64523H247.185C248.051 6.71472 248.861 7.10524 249.455 7.74031C250.048 8.37538 250.384 9.20926 250.395 10.0786V20.4903L247.073 24.1191H214.275L210.953 20.267V8.59919Z" fill="#D3D3D3"/>
<path d="M214.444 23.7839H246.935L250.09 20.3505V10.0783C250.075 9.31239 249.785 8.57733 249.272 8.00816C248.76 7.43898 248.059 7.0739 247.298 6.97995H213.216C212.754 6.93306 212.291 7.07118 211.93 7.36409C211.569 7.65701 211.339 8.0809 211.29 8.5431V20.1272L214.444 23.7839ZM247.075 24.4538H214.277C214.204 24.4793 214.126 24.4793 214.053 24.4538L210.732 20.5738C210.719 20.5429 210.712 20.5097 210.712 20.4761C210.712 20.4425 210.719 20.4093 210.732 20.3784V8.57102C210.749 8.2542 210.83 7.94413 210.97 7.65913C211.109 7.37414 211.304 7.12003 211.544 6.91182C211.783 6.70362 212.062 6.54554 212.364 6.44697C212.665 6.3484 212.983 6.31134 213.3 6.33795H247.27C248.223 6.40109 249.118 6.82119 249.775 7.51447C250.432 8.20775 250.803 9.12324 250.815 10.0783V20.4901C250.837 20.5535 250.837 20.6221 250.815 20.6855L247.494 24.3421C247.413 24.372 247.324 24.372 247.243 24.3421" fill="#A2A2A2"/>
<path d="M250.285 54.8796C244.4 59.6537 238.007 63.7632 231.22 67.1336H217.096C215.588 67.1336 213.886 66.6591 213.886 64.3423V48.0687L216.677 45.2773H247.382L250.48 48.3757V54.7121" fill="#D3D3D3"/>
<path d="M214.193 48.2644V64.3984C214.193 66.0173 215.17 66.8268 216.985 66.8268H230.941C237.644 63.4866 243.962 59.4244 249.783 54.7124V48.6831L246.852 45.7522H216.678L214.193 48.2644ZM231.22 67.4688H217.096C214.807 67.4688 213.551 66.3802 213.551 64.3984V48.1248C213.523 48.053 213.523 47.9733 213.551 47.9015L216.343 45.1102C216.377 45.0929 216.415 45.084 216.454 45.084C216.493 45.084 216.531 45.0929 216.566 45.1102H247.271C247.305 45.0929 247.344 45.084 247.382 45.084C247.421 45.084 247.459 45.0929 247.494 45.1102L250.62 48.2086C250.783 50.3828 250.783 52.5661 250.62 54.7403C250.642 54.8227 250.642 54.9091 250.62 54.9915C244.708 59.763 238.297 63.8809 231.5 67.2734H231.332" fill="#A2A2A2"/>
<path d="M143.013 34.2797C142.943 34.28 142.876 34.2545 142.824 34.208C142.773 34.1616 142.74 34.0976 142.733 34.0285V0.783525C142.74 0.711606 142.771 0.644206 142.822 0.593157C142.873 0.542109 142.941 0.510683 143.013 0.504395C143.082 0.511338 143.146 0.543779 143.192 0.595394C143.239 0.647008 143.264 0.714086 143.264 0.783525V34.0285C143.264 34.0951 143.237 34.159 143.19 34.2061C143.143 34.2532 143.079 34.2797 143.013 34.2797ZM143.013 37.5177C142.941 37.5114 142.873 37.4799 142.822 37.4289C142.771 37.3778 142.74 37.3105 142.733 37.2385V36.1778C142.733 36.1038 142.763 36.0328 142.815 35.9804C142.868 35.9281 142.939 35.8987 143.013 35.8987C143.048 35.8985 143.083 35.9057 143.116 35.9201C143.148 35.9344 143.177 35.9555 143.201 35.9818C143.225 36.0082 143.242 36.0393 143.253 36.0731C143.264 36.1069 143.268 36.1425 143.264 36.1778V37.2385C143.264 37.308 143.239 37.375 143.192 37.4267C143.146 37.4783 143.082 37.5107 143.013 37.5177ZM143.013 80.1415C142.939 80.1415 142.868 80.1121 142.815 80.0598C142.763 80.0074 142.733 79.9364 142.733 79.8624V39.3879C142.74 39.3159 142.771 39.2485 142.822 39.1975C142.873 39.1464 142.941 39.115 143.013 39.1087C143.082 39.1157 143.146 39.1481 143.192 39.1997C143.239 39.2513 143.264 39.3184 143.264 39.3879V79.8624C143.268 79.8977 143.264 79.9333 143.253 79.9671C143.242 80.0009 143.225 80.032 143.201 80.0584C143.177 80.0847 143.148 80.1058 143.116 80.1201C143.083 80.1345 143.048 80.1417 143.013 80.1415Z" fill="#A2A2A2"/>
<path d="M75.1821 8.48747C75.0383 7.94953 74.718 7.47548 74.2725 7.14139C73.8271 6.80731 73.2823 6.63255 72.7257 6.64517H39.2296C38.3629 6.71465 37.5534 7.10517 36.9596 7.74025C36.3659 8.37532 36.0307 9.2092 36.0195 10.0785V20.4903L39.3412 24.119H71.7487L75.2658 20.1553L75.1821 8.48747Z" fill="#D3D3D3"/>
<path d="M39.3984 23.784H71.5269L74.8485 20.0436V8.54321C74.7229 8.08164 74.445 7.67607 74.0599 7.39231C73.6748 7.10856 73.2052 6.96328 72.7271 6.98006H39.2309C38.4706 7.07401 37.7697 7.43909 37.2569 8.00827C36.7442 8.57744 36.454 9.3125 36.4396 10.0785V20.3506L39.3984 23.784ZM71.6664 24.4539H39.2588C39.1777 24.4838 39.0887 24.4838 39.0076 24.4539L35.6859 20.7972C35.6646 20.7338 35.6646 20.6652 35.6859 20.6018V10.0785C35.6978 9.12335 36.0694 8.20786 36.7265 7.51458C37.3836 6.8213 38.2779 6.4012 39.2309 6.33806H72.7271C73.3573 6.31648 73.9762 6.50889 74.483 6.88397C74.9899 7.25905 75.3549 7.79469 75.5185 8.40365V20.1552C75.5465 20.227 75.5465 20.3067 75.5185 20.3785L72.0293 24.3422C71.9469 24.3635 71.8605 24.3635 71.7781 24.3422" fill="#A2A2A2"/>
<path d="M36.0499 54.8799C41.8342 59.7605 48.2462 63.8443 55.1149 67.0223H69.2391C70.7465 67.0223 72.4492 66.4361 72.4492 64.2309V48.1248L69.6578 45.3335H38.9529L35.8545 48.4319L36.0499 54.8799Z" fill="#D3D3D3"/>
<path d="M55.1699 66.687H64.186H69.2383C70.5782 66.687 72.0297 66.2404 72.0297 64.1468V48.2641L69.5453 45.7518H39.2872L36.4959 48.6828V54.7121C42.1967 59.5361 48.5256 63.5645 55.3095 66.687H55.1699ZM69.2662 67.4127H64.2139H55.142H54.9745C48.0669 64.2474 41.6245 60.1528 35.826 55.2424C35.8087 55.2077 35.7998 55.1695 35.7998 55.1308C35.7998 55.092 35.8087 55.0538 35.826 55.0191V48.5432C35.7979 48.4714 35.7979 48.3917 35.826 48.3199L38.9522 45.2215C38.9869 45.2043 39.0252 45.1953 39.0639 45.1953C39.1027 45.1953 39.1408 45.2043 39.1755 45.2215H69.8803C69.9155 45.2061 69.9536 45.1982 69.992 45.1982C70.0304 45.1982 70.0684 45.2061 70.1037 45.2215L72.895 48.0129C72.923 48.0847 72.923 48.1643 72.895 48.2361V64.3422C72.895 66.352 71.6109 67.5244 69.3499 67.5244" fill="#A2A2A2"/>
<path d="M73.2295 7.00803C73.1406 7.00803 73.0555 6.97274 72.9927 6.90992C72.9298 6.8471 72.8945 6.7619 72.8945 6.67307C72.8944 6.63028 72.9031 6.58793 72.9203 6.54874C72.9374 6.50954 72.9626 6.47436 72.9941 6.44545C73.0257 6.41654 73.0629 6.39454 73.1034 6.38086C73.1439 6.36718 73.1869 6.36213 73.2295 6.36602H213.243C213.325 6.36602 213.403 6.39837 213.461 6.45595C213.518 6.51353 213.55 6.59163 213.55 6.67307C213.554 6.71567 213.549 6.75862 213.536 6.79916C213.522 6.8397 213.5 6.87693 213.471 6.90847C213.442 6.94001 213.407 6.96514 213.368 6.98228C213.328 6.99943 213.286 7.00821 213.243 7.00803H73.2295Z" fill="#A2A2A2"/>
<path d="M143.012 24.5375H71.665C71.5783 24.5311 71.4968 24.4937 71.4354 24.4322C71.3739 24.3708 71.3365 24.2893 71.3301 24.2026C71.3371 24.1186 71.3754 24.0405 71.4375 23.9836C71.4996 23.9267 71.5808 23.8952 71.665 23.8955H143.012C143.093 23.8955 143.171 23.9279 143.229 23.9854C143.287 24.043 143.319 24.1211 143.319 24.2026C143.319 24.2868 143.288 24.368 143.231 24.4301C143.174 24.4921 143.096 24.5305 143.012 24.5375Z" fill="#A2A2A2"/>
<path d="M214.276 24.5378H143.013C142.926 24.5314 142.844 24.494 142.783 24.4325C142.722 24.3711 142.684 24.2895 142.678 24.2028C142.685 24.1189 142.723 24.0408 142.785 23.9839C142.847 23.927 142.928 23.8955 143.013 23.8958H214.22C214.263 23.8919 214.306 23.897 214.346 23.9107C214.387 23.9243 214.424 23.9463 214.455 23.9752C214.487 24.0041 214.512 24.0393 214.529 24.0785C214.546 24.1177 214.555 24.1601 214.555 24.2028C214.555 24.2917 214.52 24.3769 214.457 24.4397C214.394 24.5025 214.309 24.5378 214.22 24.5378" fill="#A2A2A2"/>
<path d="M216.538 45.7519H143.014C142.933 45.7519 142.855 45.7195 142.797 45.6619C142.74 45.6043 142.707 45.5262 142.707 45.4448C142.703 45.4022 142.708 45.3593 142.722 45.3187C142.736 45.2782 142.758 45.241 142.787 45.2094C142.816 45.1779 142.851 45.1527 142.89 45.1356C142.929 45.1184 142.972 45.1097 143.014 45.1099H216.678C216.767 45.1099 216.852 45.1451 216.915 45.208C216.978 45.2708 217.013 45.356 217.013 45.4448C217.013 45.4876 217.004 45.5299 216.987 45.5691C216.97 45.6083 216.945 45.6435 216.913 45.6724C216.882 45.7013 216.845 45.7233 216.804 45.737C216.764 45.7507 216.721 45.7558 216.678 45.7519" fill="#A2A2A2"/>
<path d="M143.013 45.7519H69.7959C69.7533 45.7558 69.7104 45.7507 69.6698 45.737C69.6293 45.7233 69.5921 45.7013 69.5605 45.6724C69.529 45.6435 69.5038 45.6083 69.4867 45.5691C69.4695 45.5299 69.4608 45.4876 69.4609 45.4448C69.4609 45.356 69.4963 45.2708 69.5591 45.208C69.6219 45.1451 69.7071 45.1099 69.7959 45.1099H143.013C143.102 45.1099 143.187 45.1451 143.25 45.208C143.312 45.2708 143.348 45.356 143.348 45.4448C143.348 45.4876 143.339 45.5299 143.322 45.5691C143.305 45.6083 143.28 45.6435 143.248 45.6724C143.217 45.7013 143.179 45.7233 143.139 45.737C143.098 45.7507 143.055 45.7558 143.013 45.7519Z" fill="#A2A2A2"/>
<path d="M143.011 48.4316H72.4461C72.3646 48.4316 72.2865 48.3992 72.2289 48.3416C72.1713 48.284 72.139 48.2059 72.139 48.1245C72.1351 48.0819 72.1402 48.039 72.1539 47.9984C72.1675 47.9579 72.1895 47.9207 72.2184 47.8891C72.2473 47.8576 72.2825 47.8324 72.3217 47.8153C72.3609 47.7981 72.4033 47.7894 72.4461 47.7896H143.011C143.055 47.7896 143.099 47.7982 143.14 47.815C143.18 47.8319 143.217 47.8566 143.248 47.8877C143.279 47.9188 143.304 47.9557 143.321 47.9963C143.338 48.037 143.346 48.0805 143.346 48.1245C143.346 48.1673 143.338 48.2096 143.321 48.2488C143.303 48.288 143.278 48.3232 143.247 48.3521C143.215 48.381 143.178 48.403 143.137 48.4167C143.097 48.4304 143.054 48.4354 143.011 48.4316Z" fill="#A2A2A2"/>
<path d="M213.887 48.4315H143.014C142.933 48.4315 142.855 48.3992 142.797 48.3416C142.74 48.284 142.707 48.2059 142.707 48.1245C142.703 48.0819 142.708 48.039 142.722 47.9984C142.736 47.9579 142.758 47.9207 142.787 47.8891C142.816 47.8576 142.851 47.8324 142.89 47.8153C142.929 47.7981 142.972 47.7894 143.014 47.7896H214.026C214.069 47.7894 214.111 47.7981 214.151 47.8153C214.19 47.8324 214.225 47.8576 214.254 47.8891C214.283 47.9207 214.305 47.9579 214.318 47.9984C214.332 48.039 214.337 48.0819 214.333 48.1245C214.333 48.1648 214.325 48.2048 214.31 48.242C214.294 48.2793 214.272 48.3131 214.243 48.3416C214.215 48.3701 214.181 48.3928 214.144 48.4082C214.106 48.4236 214.067 48.4315 214.026 48.4315" fill="#A2A2A2"/>
<path d="M231.413 66.6313H54.6094V67.4967H231.413V66.6313Z" fill="#A2A2A2"/>
<path d="M53.8868 42.3466H69.4066C72.6167 42.1512 73.6495 39.7786 73.0075 36.7639L71.1093 27.9712L68.6529 28.5295C68.6529 28.5295 70.0765 36.2894 70.3557 37.5176C70.6348 38.7458 70.0765 39.8065 69.1275 39.8065H40.572C39.6229 39.8065 39.0647 38.7458 39.3438 37.5176C39.6229 36.2894 41.0465 28.5295 41.0465 28.5295L38.5902 27.9712L36.6921 36.7639C36.0221 39.8902 37.055 42.3466 40.2929 42.3466H53.8868Z" fill="#D3D3D3"/>
<path d="M38.8125 28.2501C38.5055 29.7016 37.2493 35.5914 36.9981 36.6242C36.7953 37.2933 36.7379 37.998 36.8293 38.6912C36.9208 39.3843 37.1591 40.05 37.5284 40.6437C37.8729 41.0453 38.3015 41.366 38.784 41.5831C39.2664 41.8002 39.7908 41.9083 40.3198 41.8998H69.4336C69.9626 41.9083 70.4869 41.8002 70.9693 41.5831C71.4518 41.366 71.8806 41.0453 72.225 40.6437C72.5878 40.0473 72.8222 39.3819 72.9135 38.6898C73.0048 37.9977 72.9509 37.2942 72.7553 36.6242C72.504 35.4797 71.2201 29.59 70.913 28.2501L69.0707 28.6688C69.3499 30.1203 70.4664 36.2613 70.7176 37.3499C70.8195 37.699 70.8397 38.0668 70.7767 38.425C70.7138 38.7831 70.5695 39.122 70.3547 39.4155C70.2223 39.6017 70.0461 39.7526 69.8417 39.8548C69.6372 39.957 69.4108 40.0074 69.1823 40.0017H40.571C40.339 40.005 40.1094 39.9536 39.9009 39.8518C39.6924 39.7499 39.5108 39.6005 39.3707 39.4155C39.1683 39.1161 39.0314 38.7774 38.9688 38.4214C38.9063 38.0655 38.9196 37.7003 39.0078 37.3499C39.2591 36.2613 40.4035 30.1203 40.6547 28.6688L38.8125 28.2501ZM53.8858 42.6535H40.2919C39.6671 42.6884 39.0422 42.5839 38.4628 42.3473C37.8834 42.1107 37.364 41.7481 36.9423 41.2857C36.5232 40.6142 36.2517 39.8612 36.1459 39.0768C36.04 38.2924 36.1021 37.4944 36.3282 36.7358C36.5794 35.4239 38.1984 27.9431 38.1984 27.9431C38.1848 27.8693 38.1848 27.7936 38.1984 27.7198C38.2799 27.6921 38.3682 27.6921 38.4496 27.7198L40.906 28.278C40.9848 28.2978 41.0536 28.3455 41.0998 28.4122C41.146 28.479 41.1664 28.5602 41.1572 28.6409C41.1572 28.9759 39.7336 36.4287 39.4545 37.6569C39.3778 37.9137 39.3581 38.1841 39.3966 38.4492C39.4352 38.7144 39.5312 38.9679 39.6778 39.1922C39.7616 39.2968 39.8678 39.3812 39.9886 39.4392C40.1094 39.4972 40.2417 39.5272 40.3757 39.5272H68.9311C69.0615 39.5294 69.1906 39.5001 69.3072 39.4418C69.4239 39.3835 69.5247 39.2979 69.6011 39.1922C69.7579 38.9727 69.8621 38.7201 69.9056 38.4539C69.9492 38.1877 69.931 37.915 69.8523 37.6569C69.5732 36.4287 68.2054 28.9759 68.1495 28.6409C68.1326 28.5633 68.1464 28.4821 68.188 28.4144C68.2297 28.3467 68.296 28.2978 68.3729 28.278L70.8572 27.7198C70.929 27.6917 71.0087 27.6917 71.0805 27.7198C71.1204 27.7426 71.1539 27.775 71.1782 27.8139C71.2026 27.8529 71.217 27.8972 71.22 27.9431L73.1181 36.7358C73.3401 37.4963 73.3977 38.2954 73.287 39.0799C73.1763 39.8644 72.8999 40.6163 72.4762 41.2857C72.0836 41.7632 71.5889 42.1465 71.0285 42.4074C70.4681 42.6683 69.8563 42.8 69.2382 42.793L53.8858 42.6535Z" fill="#A2A2A2"/>
<path d="M230.548 42.3466H246.068C249.278 42.1512 250.311 39.7786 249.641 36.7639C249.362 35.4799 247.771 27.9712 247.771 27.9712L245.315 28.5295C245.315 28.5295 246.71 36.2894 247.017 37.5176C247.324 38.7458 246.71 39.8065 245.789 39.8065H217.206C216.285 39.8065 215.698 38.7458 215.978 37.5176C216.257 36.2894 217.68 28.5295 217.68 28.5295L215.224 27.9712L213.326 36.7639C212.684 39.8902 213.716 42.3466 216.926 42.3466H230.548Z" fill="#D3D3D3"/>
<path d="M215.589 28.2502C215.282 29.7017 213.998 35.5915 213.775 36.6243C213.568 37.2915 213.506 37.9951 213.592 38.6882C213.679 39.3814 213.913 40.048 214.277 40.6438C214.624 41.0424 215.053 41.3611 215.535 41.578C216.017 41.7948 216.54 41.9047 217.069 41.8999H246.182C246.711 41.9047 247.234 41.7948 247.716 41.578C248.198 41.3611 248.627 41.0424 248.974 40.6438C249.338 40.048 249.572 39.3814 249.658 38.6882C249.745 37.9951 249.683 37.2915 249.476 36.6243C249.253 35.4798 247.969 29.5901 247.662 28.2502L245.819 28.669C246.071 30.1205 247.215 36.2614 247.466 37.35C247.562 37.6998 247.579 38.0664 247.516 38.4235C247.454 38.7806 247.313 39.1195 247.103 39.4156C246.966 39.5968 246.789 39.744 246.586 39.8456C246.382 39.9473 246.158 40.0007 245.931 40.0018H217.208C216.981 40.0007 216.757 39.9473 216.553 39.8456C216.35 39.744 216.173 39.5968 216.036 39.4156C215.827 39.1195 215.686 38.7806 215.623 38.4235C215.56 38.0664 215.577 37.6998 215.673 37.35C215.924 36.2614 217.069 30.1205 217.32 28.669L215.589 28.2502ZM230.662 42.6536H217.041C216.418 42.6628 215.802 42.5321 215.236 42.2712C214.671 42.0103 214.172 41.6259 213.775 41.1463C213.351 40.4768 213.075 39.7249 212.964 38.9404C212.853 38.1559 212.911 37.3569 213.133 36.5964L215.031 27.8036C215.017 27.7298 215.017 27.6541 215.031 27.5803C215.112 27.5527 215.201 27.5527 215.282 27.5803L217.739 28.1386C217.817 28.1584 217.886 28.2061 217.932 28.2728C217.978 28.3395 217.999 28.4208 217.99 28.5015C217.99 28.8364 216.566 36.2893 216.287 37.5175C216.21 37.7743 216.191 38.0446 216.229 38.3098C216.268 38.5749 216.364 38.8285 216.51 39.0527C216.585 39.1602 216.685 39.2472 216.803 39.3057C216.92 39.3642 217.049 39.3924 217.18 39.3877H245.764C245.894 39.3924 246.024 39.3642 246.141 39.3057C246.258 39.2472 246.359 39.1602 246.433 39.0527C246.58 38.8285 246.676 38.5749 246.715 38.3098C246.753 38.0446 246.734 37.7743 246.657 37.5175C246.378 36.2893 245.01 28.8364 244.954 28.5015C244.945 28.4208 244.965 28.3395 245.012 28.2728C245.058 28.2061 245.127 28.1584 245.205 28.1386L247.662 27.5803C247.743 27.5527 247.832 27.5527 247.913 27.5803C247.935 27.6532 247.935 27.7308 247.913 27.8036L249.811 36.5964C250.033 37.3569 250.091 38.1559 249.98 38.9404C249.869 39.7249 249.593 40.4768 249.169 41.1463C248.772 41.6259 248.273 42.0103 247.708 42.2712C247.142 42.5321 246.526 42.6628 245.903 42.6536H230.662Z" fill="#A2A2A2"/>
<path d="M54.832 21.7466C57.4433 21.7466 59.9959 22.5209 62.1672 23.9717C64.3384 25.4225 66.0306 27.4845 67.0299 29.8971C68.0293 32.3096 68.2907 34.9643 67.7813 37.5254C67.2718 40.0866 66.0144 42.4392 64.1679 44.2856C62.3214 46.1321 59.9688 47.3896 57.4077 47.899C54.8466 48.4085 52.1919 48.147 49.7794 47.1477C47.3669 46.1484 45.3048 44.4561 43.854 42.2849C42.4033 40.1137 41.6289 37.561 41.6289 34.9497C41.6289 31.448 43.02 28.0897 45.496 25.6137C47.9721 23.1376 51.3303 21.7466 54.832 21.7466Z" fill="#D3D3D3"/>
<path d="M54.8339 22.0811C52.2833 22.0811 49.79 22.8374 47.6693 24.2544C45.5485 25.6715 43.8956 27.6855 42.9195 30.042C41.9434 32.3984 41.6881 34.9914 42.1857 37.493C42.6833 39.9946 43.9115 42.2924 45.715 44.096C47.5186 45.8995 49.8165 47.1277 52.3181 47.6253C54.8197 48.1229 57.4126 47.8675 59.7691 46.8915C62.1255 45.9154 64.1396 44.2625 65.5566 42.1417C66.9736 40.021 67.7299 37.5277 67.7299 34.9771C67.7299 31.5568 66.3712 28.2767 63.9527 25.8582C61.5343 23.4397 58.2542 22.0811 54.8339 22.0811ZM54.8339 48.4872C52.1552 48.4872 49.5366 47.6925 47.3097 46.2037C45.0828 44.7149 43.3476 42.5989 42.3237 40.1235C41.2999 37.6481 41.0335 34.9246 41.5581 32.2977C42.0827 29.6709 43.3748 27.2587 45.271 25.3665C47.1671 23.4743 49.582 22.1871 52.21 21.6679C54.8379 21.1487 57.5608 21.4207 60.0341 22.4497C62.5073 23.4786 64.6197 25.2182 66.1039 27.4482C67.5881 29.6781 68.3775 32.2983 68.372 34.9771C68.372 36.7536 68.0216 38.5127 67.3409 40.1536C66.6602 41.7946 65.6626 43.2852 64.4051 44.5401C63.1476 45.795 61.6549 46.7895 60.0126 47.4668C58.3702 48.1441 56.6105 48.4909 54.8339 48.4872Z" fill="#A2A2A2"/>
<path d="M43.8646 28.1941H38.5889C38.5 28.1941 38.4149 28.1588 38.352 28.096C38.2892 28.0331 38.2539 27.9479 38.2539 27.8591C38.2537 27.8163 38.2625 27.774 38.2796 27.7348C38.2968 27.6956 38.322 27.6604 38.3535 27.6315C38.385 27.6026 38.4222 27.5806 38.4628 27.5669C38.5033 27.5532 38.5463 27.5482 38.5889 27.5521H43.8646C43.9072 27.5482 43.9501 27.5532 43.9906 27.5669C44.0312 27.5806 44.0684 27.6026 44.0999 27.6315C44.1315 27.6604 44.1566 27.6956 44.1738 27.7348C44.1909 27.774 44.1997 27.8163 44.1995 27.8591C44.1995 27.9479 44.1642 28.0331 44.1014 28.096C44.0386 28.1588 43.9534 28.1941 43.8646 28.1941Z" fill="#A2A2A2"/>
<path d="M247.771 28.1942H242.467C242.425 28.1944 242.382 28.1857 242.343 28.1685C242.304 28.1514 242.269 28.1262 242.24 28.0947C242.211 28.0632 242.189 28.0259 242.175 27.9854C242.162 27.9448 242.157 27.9019 242.16 27.8593C242.16 27.7779 242.193 27.6998 242.25 27.6422C242.308 27.5846 242.386 27.5522 242.467 27.5522H247.771C247.812 27.5522 247.851 27.5602 247.889 27.5756C247.926 27.591 247.96 27.6137 247.988 27.6422C248.017 27.6707 248.039 27.7045 248.055 27.7418C248.07 27.779 248.078 27.819 248.078 27.8593C248.082 27.9019 248.077 27.9448 248.063 27.9854C248.05 28.0259 248.028 28.0632 247.999 28.0947C247.97 28.1262 247.935 28.1514 247.895 28.1685C247.856 28.1857 247.814 28.1944 247.771 28.1942Z" fill="#A2A2A2"/>
<path d="M143.015 28.1941H66.0017C65.9589 28.1942 65.9165 28.1855 65.8773 28.1683C65.8381 28.1512 65.803 28.126 65.7741 28.0945C65.7452 28.063 65.7232 28.0257 65.7095 27.9852C65.6959 27.9446 65.6907 27.9017 65.6946 27.8591C65.6946 27.7777 65.727 27.6996 65.7846 27.642C65.8422 27.5844 65.9203 27.5521 66.0017 27.5521H143.015C143.058 27.5482 143.101 27.5532 143.141 27.5669C143.182 27.5806 143.219 27.6026 143.25 27.6315C143.282 27.6604 143.307 27.6956 143.324 27.7348C143.341 27.774 143.35 27.8163 143.35 27.8591C143.35 27.9479 143.315 28.0331 143.252 28.096C143.189 28.1588 143.104 28.1941 143.015 28.1941Z" fill="#A2A2A2"/>
<path d="M220.528 28.1942H143.013C142.924 28.1942 142.839 28.159 142.776 28.0962C142.713 28.0333 142.678 27.9481 142.678 27.8593C142.685 27.7754 142.723 27.6972 142.785 27.6403C142.847 27.5834 142.928 27.552 143.013 27.5522H220.473C220.554 27.5522 220.632 27.5846 220.69 27.6422C220.747 27.6998 220.78 27.7779 220.78 27.8593C220.784 27.9019 220.778 27.9448 220.765 27.9854C220.751 28.0259 220.729 28.0632 220.7 28.0947C220.671 28.1262 220.636 28.1514 220.597 28.1685C220.558 28.1857 220.515 28.1944 220.473 28.1942" fill="#A2A2A2"/>
<path d="M143.012 42.6532H69.4041C69.3226 42.6532 69.2445 42.6209 69.1869 42.5633C69.1293 42.5057 69.097 42.4276 69.097 42.3462C69.0931 42.3036 69.0982 42.2606 69.1119 42.2201C69.1256 42.1796 69.1475 42.1423 69.1764 42.1108C69.2054 42.0793 69.2405 42.0541 69.2797 42.037C69.3189 42.0198 69.3613 42.0111 69.4041 42.0112H143.012C143.101 42.0112 143.186 42.0465 143.249 42.1093C143.312 42.1722 143.347 42.2573 143.347 42.3462C143.347 42.389 143.338 42.4313 143.321 42.4705C143.304 42.5097 143.279 42.5449 143.247 42.5738C143.216 42.6027 143.179 42.6247 143.138 42.6384C143.097 42.6521 143.055 42.6571 143.012 42.6532Z" fill="#A2A2A2"/>
<path d="M216.928 42.6532H143.265C143.222 42.6571 143.179 42.6521 143.139 42.6384C143.098 42.6247 143.061 42.6027 143.029 42.5738C142.998 42.5449 142.973 42.5097 142.955 42.4705C142.938 42.4313 142.93 42.389 142.93 42.3462C142.93 42.2573 142.965 42.1722 143.028 42.1093C143.091 42.0465 143.176 42.0112 143.265 42.0112H216.928C217.017 42.0112 217.102 42.0465 217.165 42.1093C217.228 42.1722 217.263 42.2573 217.263 42.3462C217.263 42.389 217.255 42.4313 217.238 42.4705C217.22 42.5097 217.195 42.5449 217.164 42.5738C217.132 42.6027 217.095 42.6247 217.054 42.6384C217.014 42.6521 216.971 42.6571 216.928 42.6532Z" fill="#A2A2A2"/>
<path d="M231.5 21.7466C234.11 21.7521 236.66 22.5312 238.827 23.9853C240.995 25.4394 242.683 27.5034 243.678 29.9164C244.673 32.3294 244.93 34.9832 244.418 37.5425C243.905 40.1018 242.645 42.4518 240.798 44.2955C238.95 46.1392 236.598 47.3939 234.037 47.9011C231.477 48.4083 228.824 48.1452 226.413 47.145C224.002 46.1449 221.941 44.4526 220.492 42.282C219.042 40.1114 218.269 37.5598 218.269 34.9497C218.269 33.2135 218.611 31.4943 219.276 29.8906C219.941 28.2869 220.917 26.8302 222.146 25.6038C223.374 24.3774 224.833 23.4055 226.438 22.7436C228.043 22.0817 229.763 21.7429 231.5 21.7466Z" fill="#D3D3D3"/>
<path d="M231.497 22.081C228.945 22.0755 226.449 22.8272 224.324 24.2408C222.2 25.6545 220.543 27.6666 219.562 30.0226C218.582 32.3785 218.322 34.9724 218.817 37.4758C219.311 39.9792 220.537 42.2797 222.34 44.086C224.142 45.8923 226.44 47.1234 228.942 47.6232C231.445 48.1231 234.039 47.8693 236.397 46.8941C238.755 45.9188 240.771 44.2659 242.189 42.1446C243.608 40.0233 244.365 37.5288 244.365 34.977C244.365 31.5616 243.01 28.2857 240.597 25.8681C238.185 23.4504 234.912 22.0884 231.497 22.081ZM231.497 48.4872C228.817 48.4927 226.195 47.7027 223.965 46.2172C221.734 44.7318 219.995 42.6177 218.967 40.1428C217.938 37.6679 217.668 34.9436 218.189 32.3149C218.711 29.6861 220.001 27.2713 221.896 25.3763C223.791 23.4813 226.206 22.1914 228.834 21.6699C231.463 21.1484 234.187 21.4189 236.662 22.447C239.137 23.4751 241.251 25.2146 242.737 27.4452C244.222 29.6758 245.012 32.2971 245.007 34.977C244.999 38.5579 243.574 41.99 241.042 44.522C238.51 47.054 235.077 48.4798 231.497 48.4872Z" fill="#A2A2A2"/>
<path d="M232.446 74.5308H53.6885V75.3961H232.446V74.5308Z" fill="#A2A2A2"/>
<path d="M231.221 67.0781C238.003 63.7227 244.397 59.6321 250.286 54.8799H252.547C253.272 54.926 253.955 55.2348 254.469 55.7487C254.983 56.2625 255.292 56.946 255.338 57.6712V69.9811C255.338 72.0187 254.584 74.9218 251.905 74.9218H233.175C232.931 74.9378 232.687 74.9021 232.458 74.817C232.229 74.7319 232.02 74.5993 231.846 74.4279C231.672 74.2565 231.537 74.0503 231.448 73.8227C231.36 73.5951 231.32 73.3513 231.332 73.1074V66.9943" fill="#434343"/>
<path d="M231.667 67.3293V73.1911C231.655 73.3776 231.683 73.5646 231.748 73.7395C231.814 73.9144 231.916 74.0733 232.048 74.2054C232.181 74.3376 232.34 74.4399 232.514 74.5057C232.689 74.5715 232.876 74.5991 233.063 74.5868H251.876C254.668 74.5868 254.891 70.8185 254.891 70.0648V57.755C254.869 57.1433 254.629 56.5596 254.214 56.1092C253.8 55.6589 253.238 55.3714 252.63 55.2986H250.537C244.731 59.9796 238.431 64.0137 231.751 67.3293H231.667ZM251.876 75.4242H233.147C232.848 75.44 232.549 75.3932 232.27 75.287C231.99 75.1807 231.736 75.0173 231.523 74.8071C231.31 74.5969 231.143 74.3446 231.034 74.0663C230.924 73.7881 230.873 73.49 230.886 73.1911V66.8269L231.109 66.6873C237.868 63.3436 244.242 59.2721 250.118 54.5449H252.518C253.351 54.6262 254.125 55.0085 254.696 55.6202C255.266 56.2318 255.594 57.0306 255.617 57.8666V70.1765C255.617 72.6608 254.612 75.5359 251.765 75.5359" fill="#A2A2A2"/>
<path d="M55.1144 67.0222C48.2548 63.8277 41.8448 59.7453 36.0494 54.8799H33.7884C33.0632 54.926 32.3797 55.2348 31.8659 55.7487C31.352 56.2625 31.0431 56.946 30.9971 57.6712V69.9811C30.9971 72.0187 31.7508 74.9218 34.4305 74.9218H53.1604C53.4041 74.9378 53.6485 74.9021 53.8774 74.817C54.1063 74.7319 54.3146 74.5993 54.4886 74.4279C54.6626 74.2565 54.7984 74.0503 54.887 73.8227C54.9756 73.5951 55.015 73.3513 55.0027 73.1074V66.9385" fill="#434343"/>
<path d="M33.7886 55.2426C33.1809 55.3154 32.6191 55.6029 32.2045 56.0532C31.79 56.5036 31.5499 57.0873 31.5277 57.699V70.0088C31.5277 70.7625 31.6952 74.5308 34.5424 74.5308H53.2723C53.4587 74.5431 53.6457 74.5155 53.8206 74.4497C53.9955 74.3839 54.1544 74.2816 54.2866 74.1494C54.4187 74.0173 54.5211 73.8584 54.5868 73.6835C54.6526 73.5086 54.6803 73.3216 54.6679 73.1351V67.2175C47.921 64.0433 41.6078 60.019 35.8822 55.2426H33.7886ZM53.3281 75.3682H34.5982C31.8068 75.3682 30.7461 72.5769 30.7461 70.0088V57.7548C30.7693 56.9188 31.097 56.1199 31.6675 55.5083C32.2379 54.8967 33.0121 54.5144 33.8445 54.4331H36.273C42.0511 59.2653 48.4313 63.328 55.2541 66.5196H55.4774V72.9676C55.4895 73.2665 55.439 73.5646 55.3293 73.8429C55.2196 74.1211 55.053 74.3734 54.8402 74.5836C54.6274 74.7938 54.373 74.9572 54.0934 75.0635C53.8138 75.1698 53.5151 75.2165 53.2164 75.2007" fill="#A2A2A2"/>
<path d="M250.034 123.072H153.454C153.416 123.077 153.378 123.073 153.342 123.06C153.306 123.048 153.273 123.027 153.246 123.001C153.22 122.974 153.199 122.941 153.187 122.905C153.174 122.869 153.17 122.831 153.175 122.793C153.174 122.758 153.182 122.723 153.196 122.69C153.21 122.658 153.231 122.629 153.258 122.605C153.284 122.581 153.315 122.563 153.349 122.553C153.383 122.542 153.418 122.538 153.454 122.542H250.034C250.067 122.542 250.1 122.549 250.131 122.561C250.161 122.574 250.189 122.592 250.212 122.616C250.235 122.639 250.254 122.667 250.266 122.697C250.279 122.728 250.286 122.76 250.286 122.793C250.289 122.829 250.286 122.864 250.275 122.898C250.264 122.932 250.246 122.963 250.223 122.989C250.199 123.016 250.17 123.037 250.137 123.051C250.105 123.065 250.07 123.073 250.034 123.072Z" fill="#A2A2A2"/>
<path d="M133.942 123.072H36.2448C36.207 123.077 36.1688 123.073 36.1328 123.06C36.0969 123.048 36.0643 123.027 36.0374 123.001C36.0106 122.974 35.9902 122.941 35.9777 122.905C35.9653 122.869 35.9611 122.831 35.9656 122.793C35.9654 122.758 35.9728 122.723 35.9871 122.69C36.0014 122.658 36.0224 122.629 36.0488 122.605C36.0751 122.581 36.1063 122.563 36.1401 122.553C36.1739 122.542 36.2095 122.538 36.2448 122.542H133.942C134.011 122.542 134.078 122.567 134.13 122.614C134.182 122.66 134.214 122.724 134.221 122.793C134.221 122.867 134.192 122.938 134.139 122.991C134.087 123.043 134.016 123.072 133.942 123.072Z" fill="#A2A2A2"/>
<path d="M138.298 127.008H140.392C140.909 127.024 141.425 126.967 141.927 126.841C142.248 126.737 142.543 126.565 142.792 126.338C143.126 125.98 143.374 125.55 143.518 125.082C143.699 124.466 143.783 123.826 143.769 123.184C143.817 122.362 143.643 121.543 143.267 120.811C142.997 120.309 142.564 119.915 142.039 119.695C141.496 119.532 140.929 119.466 140.364 119.499H138.298V127.008ZM136.986 128.181V118.327H140.364C140.953 118.315 141.542 118.362 142.122 118.467C142.66 118.581 143.159 118.831 143.574 119.192C144.116 119.628 144.523 120.209 144.746 120.867C145.016 121.619 145.149 122.413 145.137 123.212C145.136 123.882 145.042 124.549 144.858 125.194C144.726 125.706 144.499 126.189 144.188 126.617C143.949 126.969 143.646 127.272 143.295 127.511C142.936 127.744 142.539 127.914 142.122 128.013C141.6 128.131 141.066 128.188 140.531 128.181H136.986Z" fill="#A2A2A2"/>
<path d="M146.278 129.074H147.199C147.253 129.493 147.438 129.884 147.73 130.19C147.983 130.414 148.312 130.534 148.651 130.525C148.849 130.532 149.047 130.496 149.23 130.419C149.414 130.342 149.578 130.226 149.712 130.079C149.991 129.796 150.148 129.415 150.148 129.018C150.148 128.621 149.991 128.239 149.712 127.957C149.574 127.826 149.412 127.725 149.235 127.657C149.057 127.59 148.868 127.559 148.679 127.566H148.037V126.785C148.414 126.795 148.784 126.688 149.097 126.478C149.248 126.378 149.368 126.24 149.447 126.078C149.525 125.916 149.559 125.736 149.544 125.557C149.548 125.402 149.52 125.247 149.463 125.103C149.405 124.959 149.319 124.829 149.209 124.719C148.963 124.512 148.651 124.399 148.33 124.399C148.008 124.399 147.697 124.512 147.451 124.719C147.189 124.98 147.03 125.327 147.004 125.696L146.083 125.529C146.165 124.984 146.442 124.487 146.864 124.133C147.27 123.792 147.787 123.613 148.316 123.631C148.702 123.627 149.084 123.713 149.432 123.882C149.755 124.046 150.026 124.298 150.214 124.607C150.381 124.896 150.468 125.223 150.465 125.557C150.464 125.863 150.376 126.162 150.214 126.422C150.029 126.697 149.767 126.91 149.46 127.036C149.866 127.112 150.226 127.342 150.465 127.678C150.721 128.014 150.849 128.429 150.828 128.85C150.839 129.159 150.782 129.466 150.661 129.751C150.541 130.035 150.359 130.29 150.13 130.497C149.642 130.873 149.043 131.077 148.428 131.077C147.812 131.077 147.213 130.873 146.725 130.497C146.301 130.104 146.042 129.566 145.999 128.99" fill="#A2A2A2"/>
<path d="M31.1067 125.92C31.0376 125.913 30.9736 125.88 30.9271 125.829C30.8807 125.777 30.8551 125.71 30.8555 125.64V75.6195C30.8555 75.5529 30.882 75.4889 30.9291 75.4418C30.9762 75.3947 31.04 75.3683 31.1067 75.3683C31.1419 75.3643 31.1776 75.3679 31.2114 75.3787C31.2451 75.3896 31.2762 75.4075 31.3026 75.4312C31.3289 75.4549 31.35 75.484 31.3643 75.5164C31.3787 75.5489 31.386 75.584 31.3858 75.6195V125.64C31.3858 125.714 31.3564 125.785 31.304 125.838C31.2517 125.89 31.1807 125.92 31.1067 125.92Z" fill="#A2A2A2"/>
<path d="M255.227 125.919C255.153 125.919 255.082 125.89 255.03 125.838C254.978 125.785 254.948 125.714 254.948 125.64V76.7079C254.948 76.6338 254.978 76.5628 255.03 76.5105C255.082 76.4581 255.153 76.4287 255.227 76.4287C255.297 76.4357 255.361 76.4681 255.407 76.5197C255.454 76.5713 255.479 76.6384 255.479 76.7079V125.64C255.479 125.71 255.454 125.777 255.407 125.828C255.361 125.88 255.297 125.912 255.227 125.919Z" fill="#A2A2A2"/>
<path d="M31.1064 122.793L40.6529 124.133V121.454L31.1064 122.793Z" fill="#A2A2A2"/>
<path d="M245.648 124.133L255.223 122.793L245.648 121.454V124.133Z" fill="#A2A2A2"/>
<path d="M226.221 101.467H153.646C153.608 101.472 153.57 101.468 153.534 101.455C153.498 101.443 153.466 101.423 153.439 101.396C153.412 101.369 153.392 101.336 153.379 101.3C153.367 101.264 153.363 101.226 153.367 101.188C153.367 101.153 153.374 101.118 153.388 101.085C153.403 101.053 153.424 101.024 153.45 101C153.477 100.976 153.508 100.958 153.541 100.948C153.575 100.937 153.611 100.933 153.646 100.937H226.221C226.256 100.933 226.292 100.937 226.326 100.948C226.36 100.958 226.391 100.976 226.417 101C226.443 101.024 226.465 101.053 226.479 101.085C226.493 101.118 226.5 101.153 226.5 101.188C226.505 101.226 226.501 101.264 226.488 101.3C226.476 101.336 226.455 101.369 226.428 101.396C226.402 101.423 226.369 101.443 226.333 101.455C226.297 101.468 226.259 101.472 226.221 101.467Z" fill="#A2A2A2"/>
<path d="M134.19 101.467H60.0799C60.0433 101.467 60.007 101.46 59.9731 101.446C59.9392 101.432 59.9085 101.412 59.8826 101.386C59.8566 101.36 59.836 101.329 59.822 101.295C59.808 101.261 59.8008 101.225 59.8008 101.188C59.8077 101.119 59.8401 101.055 59.8918 101.009C59.9434 100.962 60.0105 100.937 60.0799 100.937H134.19C134.26 100.937 134.327 100.962 134.378 101.009C134.43 101.055 134.462 101.119 134.469 101.188C134.469 101.262 134.44 101.333 134.388 101.386C134.335 101.438 134.264 101.467 134.19 101.467Z" fill="#A2A2A2"/>
<path d="M138.238 105.486H140.36C140.87 105.51 141.38 105.443 141.867 105.291C142.204 105.205 142.512 105.031 142.76 104.789C143.1 104.435 143.349 104.004 143.486 103.532C143.668 102.917 143.753 102.276 143.737 101.634C143.785 100.813 143.611 99.9935 143.235 99.2617C142.948 98.7736 142.52 98.3842 142.007 98.1452C141.451 97.9989 140.878 97.9331 140.304 97.9498H138.238V105.486ZM136.954 106.631V96.8053H140.22C140.81 96.7815 141.4 96.8284 141.979 96.9449C142.512 97.056 143.01 97.2955 143.43 97.6427C143.943 98.0988 144.336 98.6739 144.575 99.3175C144.853 100.067 144.986 100.863 144.965 101.662C144.977 102.332 144.892 102.999 144.714 103.644C144.552 104.154 144.327 104.642 144.044 105.096C143.79 105.434 143.489 105.735 143.151 105.989C142.777 106.207 142.372 106.367 141.951 106.463C141.438 106.582 140.913 106.638 140.388 106.631H136.954Z" fill="#A2A2A2"/>
<path d="M150.996 108.586V109.451H146.139C146.098 109.239 146.098 109.021 146.139 108.809C146.292 108.454 146.499 108.124 146.753 107.832C147.118 107.433 147.51 107.06 147.925 106.715C148.531 106.257 149.083 105.733 149.572 105.152C149.821 104.841 149.967 104.461 149.991 104.064C149.992 103.891 149.958 103.721 149.891 103.562C149.824 103.404 149.725 103.261 149.6 103.142C149.335 102.87 148.975 102.71 148.595 102.696C148.204 102.684 147.824 102.824 147.535 103.087C147.27 103.386 147.13 103.776 147.144 104.175H146.223C146.232 103.875 146.301 103.58 146.425 103.307C146.55 103.034 146.728 102.788 146.948 102.584C147.432 102.222 148.019 102.026 148.623 102.026C149.227 102.026 149.815 102.222 150.298 102.584C150.498 102.774 150.656 103.004 150.761 103.259C150.867 103.514 150.918 103.788 150.912 104.064C150.911 104.36 150.854 104.653 150.745 104.929C150.582 105.254 150.375 105.554 150.131 105.822C149.696 106.291 149.23 106.729 148.735 107.134C148.366 107.423 148.012 107.73 147.674 108.055C147.535 108.209 147.413 108.377 147.311 108.558L150.996 108.586Z" fill="#A2A2A2"/>
<path d="M54.8607 104.398C54.794 104.398 54.7301 104.372 54.683 104.325C54.6359 104.278 54.6094 104.214 54.6094 104.147V77.0711C54.609 77.0017 54.6346 76.9346 54.6811 76.883C54.7275 76.8314 54.7916 76.7989 54.8607 76.792C54.8973 76.792 54.9336 76.7992 54.9675 76.8132C55.0013 76.8273 55.0321 76.8478 55.058 76.8737C55.0839 76.8997 55.1045 76.9304 55.1185 76.9643C55.1325 76.9982 55.1397 77.0345 55.1397 77.0711V104.147C55.1399 104.183 55.1327 104.218 55.1183 104.25C55.104 104.283 55.0829 104.312 55.0566 104.335C55.0302 104.359 54.9991 104.377 54.9653 104.388C54.9316 104.399 54.8959 104.402 54.8607 104.398Z" fill="#A2A2A2"/>
<path d="M231.413 104.398C231.38 104.398 231.348 104.392 231.317 104.379C231.287 104.367 231.259 104.348 231.236 104.325C231.212 104.301 231.194 104.274 231.181 104.243C231.169 104.213 231.162 104.18 231.162 104.147V77.0711C231.162 77.0017 231.187 76.9346 231.234 76.883C231.28 76.8314 231.344 76.7989 231.413 76.792C231.487 76.792 231.558 76.8214 231.611 76.8737C231.663 76.9261 231.693 76.9971 231.693 77.0711V104.147C231.693 104.183 231.685 104.218 231.671 104.25C231.657 104.283 231.636 104.312 231.609 104.335C231.583 104.359 231.552 104.377 231.518 104.388C231.484 104.399 231.449 104.402 231.413 104.398Z" fill="#A2A2A2"/>
<path d="M54.8604 101.188L64.4346 102.528V99.8486L54.8604 101.188Z" fill="#A2A2A2"/>
<path d="M221.867 102.528L231.414 101.188L221.867 99.8486V102.528Z" fill="#A2A2A2"/>
<path d="M4.42172 48.7389C4.35509 48.7389 4.29113 48.7124 4.24402 48.6653C4.1969 48.6182 4.1705 48.5543 4.1705 48.4877V39.8624C4.16656 39.8272 4.17013 39.7915 4.18098 39.7577C4.19183 39.7239 4.20964 39.6928 4.23337 39.6665C4.2571 39.6401 4.28619 39.619 4.31864 39.6047C4.3511 39.5904 4.38624 39.5831 4.42172 39.5833C4.45946 39.5788 4.49775 39.5829 4.53366 39.5954C4.56957 39.6078 4.60211 39.6283 4.62898 39.6551C4.65586 39.682 4.67634 39.7146 4.68878 39.7505C4.70122 39.7864 4.70537 39.8247 4.70088 39.8624V48.4877C4.7011 48.5232 4.69375 48.5583 4.67941 48.5907C4.66508 48.6232 4.64402 48.6522 4.61765 48.676C4.59128 48.6997 4.5602 48.7176 4.52642 48.7284C4.49264 48.7393 4.45698 48.7429 4.42172 48.7389Z" fill="#A2A2A2"/>
<path d="M4.45291 89.1016C4.38347 89.1019 4.31643 89.0764 4.26481 89.0299C4.21319 88.9835 4.18077 88.9195 4.17383 88.8504V79.4994C4.17383 79.4327 4.20023 79.3688 4.24735 79.3217C4.29446 79.2746 4.35842 79.2481 4.42505 79.2481C4.46031 79.2442 4.49597 79.2478 4.52975 79.2586C4.56353 79.2695 4.59462 79.2873 4.62099 79.3111C4.64736 79.3348 4.66842 79.3639 4.68275 79.3963C4.69709 79.4288 4.70444 79.4639 4.70422 79.4994V88.7387C4.69728 88.8078 4.66477 88.8718 4.61315 88.9183C4.56153 88.9647 4.4945 88.9903 4.42505 88.9899" fill="#A2A2A2"/>
<path d="M29.3503 74.7824H1.26939C1.19535 74.7824 1.12436 74.753 1.07201 74.7006C1.01966 74.6483 0.990234 74.5773 0.990234 74.5033C0.990234 74.4292 1.01966 74.3582 1.07201 74.3059C1.12436 74.2535 1.19535 74.2241 1.26939 74.2241H29.3503C29.4243 74.2241 29.4953 74.2535 29.5477 74.3059C29.6 74.3582 29.6295 74.4292 29.6295 74.5033C29.6295 74.5773 29.6 74.6483 29.5477 74.7006C29.4953 74.753 29.4243 74.7824 29.3503 74.7824Z" fill="#A2A2A2"/>
<path d="M30.297 55.0753H1.37876C1.30932 55.0756 1.2422 55.0501 1.19059 55.0036C1.13897 54.9572 1.10655 54.8931 1.09961 54.8241C1.09961 54.75 1.12904 54.679 1.18139 54.6267C1.23373 54.5743 1.30473 54.5449 1.37876 54.5449H30.297C30.3337 54.5449 30.37 54.5521 30.4038 54.5662C30.4377 54.5802 30.4685 54.6008 30.4944 54.6267C30.5203 54.6526 30.5409 54.6834 30.555 54.7172C30.569 54.7511 30.5762 54.7874 30.5762 54.8241C30.5692 54.8931 30.5368 54.9572 30.4852 55.0036C30.4336 55.0501 30.3665 55.0756 30.297 55.0753Z" fill="#A2A2A2"/>
<path d="M2.91504 84.1329H5.59467L4.42232 74.5586L2.91504 84.1329Z" fill="#A2A2A2"/>
<path d="M3.08398 45.2495L4.42383 54.7959L5.76367 45.2495H3.08398Z" fill="#A2A2A2"/>
<path d="M7.51921 66.4082L8.80328 66.7153C8.61752 67.6771 8.10462 68.545 7.35174 69.1717C6.59761 69.7407 5.67222 70.0361 4.72788 70.0091C3.8265 70.0613 2.93068 69.8373 2.15991 69.3671C1.47181 68.9122 0.936752 68.2604 0.624623 67.4969C0.259808 66.6122 0.0793363 65.6624 0.0942633 64.7055C0.060777 63.7382 0.272002 62.7781 0.708359 61.9142C1.07352 61.1867 1.64677 60.5843 2.35523 60.1835C3.0916 59.7816 3.91692 59.5705 4.75582 59.5694C5.64421 59.5411 6.51718 59.8059 7.24006 60.3231C7.92847 60.8552 8.41963 61.6017 8.63573 62.4445L7.35174 62.7516C7.19386 62.1428 6.85282 61.5971 6.37476 61.1884C5.89794 60.8405 5.31773 60.6634 4.72788 60.686C4.05193 60.6656 3.3871 60.8612 2.8298 61.2443C2.32583 61.5979 1.9529 62.1082 1.76908 62.6957C1.55772 63.3059 1.45387 63.9482 1.46207 64.5939C1.44129 65.3362 1.56454 66.0756 1.82496 66.7711C2.01659 67.363 2.41229 67.8676 2.94147 68.1947C3.44932 68.4917 4.02799 68.646 4.61629 68.6413C5.29357 68.6705 5.95829 68.4522 6.48643 68.0272C7.02239 67.5308 7.38447 66.8751 7.51921 66.157" fill="#A2A2A2"/>
<path d="M281.631 32.3817C281.557 32.3817 281.486 32.3523 281.433 32.3C281.381 32.2476 281.352 32.1766 281.352 32.1026V13.1214C281.352 13.0474 281.381 12.9764 281.433 12.924C281.486 12.8717 281.557 12.8423 281.631 12.8423C281.666 12.8421 281.701 12.8494 281.734 12.8637C281.766 12.878 281.795 12.8991 281.819 12.9255C281.843 12.9518 281.861 12.9829 281.872 13.0167C281.882 13.0505 281.886 13.0862 281.882 13.1214V32.1026C281.882 32.172 281.857 32.2391 281.81 32.2907C281.764 32.3423 281.7 32.3748 281.631 32.3817Z" fill="#A2A2A2"/>
<path d="M281.824 68.3623C281.752 68.356 281.684 68.3246 281.633 68.2736C281.582 68.2225 281.551 68.1551 281.545 68.0832V49.4928C281.541 49.4576 281.544 49.4219 281.555 49.3881C281.566 49.3543 281.584 49.3232 281.607 49.2968C281.631 49.2705 281.66 49.2494 281.693 49.2351C281.725 49.2208 281.76 49.2135 281.796 49.2137C281.833 49.2092 281.872 49.2133 281.908 49.2258C281.944 49.2382 281.976 49.2586 282.003 49.2855C282.03 49.3124 282.05 49.345 282.063 49.3809C282.075 49.4168 282.079 49.4551 282.075 49.4928V68.0832C282.069 68.1551 282.037 68.2225 281.986 68.2736C281.935 68.3246 281.868 68.356 281.796 68.3623" fill="#A2A2A2"/>
<path d="M284.811 74.7824H255.921C255.847 74.7824 255.776 74.753 255.723 74.7006C255.671 74.6483 255.642 74.5773 255.642 74.5033C255.642 74.4292 255.671 74.3582 255.723 74.3059C255.776 74.2535 255.847 74.2241 255.921 74.2241H284.811C284.885 74.2241 284.956 74.2535 285.009 74.3059C285.061 74.3582 285.091 74.4292 285.091 74.5033C285.091 74.5773 285.061 74.6483 285.009 74.7006C284.956 74.753 284.885 74.7824 284.811 74.7824Z" fill="#A2A2A2"/>
<path d="M284.394 7.42694H251.484C251.446 7.43142 251.408 7.42728 251.372 7.41484C251.336 7.4024 251.303 7.38198 251.277 7.3551C251.25 7.32823 251.229 7.29561 251.217 7.2597C251.205 7.22379 251.2 7.18552 251.205 7.14779C251.205 7.11231 251.212 7.07721 251.226 7.04475C251.241 7.0123 251.262 6.98324 251.288 6.95951C251.314 6.93577 251.346 6.9179 251.379 6.90705C251.413 6.89621 251.449 6.89263 251.484 6.89658H284.394C284.463 6.89623 284.53 6.92176 284.582 6.96822C284.634 7.01467 284.666 7.07869 284.673 7.14779C284.673 7.22182 284.644 7.29283 284.591 7.34518C284.539 7.39753 284.468 7.42694 284.394 7.42694Z" fill="#A2A2A2"/>
<path d="M280.289 16.6944H282.969L281.629 7.14795L280.289 16.6944Z" fill="#A2A2A2"/>
<path d="M280.485 65.0127L281.825 74.5591L283.165 65.0127H280.485Z" fill="#A2A2A2"/>
<path d="M276.243 45.8359V35.9824H277.555V40.0299H282.663V35.9824H283.975V45.8359H282.663V41.2022H277.555V45.8359H276.243Z" fill="#A2A2A2"/>
<path d="M288.943 48.6833H288.161V42.9052C287.897 43.1424 287.607 43.3484 287.296 43.5193C286.997 43.7107 286.679 43.8698 286.347 43.9938V43.1285C286.827 42.8961 287.277 42.6055 287.687 42.2632C288.007 41.9727 288.281 41.6336 288.496 41.2583H289.082L288.943 48.6833Z" fill="#A2A2A2"/>
<path d="M242.857 85.6687V78.5508H243.946V79.6115C244.126 79.2208 244.393 78.8769 244.728 78.6066C244.963 78.462 245.233 78.3848 245.509 78.3833C245.949 78.3866 246.377 78.5229 246.737 78.7741L246.319 79.8906C246.058 79.7307 245.759 79.6439 245.453 79.6394C245.193 79.6268 244.936 79.7058 244.728 79.8627C244.517 80.0384 244.362 80.271 244.281 80.5326C244.142 80.9845 244.076 81.4556 244.086 81.9283V85.6687H242.857Z" fill="#A2A2A2"/>
<path d="M250.395 88.5158H249.502V82.7377C249.238 82.9749 248.948 83.1809 248.637 83.3518C248.335 83.5378 248.017 83.6966 247.688 83.8263V82.961C248.17 82.7359 248.613 82.4343 248.999 82.0678C249.341 81.8086 249.618 81.4743 249.809 81.0908H250.395V88.5158Z" fill="#A2A2A2"/>
<path d="M258.292 69.1999V61.9424H259.381V63.0031C259.565 62.6229 259.821 62.2817 260.134 61.9982C260.371 61.8574 260.64 61.7804 260.916 61.7749C261.356 61.7746 261.785 61.9112 262.144 62.1657L261.753 63.2822C261.482 63.1182 261.176 63.0224 260.86 63.0031C260.596 63.0008 260.34 63.0895 260.134 63.2543C259.924 63.43 259.769 63.6626 259.688 63.9243C259.549 64.3761 259.483 64.8473 259.492 65.3199V69.1999H258.292Z" fill="#A2A2A2"/>
<path d="M267.17 71.0138V71.9908H262.285C262.243 71.7789 262.243 71.5607 262.285 71.3488C262.412 70.9863 262.611 70.6537 262.872 70.3718C263.233 69.9599 263.635 69.5857 264.072 69.2553C264.663 68.7901 265.205 68.2664 265.691 67.6921C265.94 67.3813 266.086 67.0009 266.11 66.6035C266.111 66.4314 266.077 66.2608 266.01 66.1023C265.943 65.9439 265.844 65.8009 265.719 65.6824C265.585 65.5562 265.427 65.4589 265.254 65.3964C265.081 65.334 264.897 65.3078 264.714 65.3195C264.524 65.3126 264.336 65.3436 264.158 65.4107C263.981 65.4778 263.819 65.5796 263.681 65.7103C263.541 65.8539 263.432 66.0245 263.36 66.2116C263.288 66.3987 263.255 66.5985 263.263 66.7989H262.341C262.351 66.4988 262.42 66.2035 262.544 65.9304C262.669 65.6572 262.847 65.4116 263.067 65.2078C263.538 64.823 264.134 64.6243 264.742 64.6496C265.355 64.618 265.957 64.8285 266.417 65.2358C266.616 65.4207 266.773 65.6457 266.879 65.8958C266.985 66.146 267.037 66.4157 267.031 66.6873C267.029 66.9926 266.972 67.2952 266.863 67.5805C266.711 67.9109 266.503 68.2129 266.249 68.4737C265.82 68.9391 265.353 69.3685 264.854 69.7577C264.323 70.2323 263.96 70.5393 263.821 70.7068C263.681 70.8567 263.55 71.0152 263.43 71.1813L267.17 71.0138Z" fill="#A2A2A2"/>
</svg>
