<svg width="184" height="299" viewBox="0 0 184 299" fill="none" xmlns="http://www.w3.org/2000/svg">
<path d="M17.9263 233.743C17.8443 233.743 17.7657 233.711 17.7078 233.653C17.6498 233.595 17.6172 233.516 17.6172 233.434V129.97C17.6168 129.931 17.6248 129.892 17.6408 129.857C17.6567 129.821 17.6802 129.789 17.7096 129.764C17.7389 129.738 17.7735 129.719 17.8109 129.708C17.8483 129.697 17.8877 129.694 17.9263 129.7C17.998 129.7 18.0668 129.728 18.1175 129.779C18.1682 129.829 18.1968 129.898 18.1968 129.97V233.434C18.1974 233.51 18.1701 233.583 18.1203 233.64C18.0704 233.697 18.0014 233.734 17.9263 233.743Z" fill="#A2A2A2"/>
<path d="M17.9263 110.768C17.8443 110.768 17.7657 110.736 17.7077 110.678C17.6498 110.62 17.6172 110.541 17.6172 110.459V6.87888C17.6172 6.79691 17.6498 6.71831 17.7077 6.66035C17.7657 6.60238 17.8443 6.56982 17.9263 6.56982C18.0014 6.57928 18.0704 6.61596 18.1203 6.67293C18.1701 6.7299 18.1973 6.80318 18.1967 6.87888V110.459C18.1973 110.535 18.1701 110.608 18.1203 110.665C18.0704 110.722 18.0014 110.759 17.9263 110.768Z" fill="#A2A2A2"/>
<path d="M16.4229 12.249H19.4364L17.9296 1.66309L16.4229 12.249Z" fill="#A2A2A2"/>
<path d="M16.4229 228.334L17.9296 238.92L19.4364 228.334H16.4229Z" fill="#A2A2A2"/>
<path d="M69.6589 1.97244H13.1747C13.1326 1.97904 13.0895 1.97559 13.049 1.96239C13.0085 1.94919 12.9716 1.92661 12.9415 1.89648C12.9114 1.86635 12.8888 1.82953 12.8756 1.78901C12.8624 1.7485 12.859 1.70545 12.8656 1.66336C12.8652 1.62434 12.8732 1.58572 12.8892 1.55011C12.9051 1.5145 12.9285 1.48274 12.9579 1.45705C12.9873 1.43136 13.0219 1.41233 13.0593 1.40125C13.0967 1.39018 13.136 1.38734 13.1747 1.39291H69.6589C69.7346 1.39232 69.8079 1.41952 69.8648 1.46937C69.9218 1.51922 69.9585 1.58825 69.968 1.66336C69.968 1.74533 69.9354 1.82396 69.8775 1.88192C69.8195 1.93988 69.7408 1.97244 69.6589 1.97244Z" fill="#A2A2A2"/>
<path d="M69.8942 239.229H13.1782C13.0963 239.229 13.0177 239.197 12.9597 239.139C12.9017 239.081 12.8691 239.002 12.8691 238.92C12.8691 238.838 12.9017 238.76 12.9597 238.702C13.0177 238.644 13.0963 238.611 13.1782 238.611H69.8942C69.9762 238.611 70.0549 238.644 70.1128 238.702C70.1708 238.76 70.2033 238.838 70.2033 238.92C70.2033 239.002 70.1708 239.081 70.1128 239.139C70.0549 239.197 69.9762 239.229 69.8942 239.229Z" fill="#A2A2A2"/>
<path d="M179.883 173.125C179.801 173.125 179.723 173.092 179.665 173.034C179.607 172.977 179.574 172.898 179.574 172.816V129.584C179.574 129.502 179.607 129.423 179.665 129.365C179.723 129.307 179.801 129.274 179.883 129.274C179.958 129.284 180.027 129.321 180.077 129.378C180.127 129.435 180.154 129.508 180.154 129.584V172.816C180.154 172.892 180.127 172.965 180.077 173.022C180.027 173.079 179.958 173.116 179.883 173.125Z" fill="#A2A2A2"/>
<path d="M179.886 111.657C179.804 111.657 179.725 111.625 179.667 111.567C179.609 111.509 179.577 111.43 179.577 111.348V66.8021C179.57 66.76 179.573 66.717 179.587 66.6764C179.6 66.6359 179.622 66.5991 179.652 66.569C179.683 66.5388 179.719 66.5163 179.76 66.5031C179.8 66.4899 179.843 66.4864 179.886 66.493C179.925 66.4926 179.963 66.5006 179.999 66.5166C180.034 66.5325 180.066 66.556 180.092 66.5854C180.118 66.6147 180.137 66.6493 180.148 66.6867C180.159 66.7241 180.162 66.7635 180.156 66.8021V111.232C180.157 111.308 180.129 111.381 180.08 111.438C180.03 111.495 179.961 111.532 179.886 111.541" fill="#A2A2A2"/>
<path d="M178.418 72.6743H181.393L179.886 62.0884L178.418 72.6743Z" fill="#A2A2A2"/>
<path d="M178.418 167.716L179.886 178.302L181.393 167.716H178.418Z" fill="#A2A2A2"/>
<path d="M178.07 121.741C178.044 122.349 178.191 122.952 178.495 123.48C178.613 123.668 178.779 123.821 178.976 123.923C179.173 124.025 179.394 124.072 179.616 124.059C179.908 124.082 180.2 124.017 180.455 123.872C180.709 123.728 180.915 123.51 181.045 123.248V120.041C180.923 119.778 180.726 119.557 180.478 119.405C180.231 119.254 179.944 119.18 179.654 119.191C178.611 119.191 178.07 120.041 178.07 121.741ZM175.945 121.741C175.88 120.669 176.18 119.607 176.795 118.728C177.054 118.368 177.398 118.078 177.795 117.883C178.193 117.688 178.632 117.593 179.075 117.607C179.448 117.602 179.818 117.679 180.159 117.832C180.499 117.986 180.802 118.212 181.045 118.496V114.4H183.17V125.991H181.238V125.141C181.01 125.468 180.702 125.732 180.344 125.907C179.986 126.083 179.589 126.165 179.191 126.145C178.747 126.163 178.307 126.07 177.909 125.874C177.511 125.678 177.168 125.387 176.911 125.025C176.29 124.119 175.991 123.031 176.061 121.934" fill="#A2A2A2"/>
<path d="M182.628 62.3588H152.067C151.996 62.3588 151.927 62.3303 151.876 62.2796C151.825 62.2289 151.797 62.1601 151.797 62.0884C151.796 62.0127 151.823 61.9394 151.873 61.8824C151.923 61.8255 151.992 61.7888 152.067 61.7793H182.628C182.707 61.7877 182.78 61.823 182.837 61.8792C182.893 61.9355 182.928 62.0093 182.937 62.0884C182.927 62.1635 182.89 62.2325 182.833 62.2824C182.777 62.3322 182.703 62.3594 182.628 62.3588Z" fill="#A2A2A2"/>
<path d="M182.628 178.611H152.415C152.336 178.603 152.263 178.568 152.206 178.511C152.15 178.455 152.115 178.381 152.106 178.302C152.116 178.227 152.153 178.158 152.21 178.108C152.267 178.058 152.34 178.031 152.415 178.032H182.628C182.704 178.031 182.777 178.058 182.834 178.108C182.891 178.158 182.928 178.227 182.937 178.302C182.929 178.381 182.893 178.455 182.837 178.511C182.781 178.568 182.707 178.603 182.628 178.611Z" fill="#A2A2A2"/>
<path d="M108.836 41.8052H113.279L116.023 28.0898H110.884H105.707L108.836 41.8052Z" fill="#434343"/>
<path d="M109.106 41.4569H112.97L115.597 28.4756H106.131L109.106 41.4569ZM113.279 42.1524H108.797C108.719 42.1481 108.643 42.1199 108.581 42.0715C108.519 42.0232 108.473 41.9571 108.45 41.8819L105.32 28.1665C105.281 28.0672 105.281 27.9568 105.32 27.8574C105.407 27.8249 105.503 27.8249 105.591 27.8574H115.945C116.032 27.8249 116.128 27.8249 116.215 27.8574C116.239 27.8986 116.251 27.9452 116.251 27.9927C116.251 28.0402 116.239 28.0868 116.215 28.1279L113.472 41.8433C113.449 41.9184 113.403 41.9846 113.34 42.0329C113.278 42.0812 113.203 42.1094 113.124 42.1137" fill="#A2A2A2"/>
<path d="M108.836 198.74H113.279L116.023 212.455H110.884H105.707L108.836 198.74Z" fill="#434343"/>
<path d="M106.13 212.108H115.596L112.969 199.126H109.105L106.13 212.108ZM116.021 212.803H105.667C105.624 212.821 105.578 212.831 105.532 212.831C105.485 212.831 105.439 212.821 105.396 212.803C105.357 212.704 105.357 212.594 105.396 212.494L108.564 198.817C108.582 198.739 108.627 198.669 108.69 198.62C108.753 198.571 108.832 198.545 108.912 198.547H113.355C113.434 198.551 113.509 198.579 113.571 198.628C113.633 198.676 113.679 198.742 113.703 198.817L116.446 212.494C116.473 212.541 116.487 212.594 116.487 212.649C116.487 212.703 116.473 212.756 116.446 212.803C116.403 212.821 116.357 212.831 116.311 212.831C116.264 212.831 116.218 212.821 116.175 212.803" fill="#A2A2A2"/>
<path d="M108.794 199.667C108.87 199.35 108.824 199.016 108.667 198.73C108.51 198.445 108.253 198.228 107.944 198.121H108.292C99.6009 194.811 90.5051 192.68 81.2477 191.785C80.9162 191.739 80.5796 191.822 80.3068 192.016C80.0339 192.21 79.8454 192.5 79.7796 192.828L73.6367 219.487C73.5596 219.809 73.6036 220.148 73.7603 220.44C73.917 220.732 74.1755 220.957 74.4866 221.071H74.0616C82.8614 224.42 92.0773 226.551 101.454 227.407H101.067C101.396 227.435 101.724 227.346 101.993 227.155C102.262 226.964 102.454 226.683 102.536 226.364L108.794 199.667Z" fill="#D3D3D3"/>
<path d="M101.07 226.944C101.274 226.942 101.471 226.873 101.632 226.747C101.793 226.621 101.907 226.446 101.958 226.248L108.101 199.59C108.157 199.395 108.14 199.187 108.055 199.002C107.97 198.818 107.822 198.67 107.638 198.586C99.0571 195.334 90.0772 193.255 80.9408 192.404C80.7289 192.386 80.5173 192.442 80.3415 192.561C80.1657 192.681 80.0362 192.857 79.9749 193.061L73.832 219.719C73.7705 219.929 73.7924 220.155 73.8932 220.349C73.9939 220.544 74.1658 220.691 74.3729 220.762C82.9721 223.996 91.9623 226.074 101.108 226.944H101.07ZM101.108 227.871H101.07C91.8844 226.989 82.856 224.897 74.2184 221.651H73.9479C73.8783 221.63 73.816 221.59 73.7682 221.535C73.7204 221.481 73.6889 221.413 73.6775 221.342C73.4624 221.129 73.3065 220.864 73.2251 220.573C73.1438 220.281 73.1399 219.974 73.2138 219.68L79.3568 193.022C79.4556 192.6 79.6991 192.226 80.0449 191.965C80.3907 191.704 80.817 191.572 81.2499 191.593C90.4995 192.465 99.5932 194.556 108.294 197.813H108.603C108.711 197.872 108.794 197.968 108.835 198.084C109.07 198.3 109.244 198.575 109.339 198.88C109.434 199.185 109.447 199.51 109.376 199.822L103.233 226.48C103.143 226.85 102.944 227.184 102.662 227.439C102.379 227.694 102.026 227.858 101.649 227.91" fill="#A2A2A2"/>
<path d="M112.12 214.04V212.456C123.606 211.392 134.898 208.793 145.694 204.729C145.993 204.601 146.238 204.373 146.386 204.083C146.534 203.794 146.576 203.462 146.505 203.145L143.801 191.554H147.239L150.098 203.492C150.253 204.269 150.139 205.075 149.773 205.778C149.408 206.48 148.814 207.037 148.089 207.356C137.109 211.822 125.463 214.433 113.627 215.083C113.445 215.099 113.262 215.077 113.089 215.018C112.916 214.959 112.757 214.865 112.622 214.742C112.488 214.618 112.38 214.468 112.307 214.3C112.234 214.133 112.197 213.952 112.197 213.769" fill="#434343"/>
<path d="M112.66 214.04C112.655 214.175 112.685 214.31 112.745 214.432C112.806 214.553 112.897 214.657 113.008 214.735C113.099 214.826 113.208 214.897 113.327 214.943C113.447 214.99 113.575 215.011 113.704 215.005C125.502 214.355 137.11 211.743 148.05 207.278C148.713 207.005 149.258 206.506 149.59 205.87C149.922 205.234 150.02 204.502 149.866 203.801L147.084 192.211H144.341L146.968 203.183C147.063 203.577 147.014 203.993 146.83 204.354C146.646 204.715 146.339 204.999 145.964 205.153C135.244 209.204 124.03 211.803 112.622 212.88L112.66 214.04ZM113.665 215.701C113.24 215.702 112.829 215.551 112.506 215.276C112.335 215.126 112.199 214.942 112.105 214.736C112.012 214.529 111.964 214.305 111.965 214.078V212.494C111.953 212.448 111.952 212.399 111.962 212.352C111.972 212.305 111.993 212.261 112.023 212.224C112.053 212.186 112.091 212.156 112.135 212.136C112.178 212.116 112.226 212.106 112.274 212.108C123.736 211.049 135.003 208.45 145.771 204.381C145.994 204.294 146.176 204.127 146.283 203.913C146.391 203.699 146.414 203.452 146.35 203.222L143.646 191.824C143.622 191.783 143.609 191.737 143.609 191.689C143.609 191.642 143.622 191.595 143.646 191.554C143.681 191.534 143.721 191.523 143.761 191.523C143.802 191.523 143.842 191.534 143.877 191.554H147.355C147.432 191.563 147.505 191.593 147.566 191.641C147.627 191.688 147.675 191.752 147.702 191.824L150.561 203.724C150.741 204.593 150.617 205.497 150.209 206.285C149.801 207.073 149.134 207.697 148.32 208.051C137.32 212.538 125.645 215.15 113.781 215.778" fill="#A2A2A2"/>
<path d="M109.418 214.04V212.456C97.9313 211.392 86.6395 208.793 75.8438 204.729C75.5466 204.596 75.3019 204.369 75.148 204.082C74.9942 203.795 74.9399 203.466 74.9938 203.145L77.621 191.554H74.1825L71.4394 203.492C71.2843 204.269 71.3989 205.075 71.7642 205.778C72.1296 206.48 72.7237 207.037 73.4484 207.356C84.4276 211.826 96.0742 214.437 107.911 215.083C108.093 215.101 108.278 215.079 108.451 215.019C108.624 214.959 108.783 214.862 108.915 214.735C109.178 214.482 109.331 214.135 109.34 213.769" fill="#D3D3D3"/>
<path d="M109.418 214.04V212.456C97.9313 211.392 86.6395 208.793 75.8438 204.729C75.5466 204.596 75.3019 204.369 75.148 204.082C74.9942 203.795 74.9399 203.466 74.9938 203.145L77.621 191.554H74.1825L71.4394 203.492C71.2843 204.269 71.3989 205.075 71.7642 205.778C72.1296 206.48 72.7237 207.037 73.4484 207.356C84.4276 211.826 96.0742 214.437 107.911 215.083C108.093 215.101 108.278 215.079 108.451 215.019C108.624 214.959 108.783 214.862 108.915 214.735C109.178 214.482 109.331 214.135 109.34 213.769" fill="#434343"/>
<path d="M74.5273 192.017L71.8614 203.608C71.7073 204.309 71.8048 205.041 72.1368 205.677C72.4689 206.313 73.0143 206.811 73.6773 207.085C84.6029 211.554 96.1985 214.166 107.985 214.812C108.12 214.821 108.254 214.801 108.381 214.754C108.507 214.708 108.622 214.635 108.719 214.542C108.826 214.46 108.913 214.354 108.973 214.234C109.033 214.113 109.065 213.981 109.067 213.846V212.61C97.6582 211.532 86.4448 208.933 75.7249 204.883C75.35 204.728 75.0427 204.445 74.8585 204.083C74.6743 203.722 74.6252 203.307 74.7204 202.912L77.2317 191.94C76.3045 191.94 75.4158 191.94 74.4886 191.94L74.5273 192.017ZM108.024 215.623C96.1597 214.996 84.4847 212.384 73.4841 207.896C72.6781 207.544 72.0167 206.926 71.6092 206.146C71.2017 205.367 71.0726 204.471 71.2433 203.608L73.9864 191.67C74.0141 191.597 74.0611 191.534 74.1224 191.486C74.1837 191.438 74.2569 191.408 74.3341 191.399H77.8112C77.8533 191.379 77.8996 191.368 77.9464 191.368C77.9933 191.368 78.0395 191.379 78.0817 191.399C78.0997 191.442 78.109 191.488 78.109 191.535C78.109 191.581 78.0997 191.627 78.0817 191.67L75.4931 203.067C75.4289 203.298 75.4526 203.544 75.5597 203.758C75.6668 203.972 75.8496 204.139 76.0726 204.226C86.8403 208.295 98.1072 210.894 109.569 211.953C109.615 211.958 109.659 211.972 109.7 211.994C109.74 212.016 109.776 212.046 109.804 212.082C109.833 212.118 109.854 212.159 109.867 212.203C109.88 212.247 109.884 212.294 109.878 212.339V213.923C109.879 214.15 109.831 214.374 109.738 214.581C109.645 214.788 109.508 214.972 109.337 215.121C109.014 215.397 108.603 215.547 108.178 215.546" fill="#A2A2A2"/>
<path d="M71.513 222.849C71.3798 222.849 71.252 222.796 71.1578 222.701C71.0636 222.607 71.0107 222.479 71.0107 222.346V191.438C71.0105 191.374 71.0237 191.31 71.0494 191.252C71.075 191.193 71.1127 191.14 71.1599 191.096C71.2071 191.052 71.2629 191.019 71.3237 190.998C71.3844 190.977 71.449 190.969 71.513 190.975C71.636 190.975 71.7539 191.024 71.8408 191.111C71.9278 191.197 71.9766 191.315 71.9766 191.438V222.346C71.977 222.473 71.9294 222.595 71.8434 222.688C71.7575 222.782 71.6394 222.839 71.513 222.849Z" fill="#A2A2A2"/>
<path d="M150.212 180.968V191.476C137.363 191.475 124.627 193.873 112.659 198.547H108.795C96.8731 193.898 84.1925 191.501 71.3965 191.476V180.388C71.3964 179.78 71.6353 179.196 72.0617 178.763C72.4881 178.329 73.0679 178.08 73.6759 178.07H147.082C147.468 178.046 147.854 178.106 148.215 178.246C148.575 178.386 148.9 178.603 149.168 178.881C149.454 179.14 149.681 179.456 149.834 179.809C149.987 180.162 150.063 180.544 150.057 180.929" fill="#434343"/>
<path d="M108.988 198.16H112.851C124.659 193.583 137.2 191.187 149.863 191.09V181.083C149.868 180.762 149.809 180.443 149.69 180.145C149.57 179.846 149.393 179.574 149.168 179.345C148.698 178.905 148.073 178.669 147.429 178.688H74.0231C73.538 178.698 73.0762 178.898 72.7368 179.245C72.3973 179.591 72.2072 180.057 72.2073 180.543V191.129C84.8709 191.226 97.4117 193.621 109.22 198.199L108.988 198.16ZM113.083 199.165H108.795C96.9217 194.537 84.2933 192.153 71.5505 192.133C71.4241 192.123 71.3061 192.066 71.2201 191.973C71.1341 191.88 71.0865 191.758 71.0869 191.631V180.388C71.0868 179.647 71.3787 178.935 71.8993 178.407C72.4199 177.879 73.1273 177.578 73.8686 177.568H147.275C147.723 177.543 148.171 177.613 148.59 177.773C149.01 177.933 149.391 178.179 149.709 178.495C150.348 179.129 150.709 179.99 150.713 180.89V191.36C150.719 191.424 150.711 191.489 150.69 191.55C150.669 191.61 150.636 191.666 150.592 191.713C150.548 191.761 150.496 191.798 150.437 191.824C150.378 191.85 150.314 191.863 150.25 191.863C137.507 191.886 124.88 194.27 113.006 198.894" fill="#A2A2A2"/>
<path d="M113.899 227.793C125.698 227.477 137.354 225.138 148.361 220.878C148.558 220.773 148.777 220.718 148.999 220.718C149.221 220.718 149.44 220.773 149.636 220.878C149.817 221.003 149.964 221.171 150.065 221.366C150.166 221.561 150.218 221.778 150.216 221.998V236.061C150.206 236.813 149.9 237.53 149.365 238.058C148.83 238.586 148.109 238.882 147.357 238.881H117.299C117.056 238.911 116.809 238.881 116.58 238.793C116.351 238.706 116.147 238.563 115.985 238.379L114.054 236.448H107.679L105.709 238.418C105.536 238.586 105.329 238.714 105.103 238.794C104.876 238.874 104.634 238.904 104.395 238.881H74.337C73.589 238.881 72.8716 238.584 72.3427 238.055C71.8138 237.527 71.5167 236.809 71.5167 236.061V221.998C71.5078 221.777 71.5565 221.558 71.6581 221.361C71.7597 221.165 71.9107 220.998 72.0962 220.878C72.2853 220.773 72.498 220.718 72.7143 220.718C72.9306 220.718 73.1433 220.773 73.3325 220.878C84.3406 225.134 95.9967 227.474 107.795 227.793H110.847H113.899Z" fill="#434343"/>
<path d="M107.675 236.138H114.05C114.098 236.114 114.151 236.102 114.205 236.102C114.258 236.102 114.311 236.114 114.359 236.138C114.359 236.138 115.905 237.645 116.291 238.07C116.42 238.201 116.578 238.301 116.752 238.361C116.927 238.422 117.112 238.441 117.295 238.418H147.431C147.743 238.423 148.054 238.366 148.344 238.25C148.635 238.133 148.899 237.961 149.122 237.741C149.345 237.522 149.522 237.26 149.643 236.972C149.764 236.683 149.826 236.374 149.826 236.061V221.998C149.826 221.853 149.791 221.711 149.724 221.583C149.656 221.455 149.559 221.346 149.44 221.264C149.307 221.199 149.162 221.165 149.015 221.165C148.867 221.165 148.722 221.199 148.59 221.264C137.547 225.55 125.852 227.915 114.011 228.257H107.868C95.9632 227.932 84.202 225.567 73.097 221.264C72.9715 221.199 72.8324 221.166 72.6914 221.166C72.5503 221.166 72.4112 221.199 72.2857 221.264C72.1612 221.34 72.0596 221.449 71.9916 221.578C71.9236 221.707 71.8917 221.852 71.8993 221.998V236.061C71.8993 236.686 72.1476 237.285 72.5896 237.727C73.0316 238.169 73.631 238.418 74.2561 238.418H104.314C104.488 238.446 104.666 238.432 104.834 238.379C105.002 238.325 105.155 238.232 105.28 238.109L107.25 236.138C107.304 236.111 107.364 236.097 107.424 236.097C107.485 236.097 107.544 236.111 107.598 236.138H107.675ZM147.276 239.538H117.295C116.987 239.561 116.677 239.514 116.389 239.4C116.102 239.287 115.843 239.109 115.634 238.881C115.286 238.534 114.243 237.452 113.857 237.104H107.868L106.014 238.92C105.804 239.134 105.55 239.299 105.27 239.406C104.99 239.513 104.69 239.558 104.391 239.538H74.3333C73.4553 239.528 72.616 239.175 71.995 238.554C71.3741 237.933 71.0208 237.094 71.0107 236.216V222.152C71.0121 221.849 71.0865 221.55 71.2277 221.281C71.3689 221.012 71.5727 220.781 71.822 220.607C72.0737 220.452 72.3566 220.354 72.6504 220.32C72.9443 220.287 73.2419 220.319 73.522 220.414C84.4684 224.652 96.0579 226.991 107.791 227.33C109.839 227.33 111.886 227.33 113.896 227.33C125.641 226.991 137.243 224.652 148.203 220.414C148.485 220.319 148.786 220.291 149.08 220.331C149.375 220.371 149.657 220.479 149.903 220.646C150.145 220.815 150.341 221.041 150.476 221.303C150.611 221.566 150.679 221.857 150.676 222.152V236.216C150.676 236.652 150.59 237.084 150.423 237.487C150.256 237.89 150.011 238.256 149.703 238.565C149.394 238.874 149.028 239.118 148.625 239.285C148.222 239.452 147.79 239.538 147.353 239.538" fill="#A2A2A2"/>
<path d="M92.9934 120.505H66.2967C66.225 120.505 66.1562 120.476 66.1054 120.425C66.0547 120.375 66.0262 120.306 66.0262 120.234C66.0206 120.196 66.0235 120.156 66.0346 120.119C66.0456 120.081 66.0647 120.047 66.0903 120.017C66.116 119.988 66.1478 119.965 66.1834 119.949C66.219 119.933 66.2577 119.925 66.2967 119.925H92.9547C93.0367 119.925 93.1154 119.958 93.1733 120.016C93.2313 120.074 93.2638 120.152 93.2638 120.234C93.2544 120.309 93.2177 120.378 93.1607 120.428C93.1037 120.478 93.0304 120.505 92.9547 120.505H92.9934ZM96.5092 120.505H95.3115C95.2397 120.505 95.1709 120.476 95.1202 120.425C95.0695 120.375 95.0411 120.306 95.0411 120.234C95.0355 120.196 95.0383 120.156 95.0494 120.119C95.0604 120.081 95.0795 120.047 95.1052 120.017C95.1309 119.988 95.1626 119.965 95.1982 119.949C95.2338 119.933 95.2725 119.925 95.3115 119.925H96.5092C96.5912 119.925 96.6698 119.958 96.7277 120.016C96.7857 120.074 96.8182 120.152 96.8182 120.234C96.8088 120.309 96.7721 120.378 96.7151 120.428C96.6582 120.478 96.5849 120.505 96.5092 120.505ZM125.524 120.505H98.9045C98.8659 120.51 98.8265 120.507 98.7891 120.496C98.7517 120.485 98.7171 120.466 98.6878 120.441C98.6584 120.415 98.635 120.383 98.619 120.347C98.6031 120.312 98.5951 120.273 98.5955 120.234C98.5889 120.192 98.5923 120.149 98.6055 120.109C98.6187 120.068 98.6413 120.031 98.6714 120.001C98.7015 119.971 98.7383 119.948 98.7789 119.935C98.8194 119.922 98.8625 119.919 98.9045 119.925H125.524C125.606 119.925 125.685 119.958 125.743 120.016C125.8 120.074 125.833 120.152 125.833 120.234C125.824 120.309 125.787 120.378 125.73 120.428C125.673 120.478 125.6 120.505 125.524 120.505ZM129.078 120.505H128.113C128.074 120.51 128.035 120.507 127.997 120.496C127.96 120.485 127.925 120.466 127.896 120.441C127.866 120.415 127.843 120.383 127.827 120.347C127.811 120.312 127.803 120.273 127.803 120.234C127.797 120.192 127.8 120.149 127.813 120.109C127.827 120.068 127.849 120.031 127.879 120.001C127.91 119.971 127.946 119.948 127.987 119.935C128.027 119.922 128.07 119.919 128.113 119.925H129.272C129.314 119.919 129.357 119.922 129.397 119.935C129.438 119.948 129.475 119.971 129.505 120.001C129.535 120.031 129.557 120.068 129.571 120.109C129.584 120.149 129.587 120.192 129.581 120.234C129.581 120.273 129.573 120.312 129.557 120.347C129.541 120.383 129.518 120.415 129.488 120.441C129.459 120.466 129.424 120.485 129.387 120.496C129.35 120.507 129.31 120.51 129.272 120.505H129.078ZM154.462 120.505H131.667C131.591 120.505 131.518 120.478 131.461 120.428C131.404 120.378 131.367 120.309 131.358 120.234C131.358 120.152 131.39 120.074 131.448 120.016C131.506 119.958 131.585 119.925 131.667 119.925H154.462C154.501 119.925 154.539 119.933 154.575 119.949C154.61 119.965 154.642 119.988 154.668 120.017C154.694 120.047 154.713 120.081 154.724 120.119C154.735 120.156 154.738 120.196 154.732 120.234C154.732 120.306 154.703 120.375 154.653 120.425C154.602 120.476 154.533 120.505 154.462 120.505Z" fill="#A2A2A2"/>
<path d="M150.216 222.733C150.093 222.733 149.975 222.684 149.888 222.597C149.801 222.51 149.752 222.392 149.752 222.269V191.361C149.752 191.238 149.801 191.12 149.888 191.033C149.975 190.946 150.093 190.897 150.216 190.897C150.339 190.897 150.456 190.946 150.543 191.033C150.63 191.12 150.679 191.238 150.679 191.361V222.269C150.679 222.392 150.63 222.51 150.543 222.597C150.456 222.684 150.339 222.733 150.216 222.733Z" fill="#A2A2A2"/>
<path d="M113.084 199.667C113.009 199.35 113.054 199.016 113.211 198.73C113.369 198.445 113.626 198.228 113.934 198.121H113.587C122.278 194.811 131.374 192.68 140.631 191.785C140.963 191.739 141.299 191.822 141.572 192.016C141.845 192.21 142.033 192.5 142.099 192.828L148.242 219.487C148.319 219.809 148.275 220.148 148.118 220.44C147.962 220.732 147.703 220.957 147.392 221.071H147.817C139.017 224.42 129.802 226.551 120.425 227.407H120.618C120.29 227.435 119.961 227.346 119.693 227.155C119.424 226.964 119.231 226.683 119.15 226.364L113.084 199.667Z" fill="#D3D3D3"/>
<path d="M114.016 198.586C113.831 198.67 113.683 198.818 113.598 199.002C113.513 199.186 113.497 199.395 113.552 199.59L119.695 226.248C119.74 226.449 119.853 226.628 120.015 226.755C120.177 226.882 120.378 226.949 120.584 226.944C129.729 226.074 138.72 223.996 147.319 220.762C147.526 220.691 147.698 220.543 147.799 220.349C147.899 220.155 147.921 219.929 147.86 219.719L141.717 193.061C141.662 192.853 141.534 192.672 141.357 192.552C141.179 192.431 140.964 192.378 140.751 192.404C131.615 193.255 122.635 195.334 114.054 198.586H114.016ZM120.545 227.871C120.164 227.835 119.804 227.682 119.513 227.433C119.222 227.184 119.016 226.851 118.922 226.48L112.663 199.783C112.592 199.472 112.605 199.147 112.7 198.841C112.795 198.536 112.969 198.261 113.204 198.045C113.246 197.929 113.328 197.833 113.436 197.774H113.745C122.446 194.518 131.54 192.426 140.79 191.554C141.221 191.541 141.643 191.676 141.988 191.936C142.332 192.196 142.577 192.565 142.683 192.984L148.826 219.642C148.897 219.932 148.896 220.236 148.822 220.526C148.747 220.816 148.603 221.083 148.401 221.303C148.376 221.374 148.335 221.439 148.281 221.493C148.228 221.546 148.163 221.587 148.092 221.612H147.705C139.006 224.875 129.911 226.967 120.661 227.832H120.39" fill="#A2A2A2"/>
<path d="M71.513 180.852C71.449 180.858 71.3844 180.85 71.3237 180.829C71.2629 180.808 71.2071 180.774 71.1599 180.731C71.1127 180.687 71.075 180.634 71.0494 180.575C71.0237 180.516 71.0105 180.453 71.0107 180.389V120.273C71.0205 120.146 71.0777 120.028 71.1709 119.942C71.264 119.856 71.3862 119.809 71.513 119.809C71.633 119.818 71.7458 119.87 71.8309 119.955C71.916 120.04 71.9677 120.153 71.9766 120.273V180.389C71.9766 180.512 71.9278 180.629 71.8408 180.716C71.7539 180.803 71.636 180.852 71.513 180.852Z" fill="#A2A2A2"/>
<path d="M150.216 181.431C150.093 181.431 149.975 181.382 149.888 181.295C149.801 181.208 149.752 181.09 149.752 180.968V120.04C149.752 119.917 149.801 119.799 149.888 119.712C149.975 119.625 150.093 119.577 150.216 119.577C150.339 119.577 150.456 119.625 150.543 119.712C150.63 119.799 150.679 119.917 150.679 120.04V180.968C150.679 181.09 150.63 181.208 150.543 181.295C150.456 181.382 150.339 181.431 150.216 181.431Z" fill="#A2A2A2"/>
<path d="M108.794 40.8779C108.881 41.2005 108.841 41.5438 108.683 41.8381C108.525 42.1323 108.261 42.3553 107.944 42.4619H108.292C99.6047 45.7781 90.5065 47.8967 81.2477 48.7594C80.9176 48.7962 80.5855 48.7102 80.3148 48.5178C80.044 48.3254 79.8535 48.0401 79.7796 47.7162L73.6367 21.0582C73.5596 20.7359 73.6036 20.3965 73.7603 20.1044C73.917 19.8124 74.1755 19.5881 74.4866 19.4741H74.0616C82.8614 16.1251 92.0773 13.9934 101.454 13.138H101.067C101.396 13.1095 101.724 13.1988 101.993 13.3899C102.262 13.581 102.454 13.8614 102.536 14.1811L108.794 40.8779Z" fill="#D3D3D3"/>
<path d="M74.4486 19.8217C74.2499 19.8922 74.0845 20.0341 73.9846 20.2197C73.8846 20.4054 73.8572 20.6215 73.9077 20.8262L80.0506 47.5229C80.1051 47.7306 80.2329 47.9116 80.4105 48.0323C80.588 48.1531 80.8033 48.2054 81.0165 48.1797C90.1337 47.3112 99.0968 45.2458 107.675 42.0368C107.876 41.9585 108.042 41.8094 108.142 41.6174C108.242 41.4253 108.268 41.2036 108.216 40.9936L102.073 14.3355C102.02 14.1315 101.899 13.9515 101.731 13.8251C101.562 13.6987 101.356 13.6335 101.145 13.6401C92.0411 14.4875 83.0897 16.5402 74.5259 19.7444L74.4486 19.8217ZM80.9392 49.1456C80.5195 49.148 80.1113 49.008 79.7815 48.7483C79.4516 48.4886 79.2196 48.1247 79.1234 47.7161L72.9805 21.058C72.9065 20.7647 72.9104 20.4572 72.9917 20.1658C73.073 19.8745 73.229 19.6094 73.4441 19.3967C73.4556 19.325 73.487 19.258 73.5348 19.2033C73.5827 19.1486 73.6449 19.1085 73.7145 19.0877C82.5065 15.7497 91.7063 13.6057 101.068 12.7129H101.261C101.633 12.7616 101.983 12.9198 102.265 13.1674C102.547 13.4151 102.749 13.741 102.845 14.1037L108.988 40.8004C109.059 41.1122 109.046 41.4372 108.951 41.7424C108.856 42.0477 108.683 42.3225 108.447 42.539C108.431 42.5938 108.401 42.6435 108.36 42.684C108.32 42.7244 108.27 42.7542 108.216 42.7708C99.4514 46.1124 90.2766 48.2566 80.9392 49.1456Z" fill="#A2A2A2"/>
<path d="M112.12 26.5053V28.0894C123.603 29.1732 134.892 31.7714 145.694 35.8163C145.993 35.9439 146.238 36.1722 146.386 36.4616C146.534 36.751 146.576 37.0831 146.505 37.4004L143.994 48.9908H147.471L150.098 37.0527C150.253 36.2762 150.139 35.47 149.773 34.7675C149.408 34.065 148.814 33.5082 148.089 33.1892C137.109 28.7234 125.463 26.1122 113.627 25.4622C113.448 25.4463 113.268 25.4672 113.098 25.5236C112.927 25.5801 112.77 25.6708 112.636 25.7903C112.502 25.9098 112.394 26.0554 112.319 26.2183C112.243 26.3811 112.202 26.5577 112.197 26.7371" fill="#434343"/>
<path d="M144.382 48.4504C145.271 48.4504 146.198 48.4504 147.087 48.4504L149.675 36.8599C149.829 36.1593 149.732 35.4269 149.4 34.791C149.068 34.1552 148.522 33.6566 147.859 33.3828C136.922 28.9095 125.313 26.2978 113.513 25.6558C113.244 25.6581 112.985 25.7537 112.779 25.9262C112.679 26.012 112.599 26.1189 112.546 26.2392C112.493 26.3594 112.467 26.4901 112.47 26.6217V27.858C123.891 28.9361 135.117 31.5348 145.85 35.585C146.225 35.7396 146.533 36.0231 146.717 36.3845C146.901 36.7458 146.95 37.1611 146.855 37.5553L144.382 48.4504ZM147.396 49.3004H143.957C143.915 49.3209 143.869 49.3315 143.822 49.3315C143.775 49.3315 143.729 49.3209 143.687 49.3004C143.654 49.2132 143.654 49.1171 143.687 49.0299L146.198 37.6326C146.262 37.4019 146.239 37.1556 146.131 36.9415C146.024 36.7273 145.842 36.5606 145.618 36.4736C134.848 32.4133 123.583 29.8145 112.122 28.7466C112.076 28.7418 112.032 28.728 111.991 28.7059C111.951 28.6838 111.915 28.6539 111.887 28.618C111.858 28.582 111.837 28.5408 111.824 28.4965C111.811 28.4523 111.808 28.406 111.813 28.3602V26.7762C111.812 26.5495 111.86 26.3252 111.953 26.1186C112.047 25.912 112.183 25.7278 112.354 25.5785C112.526 25.4248 112.728 25.3078 112.948 25.2347C113.167 25.1616 113.399 25.134 113.629 25.1535C125.493 25.7814 137.168 28.3932 148.168 32.8805C148.974 33.2334 149.636 33.8507 150.043 34.6305C150.451 35.4103 150.58 36.3059 150.409 37.169L147.782 49.1072C147.759 49.1823 147.713 49.2485 147.65 49.2968C147.588 49.3452 147.513 49.3733 147.434 49.3776" fill="#A2A2A2"/>
<path d="M109.418 26.5058V28.0898C97.9345 29.1737 86.6453 31.7719 75.8438 35.8168C75.5466 35.9493 75.3019 36.1768 75.148 36.4635C74.9942 36.7502 74.9399 37.0799 74.9938 37.4008L77.5437 48.9913C76.3847 48.9913 75.2256 48.9913 74.0666 48.9913L71.4394 36.9758C71.2843 36.1993 71.3989 35.3932 71.7642 34.6907C72.1296 33.9881 72.7237 33.4313 73.4484 33.1123C84.4276 28.6424 96.0742 26.0311 107.911 25.3854C108.093 25.3676 108.278 25.3895 108.451 25.4495C108.624 25.5095 108.783 25.6063 108.915 25.7331C109.169 25.9772 109.321 26.3086 109.34 26.6603" fill="#D3D3D3"/>
<path d="M109.418 26.5058V28.0898C97.9345 29.1737 86.6453 31.7719 75.8438 35.8168C75.5466 35.9493 75.3019 36.1768 75.148 36.4635C74.9942 36.7502 74.9399 37.0799 74.9938 37.4008L77.5437 48.9913H74.0666L71.4394 36.9758C71.2843 36.1993 71.3989 35.3932 71.7642 34.6907C72.1296 33.9881 72.7237 33.4313 73.4484 33.1123C84.4276 28.6424 96.0742 26.0311 107.911 25.3854C108.093 25.3676 108.278 25.3895 108.451 25.4495C108.624 25.5095 108.783 25.6063 108.915 25.7331C109.169 25.9772 109.321 26.3086 109.34 26.6603" fill="#434343"/>
<path d="M108.065 25.5787C96.2785 26.2249 84.6828 28.8366 73.7573 33.3056C73.0942 33.5794 72.5488 34.078 72.2168 34.7139C71.8847 35.3497 71.7873 36.0822 71.9415 36.7828L74.53 48.3733H77.2344L74.8004 37.285C74.7158 36.8864 74.7739 36.4708 74.9646 36.1106C75.1553 35.7505 75.4664 35.4688 75.8436 35.3146C86.5648 31.2687 97.7775 28.6701 109.186 27.5877V26.3514C109.19 26.2156 109.161 26.0808 109.1 25.9593C109.04 25.8378 108.949 25.7335 108.838 25.6559C108.753 25.5681 108.651 25.4987 108.538 25.4522C108.425 25.4057 108.303 25.383 108.181 25.3855L108.065 25.5787ZM74.0277 49.4164C73.9418 49.4169 73.8588 49.3857 73.7946 49.3286C73.7304 49.2715 73.6896 49.1927 73.68 49.1073L71.0528 37.0918C70.8822 36.2287 71.0113 35.3332 71.4188 34.5534C71.8263 33.7736 72.4877 33.1562 73.2937 32.8034C84.2943 28.3161 95.9692 25.7042 107.833 25.0764C108.064 25.0569 108.295 25.0845 108.515 25.1576C108.734 25.2306 108.936 25.3476 109.108 25.5014C109.279 25.6507 109.415 25.8349 109.509 26.0415C109.602 26.2481 109.65 26.4724 109.649 26.6991V28.2831C109.651 28.3735 109.621 28.4616 109.565 28.5322C109.508 28.6028 109.429 28.6514 109.34 28.6694C97.8795 29.7374 86.6138 32.3362 75.8436 36.3964C75.6233 36.4895 75.4417 36.6554 75.3292 36.8664C75.2166 37.0774 75.18 37.3207 75.2254 37.5555L77.7753 49.1459C77.8079 49.2332 77.8079 49.3292 77.7753 49.4164C77.6881 49.449 77.5921 49.449 77.5049 49.4164H74.0277Z" fill="#A2A2A2"/>
<path d="M71.513 49.4934C71.449 49.4987 71.3844 49.4907 71.3237 49.4698C71.2629 49.4489 71.2071 49.4156 71.1599 49.372C71.1127 49.3284 71.075 49.2755 71.0494 49.2166C71.0237 49.1577 71.0105 49.094 71.0107 49.0298V18.1218C71.0205 17.9954 71.0777 17.8774 71.1709 17.7914C71.264 17.7054 71.3862 17.6578 71.513 17.6582C71.633 17.6671 71.7458 17.7188 71.8309 17.8039C71.916 17.889 71.9677 18.0018 71.9766 18.1218V49.0298C71.9766 49.0906 71.9646 49.1509 71.9413 49.2072C71.918 49.2634 71.8839 49.3145 71.8408 49.3576C71.7978 49.4006 71.7467 49.4348 71.6904 49.4581C71.6342 49.4814 71.5739 49.4934 71.513 49.4934Z" fill="#A2A2A2"/>
<path d="M150.212 59.616V49.1073C137.365 49.0901 124.632 46.6929 112.659 42.0371H108.795C96.8679 46.6674 84.1908 49.064 71.3965 49.1073V60.1955C71.3964 60.8037 71.6353 61.3875 72.0617 61.8212C72.4881 62.2548 73.0679 62.5035 73.6759 62.5136H147.082C147.466 62.5239 147.848 62.4578 148.206 62.3192C148.564 62.1806 148.891 61.9723 149.168 61.7063C149.444 61.4403 149.665 61.1219 149.818 60.7697C149.971 60.4175 150.052 60.0385 150.057 59.6546" fill="#434343"/>
<path d="M71.9803 49.6092V60.1952C71.9802 60.6804 72.1703 61.1463 72.5098 61.493C72.8493 61.8397 73.3111 62.0395 73.7962 62.0497H147.203C147.855 62.0557 148.488 61.822 148.98 61.3929C149.445 60.9332 149.709 60.3081 149.714 59.6543V49.6479C137.035 49.5387 124.482 47.1301 112.663 42.539H108.799C96.9916 47.1164 84.4508 49.512 71.7872 49.6092H71.9803ZM73.603 63.0155C72.8649 62.9956 72.1631 62.6909 71.6446 62.1652C71.126 61.6395 70.831 60.9335 70.8213 60.1952V49.107C70.831 48.9806 70.8882 48.8625 70.9814 48.7765C71.0746 48.6906 71.1968 48.643 71.3236 48.6434C84.1441 48.6505 96.8534 46.2658 108.799 41.6118H113.049C124.924 46.2324 137.551 48.6164 150.293 48.6434C150.416 48.6434 150.534 48.6922 150.621 48.7791C150.708 48.8661 150.757 48.984 150.757 49.107V59.6157C150.763 60.0626 150.678 60.5061 150.505 60.9182C150.332 61.3304 150.076 61.7025 149.752 62.011C149.429 62.3198 149.047 62.5608 148.629 62.72C148.211 62.8792 147.765 62.9534 147.318 62.9383L73.603 63.0155Z" fill="#A2A2A2"/>
<path d="M113.899 12.7132C125.697 13.0649 137.35 15.4164 148.361 19.6675C148.558 19.7724 148.777 19.8272 148.999 19.8272C149.221 19.8272 149.44 19.7724 149.636 19.6675C149.817 19.5419 149.964 19.3743 150.065 19.179C150.166 18.9838 150.218 18.7669 150.216 18.5471V4.36808C150.216 3.60983 149.915 2.88266 149.379 2.34649C148.842 1.81033 148.115 1.50911 147.357 1.50911H117.492C117.21 1.46877 116.922 1.49686 116.653 1.59099C116.384 1.68513 116.142 1.84255 115.947 2.04999L114.054 3.98174H107.679L105.709 2.01138C105.361 1.66367 105.361 1.50911 104.434 1.50911H74.337C73.5854 1.51927 72.8681 1.82496 72.3403 2.36002C71.8124 2.89509 71.5166 3.61648 71.5167 4.36808V18.4312C71.5078 18.6522 71.5565 18.8717 71.6581 19.0681C71.7597 19.2645 71.9107 19.4311 72.0962 19.5516C72.2853 19.6565 72.498 19.7115 72.7143 19.7115C72.9306 19.7115 73.1433 19.6565 73.3325 19.5516C84.3438 15.3005 95.9967 12.949 107.795 12.5973H113.899" fill="#434343"/>
<path d="M74.3334 2.01123C73.7084 2.01123 73.1089 2.25953 72.6669 2.7015C72.225 3.14347 71.9767 3.74289 71.9767 4.36793V18.4311C71.9691 18.5769 72.0009 18.722 72.0689 18.8512C72.1369 18.9804 72.2386 19.0888 72.363 19.1651C72.4909 19.2215 72.629 19.2507 72.7687 19.2507C72.9084 19.2507 73.0465 19.2215 73.1744 19.1651C84.2794 14.8619 96.0406 12.4966 107.946 12.1722H114.05C125.956 12.4928 137.718 14.8583 148.822 19.1651C149.094 19.2767 149.399 19.2767 149.671 19.1651C149.786 19.0815 149.878 18.9705 149.939 18.8423C149.999 18.7141 150.027 18.5727 150.019 18.4311V4.36793C150.019 3.74289 149.771 3.14347 149.329 2.7015C148.887 2.25953 148.287 2.01123 147.662 2.01123H117.798C117.218 2.01123 116.986 2.01122 116.6 2.39757L114.668 4.29067C114.62 4.3145 114.567 4.3269 114.514 4.3269C114.46 4.3269 114.407 4.3145 114.359 4.29067H107.984C107.93 4.31785 107.871 4.332 107.811 4.332C107.75 4.332 107.691 4.31785 107.637 4.29067L105.55 2.24303C105.357 2.01122 105.357 2.01123 104.739 2.01123H74.3334ZM72.8653 20.4401C72.4886 20.4429 72.1217 20.3206 71.8221 20.0924C71.571 19.9298 71.365 19.7065 71.2232 19.4431C71.0813 19.1797 71.0083 18.8847 71.0108 18.5856V4.36793C71.0208 3.48984 71.3741 2.65054 71.9951 2.02959C72.616 1.40865 73.4553 1.05539 74.3334 1.04536H104.43C105.319 1.04536 105.55 1.04535 105.937 1.5476L107.868 3.47934H113.857L115.634 1.70214C115.871 1.4564 116.162 1.26914 116.484 1.15516C116.806 1.04117 117.15 1.00358 117.489 1.04536H147.431C148.309 1.05539 149.148 1.40865 149.769 2.02959C150.39 2.65054 150.743 3.48984 150.753 4.36793V18.4311C150.748 18.7283 150.671 19.0199 150.529 19.2812C150.387 19.5425 150.185 19.7659 149.939 19.9325C149.692 20.0992 149.41 20.2042 149.114 20.2387C148.819 20.2733 148.52 20.2363 148.242 20.131C137.289 15.9197 125.702 13.5945 113.973 13.254H110.921H107.868C96.1352 13.5926 84.5457 15.9314 73.5993 20.1696H72.9426" fill="#A2A2A2"/>
<path d="M150.216 49.6096C150.152 49.6099 150.088 49.5967 150.029 49.571C149.97 49.5453 149.918 49.5077 149.874 49.4605C149.83 49.4132 149.797 49.3575 149.776 49.2967C149.755 49.2359 149.747 49.1714 149.753 49.1074V18.1994C149.753 18.0765 149.801 17.9586 149.888 17.8716C149.975 17.7847 150.093 17.7358 150.216 17.7358C150.339 17.7358 150.457 17.7847 150.544 17.8716C150.631 17.9586 150.68 18.0765 150.68 18.1994V49.1074C150.685 49.1714 150.677 49.2359 150.656 49.2967C150.635 49.3575 150.602 49.4132 150.558 49.4605C150.515 49.5077 150.462 49.5453 150.403 49.571C150.344 49.5967 150.28 49.6099 150.216 49.6096Z" fill="#A2A2A2"/>
<path d="M113.086 40.8778C112.999 41.2004 113.039 41.5437 113.197 41.838C113.355 42.1322 113.619 42.3553 113.936 42.4618H113.588C122.275 45.778 131.374 47.8966 140.632 48.7593C140.962 48.7961 141.294 48.7101 141.565 48.5177C141.836 48.3253 142.026 48.04 142.1 47.7162L148.243 21.0581C148.32 20.7358 148.276 20.3964 148.12 20.1044C147.963 19.8124 147.705 19.5881 147.393 19.4741H147.818C139.004 16.1348 129.775 14.016 120.388 13.1766H120.581C120.252 13.1481 119.924 13.2373 119.655 13.4284C119.386 13.6195 119.194 13.9 119.113 14.2197L113.086 40.8778Z" fill="#D3D3D3"/>
<path d="M140.747 48.1797C140.96 48.2054 141.176 48.1531 141.353 48.0323C141.531 47.9116 141.659 47.7306 141.713 47.5229L147.856 20.8262C147.891 20.6224 147.856 20.4129 147.758 20.2309C147.66 20.0489 147.504 19.9049 147.315 19.8217C138.751 16.6175 129.8 14.5648 120.696 13.7174C120.485 13.7107 120.279 13.776 120.11 13.9024C119.941 14.0288 119.821 14.2088 119.768 14.4128L113.625 41.0709C113.573 41.2808 113.599 41.5026 113.699 41.6946C113.798 41.8867 113.965 42.0358 114.166 42.1141C122.744 45.3231 131.707 47.3885 140.824 48.257L140.747 48.1797ZM140.824 49.2229C131.487 48.3339 122.312 46.1897 113.548 42.8481C113.493 42.8315 113.444 42.8017 113.403 42.7612C113.363 42.7208 113.333 42.671 113.316 42.6163C113.071 42.4076 112.889 42.1334 112.794 41.8255C112.698 41.5177 112.692 41.189 112.775 40.8777L118.918 14.2196C118.987 13.8515 119.163 13.5118 119.424 13.2436C119.685 12.9754 120.02 12.7907 120.387 12.7129C129.803 13.6044 139.055 15.7617 147.895 19.1263C147.964 19.1472 148.026 19.1872 148.074 19.2419C148.122 19.2966 148.154 19.3636 148.165 19.4354C148.38 19.648 148.536 19.9131 148.617 20.2045C148.699 20.4958 148.703 20.8033 148.629 21.0967L142.486 47.7547C142.39 48.1634 142.158 48.5273 141.828 48.7869C141.498 49.0466 141.09 49.1867 140.67 49.1842" fill="#A2A2A2"/>
<path d="M71.513 120.891C71.3798 120.891 71.252 120.838 71.1578 120.743C71.0636 120.649 71.0107 120.521 71.0107 120.388V60.1951C71.0107 60.0619 71.0636 59.9341 71.1578 59.84C71.252 59.7458 71.3798 59.6929 71.513 59.6929C71.6394 59.7026 71.7575 59.7598 71.8434 59.853C71.9294 59.9461 71.977 60.0683 71.9766 60.1951V120.272C71.977 120.399 71.9294 120.521 71.8434 120.615C71.7575 120.708 71.6394 120.765 71.513 120.775" fill="#A2A2A2"/>
<path d="M150.216 120.891C150.093 120.891 149.975 120.842 149.888 120.755C149.801 120.668 149.752 120.55 149.752 120.427V59.616C149.752 59.493 149.801 59.3751 149.888 59.2881C149.975 59.2012 150.093 59.1523 150.216 59.1523C150.339 59.1523 150.456 59.2012 150.543 59.2881C150.63 59.3751 150.679 59.493 150.679 59.616V120.543C150.679 120.666 150.63 120.784 150.543 120.871C150.456 120.958 150.339 121.007 150.216 121.007" fill="#A2A2A2"/>
<path d="M113.974 3.94287H107.677V12.713H113.974V3.94287Z" fill="#D3D3D3"/>
<path d="M108.025 12.3649H113.627V4.32881H108.025V12.3649ZM113.975 13.0989H107.677C107.581 13.0994 107.488 13.0641 107.417 12.9998C107.346 12.9355 107.301 12.8468 107.291 12.7512V3.98108C107.291 3.87861 107.332 3.78035 107.404 3.70789C107.477 3.63544 107.575 3.59473 107.677 3.59473H113.975C114.024 3.59443 114.073 3.60452 114.118 3.62436C114.162 3.6442 114.203 3.67334 114.235 3.70984C114.268 3.74634 114.293 3.78939 114.308 3.83614C114.323 3.8829 114.328 3.93228 114.323 3.98108V12.7126C114.323 12.8048 114.286 12.8932 114.221 12.9584C114.156 13.0236 114.067 13.0603 113.975 13.0603" fill="#A2A2A2"/>
<path d="M110.728 5.56556C110.646 5.56556 110.568 5.533 110.51 5.47504C110.452 5.41708 110.419 5.33845 110.419 5.25647V0.504369C110.419 0.422396 110.452 0.343797 110.51 0.285834C110.568 0.22787 110.646 0.195312 110.728 0.195312C110.803 0.204773 110.872 0.241449 110.922 0.29842C110.972 0.35539 110.999 0.428671 110.999 0.504369V5.25647C110.999 5.33217 110.972 5.40545 110.922 5.46242C110.872 5.51939 110.803 5.5561 110.728 5.56556ZM110.728 9.11996C110.646 9.11996 110.568 9.08741 110.51 9.02944C110.452 8.97148 110.419 8.89285 110.419 8.81088V7.61321C110.419 7.57419 110.427 7.53554 110.443 7.49993C110.459 7.46432 110.482 7.43259 110.512 7.4069C110.541 7.38121 110.576 7.36218 110.613 7.3511C110.65 7.34003 110.69 7.33719 110.728 7.34276C110.8 7.34276 110.869 7.37125 110.92 7.42197C110.97 7.47268 110.999 7.54148 110.999 7.61321V8.84952C110.999 8.92522 110.972 8.9985 110.922 9.05547C110.872 9.11244 110.803 9.14915 110.728 9.15861V9.11996ZM110.728 15.6879C110.686 15.6945 110.643 15.6911 110.603 15.6779C110.562 15.6647 110.525 15.6421 110.495 15.612C110.465 15.5818 110.443 15.545 110.429 15.5045C110.416 15.464 110.413 15.4209 110.419 15.3788V11.2063C110.413 11.1642 110.416 11.1211 110.429 11.0806C110.443 11.0401 110.465 11.0033 110.495 10.9731C110.525 10.943 110.562 10.9204 110.603 10.9072C110.643 10.894 110.686 10.8906 110.728 10.8972C110.767 10.8968 110.806 10.9048 110.842 10.9207C110.877 10.9367 110.909 10.9602 110.935 10.9895C110.96 11.0189 110.979 11.0534 110.99 11.0909C111.002 11.1283 111.004 11.1676 110.999 11.2063V15.3402C111.004 15.3788 111.002 15.4182 110.99 15.4556C110.979 15.493 110.96 15.5276 110.935 15.5569C110.909 15.5863 110.877 15.6098 110.842 15.6257C110.806 15.6416 110.767 15.6497 110.728 15.6493" fill="#A2A2A2"/>
<path d="M143.567 268.978H118.648C118.566 268.978 118.487 268.945 118.429 268.887C118.371 268.83 118.339 268.751 118.339 268.669C118.339 268.587 118.371 268.508 118.429 268.45C118.487 268.392 118.566 268.36 118.648 268.36H143.567C143.649 268.36 143.728 268.392 143.786 268.45C143.844 268.508 143.877 268.587 143.877 268.669C143.877 268.751 143.844 268.83 143.786 268.887C143.728 268.945 143.649 268.978 143.567 268.978Z" fill="#A2A2A2"/>
<path d="M103.081 268.978H76.9634C76.8814 268.978 76.8028 268.945 76.7448 268.887C76.6869 268.83 76.6543 268.751 76.6543 268.669C76.6543 268.587 76.6869 268.508 76.7448 268.45C76.8028 268.392 76.8814 268.36 76.9634 268.36H103.081C103.163 268.36 103.241 268.392 103.299 268.45C103.357 268.508 103.39 268.587 103.39 268.669C103.39 268.751 103.357 268.83 103.299 268.887C103.241 268.945 103.163 268.978 103.081 268.978Z" fill="#A2A2A2"/>
<path d="M71.5156 268.669L82.1016 270.138V267.163L71.5156 268.669Z" fill="#A2A2A2"/>
<path d="M140.131 270.138L150.137 268.669L140.131 267.163V270.138Z" fill="#A2A2A2"/>
<path d="M71.4734 272.61C71.4344 272.611 71.3958 272.603 71.3601 272.587C71.3245 272.571 71.2928 272.547 71.2671 272.518C71.2414 272.488 71.2224 272.454 71.2113 272.416C71.2002 272.379 71.1974 272.34 71.203 272.301V240.389C71.2024 240.313 71.2296 240.24 71.2794 240.183C71.3293 240.126 71.3983 240.089 71.4734 240.08C71.5554 240.08 71.634 240.112 71.692 240.17C71.7499 240.228 71.7825 240.307 71.7825 240.389V272.301C71.7891 272.343 71.7857 272.386 71.7725 272.427C71.7593 272.467 71.7367 272.504 71.7065 272.534C71.6764 272.564 71.6396 272.587 71.5991 272.6C71.5586 272.613 71.5155 272.617 71.4734 272.61Z" fill="#A2A2A2"/>
<path d="M150.177 272.61C150.135 272.617 150.091 272.613 150.051 272.6C150.01 272.587 149.974 272.564 149.943 272.534C149.913 272.504 149.891 272.467 149.878 272.427C149.864 272.386 149.861 272.343 149.868 272.301V240.389C149.868 240.307 149.9 240.228 149.958 240.17C150.016 240.112 150.095 240.08 150.177 240.08C150.252 240.089 150.321 240.126 150.371 240.183C150.42 240.24 150.448 240.313 150.447 240.389V272.301C150.453 272.34 150.45 272.379 150.439 272.416C150.428 272.454 150.409 272.488 150.383 272.518C150.357 272.547 150.325 272.571 150.29 272.587C150.254 272.603 150.216 272.611 150.177 272.61Z" fill="#A2A2A2"/>
<path d="M16.2652 116.641V123.865H17.347C17.7253 123.893 18.1046 123.83 18.4539 123.682C18.8032 123.535 19.1124 123.306 19.3561 123.015C19.8546 122.305 20.0996 121.448 20.0515 120.581V120.002C20.1174 119.109 19.8717 118.222 19.3561 117.491C19.1204 117.201 18.8182 116.972 18.4751 116.824C18.132 116.676 17.7582 116.613 17.3856 116.641H16.2652ZM14.0244 125.643V114.825H17.3856C18.2778 114.822 19.1557 115.048 19.9356 115.482C20.6713 115.915 21.2729 116.544 21.6741 117.297C22.1124 118.131 22.338 119.06 22.3309 120.002V120.504C22.3362 121.429 22.1245 122.342 21.7128 123.17C21.3104 123.946 20.6934 124.589 19.9356 125.024C19.156 125.454 18.2756 125.668 17.3856 125.643H14.0244Z" fill="#A2A2A2"/>
<path d="M109.456 269.326V272.224H111.387C111.826 272.243 112.26 272.121 112.624 271.876C112.762 271.74 112.87 271.577 112.943 271.398C113.016 271.219 113.052 271.026 113.049 270.833C113.075 270.625 113.053 270.414 112.984 270.217C112.915 270.019 112.801 269.841 112.651 269.695C112.501 269.549 112.32 269.439 112.121 269.375C111.921 269.311 111.71 269.294 111.503 269.326H109.456ZM109.456 267.742H111.117C112.237 267.742 112.817 267.278 112.817 266.39C112.836 266.185 112.803 265.979 112.722 265.79C112.641 265.601 112.514 265.436 112.353 265.308C111.943 265.074 111.472 264.966 111.001 264.999H109.456V267.742ZM107.215 274.039V263.183H111.078C112.139 263.115 113.194 263.386 114.092 263.956C114.424 264.215 114.688 264.551 114.863 264.934C115.038 265.318 115.118 265.737 115.096 266.158C115.116 266.651 114.981 267.137 114.71 267.549C114.446 267.977 114.033 268.294 113.551 268.437C114.077 268.554 114.543 268.855 114.865 269.287C115.213 269.725 115.391 270.274 115.367 270.833C115.397 271.277 115.322 271.722 115.148 272.132C114.973 272.541 114.704 272.904 114.362 273.19C113.528 273.777 112.524 274.076 111.503 274.039H107.215Z" fill="#A2A2A2"/>
<path d="M6.24599 258.451C6.19142 259.205 5.91218 259.799 5.40827 260.232C4.90757 260.666 4.24638 260.882 3.42472 260.882C2.52602 260.882 1.81829 260.581 1.30154 259.977C0.788001 259.371 0.53123 258.539 0.53123 257.483V257.055C0.53123 256.381 0.649987 255.787 0.8875 255.274C1.12501 254.76 1.46363 254.367 1.90335 254.094C2.34628 253.818 2.85982 253.68 3.44397 253.68C4.2528 253.68 4.90436 253.897 5.39864 254.33C5.89293 254.763 6.17858 255.371 6.25562 256.155H4.81128C4.77597 255.702 4.64919 255.375 4.43094 255.172C4.21589 254.967 3.8869 254.864 3.44397 254.864C2.96253 254.864 2.60145 255.038 2.36072 255.384C2.12321 255.728 2.00124 256.262 1.99482 256.988V257.517C1.99482 258.275 2.10877 258.828 2.33665 259.178C2.56774 259.528 2.93043 259.703 3.42472 259.703C3.87086 259.703 4.20305 259.602 4.42131 259.4C4.64277 259.194 4.76955 258.878 4.80165 258.451H6.24599ZM12.6974 258.451C12.6428 259.205 12.3636 259.799 11.8596 260.232C11.3589 260.666 10.6978 260.882 9.87608 260.882C8.97739 260.882 8.26966 260.581 7.75291 259.977C7.23937 259.371 6.9826 258.539 6.9826 257.483V257.055C6.9826 256.381 7.10135 255.787 7.33887 255.274C7.57638 254.76 7.915 254.367 8.35472 254.094C8.79765 253.818 9.31119 253.68 9.89534 253.68C10.7042 253.68 11.3557 253.897 11.85 254.33C12.3443 254.763 12.63 255.371 12.707 256.155H11.2626C11.2273 255.702 11.1006 255.375 10.8823 255.172C10.6673 254.967 10.3383 254.864 9.89534 254.864C9.4139 254.864 9.05281 255.038 8.81209 255.384C8.57458 255.728 8.45261 256.262 8.44619 256.988V257.517C8.44619 258.275 8.56013 258.828 8.78802 259.178C9.01911 259.528 9.3818 259.703 9.87608 259.703C10.3222 259.703 10.6544 259.602 10.8727 259.4C11.0941 259.194 11.2209 258.878 11.253 258.451H12.6974Z" fill="#A2A2A2"/>
</svg>
