<svg width="242" height="301" viewBox="0 0 242 301" fill="none" xmlns="http://www.w3.org/2000/svg">
<path d="M75.0456 86.167H122.833C124.721 88.2012 127.008 89.8239 129.551 90.9335C132.095 92.0432 134.84 92.616 137.615 92.6161C140.391 92.6403 143.141 92.0784 145.684 90.9671C148.228 89.8558 150.509 88.2201 152.377 86.167H172.486C173.116 86.167 173.721 86.4175 174.167 86.8635C174.613 87.3094 174.864 87.9143 174.864 88.545V101.177C174.864 102.357 174.395 103.49 173.56 104.325C172.725 105.159 171.593 105.628 170.412 105.628H42.2865C41.1059 105.628 39.9736 105.159 39.1388 104.325C38.304 103.49 37.835 102.357 37.835 101.177V88.545C37.835 87.9143 38.0855 87.3094 38.5315 86.8635C38.9774 86.4175 39.5823 86.167 40.2129 86.167H50.1243" fill="#434343"/>
<path d="M170.489 106.142H42.2875C41.6355 106.142 40.9898 106.014 40.3874 105.764C39.785 105.515 39.2376 105.149 38.7766 104.688C38.3155 104.227 37.9498 103.68 37.7003 103.077C37.4507 102.475 37.3223 101.829 37.3223 101.177V88.5452C37.3223 87.7783 37.627 87.0428 38.1692 86.5005C38.7115 85.9582 39.447 85.6536 40.2139 85.6536H50.1253C50.2615 85.6536 50.3922 85.7077 50.4885 85.804C50.5848 85.9003 50.6389 86.031 50.6389 86.1672C50.6389 86.3034 50.5848 86.4341 50.4885 86.5304C50.3922 86.6267 50.2615 86.6809 50.1253 86.6809H40.2139C39.7094 86.6809 39.2255 86.8813 38.8687 87.2381C38.5119 87.5948 38.3115 88.0787 38.3115 88.5833V101.215C38.3115 102.256 38.7238 103.255 39.4582 103.993C40.1926 104.731 41.1893 105.148 42.2304 105.153H170.432C171.476 105.153 172.478 104.738 173.217 104C173.955 103.261 174.37 102.259 174.37 101.215V88.5833C174.37 88.0787 174.169 87.5948 173.813 87.2381C173.456 86.8813 172.972 86.6809 172.468 86.6809H152.645C150.726 88.7421 148.398 90.3803 145.811 91.4908C143.223 92.6013 140.432 93.1595 137.616 93.1299C134.808 93.1263 132.03 92.5528 129.45 91.4443C126.87 90.3358 124.542 88.7153 122.606 86.6809H75.0465C74.9103 86.6809 74.7797 86.6267 74.6833 86.5304C74.587 86.4341 74.5329 86.3034 74.5329 86.1672C74.5329 86.031 74.587 85.9003 74.6833 85.804C74.7797 85.7077 74.9103 85.6536 75.0465 85.6536H122.834C122.905 85.6526 122.975 85.6655 123.04 85.6916C123.105 85.7177 123.165 85.7565 123.215 85.8058C125.056 87.7862 127.284 89.3671 129.761 90.4503C132.239 91.5336 134.912 92.096 137.616 92.1027C140.324 92.1335 143.007 91.59 145.49 90.5078C147.972 89.4257 150.197 87.8296 152.017 85.8248C152.067 85.7688 152.129 85.7244 152.198 85.6948C152.267 85.6653 152.341 85.6512 152.416 85.6536H172.525C173.292 85.6536 174.027 85.9582 174.569 86.5005C175.112 87.0428 175.416 87.7783 175.416 88.5452V101.177C175.416 102.494 174.893 103.757 173.962 104.688C173.031 105.619 171.768 106.142 170.451 106.142" fill="#A2A2A2"/>
<path d="M75.4674 85.6152L74.8206 85.9957L77.4649 87.5366L74.8206 89.0585L77.4649 90.5995L74.8206 92.1214L77.4649 93.6623L74.8206 95.1842L77.4649 96.7251L74.8206 98.2471L77.4649 99.788L74.8206 101.31L77.4649 102.851L74.8206 104.392L76.8942 105.59H52.011L49.8994 104.392L52.5627 102.851L49.8994 101.31L52.5627 99.788L49.8994 98.2471L52.5627 96.7251L49.8994 95.1842L52.5627 93.6623L49.8994 92.1214L52.5627 90.5995L49.8994 89.0585L52.5627 87.5366L50.1467 86.1289" fill="#D3D3D3"/>
<path d="M76.9125 105.99H52.0103C51.9484 106.009 51.8821 106.009 51.8201 105.99L49.6514 104.716C49.5931 104.684 49.5446 104.638 49.511 104.58C49.4775 104.523 49.4602 104.458 49.4612 104.392C49.4608 104.324 49.4781 104.256 49.5114 104.196C49.5447 104.136 49.593 104.086 49.6514 104.05L51.725 102.851L49.6514 101.653C49.5931 101.621 49.5446 101.575 49.511 101.518C49.4775 101.461 49.4602 101.395 49.4612 101.329C49.4588 101.26 49.4753 101.192 49.5088 101.132C49.5423 101.071 49.5916 101.021 49.6514 100.987L51.725 99.7884L49.6514 98.5899C49.593 98.554 49.5447 98.5036 49.5114 98.4436C49.4781 98.3836 49.4608 98.3161 49.4612 98.2475C49.4602 98.1813 49.4775 98.1162 49.511 98.0592C49.5446 98.0021 49.5931 97.9554 49.6514 97.9241L51.725 96.7256L49.6514 95.5271C49.593 95.4911 49.5447 95.4408 49.5114 95.3808C49.4781 95.3208 49.4608 95.2532 49.4612 95.1846C49.4903 95.0808 49.5585 94.9922 49.6514 94.9373L51.725 93.7578L49.6514 92.4642C49.593 92.4283 49.5447 92.3779 49.5114 92.3179C49.4781 92.258 49.4608 92.1904 49.4612 92.1218C49.4625 92.0535 49.4806 91.9866 49.5138 91.927C49.5469 91.8673 49.5942 91.8166 49.6514 91.7794L51.725 90.5999L49.6514 89.4014C49.593 89.3655 49.5447 89.3151 49.5114 89.2551C49.4781 89.1951 49.4608 89.1276 49.4612 89.059C49.4625 88.9907 49.4806 88.9238 49.5138 88.8641C49.5469 88.8044 49.5942 88.7538 49.6514 88.7165L51.725 87.5371L49.8226 86.4717C49.7365 86.4168 49.6748 86.331 49.65 86.2319C49.6252 86.1328 49.6393 86.028 49.6894 85.9391C49.7149 85.8945 49.7492 85.8556 49.79 85.8247C49.8309 85.7937 49.8776 85.7714 49.9274 85.7589C49.9772 85.7465 50.0289 85.7442 50.0796 85.7523C50.1302 85.7604 50.1787 85.7786 50.2221 85.8059L52.6191 87.1946C52.6824 87.2265 52.7356 87.2755 52.7726 87.336C52.8095 87.3965 52.8289 87.4662 52.8284 87.5371C52.83 87.6057 52.8109 87.6733 52.7735 87.731C52.7362 87.7887 52.6824 87.8338 52.6191 87.8605L50.5646 89.059L52.6191 90.2575C52.6824 90.2894 52.7356 90.3383 52.7726 90.3989C52.8095 90.4594 52.8289 90.529 52.8284 90.5999C52.83 90.6686 52.8109 90.7361 52.7735 90.7938C52.7362 90.8515 52.6824 90.8966 52.6191 90.9233L50.5646 92.1218L52.6191 93.3203C52.6824 93.3522 52.7356 93.4012 52.7726 93.4617C52.8095 93.5222 52.8289 93.5918 52.8284 93.6627C52.8268 93.7332 52.8066 93.802 52.7699 93.8621C52.7331 93.9223 52.6811 93.9716 52.6191 94.0052L50.5646 95.1846L52.6191 96.3831C52.6834 96.4143 52.7377 96.4629 52.7756 96.5235C52.8136 96.5841 52.8337 96.6541 52.8337 96.7256C52.8337 96.797 52.8136 96.8671 52.7756 96.9276C52.7377 96.9882 52.6834 97.0368 52.6191 97.068L50.5646 98.2475L52.6191 99.446C52.6834 99.4771 52.7377 99.5258 52.7756 99.5863C52.8136 99.6469 52.8337 99.7169 52.8337 99.7884C52.8337 99.8599 52.8136 99.9299 52.7756 99.9905C52.7377 100.051 52.6834 100.1 52.6191 100.131L50.5646 101.31L52.6191 102.509C52.6834 102.54 52.7377 102.589 52.7756 102.649C52.8136 102.71 52.8337 102.78 52.8337 102.851C52.8337 102.923 52.8136 102.993 52.7756 103.053C52.7377 103.114 52.6834 103.163 52.6191 103.194L50.5646 104.392L51.9723 105.21H75.3336L74.4965 104.716C74.4592 104.682 74.4296 104.641 74.4099 104.595C74.3902 104.549 74.3808 104.499 74.3824 104.449C74.3819 104.378 74.4012 104.309 74.4382 104.248C74.4751 104.188 74.5283 104.139 74.5916 104.107L76.6462 102.908L74.5916 101.71C74.5283 101.683 74.4746 101.638 74.4372 101.58C74.3999 101.523 74.3808 101.455 74.3824 101.386C74.3795 101.315 74.3978 101.244 74.4351 101.183C74.4723 101.123 74.5268 101.074 74.5916 101.044L76.6462 99.8455L74.5916 98.647C74.5283 98.6151 74.4751 98.5661 74.4382 98.5056C74.4012 98.4451 74.3819 98.3754 74.3824 98.3045C74.3808 98.2359 74.3999 98.1683 74.4372 98.1106C74.4746 98.053 74.5283 98.0078 74.5916 97.9811L76.6462 96.7826L74.5916 95.5841C74.5283 95.5522 74.4751 95.5033 74.4382 95.4428C74.4012 95.3822 74.3819 95.3126 74.3824 95.2417C74.3839 95.1713 74.4041 95.1025 74.4409 95.0423C74.4776 94.9822 74.5296 94.9328 74.5916 94.8993L76.6462 93.7198L74.5916 92.5213C74.5283 92.4894 74.4751 92.4404 74.4382 92.3799C74.4012 92.3194 74.3819 92.2498 74.3824 92.1789C74.3839 92.1084 74.4041 92.0396 74.4409 91.9795C74.4776 91.9193 74.5296 91.87 74.5916 91.8365L76.6462 90.657L74.5916 89.4585C74.5283 89.4266 74.4751 89.3776 74.4382 89.3171C74.4012 89.2566 74.3819 89.187 74.3824 89.116C74.3839 89.0456 74.4041 88.9768 74.4409 88.9166C74.4776 88.8565 74.5296 88.8072 74.5916 88.7736L76.6462 87.5941L74.5916 86.3956C74.5273 86.3645 74.473 86.3158 74.4351 86.2553C74.3971 86.1947 74.377 86.1247 74.377 86.0532C74.377 85.9817 74.3971 85.9117 74.4351 85.8511C74.473 85.7906 74.5273 85.7419 74.5916 85.7108L75.2575 85.3303C75.3012 85.3053 75.3494 85.2892 75.3993 85.2828C75.4493 85.2765 75.5 85.28 75.5486 85.2933C75.5972 85.3065 75.6427 85.3292 75.6825 85.3601C75.7223 85.3909 75.7556 85.4293 75.7806 85.473C75.8056 85.5167 75.8217 85.5649 75.8281 85.6149C75.8344 85.6648 75.8309 85.7155 75.8176 85.7641C75.8044 85.8127 75.7817 85.8582 75.7509 85.898C75.72 85.9378 75.6817 85.9712 75.638 85.9961L77.6925 87.1946C77.7558 87.2265 77.809 87.2755 77.8459 87.336C77.8829 87.3965 77.9023 87.4662 77.9018 87.5371C77.9034 87.6057 77.8842 87.6733 77.8469 87.731C77.8096 87.7887 77.7558 87.8338 77.6925 87.8605L75.638 89.059L77.6925 90.2575C77.7558 90.2894 77.809 90.3383 77.8459 90.3989C77.8829 90.4594 77.9023 90.529 77.9018 90.5999C77.9034 90.6686 77.8842 90.7361 77.8469 90.7938C77.8096 90.8515 77.7558 90.8966 77.6925 90.9233L75.638 92.1218L77.6925 93.3203C77.7558 93.3522 77.809 93.4012 77.8459 93.4617C77.8829 93.5222 77.9023 93.5918 77.9018 93.6627C77.9002 93.7332 77.88 93.802 77.8433 93.8621C77.8065 93.9223 77.7545 93.9716 77.6925 94.0052L75.638 95.1846L77.6925 96.3831C77.7568 96.4143 77.8111 96.4629 77.8491 96.5235C77.887 96.5841 77.9071 96.6541 77.9071 96.7256C77.9071 96.797 77.887 96.8671 77.8491 96.9276C77.8111 96.9882 77.7568 97.0368 77.6925 97.068L75.638 98.2475L77.6925 99.446C77.7568 99.4771 77.8111 99.5258 77.8491 99.5863C77.887 99.6469 77.9071 99.7169 77.9071 99.7884C77.9071 99.8599 77.887 99.9299 77.8491 99.9905C77.8111 100.051 77.7568 100.1 77.6925 100.131L75.638 101.31L77.6925 102.509C77.7568 102.54 77.8111 102.589 77.8491 102.649C77.887 102.71 77.9071 102.78 77.9071 102.851C77.9071 102.923 77.887 102.993 77.8491 103.053C77.8111 103.114 77.7568 103.163 77.6925 103.194L75.638 104.392L77.1408 105.248C77.2149 105.296 77.2727 105.366 77.3067 105.447C77.3406 105.529 77.3491 105.618 77.331 105.705C77.3066 105.787 77.2564 105.859 77.1879 105.91C77.1194 105.962 77.0362 105.99 76.9506 105.99" fill="#A2A2A2"/>
<path d="M71.2237 105.572L75.2187 101.31H74.8573L77.5206 99.7885L74.8573 98.2476L77.5206 96.7257L74.8573 95.1848L77.5206 93.6629L74.8573 92.1219L77.5206 90.6L74.8573 89.0591L77.5206 87.5372L74.8573 85.9963L75.523 85.6158L75.5611 85.5968L72.3271 83.7324H55.1105L50.6209 86.3577L50.2023 86.1294L52.5994 87.5372L49.9551 89.0591L52.5994 90.6L49.9551 92.1219L52.5994 93.6629L49.9551 95.1848L52.5994 96.7257L49.9551 98.2476L52.5994 99.7885L51.3628 100.721L56.2329 105.572H71.2237Z" fill="#D3D3D3"/>
<path d="M56.4058 105.191H71.0541L74.5165 101.5C74.4882 101.419 74.4899 101.33 74.5213 101.25C74.5527 101.17 74.6117 101.103 74.6877 101.063L76.7613 99.8643L74.6877 98.6658C74.6292 98.6299 74.581 98.5795 74.5477 98.5195C74.5144 98.4595 74.4971 98.392 74.4974 98.3234C74.4965 98.2572 74.5137 98.1921 74.5473 98.135C74.5808 98.078 74.6294 98.0313 74.6877 98L76.7613 96.8015L74.6877 95.603C74.6292 95.567 74.581 95.5166 74.5477 95.4567C74.5144 95.3967 74.4971 95.3291 74.4974 95.2605C74.4988 95.1923 74.5169 95.1254 74.55 95.0657C74.5832 95.006 74.6304 94.9553 74.6877 94.9181L76.7613 93.7386L74.6877 92.5401C74.6292 92.5042 74.581 92.4538 74.5477 92.3938C74.5144 92.3339 74.4971 92.2663 74.4974 92.1977C74.4988 92.1294 74.5169 92.0625 74.55 92.0029C74.5832 91.9432 74.6304 91.8925 74.6877 91.8553L76.7613 90.6758L74.6877 89.4773C74.6292 89.4413 74.581 89.391 74.5477 89.331C74.5144 89.271 74.4971 89.2035 74.4974 89.1349C74.4988 89.0666 74.5169 88.9997 74.55 88.94C74.5832 88.8803 74.6304 88.8297 74.6877 88.7924L76.7613 87.613L74.6877 86.4144C74.6286 86.3789 74.5797 86.3287 74.5457 86.2687C74.5118 86.2087 74.4939 86.141 74.4939 86.072C74.4939 86.0031 74.5118 85.9353 74.5457 85.8753C74.5797 85.8153 74.6286 85.7651 74.6877 85.7296H74.8018L72.2526 84.2457H55.2453L51.4406 86.4905L52.8673 87.3276C52.9258 87.3635 52.974 87.4139 53.0073 87.4739C53.0406 87.5339 53.058 87.6014 53.0576 87.67C53.0585 87.7362 53.0413 87.8013 53.0077 87.8583C52.9742 87.9154 52.9256 87.9621 52.8673 87.9934L50.7938 89.1919L52.8673 90.3904C52.9258 90.4264 52.974 90.4768 53.0073 90.5367C53.0406 90.5967 53.058 90.6643 53.0576 90.7329C53.0585 90.799 53.0413 90.8642 53.0077 90.9212C52.9742 90.9782 52.9256 91.0249 52.8673 91.0563L50.7938 92.2548L52.8673 93.4533C52.9258 93.4892 52.974 93.5396 53.0073 93.5996C53.0406 93.6595 53.058 93.7271 53.0576 93.7957C53.0562 93.864 53.0382 93.9309 53.005 93.9905C52.9718 94.0502 52.9246 94.1009 52.8673 94.1381L50.7938 95.3176L52.8673 96.5161C52.9264 96.5516 52.9753 96.6018 53.0093 96.6618C53.0432 96.7218 53.0611 96.7896 53.0611 96.8585C53.0611 96.9275 53.0432 96.9952 53.0093 97.0552C52.9753 97.1152 52.9264 97.1655 52.8673 97.201L50.7938 98.3804L52.8673 99.5789C52.9231 99.6132 52.9696 99.6605 53.0028 99.7169C53.036 99.7733 53.0548 99.837 53.0576 99.9023C53.0668 99.9652 53.0573 100.029 53.0302 100.087C53.0031 100.144 52.9597 100.193 52.9054 100.226L52.0303 100.892L56.4058 105.191ZM71.2253 105.971H56.2345C56.1342 105.97 56.0385 105.928 55.9682 105.857L51.0981 100.987C51.0224 100.904 50.9816 100.795 50.984 100.682C50.9855 100.626 51 100.571 51.0264 100.522C51.0528 100.472 51.0904 100.429 51.1362 100.397L51.9162 99.8262L49.7665 98.5897C49.708 98.5538 49.6598 98.5034 49.6265 98.4434C49.5932 98.3834 49.5758 98.3159 49.5762 98.2473C49.5753 98.1811 49.5925 98.116 49.6261 98.0589C49.6596 98.0019 49.7082 97.9552 49.7665 97.9239L51.84 96.7254L49.7665 95.5269C49.708 95.4909 49.6598 95.4405 49.6265 95.3806C49.5932 95.3206 49.5758 95.253 49.5762 95.1844C49.5776 95.1162 49.5956 95.0493 49.6288 94.9896C49.662 94.9299 49.7092 94.8792 49.7665 94.842L51.84 93.6625L49.7665 92.464C49.708 92.4281 49.6598 92.3777 49.6265 92.3177C49.5932 92.2578 49.5758 92.1902 49.5762 92.1216C49.5776 92.0533 49.5956 91.9864 49.6288 91.9268C49.662 91.8671 49.7092 91.8164 49.7665 91.7792L51.84 90.5997L49.7665 89.4012C49.708 89.3653 49.6598 89.3149 49.6265 89.2549C49.5932 89.1949 49.5758 89.1274 49.5762 89.0588C49.5776 88.9905 49.5956 88.9236 49.6288 88.8639C49.662 88.8042 49.7092 88.7536 49.7665 88.7163L51.84 87.5369L49.9377 86.4715C49.8497 86.4233 49.7843 86.3422 49.7558 86.246C49.7273 86.1498 49.738 86.0463 49.7855 85.9579C49.8342 85.8653 49.9173 85.7955 50.0169 85.7635C50.1165 85.7314 50.2246 85.7398 50.3182 85.7867L50.5464 85.9008L54.8458 83.3897C54.9142 83.3701 54.9867 83.3701 55.0551 83.3897H72.2717C72.3339 83.3727 72.3996 83.3727 72.4619 83.3897L75.6769 85.2921C75.7499 85.3315 75.8081 85.3938 75.8424 85.4693C75.8768 85.5449 75.8854 85.6296 75.8671 85.7106C75.8533 85.7811 75.8188 85.8459 75.768 85.8968C75.7171 85.9476 75.6523 85.9821 75.5818 85.9959L77.6554 87.1944C77.7166 87.2272 77.7672 87.2769 77.8009 87.3376C77.8347 87.3984 77.8502 87.4675 77.8456 87.5369C77.8488 87.6034 77.8325 87.6695 77.7987 87.7269C77.7649 87.7844 77.7151 87.8307 77.6554 87.8603L75.5818 89.0588L77.6554 90.2573C77.7166 90.29 77.7672 90.3397 77.8009 90.4005C77.8347 90.4612 77.8502 90.5304 77.8456 90.5997C77.8488 90.6663 77.8325 90.7323 77.7987 90.7898C77.7649 90.8472 77.7151 90.8936 77.6554 90.9231L75.5818 92.1216L77.6554 93.3201C77.7166 93.3529 77.7672 93.4026 77.8009 93.4633C77.8347 93.524 77.8502 93.5932 77.8456 93.6625C77.848 93.7315 77.8315 93.7998 77.798 93.8601C77.7645 93.9204 77.7152 93.9705 77.6554 94.005L75.5818 95.1844L77.6554 96.3829C77.7145 96.4185 77.7634 96.4686 77.7973 96.5286C77.8313 96.5887 77.8491 96.6564 77.8491 96.7254C77.8491 96.7943 77.8313 96.8621 77.7973 96.9221C77.7634 96.9821 77.7145 97.0323 77.6554 97.0678L75.5818 98.2473L77.6554 99.4458C77.7145 99.4813 77.7634 99.5315 77.7973 99.5915C77.8313 99.6515 77.8491 99.7193 77.8491 99.7882C77.8491 99.8571 77.8313 99.9249 77.7973 99.9849C77.7634 100.045 77.7145 100.095 77.6554 100.131L75.5628 101.329C75.5613 101.429 75.5203 101.525 75.4486 101.595L71.4536 105.857C71.4166 105.895 71.3721 105.924 71.323 105.944C71.2738 105.964 71.2211 105.973 71.1683 105.971" fill="#A2A2A2"/>
<path d="M79.5753 170.481H33.4426C33.3568 170.481 33.2745 170.447 33.2139 170.386C33.1532 170.325 33.1191 170.243 33.1191 170.157C33.1191 170.072 33.1532 169.989 33.2139 169.929C33.2745 169.868 33.3568 169.834 33.4426 169.834H79.5753C79.6611 169.834 79.7434 169.868 79.804 169.929C79.8647 169.989 79.8987 170.072 79.8987 170.157C79.8987 170.243 79.8647 170.325 79.804 170.386C79.7434 170.447 79.6611 170.481 79.5753 170.481ZM83.3801 170.481H82.0675C81.9817 170.481 81.8994 170.447 81.8388 170.386C81.7781 170.325 81.744 170.243 81.744 170.157C81.744 170.072 81.7781 169.989 81.8388 169.929C81.8994 169.868 81.9817 169.834 82.0675 169.834H83.3801C83.4659 169.834 83.5481 169.868 83.6088 169.929C83.6694 169.989 83.7035 170.072 83.7035 170.157C83.7035 170.243 83.6694 170.325 83.6088 170.386C83.5481 170.447 83.4659 170.481 83.3801 170.481ZM132.1 170.481H86.0625C85.9767 170.481 85.8944 170.447 85.8338 170.386C85.7731 170.325 85.739 170.243 85.739 170.157C85.739 170.072 85.7731 169.989 85.8338 169.929C85.8944 169.868 85.9767 169.834 86.0625 169.834H132.195C132.281 169.834 132.363 169.868 132.424 169.929C132.485 169.989 132.519 170.072 132.519 170.157C132.519 170.243 132.485 170.325 132.424 170.386C132.363 170.447 132.281 170.481 132.195 170.481H132.1ZM136.095 170.481H134.801C134.716 170.481 134.633 170.447 134.573 170.386C134.512 170.325 134.478 170.243 134.478 170.157C134.478 170.072 134.512 169.989 134.573 169.929C134.633 169.868 134.716 169.834 134.801 169.834H136.095C136.181 169.834 136.263 169.868 136.324 169.929C136.384 169.989 136.418 170.072 136.418 170.157C136.418 170.243 136.384 170.325 136.324 170.386C136.263 170.447 136.181 170.481 136.095 170.481ZM178.899 170.481H138.701C138.616 170.481 138.533 170.447 138.473 170.386C138.412 170.325 138.378 170.243 138.378 170.157C138.378 170.072 138.412 169.989 138.473 169.929C138.533 169.868 138.616 169.834 138.701 169.834H178.899C178.984 169.834 179.067 169.868 179.127 169.929C179.188 169.989 179.222 170.072 179.222 170.157C179.222 170.243 179.188 170.325 179.127 170.386C179.067 170.447 178.984 170.481 178.899 170.481Z" fill="#A2A2A2"/>
<path d="M137.616 52.419C141.594 52.419 145.482 53.5988 148.789 55.8091C152.097 58.0195 154.674 61.1611 156.195 64.8365C157.717 68.5119 158.114 72.5559 157.336 76.457C156.559 80.3582 154.642 83.9411 151.828 86.7525C149.014 89.5639 145.429 91.4775 141.527 92.2513C137.625 93.025 133.582 92.6241 129.908 91.0992C126.234 89.5744 123.095 86.9941 120.887 83.6848C118.68 80.3755 117.504 76.4859 117.508 72.5081C117.508 69.8684 118.028 67.2545 119.039 64.8159C120.05 62.3774 121.531 60.1619 123.398 58.2962C125.266 56.4305 127.483 54.9511 129.922 53.9427C132.362 52.9342 134.976 52.4165 137.616 52.419Z" fill="#D3D3D3"/>
<path d="M137.617 52.9325C133.741 52.9325 129.952 54.0822 126.729 56.2362C123.506 58.3901 120.995 61.4514 119.512 65.033C118.03 68.6145 117.643 72.5553 118.4 76.3568C119.158 80.1583 121.026 83.6497 123.768 86.3892C126.511 89.1288 130.004 90.9935 133.806 91.7474C137.608 92.5013 141.549 92.1106 145.129 90.6246C148.709 89.1386 151.768 86.6242 153.918 83.3994C156.069 80.1746 157.215 76.3843 157.212 72.5081C157.201 67.3161 155.133 62.34 151.46 58.6705C147.787 55.001 142.809 52.9376 137.617 52.9325ZM137.617 93.1299C133.538 93.1299 129.551 91.9204 126.16 89.6545C122.769 87.3885 120.126 84.1678 118.565 80.3997C117.004 76.6315 116.596 72.4852 117.391 68.4849C118.187 64.4847 120.151 60.8102 123.035 57.9262C125.919 55.0422 129.594 53.0782 133.594 52.2825C137.594 51.4868 141.74 51.8952 145.509 53.456C149.277 55.0168 152.497 57.66 154.763 61.0512C157.029 64.4424 158.239 68.4294 158.239 72.5081C158.234 77.9758 156.059 83.2181 152.193 87.0843C148.327 90.9506 143.085 93.1249 137.617 93.1299Z" fill="#A2A2A2"/>
<path d="M137.617 52.4189C134.387 52.4178 131.205 53.1933 128.337 54.6799C125.47 56.1664 123.002 58.3205 121.142 60.9605H111.307C111.307 59.9142 110.85 55.2534 109.633 55.2534C109.232 55.2349 108.834 55.3155 108.472 55.4881C108.11 55.6607 107.797 55.9198 107.559 56.2426H103.222V47.2253C103.242 46.5409 103.488 45.8823 103.921 45.3523C104.355 44.8224 104.952 44.4508 105.619 44.2957C126.593 38.768 148.641 38.768 169.615 44.2957C170.282 44.4508 170.879 44.8224 171.312 45.3523C171.746 45.8823 171.992 46.5409 172.012 47.2253V56.3758H167.598C167.361 56.053 167.047 55.7938 166.686 55.6213C166.324 55.4487 165.925 55.3681 165.525 55.3866C164.307 55.3866 163.851 59.9903 163.851 61.0937H154.091C152.234 58.4502 149.767 56.2935 146.899 54.8066C144.031 53.3196 140.847 52.5462 137.617 52.552" fill="#434343"/>
<path d="M154.416 60.5233H163.433C163.528 59.0394 163.928 54.8161 165.602 54.8161C166.04 54.804 166.475 54.886 166.879 55.0567C167.283 55.2273 167.645 55.4826 167.942 55.8053H171.499V47.2256C171.486 46.657 171.282 46.1093 170.92 45.671C170.557 45.2326 170.058 44.9292 169.502 44.8096C148.618 39.2801 126.655 39.2801 105.772 44.8096C105.214 44.9285 104.712 45.2312 104.346 45.6693C103.981 46.1073 103.773 46.6553 103.755 47.2256V55.8624H107.313C107.606 55.5412 107.965 55.2867 108.366 55.116C108.766 54.9454 109.199 54.8626 109.634 54.8732C111.308 54.8732 111.726 59.0394 111.802 60.5803H120.839C122.749 57.9098 125.268 55.7335 128.188 54.2321C131.108 52.7306 134.344 51.9474 137.627 51.9474C140.91 51.9474 144.146 52.7306 147.066 54.2321C149.986 55.7335 152.506 57.9098 154.416 60.5803V60.5233ZM163.928 61.6076H154.092C153.975 61.6071 153.86 61.5677 153.767 61.4954C153.674 61.4231 153.608 61.3221 153.579 61.2081C151.765 58.6598 149.368 56.5822 146.589 55.1486C143.809 53.7149 140.726 52.9669 137.599 52.9669C134.471 52.9669 131.389 53.7149 128.609 55.1486C125.829 56.5822 123.432 58.6598 121.619 61.2081C121.585 61.309 121.521 61.3973 121.436 61.4618C121.351 61.5262 121.249 61.5637 121.143 61.5696H111.308C111.172 61.5696 111.041 61.5154 110.945 61.4191C110.848 61.3228 110.794 61.1921 110.794 61.0559C110.794 59.4008 110.185 56.1097 109.615 55.9385C109.305 55.921 108.996 55.9795 108.714 56.1088C108.432 56.2381 108.186 56.4343 107.998 56.6804C107.951 56.7545 107.886 56.8158 107.81 56.8589C107.733 56.9021 107.648 56.9257 107.56 56.9277H103.223C103.085 56.9228 102.954 56.8645 102.858 56.7652C102.762 56.6658 102.709 56.5331 102.709 56.3951V47.2256C102.724 46.424 103.008 45.6506 103.515 45.0296C104.022 44.4086 104.723 43.976 105.505 43.8013C126.55 38.2212 148.685 38.2212 169.73 43.8013C170.516 43.9723 171.221 44.4033 171.732 45.0246C172.243 45.6459 172.53 46.4214 172.545 47.2256V56.3761C172.545 56.5141 172.492 56.6468 172.396 56.7461C172.3 56.8455 172.17 56.9038 172.032 56.9087H167.599C167.512 56.9067 167.426 56.8831 167.349 56.8399C167.273 56.7968 167.209 56.7355 167.162 56.6614C166.971 56.4125 166.722 56.2146 166.437 56.0852C166.151 55.9557 165.838 55.8988 165.526 55.9195C164.974 56.0907 164.365 59.3818 164.365 61.0369C164.365 61.1731 164.311 61.3038 164.215 61.4001C164.118 61.4964 163.988 61.5505 163.852 61.5505" fill="#A2A2A2"/>
<path d="M119.925 82.0201H113.8V64.1187H119.336C118.04 66.9408 117.419 70.0257 117.521 73.1294C117.623 76.2331 118.447 79.2704 119.925 82.001" fill="#434343"/>
<path d="M114.197 81.6202H119.277C117.959 78.9734 117.229 76.073 117.137 73.1177C117.045 70.1625 117.593 67.2223 118.744 64.4987H114.197V81.6202ZM119.905 82.4192H113.779C113.678 82.4192 113.581 82.3791 113.51 82.3077C113.438 82.2364 113.398 82.1396 113.398 82.0387V64.1183C113.403 64.0189 113.445 63.9247 113.515 63.8544C113.585 63.784 113.679 63.7424 113.779 63.7378H119.315C119.38 63.7406 119.444 63.7594 119.5 63.7926C119.557 63.8258 119.604 63.8723 119.638 63.928C119.667 63.984 119.681 64.046 119.681 64.1088C119.681 64.1716 119.667 64.2335 119.638 64.2895C118.37 67.0614 117.762 70.0895 117.861 73.136C117.96 76.1826 118.764 79.1647 120.209 81.8485C120.242 81.9063 120.26 81.9719 120.26 82.0387C120.26 82.1055 120.242 82.1711 120.209 82.229C120.172 82.2862 120.121 82.3334 120.061 82.3666C120.002 82.3998 119.935 82.4178 119.867 82.4192" fill="#A2A2A2"/>
<path d="M113.798 86.4907C113.695 86.4858 113.599 86.4416 113.528 86.3672C113.457 86.2928 113.417 86.1939 113.417 86.0912V82.0201C113.415 81.9686 113.423 81.917 113.441 81.8687C113.459 81.8203 113.486 81.776 113.522 81.7387C113.558 81.7013 113.6 81.6716 113.648 81.6513C113.695 81.631 113.746 81.6205 113.798 81.6206C113.904 81.6206 114.006 81.6627 114.08 81.7376C114.155 81.8125 114.197 81.9142 114.197 82.0201V86.0912C114.197 86.1972 114.155 86.2988 114.08 86.3737C114.006 86.4486 113.904 86.4907 113.798 86.4907Z" fill="#A2A2A2"/>
<path d="M137.616 247.699C141.594 247.695 145.485 248.872 148.794 251.08C152.104 253.288 154.684 256.428 156.208 260.103C157.733 263.778 158.133 267.823 157.357 271.725C156.582 275.628 154.667 279.212 151.853 282.026C149.04 284.839 145.455 286.754 141.553 287.53C137.65 288.305 133.606 287.905 129.931 286.381C126.256 284.856 123.115 282.276 120.907 278.967C118.699 275.657 117.523 271.767 117.526 267.788C117.526 262.46 119.643 257.35 123.41 253.583C127.178 249.815 132.288 247.699 137.616 247.699Z" fill="#D3D3D3"/>
<path d="M137.617 248.212C133.741 248.212 129.952 249.362 126.729 251.516C123.506 253.67 120.995 256.731 119.512 260.313C118.03 263.894 117.643 267.835 118.4 271.637C119.158 275.438 121.026 278.929 123.768 281.669C126.511 284.409 130.004 286.273 133.806 287.027C137.608 287.781 141.549 287.39 145.129 285.904C148.709 284.418 151.768 281.904 153.918 278.679C156.069 275.454 157.215 271.664 157.212 267.788C157.201 262.596 155.133 257.62 151.46 253.95C147.787 250.281 142.809 248.217 137.617 248.212ZM137.617 288.41C133.538 288.41 129.551 287.2 126.16 284.934C122.769 282.668 120.126 279.448 118.565 275.679C117.004 271.911 116.596 267.765 117.391 263.765C118.187 259.764 120.151 256.09 123.035 253.206C125.919 250.322 129.594 248.358 133.594 247.562C137.594 246.767 141.74 247.175 145.509 248.736C149.277 250.297 152.497 252.94 154.763 256.331C157.029 259.722 158.239 263.709 158.239 267.788C158.234 273.256 156.059 278.498 152.193 282.364C148.327 286.23 143.085 288.405 137.617 288.41Z" fill="#A2A2A2"/>
<path d="M137.617 287.896C134.387 287.897 131.205 287.121 128.337 285.635C125.47 284.148 123.002 281.994 121.142 279.354V279.259H111.307C111.307 280.324 110.85 284.966 109.633 284.966C109.232 284.984 108.834 284.904 108.472 284.731C108.11 284.559 107.797 284.299 107.559 283.977H103.222V293.108C103.238 293.796 103.482 294.459 103.916 294.993C104.35 295.526 104.949 295.901 105.619 296.057C126.593 301.585 148.641 301.585 169.615 296.057C170.285 295.901 170.884 295.526 171.318 294.993C171.752 294.459 171.996 293.796 172.012 293.108V283.977H167.598C167.361 284.299 167.047 284.559 166.686 284.731C166.324 284.904 165.925 284.984 165.525 284.966C164.307 284.966 163.851 280.362 163.851 279.259H154.091V279.354C152.234 281.997 149.767 284.154 146.899 285.641C144.031 287.128 140.847 287.901 137.617 287.896Z" fill="#434343"/>
<path d="M103.756 284.452V293.07C103.778 293.641 103.988 294.188 104.352 294.628C104.717 295.068 105.216 295.376 105.772 295.505C126.656 301.035 148.619 301.035 169.502 295.505C170.063 295.385 170.567 295.08 170.933 294.638C171.299 294.196 171.505 293.644 171.518 293.07V284.452H167.961C167.664 284.775 167.302 285.03 166.898 285.201C166.495 285.372 166.059 285.454 165.621 285.442C163.947 285.442 163.548 281.275 163.452 279.734H154.435C152.52 282.401 149.998 284.574 147.077 286.073C144.156 287.572 140.92 288.353 137.637 288.353C134.354 288.353 131.118 287.572 128.197 286.073C125.276 284.574 122.754 282.401 120.839 279.734H111.822C111.822 281.218 111.327 285.442 109.653 285.442C109.218 285.452 108.786 285.369 108.385 285.199C107.985 285.028 107.626 284.774 107.332 284.452H103.756ZM137.618 300.699C126.785 300.6 116.003 299.195 105.506 296.513C104.72 296.338 104.017 295.903 103.509 295.278C103.002 294.653 102.72 293.875 102.709 293.07V283.939C102.707 283.87 102.718 283.801 102.743 283.736C102.768 283.672 102.805 283.613 102.853 283.563C102.901 283.513 102.958 283.474 103.022 283.447C103.086 283.42 103.154 283.406 103.223 283.406H107.56C107.649 283.404 107.736 283.426 107.813 283.47C107.89 283.513 107.954 283.577 107.998 283.653C108.188 283.902 108.437 284.1 108.723 284.23C109.008 284.359 109.321 284.416 109.634 284.395C110.186 284.224 110.794 280.933 110.794 279.259C110.794 279.123 110.849 278.992 110.945 278.896C111.041 278.799 111.172 278.745 111.308 278.745H121.143C121.265 278.743 121.383 278.784 121.477 278.861C121.571 278.937 121.635 279.045 121.657 279.164C123.471 281.712 125.867 283.79 128.647 285.223C131.427 286.657 134.509 287.405 137.637 287.405C140.765 287.405 143.847 286.657 146.627 285.223C149.407 283.79 151.804 281.712 153.617 279.164C153.653 279.064 153.717 278.977 153.802 278.913C153.886 278.849 153.987 278.81 154.093 278.802H163.928C163.995 278.802 164.062 278.816 164.125 278.841C164.187 278.867 164.243 278.905 164.291 278.953C164.339 279 164.377 279.057 164.403 279.119C164.428 279.182 164.442 279.248 164.442 279.316C164.442 280.99 165.05 284.281 165.621 284.452C165.931 284.47 166.24 284.411 166.522 284.282C166.804 284.153 167.049 283.956 167.238 283.71C167.285 283.636 167.35 283.575 167.426 283.532C167.502 283.489 167.588 283.465 167.676 283.463H172.013C172.082 283.463 172.151 283.477 172.214 283.504C172.278 283.531 172.335 283.57 172.383 283.62C172.431 283.67 172.469 283.729 172.493 283.793C172.518 283.858 172.529 283.927 172.527 283.996V293.127C172.512 293.934 172.226 294.712 171.715 295.336C171.205 295.961 170.499 296.396 169.711 296.571C159.214 299.252 148.432 300.657 137.599 300.756" fill="#A2A2A2"/>
<path d="M160.387 61.037V42.3366L155.727 41.5186V61.037H160.387Z" fill="#D3D3D3"/>
<path d="M156.183 60.6942H159.988V42.6596L156.183 41.9938V60.6942ZM160.445 61.4742H155.803C155.697 61.4742 155.595 61.4321 155.52 61.3572C155.445 61.2823 155.403 61.1806 155.403 61.0747V41.5182C155.405 41.4641 155.418 41.4109 155.441 41.3618C155.463 41.3128 155.496 41.2689 155.537 41.2328C155.581 41.1954 155.633 41.1677 155.688 41.1513C155.744 41.1349 155.802 41.1303 155.86 41.1377L160.521 41.9558C160.611 41.9695 160.694 42.0156 160.754 42.0855C160.813 42.1554 160.845 42.2445 160.844 42.3362V61.0366C160.844 61.1426 160.802 61.2442 160.727 61.3191C160.652 61.3941 160.551 61.4361 160.445 61.4361" fill="#A2A2A2"/>
<path d="M158.084 49.0897C157.999 49.0897 157.916 49.0557 157.856 48.995C157.795 48.9344 157.761 48.8521 157.761 48.7663V39.4446C157.758 39.4015 157.765 39.3582 157.78 39.3177C157.795 39.2771 157.819 39.2404 157.85 39.2098C157.88 39.1791 157.917 39.1554 157.957 39.1402C157.998 39.1249 158.041 39.1184 158.084 39.1212C158.17 39.1212 158.253 39.1553 158.313 39.216C158.374 39.2766 158.408 39.3589 158.408 39.4446V48.7663C158.403 48.8506 158.368 48.9302 158.308 48.9899C158.248 49.0496 158.169 49.0852 158.084 49.0897ZM158.084 53.0847C157.999 53.0847 157.916 53.0507 157.856 52.99C157.795 52.9294 157.761 52.8471 157.761 52.7613V51.4487C157.761 51.3629 157.795 51.2806 157.856 51.22C157.916 51.1593 157.999 51.1253 158.084 51.1253C158.169 51.1298 158.248 51.1654 158.308 51.2251C158.368 51.2848 158.403 51.3644 158.408 51.4487V52.7613C158.403 52.8456 158.368 52.9252 158.308 52.9849C158.248 53.0446 158.169 53.0802 158.084 53.0847ZM158.084 63.662C158.041 63.6648 157.998 63.6583 157.957 63.6431C157.917 63.6278 157.88 63.6041 157.85 63.5735C157.819 63.5429 157.795 63.5061 157.78 63.4656C157.765 63.4251 157.758 63.3818 157.761 63.3386V55.3486C157.756 55.303 157.76 55.2568 157.774 55.2131C157.788 55.1694 157.811 55.129 157.841 55.0949C157.872 55.0607 157.909 55.0334 157.951 55.0148C157.993 54.9962 158.039 54.9868 158.084 54.9871C158.169 54.9917 158.248 55.0272 158.308 55.0869C158.368 55.1466 158.403 55.2262 158.408 55.3105V63.3005C158.408 63.3863 158.374 63.4686 158.313 63.5292C158.253 63.5899 158.17 63.6239 158.084 63.6239" fill="#A2A2A2"/>
<path d="M119.922 258.276H113.796V276.158H119.332C118.036 273.333 117.414 270.245 117.517 267.138C117.619 264.031 118.442 260.991 119.922 258.257" fill="#434343"/>
<path d="M114.197 258.675V275.796H118.744C117.593 273.073 117.045 270.133 117.137 267.177C117.229 264.222 117.959 261.322 119.277 258.675H114.197ZM113.798 276.576C113.697 276.575 113.602 276.534 113.531 276.462C113.494 276.425 113.464 276.381 113.444 276.332C113.425 276.283 113.415 276.23 113.417 276.177V258.295C113.417 258.194 113.457 258.097 113.529 258.026C113.6 257.954 113.697 257.914 113.798 257.914H119.923C119.992 257.915 120.059 257.934 120.118 257.967C120.178 258 120.229 258.047 120.266 258.104C120.299 258.162 120.317 258.228 120.317 258.295C120.317 258.361 120.299 258.427 120.266 258.485C118.821 261.169 118.017 264.151 117.918 267.197C117.819 270.244 118.427 273.272 119.695 276.044C119.727 276.099 119.744 276.161 119.744 276.224C119.744 276.288 119.727 276.35 119.695 276.405C119.661 276.461 119.614 276.507 119.557 276.541C119.501 276.574 119.437 276.593 119.372 276.595L113.798 276.576Z" fill="#A2A2A2"/>
<path d="M113.798 258.675C113.697 258.675 113.6 258.635 113.529 258.564C113.458 258.492 113.417 258.396 113.417 258.295V254.224C113.415 254.172 113.423 254.121 113.441 254.072C113.459 254.024 113.486 253.98 113.522 253.942C113.558 253.905 113.6 253.875 113.648 253.855C113.695 253.835 113.746 253.824 113.798 253.824C113.904 253.824 114.006 253.866 114.08 253.941C114.155 254.016 114.197 254.118 114.197 254.224V258.295C114.198 258.346 114.187 258.397 114.167 258.445C114.146 258.492 114.117 258.535 114.079 258.571C114.042 258.606 113.998 258.634 113.949 258.652C113.901 258.67 113.85 258.678 113.798 258.675Z" fill="#A2A2A2"/>
<path d="M174.922 239.004C174.786 239.004 174.655 238.95 174.559 238.854C174.462 238.758 174.408 238.627 174.408 238.491V100.321C174.408 100.185 174.462 100.054 174.559 99.9576C174.655 99.8613 174.786 99.8071 174.922 99.8071C175.06 99.807 175.193 99.8605 175.292 99.9564C175.391 100.052 175.45 100.183 175.454 100.321V238.491C175.45 238.629 175.391 238.759 175.292 238.855C175.193 238.951 175.06 239.005 174.922 239.004Z" fill="#A2A2A2"/>
<path d="M105.105 60.8653L107.54 56.3757C107.782 56.0538 108.1 55.7956 108.464 55.6233C108.829 55.451 109.229 55.3697 109.632 55.3864C111.535 55.3864 111.535 66.211 111.535 66.211L105.047 72.2796V84.3407H103.24V71.4045L109.918 65.1837C109.918 65.1837 109.918 57.2508 109.309 57.2508C108.7 57.2508 106.722 61.6833 106.722 61.6833L105.105 60.8653Z" fill="#A2A2A2"/>
<path d="M170.107 60.8653L167.691 56.3757C167.448 56.0538 167.131 55.7956 166.767 55.6233C166.402 55.451 166.001 55.3697 165.599 55.3864C163.696 55.3864 163.696 66.211 163.696 66.211L170.164 72.2796V84.3407H171.972V71.4045L165.294 65.1837C165.294 65.1837 165.294 57.2508 165.922 57.2508C166.55 57.2508 168.528 61.6833 168.528 61.6833L170.107 60.8653Z" fill="#A2A2A2"/>
<path d="M105.105 279.468L107.54 283.958C107.782 284.28 108.1 284.538 108.464 284.71C108.829 284.882 109.229 284.964 109.632 284.947C111.535 284.947 111.535 274.122 111.535 274.122L105.047 268.054V255.993H103.24V268.929L109.918 275.15C109.918 275.15 109.918 283.083 109.309 283.083C108.7 283.083 106.684 278.65 106.684 278.65L105.105 279.468Z" fill="#A2A2A2"/>
<path d="M170.107 279.468L167.691 283.958C167.448 284.28 167.131 284.538 166.767 284.71C166.402 284.882 166.001 284.964 165.599 284.947C163.696 284.947 163.696 274.122 163.696 274.122L170.164 268.054V255.993H171.972V268.929L165.294 275.15C165.294 275.15 165.294 283.083 165.922 283.083C166.55 283.083 168.528 278.65 168.528 278.65L170.107 279.468Z" fill="#A2A2A2"/>
<path d="M37.8544 239.004C37.7182 239.004 37.5876 238.95 37.4912 238.854C37.3949 238.758 37.3408 238.627 37.3408 238.491V100.321C37.3408 100.185 37.3949 100.054 37.4912 99.9576C37.5876 99.8613 37.7182 99.8071 37.8544 99.8071C37.9907 99.8071 38.1213 99.8613 38.2176 99.9576C38.314 100.054 38.3681 100.185 38.3681 100.321V238.491C38.3681 238.627 38.314 238.758 38.2176 238.854C38.1213 238.95 37.9907 239.004 37.8544 239.004Z" fill="#A2A2A2"/>
<path d="M50.5634 86.738C50.4972 86.7389 50.4321 86.7217 50.3751 86.6881C50.318 86.6546 50.2713 86.606 50.24 86.5477C50.2127 86.5043 50.1945 86.4558 50.1864 86.4052C50.1783 86.3545 50.1806 86.3028 50.193 86.253C50.2054 86.2033 50.2278 86.1565 50.2588 86.1157C50.2897 86.0748 50.3286 86.0405 50.3731 86.0151L54.8818 83.3898C54.9438 83.3707 55.0101 83.3707 55.072 83.3898H72.1935C72.2555 83.3707 72.3217 83.3707 72.3837 83.3898L75.6177 85.2922C75.6623 85.3176 75.7012 85.3519 75.7321 85.3927C75.7631 85.4336 75.7854 85.4804 75.7979 85.5301C75.8103 85.5799 75.8126 85.6316 75.8045 85.6823C75.7964 85.7329 75.7782 85.7814 75.7509 85.8248C75.7254 85.8693 75.6913 85.9083 75.6504 85.9392C75.6095 85.9702 75.5627 85.9925 75.5129 86.005C75.4632 86.0174 75.4115 86.0197 75.3608 86.0116C75.3102 86.0035 75.2617 85.9853 75.2183 85.958L72.0793 84.0556H55.091L50.6775 86.6238C50.6088 86.6408 50.537 86.6408 50.4682 86.6238" fill="#A2A2A2"/>
<path d="M55.6602 89.2299C55.5593 89.2299 55.4625 89.1898 55.3912 89.1185C55.3198 89.0471 55.2797 88.9504 55.2797 88.8494V83.7511C55.2797 83.6451 55.3218 83.5435 55.3968 83.4686C55.4717 83.3936 55.5733 83.3516 55.6793 83.3516C55.7309 83.3515 55.782 83.3619 55.8294 83.3822C55.8768 83.4025 55.9196 83.4323 55.9552 83.4696C55.9908 83.507 56.0185 83.5512 56.0364 83.5996C56.0544 83.648 56.0623 83.6995 56.0597 83.7511V88.8304C56.0624 88.8836 56.054 88.9368 56.0349 88.9865C56.0158 89.0362 55.9864 89.0813 55.9488 89.119C55.9111 89.1566 55.866 89.186 55.8163 89.2051C55.7666 89.2242 55.7134 89.2327 55.6602 89.2299ZM55.6602 94.8039C55.6087 94.8065 55.5571 94.7986 55.5088 94.7806C55.4604 94.7626 55.4161 94.735 55.3788 94.6994C55.3414 94.6638 55.3117 94.621 55.2914 94.5736C55.2711 94.5261 55.2607 94.475 55.2607 94.4234V91.4367C55.2607 91.3358 55.3008 91.239 55.3722 91.1676C55.4435 91.0963 55.5403 91.0562 55.6412 91.0562C55.6927 91.0536 55.7443 91.0616 55.7927 91.0795C55.841 91.0975 55.8853 91.1251 55.9226 91.1607C55.96 91.1963 55.9897 91.2391 56.01 91.2865C56.0303 91.334 56.0407 91.3851 56.0407 91.4367V94.4044C56.0408 94.5021 56.0033 94.5961 55.9361 94.6669C55.8688 94.7378 55.7768 94.78 55.6793 94.7849L55.6602 94.8039Z" fill="#A2A2A2"/>
<path d="M71.6968 89.2299C71.6453 89.2325 71.5937 89.2246 71.5454 89.2066C71.497 89.1886 71.4528 89.161 71.4154 89.1254C71.3781 89.0898 71.3483 89.047 71.328 88.9996C71.3077 88.9521 71.2973 88.9011 71.2974 88.8494V83.7511C71.2948 83.6995 71.3027 83.648 71.3206 83.5996C71.3386 83.5512 71.3663 83.507 71.4019 83.4696C71.4374 83.4323 71.4802 83.4025 71.5277 83.3822C71.5751 83.3619 71.6262 83.3515 71.6778 83.3516C71.7837 83.3516 71.8854 83.3936 71.9603 83.4686C72.0352 83.5435 72.0773 83.6451 72.0773 83.7511V88.8304C72.0773 88.9313 72.0372 89.0281 71.9659 89.0995C71.8945 89.1708 71.7977 89.2109 71.6968 89.2109V89.2299ZM71.6968 94.7849C71.5959 94.7849 71.4992 94.7448 71.4278 94.6734C71.3565 94.6021 71.3164 94.5053 71.3164 94.4044V91.4367C71.3163 91.3851 71.3267 91.334 71.347 91.2865C71.3673 91.2391 71.3971 91.1963 71.4344 91.1607C71.4718 91.1251 71.516 91.0975 71.5644 91.0795C71.6128 91.0616 71.6643 91.0536 71.7159 91.0562C71.8168 91.0562 71.9136 91.0963 71.9849 91.1676C72.0563 91.239 72.0963 91.3358 72.0963 91.4367V94.4044C72.0964 94.456 72.086 94.5071 72.0657 94.5545C72.0454 94.602 72.0157 94.6448 71.9783 94.6804C71.9409 94.716 71.8967 94.7436 71.8483 94.7616C71.7999 94.7795 71.7484 94.7875 71.6968 94.7849Z" fill="#A2A2A2"/>
<path d="M63.6691 88.4311C63.5848 88.4265 63.5052 88.391 63.4455 88.3313C63.3858 88.2716 63.3503 88.192 63.3457 88.1077V61.0368C63.3503 60.9525 63.3858 60.8729 63.4455 60.8132C63.5052 60.7535 63.5848 60.7179 63.6691 60.7134C63.7567 60.7132 63.841 60.7467 63.9047 60.8068C63.9684 60.867 64.0066 60.9493 64.0115 61.0368V88.1077C64.0066 88.1952 63.9684 88.2774 63.9047 88.3376C63.841 88.3978 63.7567 88.4312 63.6691 88.4311ZM63.6691 92.2359C63.5848 92.2313 63.5052 92.1957 63.4455 92.1361C63.3858 92.0764 63.3503 91.9967 63.3457 91.9125V90.5998C63.3503 90.5155 63.3858 90.4359 63.4455 90.3762C63.5052 90.3165 63.5848 90.281 63.6691 90.2764C63.7567 90.2763 63.841 90.3097 63.9047 90.3699C63.9684 90.43 64.0066 90.5123 64.0115 90.5998V91.9125C64.0066 91.9999 63.9684 92.0822 63.9047 92.1424C63.841 92.2025 63.7567 92.236 63.6691 92.2359ZM63.6691 108.996C63.5833 108.996 63.501 108.962 63.4404 108.901C63.3797 108.84 63.3457 108.758 63.3457 108.672V94.5948C63.3503 94.5105 63.3858 94.4309 63.4455 94.3712C63.5052 94.3115 63.5848 94.276 63.6691 94.2714C63.7567 94.2713 63.841 94.3047 63.9047 94.3649C63.9684 94.425 64.0066 94.5073 64.0115 94.5948V108.768C64.0116 108.812 64.0026 108.855 63.9852 108.896C63.9678 108.936 63.9423 108.973 63.9102 109.003C63.8781 109.034 63.8402 109.057 63.7987 109.072C63.7573 109.087 63.7131 109.094 63.6691 109.091" fill="#A2A2A2"/>
<path d="M59.7325 89.2299C59.6316 89.2299 59.5348 89.1898 59.4635 89.1185C59.3921 89.0471 59.3521 88.9504 59.3521 88.8494V83.7511C59.3495 83.6995 59.3574 83.648 59.3753 83.5996C59.3933 83.5512 59.4209 83.507 59.4565 83.4696C59.4921 83.4323 59.5349 83.4025 59.5824 83.3822C59.6298 83.3619 59.6809 83.3515 59.7325 83.3516C59.8384 83.3516 59.9401 83.3936 60.015 83.4686C60.0899 83.5435 60.132 83.6451 60.132 83.7511V88.8304C60.132 88.9313 60.0919 89.0281 60.0206 89.0995C59.9492 89.1708 59.8524 89.2109 59.7515 89.2109L59.7325 89.2299ZM59.7325 94.8039C59.6298 94.804 59.5309 94.7646 59.4566 94.6937C59.3822 94.6228 59.3379 94.5261 59.333 94.4234V91.4367C59.3329 91.3851 59.3434 91.334 59.3637 91.2865C59.384 91.2391 59.4137 91.1963 59.4511 91.1607C59.4885 91.1251 59.5327 91.0975 59.5811 91.0795C59.6295 91.0616 59.6809 91.0536 59.7325 91.0562C59.8334 91.0562 59.9302 91.0963 60.0015 91.1676C60.0729 91.239 60.113 91.3358 60.113 91.4367V94.4044C60.1131 94.5021 60.0757 94.5961 60.0084 94.6669C59.9411 94.7378 59.8491 94.78 59.7515 94.7849L59.7325 94.8039Z" fill="#A2A2A2"/>
<path d="M67.6466 89.2299C67.5456 89.2299 67.4489 89.1898 67.3775 89.1185C67.3062 89.0471 67.2661 88.9504 67.2661 88.8494V83.7511C67.2635 83.6995 67.2714 83.648 67.2894 83.5996C67.3074 83.5512 67.335 83.507 67.3706 83.4696C67.4061 83.4323 67.449 83.4025 67.4964 83.3822C67.5439 83.3619 67.595 83.3515 67.6466 83.3516C67.751 83.3562 67.85 83.3998 67.9239 83.4737C67.9978 83.5477 68.0415 83.6466 68.0461 83.7511V88.8304C68.0488 88.8836 68.0404 88.9368 68.0213 88.9865C68.0021 89.0362 67.9728 89.0813 67.9352 89.119C67.8975 89.1566 67.8523 89.186 67.8026 89.2051C67.7529 89.2242 67.6997 89.2327 67.6466 89.2299ZM67.6466 94.8039C67.595 94.8065 67.5435 94.7986 67.4951 94.7806C67.4468 94.7626 67.4025 94.735 67.3652 94.6994C67.3278 94.6638 67.298 94.621 67.2777 94.5736C67.2574 94.5261 67.247 94.475 67.2471 94.4234V91.4367C67.2471 91.3358 67.2872 91.239 67.3585 91.1676C67.4299 91.0963 67.5267 91.0562 67.6276 91.0562C67.6791 91.0536 67.7306 91.0616 67.779 91.0795C67.8274 91.0975 67.8716 91.1251 67.909 91.1607C67.9463 91.1963 67.9761 91.2391 67.9964 91.2865C68.0167 91.334 68.0271 91.3851 68.0271 91.4367V94.4044C68.0272 94.5021 67.9897 94.5961 67.9224 94.6669C67.8552 94.7378 67.7632 94.78 67.6656 94.7849L67.6466 94.8039Z" fill="#A2A2A2"/>
<path d="M67.9871 97.2963C67.9167 97.2947 67.8478 97.2746 67.7877 97.2378C67.7276 97.2011 67.6782 97.149 67.6447 97.087C67.5962 96.9958 67.585 96.8894 67.6134 96.7901C67.6418 96.6907 67.7076 96.6063 67.7969 96.5544L70.3461 95.0895C70.435 95.0395 70.5398 95.0253 70.6389 95.0501C70.738 95.0749 70.8238 95.1366 70.8787 95.2227C70.906 95.2661 70.9242 95.3146 70.9323 95.3653C70.9404 95.4159 70.9381 95.4677 70.9257 95.5174C70.9133 95.5672 70.8909 95.6139 70.8599 95.6548C70.829 95.6957 70.7901 95.7299 70.7455 95.7554L68.1773 97.2392C68.115 97.2562 68.0494 97.2562 67.9871 97.2392V97.2963ZM60.0542 97.6197C59.9854 97.6367 59.9136 97.6367 59.8449 97.6197L56.6679 95.7173C56.5819 95.6624 56.5201 95.5766 56.4953 95.4775C56.4706 95.3784 56.4847 95.2736 56.5347 95.1847C56.5602 95.1401 56.5945 95.1012 56.6354 95.0703C56.6762 95.0393 56.723 95.017 56.7727 95.0045C56.8225 94.9921 56.8742 94.9898 56.9249 94.9979C56.9755 95.006 57.024 95.0242 57.0674 95.0515L60.2444 96.9539C60.2889 96.9794 60.3278 97.0136 60.3588 97.0545C60.3897 97.0954 60.4121 97.1421 60.4246 97.1918C60.437 97.2416 60.4393 97.2933 60.4312 97.344C60.4231 97.3946 60.4049 97.4431 60.3776 97.4865C60.3481 97.5463 60.3017 97.5961 60.2442 97.6299C60.1868 97.6637 60.1207 97.68 60.0542 97.6768V97.6197ZM63.6687 99.7694C63.6065 99.7874 63.5406 99.7874 63.4784 99.7694L62.2419 99.0465C62.1958 99.0227 62.1551 98.9897 62.1222 98.9495C62.0893 98.9094 62.065 98.8629 62.0508 98.813C62.0365 98.7632 62.0326 98.7109 62.0393 98.6594C62.046 98.608 62.0632 98.5584 62.0897 98.5138C62.1416 98.4245 62.2261 98.3588 62.3254 98.3304C62.4247 98.302 62.5312 98.3132 62.6224 98.3617L63.6687 98.9704L65.4189 97.9812C65.5072 97.9307 65.6119 97.9174 65.71 97.9442C65.8081 97.9709 65.8916 98.0356 65.942 98.1239C65.9925 98.2122 66.0058 98.3169 65.979 98.415C65.9523 98.5131 65.8876 98.5965 65.7993 98.647L63.897 99.7694C63.8286 99.789 63.7561 99.789 63.6877 99.7694" fill="#A2A2A2"/>
<path d="M71.1832 105.971C71.1071 105.969 71.0333 105.945 70.9704 105.902C70.9075 105.859 70.8582 105.799 70.8282 105.729C70.7982 105.659 70.7888 105.582 70.8012 105.507C70.8135 105.432 70.8471 105.362 70.8978 105.305L74.9118 101.291C74.9885 101.242 75.0797 101.221 75.1701 101.231C75.2606 101.241 75.3449 101.281 75.4093 101.346C75.4736 101.41 75.5141 101.494 75.5239 101.585C75.5338 101.675 75.5125 101.766 75.4635 101.843L71.4495 105.857C71.3792 105.929 71.2835 105.97 71.1832 105.971Z" fill="#A2A2A2"/>
<path d="M56.1935 105.971C56.1407 105.973 56.088 105.964 56.0388 105.944C55.9897 105.924 55.9452 105.895 55.9082 105.857L51.0381 100.987C50.9877 100.955 50.9452 100.912 50.9136 100.861C50.8821 100.81 50.8624 100.753 50.8559 100.693C50.8494 100.634 50.8563 100.574 50.8762 100.517C50.896 100.461 50.9283 100.41 50.9705 100.368C51.0128 100.325 51.064 100.293 51.1204 100.273C51.1768 100.253 51.2369 100.246 51.2963 100.253C51.3558 100.259 51.413 100.279 51.4638 100.311C51.5146 100.342 51.5576 100.385 51.5898 100.435L56.4598 105.305C56.5308 105.379 56.5704 105.478 56.5704 105.581C56.5704 105.684 56.5308 105.783 56.4598 105.857C56.3896 105.929 56.2939 105.97 56.1935 105.971Z" fill="#A2A2A2"/>
<path d="M76.0554 101.044H51.1912C51.1328 101.057 51.0723 101.057 51.014 101.043C50.9557 101.029 50.9013 101.003 50.8546 100.966C50.808 100.928 50.7703 100.881 50.7444 100.827C50.7185 100.773 50.7051 100.714 50.7051 100.654C50.7051 100.594 50.7185 100.535 50.7444 100.481C50.7703 100.427 50.808 100.38 50.8546 100.342C50.9013 100.305 50.9557 100.278 51.014 100.265C51.0723 100.251 51.1328 100.251 51.1912 100.264H76.0554C76.1563 100.264 76.2531 100.304 76.3244 100.375C76.3958 100.447 76.4358 100.543 76.4358 100.644C76.4384 100.696 76.4305 100.747 76.4125 100.796C76.3946 100.844 76.367 100.888 76.3314 100.926C76.2958 100.963 76.253 100.993 76.2055 101.013C76.1581 101.034 76.107 101.044 76.0554 101.044Z" fill="#A2A2A2"/>
<path d="M66.1254 102.661H65.9161L63.6904 101.215L63.443 101.367C63.4002 101.398 63.3512 101.42 63.2994 101.431C63.2475 101.443 63.1939 101.443 63.1419 101.432C63.09 101.421 63.0409 101.4 62.9977 101.369C62.9545 101.338 62.9183 101.299 62.8913 101.253C62.8514 101.21 62.8214 101.159 62.8033 101.103C62.7853 101.048 62.7797 100.989 62.787 100.931C62.7942 100.873 62.8142 100.817 62.8454 100.767C62.8766 100.718 62.9182 100.676 62.9675 100.644L63.443 100.34C63.5067 100.303 63.5788 100.284 63.6523 100.284C63.7257 100.284 63.7979 100.303 63.8616 100.34L66.3157 101.919C66.3999 101.98 66.4583 102.07 66.4794 102.173C66.5005 102.275 66.4829 102.381 66.4298 102.47C66.3916 102.525 66.3403 102.57 66.2804 102.6C66.2206 102.63 66.1542 102.644 66.0874 102.642L66.1254 102.661ZM58.0974 104.658C58.0305 104.661 57.9641 104.646 57.9043 104.616C57.8445 104.586 57.7931 104.542 57.7549 104.487C57.703 104.4 57.6859 104.297 57.7071 104.198C57.7283 104.099 57.7862 104.012 57.8691 103.954L60.7797 102.052C60.8226 102.021 60.8716 101.999 60.9234 101.988C60.9753 101.976 61.0288 101.976 61.0808 101.987C61.1328 101.998 61.1819 102.019 61.2251 102.05C61.2682 102.081 61.3045 102.12 61.3314 102.166C61.3833 102.253 61.4004 102.356 61.3792 102.455C61.358 102.554 61.3001 102.641 61.2172 102.699L58.3066 104.601H58.0974V104.658ZM71.1858 105.895C71.117 105.912 71.0452 105.912 70.9765 105.895L68.0658 103.992C68.0177 103.966 67.9756 103.929 67.9422 103.886C67.9088 103.842 67.8847 103.792 67.8716 103.739C67.8584 103.685 67.8564 103.63 67.8657 103.575C67.875 103.521 67.8954 103.469 67.9256 103.424C67.9558 103.378 67.9952 103.338 68.0413 103.308C68.0873 103.278 68.1391 103.258 68.1933 103.249C68.2476 103.24 68.3031 103.242 68.3565 103.255C68.4098 103.269 68.4598 103.293 68.5034 103.327L71.395 105.229C71.4407 105.256 71.4802 105.292 71.5111 105.335C71.542 105.378 71.5635 105.428 71.5742 105.479C71.585 105.531 71.5847 105.585 71.5735 105.637C71.5623 105.689 71.5404 105.738 71.5091 105.781C71.4753 105.835 71.4276 105.88 71.3707 105.91C71.3139 105.94 71.25 105.955 71.1858 105.952" fill="#A2A2A2"/>
<path d="M63.6889 96.0976C62.3357 96.1013 61.0117 95.7042 59.8841 94.9562C59.6292 95.3022 59.2968 95.584 58.9137 95.7788C58.5306 95.9737 58.1072 96.0763 57.6773 96.0786C57.1722 96.0781 56.6774 95.935 56.25 95.6658C55.8225 95.3966 55.4799 95.0121 55.2613 94.5567C55.2391 94.5106 55.2265 94.4605 55.2241 94.4095C55.2217 94.3584 55.2295 94.3074 55.2473 94.2594C55.265 94.2115 55.2923 94.1676 55.3274 94.1304C55.3625 94.0932 55.4047 94.0635 55.4515 94.043C55.4964 94.0202 55.5454 94.0065 55.5957 94.0028C55.6459 93.9991 55.6963 94.0054 55.7441 94.0213C55.7919 94.0372 55.836 94.0625 55.874 94.0956C55.9119 94.1287 55.943 94.169 55.9652 94.2142C56.1194 94.538 56.3619 94.8115 56.6648 95.0034C56.9678 95.1952 57.3188 95.2976 57.6773 95.2986C58.0403 95.3065 58.398 95.2104 58.7081 95.0217C59.0182 94.8329 59.2679 94.5593 59.4276 94.2332C59.4515 94.1793 59.4882 94.132 59.5347 94.0955C59.5811 94.059 59.6357 94.0345 59.6939 94.024C59.7436 93.9973 59.7991 93.9834 59.8555 93.9834C59.912 93.9834 59.9676 93.9973 60.0173 94.024C61.0537 94.8124 62.32 95.2393 63.6223 95.2393C64.9245 95.2393 66.1908 94.8124 67.2273 94.024C67.277 93.9973 67.3326 93.9834 67.389 93.9834C67.4454 93.9834 67.501 93.9973 67.5507 94.024C67.6108 94.0286 67.6682 94.0509 67.7156 94.0881C67.7631 94.1254 67.7983 94.1759 67.817 94.2332C67.9869 94.551 68.2389 94.8174 68.5467 95.0048C68.8545 95.1921 69.2069 95.2936 69.5672 95.2986C69.9238 95.2993 70.2733 95.1998 70.5761 95.0114C70.8788 94.8231 71.1225 94.5534 71.2794 94.2332C71.2999 94.1864 71.3296 94.1442 71.3668 94.1091C71.404 94.074 71.4478 94.0468 71.4958 94.029C71.5437 94.0113 71.5947 94.0033 71.6458 94.0057C71.6969 94.0082 71.747 94.0208 71.793 94.043C71.8399 94.0635 71.8821 94.0932 71.9172 94.1304C71.9523 94.1676 71.9795 94.2115 71.9972 94.2594C72.015 94.3074 72.0229 94.3584 72.0205 94.4095C72.0181 94.4605 72.0054 94.5106 71.9832 94.5567C71.7665 95.0135 71.4243 95.3992 70.9965 95.6687C70.5686 95.9383 70.0729 96.0804 69.5672 96.0786C69.1374 96.0763 68.714 95.9737 68.3309 95.7788C67.9477 95.584 67.6154 95.3022 67.3605 94.9562C66.2348 95.7084 64.9095 96.106 63.5557 96.0976" fill="#A2A2A2"/>
<path d="M76.1101 87.0995H51.284C51.2256 87.1125 51.165 87.1122 51.1068 87.0987C51.0485 87.0851 50.994 87.0586 50.9473 87.0212C50.9007 86.9837 50.863 86.9363 50.8372 86.8824C50.8113 86.8284 50.7979 86.7694 50.7979 86.7096C50.7979 86.6497 50.8113 86.5907 50.8372 86.5367C50.863 86.4828 50.9007 86.4354 50.9473 86.3979C50.994 86.3605 51.0485 86.334 51.1068 86.3205C51.165 86.3069 51.2256 86.3066 51.284 86.3196H76.1101C76.1616 86.317 76.2132 86.3249 76.2615 86.3429C76.3099 86.3608 76.3541 86.3885 76.3915 86.4241C76.4288 86.4597 76.4586 86.5025 76.4789 86.5499C76.4992 86.5974 76.5096 86.6484 76.5096 86.7C76.5096 86.806 76.4675 86.9076 76.3926 86.9825C76.3177 87.0574 76.216 87.0995 76.1101 87.0995Z" fill="#A2A2A2"/>
<path d="M111.248 66.4966V69.4072C110.585 69.7215 110.033 70.2302 109.666 70.8657C109.299 71.5011 109.134 72.2332 109.194 72.9647V76.9407C109.422 78.843 110.107 78.2913 111.096 80.2698C112.523 83.0473 111.952 83.9034 109.878 86.0911L108.09 84.6263C108.09 84.6263 109.536 82.8951 108.414 82.1532C107.881 81.8108 107.443 82.2673 105.027 82.2673V72.2798L111.248 66.4966Z" fill="#434343"/>
<path d="M108.623 84.5693L109.841 85.5586C111.743 83.6562 112.028 82.9143 110.754 80.4412C110.485 79.9006 110.131 79.4062 109.707 78.9763C109.167 78.483 108.834 77.8032 108.775 77.0739V72.9648C108.728 72.202 108.895 71.4412 109.259 70.7687C109.622 70.0962 110.166 69.5389 110.83 69.16V67.3908L105.427 72.4512V81.8679C106.064 81.8546 106.7 81.7974 107.329 81.6967C107.546 81.63 107.774 81.6073 107.999 81.6302C108.225 81.6531 108.443 81.721 108.642 81.8299C108.798 81.9291 108.931 82.06 109.032 82.2141C109.134 82.3681 109.202 82.5419 109.232 82.724C109.267 83.408 109.058 84.0821 108.642 84.6264L108.623 84.5693ZM109.898 86.5288C109.818 86.5579 109.73 86.5579 109.65 86.5288L107.862 85.0639C107.791 84.9896 107.752 84.8908 107.752 84.7881C107.752 84.6854 107.791 84.5866 107.862 84.5123C108.241 84.0835 108.468 83.542 108.509 82.9713C108.476 82.8236 108.387 82.6941 108.262 82.6099C108.109 82.6099 107.995 82.6099 107.482 82.6099C106.689 82.7337 105.887 82.791 105.085 82.7811C105.035 82.7811 104.985 82.7712 104.939 82.7521C104.893 82.733 104.851 82.705 104.816 82.6697C104.78 82.6343 104.752 82.5924 104.733 82.5462C104.714 82.5001 104.704 82.4506 104.704 82.4006V72.2799C104.705 72.1738 104.745 72.0718 104.818 71.9946L111.02 66.2874C111.081 66.244 111.154 66.2207 111.229 66.2207C111.304 66.2207 111.377 66.244 111.439 66.2874C111.507 66.3199 111.565 66.3711 111.605 66.4351C111.646 66.4991 111.667 66.5732 111.667 66.6489V69.5595C111.665 69.6373 111.641 69.713 111.597 69.7772C111.553 69.8414 111.491 69.8914 111.42 69.921C110.828 70.2055 110.338 70.6643 110.015 71.2356C109.692 71.807 109.551 72.4635 109.612 73.117V77.093C109.62 77.3784 109.686 77.6593 109.807 77.9179C109.928 78.1765 110.102 78.4073 110.316 78.5959C110.802 79.0682 111.201 79.6219 111.496 80.2319C112.999 83.1616 112.371 84.2269 110.202 86.5098C110.134 86.5868 110.038 86.6345 109.936 86.6429" fill="#A2A2A2"/>
<path d="M163.98 66.4966V69.4072C164.644 69.7215 165.195 70.2302 165.562 70.8657C165.929 71.5011 166.094 72.2332 166.035 72.9647V76.9407C165.807 78.843 165.103 78.2913 164.133 80.2698C162.725 83.0473 163.296 83.9034 165.369 86.0911L167.138 84.6263C167.138 84.6263 165.693 82.8951 166.834 82.1532C167.348 81.8108 167.785 82.2673 170.201 82.2673V72.2798L163.98 66.4966Z" fill="#434343"/>
<path d="M164.381 69.1598C165.042 69.5412 165.582 70.0996 165.942 70.7719C166.301 71.4442 166.466 72.2036 166.417 72.9645V76.9405C166.41 77.3239 166.326 77.702 166.169 78.0519C166.012 78.4018 165.786 78.7162 165.504 78.9761C165.074 79.401 164.72 79.8964 164.458 80.4409C163.183 82.914 163.601 83.6749 165.371 85.5583L166.569 84.5691C166.154 84.0248 165.945 83.3506 165.98 82.6667C166.009 82.4821 166.079 82.3064 166.184 82.1518C166.29 81.9973 166.427 81.8678 166.588 81.7726C166.783 81.6631 166.999 81.5948 167.221 81.5719C167.444 81.549 167.669 81.572 167.882 81.6394C168.511 81.7389 169.147 81.7961 169.784 81.8106V72.4509L164.381 67.3905V69.1598ZM165.333 86.4905C165.278 86.4912 165.224 86.4797 165.175 86.4566C165.125 86.4335 165.082 86.3996 165.047 86.3573C162.879 84.0744 162.251 83.0091 163.754 80.0794C164.048 79.4694 164.448 78.9157 164.933 78.4434C165.151 78.2486 165.328 78.0116 165.452 77.7468C165.576 77.482 165.646 77.1948 165.656 76.9025V72.9645C165.719 72.3131 165.581 71.6581 165.261 71.087C164.942 70.5159 164.456 70.0559 163.868 69.7685C163.796 69.7389 163.734 69.6889 163.69 69.6247C163.646 69.5605 163.622 69.4849 163.621 69.4071V66.4964C163.618 66.4203 163.638 66.3451 163.679 66.2806C163.72 66.2162 163.779 66.1654 163.849 66.135C163.911 66.0941 163.984 66.0723 164.058 66.0723C164.132 66.0723 164.205 66.0941 164.267 66.135L170.45 71.8421C170.528 71.9174 170.576 72.0191 170.583 72.1275V82.115C170.583 82.1666 170.573 82.2177 170.553 82.2651C170.532 82.3126 170.503 82.3554 170.465 82.391C170.428 82.4266 170.384 82.4542 170.335 82.4722C170.287 82.4901 170.235 82.498 170.184 82.4955C169.381 82.5035 168.58 82.4463 167.787 82.3243C167.273 82.3243 167.159 82.3243 167.026 82.3243C166.959 82.3603 166.901 82.4119 166.858 82.4748C166.815 82.5377 166.788 82.61 166.778 82.6857C166.819 83.2564 167.046 83.7979 167.425 84.2266C167.496 84.301 167.536 84.3997 167.536 84.5025C167.536 84.6052 167.496 84.704 167.425 84.7783L165.656 86.2432C165.576 86.2693 165.489 86.2693 165.409 86.2432" fill="#A2A2A2"/>
<path d="M111.248 273.761V270.85C110.585 270.531 110.034 270.018 109.668 269.38C109.301 268.742 109.136 268.008 109.194 267.274V263.317C109.422 261.415 110.107 261.966 111.096 259.988C112.523 257.21 111.952 256.354 109.878 254.167L108.09 255.631C108.09 255.631 109.536 257.363 108.414 258.104C107.881 258.447 107.443 257.99 105.027 257.99V268.054L111.248 273.761Z" fill="#434343"/>
<path d="M105.447 267.845L110.85 272.905V271.136C110.184 270.759 109.639 270.202 109.276 269.529C108.912 268.856 108.746 268.094 108.795 267.331V263.374C108.829 262.595 109.163 261.859 109.727 261.32C110.157 260.901 110.511 260.412 110.774 259.874C112.029 257.401 111.63 256.64 109.86 254.756L108.643 255.746C109.059 256.29 109.268 256.964 109.233 257.648C109.203 257.83 109.135 258.004 109.033 258.158C108.932 258.312 108.799 258.443 108.643 258.542C108.444 258.651 108.226 258.719 108 258.742C107.775 258.765 107.547 258.742 107.33 258.675C106.702 258.565 106.066 258.508 105.428 258.504L105.447 267.845ZM111.249 274.199C111.199 274.202 111.149 274.193 111.103 274.173C111.056 274.153 111.015 274.123 110.983 274.085L104.781 268.377C104.708 268.3 104.667 268.198 104.667 268.092V258.105C104.667 258.004 104.707 257.907 104.778 257.836C104.85 257.764 104.947 257.724 105.047 257.724C105.85 257.715 106.652 257.772 107.444 257.895C107.958 257.895 108.072 257.895 108.205 257.895C108.275 257.855 108.335 257.8 108.381 257.734C108.427 257.669 108.458 257.594 108.472 257.515C108.427 256.951 108.2 256.417 107.825 255.993C107.787 255.957 107.759 255.912 107.742 255.862C107.726 255.812 107.721 255.759 107.73 255.708C107.747 255.608 107.793 255.515 107.863 255.441L109.632 253.976C109.703 253.907 109.799 253.868 109.899 253.868C109.998 253.868 110.094 253.907 110.165 253.976C112.334 256.259 112.961 257.325 111.458 260.254C111.164 260.864 110.765 261.418 110.279 261.89C110.061 262.084 109.885 262.321 109.764 262.586C109.643 262.852 109.579 263.14 109.575 263.431V267.35C109.513 268.006 109.653 268.666 109.976 269.241C110.299 269.815 110.789 270.277 111.382 270.565C111.454 270.595 111.516 270.645 111.56 270.709C111.604 270.773 111.628 270.849 111.63 270.927V273.761C111.63 273.837 111.608 273.911 111.568 273.975C111.528 274.039 111.47 274.09 111.401 274.123H111.249" fill="#A2A2A2"/>
<path d="M163.98 273.761V270.85C164.643 270.531 165.194 270.018 165.561 269.38C165.927 268.742 166.093 268.008 166.035 267.274V263.298C165.807 261.396 165.103 261.947 164.133 259.969C162.725 257.191 163.296 256.335 165.369 254.147L167.138 255.612C167.138 255.612 165.693 257.343 166.834 258.085C167.348 258.428 167.785 257.971 170.201 257.971V268.054L163.98 273.761Z" fill="#434343"/>
<path d="M164.381 271.079V272.848L169.784 267.788V258.276C169.147 258.289 168.511 258.346 167.882 258.447C167.669 258.514 167.444 258.537 167.221 258.514C166.999 258.492 166.783 258.423 166.588 258.314C166.427 258.219 166.29 258.089 166.184 257.935C166.079 257.78 166.009 257.604 165.98 257.42C165.945 256.736 166.154 256.062 166.569 255.517L165.371 254.528C163.563 256.43 163.183 257.153 164.458 259.645C164.714 260.188 165.069 260.678 165.504 261.091C165.78 261.347 166.004 261.656 166.16 261.999C166.317 262.341 166.404 262.712 166.417 263.089V267.103C166.462 267.863 166.295 268.621 165.936 269.292C165.577 269.964 165.039 270.523 164.381 270.908V271.079ZM163.982 273.97H163.83C163.76 273.94 163.701 273.889 163.66 273.825C163.619 273.76 163.599 273.685 163.601 273.609V270.698C163.603 270.621 163.627 270.545 163.671 270.481C163.715 270.416 163.777 270.366 163.849 270.337C164.437 270.044 164.922 269.58 165.241 269.006C165.56 268.433 165.698 267.776 165.637 267.122V263.298C165.63 263.013 165.563 262.732 165.442 262.473C165.321 262.214 165.148 261.984 164.933 261.795C164.452 261.319 164.054 260.766 163.754 260.159C162.251 257.21 162.879 256.164 165.047 253.881C165.118 253.812 165.214 253.772 165.314 253.772C165.413 253.772 165.509 253.812 165.58 253.881L167.349 255.346C167.42 255.42 167.46 255.519 167.46 255.622C167.46 255.725 167.42 255.823 167.349 255.898C166.97 256.326 166.743 256.868 166.702 257.439C166.712 257.514 166.739 257.587 166.782 257.65C166.825 257.712 166.882 257.764 166.95 257.8C167.083 257.8 167.216 257.8 167.711 257.8C168.504 257.678 169.305 257.621 170.108 257.629C170.159 257.626 170.211 257.634 170.259 257.652C170.307 257.67 170.352 257.698 170.389 257.733C170.426 257.769 170.456 257.812 170.476 257.859C170.497 257.907 170.507 257.958 170.507 258.009V268.054C170.5 268.162 170.452 268.264 170.374 268.339L164.191 274.046C164.121 274.118 164.025 274.159 163.925 274.161" fill="#A2A2A2"/>
<path d="M40.25 254.147C39.6194 254.147 39.0145 253.897 38.5686 253.451C38.1226 253.005 37.8721 252.4 37.8721 251.769V239.138C37.8721 237.957 38.3411 236.825 39.1759 235.99C40.0107 235.155 41.143 234.686 42.3236 234.686H170.525C171.11 234.686 171.689 234.801 172.229 235.025C172.769 235.249 173.26 235.576 173.673 235.99C174.086 236.403 174.414 236.894 174.638 237.434C174.862 237.974 174.977 238.553 174.977 239.138V251.769C174.977 252.4 174.726 253.005 174.28 253.451C173.834 253.897 173.229 254.147 172.599 254.147H152.376C150.507 252.09 148.224 250.452 145.676 249.34C143.129 248.229 140.374 247.669 137.595 247.698C134.82 247.698 132.075 248.271 129.531 249.381C126.988 250.491 124.701 252.113 122.813 254.147H40.25Z" fill="#434343"/>
<path d="M42.2865 235.2C41.2454 235.205 40.2487 235.622 39.5143 236.36C38.7799 237.098 38.3676 238.097 38.3676 239.138V251.769C38.3676 252.274 38.568 252.758 38.9248 253.115C39.2816 253.471 39.7655 253.672 40.27 253.672H122.624C124.559 251.635 126.886 250.011 129.466 248.9C132.046 247.788 134.825 247.211 137.634 247.204C140.449 247.173 143.239 247.733 145.824 248.847C148.409 249.961 150.733 251.605 152.644 253.672H172.543C173.047 253.672 173.531 253.471 173.888 253.115C174.245 252.758 174.445 252.274 174.445 251.769V239.119C174.44 238.077 174.023 237.081 173.285 236.346C172.547 235.612 171.548 235.2 170.507 235.2H42.2865ZM152.377 254.737C152.306 254.737 152.235 254.721 152.169 254.692C152.103 254.662 152.045 254.62 151.997 254.566C150.177 252.561 147.952 250.965 145.47 249.883C142.987 248.801 140.304 248.257 137.596 248.288C134.891 248.29 132.216 248.851 129.738 249.934C127.26 251.018 125.033 252.601 123.195 254.585C123.145 254.634 123.085 254.673 123.02 254.699C122.955 254.725 122.885 254.738 122.814 254.737H40.251C39.4841 254.737 38.7486 254.433 38.2063 253.89C37.664 253.348 37.3594 252.612 37.3594 251.846V239.214C37.3594 237.895 37.8818 236.63 38.8125 235.696C39.7431 234.762 41.006 234.235 42.3246 234.229H170.526C171.845 234.235 173.108 234.762 174.038 235.696C174.969 236.63 175.491 237.895 175.491 239.214V251.846C175.491 252.612 175.187 253.348 174.644 253.89C174.102 254.433 173.367 254.737 172.6 254.737H152.377Z" fill="#A2A2A2"/>
<path d="M103.237 72.8126C103.099 72.8077 102.969 72.7494 102.873 72.65C102.777 72.5506 102.724 72.4179 102.724 72.2799V53.5224C102.724 53.455 102.737 53.3882 102.763 53.3259C102.789 53.2636 102.826 53.2069 102.874 53.1592C102.922 53.1115 102.978 53.0737 103.041 53.0479C103.103 53.0221 103.17 53.0088 103.237 53.0088C103.375 53.0087 103.508 53.0622 103.607 53.158C103.707 53.2538 103.765 53.3845 103.77 53.5224V72.2799C103.765 72.4197 103.708 72.5524 103.609 72.6513C103.51 72.7502 103.377 72.8078 103.237 72.8126Z" fill="#A2A2A2"/>
<path d="M103.237 86.6617C103.101 86.6617 102.97 86.6076 102.874 86.5112C102.778 86.4149 102.724 86.2843 102.724 86.148V71.709C102.724 71.5727 102.778 71.4421 102.874 71.3458C102.97 71.2494 103.101 71.1953 103.237 71.1953C103.375 71.1952 103.508 71.2487 103.607 71.3445C103.707 71.4404 103.765 71.571 103.77 71.709V86.148C103.765 86.286 103.707 86.4166 103.607 86.5125C103.508 86.6083 103.375 86.6618 103.237 86.6617Z" fill="#A2A2A2"/>
<path d="M171.972 71.8424C171.834 71.8374 171.703 71.7792 171.607 71.6798C171.511 71.5804 171.458 71.4477 171.458 71.3097V53.5224C171.458 53.3862 171.512 53.2556 171.608 53.1592C171.705 53.0629 171.835 53.0088 171.972 53.0088C172.108 53.0088 172.238 53.0629 172.335 53.1592C172.431 53.2556 172.485 53.3862 172.485 53.5224V71.3097C172.485 71.4477 172.432 71.5804 172.336 71.6798C172.24 71.7792 172.11 71.8374 171.972 71.8424Z" fill="#A2A2A2"/>
<path d="M171.972 86.6617C171.835 86.6617 171.705 86.6076 171.608 86.5112C171.512 86.4149 171.458 86.2843 171.458 86.148V71.709C171.458 71.6415 171.471 71.5747 171.497 71.5124C171.523 71.4501 171.561 71.3935 171.608 71.3458C171.656 71.2981 171.713 71.2602 171.775 71.2344C171.837 71.2086 171.904 71.1953 171.972 71.1953C172.039 71.1953 172.106 71.2086 172.168 71.2344C172.23 71.2602 172.287 71.2981 172.335 71.3458C172.382 71.3935 172.42 71.4501 172.446 71.5124C172.472 71.5747 172.485 71.6415 172.485 71.709V86.148C172.485 86.2843 172.431 86.4149 172.335 86.5112C172.238 86.6076 172.108 86.6617 171.972 86.6617Z" fill="#A2A2A2"/>
<path d="M103.238 287.306C103.169 287.306 103.1 287.292 103.037 287.265C102.973 287.238 102.916 287.199 102.868 287.149C102.82 287.099 102.782 287.041 102.757 286.976C102.733 286.911 102.721 286.843 102.724 286.774V268.054C102.724 267.916 102.777 267.783 102.873 267.684C102.969 267.585 103.1 267.526 103.238 267.521C103.377 267.526 103.51 267.584 103.609 267.683C103.708 267.782 103.766 267.914 103.77 268.054V286.812C103.77 286.953 103.714 287.088 103.614 287.188C103.514 287.288 103.379 287.344 103.238 287.344" fill="#A2A2A2"/>
<path d="M103.237 269.119C103.099 269.114 102.969 269.056 102.873 268.957C102.777 268.857 102.724 268.725 102.724 268.587V254.166C102.724 254.028 102.777 253.896 102.873 253.796C102.969 253.697 103.099 253.639 103.237 253.634C103.377 253.639 103.51 253.696 103.609 253.795C103.708 253.894 103.765 254.027 103.77 254.166V268.587C103.765 268.726 103.708 268.859 103.609 268.958C103.51 269.057 103.377 269.114 103.237 269.119Z" fill="#A2A2A2"/>
<path d="M171.972 287.306C171.903 287.306 171.835 287.293 171.771 287.266C171.707 287.239 171.65 287.199 171.602 287.149C171.554 287.1 171.516 287.041 171.492 286.976C171.467 286.912 171.456 286.843 171.458 286.774V266.704C171.458 266.636 171.472 266.569 171.497 266.507C171.523 266.445 171.561 266.388 171.609 266.34C171.656 266.293 171.713 266.255 171.775 266.229C171.838 266.203 171.904 266.19 171.972 266.19C172.039 266.19 172.106 266.203 172.169 266.229C172.231 266.255 172.287 266.293 172.335 266.34C172.383 266.388 172.421 266.445 172.446 266.507C172.472 266.569 172.486 266.636 172.486 266.704V286.774C172.488 286.843 172.477 286.912 172.452 286.976C172.427 287.041 172.39 287.1 172.342 287.149C172.294 287.199 172.237 287.239 172.173 287.266C172.109 287.293 172.041 287.306 171.972 287.306Z" fill="#A2A2A2"/>
<path d="M171.972 269.119C171.834 269.114 171.703 269.056 171.607 268.957C171.511 268.857 171.458 268.725 171.458 268.587V254.166C171.458 254.099 171.471 254.032 171.497 253.97C171.523 253.908 171.561 253.851 171.608 253.803C171.656 253.756 171.713 253.718 171.775 253.692C171.837 253.666 171.904 253.653 171.972 253.653C172.039 253.653 172.106 253.666 172.168 253.692C172.23 253.718 172.287 253.756 172.335 253.803C172.382 253.851 172.42 253.908 172.446 253.97C172.472 254.032 172.485 254.099 172.485 254.166V268.587C172.485 268.725 172.432 268.857 172.336 268.957C172.24 269.056 172.11 269.114 171.972 269.119Z" fill="#A2A2A2"/>
<path d="M103.181 42.9262C103.095 42.9262 103.013 42.8922 102.952 42.8315C102.892 42.7709 102.857 42.6886 102.857 42.6028V3.92741C102.857 3.84163 102.892 3.75937 102.952 3.69872C103.013 3.63807 103.095 3.604 103.181 3.604C103.267 3.604 103.349 3.63807 103.41 3.69872C103.47 3.75937 103.504 3.84163 103.504 3.92741V42.6028C103.504 42.6886 103.47 42.7709 103.41 42.8315C103.349 42.8922 103.267 42.9262 103.181 42.9262Z" fill="#A2A2A2"/>
<path d="M171.818 42.9259C171.733 42.9259 171.651 42.8918 171.59 42.8312C171.529 42.7705 171.495 42.6883 171.495 42.6025V3.92706C171.495 3.84129 171.529 3.75903 171.59 3.69838C171.651 3.63773 171.733 3.60366 171.818 3.60366C171.862 3.60087 171.905 3.60731 171.946 3.62258C171.986 3.63784 172.023 3.66157 172.053 3.69218C172.084 3.72278 172.108 3.75957 172.123 3.80007C172.138 3.84058 172.145 3.88387 172.142 3.92706V42.6025C172.145 42.6457 172.138 42.689 172.123 42.7295C172.108 42.77 172.084 42.8068 172.053 42.8374C172.023 42.868 171.986 42.8917 171.946 42.907C171.905 42.9222 171.862 42.9287 171.818 42.9259Z" fill="#A2A2A2"/>
<path d="M137.331 265.904C137.247 265.899 137.167 265.864 137.108 265.804C137.048 265.745 137.012 265.665 137.008 265.581V200.481C137.008 200.395 137.042 200.313 137.103 200.252C137.163 200.192 137.245 200.158 137.331 200.158C137.417 200.158 137.499 200.192 137.56 200.252C137.621 200.313 137.655 200.395 137.655 200.481V265.581C137.65 265.665 137.615 265.745 137.555 265.804C137.495 265.864 137.415 265.899 137.331 265.904ZM137.331 269.709C137.244 269.704 137.161 269.666 137.101 269.602C137.041 269.538 137.008 269.454 137.008 269.366V268.073C137.008 267.987 137.042 267.905 137.103 267.844C137.163 267.783 137.245 267.749 137.331 267.749C137.417 267.749 137.499 267.783 137.56 267.844C137.621 267.905 137.655 267.987 137.655 268.073V269.366C137.655 269.454 137.621 269.538 137.561 269.602C137.501 269.666 137.419 269.704 137.331 269.709ZM137.331 291.986C137.247 291.981 137.167 291.946 137.108 291.886C137.048 291.826 137.012 291.747 137.008 291.662V272.068C137.008 272.025 137.016 271.983 137.032 271.944C137.049 271.905 137.072 271.869 137.103 271.839C137.133 271.809 137.168 271.785 137.207 271.769C137.247 271.753 137.289 271.744 137.331 271.744C137.374 271.744 137.416 271.753 137.455 271.769C137.494 271.785 137.53 271.809 137.56 271.839C137.59 271.869 137.614 271.905 137.63 271.944C137.646 271.983 137.655 272.025 137.655 272.068V291.757C137.65 291.842 137.615 291.921 137.555 291.981C137.495 292.041 137.415 292.076 137.331 292.081" fill="#A2A2A2"/>
<path d="M238.118 300.585H153.709C153.623 300.585 153.541 300.551 153.48 300.49C153.42 300.429 153.386 300.347 153.386 300.261C153.386 300.176 153.42 300.093 153.48 300.033C153.541 299.972 153.623 299.938 153.709 299.938H238.118C238.204 299.938 238.286 299.972 238.346 300.033C238.407 300.093 238.441 300.176 238.441 300.261C238.441 300.347 238.407 300.429 238.346 300.49C238.286 300.551 238.204 300.585 238.118 300.585Z" fill="#A2A2A2"/>
<path d="M238.272 40.1483H148.423C148.332 40.1483 148.245 40.1122 148.18 40.048C148.116 39.9837 148.08 39.8966 148.08 39.8058C148.085 39.7183 148.123 39.6361 148.187 39.5759C148.251 39.5157 148.335 39.4823 148.423 39.4824H238.272C238.356 39.487 238.436 39.5225 238.496 39.5822C238.555 39.6419 238.591 39.7215 238.595 39.8058C238.596 39.8934 238.562 39.9778 238.502 40.0415C238.442 40.1052 238.36 40.1434 238.272 40.1483Z" fill="#A2A2A2"/>
<path d="M233.457 159.618C233.373 159.614 233.293 159.578 233.234 159.518C233.174 159.459 233.138 159.379 233.134 159.295V46.3503C233.138 46.266 233.174 46.1863 233.234 46.1266C233.293 46.067 233.373 46.0314 233.457 46.0269C233.545 46.0267 233.629 46.0602 233.693 46.1203C233.757 46.1805 233.795 46.2628 233.8 46.3503V159.257C233.795 159.344 233.757 159.426 233.693 159.487C233.629 159.547 233.545 159.58 233.457 159.58" fill="#A2A2A2"/>
<path d="M235.151 51.6391L233.439 39.9395L231.688 51.6391H235.151Z" fill="#A2A2A2"/>
<path d="M233.402 294.155C233.314 294.15 233.232 294.112 233.172 294.048C233.111 293.984 233.078 293.9 233.078 293.812V181.191C233.078 181.105 233.112 181.023 233.173 180.963C233.234 180.902 233.316 180.868 233.402 180.868C233.445 180.865 233.488 180.871 233.529 180.887C233.569 180.902 233.606 180.926 233.637 180.956C233.667 180.987 233.691 181.024 233.706 181.064C233.721 181.105 233.728 181.148 233.725 181.191V293.812C233.728 293.856 233.721 293.9 233.706 293.942C233.691 293.983 233.668 294.021 233.637 294.053C233.607 294.085 233.57 294.111 233.53 294.128C233.489 294.146 233.446 294.155 233.402 294.155Z" fill="#A2A2A2"/>
<path d="M231.688 288.543L233.42 300.243L235.17 288.543H231.688Z" fill="#A2A2A2"/>
<path d="M35.7251 105.895H1.48221C1.39644 105.895 1.31418 105.861 1.25353 105.8C1.19288 105.74 1.15884 105.657 1.15884 105.572C1.15604 105.528 1.1625 105.485 1.17776 105.445C1.19303 105.404 1.21671 105.367 1.24732 105.337C1.27792 105.306 1.31474 105.282 1.35524 105.267C1.39575 105.252 1.43902 105.245 1.48221 105.248H35.7251C35.8094 105.253 35.889 105.288 35.9487 105.348C36.0084 105.408 36.044 105.487 36.0485 105.572C36.0485 105.614 36.0402 105.656 36.0239 105.695C36.0077 105.735 35.9838 105.77 35.9538 105.8C35.9237 105.83 35.8881 105.854 35.8489 105.87C35.8096 105.887 35.7676 105.895 35.7251 105.895Z" fill="#A2A2A2"/>
<path d="M35.7251 234.838H1.48221C1.43902 234.841 1.39575 234.835 1.35524 234.819C1.31474 234.804 1.27792 234.78 1.24732 234.75C1.21671 234.719 1.19303 234.682 1.17776 234.642C1.1625 234.601 1.15604 234.558 1.15884 234.515C1.15884 234.429 1.19288 234.347 1.25353 234.286C1.31418 234.225 1.39644 234.191 1.48221 234.191H35.7251C35.8094 234.196 35.889 234.232 35.9487 234.291C36.0084 234.351 36.044 234.431 36.0485 234.515C36.0485 234.557 36.0402 234.599 36.0239 234.639C36.0077 234.678 35.9838 234.713 35.9538 234.743C35.9237 234.774 35.8881 234.797 35.8489 234.814C35.8096 234.83 35.7676 234.838 35.7251 234.838Z" fill="#A2A2A2"/>
<path d="M5.24921 228.294C5.16344 228.294 5.08118 228.26 5.02053 228.199C4.95988 228.139 4.92578 228.057 4.92578 227.971V181.762C4.93035 181.678 4.96589 181.598 5.02558 181.538C5.08527 181.479 5.16492 181.443 5.24921 181.438C5.33498 181.438 5.41724 181.473 5.47789 181.533C5.53854 181.594 5.57258 181.676 5.57258 181.762V227.971C5.57538 228.014 5.56898 228.057 5.55372 228.098C5.53845 228.138 5.51471 228.175 5.48411 228.206C5.4535 228.236 5.41668 228.26 5.37618 228.275C5.33568 228.291 5.29241 228.297 5.24921 228.294Z" fill="#A2A2A2"/>
<path d="M3.53613 222.701L5.26731 234.401L6.99848 222.701H3.53613Z" fill="#A2A2A2"/>
<path d="M5.30488 160.15C5.22059 160.146 5.14093 160.11 5.08124 160.051C5.02155 159.991 4.98601 159.911 4.98145 159.827V112.058C4.98601 111.974 5.02155 111.894 5.08124 111.835C5.14093 111.775 5.22059 111.739 5.30488 111.735C5.39065 111.735 5.47291 111.769 5.53356 111.83C5.59421 111.89 5.62825 111.972 5.62825 112.058V159.884C5.62825 159.97 5.59421 160.052 5.53356 160.113C5.47291 160.173 5.39065 160.208 5.30488 160.208" fill="#A2A2A2"/>
<path d="M6.99848 117.29L5.28635 105.59L3.53613 117.29H6.99848Z" fill="#A2A2A2"/>
<path d="M168.206 137.494H115.301C115.217 137.489 115.137 137.454 115.077 137.394C115.018 137.334 114.982 137.255 114.978 137.17C114.978 137.084 115.012 137.002 115.072 136.942C115.133 136.881 115.215 136.847 115.301 136.847H168.206C168.249 136.844 168.293 136.85 168.333 136.866C168.374 136.881 168.411 136.905 168.441 136.935C168.472 136.966 168.495 137.003 168.511 137.043C168.526 137.084 168.532 137.127 168.53 137.17C168.53 137.213 168.521 137.255 168.505 137.294C168.489 137.333 168.465 137.369 168.435 137.399C168.405 137.429 168.369 137.453 168.33 137.469C168.291 137.485 168.249 137.494 168.206 137.494Z" fill="#A2A2A2"/>
<path d="M162.92 138.863L174.62 137.151L162.92 135.401V138.863Z" fill="#A2A2A2"/>
<path d="M99.9113 137.436H44.59C44.5025 137.431 44.4202 137.393 44.3601 137.33C44.2999 137.266 44.2665 137.182 44.2666 137.094C44.2712 137.01 44.3067 136.93 44.3663 136.87C44.426 136.811 44.5057 136.775 44.59 136.771H99.9113C99.9956 136.775 100.075 136.811 100.135 136.87C100.195 136.93 100.23 137.01 100.235 137.094C100.235 137.182 100.201 137.266 100.141 137.33C100.081 137.393 99.9988 137.431 99.9113 137.436Z" fill="#A2A2A2"/>
<path d="M49.8603 135.401L38.1797 137.113L49.8603 138.863V135.401Z" fill="#A2A2A2"/>
<path d="M79.5382 204.8H44.6486C44.5643 204.795 44.4847 204.76 44.425 204.7C44.3653 204.64 44.3298 204.561 44.3252 204.476C44.3252 204.434 44.3336 204.392 44.3498 204.353C44.3661 204.313 44.3899 204.278 44.4199 204.248C44.4499 204.218 44.4856 204.194 44.5248 204.178C44.564 204.161 44.6061 204.153 44.6486 204.153H79.5382C79.5814 204.15 79.6248 204.157 79.6653 204.172C79.7058 204.187 79.7425 204.211 79.7731 204.241C79.8038 204.272 79.8275 204.309 79.8428 204.349C79.858 204.39 79.8645 204.433 79.8617 204.476C79.8617 204.562 79.8276 204.644 79.7669 204.705C79.7063 204.766 79.624 204.8 79.5382 204.8Z" fill="#A2A2A2"/>
<path d="M49.9164 202.764L38.2168 204.495L49.9164 206.227V202.764Z" fill="#A2A2A2"/>
<path d="M130.652 204.857H97.5891C97.5033 204.857 97.421 204.823 97.3604 204.762C97.2997 204.701 97.2656 204.619 97.2656 204.533C97.2656 204.448 97.2997 204.365 97.3604 204.305C97.421 204.244 97.5033 204.21 97.5891 204.21H130.652C130.738 204.21 130.82 204.244 130.881 204.305C130.942 204.365 130.976 204.448 130.976 204.533C130.976 204.619 130.942 204.701 130.881 204.762C130.82 204.823 130.738 204.857 130.652 204.857Z" fill="#A2A2A2"/>
<path d="M125.366 206.227L137.066 204.514L125.366 202.764V206.227Z" fill="#A2A2A2"/>
<path d="M127.935 8.28402H109.824C109.739 8.28402 109.656 8.24994 109.596 8.18929C109.535 8.12864 109.501 8.04638 109.501 7.96061C109.501 7.87484 109.535 7.79258 109.596 7.73193C109.656 7.67128 109.739 7.63721 109.824 7.63721H127.935C128.021 7.63721 128.103 7.67128 128.164 7.73193C128.224 7.79258 128.258 7.87484 128.258 7.96061C128.258 8.04638 128.224 8.12864 128.164 8.18929C128.103 8.24994 128.021 8.28402 127.935 8.28402Z" fill="#A2A2A2"/>
<path d="M115.092 6.24854L103.393 7.9797L115.092 9.72989V6.24854Z" fill="#A2A2A2"/>
<path d="M165.106 8.34066H147.014C146.971 8.34345 146.928 8.337 146.887 8.32174C146.847 8.30648 146.81 8.28275 146.78 8.25214C146.749 8.22154 146.725 8.18475 146.71 8.14425C146.695 8.10374 146.688 8.06045 146.691 8.01726C146.691 7.93148 146.725 7.84922 146.786 7.78857C146.846 7.72792 146.929 7.69385 147.014 7.69385H165.106C165.194 7.69371 165.278 7.72717 165.342 7.78733C165.405 7.84748 165.444 7.92978 165.449 8.01726C165.449 8.06138 165.44 8.10504 165.422 8.14558C165.405 8.18611 165.379 8.22264 165.347 8.25294C165.315 8.28323 165.277 8.30664 165.236 8.32172C165.194 8.33681 165.15 8.34325 165.106 8.34066Z" fill="#A2A2A2"/>
<path d="M159.836 9.71087L171.536 7.99873L159.836 6.24854V9.71087Z" fill="#A2A2A2"/>
<path d="M116.598 49.0897C116.514 49.0851 116.434 49.0495 116.374 48.9899C116.315 48.9302 116.279 48.8505 116.274 48.7662V39.4446C116.274 39.3588 116.309 39.2765 116.369 39.2159C116.43 39.1552 116.512 39.1212 116.598 39.1212C116.642 39.1186 116.686 39.125 116.727 39.1401C116.769 39.1552 116.807 39.1786 116.839 39.2089C116.871 39.2392 116.897 39.2757 116.914 39.3162C116.931 39.3568 116.94 39.4005 116.94 39.4446V48.7662C116.935 48.8537 116.897 48.936 116.833 48.9962C116.77 49.0563 116.685 49.0898 116.598 49.0897ZM116.598 52.9895C116.514 52.985 116.434 52.9494 116.374 52.8897C116.315 52.83 116.279 52.7504 116.274 52.6661V51.3535C116.279 51.2692 116.315 51.1896 116.374 51.1299C116.434 51.0702 116.514 51.0346 116.598 51.0301C116.685 51.0299 116.77 51.0634 116.833 51.1236C116.897 51.1837 116.935 51.266 116.94 51.3535V52.6661C116.935 52.7536 116.897 52.8359 116.833 52.8961C116.77 52.9562 116.685 52.9897 116.598 52.9895ZM116.598 63.5668C116.512 63.5668 116.43 63.5327 116.369 63.472C116.309 63.4114 116.274 63.3291 116.274 63.2434V55.2534C116.279 55.1691 116.315 55.0895 116.374 55.0298C116.434 54.9701 116.514 54.9345 116.598 54.93C116.685 54.9298 116.77 54.9633 116.833 55.0234C116.897 55.0836 116.935 55.1659 116.94 55.2534V63.2434C116.94 63.2875 116.931 63.3312 116.914 63.3717C116.897 63.4122 116.871 63.4488 116.839 63.4791C116.807 63.5094 116.769 63.5328 116.727 63.5478C116.686 63.5629 116.642 63.5694 116.598 63.5668Z" fill="#A2A2A2"/>
<path d="M63.673 242.885C63.5872 242.885 63.5049 242.851 63.4443 242.791C63.3836 242.73 63.3496 242.648 63.3496 242.562V231.547C63.3496 231.461 63.3836 231.379 63.4443 231.318C63.5049 231.258 63.5872 231.224 63.673 231.224C63.717 231.221 63.7612 231.228 63.8026 231.243C63.8441 231.258 63.882 231.281 63.9141 231.311C63.9462 231.342 63.9717 231.378 63.9891 231.419C64.0065 231.459 64.0155 231.503 64.0154 231.547V242.562C64.0155 242.606 64.0065 242.65 63.9891 242.69C63.9717 242.731 63.9462 242.767 63.9141 242.798C63.882 242.828 63.8441 242.851 63.8026 242.866C63.7612 242.881 63.717 242.888 63.673 242.885ZM63.673 246.69C63.5887 246.686 63.5091 246.65 63.4494 246.59C63.3897 246.531 63.3542 246.451 63.3496 246.367V245.225C63.3496 245.139 63.3836 245.057 63.4443 244.997C63.5049 244.936 63.5872 244.902 63.673 244.902C63.717 244.899 63.7612 244.906 63.8026 244.921C63.8441 244.936 63.882 244.959 63.9141 244.99C63.9462 245.02 63.9717 245.056 63.9891 245.097C64.0065 245.137 64.0155 245.181 64.0154 245.225V246.519C64.0105 246.606 63.9723 246.689 63.9086 246.749C63.8449 246.809 63.7606 246.842 63.673 246.842V246.69ZM63.673 261.357C63.5872 261.357 63.5049 261.323 63.4443 261.263C63.3836 261.202 63.3496 261.12 63.3496 261.034V249.03C63.3495 248.942 63.3829 248.858 63.4431 248.794C63.5032 248.731 63.5855 248.692 63.673 248.688C63.7638 248.688 63.8509 248.724 63.9151 248.788C63.9794 248.852 64.0154 248.939 64.0154 249.03V260.939C64.0155 260.983 64.0065 261.027 63.9891 261.067C63.9717 261.108 63.9462 261.144 63.9141 261.175C63.882 261.205 63.8441 261.228 63.8026 261.243C63.7612 261.258 63.717 261.265 63.673 261.262" fill="#A2A2A2"/>
<path d="M77.4279 83.789C77.3422 83.789 77.2599 83.755 77.1992 83.6943C77.1386 83.6337 77.1045 83.5514 77.1045 83.4656V44.7902C77.1045 44.7044 77.1386 44.6222 77.1992 44.5615C77.2599 44.5009 77.3422 44.4668 77.4279 44.4668C77.5137 44.4668 77.596 44.5009 77.6566 44.5615C77.7173 44.6222 77.7513 44.7044 77.7513 44.7902V83.5227C77.7513 83.6085 77.7173 83.6907 77.6566 83.7514C77.596 83.812 77.5137 83.8461 77.4279 83.8461" fill="#A2A2A2"/>
<path d="M97.2101 49.1468H84.0266C83.9408 49.1468 83.8585 49.1127 83.7979 49.0521C83.7372 48.9914 83.7031 48.9092 83.7031 48.8234C83.7031 48.7376 83.7372 48.6554 83.7979 48.5947C83.8585 48.5341 83.9408 48.5 84.0266 48.5H97.2101C97.2958 48.5 97.3781 48.5341 97.4387 48.5947C97.4994 48.6554 97.5335 48.7376 97.5335 48.8234C97.5335 48.9092 97.4994 48.9914 97.4387 49.0521C97.3781 49.1127 97.2958 49.1468 97.2101 49.1468Z" fill="#A2A2A2"/>
<path d="M89.3354 47.1113L77.6357 48.8425L89.3354 50.5737V47.1113Z" fill="#A2A2A2"/>
<path d="M50.6427 83.789C50.5569 83.789 50.4747 83.755 50.414 83.6943C50.3534 83.6337 50.3193 83.5514 50.3193 83.4656V44.7902C50.3193 44.7044 50.3534 44.6222 50.414 44.5615C50.4747 44.5009 50.5569 44.4668 50.6427 44.4668C50.7285 44.4668 50.8107 44.5009 50.8714 44.5615C50.932 44.6222 50.9661 44.7044 50.9661 44.7902V83.5227C50.9661 83.6085 50.932 83.6907 50.8714 83.7514C50.8107 83.812 50.7285 83.8461 50.6427 83.8461" fill="#A2A2A2"/>
<path d="M43.9444 49.2801H30.2472C30.1614 49.2801 30.0792 49.246 30.0185 49.1854C29.9579 49.1247 29.9238 49.0425 29.9238 48.9567C29.9284 48.8724 29.9639 48.7928 30.0236 48.7331C30.0833 48.6734 30.1629 48.6379 30.2472 48.6333H43.9444C44.0287 48.6379 44.1083 48.6734 44.168 48.7331C44.2277 48.7928 44.2632 48.8724 44.2678 48.9567C44.2678 49.0425 44.2337 49.1247 44.1731 49.1854C44.1124 49.246 44.0301 49.2801 43.9444 49.2801Z" fill="#A2A2A2"/>
<path d="M38.6367 50.5737L50.3364 48.8615L38.6367 47.1113V50.5737Z" fill="#A2A2A2"/>
<path d="M63.6134 39.1592C63.5259 39.1543 63.4437 39.1161 63.3835 39.0524C63.3234 38.9887 63.2899 38.9044 63.29 38.8168V3.92706C63.29 3.84129 63.3241 3.75903 63.3847 3.69838C63.4454 3.63773 63.5276 3.60366 63.6134 3.60366C63.6566 3.60087 63.6999 3.60731 63.7404 3.62258C63.7809 3.63784 63.8177 3.66157 63.8483 3.69218C63.8789 3.72278 63.9027 3.75957 63.9179 3.80007C63.9332 3.84058 63.9396 3.88387 63.9368 3.92706V38.8168C63.9394 38.8608 63.933 38.9049 63.9179 38.9464C63.9028 38.9878 63.8794 39.0258 63.8491 39.0578C63.8188 39.0899 63.7822 39.1154 63.7417 39.1329C63.7012 39.1503 63.6575 39.1593 63.6134 39.1592Z" fill="#A2A2A2"/>
<path d="M37.8566 85.4255C37.7723 85.4209 37.6927 85.3854 37.633 85.3257C37.5733 85.266 37.5378 85.1864 37.5332 85.1021V3.92741C37.5332 3.84163 37.5672 3.75937 37.6279 3.69872C37.6885 3.63807 37.7708 3.604 37.8566 3.604C37.9423 3.604 38.0246 3.63807 38.0853 3.69872C38.1459 3.75937 38.18 3.84163 38.18 3.92741V85.045C38.1754 85.1293 38.1399 85.2089 38.0802 85.2686C38.0205 85.3283 37.9409 85.3638 37.8566 85.3684" fill="#A2A2A2"/>
<path d="M83.363 8.24593H70.1795C70.1363 8.24873 70.093 8.24228 70.0525 8.22701C70.012 8.21175 69.9752 8.18802 69.9446 8.15742C69.914 8.12681 69.8903 8.09003 69.875 8.04952C69.8598 8.00902 69.8533 7.96572 69.8561 7.92252C69.8561 7.88005 69.8645 7.838 69.8807 7.79876C69.897 7.75952 69.9208 7.72388 69.9509 7.69385C69.9809 7.66382 70.0165 7.63999 70.0558 7.62374C70.095 7.60748 70.1371 7.59912 70.1795 7.59912H83.363C83.4473 7.60369 83.527 7.63922 83.5867 7.69891C83.6464 7.7586 83.6819 7.83823 83.6865 7.92252C83.6865 7.96499 83.678 8.00705 83.6618 8.04629C83.6455 8.08553 83.6217 8.12117 83.5917 8.15121C83.5617 8.18124 83.526 8.20506 83.4868 8.22132C83.4476 8.23757 83.4055 8.24593 83.363 8.24593Z" fill="#A2A2A2"/>
<path d="M75.4277 6.229L63.7471 7.94115L75.4467 9.69134L75.4277 6.229Z" fill="#A2A2A2"/>
<path d="M31.4451 8.24593H18.2616C18.2184 8.24873 18.1751 8.24228 18.1346 8.22701C18.0941 8.21175 18.0573 8.18802 18.0267 8.15742C17.9961 8.12681 17.9723 8.09003 17.9571 8.04952C17.9418 8.00902 17.9353 7.96572 17.9381 7.92252C17.9381 7.83675 17.9722 7.7545 18.0329 7.69385C18.0935 7.6332 18.1758 7.59912 18.2616 7.59912H31.4451C31.5293 7.60369 31.609 7.63922 31.6687 7.69891C31.7284 7.7586 31.7639 7.83823 31.7685 7.92252C31.7685 7.96499 31.7601 8.00705 31.7439 8.04629C31.7276 8.08553 31.7038 8.12117 31.6737 8.15121C31.6437 8.18124 31.6081 8.20506 31.5688 8.22132C31.5296 8.23757 31.4875 8.24593 31.4451 8.24593Z" fill="#A2A2A2"/>
<path d="M26.1562 6.229L37.8559 7.94115L26.1562 9.69134V6.229Z" fill="#A2A2A2"/>
<path d="M233.744 164.469V174.533H235.533C236.099 174.569 236.666 174.479 237.192 174.269C237.719 174.058 238.192 173.732 238.576 173.315C239.365 172.34 239.759 171.104 239.68 169.853V169.13C239.752 167.906 239.38 166.697 238.634 165.725C238.272 165.314 237.823 164.989 237.319 164.775C236.815 164.561 236.27 164.463 235.723 164.488L233.744 164.469ZM232.07 175.883V163.042H235.685C236.722 163.021 237.747 163.277 238.652 163.784C239.48 164.287 240.141 165.021 240.555 165.896C241.039 166.871 241.286 167.946 241.278 169.035V169.853C241.297 170.959 241.056 172.053 240.574 173.049C240.119 173.927 239.418 174.654 238.557 175.141C237.63 175.644 236.588 175.9 235.533 175.883H232.07Z" fill="#A2A2A2"/>
<path d="M105.524 137.436V142.059H108.321C109.012 142.105 109.695 141.88 110.223 141.431C110.453 141.219 110.634 140.96 110.752 140.67C110.87 140.381 110.924 140.069 110.908 139.757C110.908 138.197 110.052 137.436 108.378 137.436H105.524ZM105.524 136.066H108.073C108.716 136.103 109.351 135.907 109.862 135.515C110.078 135.33 110.25 135.099 110.365 134.839C110.48 134.579 110.536 134.296 110.527 134.012C110.557 133.723 110.515 133.432 110.406 133.163C110.296 132.894 110.123 132.657 109.9 132.471C109.339 132.098 108.669 131.923 107.997 131.976H105.505L105.524 136.066ZM103.831 143.429V130.607H108.016C109.136 130.524 110.25 130.826 111.174 131.463C111.534 131.777 111.817 132.171 111.998 132.614C112.18 133.056 112.256 133.535 112.221 134.012C112.232 134.587 112.051 135.149 111.707 135.61C111.349 136.084 110.869 136.452 110.318 136.675C110.974 136.856 111.55 137.251 111.954 137.798C112.359 138.349 112.573 139.017 112.563 139.7C112.587 140.205 112.499 140.71 112.305 141.177C112.111 141.644 111.816 142.062 111.441 142.401C110.55 143.116 109.422 143.469 108.283 143.391L103.831 143.429Z" fill="#A2A2A2"/>
<path d="M142.524 10.3191C142.447 11.5202 141.909 12.645 141.021 13.4581C140.076 14.234 138.875 14.6276 137.654 14.5615C136.964 14.584 136.277 14.4482 135.648 14.1647C135.018 13.8811 134.461 13.4572 134.02 12.9254C133.054 11.6856 132.568 10.1387 132.651 8.56894V7.42752C132.628 6.34176 132.842 5.26413 133.278 4.26956C133.688 3.40162 134.351 2.6785 135.181 2.19597C135.992 1.69815 136.931 1.44698 137.882 1.47306C139.085 1.41586 140.264 1.82469 141.173 2.61449C142.028 3.45134 142.537 4.57827 142.6 5.77245H140.907C140.845 4.94196 140.503 4.15709 139.937 3.54666C139.659 3.29733 139.334 3.10652 138.981 2.98558C138.628 2.86464 138.254 2.81607 137.882 2.84278C137.395 2.82061 136.909 2.91827 136.468 3.12721C136.027 3.33614 135.644 3.64999 135.352 4.04128C134.667 5.04644 134.339 6.25203 134.42 7.46557V8.70211C134.353 9.87637 134.659 11.0417 135.295 12.0313C135.561 12.4284 135.925 12.7505 136.351 12.967C136.778 13.1835 137.252 13.2871 137.73 13.2678C138.505 13.3225 139.273 13.1 139.899 12.64C140.484 12.0386 140.841 11.2511 140.907 10.4143L142.524 10.3191Z" fill="#A2A2A2"/>
<path d="M2.1861 172.687C2.13344 173.589 2.37371 174.483 2.87099 175.237C3.08282 175.539 3.36917 175.783 3.70241 175.943C4.03565 176.103 4.40452 176.174 4.77337 176.15C5.24605 176.17 5.71392 176.048 6.11719 175.801C6.52047 175.553 6.84082 175.191 7.03721 174.761V170.385C6.83642 169.965 6.51661 169.613 6.11754 169.373C5.71848 169.133 5.25774 169.015 4.79241 169.035C4.4238 169.012 4.05559 169.085 3.72267 169.244C3.38975 169.404 3.10315 169.646 2.89003 169.948C2.38162 170.767 2.14213 171.725 2.20514 172.687H2.1861ZM0.588106 172.516C0.52991 171.256 0.89119 170.011 1.61541 168.978C1.93549 168.579 2.33775 168.254 2.79476 168.025C3.25177 167.796 3.75277 167.668 4.2637 167.65C4.77462 167.632 5.28346 167.724 5.7555 167.92C6.22755 168.117 6.6517 168.412 6.99912 168.787V163.822H8.6352V177.367H7.13231V176.34C6.8037 176.738 6.38658 177.054 5.91423 177.262C5.44188 177.47 4.92741 177.565 4.41191 177.538C3.88625 177.547 3.3663 177.429 2.89607 177.193C2.42584 176.958 2.01915 176.613 1.7105 176.188C0.975484 175.151 0.607292 173.9 0.664217 172.63L0.588106 172.516Z" fill="#A2A2A2"/>
<path d="M89.0667 204.59C87.9071 204.317 86.8222 203.791 85.8897 203.049C85.5713 202.77 85.3179 202.424 85.147 202.036C84.9762 201.648 84.892 201.228 84.9005 200.804C84.893 200.32 84.9993 199.84 85.2108 199.404C85.4222 198.968 85.7329 198.588 86.118 198.293C87.0199 197.599 88.1392 197.249 89.2759 197.304C90.0854 197.289 90.887 197.465 91.6159 197.818C92.2787 198.122 92.84 198.611 93.2329 199.225C93.5989 199.793 93.7968 200.453 93.8036 201.128H92.0915C92.1225 200.775 92.0717 200.42 91.943 200.09C91.8143 199.76 91.6112 199.464 91.3496 199.225C90.7696 198.745 90.027 198.507 89.2759 198.56C88.5977 198.523 87.9271 198.718 87.3735 199.111C87.1477 199.294 86.9669 199.527 86.8449 199.791C86.7229 200.054 86.6629 200.343 86.6697 200.633C86.6704 200.892 86.7309 201.146 86.8464 201.377C86.9619 201.608 87.1293 201.809 87.3355 201.965C88.0207 202.435 88.7889 202.771 89.5993 202.954C90.4741 203.179 91.3176 203.511 92.1105 203.943C92.6499 204.256 93.1065 204.693 93.4421 205.218C93.7484 205.728 93.9004 206.316 93.8797 206.911C93.8949 207.397 93.7921 207.879 93.58 208.317C93.368 208.754 93.053 209.133 92.6622 209.422C91.7142 210.091 90.5676 210.42 89.4091 210.354C88.5578 210.359 87.7152 210.184 86.936 209.841C86.2276 209.553 85.6144 209.072 85.1668 208.452C84.7597 207.866 84.5468 207.168 84.558 206.455H86.2511C86.2276 206.817 86.2932 207.181 86.4425 207.512C86.5917 207.844 86.82 208.134 87.1072 208.357C87.7772 208.833 88.5886 209.067 89.4091 209.023C90.1336 209.073 90.8547 208.886 91.4637 208.49C91.6904 208.311 91.8733 208.082 91.9986 207.822C92.1238 207.562 92.1881 207.276 92.1866 206.987C92.1993 206.71 92.1455 206.435 92.0297 206.183C91.9138 205.932 91.7393 205.712 91.5208 205.541C90.7858 205.066 89.9752 204.718 89.1237 204.514" fill="#A2A2A2"/>
<path d="M69.0559 55.7668C68.6054 56.404 67.9766 56.8937 67.2486 57.1745C66.378 57.4941 65.4555 57.649 64.5282 57.6311C63.5452 57.6485 62.5768 57.3916 61.7317 56.8892C60.9109 56.3874 60.2508 55.6613 59.8293 54.7966C59.3757 53.8124 59.1419 52.7413 59.1444 51.6576V50.5352C59.0462 48.9198 59.5249 47.3219 60.4952 46.0266C60.9686 45.4916 61.5565 45.0701 62.2152 44.7934C62.8739 44.5168 63.5864 44.3921 64.2999 44.4286C65.4722 44.371 66.6263 44.7355 67.553 45.4559C68.4029 46.2076 68.9337 47.2555 69.0368 48.3855H67.3437C67.3174 48.0169 67.2178 47.6573 67.0508 47.3277C66.8838 46.998 66.6527 46.705 66.371 46.4659C66.0893 46.2267 65.7627 46.0461 65.4103 45.9348C65.058 45.8234 64.6869 45.7835 64.3189 45.8173C63.8221 45.7873 63.3257 45.8811 62.8741 46.0903C62.4226 46.2994 62.03 46.6175 61.7317 47.0158C61.0903 48.0522 60.7847 49.2615 60.8566 50.4782V51.5245C60.7882 52.751 61.1368 53.9646 61.8458 54.9678C62.1523 55.3811 62.5552 55.7134 63.0194 55.9355C63.4836 56.1576 63.995 56.263 64.5092 56.2424C65.0741 56.248 65.6371 56.1776 66.1833 56.0331C66.6316 55.9065 67.0384 55.6636 67.3627 55.3292V52.4376H64.395V51.0679H69.0368L69.0559 55.7668Z" fill="#A2A2A2"/>
<path d="M44.3806 7.5988V12.2216H47.1772C47.8653 12.2653 48.5446 12.0479 49.0795 11.6128C49.31 11.3974 49.4906 11.1343 49.6089 10.8419C49.7272 10.5495 49.7802 10.2348 49.7644 9.91971C49.7644 8.37878 48.9083 7.5988 47.2342 7.5988H44.3806ZM44.3806 6.24812H46.9298C47.5716 6.27504 48.203 6.08023 48.7181 5.69642C48.9335 5.50777 49.1035 5.27294 49.2155 5.00942C49.3275 4.74591 49.3786 4.46052 49.3649 4.17452C49.3862 3.88839 49.3425 3.60115 49.237 3.3343C49.1316 3.06745 48.9672 2.8279 48.7561 2.63359C48.1912 2.27086 47.5228 2.10376 46.8537 2.15799H44.3616L44.3806 6.24812ZM42.6875 13.6103V0.769252H46.8728C47.9922 0.686564 49.1063 0.988584 50.0307 1.62533C50.3891 1.94557 50.6695 2.34338 50.8508 2.78844C51.0321 3.23349 51.1095 3.71406 51.077 4.19354C51.0854 4.76222 50.9047 5.31759 50.5634 5.77252C50.212 6.25768 49.7305 6.63359 49.1746 6.85688C49.8318 7.02294 50.4104 7.41317 50.8107 7.96025C51.2092 8.51426 51.4223 9.18016 51.4194 9.86264C51.4436 10.3707 51.3557 10.8778 51.1617 11.348C50.9677 11.8182 50.6725 12.2399 50.297 12.583C49.4042 13.2944 48.2782 13.6472 47.1391 13.5723L42.6875 13.6103Z" fill="#A2A2A2"/>
<path d="M58.8212 18.6324C58.5666 19.0078 58.2006 19.2939 57.7749 19.4505C57.2649 19.6434 56.7219 19.7339 56.1769 19.7168C55.6095 19.7298 55.0497 19.5849 54.5598 19.2983C54.0848 19.0044 53.7024 18.5824 53.4565 18.0808C53.19 17.4821 53.0538 16.8336 53.057 16.1784V15.5316C53 14.589 53.2835 13.6573 53.856 12.9063C54.1264 12.5905 54.4666 12.3419 54.8495 12.1802C55.2325 12.0184 55.6478 11.9478 56.0627 11.9741C56.7486 11.9479 57.4219 12.1634 57.9651 12.5829C58.4609 13.0136 58.7682 13.6214 58.8212 14.276H57.851C57.8123 13.8449 57.6044 13.4468 57.2728 13.1687C56.9412 12.8906 56.513 12.7552 56.0818 12.7921C55.7943 12.7738 55.5067 12.8267 55.2445 12.9461C54.9823 13.0656 54.7537 13.248 54.5789 13.477C54.2028 14.0804 54.0171 14.7831 54.0462 15.4935V16.1213C54.0352 16.8021 54.2418 17.4686 54.636 18.0237C54.819 18.2617 55.0558 18.453 55.3269 18.5819C55.598 18.7109 55.8958 18.7738 56.1959 18.7656C56.5438 18.8532 56.9044 18.8789 57.2613 18.8417C57.5201 18.7697 57.756 18.6321 57.9461 18.4422V16.7491H56.215V15.9501H58.9163L58.8212 18.6324Z" fill="#A2A2A2"/>
</svg>
