<svg width="185" height="299" viewBox="0 0 185 299" fill="none" xmlns="http://www.w3.org/2000/svg">
<path d="M180.339 172.7C180.26 172.691 180.187 172.656 180.13 172.6C180.074 172.544 180.039 172.47 180.03 172.391V132.481C180.04 132.406 180.077 132.337 180.134 132.287C180.191 132.237 180.264 132.21 180.339 132.21C180.411 132.21 180.48 132.239 180.531 132.29C180.581 132.34 180.61 132.409 180.61 132.481V172.584C180.611 172.66 180.583 172.733 180.534 172.79C180.484 172.847 180.415 172.884 180.339 172.893" fill="#A2A2A2"/>
<path d="M180.339 109.3C180.26 109.291 180.186 109.256 180.13 109.2C180.074 109.144 180.039 109.07 180.03 108.991V68.6172C180.03 68.5352 180.063 68.4566 180.121 68.3986C180.179 68.3407 180.257 68.3081 180.339 68.3081C180.378 68.3077 180.417 68.3158 180.453 68.3317C180.488 68.3476 180.52 68.3711 180.546 68.4005C180.571 68.4298 180.59 68.4644 180.601 68.5018C180.612 68.5392 180.615 68.5786 180.61 68.6172V108.991C180.61 109.066 180.583 109.14 180.533 109.197C180.484 109.254 180.414 109.29 180.339 109.3Z" fill="#A2A2A2"/>
<path d="M178.831 73.2536H181.844L180.338 62.5518L178.831 73.2536Z" fill="#A2A2A2"/>
<path d="M178.831 167.098L180.338 177.8L181.844 167.098H178.831Z" fill="#A2A2A2"/>
<path d="M183.933 62.9383H152.793C152.754 62.9438 152.715 62.941 152.678 62.9299C152.64 62.9189 152.606 62.8998 152.576 62.8741C152.547 62.8484 152.523 62.8167 152.507 62.7811C152.491 62.7455 152.483 62.7068 152.484 62.6678C152.477 62.6257 152.481 62.5827 152.494 62.5422C152.507 62.5016 152.53 62.4648 152.56 62.4347C152.59 62.4046 152.627 62.382 152.667 62.3688C152.708 62.3556 152.751 62.3521 152.793 62.3587H183.933C183.972 62.3583 184.01 62.3664 184.046 62.3823C184.081 62.3983 184.113 62.4217 184.139 62.4511C184.165 62.4804 184.184 62.515 184.195 62.5524C184.206 62.5898 184.209 62.6292 184.203 62.6678C184.203 62.7395 184.174 62.8083 184.124 62.8591C184.073 62.9098 184.004 62.9383 183.933 62.9383Z" fill="#A2A2A2"/>
<path d="M183.703 178.379H152.795C152.757 178.385 152.718 178.382 152.68 178.371C152.643 178.36 152.608 178.341 152.579 178.315C152.549 178.29 152.526 178.258 152.51 178.222C152.494 178.187 152.486 178.148 152.486 178.109C152.486 178.027 152.519 177.948 152.577 177.89C152.635 177.832 152.714 177.8 152.795 177.8H183.703C183.779 177.809 183.848 177.846 183.897 177.903C183.947 177.96 183.974 178.033 183.974 178.109C183.974 178.144 183.967 178.18 183.953 178.212C183.94 178.245 183.92 178.275 183.895 178.3C183.87 178.325 183.84 178.345 183.807 178.359C183.774 178.372 183.739 178.379 183.703 178.379Z" fill="#A2A2A2"/>
<path d="M103.068 268.862H73.512C73.4301 268.862 73.3516 268.83 73.2937 268.772C73.2357 268.714 73.2031 268.635 73.2031 268.553C73.2126 268.478 73.2492 268.409 73.3062 268.359C73.3631 268.309 73.4363 268.282 73.512 268.283H103.068C103.143 268.282 103.217 268.309 103.274 268.359C103.331 268.409 103.367 268.478 103.377 268.553C103.377 268.635 103.344 268.714 103.286 268.772C103.228 268.83 103.15 268.862 103.068 268.862Z" fill="#A2A2A2"/>
<path d="M142.594 268.862H120.224C120.182 268.869 120.139 268.865 120.099 268.852C120.058 268.839 120.021 268.816 119.991 268.786C119.961 268.756 119.939 268.719 119.925 268.679C119.912 268.638 119.909 268.595 119.915 268.553C119.915 268.514 119.923 268.475 119.939 268.44C119.955 268.404 119.978 268.372 120.008 268.347C120.037 268.321 120.072 268.302 120.109 268.291C120.147 268.28 120.186 268.277 120.224 268.283H142.594C142.633 268.277 142.672 268.28 142.71 268.291C142.747 268.302 142.781 268.321 142.811 268.347C142.84 268.372 142.864 268.404 142.88 268.44C142.896 268.475 142.904 268.514 142.903 268.553C142.91 268.595 142.906 268.638 142.893 268.679C142.88 268.719 142.857 268.756 142.827 268.786C142.797 268.816 142.76 268.839 142.72 268.852C142.679 268.865 142.636 268.869 142.594 268.862Z" fill="#A2A2A2"/>
<path d="M71.4668 268.553L82.1687 270.253V266.854L71.4668 268.553Z" fill="#A2A2A2"/>
<path d="M139.463 270.253L150.165 268.553L139.463 266.854V270.253Z" fill="#A2A2A2"/>
<path d="M69.6528 239.152H12.4732C12.4346 239.157 12.3953 239.154 12.3579 239.143C12.3205 239.132 12.2859 239.113 12.2565 239.088C12.2272 239.062 12.2036 239.03 12.1877 238.995C12.1717 238.959 12.1637 238.92 12.1641 238.881C12.1641 238.841 12.1721 238.801 12.1877 238.763C12.2032 238.726 12.2259 238.691 12.2546 238.663C12.2833 238.634 12.3176 238.611 12.3551 238.596C12.3926 238.58 12.4326 238.572 12.4732 238.572H69.6528C69.7319 238.581 69.8057 238.616 69.8619 238.672C69.9182 238.728 69.9535 238.802 69.9619 238.881C69.9525 238.956 69.9158 239.025 69.8589 239.075C69.8019 239.125 69.7285 239.152 69.6528 239.152Z" fill="#A2A2A2"/>
<path d="M69.7653 1.89526H12.4696C12.4275 1.90187 12.3844 1.89844 12.3439 1.88524C12.3034 1.87204 12.2665 1.84946 12.2364 1.81933C12.2063 1.7892 12.1838 1.75238 12.1706 1.71186C12.1574 1.67135 12.1539 1.6283 12.1605 1.58621C12.1601 1.54719 12.1681 1.50854 12.184 1.47293C12.2 1.43732 12.2235 1.4056 12.2529 1.3799C12.2823 1.35421 12.3169 1.33518 12.3543 1.32411C12.3917 1.31303 12.431 1.31019 12.4696 1.31576H69.7653C69.841 1.31517 69.9142 1.34238 69.9712 1.39222C70.0281 1.44207 70.065 1.5111 70.0745 1.58621C70.0745 1.66818 70.0419 1.74678 69.9839 1.80474C69.9259 1.86271 69.8473 1.89526 69.7653 1.89526Z" fill="#A2A2A2"/>
<path d="M16.7974 233.55C16.7183 233.541 16.6445 233.506 16.5883 233.45C16.532 233.394 16.4967 233.32 16.4883 233.241V132.481C16.4977 132.406 16.5346 132.337 16.5916 132.287C16.6485 132.237 16.7217 132.21 16.7974 132.21C16.8691 132.21 16.9379 132.239 16.9886 132.29C17.0393 132.34 17.0679 132.409 17.0679 132.481V233.434C17.0685 233.51 17.0413 233.583 16.9915 233.64C16.9416 233.697 16.8725 233.734 16.7974 233.743" fill="#A2A2A2"/>
<path d="M16.7974 109.648C16.7183 109.64 16.6445 109.605 16.5883 109.549C16.532 109.492 16.4967 109.418 16.4883 109.339V7.65235C16.4967 7.57325 16.532 7.4994 16.5883 7.44316C16.6445 7.38691 16.7183 7.35166 16.7974 7.34326C16.8725 7.35272 16.9416 7.38943 16.9915 7.4464C17.0413 7.50337 17.0685 7.57665 17.0679 7.65235V109.301C17.0685 109.376 17.0413 109.45 16.9915 109.507C16.9416 109.564 16.8725 109.6 16.7974 109.61" fill="#A2A2A2"/>
<path d="M15.0996 228.18L16.7996 238.882L18.4995 228.18H15.0996Z" fill="#A2A2A2"/>
<path d="M15.0996 12.2883H18.4995L16.7996 1.58643L15.0996 12.2883Z" fill="#A2A2A2"/>
<path d="M150.592 273.421C150.513 273.413 150.439 273.378 150.383 273.322C150.327 273.265 150.292 273.191 150.283 273.112V240.389C150.283 240.307 150.316 240.228 150.374 240.17C150.432 240.112 150.51 240.08 150.592 240.08C150.674 240.08 150.753 240.112 150.811 240.17C150.869 240.228 150.901 240.307 150.901 240.389V273.112C150.893 273.191 150.858 273.265 150.802 273.322C150.745 273.378 150.671 273.413 150.592 273.421Z" fill="#A2A2A2"/>
<path d="M71.3912 273.421C71.3121 273.413 71.2383 273.378 71.182 273.322C71.1258 273.265 71.0904 273.191 71.082 273.112V240.389C71.082 240.348 71.0901 240.308 71.1056 240.27C71.1211 240.233 71.1439 240.199 71.1726 240.17C71.2013 240.141 71.2355 240.119 71.273 240.103C71.3105 240.088 71.3506 240.08 71.3912 240.08C71.4318 240.08 71.4721 240.088 71.5095 240.103C71.547 240.119 71.5811 240.141 71.6098 240.17C71.6385 240.199 71.6612 240.233 71.6767 240.27C71.6923 240.308 71.7003 240.348 71.7003 240.389V273.112C71.6919 273.191 71.6566 273.265 71.6003 273.322C71.5441 273.378 71.4703 273.413 71.3912 273.421Z" fill="#A2A2A2"/>
<path d="M109.022 198.74H113.465L116.208 212.417H111.031H105.854L109.022 198.74Z" fill="#434343"/>
<path d="M106.429 212.069H115.855L113.267 199.088H109.404L106.429 212.069ZM116.319 212.803H105.965C105.924 212.827 105.877 212.839 105.83 212.839C105.782 212.839 105.736 212.827 105.695 212.803C105.671 212.762 105.658 212.716 105.658 212.668C105.658 212.621 105.671 212.574 105.695 212.533L108.863 198.817C108.88 198.739 108.925 198.669 108.988 198.62C109.051 198.571 109.13 198.545 109.21 198.547H113.653C113.732 198.551 113.807 198.579 113.87 198.628C113.932 198.676 113.978 198.742 114.001 198.817L116.744 212.533C116.765 212.575 116.775 212.621 116.775 212.668C116.775 212.715 116.765 212.761 116.744 212.803C116.701 212.821 116.655 212.831 116.609 212.831C116.562 212.831 116.516 212.821 116.474 212.803" fill="#A2A2A2"/>
<path d="M109.022 41.8823H113.465L116.208 28.2056H111.031H105.854L109.022 41.8823Z" fill="#434343"/>
<path d="M109.29 41.5342H113.153L115.741 28.5529H106.431L109.29 41.5342ZM113.462 42.2296H109.019C108.939 42.2316 108.86 42.2058 108.797 42.1565C108.734 42.1072 108.689 42.0375 108.671 41.9592L105.503 28.1665C105.476 28.1195 105.462 28.0662 105.462 28.012C105.462 27.9577 105.476 27.9044 105.503 27.8574C105.546 27.8394 105.592 27.8301 105.639 27.8301C105.685 27.8301 105.731 27.8394 105.774 27.8574H116.128C116.181 27.8561 116.234 27.8669 116.282 27.889C116.33 27.9111 116.372 27.9439 116.406 27.9849C116.439 28.0259 116.463 28.074 116.475 28.1255C116.487 28.1771 116.487 28.2308 116.476 28.2824L113.733 41.9592C113.709 42.0343 113.663 42.1005 113.601 42.1488C113.539 42.1971 113.463 42.2253 113.385 42.2296" fill="#A2A2A2"/>
<path d="M108.866 199.668C108.943 199.345 108.899 199.006 108.742 198.714C108.585 198.422 108.327 198.198 108.015 198.084H108.363C99.6679 194.793 90.5732 192.676 81.3189 191.786C80.9888 191.749 80.6566 191.835 80.3858 192.028C80.115 192.22 79.9246 192.505 79.8508 192.829L73.708 219.487C73.6309 219.81 73.6748 220.149 73.8315 220.441C73.9882 220.733 74.2467 220.957 74.5578 221.071H74.1329C82.9358 224.41 92.15 226.541 101.525 227.408H101.332C101.66 227.436 101.989 227.347 102.257 227.156C102.526 226.965 102.719 226.684 102.8 226.364L108.866 199.668Z" fill="#D3D3D3"/>
<path d="M101.368 226.905C101.568 226.887 101.757 226.811 101.915 226.688C102.072 226.565 102.191 226.399 102.257 226.21L108.4 199.552C108.453 199.352 108.431 199.14 108.338 198.955C108.246 198.77 108.089 198.625 107.898 198.547C99.3184 195.336 90.3566 193.258 81.2395 192.366C81.0225 192.35 80.807 192.411 80.6304 192.538C80.4538 192.665 80.3275 192.85 80.2736 193.061L74.1308 219.719C74.0861 219.919 74.1115 220.128 74.203 220.311C74.2945 220.494 74.4465 220.64 74.6331 220.724C83.2469 223.953 92.2493 226.032 101.407 226.905H101.368ZM101.407 227.832H101.137C91.9528 226.942 82.9254 224.85 74.2853 221.612H73.899C73.8243 221.594 73.7561 221.555 73.7016 221.501C73.6472 221.446 73.6086 221.378 73.5899 221.303C73.3877 221.083 73.2431 220.816 73.1689 220.526C73.0948 220.236 73.0934 219.932 73.1649 219.642L79.3078 192.984C79.4063 192.572 79.6457 192.208 79.9843 191.954C80.3229 191.7 80.7396 191.572 81.1624 191.593C90.4132 192.434 99.5092 194.513 108.207 197.775H108.516C108.575 197.791 108.63 197.821 108.677 197.861C108.723 197.901 108.761 197.95 108.786 198.006C109.025 198.229 109.2 198.51 109.295 198.822C109.39 199.134 109.401 199.466 109.327 199.784L103.184 226.403C103.092 226.778 102.887 227.117 102.597 227.372C102.307 227.628 101.946 227.788 101.562 227.832" fill="#A2A2A2"/>
<path d="M112.268 214.04V212.456C123.75 211.368 135.039 208.77 145.841 204.729C146.142 204.615 146.391 204.395 146.541 204.11C146.69 203.825 146.73 203.495 146.652 203.183L143.948 191.593H147.387L150.207 203.492C150.385 204.27 150.281 205.086 149.913 205.793C149.545 206.501 148.937 207.055 148.198 207.356C137.232 211.826 125.598 214.437 113.774 215.083C113.591 215.106 113.406 215.087 113.231 215.026C113.057 214.966 112.899 214.866 112.77 214.735C112.505 214.495 112.339 214.164 112.306 213.808" fill="#434343"/>
<path d="M112.654 214.001C112.651 214.132 112.677 214.263 112.73 214.383C112.784 214.503 112.863 214.61 112.963 214.696C113.061 214.788 113.177 214.859 113.303 214.906C113.429 214.952 113.563 214.973 113.697 214.967C125.496 214.316 137.103 211.705 148.044 207.24C148.71 206.972 149.256 206.472 149.583 205.833C149.909 205.194 149.994 204.459 149.821 203.762L147.078 192.172H144.335L146.962 203.183C147.055 203.582 147 204.001 146.808 204.363C146.617 204.725 146.301 205.006 145.919 205.153C135.193 209.186 123.983 211.784 112.577 212.88L112.654 214.001ZM113.659 215.701C113.444 215.706 113.231 215.668 113.032 215.588C112.832 215.508 112.651 215.389 112.5 215.237C112.159 214.928 111.951 214.499 111.92 214.039V212.455C111.927 212.361 111.965 212.273 112.028 212.203C112.091 212.133 112.175 212.086 112.268 212.069C123.722 211.039 134.98 208.439 145.725 204.342C145.947 204.263 146.133 204.105 146.247 203.899C146.361 203.692 146.395 203.452 146.344 203.222L143.639 191.824C143.6 191.725 143.6 191.615 143.639 191.515C143.726 191.483 143.823 191.483 143.91 191.515H147.387C147.467 191.513 147.546 191.539 147.609 191.588C147.672 191.638 147.717 191.707 147.735 191.786L150.555 203.685C150.728 204.544 150.605 205.436 150.205 206.215C149.805 206.994 149.151 207.614 148.353 207.974C137.288 212.544 125.534 215.221 113.581 215.894" fill="#A2A2A2"/>
<path d="M109.598 214.04V212.456C98.1032 211.368 86.8016 208.77 75.9858 204.729C75.6847 204.615 75.4359 204.395 75.2863 204.11C75.1368 203.825 75.0969 203.495 75.1743 203.183L77.9175 191.593H74.4403L71.62 203.492C71.4419 204.27 71.5462 205.086 71.9143 205.793C72.2823 206.501 72.8902 207.055 73.6291 207.356C84.6083 211.826 96.2548 214.437 108.091 215.083C108.268 215.103 108.447 215.082 108.615 215.022C108.782 214.961 108.934 214.863 109.057 214.735C109.322 214.495 109.488 214.164 109.521 213.808" fill="#D3D3D3"/>
<path d="M109.598 214.04V212.456C98.1032 211.368 86.8016 208.77 75.9858 204.729C75.6847 204.615 75.4359 204.395 75.2863 204.11C75.1368 203.825 75.0969 203.495 75.1743 203.183L77.9175 191.593H74.4403L71.62 203.492C71.4419 204.27 71.5462 205.086 71.9143 205.793C72.2823 206.501 72.8902 207.055 73.6291 207.356C84.6083 211.826 96.2548 214.437 108.091 215.083C108.268 215.103 108.447 215.082 108.615 215.022C108.782 214.961 108.934 214.863 109.057 214.735C109.322 214.495 109.488 214.164 109.521 213.808" fill="#434343"/>
<path d="M74.8277 191.979L72.0459 203.569C71.8753 204.27 71.9655 205.01 72.2996 205.65C72.6337 206.289 73.1889 206.786 73.8618 207.046C84.7874 211.515 96.3831 214.127 108.17 214.773C108.304 214.782 108.439 214.762 108.565 214.716C108.692 214.669 108.807 214.597 108.904 214.503C109.102 214.322 109.226 214.074 109.251 213.808V212.571C97.8463 211.471 86.6358 208.873 75.9094 204.844C75.5322 204.69 75.2212 204.408 75.0305 204.048C74.8399 203.688 74.7818 203.272 74.8664 202.874L77.4935 191.863H74.789L74.8277 191.979ZM108.208 215.585C96.2558 214.912 84.5015 212.235 73.4369 207.665C72.6381 207.305 71.985 206.685 71.5849 205.906C71.1847 205.127 71.0613 204.235 71.2347 203.376L74.055 191.477C74.0805 191.395 74.1322 191.324 74.2021 191.276C74.272 191.227 74.356 191.202 74.4412 191.206H77.8798C77.967 191.173 78.0631 191.173 78.1503 191.206C78.1891 191.305 78.1891 191.416 78.1503 191.515L75.4071 202.912C75.3557 203.142 75.3902 203.383 75.504 203.59C75.6179 203.796 75.8034 203.954 76.0254 204.033C86.7712 208.13 98.0291 210.73 109.483 211.76C109.576 211.777 109.66 211.824 109.723 211.894C109.786 211.964 109.824 212.052 109.831 212.146V213.73C109.8 214.189 109.592 214.619 109.251 214.928C109.105 215.077 108.931 215.195 108.739 215.274C108.546 215.354 108.339 215.394 108.131 215.392" fill="#A2A2A2"/>
<path d="M71.6605 222.81C71.5962 222.81 71.5327 222.797 71.4738 222.771C71.4148 222.746 71.3617 222.708 71.3181 222.661C71.2745 222.613 71.2414 222.558 71.2205 222.497C71.1996 222.436 71.1916 222.372 71.1969 222.308V191.4C71.1969 191.277 71.2458 191.159 71.3327 191.072C71.4197 190.985 71.5376 190.936 71.6605 190.936C71.7835 190.936 71.9014 190.985 71.9883 191.072C72.0752 191.159 72.1241 191.277 72.1241 191.4V222.308C72.1295 222.372 72.1214 222.436 72.1005 222.497C72.0797 222.558 72.0465 222.613 72.0029 222.661C71.9593 222.708 71.9062 222.746 71.8473 222.771C71.7884 222.797 71.7248 222.81 71.6605 222.81Z" fill="#A2A2A2"/>
<path d="M150.399 180.929V191.438C137.592 191.476 124.901 193.873 112.962 198.508H109.099C97.1736 193.871 84.4952 191.474 71.7002 191.438V184.136C71.7001 183.528 71.939 182.944 72.3654 182.51C72.7918 182.077 73.3714 181.828 73.9795 181.818L147.386 177.954C147.768 177.935 148.15 177.993 148.508 178.126C148.867 178.259 149.195 178.463 149.472 178.727C150.026 179.266 150.346 180.002 150.361 180.775" fill="#434343"/>
<path d="M109.134 198.16H112.998C124.8 193.564 137.345 191.168 150.01 191.09V181.045C149.999 180.404 149.735 179.793 149.276 179.345C149.045 179.125 148.771 178.954 148.473 178.841C148.174 178.728 147.856 178.676 147.537 178.688L74.131 182.552C73.6423 182.561 73.1762 182.76 72.8305 183.106C72.4849 183.451 72.2863 183.917 72.2764 184.406V191.244C84.8806 191.289 97.3712 193.632 109.134 198.16ZM112.998 199.087H108.941C97.0685 194.454 84.4414 192.057 71.697 192.017C71.6361 192.017 71.5757 192.005 71.5194 191.982C71.4632 191.959 71.4123 191.924 71.3692 191.881C71.3262 191.838 71.2918 191.787 71.2685 191.731C71.2452 191.675 71.2334 191.614 71.2334 191.553V184.251C71.2427 183.52 71.5324 182.819 72.0427 182.294C72.553 181.77 73.245 181.461 73.9763 181.431L147.383 177.761C147.827 177.741 148.271 177.809 148.689 177.961C149.107 178.114 149.49 178.348 149.817 178.649C150.14 178.96 150.399 179.332 150.578 179.743C150.757 180.154 150.853 180.596 150.86 181.045V191.553C150.86 191.676 150.811 191.794 150.724 191.881C150.637 191.968 150.519 192.017 150.396 192.017C137.652 192.054 125.024 194.451 113.152 199.087" fill="#A2A2A2"/>
<path d="M114.16 227.793C125.959 227.442 137.611 225.09 148.623 220.839C148.812 220.734 149.025 220.679 149.241 220.679C149.457 220.679 149.67 220.734 149.859 220.839C150.045 220.96 150.196 221.126 150.297 221.323C150.399 221.519 150.448 221.739 150.439 221.96V236.023C150.439 236.771 150.142 237.488 149.613 238.017C149.084 238.546 148.366 238.843 147.618 238.843H116.71L114.238 236.409H107.863L105.429 238.843H74.5211C73.7695 238.843 73.048 238.547 72.5129 238.019C71.9779 237.491 71.6723 236.774 71.6622 236.023V222.114C71.6604 221.894 71.7123 221.677 71.8133 221.482C71.9143 221.287 72.0614 221.119 72.2418 220.994C72.4379 220.889 72.6568 220.834 72.8792 220.834C73.1015 220.834 73.3204 220.889 73.5165 220.994C84.5322 225.23 96.1826 227.581 107.979 227.948H114.16" fill="#434343"/>
<path d="M116.939 238.534H147.615C147.924 238.534 148.231 238.473 148.517 238.354C148.803 238.236 149.063 238.062 149.281 237.843C149.5 237.625 149.674 237.365 149.792 237.079C149.911 236.793 149.972 236.486 149.972 236.177V222.114C149.972 221.969 149.937 221.827 149.869 221.699C149.802 221.571 149.705 221.462 149.585 221.38C149.458 221.323 149.319 221.294 149.18 221.294C149.04 221.294 148.902 221.323 148.774 221.38C137.67 225.687 125.908 228.052 114.003 228.373C111.994 228.373 109.907 228.373 107.898 228.373C95.9938 228.044 84.2334 225.679 73.1271 221.38C72.9993 221.323 72.8612 221.294 72.7215 221.294C72.5818 221.294 72.4434 221.323 72.3156 221.38C72.1964 221.462 72.099 221.571 72.0317 221.699C71.9644 221.827 71.9292 221.969 71.9294 222.114V236.177C71.9395 236.806 72.1962 237.405 72.6444 237.846C73.0925 238.287 73.6961 238.534 74.3247 238.534H105.001L107.319 236.216C107.418 236.177 107.529 236.177 107.628 236.216H114.157C114.269 236.171 114.394 236.171 114.505 236.216L116.939 238.534ZM147.615 239.5H116.707C116.595 239.541 116.472 239.541 116.359 239.5L114.041 237.182H108.053L105.774 239.5C105.66 239.529 105.54 239.529 105.426 239.5H74.5179C73.6398 239.49 72.8005 239.136 72.1796 238.515C71.5586 237.894 71.2053 237.055 71.1953 236.177V222.114C71.1966 221.81 71.271 221.511 71.4123 221.242C71.5535 220.973 71.7574 220.742 72.0067 220.569C72.2515 220.414 72.5278 220.316 72.8153 220.283C73.1029 220.249 73.3943 220.281 73.668 220.375C84.6267 224.617 96.2295 226.956 107.976 227.291C109.985 227.291 112.032 227.291 114.08 227.291C125.814 226.956 137.404 224.617 148.349 220.375C148.629 220.28 148.927 220.248 149.221 220.282C149.514 220.315 149.797 220.413 150.049 220.569C150.298 220.742 150.502 220.973 150.643 221.242C150.785 221.511 150.859 221.81 150.86 222.114V236.177C150.85 237.055 150.497 237.894 149.876 238.515C149.255 239.136 148.416 239.49 147.538 239.5" fill="#A2A2A2"/>
<path d="M93.4121 120.543H67.2562C67.1742 120.543 67.0955 120.511 67.0376 120.453C66.9796 120.395 66.9473 120.316 66.9473 120.234C66.9567 120.159 66.9933 120.09 67.0503 120.04C67.1073 119.99 67.1805 119.963 67.2562 119.964H93.4121C93.4476 119.964 93.4828 119.971 93.5156 119.984C93.5484 119.998 93.5782 120.018 93.6033 120.043C93.6285 120.068 93.6482 120.098 93.6618 120.131C93.6754 120.163 93.6826 120.199 93.6826 120.234C93.6882 120.273 93.6852 120.312 93.6741 120.35C93.663 120.387 93.6441 120.422 93.6184 120.451C93.5927 120.48 93.5609 120.504 93.5253 120.52C93.4897 120.536 93.4511 120.544 93.4121 120.543ZM96.9665 120.543H95.7688C95.6868 120.543 95.6081 120.511 95.5502 120.453C95.4922 120.395 95.4596 120.316 95.4596 120.234C95.4691 120.159 95.5059 120.09 95.5629 120.04C95.6199 119.99 95.6931 119.963 95.7688 119.964H96.9665C97.0422 119.963 97.1156 119.99 97.1725 120.04C97.2295 120.09 97.2661 120.159 97.2756 120.234C97.2756 120.275 97.2675 120.315 97.252 120.352C97.2365 120.39 97.2137 120.424 97.185 120.453C97.1563 120.481 97.1223 120.504 97.0848 120.52C97.0473 120.535 97.007 120.543 96.9665 120.543ZM125.479 120.543H99.3231C99.2841 120.544 99.2455 120.536 99.2099 120.52C99.1743 120.504 99.1427 120.48 99.117 120.451C99.0913 120.422 99.0722 120.387 99.0611 120.35C99.0501 120.312 99.0473 120.273 99.0529 120.234C99.0529 120.162 99.0812 120.094 99.1319 120.043C99.1826 119.992 99.2514 119.964 99.3231 119.964H125.479C125.555 119.963 125.628 119.99 125.685 120.04C125.742 120.09 125.779 120.159 125.788 120.234C125.788 120.275 125.78 120.315 125.765 120.352C125.749 120.39 125.726 120.424 125.698 120.453C125.669 120.481 125.635 120.504 125.597 120.52C125.56 120.535 125.52 120.543 125.479 120.543ZM129.033 120.543H127.836C127.797 120.544 127.758 120.536 127.723 120.52C127.687 120.504 127.655 120.48 127.629 120.451C127.604 120.422 127.585 120.387 127.574 120.35C127.563 120.312 127.56 120.273 127.565 120.234C127.565 120.199 127.572 120.163 127.586 120.131C127.6 120.098 127.619 120.068 127.644 120.043C127.67 120.018 127.699 119.998 127.732 119.984C127.765 119.971 127.8 119.964 127.836 119.964H129.033C129.109 119.963 129.183 119.99 129.239 120.04C129.296 120.09 129.333 120.159 129.343 120.234C129.343 120.316 129.31 120.395 129.252 120.453C129.194 120.511 129.115 120.543 129.033 120.543ZM154.88 120.543H131.429C131.387 120.55 131.344 120.546 131.303 120.533C131.263 120.52 131.226 120.497 131.196 120.467C131.166 120.437 131.143 120.4 131.13 120.36C131.117 120.319 131.113 120.276 131.12 120.234C131.119 120.195 131.127 120.156 131.143 120.121C131.159 120.085 131.183 120.054 131.212 120.028C131.241 120.002 131.276 119.983 131.313 119.972C131.351 119.961 131.39 119.958 131.429 119.964H154.88C154.956 119.963 155.029 119.99 155.086 120.04C155.143 120.09 155.18 120.159 155.189 120.234C155.189 120.316 155.157 120.395 155.099 120.453C155.041 120.511 154.962 120.543 154.88 120.543Z" fill="#A2A2A2"/>
<path d="M150.401 222.694C150.337 222.699 150.272 222.691 150.211 222.67C150.151 222.649 150.095 222.616 150.048 222.572C150 222.529 149.963 222.476 149.937 222.417C149.911 222.358 149.898 222.294 149.898 222.23V191.322C149.898 191.258 149.911 191.194 149.937 191.135C149.963 191.076 150 191.023 150.048 190.98C150.095 190.936 150.151 190.903 150.211 190.882C150.272 190.861 150.337 190.853 150.401 190.859C150.524 190.859 150.641 190.907 150.728 190.994C150.815 191.081 150.864 191.199 150.864 191.322V222.23C150.864 222.353 150.815 222.471 150.728 222.558C150.641 222.645 150.524 222.694 150.401 222.694Z" fill="#A2A2A2"/>
<path d="M113.232 199.668C113.188 199.348 113.256 199.023 113.425 198.748C113.594 198.473 113.854 198.266 114.159 198.161H113.85C122.544 194.866 131.639 192.748 140.894 191.864C141.218 191.837 141.541 191.927 141.803 192.119C142.066 192.31 142.251 192.59 142.324 192.907L148.506 219.565C148.574 219.887 148.527 220.223 148.371 220.513C148.215 220.803 147.962 221.028 147.656 221.149H148.042C139.251 224.484 130.05 226.615 120.688 227.485C120.366 227.504 120.047 227.41 119.786 227.22C119.526 227.03 119.339 226.755 119.259 226.442L113.232 199.668Z" fill="#D3D3D3"/>
<path d="M114.16 198.547C113.978 198.637 113.83 198.783 113.74 198.965C113.649 199.146 113.62 199.352 113.658 199.552L119.839 226.21C119.901 226.401 120.018 226.57 120.177 226.694C120.335 226.818 120.527 226.891 120.728 226.905C129.844 226.026 138.805 223.961 147.386 220.762C147.587 220.692 147.756 220.552 147.862 220.367C147.969 220.183 148.005 219.967 147.966 219.758L141.784 193.1C141.738 192.892 141.62 192.707 141.45 192.58C141.279 192.452 141.069 192.39 140.857 192.404C131.727 193.296 122.753 195.374 114.16 198.586V198.547ZM120.651 227.871C120.27 227.83 119.911 227.67 119.627 227.413C119.342 227.157 119.146 226.816 119.067 226.441L112.885 199.783C112.814 199.472 112.827 199.147 112.922 198.841C113.017 198.536 113.191 198.261 113.426 198.045C113.485 197.937 113.581 197.855 113.696 197.813H114.006C122.703 194.552 131.799 192.473 141.05 191.631C141.474 191.603 141.895 191.728 142.235 191.983C142.576 192.238 142.813 192.607 142.904 193.022L149.086 219.68C149.143 219.974 149.13 220.277 149.05 220.566C148.969 220.854 148.823 221.12 148.622 221.342C148.607 221.412 148.574 221.477 148.527 221.531C148.48 221.585 148.419 221.626 148.352 221.651C139.576 224.998 130.388 227.143 121.037 228.025H120.805" fill="#A2A2A2"/>
<path d="M71.6589 184.561C71.5359 184.561 71.4181 184.512 71.3311 184.425C71.2442 184.338 71.1953 184.22 71.1953 184.097V120.156C71.1953 120.034 71.2442 119.916 71.3311 119.829C71.4181 119.742 71.5359 119.693 71.6589 119.693C71.7818 119.693 71.8997 119.742 71.9866 119.829C72.0736 119.916 72.1224 120.034 72.1224 120.156V184.097C72.1224 184.22 72.0736 184.338 71.9866 184.425C71.8997 184.512 71.7818 184.561 71.6589 184.561Z" fill="#A2A2A2"/>
<path d="M150.401 181.431C150.267 181.431 150.14 181.378 150.046 181.284C149.951 181.19 149.898 181.062 149.898 180.929V120.079C149.898 119.946 149.951 119.818 150.046 119.724C150.14 119.63 150.267 119.577 150.401 119.577C150.527 119.586 150.645 119.644 150.731 119.737C150.817 119.83 150.865 119.952 150.864 120.079V180.929C150.865 181.056 150.817 181.178 150.731 181.271C150.645 181.364 150.527 181.421 150.401 181.431Z" fill="#A2A2A2"/>
<path d="M108.864 40.9549C108.95 41.2775 108.91 41.6208 108.753 41.9151C108.595 42.2093 108.331 42.4324 108.014 42.539H108.362C99.672 45.8469 90.5748 47.9653 81.3175 48.8364C80.9873 48.8732 80.6551 48.7872 80.3844 48.5948C80.1136 48.4025 79.9232 48.1171 79.8493 47.7933L73.7065 21.1352C73.6312 20.8181 73.6763 20.4843 73.8334 20.1986C73.9904 19.913 74.2482 19.696 74.5563 19.5898H74.1314C82.9325 16.2381 92.1468 14.0937 101.523 13.215H101.33C101.662 13.1691 101.999 13.2516 102.271 13.4454C102.544 13.6393 102.733 13.93 102.798 14.2582L108.864 40.9549Z" fill="#D3D3D3"/>
<path d="M74.6723 19.899C74.4707 19.9772 74.3043 20.1264 74.2047 20.3184C74.1051 20.5104 74.0791 20.7322 74.1314 20.9421L80.2742 47.5616C80.32 47.7693 80.4387 47.9537 80.6088 48.0813C80.779 48.2089 80.9892 48.2712 81.2014 48.257C90.308 47.4008 99.26 45.335 107.821 42.1141C108.023 42.0358 108.189 41.8867 108.289 41.6946C108.388 41.5026 108.414 41.2808 108.362 41.0709L102.219 14.4128C102.159 14.216 102.036 14.0446 101.868 13.9257C101.7 13.8068 101.497 13.7471 101.292 13.756C92.1731 14.6165 83.2092 16.6822 74.6337 19.899H74.6723ZM81.047 49.2229C80.6338 49.2166 80.2347 49.0726 79.9127 48.8136C79.5908 48.5547 79.3643 48.1956 79.2697 47.7934L73.1268 21.1353C73.0554 20.8448 73.0567 20.5411 73.1309 20.2513C73.205 19.9615 73.3496 19.6945 73.5518 19.474C73.6105 19.3346 73.7215 19.2236 73.8609 19.1649C82.6374 15.8057 91.8239 13.6358 101.176 12.7129H101.562C101.946 12.757 102.308 12.9176 102.598 13.1731C102.888 13.4287 103.093 13.7669 103.185 14.1424L109.328 40.8005C109.399 41.1122 109.386 41.4372 109.291 41.7424C109.196 42.0477 109.022 42.3225 108.787 42.539C108.761 42.5949 108.724 42.6446 108.677 42.6847C108.63 42.7247 108.575 42.7541 108.516 42.7708C99.7481 46.092 90.5744 48.223 81.2401 49.107" fill="#A2A2A2"/>
<path d="M112.268 26.6215V28.1669C123.753 29.2354 135.044 31.8341 145.841 35.8939C146.14 36.0215 146.385 36.2498 146.533 36.5391C146.682 36.8285 146.724 37.1607 146.653 37.4779L143.948 49.0684H147.387L150.207 37.0529C150.393 36.275 150.293 35.4559 149.924 34.7462C149.555 34.0365 148.942 33.4837 148.198 33.1895C137.238 28.7029 125.601 26.0908 113.774 25.4625C113.408 25.4525 113.051 25.5761 112.77 25.8102C112.496 26.0599 112.33 26.4062 112.306 26.776" fill="#434343"/>
<path d="M144.329 48.644H147.034L149.815 37.0536C149.98 36.3574 149.892 35.6252 149.566 34.9882C149.241 34.3511 148.699 33.8507 148.038 33.5764C137.093 29.1292 125.488 26.5185 113.692 25.8494C113.558 25.8431 113.424 25.8638 113.297 25.9103C113.171 25.9567 113.056 26.028 112.958 26.1199C112.862 26.2088 112.785 26.3163 112.732 26.4359C112.679 26.5554 112.65 26.6845 112.649 26.8153V28.0516C124.057 29.1295 135.271 31.7282 145.991 35.7786C146.378 35.9192 146.699 36.1987 146.892 36.5628C147.085 36.9269 147.135 37.3497 147.034 37.749L144.329 48.644ZM147.343 49.4554C146.184 49.4554 145.025 49.4554 143.866 49.4554H143.595C143.568 49.4084 143.554 49.3551 143.554 49.3008C143.554 49.2466 143.568 49.1933 143.595 49.1463L146.3 37.5558C146.353 37.3206 146.32 37.074 146.206 36.8612C146.093 36.6484 145.907 36.4836 145.682 36.3968C134.925 32.3363 123.672 29.7374 112.224 28.6698C112.128 28.6602 112.04 28.6153 111.975 28.5438C111.911 28.4724 111.875 28.3795 111.876 28.2834V26.6994C111.907 26.2402 112.115 25.8108 112.456 25.5017C112.622 25.3509 112.818 25.2355 113.03 25.1625C113.243 25.0895 113.468 25.0603 113.692 25.0767C125.633 25.6875 137.387 28.2995 148.463 32.8037C149.262 33.163 149.915 33.7831 150.315 34.5623C150.716 35.3415 150.839 36.2336 150.666 37.0922L147.845 49.1076C147.827 49.1859 147.783 49.2557 147.72 49.305C147.656 49.3542 147.578 49.3801 147.497 49.3781" fill="#A2A2A2"/>
<path d="M109.597 26.622V28.206C98.0991 29.2743 86.7951 31.8729 75.9848 35.933C75.6858 36.0606 75.441 36.2889 75.2927 36.5783C75.1445 36.8676 75.1022 37.1998 75.1734 37.517L77.8008 49.1075H74.3622L71.6578 37.092C71.4715 36.3141 71.5721 35.495 71.9412 34.7853C72.3103 34.0756 72.923 33.5228 73.6668 33.2285C84.6405 28.7413 96.29 26.1293 108.129 25.5016C108.482 25.4975 108.825 25.6209 109.095 25.8493C109.369 26.099 109.535 26.4453 109.558 26.8152" fill="#D3D3D3"/>
<path d="M109.597 26.622V28.206C98.0991 29.2743 86.7951 31.8729 75.9848 35.933C75.6858 36.0606 75.441 36.2889 75.2927 36.5783C75.1445 36.8676 75.1022 37.1998 75.1734 37.517L77.8008 49.1075H74.3622L71.6578 37.092C71.4715 36.3141 71.5721 35.495 71.9412 34.7853C72.3103 34.0756 72.923 33.5228 73.6668 33.2285C84.6405 28.7413 96.29 26.1293 108.129 25.5016C108.482 25.4975 108.825 25.6209 109.095 25.8493C109.369 26.099 109.535 26.4453 109.558 26.8152" fill="#434343"/>
<path d="M108.248 25.6556C96.4644 26.3204 84.872 28.9314 73.9408 33.3826C73.2729 33.65 72.7227 34.1476 72.3896 34.7853C72.0566 35.423 71.9626 36.1588 72.1248 36.8598L74.7906 48.4502H77.5338L74.9838 37.362C74.8911 36.963 74.9456 36.5439 75.1373 36.1819C75.3289 35.8199 75.6449 35.5393 76.027 35.3916C86.7482 31.3457 97.961 28.7471 109.369 27.6647V26.6215C109.334 26.3575 109.211 26.1128 109.021 25.9261C108.839 25.7646 108.608 25.6693 108.364 25.6556H108.248ZM74.5588 49.4547C74.4786 49.4567 74.4001 49.4309 74.3367 49.3816C74.2733 49.3323 74.2288 49.2626 74.211 49.1843L71.4681 37.1688C71.2947 36.3102 71.4181 35.4182 71.8183 34.639C72.2184 33.8598 72.8715 33.2397 73.6703 32.8804C84.7465 28.3762 96.5004 25.7642 108.442 25.1534C108.666 25.1369 108.891 25.1661 109.103 25.2392C109.316 25.3122 109.511 25.4276 109.678 25.5784C110.019 25.8875 110.227 26.3168 110.257 26.776V28.3601C110.259 28.4505 110.229 28.5386 110.173 28.6092C110.116 28.6798 110.037 28.7284 109.948 28.7464C98.4878 29.8144 87.2222 32.4132 76.4519 36.4734C76.2269 36.5602 76.0407 36.7251 75.9272 36.9379C75.8137 37.1507 75.7806 37.3972 75.8339 37.6324L78.461 49.2229C78.4881 49.2699 78.5023 49.3232 78.5023 49.3775C78.5023 49.4317 78.4881 49.485 78.461 49.532C78.461 49.532 78.461 49.532 78.1905 49.532H74.752L74.5588 49.4547Z" fill="#A2A2A2"/>
<path d="M71.6589 49.571C71.598 49.571 71.5378 49.559 71.4816 49.5357C71.4253 49.5124 71.3742 49.4782 71.3311 49.4352C71.2881 49.3921 71.254 49.341 71.2307 49.2848C71.2074 49.2285 71.1953 49.1682 71.1953 49.1074V18.1994C71.1953 18.0765 71.2442 17.9586 71.3311 17.8716C71.4181 17.7847 71.5359 17.7358 71.6589 17.7358C71.7818 17.7358 71.8997 17.7847 71.9866 17.8716C72.0736 17.9586 72.1224 18.0765 72.1224 18.1994V49.1074C72.1224 49.1682 72.1104 49.2285 72.0871 49.2848C72.0638 49.341 72.0297 49.3921 71.9866 49.4352C71.9436 49.4782 71.8924 49.5124 71.8362 49.5357C71.7799 49.559 71.7198 49.571 71.6589 49.571Z" fill="#A2A2A2"/>
<path d="M150.399 59.6932V49.1845C137.592 49.1459 124.901 46.7492 112.962 42.1143H109.099C97.1736 46.7514 84.4952 49.1482 71.7002 49.1845V56.6023C71.7001 57.2105 71.939 57.7944 72.3654 58.228C72.7918 58.6616 73.3714 58.9103 73.9795 58.9204L147.386 62.5135C147.768 62.5329 148.15 62.4744 148.508 62.3415C148.867 62.2087 149.195 62.0043 149.472 61.7408C150.026 61.2018 150.346 60.4661 150.361 59.6932" fill="#434343"/>
<path d="M72.125 49.6865V56.6021C72.1249 57.0874 72.3149 57.5533 72.6544 57.9C72.9938 58.2467 73.4558 58.4465 73.9409 58.4566L147.347 62.0496C147.667 62.0709 147.988 62.0233 148.288 61.91C148.588 61.7967 148.86 61.6203 149.086 61.3929C149.318 61.1752 149.504 60.9119 149.63 60.6194C149.756 60.3269 149.821 60.0115 149.82 59.6929V49.6865C137.154 49.5761 124.613 47.1674 112.808 42.5777H108.944C97.1262 47.1712 84.572 49.5799 71.8932 49.6865H72.125ZM147.54 62.9383L74.1341 59.3066C73.7706 59.3066 73.4106 59.2344 73.0753 59.0941C72.7399 58.9539 72.4359 58.7484 72.1806 58.4896C71.9254 58.2307 71.7241 57.9237 71.5885 57.5865C71.4529 57.2492 71.3858 56.8883 71.3909 56.5249V49.107C71.3909 48.984 71.4398 48.8661 71.5267 48.7791C71.6137 48.6922 71.7315 48.6434 71.8545 48.6434C84.5966 48.6164 97.2238 46.2324 109.099 41.6118H113.348C125.221 46.2393 137.85 48.6235 150.592 48.6434C150.712 48.6523 150.825 48.704 150.91 48.7891C150.995 48.8742 151.047 48.987 151.056 49.107V59.6157C151.046 60.4938 150.693 61.3331 150.072 61.954C149.451 62.5749 148.612 62.9282 147.733 62.9383" fill="#A2A2A2"/>
<path d="M114.161 12.7132C125.956 13.0525 137.609 15.3909 148.623 19.6289C148.812 19.7337 149.025 19.7888 149.241 19.7888C149.457 19.7888 149.67 19.7337 149.859 19.6289C150.04 19.5033 150.187 19.3356 150.288 19.1404C150.389 18.9451 150.441 18.7283 150.439 18.5085V4.484C150.439 3.7324 150.143 3.01098 149.615 2.47592C149.087 1.94085 148.37 1.63516 147.618 1.625H116.71L114.238 4.05902H107.863L105.429 1.625H74.5211C73.7628 1.625 73.0356 1.92622 72.4995 2.46239C71.9633 2.99855 71.6621 3.72575 71.6621 4.484V18.5471C71.6694 18.7652 71.725 18.9789 71.8253 19.1727C71.9255 19.3665 72.0679 19.5356 72.2417 19.6675C72.4379 19.7724 72.6567 19.8272 72.8791 19.8272C73.1015 19.8272 73.3204 19.7724 73.5165 19.6675C84.5265 15.412 96.1804 13.0604 107.979 12.7132H114.161Z" fill="#434343"/>
<path d="M114.157 12.3654C126.062 12.6898 137.824 15.0551 148.929 19.3583C149.061 19.4076 149.204 19.4244 149.344 19.4075C149.485 19.3906 149.619 19.3403 149.736 19.261C149.853 19.1816 149.95 19.0754 150.018 18.9512C150.086 18.827 150.123 18.6884 150.126 18.547V4.48388C150.131 4.17115 150.074 3.86052 149.958 3.57012C149.842 3.27971 149.669 3.01531 149.45 2.79236C149.23 2.56941 148.969 2.39237 148.681 2.27152C148.392 2.15068 148.082 2.08846 147.77 2.0885H116.862L114.543 4.40659C114.432 4.4517 114.307 4.4517 114.196 4.40659H107.821C107.722 4.44538 107.612 4.44538 107.512 4.40659L105.194 2.0885H74.5179C73.8826 2.0885 73.2733 2.34088 72.824 2.79009C72.3748 3.23931 72.1225 3.84859 72.1225 4.48388V18.547C72.1321 18.6899 72.1748 18.8287 72.247 18.9524C72.3193 19.0761 72.4192 19.1815 72.5389 19.2601C72.6587 19.3387 72.7952 19.3885 72.9375 19.4055C73.0797 19.4225 73.2239 19.4064 73.3589 19.3583C84.4028 15.076 96.097 12.7111 107.937 12.3654H114.157ZM73.011 20.4401C72.6427 20.4276 72.2838 20.3212 71.9681 20.131C71.7333 19.955 71.5417 19.7279 71.4078 19.4668C71.2739 19.2057 71.2012 18.9176 71.1953 18.6242V4.48388C71.1953 3.60267 71.5454 2.75754 72.1685 2.13443C72.7916 1.51132 73.6366 1.16127 74.5179 1.16127H105.426H105.774L108.053 3.47936H114.157L116.475 1.16127C116.587 1.11616 116.712 1.11616 116.823 1.16127H147.731C148.612 1.16127 149.457 1.51132 150.08 2.13443C150.703 2.75754 151.053 3.60267 151.053 4.48388V18.547C151.048 18.8442 150.971 19.1358 150.829 19.3971C150.688 19.6584 150.485 19.8818 150.239 20.0485C149.993 20.2151 149.71 20.3201 149.415 20.3547C149.12 20.3892 148.82 20.3522 148.542 20.2469C137.559 15.9958 125.93 13.6568 114.157 13.3313C112.11 13.3313 110.062 13.3313 108.053 13.3313C96.2697 13.723 84.6405 16.1273 73.668 20.4401C73.4509 20.48 73.2281 20.48 73.011 20.4401Z" fill="#A2A2A2"/>
<path d="M150.401 49.6868C150.267 49.6868 150.14 49.6339 150.046 49.5397C149.951 49.4455 149.898 49.3177 149.898 49.1845V18.2766C149.908 18.1502 149.965 18.0322 150.059 17.9462C150.152 17.8602 150.274 17.8126 150.401 17.813C150.521 17.8219 150.633 17.8736 150.719 17.9587C150.804 18.0438 150.855 18.1566 150.864 18.2766V49.1845C150.865 49.3113 150.817 49.4335 150.731 49.5267C150.645 49.6199 150.527 49.677 150.401 49.6868Z" fill="#A2A2A2"/>
<path d="M113.232 40.9551C113.155 41.2774 113.199 41.6168 113.356 41.9089C113.513 42.2009 113.771 42.4252 114.082 42.5392H113.773C122.461 45.8545 131.559 47.973 140.818 48.8367C141.142 48.8636 141.464 48.7729 141.727 48.5814C141.989 48.3898 142.174 48.1102 142.247 47.7935L148.429 21.1354C148.495 20.8188 148.446 20.4886 148.29 20.2051C148.134 19.9215 147.882 19.7033 147.579 19.59H147.965C139.176 16.2417 129.975 14.0974 120.612 13.2153C120.286 13.1798 119.959 13.2671 119.695 13.46C119.431 13.653 119.248 13.9377 119.182 14.2584L113.232 40.9551Z" fill="#D3D3D3"/>
<path d="M140.893 48.2571C141.106 48.28 141.321 48.221 141.493 48.092C141.665 47.9629 141.782 47.7734 141.82 47.5617L148.002 20.9422C148.043 20.728 148.008 20.5059 147.902 20.3151C147.796 20.1243 147.626 19.977 147.422 19.8991C138.852 16.6641 129.885 14.5979 120.764 13.7562C120.556 13.7433 120.351 13.807 120.188 13.9352C120.024 14.0633 119.913 14.247 119.875 14.4516L113.694 41.071C113.659 41.2748 113.693 41.4843 113.791 41.6663C113.889 41.8483 114.045 41.9924 114.235 42.0755C122.803 45.3228 131.769 47.402 140.893 48.2571ZM140.893 49.223C131.644 48.3422 122.552 46.2509 113.848 43.0028H113.539C113.424 42.9611 113.328 42.8787 113.269 42.771C113.034 42.5544 112.86 42.2797 112.765 41.9744C112.67 41.6691 112.657 41.3442 112.728 41.0324L118.909 14.3743C118.989 13.9994 119.185 13.6592 119.469 13.4024C119.754 13.1456 120.112 12.9854 120.493 12.9448H120.88C130.227 13.8506 139.412 15.9943 148.195 19.3196C148.259 19.3491 148.316 19.392 148.363 19.4452C148.41 19.4985 148.444 19.561 148.465 19.6287C148.668 19.8491 148.817 20.1146 148.897 20.4035C148.978 20.6923 148.989 20.9961 148.929 21.29L142.747 47.9481C142.659 48.3535 142.434 48.7165 142.111 48.9766C141.788 49.2367 141.385 49.3782 140.97 49.3775" fill="#A2A2A2"/>
<path d="M71.6589 120.891C71.5359 120.891 71.4181 120.842 71.3311 120.755C71.2442 120.668 71.1953 120.55 71.1953 120.427V56.6023C71.1953 56.4793 71.2442 56.3614 71.3311 56.2745C71.4181 56.1875 71.5359 56.1387 71.6589 56.1387C71.7818 56.1387 71.8997 56.1875 71.9866 56.2745C72.0736 56.3614 72.1224 56.4793 72.1224 56.6023V120.311C72.1224 120.434 72.0736 120.552 71.9866 120.639C71.8997 120.726 71.7818 120.775 71.6589 120.775" fill="#A2A2A2"/>
<path d="M150.401 120.89C150.337 120.896 150.272 120.888 150.211 120.867C150.151 120.846 150.095 120.813 150.048 120.769C150 120.726 149.963 120.673 149.937 120.614C149.911 120.555 149.898 120.491 149.898 120.427V59.6928C149.898 59.6285 149.911 59.5649 149.937 59.506C149.963 59.447 150 59.3941 150.048 59.3505C150.095 59.3069 150.151 59.2736 150.211 59.2527C150.272 59.2318 150.337 59.2238 150.401 59.2292C150.524 59.2292 150.641 59.278 150.728 59.3649C150.815 59.4519 150.864 59.5698 150.864 59.6928V120.581C150.864 120.704 150.815 120.822 150.728 120.909C150.641 120.996 150.524 121.045 150.401 121.045" fill="#A2A2A2"/>
<path d="M114.159 4.05859H107.861V12.8287H114.159V4.05859Z" fill="#D3D3D3"/>
<path d="M108.171 12.4811H113.773V4.40637H108.171V12.4811ZM114.159 13.1765H107.823C107.731 13.1765 107.643 13.1399 107.577 13.0747C107.512 13.0095 107.476 12.921 107.476 12.8288V4.05867C107.476 4.013 107.485 3.96777 107.502 3.92558C107.519 3.8834 107.545 3.84507 107.577 3.81278C107.61 3.78049 107.648 3.75488 107.69 3.73741C107.732 3.71993 107.778 3.71094 107.823 3.71094H114.159C114.205 3.71094 114.25 3.71993 114.292 3.73741C114.334 3.75488 114.373 3.78049 114.405 3.81278C114.437 3.84507 114.463 3.8834 114.48 3.92558C114.498 3.96777 114.507 4.013 114.507 4.05867V12.7129C114.507 12.8051 114.47 12.8935 114.405 12.9587C114.34 13.0239 114.251 13.0606 114.159 13.0606" fill="#A2A2A2"/>
<path d="M110.874 5.64314C110.802 5.64314 110.733 5.61466 110.683 5.56394C110.632 5.51322 110.603 5.44443 110.603 5.3727V0.620624C110.598 0.582009 110.601 0.542637 110.612 0.505225C110.623 0.467813 110.642 0.433248 110.668 0.403886C110.693 0.374524 110.725 0.351058 110.76 0.335119C110.796 0.319179 110.835 0.311137 110.874 0.311538C110.956 0.311538 111.034 0.344095 111.092 0.402059C111.15 0.460022 111.183 0.538651 111.183 0.620624V5.3727C111.173 5.44781 111.137 5.51683 111.08 5.56668C111.023 5.61653 110.95 5.64374 110.874 5.64314ZM110.874 9.23619C110.799 9.22673 110.73 9.19005 110.68 9.13308C110.63 9.07611 110.603 9.0028 110.603 8.9271V7.72943C110.603 7.65373 110.63 7.58045 110.68 7.52348C110.73 7.46651 110.799 7.4298 110.874 7.42034C110.953 7.42874 111.027 7.46402 111.083 7.52027C111.139 7.57651 111.174 7.65033 111.183 7.72943V8.84985C111.174 8.92895 111.139 9.00279 111.083 9.05904C111.027 9.11528 110.953 9.15054 110.874 9.15893V9.23619ZM110.874 15.6496C110.802 15.6496 110.733 15.6211 110.683 15.5704C110.632 15.5196 110.603 15.4509 110.603 15.3792V11.2838C110.603 11.2121 110.632 11.1433 110.683 11.0926C110.733 11.0419 110.802 11.0134 110.874 11.0134C110.95 11.0128 111.023 11.04 111.08 11.0899C111.137 11.1397 111.173 11.2087 111.183 11.2838V15.4564C111.173 15.5315 111.137 15.6005 111.08 15.6504C111.023 15.7002 110.95 15.7274 110.874 15.7269" fill="#A2A2A2"/>
<path d="M15.6794 116.099V123.324H16.7226C17.1008 123.352 17.48 123.289 17.8292 123.141C18.1785 122.993 18.4878 122.765 18.7314 122.474C19.2437 121.769 19.5024 120.911 19.4655 120.04V119.461C19.5315 118.568 19.2857 117.681 18.7701 116.949C18.5264 116.659 18.2172 116.43 17.8679 116.282C17.5186 116.135 17.1393 116.072 16.761 116.099H15.6794ZM13.4385 125.101V114.284H16.761C17.6543 114.272 18.5346 114.499 19.3111 114.94C20.0662 115.362 20.6833 115.992 21.0881 116.756C21.5146 117.593 21.7271 118.522 21.7064 119.461V119.963C21.7305 120.89 21.5176 121.807 21.0881 122.629C20.6973 123.39 20.0934 124.021 19.3497 124.445C18.577 124.896 17.6941 125.123 16.7997 125.101H13.4385Z" fill="#A2A2A2"/>
<path d="M177.519 122.436C177.502 123.039 177.634 123.636 177.905 124.174C178.032 124.363 178.205 124.516 178.408 124.617C178.611 124.719 178.837 124.766 179.064 124.754C179.356 124.777 179.648 124.707 179.897 124.554C180.147 124.402 180.342 124.174 180.455 123.904V120.891C180.342 120.621 180.147 120.393 179.897 120.24C179.648 120.088 179.356 120.018 179.064 120.041C178.06 120.041 177.519 120.891 177.519 122.59V122.436ZM175.355 122.397C175.313 121.34 175.611 120.298 176.205 119.422C176.475 119.065 176.826 118.777 177.229 118.582C177.632 118.387 178.076 118.291 178.523 118.302C178.891 118.297 179.255 118.374 179.59 118.528C179.924 118.682 180.219 118.908 180.455 119.191V115.057H182.619V126.647H180.687V125.797C180.449 126.114 180.14 126.371 179.784 126.545C179.428 126.72 179.036 126.808 178.639 126.802C178.197 126.812 177.759 126.716 177.362 126.521C176.965 126.326 176.621 126.038 176.36 125.681C175.719 124.768 175.406 123.665 175.471 122.552" fill="#A2A2A2"/>
<path d="M110.298 269.635V272.571H112.191C112.635 272.592 113.073 272.455 113.427 272.185C113.578 272.057 113.698 271.897 113.778 271.716C113.858 271.536 113.897 271.339 113.89 271.142C113.917 270.934 113.895 270.723 113.826 270.526C113.757 270.328 113.643 270.15 113.493 270.003C113.343 269.857 113.162 269.748 112.962 269.684C112.763 269.62 112.552 269.603 112.345 269.635H110.298ZM110.298 268.051H111.959C113.079 268.051 113.62 267.587 113.62 266.699C113.644 266.503 113.617 266.305 113.543 266.122C113.469 265.939 113.349 265.779 113.195 265.656C112.798 265.388 112.32 265.265 111.843 265.308H110.298V268.051ZM108.057 274.348V263.531H111.92C112.976 263.456 114.03 263.713 114.934 264.265C115.265 264.524 115.53 264.86 115.705 265.243C115.879 265.626 115.96 266.046 115.938 266.467C115.954 266.971 115.819 267.469 115.552 267.896C115.264 268.302 114.86 268.612 114.393 268.785C114.924 268.887 115.395 269.192 115.706 269.635C116.043 270.079 116.22 270.623 116.209 271.18C116.236 271.624 116.16 272.068 115.985 272.477C115.811 272.887 115.543 273.249 115.204 273.537C114.374 274.131 113.363 274.417 112.345 274.348H108.057Z" fill="#A2A2A2"/>
<path d="M5.1451 257.748H2.37197V259.626H5.62654V260.786H0.927637V253.776H5.61691V254.946H2.37197V256.617H5.1451V257.748ZM8.66928 257.974L7.91822 258.783V260.786H6.47389V253.776H7.91822V256.954L8.55373 256.082L10.3399 253.776H12.1164L9.62735 256.891L12.1886 260.786H10.4699L8.66928 257.974Z" fill="#A2A2A2"/>
</svg>
