<svg width="133" height="301" viewBox="0 0 133 301" fill="none" xmlns="http://www.w3.org/2000/svg">
<path d="M30.4726 76.6626C30.3524 76.6626 30.2372 76.6148 30.1522 76.5299C30.0673 76.4449 30.0195 76.3296 30.0195 76.2094V47.8915C30.0195 47.7713 30.0673 47.6562 30.1522 47.5712C30.2372 47.4862 30.3524 47.4385 30.4726 47.4385C30.5928 47.4385 30.708 47.4862 30.793 47.5712C30.878 47.6562 30.9257 47.7713 30.9257 47.8915V76.2094C30.9257 76.3296 30.878 76.4449 30.793 76.5299C30.708 76.6148 30.5928 76.6626 30.4726 76.6626Z" fill="#A2A2A2"/>
<path d="M78.331 76.6626C78.2109 76.6626 78.0956 76.6148 78.0106 76.5298C77.9257 76.4449 77.8779 76.3296 77.8779 76.2094V47.8915C77.8779 47.7713 77.9257 47.6562 78.0106 47.5712C78.0956 47.4862 78.2109 47.4385 78.331 47.4385C78.454 47.4383 78.5723 47.4851 78.6618 47.5693C78.7513 47.6536 78.8052 47.7688 78.8124 47.8915V76.2094C78.8052 76.3321 78.7513 76.4475 78.6618 76.5317C78.5723 76.616 78.454 76.6628 78.331 76.6626Z" fill="#A2A2A2"/>
<path d="M78.331 148.024C78.2109 148.024 78.0956 147.976 78.0106 147.891C77.9257 147.807 77.8779 147.691 77.8779 147.571V82.0435C77.8779 81.9234 77.9257 81.808 78.0106 81.7231C78.0956 81.6381 78.2109 81.5903 78.331 81.5903C78.454 81.5901 78.5723 81.6369 78.6618 81.7212C78.7513 81.8054 78.8052 81.9208 78.8124 82.0435V147.571C78.8052 147.694 78.7513 147.809 78.6618 147.893C78.5723 147.978 78.454 148.024 78.331 148.024Z" fill="#A2A2A2"/>
<path d="M30.4726 148.024C30.3524 148.024 30.2372 147.976 30.1522 147.891C30.0673 147.807 30.0195 147.691 30.0195 147.571V82.0435C30.0195 81.9233 30.0673 81.808 30.1522 81.7231C30.2372 81.6381 30.3524 81.5903 30.4726 81.5903C30.5928 81.5903 30.708 81.6381 30.793 81.7231C30.878 81.808 30.9257 81.9233 30.9257 82.0435V147.571C30.9257 147.691 30.878 147.807 30.793 147.891C30.708 147.976 30.5928 148.024 30.4726 148.024Z" fill="#A2A2A2"/>
<path d="M39.5922 45.0035H69.2127V49.2229H76.9435C77.313 49.2251 77.6687 49.0828 77.9347 48.8264C78.1861 48.5572 78.3276 48.2036 78.3311 47.8353V37.5559C78.3388 37.0369 78.2421 36.5216 78.047 36.0406C77.8519 35.5596 77.5623 35.1226 77.1952 34.7556C76.8282 34.3885 76.3912 34.0989 75.9102 33.9038C75.4292 33.7087 74.914 33.612 74.3949 33.6197H34.4383C33.9123 33.611 33.3899 33.7096 32.9031 33.9092C32.4163 34.1088 31.9752 34.4054 31.6065 34.7808C31.2337 35.1514 30.9389 35.5928 30.7395 36.0792C30.5401 36.5655 30.4402 37.087 30.4455 37.6126V47.9485C30.4455 48.1257 30.4808 48.3011 30.5495 48.4644C30.6181 48.6278 30.7187 48.7759 30.8453 48.8998C30.9719 49.0238 31.122 49.1212 31.2867 49.1864C31.4515 49.2516 31.6276 49.2833 31.8048 49.2795H39.5639L39.5922 45.0035Z" fill="#434343"/>
<path d="M34.4371 34.0728C33.5058 34.0771 32.6125 34.4425 31.9452 35.0922C31.6218 35.4158 31.3653 35.7998 31.1904 36.2226C31.0154 36.6453 30.9255 37.0984 30.9257 37.5558V47.8918C30.9256 48.0095 30.9492 48.1261 30.9951 48.2345C31.041 48.3429 31.1082 48.4409 31.1927 48.5228C31.2773 48.6047 31.3774 48.6688 31.4872 48.7112C31.597 48.7536 31.7142 48.7736 31.8319 48.7698H39.1379V45.0035C39.1379 44.8833 39.1856 44.768 39.2706 44.683C39.3556 44.598 39.4708 44.5503 39.591 44.5503H69.2115C69.3345 44.5501 69.4528 44.5969 69.5423 44.6811C69.6318 44.7654 69.6857 44.8808 69.6929 45.0035V48.7698H76.9423C77.1968 48.7662 77.4402 48.6647 77.622 48.4865C77.7055 48.4002 77.771 48.2983 77.8148 48.1865C77.8585 48.0747 77.8796 47.9553 77.8768 47.8353V37.5558C77.8834 37.0974 77.7964 36.6425 77.6211 36.2189C77.4458 35.7953 77.186 35.4119 76.8574 35.0922C76.5338 34.7688 76.1497 34.5123 75.727 34.3374C75.3042 34.1625 74.8512 34.0726 74.3937 34.0728H34.4371ZM39.591 49.6758H31.8319C31.3561 49.6759 30.8993 49.4888 30.5603 49.1551C30.2212 48.8213 30.027 48.3675 30.0195 47.8918V37.5558C30.0195 36.977 30.134 36.404 30.3563 35.8696C30.5787 35.3352 30.9045 34.8501 31.3151 34.4421C31.7257 34.0342 32.2129 33.7115 32.7487 33.4926C33.2845 33.2737 33.8583 33.1629 34.4371 33.1666H74.3937C74.9725 33.1629 75.5463 33.2737 76.0821 33.4926C76.6179 33.7115 77.1051 34.0342 77.5157 34.4421C77.9263 34.8501 78.2522 35.3352 78.4745 35.8696C78.6969 36.404 78.8113 36.977 78.8113 37.5558V47.8353C78.8088 48.323 78.6157 48.7904 78.2733 49.1378C77.9156 49.482 77.4387 49.6747 76.9423 49.6758H69.2115C69.0914 49.6758 68.9761 49.6282 68.8911 49.5432C68.8062 49.4583 68.7585 49.343 68.7585 49.2228V45.4565H40.0441V49.2228C40.0835 49.3229 40.0835 49.4342 40.0441 49.5343C39.9524 49.6221 39.8312 49.6726 39.7043 49.6758" fill="#A2A2A2"/>
<path d="M39.591 72.3584H69.2116L77.0273 74.4539C77.4036 74.5689 77.7331 74.8015 77.9675 75.1174C78.2019 75.4334 78.329 75.8161 78.33 76.2096V82.0432C78.3321 82.4159 78.2607 82.7852 78.1197 83.1302C77.9788 83.4752 77.7712 83.7891 77.5087 84.0537C77.2464 84.3213 76.9337 84.5342 76.5886 84.6801C76.2434 84.8259 75.8728 84.9017 75.4982 84.9032H33.3328C32.5817 84.9032 31.8615 84.605 31.3304 84.0739C30.7993 83.5429 30.501 82.8225 30.501 82.0714V76.2379C30.5008 75.836 30.6342 75.4454 30.8802 75.1276C31.1263 74.8098 31.4711 74.5827 31.8602 74.4822L39.591 72.3584Z" fill="#434343"/>
<path d="M39.6477 72.8119L31.9452 74.9074C31.658 74.9864 31.4038 75.1556 31.2202 75.3902C31.0366 75.6248 30.9334 75.9122 30.9258 76.2099V82.0436C30.9258 82.3597 30.988 82.6726 31.109 82.9647C31.23 83.2567 31.4073 83.522 31.6308 83.7455C31.8543 83.9691 32.1196 84.1464 32.4117 84.2673C32.7037 84.3883 33.0167 84.4506 33.3328 84.4506H75.4982C76.1353 84.4459 76.7453 84.1918 77.1972 83.7426C77.4184 83.5192 77.5925 83.2537 77.7092 82.9619C77.8259 82.6701 77.8829 82.3579 77.8769 82.0436V76.2099C77.8855 75.9122 77.7918 75.6206 77.6114 75.3836C77.4311 75.1466 77.1749 74.9785 76.8857 74.9074L69.1549 72.8119H39.6477ZM75.4982 85.3567H33.3328C32.4541 85.3567 31.6113 85.0076 30.99 84.3863C30.3686 83.7649 30.0196 82.9223 30.0196 82.0436V76.2099C30.016 75.7125 30.1783 75.228 30.4809 74.8331C30.7835 74.4382 31.209 74.1555 31.6903 74.0296L39.4778 71.9341H69.3531L77.1406 74.0296C77.6194 74.1599 78.0423 74.4437 78.3442 74.8376C78.646 75.2315 78.8101 75.7137 78.8114 76.2099V82.0436C78.8048 82.9273 78.4484 83.7723 77.8202 84.3939C77.5163 84.7002 77.1545 84.9431 76.7558 85.1084C76.3572 85.2737 75.9297 85.3581 75.4982 85.3567Z" fill="#A2A2A2"/>
<path d="M51.2838 147.854H25.5711C25.5328 147.859 25.494 147.854 25.4576 147.842C25.4211 147.829 25.388 147.808 25.3608 147.781C25.3335 147.754 25.3128 147.721 25.3002 147.684C25.2875 147.648 25.2834 147.609 25.2879 147.571C25.2879 147.534 25.2952 147.497 25.3095 147.462C25.3237 147.428 25.3446 147.397 25.3709 147.371C25.3972 147.344 25.4284 147.323 25.4627 147.309C25.4971 147.295 25.5339 147.288 25.5711 147.288H51.2838C51.321 147.288 51.3578 147.295 51.3921 147.309C51.4265 147.323 51.4577 147.344 51.484 147.371C51.5103 147.397 51.5311 147.428 51.5454 147.462C51.5596 147.497 51.5669 147.534 51.5669 147.571C51.5715 147.609 51.5673 147.648 51.5547 147.684C51.542 147.721 51.5213 147.754 51.4941 147.781C51.4668 147.808 51.4337 147.829 51.3973 147.842C51.3609 147.854 51.3221 147.859 51.2838 147.854ZM54.7102 147.854H53.5775C53.5392 147.859 53.5004 147.854 53.464 147.842C53.4275 147.829 53.3944 147.808 53.3672 147.781C53.3399 147.754 53.3192 147.721 53.3066 147.684C53.294 147.648 53.2898 147.609 53.2943 147.571C53.2943 147.534 53.3016 147.497 53.3159 147.462C53.3301 147.428 53.351 147.397 53.3773 147.371C53.4036 147.344 53.4348 147.323 53.4691 147.309C53.5035 147.295 53.5403 147.288 53.5775 147.288H54.7102C54.7474 147.288 54.7842 147.295 54.8186 147.309C54.853 147.323 54.8842 147.344 54.9105 147.371C54.9368 147.397 54.9576 147.428 54.9718 147.462C54.9861 147.497 54.9934 147.534 54.9934 147.571C54.998 147.609 54.9938 147.648 54.9812 147.684C54.9685 147.721 54.9478 147.754 54.9205 147.781C54.8933 147.808 54.8602 147.829 54.8238 147.842C54.7873 147.854 54.7485 147.859 54.7102 147.854ZM82.7166 147.854H57.004C56.9645 147.858 56.9246 147.853 56.8869 147.841C56.8492 147.829 56.8145 147.808 56.7852 147.782C56.7558 147.755 56.7324 147.723 56.7164 147.686C56.7004 147.65 56.6923 147.61 56.6925 147.571C56.6996 147.493 56.7355 147.421 56.7932 147.369C56.8508 147.316 56.926 147.287 57.004 147.288H82.7166C82.7538 147.288 82.7906 147.295 82.825 147.309C82.8594 147.323 82.8906 147.344 82.9169 147.371C82.9432 147.397 82.964 147.428 82.9783 147.462C82.9925 147.497 82.9998 147.534 82.9998 147.571C83.0044 147.609 83.0002 147.648 82.9876 147.684C82.9749 147.721 82.9542 147.754 82.927 147.781C82.8997 147.808 82.8666 147.829 82.8302 147.842C82.7938 147.854 82.7549 147.859 82.7166 147.854Z" fill="#A2A2A2"/>
<path d="M75.2427 52.5361H69.4941V60.9182H75.2427V52.5361Z" fill="#434343"/>
<path d="M69.8056 60.7195H74.8745V53.0171H69.8056V60.7195ZM75.2143 61.3991H69.5507L69.2109 61.0593V52.5639L69.5507 52.2241H75.2143L75.5541 52.5639V61.0593L75.2143 61.3991Z" fill="#A2A2A2"/>
<path d="M75.2148 73.8309C75.1247 73.8309 75.0382 73.7951 74.9745 73.7313C74.9108 73.6676 74.875 73.5812 74.875 73.4911V60.9179C74.875 60.8278 74.9108 60.7414 74.9745 60.6777C75.0382 60.614 75.1247 60.5781 75.2148 60.5781C75.3049 60.5781 75.3914 60.614 75.4551 60.6777C75.5188 60.7414 75.5546 60.8278 75.5546 60.9179V73.4911C75.5546 73.5812 75.5188 73.6676 75.4551 73.7313C75.3914 73.7951 75.3049 73.8309 75.2148 73.8309Z" fill="#A2A2A2"/>
<path d="M39.3638 52.5361H33.6152V60.9182H39.3638V52.5361Z" fill="#434343"/>
<path d="M33.955 60.7195H39.0239V53.0171H33.955V60.7195ZM39.3637 61.3991H33.7002L33.3604 61.0593V52.5639L33.7002 52.2241H39.3637L39.7035 52.5639V61.0593L39.3637 61.3991Z" fill="#A2A2A2"/>
<path d="M33.6162 73.8309C33.526 73.8309 33.4396 73.7951 33.3759 73.7313C33.3122 73.6676 33.2764 73.5812 33.2764 73.4911V60.9179C33.2764 60.8278 33.3122 60.7414 33.3759 60.6777C33.4396 60.614 33.526 60.5781 33.6162 60.5781C33.7063 60.5781 33.7927 60.614 33.8565 60.6777C33.9202 60.7414 33.956 60.8278 33.956 60.9179V73.4911C33.956 73.5812 33.9202 73.6676 33.8565 73.7313C33.7927 73.7951 33.7063 73.8309 33.6162 73.8309Z" fill="#A2A2A2"/>
<path d="M41.9715 45.4564C41.4608 45.4564 40.971 45.6592 40.6099 46.0204C40.2487 46.3815 40.0459 46.8713 40.0459 47.382V70.0363C40.0421 70.294 40.09 70.5499 40.1868 70.7887C40.2837 71.0275 40.4274 71.2443 40.6096 71.4265C40.7919 71.6087 41.0088 71.7526 41.2476 71.8494C41.4864 71.9462 41.7421 71.9941 41.9998 71.9903H66.9195C67.1616 71.9921 67.4016 71.9454 67.6253 71.853C67.849 71.7606 68.0519 71.6243 68.2221 71.4522C68.3969 71.284 68.535 71.0815 68.6276 70.8573C68.7202 70.6331 68.7654 70.3922 68.7602 70.1497V47.4954C68.7637 47.2531 68.7177 47.0126 68.6252 46.7886C68.5327 46.5647 68.3956 46.3619 68.2221 46.1927C67.8748 45.8502 67.4073 45.6571 66.9195 45.6546L41.9715 45.4564ZM66.9195 72.8116H41.9998C41.6271 72.8137 41.2577 72.7423 40.9127 72.6014C40.5676 72.4605 40.2538 72.2527 39.9892 71.9903C39.7182 71.7247 39.5034 71.4074 39.3575 71.0571C39.2115 70.7069 39.1375 70.3309 39.1397 69.9515V47.2971C39.1397 46.5461 39.438 45.8258 39.9691 45.2948C40.5002 44.7637 41.2204 44.4653 41.9715 44.4653H66.9195C67.6706 44.4653 68.3908 44.7637 68.9219 45.2948C69.4529 45.8258 69.7513 46.5461 69.7513 47.2971V69.9515C69.7408 70.6845 69.4464 71.3849 68.9301 71.9054C68.4051 72.4114 67.7052 72.6953 66.9761 72.6982" fill="#A2A2A2"/>
<path d="M30.4726 247.307C30.3524 247.307 30.2372 247.259 30.1522 247.174C30.0673 247.089 30.0195 246.974 30.0195 246.853V218.536C30.0195 218.415 30.0673 218.3 30.1522 218.215C30.2372 218.13 30.3524 218.083 30.4726 218.083C30.5928 218.083 30.708 218.13 30.793 218.215C30.878 218.3 30.9257 218.415 30.9257 218.536V246.853C30.9257 246.974 30.878 247.089 30.793 247.174C30.708 247.259 30.5928 247.307 30.4726 247.307Z" fill="#A2A2A2"/>
<path d="M78.331 247.335C78.2109 247.335 78.0956 247.287 78.0106 247.202C77.9257 247.117 77.8779 247.002 77.8779 246.882V218.564C77.8779 218.444 77.9257 218.329 78.0106 218.244C78.0956 218.159 78.2109 218.111 78.331 218.111C78.454 218.111 78.5723 218.157 78.6618 218.242C78.7513 218.326 78.8052 218.441 78.8124 218.564V246.882C78.8052 247.004 78.7513 247.12 78.6618 247.204C78.5723 247.288 78.454 247.335 78.331 247.335Z" fill="#A2A2A2"/>
<path d="M78.331 213.127C78.2109 213.127 78.0956 213.079 78.0106 212.994C77.9257 212.909 77.8779 212.794 77.8779 212.674V147.146C77.8779 147.026 77.9257 146.911 78.0106 146.826C78.0956 146.741 78.2109 146.693 78.331 146.693C78.454 146.693 78.5723 146.739 78.6618 146.824C78.7513 146.908 78.8052 147.023 78.8124 147.146V212.674C78.8052 212.796 78.7513 212.912 78.6618 212.996C78.5723 213.08 78.454 213.127 78.331 213.127Z" fill="#A2A2A2"/>
<path d="M30.4726 213.127C30.3524 213.127 30.2372 213.079 30.1522 212.994C30.0673 212.909 30.0195 212.794 30.0195 212.674V147.146C30.0195 147.026 30.0673 146.911 30.1522 146.826C30.2372 146.741 30.3524 146.693 30.4726 146.693C30.5928 146.693 30.708 146.741 30.793 146.826C30.878 146.911 30.9257 147.026 30.9257 147.146V212.674C30.9257 212.794 30.878 212.909 30.793 212.994C30.708 213.079 30.5928 213.127 30.4726 213.127Z" fill="#A2A2A2"/>
<path d="M39.592 249.714H69.2125V245.494H76.9433C77.129 245.492 77.3131 245.529 77.4838 245.602C77.6545 245.675 77.808 245.783 77.9344 245.919C78.0606 246.046 78.1605 246.196 78.2285 246.361C78.2965 246.526 78.3313 246.703 78.3309 246.882V257.19C78.34 257.713 78.2444 258.233 78.0499 258.72C77.8554 259.206 77.5658 259.648 77.1982 260.021C76.8257 260.392 76.3839 260.685 75.8979 260.884C75.412 261.083 74.8915 261.185 74.3664 261.182H34.4381C33.9129 261.185 33.3925 261.083 32.9066 260.884C32.4207 260.685 31.9788 260.392 31.6063 260.021C30.8638 259.266 30.447 258.249 30.4453 257.19V246.882C30.4453 246.703 30.4805 246.527 30.5488 246.362C30.6171 246.197 30.7172 246.047 30.8434 245.921C30.9696 245.794 31.1195 245.694 31.2844 245.626C31.4493 245.558 31.6261 245.523 31.8046 245.523H39.5637L39.592 249.714Z" fill="#434343"/>
<path d="M31.8319 245.947C31.5915 245.947 31.3611 246.043 31.1911 246.213C31.0212 246.383 30.9257 246.613 30.9257 246.853V257.161C30.9331 258.09 31.3054 258.979 31.9623 259.636C32.6193 260.293 33.5081 260.665 34.4371 260.673H74.3937C74.8512 260.673 75.3042 260.583 75.727 260.408C76.1497 260.233 76.5338 259.977 76.8574 259.653C77.5079 258.998 77.8741 258.113 77.8768 257.19V246.882C77.8794 246.64 77.788 246.406 77.622 246.231C77.4402 246.052 77.1968 245.951 76.9423 245.947H69.6929V249.714C69.6857 249.836 69.6318 249.952 69.5423 250.036C69.4528 250.12 69.3345 250.167 69.2115 250.167H39.591C39.4909 250.206 39.3796 250.206 39.2795 250.167C39.2406 250.057 39.2406 249.937 39.2795 249.827V246.061L31.8319 245.947ZM74.3087 261.579H34.4371C33.2678 261.571 32.1485 261.104 31.3216 260.277C30.4948 259.45 30.027 258.331 30.0195 257.161V246.853C30.0195 246.373 30.2105 245.912 30.5504 245.572C30.8902 245.232 31.3512 245.041 31.8319 245.041H39.591C39.7111 245.041 39.8264 245.089 39.9114 245.174C39.9963 245.259 40.0441 245.374 40.0441 245.494V249.261H68.7585V245.494C68.7585 245.374 68.8062 245.259 68.8911 245.174C68.9761 245.089 69.0914 245.041 69.2115 245.041H76.9423C77.1864 245.037 77.4288 245.082 77.6554 245.173C77.882 245.264 78.0883 245.399 78.2622 245.57C78.4361 245.741 78.5743 245.946 78.6686 246.171C78.7628 246.396 78.8114 246.638 78.8113 246.882V257.19C78.81 257.765 78.694 258.334 78.4704 258.864C78.2467 259.394 77.9198 259.874 77.5087 260.276C77.1051 260.693 76.6208 261.024 76.0852 261.248C75.5497 261.472 74.9742 261.584 74.3937 261.579" fill="#A2A2A2"/>
<path d="M39.5912 222.358H69.2118L77.0275 220.263C77.4039 220.158 77.7352 219.931 77.9705 219.619C78.2059 219.307 78.3322 218.926 78.3301 218.535V212.674C78.3323 212.301 78.2608 211.932 78.1199 211.587C77.979 211.242 77.7713 210.928 77.5089 210.663C77.2443 210.401 76.9305 210.193 76.5855 210.052C76.2404 209.911 75.871 209.84 75.4983 209.842H33.3329C32.5819 209.842 31.8616 210.14 31.3305 210.671C30.7995 211.202 30.5011 211.923 30.5011 212.674V218.507C30.4959 218.91 30.6275 219.303 30.8743 219.622C31.1212 219.941 31.4688 220.167 31.8604 220.263L39.5912 222.358Z" fill="#434343"/>
<path d="M39.6476 221.905H69.1549L76.8857 219.81C77.1701 219.74 77.4226 219.576 77.6024 219.345C77.7823 219.113 77.879 218.828 77.8768 218.535V212.673C77.8846 212.359 77.8284 212.046 77.7116 211.754C77.5948 211.462 77.4198 211.197 77.1974 210.974C76.9749 210.752 76.7096 210.577 76.4175 210.46C76.1254 210.343 75.8126 210.287 75.4981 210.295H33.3327C32.6992 210.295 32.0912 210.545 31.6406 210.99C31.19 211.435 30.9332 212.04 30.9257 212.673V218.507C30.9238 218.807 31.0234 219.099 31.2085 219.336C31.3936 219.572 31.6532 219.739 31.9452 219.81L39.6476 221.905ZM69.2115 222.811H39.4777L31.6903 220.716C31.2091 220.58 30.7855 220.291 30.4839 219.892C30.1823 219.493 30.0193 219.007 30.0195 218.507V212.673C30.0195 211.795 30.3686 210.952 30.9899 210.331C31.6113 209.709 32.454 209.36 33.3327 209.36H75.4981C76.3696 209.375 77.2008 209.73 77.8145 210.349C78.4282 210.968 78.7757 211.802 78.783 212.673V218.535C78.7835 219.028 78.6234 219.507 78.3271 219.901C78.0307 220.294 77.6141 220.58 77.1405 220.716L69.3531 222.811H69.2115Z" fill="#A2A2A2"/>
<path d="M75.2427 233.827H69.4941V242.209H75.2427V233.827Z" fill="#434343"/>
<path d="M69.8056 241.954H74.8745V234.224H69.8056V241.954ZM75.2143 242.634H69.5507L69.2109 242.294V233.799L69.5507 233.459H75.2143L75.5541 233.799V242.294L75.2143 242.634Z" fill="#A2A2A2"/>
<path d="M75.215 234.167C75.1679 234.167 75.1213 234.157 75.0781 234.139C75.0349 234.12 74.9961 234.092 74.9641 234.057C74.9322 234.023 74.9078 233.982 74.8924 233.938C74.8771 233.893 74.8713 233.846 74.8752 233.799V221.226C74.8752 221.135 74.911 221.049 74.9747 220.985C75.0384 220.922 75.1249 220.886 75.215 220.886C75.3051 220.886 75.3916 220.922 75.4553 220.985C75.519 221.049 75.5548 221.135 75.5548 221.226V233.799C75.5587 233.846 75.5529 233.893 75.5376 233.938C75.5223 233.982 75.4978 234.023 75.4659 234.057C75.4339 234.092 75.3951 234.12 75.3519 234.139C75.3088 234.157 75.2621 234.167 75.215 234.167Z" fill="#A2A2A2"/>
<path d="M39.3638 233.827H33.6152V242.209H39.3638V233.827Z" fill="#434343"/>
<path d="M33.955 241.954H39.0239V234.224H33.955V241.954ZM39.3637 242.634H33.7002L33.3604 242.294V233.799L33.7002 233.459H39.3637L39.7035 233.799V242.294L39.3637 242.634Z" fill="#A2A2A2"/>
<path d="M33.6174 234.167C33.5702 234.167 33.5236 234.157 33.4804 234.139C33.4372 234.12 33.3984 234.092 33.3665 234.057C33.3345 234.023 33.3101 233.982 33.2948 233.938C33.2795 233.893 33.2736 233.846 33.2775 233.799V221.226C33.2775 221.135 33.3133 221.049 33.3771 220.985C33.4408 220.922 33.5272 220.886 33.6174 220.886C33.7075 220.886 33.7939 220.922 33.8576 220.985C33.9214 221.049 33.9572 221.135 33.9572 221.226V233.799C33.9611 233.846 33.9552 233.893 33.9399 233.938C33.9246 233.982 33.9002 234.023 33.8682 234.057C33.8363 234.092 33.7975 234.12 33.7543 234.139C33.7111 234.157 33.6645 234.167 33.6174 234.167Z" fill="#A2A2A2"/>
<path d="M66.9195 222.811H41.9998C41.4821 222.817 40.9861 223.02 40.6122 223.378C40.2517 223.75 40.0488 224.247 40.0459 224.765V247.42C40.0399 247.673 40.0872 247.925 40.1848 248.159C40.2823 248.394 40.4279 248.605 40.6122 248.779C40.7896 248.959 41.0012 249.102 41.2347 249.199C41.4681 249.297 41.7186 249.346 41.9715 249.345H66.9195C67.4077 249.345 67.8759 249.151 68.2211 248.806C68.5663 248.461 68.7602 247.993 68.7602 247.505V224.85C68.7637 224.608 68.7177 224.368 68.6252 224.144C68.5327 223.92 68.3956 223.717 68.2221 223.548C67.8748 223.205 67.4073 223.012 66.9195 223.01V222.811ZM66.9195 250.365H41.9715C41.2204 250.365 40.5002 250.066 39.9691 249.535C39.438 249.004 39.1397 248.284 39.1397 247.533V224.879C39.1375 224.506 39.209 224.137 39.3499 223.792C39.4908 223.447 39.6985 223.133 39.9609 222.868C40.2265 222.597 40.5439 222.382 40.8941 222.236C41.2444 222.09 41.6204 222.016 41.9998 222.019H66.9195C67.6526 222.029 68.353 222.323 68.8734 222.84C69.3727 223.358 69.6562 224.046 69.6663 224.765V247.42C69.6634 248.149 69.3794 248.849 68.8734 249.374C68.3485 249.88 67.6486 250.164 66.9195 250.167" fill="#A2A2A2"/>
<path d="M29.5913 33.7322H0.197266C0.197266 33.7322 0.0273438 33.5907 0.0273438 33.4491C0.0273438 33.3075 0.0273584 33.166 0.197266 33.166H29.5913C29.5913 33.166 29.7612 33.1659 29.7612 33.4491C29.7612 33.7323 29.7612 33.7322 29.5913 33.7322Z" fill="#A2A2A2"/>
<path d="M30.101 261.55H0.197262C0.197262 261.55 0.0556641 261.55 0.0556641 261.267C0.0556641 260.984 0.0556727 260.984 0.197262 260.984H30.101C30.101 260.984 30.2709 260.984 30.2709 261.267C30.2709 261.55 30.2709 261.55 30.101 261.55Z" fill="#A2A2A2"/>
<path d="M71.8438 5.35821H62.0175C61.9446 5.35183 61.8762 5.31995 61.8244 5.26816C61.7726 5.21638 61.7408 5.14789 61.7344 5.07493C61.7344 4.99983 61.7642 4.92789 61.8173 4.87478C61.8704 4.82168 61.9424 4.79182 62.0175 4.79182H71.8438C71.8821 4.78727 71.921 4.79147 71.9574 4.80409C71.9938 4.81671 72.0269 4.8375 72.0541 4.86476C72.0814 4.89202 72.1021 4.92512 72.1148 4.96155C72.1274 4.99798 72.1316 5.03665 72.127 5.07493C72.127 5.15003 72.0972 5.22214 72.0441 5.27525C71.991 5.32836 71.9189 5.35821 71.8438 5.35821Z" fill="#A2A2A2"/>
<path d="M48.6231 5.3579H37.7207C37.6477 5.35152 37.5793 5.31964 37.5275 5.26785C37.4758 5.21606 37.4439 5.14757 37.4375 5.07461C37.4375 4.99951 37.4673 4.92757 37.5204 4.87447C37.5735 4.82136 37.6456 4.7915 37.7207 4.7915H48.6231C48.6982 4.7915 48.7702 4.82136 48.8233 4.87447C48.8764 4.92757 48.9063 4.99951 48.9063 5.07461C48.8999 5.14757 48.868 5.21606 48.8162 5.26785C48.7644 5.31964 48.6961 5.35152 48.6231 5.3579Z" fill="#A2A2A2"/>
<path d="M42.0529 6.51929L31.8018 5.07507L42.0529 3.63086V6.51929Z" fill="#A2A2A2"/>
<path d="M68.0781 3.63086L78.3575 5.07507L68.0781 6.51929V3.63086Z" fill="#A2A2A2"/>
<path d="M31.8027 30.9575C31.7297 30.9511 31.6614 30.9192 31.6096 30.8674C31.5578 30.8156 31.5259 30.7473 31.5195 30.6744V1.90326C31.5192 1.82532 31.5481 1.75023 31.6005 1.69257C31.653 1.6349 31.7251 1.59888 31.8027 1.5918C31.8424 1.5916 31.8817 1.59968 31.918 1.61565C31.9544 1.63162 31.9869 1.65507 32.0136 1.68444C32.0404 1.71381 32.0606 1.74855 32.073 1.78624C32.0855 1.82394 32.0898 1.86376 32.0859 1.90326V30.6744C32.0859 30.7495 32.056 30.8214 32.0029 30.8745C31.9498 30.9276 31.8778 30.9575 31.8027 30.9575Z" fill="#A2A2A2"/>
<path d="M78.3281 32.4016C78.253 32.4016 78.181 32.3718 78.1279 32.3187C78.0748 32.2656 78.0449 32.1936 78.0449 32.1185V1.90319C78.0449 1.82809 78.0748 1.75615 78.1279 1.70304C78.181 1.64994 78.253 1.62008 78.3281 1.62008C78.3676 1.61611 78.4075 1.62043 78.4452 1.63287C78.4829 1.64531 78.5175 1.66563 78.5469 1.69233C78.5763 1.71903 78.5997 1.75156 78.6157 1.78791C78.6317 1.82425 78.6398 1.8635 78.6396 1.90319V32.0618C78.6398 32.1015 78.6317 32.1408 78.6157 32.1771C78.5997 32.2135 78.5763 32.246 78.5469 32.2727C78.5175 32.2994 78.4829 32.3197 78.4452 32.3322C78.4075 32.3446 78.3676 32.3489 78.3281 32.3449" fill="#A2A2A2"/>
<path d="M109.877 85.1582H80.5117C80.4387 85.1518 80.3704 85.1199 80.3186 85.0681C80.2668 85.0164 80.2349 84.948 80.2285 84.8751C80.2285 84.8 80.2583 84.7279 80.3114 84.6748C80.3645 84.6217 80.4366 84.5918 80.5117 84.5918H109.877C109.952 84.5918 110.024 84.6217 110.078 84.6748C110.131 84.7279 110.161 84.8 110.161 84.8751C110.154 84.948 110.122 85.0164 110.07 85.0681C110.019 85.1199 109.95 85.1518 109.877 85.1582Z" fill="#A2A2A2"/>
<path d="M109.877 210.38H80.5117C80.4366 210.38 80.3645 210.351 80.3114 210.297C80.2583 210.244 80.2285 210.172 80.2285 210.097C80.2349 210.024 80.2668 209.956 80.3186 209.904C80.3704 209.852 80.4387 209.82 80.5117 209.814H109.877C109.95 209.82 110.019 209.852 110.07 209.904C110.122 209.956 110.154 210.024 110.161 210.097C110.161 210.172 110.131 210.244 110.078 210.297C110.024 210.351 109.952 210.38 109.877 210.38Z" fill="#A2A2A2"/>
<path d="M132.669 72.0469H72.0692C72.0309 72.0514 71.9921 72.0472 71.9556 72.0346C71.9192 72.022 71.8861 72.0012 71.8589 71.9739C71.8316 71.9467 71.8109 71.9136 71.7982 71.8771C71.7856 71.8407 71.7814 71.802 71.786 71.7637C71.786 71.6886 71.8158 71.6165 71.8689 71.5634C71.922 71.5103 71.9941 71.4805 72.0692 71.4805H132.669C132.745 71.4805 132.817 71.5103 132.87 71.5634C132.923 71.6165 132.953 71.6886 132.953 71.7637C132.957 71.802 132.953 71.8407 132.94 71.8771C132.928 71.9136 132.907 71.9467 132.88 71.9739C132.853 72.0012 132.819 72.022 132.783 72.0346C132.747 72.0472 132.708 72.0514 132.669 72.0469Z" fill="#A2A2A2"/>
<path d="M132.669 223.123H72.0692C72.0309 223.127 71.9921 223.123 71.9556 223.111C71.9192 223.098 71.8861 223.077 71.8589 223.05C71.8316 223.023 71.8109 222.99 71.7982 222.953C71.7856 222.917 71.7814 222.878 71.786 222.84C71.786 222.765 71.8158 222.693 71.8689 222.639C71.922 222.586 71.9941 222.557 72.0692 222.557H132.669C132.745 222.557 132.817 222.586 132.87 222.639C132.923 222.693 132.953 222.765 132.953 222.84C132.957 222.878 132.953 222.917 132.94 222.953C132.928 222.99 132.907 223.023 132.88 223.05C132.853 223.077 132.819 223.098 132.783 223.111C132.747 223.123 132.708 223.127 132.669 223.123Z" fill="#A2A2A2"/>
<path d="M53.7778 299.921H49.3036L40.61 285.677V299.921H36.1641V278.286H40.61L49.3319 292.558V278.286H53.7778V299.921Z" fill="#A2A2A2"/>
<path d="M74.0523 278.258V292.417C74.1161 293.464 73.9516 294.513 73.5703 295.491C73.1889 296.469 72.5997 297.352 71.8435 298.08C70.1633 299.54 67.9771 300.283 65.7552 300.147C63.5674 300.265 61.415 299.558 59.7235 298.165C58.9586 297.441 58.3599 296.56 57.9688 295.582C57.5776 294.604 57.4034 293.553 57.4581 292.502V278.06H61.904V292.218C61.8514 292.776 61.9149 293.337 62.0904 293.869C62.2658 294.4 62.5495 294.889 62.9234 295.305C63.7011 295.994 64.7179 296.35 65.7552 296.296C68.2755 296.296 69.5498 294.965 69.5781 292.332V277.918L74.0523 278.258Z" fill="#A2A2A2"/>
<path d="M53.2938 5.98101V9.74734H55.5593C56.1031 9.7883 56.6415 9.61565 57.0601 9.26598C57.2458 9.09277 57.3924 8.8818 57.4901 8.64739C57.5878 8.41298 57.6343 8.16043 57.6265 7.9066C57.6265 6.6323 56.9468 6.00935 55.5876 6.00935L53.2938 5.98101ZM53.2938 4.90491H55.3894C55.9079 4.91942 56.4163 4.75999 56.8336 4.4519C56.998 4.2887 57.1284 4.09451 57.2175 3.88067C57.3065 3.66682 57.3523 3.43754 57.3523 3.2059C57.3523 2.97427 57.3065 2.74499 57.2175 2.53114C57.1284 2.3173 56.998 2.12311 56.8336 1.95991C56.3882 1.67358 55.86 1.54402 55.3327 1.59176H53.2938V4.90491ZM51.9346 10.8518V0.458977H55.3894C56.2958 0.38667 57.1987 0.637453 57.938 1.16693C58.229 1.42296 58.4571 1.74276 58.6044 2.10129C58.7518 2.45983 58.8144 2.84755 58.7875 3.23425C58.7939 3.6948 58.6442 4.144 58.3627 4.50859C58.0781 4.90465 57.6846 5.20959 57.23 5.38644C57.7708 5.51284 58.2452 5.83586 58.561 6.29263C58.9036 6.73842 59.0835 7.28797 59.0707 7.85008C59.0896 8.26203 59.0183 8.67308 58.8618 9.0546C58.7052 9.43612 58.4673 9.77881 58.1645 10.0588C57.4316 10.6296 56.5147 10.9118 55.5876 10.8518H51.9346Z" fill="#A2A2A2"/>
</svg>
