<svg width="414" height="414" viewBox="0 0 414 414" fill="none" xmlns="http://www.w3.org/2000/svg">
<path d="M129.006 347.947C128.92 347.947 128.837 347.913 128.775 347.852C128.714 347.791 128.68 347.708 128.68 347.622V235.86C128.68 235.774 128.714 235.691 128.775 235.631C128.837 235.57 128.92 235.536 129.006 235.536C129.093 235.536 129.176 235.57 129.237 235.631C129.298 235.691 129.332 235.774 129.332 235.86V347.622C129.332 347.708 129.298 347.791 129.237 347.852C129.176 347.913 129.093 347.947 129.006 347.947Z" fill="#A3A3A3"/>
<path d="M129.006 215.926C128.92 215.926 128.837 215.892 128.775 215.831C128.714 215.77 128.68 215.688 128.68 215.601V102.778C128.68 102.691 128.714 102.609 128.775 102.548C128.837 102.487 128.92 102.453 129.006 102.453C129.093 102.453 129.176 102.487 129.237 102.548C129.298 102.609 129.332 102.691 129.332 102.778V215.601C129.332 215.688 129.298 215.77 129.237 215.831C129.176 215.892 129.093 215.926 129.006 215.926Z" fill="#A3A3A3"/>
<path d="M127.34 106.758L129.001 94.9629L130.663 106.758H127.34Z" fill="#A3A3A3"/>
<path d="M130.663 344.408L129.001 356.174L127.34 344.408H130.663Z" fill="#A3A3A3"/>
<path d="M187.456 94.8743H125.326C125.24 94.8743 125.157 94.8402 125.096 94.7793C125.034 94.7185 125 94.636 125 94.55C125 94.4639 125.034 94.3814 125.096 94.3206C125.157 94.2598 125.24 94.2256 125.326 94.2256H187.456C187.542 94.2256 187.625 94.2598 187.687 94.3206C187.748 94.3814 187.782 94.4639 187.782 94.55C187.782 94.636 187.748 94.7185 187.687 94.7793C187.625 94.8402 187.542 94.8743 187.456 94.8743Z" fill="#A3A3A3"/>
<path d="M188.407 356.469H125.328C125.282 356.469 125.237 356.46 125.196 356.442C125.154 356.423 125.116 356.397 125.086 356.364C125.055 356.33 125.032 356.291 125.017 356.248C125.003 356.205 124.997 356.16 125.001 356.115C125.001 356.029 125.036 355.946 125.097 355.886C125.158 355.825 125.241 355.791 125.328 355.791H188.407C188.493 355.791 188.576 355.825 188.637 355.886C188.699 355.946 188.733 356.029 188.733 356.115C188.737 356.16 188.732 356.205 188.717 356.248C188.703 356.291 188.679 356.33 188.648 356.364C188.618 356.397 188.58 356.423 188.539 356.442C188.497 356.46 188.452 356.469 188.407 356.469Z" fill="#A3A3A3"/>
<path d="M245.85 62.1121H229.057C228.97 62.1121 228.887 62.078 228.826 62.0171C228.765 61.9563 228.73 61.8738 228.73 61.7878C228.73 61.7017 228.765 61.6192 228.826 61.5584C228.887 61.4976 228.97 61.4634 229.057 61.4634H245.85C245.937 61.4634 246.02 61.4976 246.081 61.5584C246.142 61.6192 246.177 61.7017 246.177 61.7878C246.177 61.8738 246.142 61.9563 246.081 62.0171C246.02 62.078 245.937 62.1121 245.85 62.1121Z" fill="#A3A3A3"/>
<path d="M213.451 62.1121H195.649C195.562 62.1121 195.479 62.078 195.418 62.0171C195.357 61.9563 195.322 61.8738 195.322 61.7878C195.322 61.7017 195.357 61.6192 195.418 61.5584C195.479 61.4976 195.562 61.4634 195.649 61.4634H213.451C213.537 61.4634 213.62 61.4976 213.682 61.5584C213.743 61.6192 213.777 61.7017 213.777 61.7878C213.777 61.8738 213.743 61.9563 213.682 62.0171C213.62 62.078 213.537 62.1121 213.451 62.1121Z" fill="#A3A3A3"/>
<path d="M200.863 63.41L188.906 61.7586L200.863 60.1367V63.41Z" fill="#A3A3A3"/>
<path d="M241.008 60.1367L252.965 61.7586L241.008 63.41V60.1367Z" fill="#A3A3A3"/>
<path d="M188.908 93.6654C188.822 93.6654 188.739 93.6313 188.678 93.5705C188.616 93.5096 188.582 93.4271 188.582 93.3411V58.3379C188.582 58.2519 188.616 58.1694 188.678 58.1086C188.739 58.0477 188.822 58.0136 188.908 58.0136C188.954 58.0094 188.999 58.0148 189.042 58.0292C189.086 58.0437 189.125 58.0669 189.159 58.0975C189.192 58.128 189.219 58.1652 189.237 58.2066C189.255 58.248 189.265 58.2927 189.264 58.3379V93.3411C189.265 93.3863 189.255 93.431 189.237 93.4724C189.219 93.5138 189.192 93.551 189.159 93.5816C189.125 93.6121 189.086 93.6353 189.042 93.6498C188.999 93.6642 188.954 93.6696 188.908 93.6654Z" fill="#A3A3A3"/>
<path d="M252.965 94.8746C252.922 94.8746 252.88 94.8662 252.84 94.8499C252.8 94.8336 252.765 94.8097 252.734 94.7796C252.704 94.7495 252.68 94.7137 252.663 94.6744C252.647 94.635 252.639 94.5928 252.639 94.5502V58.338C252.639 58.252 252.673 58.1695 252.734 58.1087C252.795 58.0478 252.878 58.0137 252.965 58.0137C253.052 58.0137 253.135 58.0478 253.196 58.1087C253.257 58.1695 253.291 58.252 253.291 58.338V94.6682C253.291 94.7542 253.257 94.8367 253.196 94.8976C253.135 94.9584 253.052 94.9926 252.965 94.9926" fill="#A3A3A3"/>
<path d="M286.02 290.974C285.933 290.974 285.85 290.94 285.789 290.879C285.728 290.819 285.693 290.736 285.693 290.65V235.801C285.693 235.715 285.728 235.632 285.789 235.572C285.85 235.511 285.933 235.477 286.02 235.477C286.106 235.477 286.189 235.511 286.251 235.572C286.312 235.632 286.346 235.715 286.346 235.801V290.65C286.346 290.736 286.312 290.819 286.251 290.879C286.189 290.94 286.106 290.974 286.02 290.974Z" fill="#A3A3A3"/>
<path d="M286.02 215.926C285.933 215.926 285.85 215.892 285.789 215.831C285.728 215.77 285.693 215.688 285.693 215.602V161.195C285.693 161.109 285.728 161.026 285.789 160.966C285.85 160.905 285.933 160.871 286.02 160.871C286.106 160.871 286.189 160.905 286.251 160.966C286.312 161.026 286.346 161.109 286.346 161.195V215.602C286.346 215.688 286.312 215.77 286.251 215.831C286.189 215.892 286.106 215.926 286.02 215.926Z" fill="#A3A3A3"/>
<path d="M284.355 164.822L286.017 153.056L287.679 164.822H284.355Z" fill="#A3A3A3"/>
<path d="M287.679 286.345L286.017 298.14L284.355 286.345H287.679Z" fill="#A3A3A3"/>
<path d="M289.341 153.38H254.983C254.896 153.38 254.813 153.346 254.752 153.285C254.691 153.224 254.656 153.142 254.656 153.056C254.656 152.97 254.691 152.887 254.752 152.826C254.813 152.766 254.896 152.731 254.983 152.731H289.4C289.486 152.731 289.57 152.766 289.631 152.826C289.692 152.887 289.726 152.97 289.726 153.056C289.726 153.142 289.692 153.224 289.631 153.285C289.57 153.346 289.486 153.38 289.4 153.38" fill="#A3A3A3"/>
<path d="M289.341 298.347H254.983C254.896 298.347 254.813 298.312 254.752 298.252C254.691 298.191 254.656 298.108 254.656 298.022C254.656 297.936 254.691 297.854 254.752 297.793C254.813 297.732 254.896 297.698 254.983 297.698H289.4C289.486 297.698 289.57 297.732 289.631 297.793C289.692 297.854 289.726 297.936 289.726 298.022C289.726 298.108 289.692 298.191 289.631 298.252C289.57 298.312 289.486 298.347 289.4 298.347" fill="#A3A3A3"/>
<path d="M247.507 356.469H194.338C192.93 356.46 191.58 355.911 190.57 354.936C189.588 353.944 189.035 352.611 189.027 351.22V342.373H190.422C191.46 344.792 193.122 344.615 194.101 343.347C194.932 341.4 195.703 339.159 195.703 339.159H206.384C208.175 341.254 210.403 342.937 212.914 344.091C215.424 345.245 218.157 345.843 220.923 345.843C223.689 345.843 226.422 345.245 228.932 344.091C231.442 342.937 233.67 341.254 235.461 339.159H246.083C246.083 339.159 247.151 341.902 247.923 343.406C248.694 344.909 250.712 344.32 251.365 342.373H252.789V351.22C252.789 351.912 252.651 352.597 252.384 353.236C252.116 353.874 251.725 354.454 251.231 354.942C250.738 355.43 250.152 355.816 249.508 356.078C248.864 356.34 248.174 356.473 247.478 356.469" fill="#434343"/>
<path d="M189.708 342.786V351.22C189.707 351.839 189.83 352.453 190.07 353.025C190.309 353.597 190.66 354.116 191.102 354.552C192.004 355.437 193.218 355.934 194.485 355.938H247.654C248.282 355.939 248.903 355.818 249.484 355.58C250.064 355.342 250.592 354.993 251.036 354.552C251.484 354.12 251.839 353.602 252.078 353.029C252.318 352.456 252.438 351.84 252.431 351.22V342.786H251.926C251.763 343.26 251.481 343.684 251.108 344.019C250.734 344.355 250.28 344.59 249.79 344.703C249.363 344.744 248.933 344.66 248.553 344.461C248.173 344.262 247.861 343.956 247.654 343.582C247.001 342.314 246.23 340.368 245.903 339.572H235.815C233.972 341.68 231.692 343.367 229.131 344.517C226.571 345.667 223.79 346.254 220.98 346.236C218.171 346.252 215.391 345.665 212.83 344.514C210.27 343.364 207.99 341.678 206.145 339.572H196.057C195.82 340.28 195.226 341.931 194.603 343.435C194.36 343.801 194.023 344.095 193.626 344.287C193.229 344.479 192.788 344.562 192.349 344.526C191.725 344.526 190.865 344.054 190.153 342.668L189.708 342.786ZM247.654 357H194.336C192.763 357 191.253 356.378 190.14 355.272C189.028 354.166 188.402 352.666 188.402 351.102V341.607H190.687V341.931C191.102 342.875 191.636 343.435 192.17 343.494C192.421 343.505 192.671 343.45 192.894 343.337C193.118 343.223 193.308 343.054 193.446 342.845C194.218 340.928 194.959 338.776 194.989 338.776V338.422H206.323L206.471 338.599C208.214 340.628 210.379 342.257 212.818 343.372C215.257 344.488 217.91 345.062 220.595 345.057C223.283 345.067 225.94 344.491 228.38 343.37C230.82 342.249 232.983 340.611 234.718 338.569L235.103 338.864V338.422H246.17V338.746C246.17 338.746 247.238 341.489 247.98 342.934C248.082 343.124 248.237 343.28 248.427 343.385C248.616 343.489 248.832 343.538 249.048 343.523C249.612 343.523 250.146 342.845 250.443 341.961V341.607H252.787V351.102C252.789 351.858 252.641 352.606 252.351 353.305C252.061 354.003 251.634 354.638 251.095 355.172C249.99 356.261 248.498 356.875 246.942 356.882" fill="#A3A3A3"/>
<path d="M247.507 94.6089H194.338C192.93 94.6179 191.58 95.1673 190.57 96.1423C189.585 97.1192 189.03 98.445 189.027 99.8284V108.675H190.422C191.46 106.257 193.122 106.434 194.101 107.702C194.932 109.648 195.703 111.86 195.703 111.86H206.384C208.175 109.765 210.403 108.082 212.914 106.928C215.424 105.774 218.157 105.176 220.923 105.176C223.689 105.176 226.422 105.774 228.932 106.928C231.442 108.082 233.67 109.765 235.461 111.86H246.083C246.083 111.86 247.151 109.117 247.923 107.643C248.694 106.168 250.712 106.699 251.365 108.675H252.789V99.8284C252.786 98.445 252.231 97.1192 251.246 96.1423C250.239 95.1621 248.887 94.6118 247.478 94.6089" fill="#434343"/>
<path d="M235.666 111.506H245.753C246.08 110.71 246.851 108.764 247.474 107.554C247.68 107.162 247.999 106.84 248.39 106.63C248.781 106.42 249.227 106.331 249.67 106.375C250.155 106.492 250.602 106.73 250.971 107.065C251.339 107.4 251.616 107.822 251.776 108.292H252.281V99.8284C252.283 99.2087 252.161 98.5948 251.922 98.0226C251.682 97.4505 251.33 96.9315 250.886 96.4962C250.44 96.0596 249.912 95.715 249.332 95.4822C248.751 95.2494 248.13 95.133 247.504 95.1397H194.335C193.099 95.1629 191.922 95.6671 191.057 96.5439C190.191 97.4207 189.706 98.6001 189.706 99.8284V108.292H190.211C190.384 107.817 190.676 107.393 191.061 107.063C191.445 106.732 191.908 106.506 192.406 106.404C192.847 106.384 193.286 106.476 193.681 106.672C194.076 106.869 194.413 107.162 194.661 107.525C195.284 108.999 195.878 110.651 196.115 111.388H206.203C208.048 109.282 210.328 107.596 212.888 106.446C215.449 105.295 218.229 104.708 221.038 104.724C223.849 104.698 226.632 105.281 229.194 106.432C231.756 107.583 234.035 109.274 235.873 111.388L235.666 111.506ZM246.08 112.568H235.369V112.096L234.983 112.42C233.25 110.375 231.088 108.732 228.648 107.606C226.209 106.48 223.55 105.899 220.86 105.903C218.172 105.895 215.516 106.472 213.076 107.593C210.636 108.713 208.473 110.351 206.737 112.391L206.589 112.568H195.255V112.214C195.255 112.214 194.483 110.032 193.712 108.144C193.572 107.938 193.381 107.77 193.158 107.657C192.935 107.543 192.687 107.488 192.436 107.495C191.902 107.495 191.368 108.115 190.953 109.058V109.383H188.668V99.8284C188.668 98.2642 189.293 96.7641 190.406 95.6581C191.519 94.552 193.028 93.9307 194.602 93.9307H247.771C249.324 93.9293 250.815 94.5327 251.925 95.6115C252.463 96.1452 252.89 96.7796 253.18 97.4781C253.47 98.1765 253.618 98.9253 253.616 99.681V109.206H251.272V108.822C251.198 108.463 251.03 108.13 250.785 107.856C250.54 107.582 250.227 107.376 249.878 107.26C249.648 107.255 249.422 107.317 249.228 107.437C249.033 107.558 248.877 107.731 248.78 107.938C248.068 109.324 247.029 112.037 247 112.066V112.391L246.08 112.568Z" fill="#A3A3A3"/>
<path d="M247.507 153.528H194.338C193.642 153.532 192.952 153.399 192.308 153.137C191.664 152.875 191.078 152.489 190.585 152.001C190.091 151.513 189.699 150.933 189.432 150.294C189.165 149.656 189.027 148.971 189.027 148.279V137.692C189.029 137.404 189.09 137.119 189.207 136.855C189.325 136.591 189.496 136.354 189.71 136.159C189.906 135.968 190.138 135.818 190.392 135.717C190.647 135.615 190.919 135.565 191.193 135.569H206.028C207.769 137.821 210.02 139.633 212.597 140.858C215.175 142.082 218.007 142.685 220.864 142.617C223.712 142.621 226.526 141.987 229.094 140.761C231.662 139.536 233.92 137.751 235.699 135.54H250.534C251.096 135.534 251.639 135.745 252.047 136.129C252.246 136.326 252.404 136.561 252.511 136.819C252.618 137.077 252.672 137.354 252.67 137.633V148.22C252.67 148.912 252.532 149.597 252.265 150.235C251.998 150.874 251.606 151.454 251.113 151.942C250.619 152.43 250.033 152.816 249.389 153.078C248.745 153.34 248.055 153.473 247.359 153.469" fill="#434343"/>
<path d="M191.135 136.158C190.713 136.17 190.311 136.339 190.007 136.63C189.861 136.778 189.746 136.953 189.669 137.145C189.593 137.338 189.557 137.544 189.562 137.751V148.337C189.555 148.958 189.675 149.573 189.915 150.146C190.154 150.719 190.509 151.237 190.957 151.67C191.401 152.11 191.929 152.459 192.509 152.697C193.09 152.935 193.711 153.057 194.339 153.056H247.508C248.136 153.057 248.758 152.935 249.338 152.697C249.919 152.459 250.446 152.11 250.891 151.67C251.333 151.233 251.684 150.714 251.923 150.142C252.163 149.57 252.286 148.957 252.285 148.337V137.692C252.293 137.482 252.254 137.273 252.172 137.08C252.09 136.886 251.967 136.713 251.81 136.571C251.664 136.422 251.488 136.303 251.295 136.222C251.101 136.141 250.893 136.099 250.683 136.1H236.056C234.228 138.331 231.919 140.125 229.3 141.35C226.681 142.575 223.818 143.199 220.924 143.177C218.025 143.253 215.149 142.652 212.526 141.423C209.903 140.194 207.607 138.371 205.822 136.1L191.135 136.158ZM247.508 154.088H194.339C193.574 154.094 192.815 153.949 192.107 153.66C191.399 153.371 190.756 152.945 190.215 152.407C189.667 151.879 189.233 151.246 188.937 150.547C188.641 149.847 188.491 149.096 188.494 148.337V137.692C188.492 137.347 188.559 137.005 188.692 136.686C188.824 136.367 189.019 136.077 189.266 135.834C189.511 135.591 189.803 135.397 190.123 135.266C190.444 135.134 190.788 135.067 191.135 135.067H206.326V135.244C208.048 137.442 210.268 139.204 212.804 140.387C215.341 141.571 218.123 142.143 220.924 142.056C223.499 142.099 226.054 141.595 228.418 140.578C230.782 139.561 232.9 138.054 234.631 136.158L235.492 135.274L235.878 135.598V135.126H250.713C251.064 135.124 251.413 135.19 251.739 135.321C252.065 135.453 252.361 135.647 252.612 135.893C252.861 136.134 253.058 136.423 253.19 136.743C253.323 137.062 253.389 137.405 253.383 137.751V148.337C253.387 149.096 253.236 149.847 252.94 150.547C252.645 151.246 252.21 151.879 251.662 152.407C251.122 152.945 250.479 153.371 249.77 153.66C249.062 153.949 248.303 154.094 247.538 154.088" fill="#A3A3A3"/>
<path d="M218.579 225.893H182.707C182.621 225.893 182.538 225.859 182.476 225.798C182.415 225.737 182.381 225.655 182.381 225.569C182.381 225.482 182.415 225.4 182.476 225.339C182.538 225.278 182.621 225.244 182.707 225.244H218.579C218.665 225.244 218.748 225.278 218.809 225.339C218.87 225.4 218.905 225.482 218.905 225.569C218.905 225.655 218.87 225.737 218.809 225.798C218.748 225.859 218.665 225.893 218.579 225.893ZM222.554 225.893H221.219C221.133 225.893 221.05 225.859 220.988 225.798C220.927 225.737 220.893 225.655 220.893 225.569C220.893 225.482 220.927 225.4 220.988 225.339C221.05 225.278 221.133 225.244 221.219 225.244H222.554C222.641 225.244 222.724 225.278 222.785 225.339C222.846 225.4 222.881 225.482 222.881 225.569C222.881 225.655 222.846 225.737 222.785 225.798C222.724 225.859 222.641 225.893 222.554 225.893ZM258.693 225.893H225.314C225.227 225.893 225.144 225.859 225.083 225.798C225.022 225.737 224.987 225.655 224.987 225.569C224.987 225.482 225.022 225.4 225.083 225.339C225.144 225.278 225.227 225.244 225.314 225.244H258.782C258.868 225.244 258.951 225.278 259.012 225.339C259.074 225.4 259.108 225.482 259.108 225.569C259.108 225.655 259.074 225.737 259.012 225.798C258.951 225.859 258.868 225.893 258.782 225.893" fill="#A3A3A3"/>
<path d="M189.028 137.987C188.892 137.987 188.76 137.935 188.661 137.842C188.561 137.749 188.502 137.621 188.494 137.486V108.852C188.494 108.711 188.55 108.576 188.651 108.477C188.751 108.377 188.887 108.321 189.028 108.321C189.17 108.321 189.306 108.377 189.406 108.477C189.506 108.576 189.562 108.711 189.562 108.852V137.486C189.555 137.621 189.495 137.749 189.396 137.842C189.296 137.935 189.165 137.987 189.028 137.987Z" fill="#A3A3A3"/>
<path d="M189.028 226.099C188.887 226.099 188.751 226.043 188.651 225.944C188.55 225.844 188.494 225.709 188.494 225.568V148.278C188.494 148.138 188.55 148.003 188.651 147.903C188.751 147.803 188.887 147.748 189.028 147.748C189.17 147.748 189.306 147.803 189.406 147.903C189.506 148.003 189.562 148.138 189.562 148.278V225.568C189.562 225.709 189.506 225.844 189.406 225.944C189.306 226.043 189.17 226.099 189.028 226.099Z" fill="#A3A3A3"/>
<path d="M252.757 137.987C252.62 137.987 252.489 137.935 252.389 137.842C252.29 137.749 252.23 137.621 252.223 137.485V108.822C252.23 108.684 252.288 108.553 252.387 108.455C252.486 108.357 252.617 108.299 252.757 108.292C252.827 108.292 252.896 108.305 252.961 108.332C253.026 108.359 253.085 108.398 253.134 108.447C253.184 108.496 253.223 108.555 253.25 108.619C253.277 108.684 253.291 108.753 253.291 108.822V137.485C253.283 137.621 253.223 137.749 253.124 137.842C253.025 137.935 252.893 137.987 252.757 137.987Z" fill="#A3A3A3"/>
<path d="M252.757 226.099C252.615 226.099 252.479 226.043 252.379 225.944C252.279 225.844 252.223 225.709 252.223 225.568V148.278C252.223 148.138 252.279 148.003 252.379 147.903C252.479 147.803 252.615 147.748 252.757 147.748C252.898 147.748 253.034 147.803 253.134 147.903C253.234 148.003 253.291 148.138 253.291 148.278V225.568C253.291 225.709 253.234 225.844 253.134 225.944C253.034 226.043 252.898 226.099 252.757 226.099Z" fill="#A3A3A3"/>
<path d="M237.535 132.974L237.357 133.269L237.535 132.974L238.396 131.263L239.078 129.465L239.553 127.607L239.85 125.72L239.939 123.832L239.82 121.915L239.494 120.028L238.96 118.2L238.248 116.401L237.357 114.72H240.324L241.185 116.902L241.778 119.173L242.134 121.473L242.253 123.832L242.134 126.162L241.749 128.462L241.126 130.733L240.265 132.915L240.176 133.151L240.117 133.269H237.357" fill="#434343"/>
<path d="M238.012 132.885H239.851L240.712 130.703L241.305 128.491L241.661 126.221L241.81 123.921V121.621L241.424 119.35L240.831 117.138L240.089 115.251H238.071L238.665 116.372L239.406 118.17L239.94 120.058L240.267 121.974V123.921V125.867L239.97 127.813L239.495 129.7L238.813 131.529L238.012 132.885ZM240.356 133.681H237.389V133.21L237.033 133.033L237.211 132.708L238.071 131.027L238.724 129.288L239.199 127.459L239.466 125.631V123.744V121.886L239.139 120.058L238.635 118.259L237.953 116.519L236.766 114.278H240.653L241.602 116.725L242.225 119.026L242.581 121.385V123.744V126.132L242.195 128.491L241.572 130.792L240.356 133.681Z" fill="#A3A3A3"/>
<path d="M204.369 133.092L203.479 131.352L202.796 129.553L202.321 127.695L202.025 125.808L201.936 123.891L202.054 121.974L202.351 120.058L202.885 118.2L203.597 116.431L204.487 114.72H201.52L201.402 114.986L200.601 117.168L200.007 119.438L199.681 121.768L199.592 124.098L199.74 126.427L200.156 128.727L200.779 130.998L201.669 133.151L201.728 133.269H204.487" fill="#434343"/>
<path d="M201.994 132.885H203.804L203.121 131.558L202.439 129.701L201.934 127.813L201.608 125.867V123.921V121.945L201.934 119.999L202.468 118.111L203.181 116.283L203.804 115.133H201.727L200.926 117.315L200.362 119.556L200.036 121.827V124.127L200.184 126.427L200.599 128.668L201.222 130.88L201.994 132.885ZM204.486 133.682H201.519V133.328L200.629 131.146L199.976 128.845L199.561 126.516L199.383 124.127V121.768L199.739 119.409L200.303 117.079L201.371 114.337H205.257L204.071 116.608L203.359 118.377L202.854 120.176L202.557 122.033V123.921V125.808L202.854 127.666L203.329 129.465L204.011 131.234L204.872 132.915H204.634L204.486 133.682Z" fill="#A3A3A3"/>
<path d="M220.955 105.402C224.663 105.431 228.28 106.551 231.349 108.619C234.418 110.688 236.802 113.613 238.2 117.027C239.599 120.44 239.95 124.188 239.209 127.8C238.467 131.411 236.667 134.723 234.035 137.319C231.402 139.915 228.056 141.678 224.416 142.386C220.777 143.095 217.009 142.716 213.586 141.299C210.162 139.882 207.238 137.49 205.181 134.423C203.123 131.357 202.026 127.754 202.025 124.068C202.033 121.607 202.529 119.171 203.485 116.9C204.441 114.629 205.838 112.568 207.596 110.834C209.354 109.101 211.439 107.729 213.731 106.796C216.024 105.864 218.478 105.39 220.955 105.402Z" fill="#D3D3D3"/>
<path d="M220.953 105.933C217.351 105.962 213.838 107.05 210.857 109.06C207.875 111.071 205.56 113.913 204.201 117.23C202.843 120.546 202.503 124.188 203.223 127.696C203.944 131.204 205.694 134.422 208.251 136.943C210.809 139.465 214.061 141.178 217.596 141.865C221.132 142.553 224.793 142.186 228.118 140.809C231.444 139.432 234.285 137.107 236.284 134.128C238.282 131.149 239.349 127.649 239.349 124.068C239.325 119.24 237.375 114.618 233.926 111.218C230.477 107.818 225.811 105.917 220.953 105.933ZM220.953 143.236C217.147 143.201 213.436 142.047 210.288 139.92C207.14 137.793 204.696 134.787 203.263 131.282C201.831 127.776 201.474 123.928 202.238 120.222C203.002 116.515 204.853 113.116 207.557 110.453C210.261 107.79 213.698 105.982 217.434 105.257C221.17 104.532 225.039 104.921 228.552 106.377C232.066 107.833 235.067 110.29 237.179 113.438C239.29 116.586 240.417 120.285 240.417 124.068C240.386 129.173 238.319 134.057 234.671 137.65C231.022 141.243 226.089 143.252 220.953 143.236Z" fill="#A3A3A3"/>
<path d="M247.507 297.551H194.338C192.929 297.554 191.577 298.104 190.57 299.084C190.08 299.572 189.691 300.152 189.427 300.789C189.162 301.427 189.026 302.11 189.027 302.8V313.386C189.035 313.939 189.259 314.467 189.653 314.858C190.046 315.249 190.578 315.472 191.134 315.48H205.969C207.705 313.223 209.954 311.407 212.533 310.182C215.112 308.957 217.947 308.357 220.804 308.432C223.654 308.422 226.469 309.053 229.039 310.279C231.608 311.505 233.865 313.293 235.639 315.509H250.474C250.756 315.515 251.036 315.463 251.296 315.357C251.556 315.25 251.792 315.091 251.988 314.89C252.189 314.701 252.349 314.472 252.456 314.218C252.563 313.965 252.616 313.691 252.611 313.416V302.829C252.612 302.14 252.476 301.456 252.211 300.819C251.946 300.181 251.558 299.602 251.068 299.114C250.061 298.133 248.709 297.583 247.3 297.58" fill="#434343"/>
<path d="M236.057 314.949H250.684C250.893 314.955 251.1 314.919 251.294 314.843C251.488 314.767 251.664 314.652 251.812 314.507C251.965 314.363 252.087 314.189 252.168 313.996C252.25 313.803 252.29 313.596 252.287 313.386V302.8C252.287 302.18 252.164 301.567 251.925 300.995C251.686 300.423 251.335 299.904 250.892 299.468C250.452 299.022 249.925 298.669 249.344 298.431C248.762 298.193 248.138 298.074 247.51 298.082H194.341C193.712 298.074 193.088 298.193 192.507 298.431C191.926 298.669 191.399 299.022 190.958 299.468C190.511 299.9 190.156 300.418 189.916 300.991C189.676 301.564 189.557 302.179 189.564 302.8V313.386C189.559 313.803 189.719 314.206 190.009 314.507C190.314 314.793 190.717 314.951 191.136 314.949H205.823C207.615 312.687 209.913 310.872 212.535 309.648C215.157 308.425 218.03 307.827 220.925 307.901C223.818 307.873 226.68 308.492 229.299 309.712C231.918 310.932 234.228 312.722 236.057 314.949ZM250.684 316.011H235.849V315.539L235.464 315.863C233.737 313.695 231.535 311.947 229.026 310.751C226.517 309.555 223.767 308.944 220.985 308.963C218.203 308.907 215.448 309.499 212.938 310.692C210.429 311.885 208.236 313.646 206.535 315.834V316.04H191.344C190.645 316.032 189.976 315.758 189.475 315.274C189.228 315.03 189.033 314.741 188.901 314.422C188.768 314.103 188.701 313.761 188.703 313.416V302.829C188.696 302.066 188.844 301.309 189.14 300.604C189.436 299.899 189.873 299.262 190.424 298.73C190.965 298.192 191.608 297.766 192.316 297.477C193.024 297.188 193.783 297.043 194.548 297.05H247.717C248.483 297.043 249.242 297.188 249.95 297.477C250.658 297.766 251.301 298.192 251.842 298.73C252.393 299.262 252.83 299.899 253.126 300.604C253.422 301.309 253.57 302.066 253.563 302.829V313.416C253.565 313.761 253.498 314.103 253.365 314.422C253.233 314.741 253.037 315.03 252.791 315.274C252.281 315.762 251.601 316.037 250.892 316.04" fill="#A3A3A3"/>
<path d="M189.028 342.787C188.887 342.787 188.751 342.731 188.651 342.631C188.55 342.532 188.494 342.397 188.494 342.256V313.593C188.494 313.452 188.55 313.317 188.651 313.217C188.751 313.118 188.887 313.062 189.028 313.062C189.17 313.062 189.306 313.118 189.406 313.217C189.506 313.317 189.562 313.452 189.562 313.593V342.256C189.562 342.397 189.506 342.532 189.406 342.631C189.306 342.731 189.17 342.787 189.028 342.787Z" fill="#A3A3A3"/>
<path d="M189.028 303.33C188.887 303.33 188.751 303.274 188.651 303.175C188.55 303.075 188.494 302.94 188.494 302.8V225.48C188.494 225.339 188.55 225.204 188.651 225.105C188.751 225.005 188.887 224.949 189.028 224.949C189.17 224.949 189.306 225.005 189.406 225.105C189.506 225.204 189.562 225.339 189.562 225.48V302.8C189.562 302.94 189.506 303.075 189.406 303.175C189.306 303.274 189.17 303.33 189.028 303.33Z" fill="#A3A3A3"/>
<path d="M252.819 342.787C252.678 342.787 252.542 342.731 252.441 342.631C252.341 342.532 252.285 342.397 252.285 342.256V313.593C252.285 313.452 252.341 313.317 252.441 313.217C252.542 313.118 252.678 313.062 252.819 313.062C252.961 313.062 253.097 313.118 253.197 313.217C253.297 313.317 253.353 313.452 253.353 313.593V342.256C253.353 342.397 253.297 342.532 253.197 342.631C253.097 342.731 252.961 342.787 252.819 342.787Z" fill="#A3A3A3"/>
<path d="M252.761 303.33C252.619 303.33 252.483 303.274 252.383 303.175C252.283 303.075 252.227 302.94 252.227 302.8V225.48C252.227 225.339 252.283 225.204 252.383 225.105C252.483 225.005 252.619 224.949 252.761 224.949C252.902 224.949 253.038 225.005 253.138 225.105C253.238 225.204 253.295 225.339 253.295 225.48V302.8C253.295 302.94 253.238 303.075 253.138 303.175C253.038 303.274 252.902 303.33 252.761 303.33Z" fill="#A3A3A3"/>
<path d="M237.535 318.075L237.357 317.78L237.535 318.075L238.396 319.785L239.078 321.584L239.553 323.412L239.85 325.329L239.939 327.216L239.82 329.133L239.494 331.02L238.96 332.849L238.248 334.618L237.357 336.328H240.324L241.185 334.146L241.778 331.875L242.134 329.546L242.253 327.216L242.134 324.887L241.749 322.557L241.126 320.316L240.265 318.134L240.176 317.868L240.117 317.78H237.357" fill="#434343"/>
<path d="M238.014 335.945H240.151L240.922 333.999L241.516 331.787L241.872 329.516V327.216L241.723 324.916L241.367 322.645L240.744 320.434L239.854 318.193H238.014L238.756 319.638L239.439 321.466L239.943 323.324L240.24 325.27V327.216V329.162L239.913 331.079L239.379 332.967L238.667 334.765L238.014 335.945ZM240.596 336.712H236.709L237.896 334.441L238.608 332.701L239.112 330.902L239.409 329.074V327.216V325.358L239.142 323.501L238.667 321.702L238.014 319.933L236.976 317.986L237.332 317.78V317.396H240.299L240.566 317.986L241.456 320.198L242.079 322.469L242.465 324.828L242.613 327.216L242.465 329.575L242.109 331.934L241.486 334.235L240.596 336.712Z" fill="#A3A3A3"/>
<path d="M204.369 317.957L203.479 319.697L202.796 321.495L202.321 323.353L202.025 325.24L201.936 327.157L202.054 329.074L202.351 330.991L202.885 332.819L203.597 334.618L204.487 336.328H201.52L201.402 336.063L200.601 333.851L200.007 331.61L199.681 329.28L199.592 326.951L199.74 324.592L200.156 322.292L200.779 320.05L201.669 317.868L201.728 317.78H204.487" fill="#434343"/>
<path d="M201.784 335.945H203.801L203.238 334.824L202.496 332.996L201.962 331.109L201.635 329.162V327.187V325.24L201.932 323.294L202.436 321.407L203.149 319.549L203.831 318.193H202.021L201.19 320.198L200.538 322.41L200.152 324.68L200.003 326.98V329.28L200.33 331.551L200.894 333.792L201.784 335.945ZM205.136 336.712H201.25L201.042 336.24L200.211 333.999L199.618 331.699L199.262 329.339V326.98L199.44 324.592L199.825 322.233L200.478 319.962L201.546 317.396H204.513V318.016L204.78 318.163L203.89 319.874L203.238 321.643L202.733 323.442L202.466 325.299V327.187V329.074L202.763 330.932L203.267 332.731L203.979 334.5L205.136 336.712Z" fill="#A3A3A3"/>
<path d="M220.949 308.373C224.65 308.408 228.258 309.53 231.318 311.599C234.378 313.668 236.754 316.591 238.146 319.999C239.538 323.408 239.884 327.149 239.14 330.753C238.397 334.356 236.597 337.66 233.968 340.249C231.338 342.838 227.997 344.595 224.364 345.3C220.732 346.005 216.971 345.626 213.555 344.21C210.139 342.795 207.221 340.406 205.168 337.345C203.115 334.284 202.02 330.688 202.02 327.01C202.031 324.551 202.53 322.118 203.488 319.851C204.445 317.583 205.843 315.525 207.601 313.795C209.358 312.064 211.442 310.695 213.732 309.764C216.023 308.834 218.475 308.361 220.949 308.373Z" fill="#D3D3D3"/>
<path d="M220.953 308.874C217.351 308.903 213.838 309.992 210.857 312.002C207.875 314.012 205.56 316.855 204.201 320.171C202.843 323.487 202.503 327.129 203.223 330.637C203.944 334.145 205.694 337.363 208.251 339.885C210.809 342.406 214.061 344.119 217.596 344.807C221.132 345.495 224.793 345.127 228.118 343.75C231.444 342.373 234.285 340.049 236.284 337.07C238.282 334.091 239.349 330.59 239.349 327.01C239.325 322.181 237.375 317.56 233.926 314.16C230.477 310.759 225.811 308.858 220.953 308.874ZM220.953 346.177C217.147 346.142 213.436 344.989 210.288 342.861C207.14 340.734 204.696 337.728 203.263 334.223C201.831 330.718 201.474 326.869 202.238 323.163C203.002 319.457 204.853 316.058 207.557 313.395C210.261 310.732 213.698 308.924 217.434 308.198C221.17 307.473 225.039 307.863 228.552 309.319C232.066 310.774 235.067 313.231 237.179 316.379C239.29 319.527 240.417 323.226 240.417 327.01C240.386 332.114 238.319 336.998 234.671 340.591C231.022 344.184 226.089 346.193 220.953 346.177Z" fill="#A3A3A3"/>
<path d="M190.865 136.159C190.779 136.159 190.696 136.124 190.635 136.064C190.573 136.003 190.539 135.92 190.539 135.834V130.261C190.539 130.175 190.573 130.092 190.635 130.032C190.696 129.971 190.779 129.937 190.865 129.937C190.952 129.937 191.035 129.971 191.096 130.032C191.157 130.092 191.192 130.175 191.192 130.261V135.628C191.192 135.714 191.157 135.796 191.096 135.857C191.035 135.918 190.952 135.952 190.865 135.952" fill="#A3A3A3"/>
<path d="M195.346 136.158C195.259 136.158 195.176 136.124 195.115 136.063C195.054 136.003 195.02 135.92 195.02 135.834V132.915C195.02 132.829 195.054 132.746 195.115 132.685C195.176 132.625 195.259 132.59 195.346 132.59C195.432 132.59 195.515 132.625 195.577 132.685C195.638 132.746 195.672 132.829 195.672 132.915V135.687C195.672 135.773 195.638 135.855 195.577 135.916C195.515 135.977 195.432 136.011 195.346 136.011" fill="#A3A3A3"/>
<path d="M193.655 107.555L194.219 108.528L193.655 107.555L193.121 107.024L192.29 106.817L191.489 106.876L190.747 107.289L190.243 108.056L190.035 108.764L190.273 109.796L190.243 109.825L191.43 109.737L191.222 108.734L191.43 108.233L192.142 107.938L192.676 108.38L192.824 109.029L193.061 109.471L193.418 110.209L194.041 111.801L194.278 112.745L193.863 113.688L192.379 114.75L191.311 115.635L190.925 116.903V130.408L191.014 132.119L191.934 133.387L193.477 134.006L195.316 134.153V132.885L194.456 132.738L193.329 132.561L192.557 132.06L192.142 130.88V117.787L192.349 116.431L193.922 115.222L194.842 114.632L195.376 113.688L195.405 112.715L195.227 111.447L194.901 110.415L194.219 108.528" fill="#434343"/>
<path d="M193.566 133.711H194.99V133.21H194.396L193.298 133.033L192.527 132.561V132.384L192.112 131.204V117.787L192.319 116.401C192.304 116.333 192.304 116.263 192.319 116.195L193.892 114.986L194.752 114.396L195.227 113.6V112.715L195.049 111.506L194.07 108.557L193.536 107.643L193.091 107.2L192.408 107.024H191.726L191.133 107.348L190.658 108.026V108.586L190.836 109.324H191.34L191.192 108.675C191.178 108.607 191.178 108.537 191.192 108.469L191.4 107.967C191.412 107.925 191.435 107.887 191.466 107.857C191.497 107.826 191.536 107.803 191.578 107.79L192.29 107.495C192.339 107.467 192.396 107.452 192.453 107.452C192.51 107.452 192.567 107.467 192.616 107.495L193.15 107.938C193.15 107.938 193.15 107.938 193.15 108.115L193.328 108.763L193.892 109.854L194.515 111.506L194.752 112.479C194.766 112.512 194.773 112.547 194.773 112.582C194.773 112.618 194.766 112.653 194.752 112.685L194.307 113.629L192.824 114.691L191.845 115.516L191.489 116.637V130.084V131.706L192.319 132.826L193.566 133.711ZM195.316 134.478L193.477 134.33L191.934 133.74L191.014 132.472C191.001 132.445 190.994 132.414 190.994 132.384C190.994 132.353 191.001 132.323 191.014 132.295V130.585V116.814L191.4 115.546V115.398L192.438 114.514L193.892 113.511L194.218 112.744L194.011 111.889L193.417 110.326L192.824 109.176L192.675 108.557L192.379 108.321H191.993L191.845 108.645L192.052 109.53C192.084 109.616 192.084 109.71 192.052 109.795C191.976 109.822 191.892 109.822 191.815 109.795H190.598C190.529 109.8 190.46 109.783 190.401 109.746C190.343 109.708 190.297 109.654 190.272 109.589C190.256 109.557 190.248 109.522 190.248 109.486C190.248 109.45 190.256 109.415 190.272 109.383L190.064 108.498C190.064 108.498 190.064 108.498 190.064 108.321L190.272 107.613L190.806 106.817L191.518 106.404H192.319L193.12 106.611C193.143 106.598 193.169 106.591 193.195 106.591C193.221 106.591 193.246 106.598 193.269 106.611L193.803 107.112L194.396 108.085L195.375 111.034L195.642 112.567V113.6L195.079 114.543L194.189 115.133L192.735 116.254L192.557 117.492V130.467L192.913 131.529L193.536 131.912L195.464 132.236C195.536 132.249 195.6 132.285 195.649 132.339C195.697 132.392 195.726 132.46 195.731 132.531V133.829C195.75 133.865 195.759 133.906 195.759 133.947C195.759 133.988 195.75 134.028 195.731 134.065H195.524" fill="#A3A3A3"/>
<path d="M251.035 135.923C250.949 135.923 250.866 135.889 250.805 135.828C250.743 135.767 250.709 135.685 250.709 135.598V130.467C250.709 130.381 250.743 130.299 250.805 130.238C250.866 130.177 250.949 130.143 251.035 130.143C251.122 130.143 251.205 130.177 251.266 130.238C251.327 130.299 251.362 130.381 251.362 130.467V135.598C251.362 135.685 251.327 135.767 251.266 135.828C251.205 135.889 251.122 135.923 251.035 135.923Z" fill="#A3A3A3"/>
<path d="M246.557 135.923C246.47 135.923 246.387 135.888 246.326 135.828C246.265 135.767 246.23 135.684 246.23 135.598V132.915C246.23 132.829 246.265 132.746 246.326 132.685C246.387 132.625 246.47 132.59 246.557 132.59C246.643 132.59 246.726 132.625 246.788 132.685C246.849 132.746 246.883 132.829 246.883 132.915V135.598C246.883 135.684 246.849 135.767 246.788 135.828C246.726 135.888 246.643 135.923 246.557 135.923Z" fill="#A3A3A3"/>
<path d="M248.247 107.555L247.683 108.528L248.247 107.555L248.781 107.024L249.611 106.817L250.442 106.876L251.154 107.289L251.688 108.056L251.896 108.764L251.629 109.796L251.688 109.825L250.472 109.737L250.68 108.734L250.472 108.233L249.76 107.938L249.255 108.38L249.077 109.029L248.87 109.471L248.484 110.209L247.891 111.801L247.624 112.745L248.069 113.688L249.552 114.75L250.591 115.635L251.006 116.903V130.408L250.917 132.119L249.968 133.387L248.425 134.006L246.585 134.153V132.885L247.446 132.738L248.573 132.561L249.344 132.06L249.76 130.88V117.787L249.552 116.431L247.98 115.222L247.089 114.632L246.526 113.688L246.496 112.715L246.674 111.447L247.03 110.415L247.683 108.528" fill="#434343"/>
<path d="M246.913 133.21V133.888H248.338L249.762 133.328L250.593 132.207V130.585V116.961L250.237 115.841L249.228 115.015L247.774 113.953L247.358 113.01C247.345 112.977 247.337 112.942 247.337 112.907C247.337 112.871 247.345 112.836 247.358 112.803L247.596 111.86L248.219 110.208L248.812 108.999L248.961 108.439C248.961 108.439 248.961 108.439 248.961 108.262L249.495 107.82C249.544 107.791 249.601 107.776 249.658 107.776C249.715 107.776 249.771 107.791 249.821 107.82L250.533 108.115C250.575 108.127 250.613 108.15 250.645 108.181C250.676 108.212 250.698 108.25 250.711 108.292L250.919 108.793C250.933 108.861 250.933 108.931 250.919 108.999V109.648H251.423L251.601 108.911L251.423 108.351L250.978 107.672L250.385 107.348H249.702L249.02 107.525L248.575 107.967L248.041 108.881L247.062 111.83L246.884 113.069V113.894L247.388 114.691L248.219 115.251L249.791 116.49C249.807 116.522 249.815 116.557 249.815 116.593C249.815 116.628 249.807 116.664 249.791 116.696L250.029 118.052V131.175L249.613 132.354V132.531L248.842 133.003L246.913 133.21ZM246.587 134.537H246.379C246.361 134.5 246.352 134.46 246.352 134.419C246.352 134.378 246.361 134.337 246.379 134.301V133.003C246.385 132.932 246.414 132.864 246.462 132.81C246.511 132.757 246.575 132.721 246.646 132.708L248.575 132.384L249.198 132.001L249.554 130.939V117.787L249.376 116.607L247.892 115.487L247.002 114.897L246.439 113.953V112.951L246.617 111.653L246.973 110.562L247.626 108.675L248.219 107.702L248.753 107.201L249.554 106.994H250.355L251.067 107.407L251.572 108.203L251.779 108.911C251.795 108.938 251.803 108.968 251.803 108.999C251.803 109.03 251.795 109.061 251.779 109.088L251.542 110.031C251.542 110.031 251.364 110.297 251.245 110.267H250.029C249.952 110.294 249.868 110.294 249.791 110.267C249.76 110.182 249.76 110.088 249.791 110.002L249.999 109.117L249.851 108.793H249.465L249.168 109.029V109.589L248.545 110.828L247.982 112.391L247.774 113.216L248.1 113.983L249.524 114.986L250.593 115.87V116.018L250.978 117.286V130.88V132.62C250.991 132.648 250.998 132.678 250.998 132.708C250.998 132.739 250.991 132.769 250.978 132.797L250.059 134.065L248.516 134.655L246.676 134.802" fill="#A3A3A3"/>
<path d="M190.867 320.994C190.781 320.994 190.698 320.96 190.637 320.899C190.575 320.838 190.541 320.756 190.541 320.67V315.303C190.541 315.217 190.575 315.134 190.637 315.074C190.698 315.013 190.781 314.979 190.867 314.979C190.954 314.979 191.037 315.013 191.098 315.074C191.159 315.134 191.194 315.217 191.194 315.303V320.67C191.194 320.756 191.159 320.838 191.098 320.899C191.037 320.96 190.954 320.994 190.867 320.994Z" fill="#A3A3A3"/>
<path d="M195.348 318.576C195.261 318.576 195.178 318.542 195.117 318.481C195.056 318.42 195.021 318.338 195.021 318.252V315.303C195.021 315.217 195.056 315.134 195.117 315.074C195.178 315.013 195.261 314.979 195.348 314.979C195.434 314.979 195.517 315.013 195.579 315.074C195.64 315.134 195.674 315.217 195.674 315.303V318.252C195.674 318.338 195.64 318.42 195.579 318.481C195.517 318.542 195.434 318.576 195.348 318.576Z" fill="#A3A3A3"/>
<path d="M193.655 343.583L194.219 342.61L193.655 343.583L193.121 344.114L192.29 344.32L191.489 344.261L190.747 343.848L190.243 343.081L190.035 342.374L190.273 341.342L190.243 341.312L191.43 341.401L191.222 342.403L191.43 342.905L192.142 343.199L192.676 342.757L192.824 342.108L193.061 341.666L193.418 340.929L194.041 339.336L194.278 338.363L193.863 337.449L192.379 336.387L191.311 335.503L190.925 334.235V320.729L191.014 319.019L191.934 317.721L193.477 317.131L195.316 316.984V318.252L194.456 318.399L193.329 318.576L192.557 319.078L192.142 320.257V333.35L192.349 334.707L193.922 335.916L194.842 336.505L195.376 337.449L195.405 338.422L195.227 339.69L194.901 340.722L194.219 342.61" fill="#434343"/>
<path d="M192.263 343.966H191.58L190.927 343.553L190.453 342.845V342.285L190.631 341.577H191.135L190.987 342.226C190.973 342.284 190.973 342.345 190.987 342.403L191.194 342.934C191.24 342.998 191.301 343.049 191.372 343.081L192.085 343.376C192.131 343.412 192.189 343.431 192.248 343.431C192.307 343.431 192.364 343.412 192.411 343.376L192.945 342.934V342.344L193.538 341.135L194.161 339.513L194.399 338.569C194.429 338.494 194.429 338.409 194.399 338.334L193.954 337.419C193.968 337.371 193.968 337.32 193.954 337.272L192.5 336.24L191.491 335.414L191.135 334.294V320.847V319.225L191.966 318.104L193.39 317.544H194.814V318.193L193.123 318.458L192.352 318.959C192.339 319.008 192.339 319.058 192.352 319.107L191.936 320.316V333.468L192.144 334.824V335.001L193.746 336.24L194.577 336.8L195.081 337.596V338.452L194.933 339.661L193.924 342.609L193.39 343.524L192.945 343.966H192.263Z" fill="#A3A3A3"/>
<path d="M251.041 320.994C250.955 320.994 250.872 320.96 250.81 320.899C250.749 320.838 250.715 320.756 250.715 320.67V315.303C250.715 315.217 250.749 315.134 250.81 315.074C250.872 315.013 250.955 314.979 251.041 314.979C251.128 314.979 251.211 315.013 251.272 315.074C251.333 315.134 251.368 315.217 251.368 315.303V320.67C251.368 320.756 251.333 320.838 251.272 320.899C251.211 320.96 251.128 320.994 251.041 320.994Z" fill="#A3A3A3"/>
<path d="M246.561 318.576C246.474 318.576 246.391 318.542 246.33 318.481C246.269 318.42 246.234 318.338 246.234 318.252V315.303C246.234 315.217 246.269 315.134 246.33 315.074C246.391 315.013 246.474 314.979 246.561 314.979C246.647 314.979 246.73 315.013 246.792 315.074C246.853 315.134 246.887 315.217 246.887 315.303V318.252C246.887 318.338 246.853 318.42 246.792 318.481C246.73 318.542 246.647 318.576 246.561 318.576Z" fill="#A3A3A3"/>
<path d="M248.247 343.583L247.683 342.61L248.247 343.583L248.781 344.114L249.611 344.32L250.442 344.261L251.154 343.848L251.688 343.081L251.896 342.374L251.629 341.342L251.688 341.312L250.472 341.401L250.68 342.403L250.472 342.905L249.76 343.199L249.255 342.757L249.077 342.108L248.87 341.666L248.484 340.929L247.891 339.336L247.624 338.363L248.069 337.449L249.552 336.387L250.591 335.503L251.006 334.235V320.729L250.917 319.019L249.968 317.721L248.425 317.131L246.585 316.984V318.252L247.446 318.399L248.573 318.576L249.344 319.078L249.76 320.257V333.35L249.552 334.707L247.98 335.916L247.089 336.505L246.526 337.449L246.496 338.422L246.674 339.69L247.03 340.722L247.683 342.61" fill="#434343"/>
<path d="M249.046 343.848H249.728H250.411L251.004 343.524L251.449 342.816L251.627 342.256L251.449 341.548H250.945V342.197C250.959 342.255 250.959 342.316 250.945 342.374L250.737 342.905C250.692 342.968 250.63 343.019 250.559 343.052L249.847 343.347C249.8 343.383 249.743 343.402 249.684 343.402C249.625 343.402 249.567 343.383 249.521 343.347L248.986 342.905L248.808 342.256L248.245 341.135L247.622 339.513L247.384 338.54C247.369 338.508 247.36 338.473 247.36 338.437C247.36 338.401 247.369 338.366 247.384 338.334L247.8 337.39C247.787 337.342 247.787 337.291 247.8 337.243L249.283 336.181L250.262 335.385L250.618 334.264V320.788V319.196L249.788 318.075L248.364 317.515H246.939V318.163H247.533L248.63 318.311L249.402 318.812C249.414 318.861 249.414 318.911 249.402 318.96L249.817 320.169V333.262L249.58 334.677C249.596 334.704 249.604 334.735 249.604 334.766C249.604 334.797 249.596 334.827 249.58 334.854L248.037 336.093L247.177 336.653L246.672 337.449V338.363L246.85 339.572L247.177 340.545L247.829 342.403L248.364 343.317L249.046 343.848ZM249.699 344.644L248.898 344.438L248.364 343.907L247.77 342.934L246.791 339.985L246.583 338.658V337.626L247.147 336.682L248.067 336.063L249.521 334.943L249.699 333.734V320.729L249.343 319.697L248.72 319.284L246.791 318.989C246.717 318.97 246.652 318.929 246.604 318.871C246.556 318.812 246.528 318.74 246.524 318.665V317.397C246.506 317.36 246.496 317.32 246.496 317.279C246.496 317.238 246.506 317.198 246.524 317.161C246.6 317.131 246.685 317.131 246.761 317.161L248.601 317.338L250.144 317.957L251.063 319.255C251.063 319.255 251.063 319.255 251.063 319.431V321.142V334.766L250.678 336.004C250.69 336.053 250.69 336.103 250.678 336.152L249.61 337.036L248.186 338.068L247.859 338.835L248.067 339.661L248.66 341.253L249.254 342.403V342.993L249.55 343.258L249.936 343.081L250.084 342.787L249.877 341.872C249.849 341.786 249.849 341.693 249.877 341.607C249.954 341.58 250.037 341.58 250.114 341.607H251.331C251.4 341.602 251.469 341.62 251.528 341.657C251.586 341.694 251.632 341.749 251.657 341.813V342.02L251.865 342.905C251.865 342.905 251.865 342.905 251.865 343.081L251.657 343.76L251.123 344.556L250.411 344.969H249.61L249.699 344.644Z" fill="#A3A3A3"/>
<path d="M218.753 63.233V67.5383H221.393C222.031 67.572 222.658 67.3609 223.144 66.9486C223.366 66.7551 223.54 66.5136 223.653 66.2426C223.766 65.9716 223.815 65.6785 223.796 65.3857C223.796 63.9407 222.995 63.233 221.423 63.233H218.753ZM218.753 61.965H221.156C221.76 61.9932 222.357 61.8164 222.847 61.4637C223.052 61.2899 223.214 61.0723 223.322 60.8271C223.43 60.5819 223.481 60.3156 223.47 60.0482C223.499 59.7774 223.46 59.5038 223.356 59.2517C223.253 58.9996 223.088 58.7768 222.877 58.6033C222.354 58.2786 221.742 58.124 221.126 58.1609H218.753V61.965ZM217.15 68.8064V57.0109H221.126C222.177 56.9397 223.221 57.22 224.093 57.8071C224.424 58.1023 224.683 58.4676 224.853 58.8759C225.022 59.2842 225.097 59.7252 225.072 60.1662C225.083 60.7055 224.916 61.2335 224.598 61.6701C224.249 62.0955 223.801 62.4296 223.292 62.6432C223.904 62.814 224.445 63.1758 224.835 63.6753C225.166 64.1835 225.332 64.7806 225.31 65.3857C225.331 65.8534 225.249 66.3201 225.069 66.7531C224.89 67.186 224.618 67.5748 224.271 67.8922C223.426 68.5436 222.372 68.8684 221.304 68.8064H217.15Z" fill="#A3A3A3"/>
<path d="M128.438 220.556V229.933H130.129C130.679 229.975 131.231 229.893 131.745 229.694C132.258 229.495 132.72 229.184 133.096 228.783C133.827 227.876 134.187 226.728 134.105 225.569V224.861C134.167 223.732 133.832 222.616 133.156 221.706C132.805 221.33 132.377 221.033 131.901 220.834C131.425 220.636 130.912 220.541 130.396 220.556H128.438ZM126.836 231.231V219.435H130.367C131.339 219.421 132.3 219.654 133.156 220.113C133.957 220.58 134.606 221.266 135.025 222.089C135.484 223.005 135.718 224.015 135.707 225.038V225.775C135.723 226.799 135.489 227.81 135.025 228.724C134.614 229.546 133.962 230.224 133.156 230.67C132.239 231.143 131.221 231.385 130.189 231.378L126.836 231.231Z" fill="#A3A3A3"/>
<path d="M281.684 227.574C281.63 228.411 281.859 229.241 282.336 229.933C282.534 230.209 282.797 230.432 283.103 230.581C283.409 230.73 283.747 230.801 284.087 230.788C284.531 230.798 284.968 230.681 285.347 230.451C285.726 230.221 286.03 229.888 286.223 229.491V225.421C286.029 225.027 285.723 224.698 285.344 224.473C284.965 224.248 284.528 224.137 284.087 224.153C283.747 224.142 283.41 224.215 283.104 224.364C282.799 224.513 282.535 224.734 282.336 225.008C281.848 225.772 281.619 226.671 281.684 227.574ZM280.141 227.397C280.078 226.222 280.435 225.062 281.15 224.124C281.437 223.722 281.821 223.398 282.267 223.181C282.712 222.965 283.206 222.863 283.701 222.885C284.175 222.864 284.647 222.948 285.083 223.132C285.52 223.315 285.909 223.594 286.223 223.947V219.317H287.618V231.909H286.194V230.965C285.882 231.336 285.492 231.635 285.051 231.84C284.61 232.046 284.129 232.152 283.642 232.152C283.155 232.152 282.674 232.046 282.233 231.84C281.792 231.635 281.402 231.336 281.09 230.965C280.393 230.006 280.038 228.844 280.082 227.662L280.141 227.397Z" fill="#A3A3A3"/>
<circle opacity="0.3" cx="207" cy="207" r="206.65" stroke="white" stroke-width="0.7"/>
<path d="M400.366 393.46V395H392.008V393.782L397.776 386.74H392.106V385.2H400.184V386.418L394.416 393.46H400.366ZM409.649 393.46V395H401.291V393.782L407.059 386.74H401.389V385.2H409.467V386.418L403.699 393.46H409.649Z" fill="#EF7B05"/>
</svg>
