<svg width="415" height="415" viewBox="0 0 415 415" fill="none" xmlns="http://www.w3.org/2000/svg">
<path d="M203.946 201.341H178.286C178.213 201.341 178.142 201.312 178.091 201.26C178.039 201.208 178.01 201.138 178.01 201.065C178.016 200.994 178.047 200.927 178.098 200.877C178.148 200.826 178.215 200.795 178.286 200.789H203.946C204.017 200.795 204.083 200.826 204.134 200.877C204.184 200.927 204.215 200.994 204.221 201.065C204.221 201.138 204.192 201.208 204.141 201.26C204.089 201.312 204.019 201.341 203.946 201.341ZM207.229 201.341H206.125C206.052 201.341 205.982 201.312 205.93 201.26C205.878 201.208 205.849 201.138 205.849 201.065C205.856 200.994 205.887 200.927 205.937 200.877C205.988 200.826 206.054 200.795 206.125 200.789H207.229C207.302 200.789 207.372 200.818 207.424 200.87C207.476 200.922 207.505 200.992 207.505 201.065C207.509 201.102 207.505 201.14 207.493 201.176C207.481 201.211 207.46 201.243 207.434 201.27C207.407 201.296 207.375 201.317 207.34 201.329C207.304 201.341 207.266 201.345 207.229 201.341ZM234.82 201.341H209.519C209.483 201.341 209.447 201.334 209.413 201.32C209.38 201.306 209.35 201.286 209.324 201.26C209.298 201.234 209.278 201.204 209.264 201.171C209.25 201.137 209.243 201.101 209.243 201.065C209.249 200.994 209.28 200.927 209.331 200.877C209.381 200.826 209.448 200.795 209.519 200.789H234.82C234.893 200.789 234.964 200.818 235.015 200.87C235.067 200.922 235.096 200.992 235.096 201.065C235.101 201.102 235.096 201.14 235.084 201.176C235.072 201.211 235.052 201.243 235.025 201.27C234.999 201.296 234.966 201.317 234.931 201.329C234.895 201.341 234.858 201.345 234.82 201.341Z" fill="#A3A3A3"/>
<path d="M183.807 300.09C183.69 300.09 183.577 300.043 183.495 299.961C183.412 299.878 183.365 299.766 183.365 299.648V200.872C183.365 200.755 183.412 200.642 183.495 200.559C183.577 200.477 183.69 200.43 183.807 200.43C183.924 200.43 184.036 200.477 184.119 200.559C184.202 200.642 184.248 200.755 184.248 200.872V299.648C184.248 299.766 184.202 299.878 184.119 299.961C184.036 300.043 183.924 300.09 183.807 300.09Z" fill="#A3A3A3"/>
<path d="M183.807 201.313C183.69 201.313 183.577 201.267 183.495 201.184C183.412 201.101 183.365 200.989 183.365 200.872V102.315C183.365 102.198 183.412 102.086 183.495 102.003C183.577 101.921 183.69 101.874 183.807 101.874C183.924 101.874 184.036 101.921 184.119 102.003C184.202 102.086 184.248 102.198 184.248 102.315V200.872C184.248 200.989 184.202 201.101 184.119 201.184C184.036 201.267 183.924 201.313 183.807 201.313Z" fill="#A3A3A3"/>
<path d="M230.104 298.076C229.987 298.076 229.874 298.029 229.791 297.947C229.709 297.864 229.662 297.752 229.662 297.634V201.065C229.662 200.948 229.709 200.836 229.791 200.753C229.874 200.67 229.987 200.624 230.104 200.624C230.221 200.624 230.333 200.67 230.416 200.753C230.499 200.836 230.545 200.948 230.545 201.065V297.634C230.545 297.752 230.499 297.864 230.416 297.947C230.333 298.029 230.221 298.076 230.104 298.076Z" fill="#A3A3A3"/>
<path d="M230.104 201.506C229.987 201.506 229.874 201.46 229.791 201.377C229.709 201.294 229.662 201.182 229.662 201.065V104.495C229.662 104.378 229.709 104.266 229.791 104.183C229.874 104.1 229.987 104.054 230.104 104.054C230.221 104.054 230.333 104.1 230.416 104.183C230.499 104.266 230.545 104.378 230.545 104.495V201.065C230.545 201.182 230.499 201.294 230.416 201.377C230.333 201.46 230.221 201.506 230.104 201.506Z" fill="#A3A3A3"/>
<path d="M183.803 125.52L185.458 123.864H187.886H188.024L189.073 124.747L190.783 125.796L192.632 126.485L194.563 126.899L196.55 126.927L198.509 126.623L200.385 125.989L202.123 125.051L203.668 123.809L203.724 123.864H210.511L211.201 124.444L212.856 125.492L214.677 126.265L216.636 126.706L218.595 126.817L220.582 126.568L222.458 125.961L224.224 125.051L225.797 123.864H228.418L230.073 125.52L228.418 123.864L230.073 125.52V137.191V137.136L229.963 138.019L229.604 138.819L229.08 139.509L228.39 140.033L227.59 140.391L226.735 140.502H226.762L187.114 138.515L186.258 138.405L185.458 138.074L184.768 137.55L184.244 136.86L183.913 136.06L183.803 135.204L183.913 136.06L184.244 136.86L184.768 137.55L185.458 138.074L186.258 138.405L187.114 138.515L226.762 140.502H226.735L227.59 140.391L228.39 140.033L229.08 139.509L229.604 138.819L229.963 138.019L230.073 137.136V137.191V125.52L228.418 123.864H225.797L224.224 125.051L222.458 125.961L220.582 126.568L218.595 126.817L216.636 126.706L214.677 126.265L212.856 125.492L211.201 124.444L210.511 123.864H203.724L203.668 123.809L202.123 125.051L200.385 125.989L198.509 126.623L196.55 126.927L194.563 126.899L192.632 126.485L190.783 125.796L189.073 124.747L188.024 123.864H187.886H185.458L183.803 125.52V135.204L183.913 136.06L184.244 136.86L184.768 137.55L185.458 138.074L186.258 138.405L187.114 138.515L226.762 140.502H226.735L227.59 140.391L228.39 140.033L229.08 139.509L229.604 138.819L229.963 138.019L230.073 137.136V137.191V125.52L228.418 123.864L230.073 125.52L228.418 123.864H225.797L224.224 125.051L222.458 125.961L220.582 126.568L218.595 126.817L216.636 126.706L214.677 126.265L212.856 125.492L211.201 124.444L210.511 123.864H203.724L203.668 123.809L202.123 125.051L200.385 125.989L198.509 126.623L196.55 126.927L194.563 126.899L192.632 126.485L190.783 125.796L189.073 124.747L188.024 123.864H187.886H185.458L183.803 125.52L185.458 123.864H187.886H188.024L189.073 124.747L190.783 125.796L192.632 126.485L194.563 126.899L196.55 126.927L198.509 126.623L200.385 125.989L202.123 125.051L203.668 123.809L203.724 123.864H210.511L211.201 124.444L212.856 125.492L214.677 126.265L216.636 126.706L218.595 126.817L220.582 126.568L222.458 125.961L224.224 125.051L225.797 123.864H228.418L230.073 125.52V137.191V137.136L229.963 138.019L229.604 138.819L229.08 139.509L228.39 140.033L227.59 140.391L226.735 140.502H226.762L187.114 138.515L186.258 138.405L185.458 138.074L184.768 137.55L184.244 136.86L183.913 136.06L183.803 135.204V125.52Z" fill="#D3D3D3"/>
<path d="M230.101 104.826V94.2311C230.107 93.7953 230.025 93.3627 229.859 92.9597C229.693 92.5566 229.447 92.1913 229.136 91.8858C228.835 91.5757 228.475 91.33 228.077 91.164C227.678 90.998 227.25 90.915 226.818 90.9201H187.087C186.213 90.9274 185.378 91.2795 184.763 91.8996C184.148 92.5197 183.803 93.3578 183.803 94.2311V104.771C183.798 104.94 183.833 105.109 183.904 105.262C183.976 105.415 184.084 105.55 184.217 105.654C184.346 105.761 184.497 105.837 184.66 105.875C184.823 105.913 184.992 105.913 185.155 105.875C199.527 102.66 214.432 102.66 228.805 105.875C228.963 105.908 229.127 105.905 229.284 105.866C229.442 105.827 229.588 105.753 229.713 105.65C229.837 105.546 229.937 105.416 230.004 105.269C230.072 105.121 230.105 104.961 230.101 104.799" fill="#434343"/>
<path d="M206.927 103.005C214.353 103.006 221.756 103.83 229.001 105.461C229.087 105.501 229.181 105.521 229.276 105.521C229.372 105.521 229.466 105.501 229.552 105.461C229.692 105.322 229.772 105.134 229.773 104.937V94.2314C229.783 93.8525 229.714 93.4756 229.572 93.1243C229.429 92.773 229.216 92.4549 228.945 92.1896C228.683 91.9223 228.37 91.711 228.023 91.5687C227.677 91.4264 227.306 91.356 226.931 91.3619H187.2C186.447 91.3683 185.725 91.6648 185.186 92.1896C184.915 92.4549 184.702 92.773 184.559 93.1243C184.417 93.4756 184.348 93.8525 184.358 94.2314V104.771C184.352 104.872 184.372 104.973 184.415 105.065C184.459 105.157 184.524 105.236 184.606 105.296C184.696 105.342 184.795 105.365 184.896 105.365C184.997 105.365 185.096 105.342 185.186 105.296C192.36 103.695 199.687 102.881 207.038 102.867L206.927 103.005ZM229.111 106.234H228.78C214.473 103.019 199.631 103.019 185.324 106.234C185.097 106.283 184.863 106.281 184.637 106.228C184.412 106.175 184.201 106.071 184.021 105.926C183.841 105.78 183.695 105.596 183.596 105.386C183.497 105.177 183.446 104.948 183.447 104.716V94.2314C183.454 93.2432 183.848 92.297 184.545 91.5956C185.241 90.8942 186.184 90.4934 187.172 90.479H226.904C227.395 90.479 227.882 90.5762 228.335 90.7651C228.789 90.9541 229.201 91.2309 229.547 91.5797C229.893 91.9285 230.167 92.3424 230.353 92.7975C230.538 93.2526 230.632 93.74 230.628 94.2314V104.826C230.633 105.053 230.585 105.278 230.49 105.483C230.394 105.689 230.253 105.87 230.077 106.013C229.805 106.239 229.464 106.366 229.111 106.372" fill="#A3A3A3"/>
<path d="M229.001 123.865C229.154 123.861 229.307 123.888 229.449 123.945C229.591 124.002 229.721 124.087 229.829 124.196C229.935 124.3 230.019 124.424 230.076 124.562C230.133 124.699 230.162 124.847 230.16 124.996V137.164C230.164 137.603 230.08 138.039 229.913 138.446C229.747 138.852 229.501 139.222 229.19 139.533C228.88 139.843 228.51 140.089 228.103 140.256C227.697 140.422 227.261 140.506 226.821 140.502L187.145 138.543C186.708 138.541 186.276 138.452 185.873 138.281C185.471 138.111 185.106 137.862 184.8 137.55C184.489 137.244 184.243 136.879 184.077 136.476C183.911 136.073 183.829 135.641 183.834 135.205V124.886C183.835 124.607 183.944 124.34 184.138 124.141C184.232 124.048 184.344 123.976 184.468 123.928C184.591 123.881 184.723 123.859 184.855 123.865H229.001Z" fill="#434343"/>
<path d="M187.171 138.074L226.764 140.033C227.517 140.027 228.238 139.73 228.778 139.205C229.046 138.932 229.257 138.609 229.399 138.254C229.541 137.898 229.611 137.519 229.606 137.136V124.996C229.608 124.812 229.539 124.634 229.413 124.499C229.343 124.434 229.26 124.383 229.17 124.35C229.08 124.316 228.984 124.302 228.889 124.306H184.853C184.699 124.306 184.552 124.367 184.443 124.476C184.335 124.585 184.274 124.732 184.274 124.886V135.177C184.276 135.939 184.572 136.671 185.101 137.219C185.364 137.495 185.681 137.713 186.033 137.86C186.384 138.007 186.762 138.08 187.143 138.074H187.171ZM226.736 140.833L187.171 138.874C186.188 138.856 185.249 138.461 184.549 137.771C184.186 137.411 183.9 136.981 183.711 136.506C183.521 136.031 183.43 135.523 183.446 135.012V124.886C183.43 124.692 183.456 124.497 183.519 124.313C183.583 124.129 183.685 123.961 183.817 123.818C183.949 123.676 184.109 123.562 184.288 123.485C184.466 123.407 184.658 123.367 184.853 123.368H228.999C229.21 123.363 229.419 123.403 229.614 123.483C229.809 123.564 229.985 123.685 230.13 123.837C230.278 123.981 230.396 124.152 230.476 124.342C230.557 124.531 230.599 124.735 230.599 124.941V137.164C230.585 138.147 230.188 139.086 229.493 139.782C228.797 140.477 227.858 140.874 226.874 140.889" fill="#A3A3A3"/>
<path d="M230.101 297.193V307.816C230.101 308.689 229.756 309.527 229.141 310.147C228.527 310.767 227.691 311.119 226.818 311.127H187.087C186.218 311.119 185.386 310.772 184.769 310.161C184.461 309.854 184.216 309.488 184.051 309.085C183.885 308.683 183.801 308.251 183.803 307.816V297.193C183.798 297.028 183.833 296.863 183.905 296.714C183.977 296.565 184.084 296.436 184.217 296.338C184.346 296.231 184.497 296.155 184.66 296.116C184.823 296.078 184.992 296.078 185.155 296.117C199.528 299.332 214.432 299.332 228.805 296.117C228.963 296.078 229.128 296.078 229.287 296.117C229.445 296.155 229.592 296.231 229.715 296.338C229.839 296.436 229.939 296.562 230.006 296.706C230.073 296.85 230.106 297.007 230.101 297.166" fill="#434343"/>
<path d="M184.853 296.641C184.678 296.641 184.509 296.711 184.385 296.835C184.261 296.959 184.191 297.128 184.191 297.303V307.871C184.185 308.245 184.256 308.617 184.398 308.963C184.54 309.309 184.752 309.623 185.019 309.885C185.279 310.157 185.591 310.374 185.938 310.521C186.284 310.668 186.657 310.743 187.033 310.74H226.765C227.141 310.743 227.514 310.668 227.86 310.521C228.206 310.374 228.519 310.157 228.779 309.885C229.046 309.623 229.257 309.309 229.4 308.963C229.542 308.617 229.612 308.245 229.606 307.871V297.193C229.605 297.1 229.585 297.007 229.547 296.922C229.509 296.837 229.454 296.76 229.386 296.696C229.299 296.657 229.205 296.636 229.11 296.636C229.015 296.636 228.92 296.657 228.834 296.696C214.409 299.938 199.444 299.938 185.019 296.696H184.853V296.641ZM226.765 311.678H187.033C186.544 311.681 186.06 311.585 185.609 311.395C185.159 311.205 184.751 310.926 184.412 310.575C184.048 310.215 183.763 309.785 183.573 309.31C183.383 308.835 183.293 308.327 183.308 307.816V297.193C183.311 296.961 183.364 296.732 183.464 296.522C183.564 296.312 183.709 296.127 183.888 295.979C184.07 295.829 184.284 295.723 184.514 295.671C184.744 295.618 184.983 295.62 185.212 295.675C199.508 298.904 214.345 298.904 228.641 295.675C228.866 295.633 229.098 295.639 229.321 295.691C229.544 295.743 229.754 295.841 229.938 295.979C230.112 296.123 230.252 296.304 230.348 296.51C230.443 296.715 230.492 296.939 230.489 297.165V307.788C230.503 308.296 230.415 308.803 230.231 309.276C230.046 309.75 229.768 310.182 229.413 310.547C229.054 310.911 228.623 311.196 228.149 311.386C227.674 311.576 227.165 311.666 226.654 311.651" fill="#A3A3A3"/>
<path d="M229.001 278.238C229.154 278.241 229.307 278.214 229.449 278.157C229.591 278.1 229.721 278.015 229.829 277.907C229.936 277.797 230.02 277.668 230.077 277.526C230.134 277.384 230.162 277.232 230.16 277.079V264.966C230.166 264.526 230.084 264.089 229.918 263.682C229.752 263.274 229.506 262.904 229.194 262.593C228.566 261.961 227.713 261.604 226.821 261.6L187.145 263.449C186.71 263.446 186.278 263.53 185.876 263.696C185.473 263.862 185.107 264.106 184.8 264.414C184.489 264.72 184.243 265.085 184.077 265.488C183.911 265.891 183.829 266.324 183.834 266.76V277.217C183.841 277.485 183.951 277.741 184.141 277.931C184.331 278.121 184.587 278.231 184.855 278.238H229.001Z" fill="#434343"/>
<path d="M187.115 263.89C186.736 263.881 186.359 263.949 186.008 264.092C185.657 264.234 185.339 264.447 185.073 264.718C184.544 265.266 184.248 265.998 184.246 266.76V277.217C184.246 277.371 184.307 277.518 184.415 277.627C184.524 277.735 184.671 277.796 184.825 277.796H228.971C229.067 277.805 229.164 277.792 229.255 277.759C229.346 277.726 229.429 277.673 229.497 277.605C229.565 277.537 229.618 277.454 229.651 277.363C229.684 277.272 229.697 277.175 229.688 277.079V264.967C229.691 264.196 229.394 263.454 228.861 262.897C228.316 262.376 227.6 262.072 226.847 262.042L187.253 263.863L187.115 263.89ZM228.999 278.679H184.853C184.659 278.687 184.465 278.655 184.284 278.584C184.103 278.513 183.939 278.406 183.801 278.268C183.664 278.131 183.557 277.967 183.486 277.786C183.415 277.605 183.383 277.411 183.39 277.217V266.843C183.375 266.332 183.465 265.823 183.655 265.348C183.845 264.874 184.13 264.443 184.494 264.084C184.839 263.741 185.248 263.469 185.697 263.284C186.147 263.1 186.629 263.006 187.115 263.008L226.681 261.159C227.194 261.149 227.703 261.244 228.178 261.439C228.652 261.633 229.082 261.923 229.44 262.29C229.79 262.626 230.068 263.028 230.257 263.474C230.447 263.92 230.545 264.399 230.544 264.884V277.051C230.544 277.476 230.375 277.883 230.075 278.183C229.929 278.335 229.753 278.456 229.559 278.536C229.364 278.617 229.154 278.656 228.944 278.652" fill="#A3A3A3"/>
<path d="M195.891 275.341C198.139 275.341 200.337 276.007 202.207 277.257C204.076 278.506 205.533 280.281 206.393 282.358C207.254 284.435 207.479 286.721 207.04 288.926C206.602 291.131 205.519 293.157 203.929 294.747C202.339 296.336 200.314 297.419 198.109 297.858C195.904 298.296 193.618 298.071 191.541 297.211C189.464 296.35 187.688 294.893 186.439 293.024C185.19 291.155 184.523 288.957 184.523 286.708C184.523 283.694 185.721 280.802 187.853 278.67C189.985 276.538 192.876 275.341 195.891 275.341Z" fill="#D3D3D3"/>
<path d="M195.891 275.782C193.708 275.782 191.574 276.429 189.76 277.642C187.945 278.855 186.53 280.578 185.695 282.595C184.859 284.612 184.641 286.831 185.067 288.971C185.493 291.112 186.544 293.079 188.087 294.622C189.631 296.166 191.597 297.217 193.738 297.643C195.879 298.069 198.098 297.85 200.115 297.015C202.131 296.179 203.855 294.765 205.068 292.95C206.28 291.135 206.928 289.001 206.928 286.818C206.928 283.891 205.765 281.084 203.695 279.014C201.625 276.945 198.818 275.782 195.891 275.782ZM195.891 298.517C193.555 298.517 191.272 297.824 189.33 296.527C187.388 295.229 185.875 293.385 184.981 291.227C184.087 289.069 183.853 286.695 184.309 284.404C184.765 282.113 185.889 280.009 187.541 278.358C189.192 276.706 191.297 275.582 193.587 275.126C195.878 274.67 198.252 274.904 200.41 275.798C202.568 276.692 204.412 278.205 205.71 280.147C207.008 282.089 207.7 284.372 207.7 286.708C207.7 289.84 206.456 292.844 204.241 295.058C202.027 297.273 199.023 298.517 195.891 298.517Z" fill="#A3A3A3"/>
<path d="M193.131 292.778H189.737C189.65 292.778 189.565 292.743 189.503 292.681C189.441 292.619 189.406 292.535 189.406 292.447V280.39C189.406 280.302 189.441 280.218 189.503 280.156C189.565 280.094 189.65 280.059 189.737 280.059H193.131C193.217 280.065 193.297 280.102 193.358 280.163C193.419 280.223 193.456 280.304 193.462 280.39C193.462 280.478 193.427 280.562 193.365 280.624C193.303 280.686 193.219 280.721 193.131 280.721H190.096V292.116H193.131C193.219 292.116 193.303 292.151 193.365 292.213C193.427 292.275 193.462 292.359 193.462 292.447C193.456 292.533 193.419 292.613 193.358 292.674C193.297 292.735 193.217 292.772 193.131 292.778Z" fill="#A3A3A3"/>
<path d="M208.278 292.64C208.225 292.662 208.165 292.662 208.112 292.64C207.012 290.76 206.466 288.605 206.54 286.428C206.613 284.25 207.302 282.137 208.526 280.335C208.565 280.303 208.614 280.286 208.664 280.286C208.714 280.286 208.763 280.303 208.802 280.335C208.833 280.374 208.85 280.422 208.85 280.473C208.85 280.523 208.833 280.571 208.802 280.61C207.604 282.346 206.929 284.388 206.855 286.496C206.782 288.603 207.314 290.688 208.388 292.502C208.42 292.541 208.437 292.59 208.437 292.64C208.437 292.69 208.42 292.739 208.388 292.778" fill="#A3A3A3"/>
<path d="M208.278 292.447H193.186V280.417L208.747 280.39" fill="#434343"/>
<path d="M193.127 292.778C193.045 292.799 192.96 292.799 192.878 292.778C192.85 292.707 192.85 292.628 192.878 292.557V280.5C192.878 280.412 192.913 280.328 192.975 280.266C193.037 280.204 193.121 280.169 193.209 280.169H208.771C208.859 280.169 208.943 280.204 209.005 280.266C209.067 280.328 209.102 280.412 209.102 280.5C209.102 280.588 209.067 280.672 209.005 280.734C208.943 280.796 208.859 280.831 208.771 280.831H193.54V292.226H208.302C208.39 292.226 208.474 292.261 208.536 292.323C208.598 292.385 208.633 292.47 208.633 292.557C208.633 292.645 208.598 292.729 208.536 292.792C208.474 292.854 208.39 292.889 208.302 292.889L193.127 292.778Z" fill="#A3A3A3"/>
<path d="M218.152 275.341C220.406 275.313 222.617 275.957 224.504 277.189C226.392 278.421 227.87 280.187 228.752 282.262C229.633 284.336 229.878 286.626 229.455 288.84C229.032 291.054 227.961 293.093 226.377 294.696C224.792 296.3 222.767 297.396 220.558 297.846C218.35 298.296 216.057 298.079 213.972 297.223C211.887 296.367 210.103 294.91 208.848 293.038C207.592 291.166 206.922 288.962 206.922 286.708C206.922 283.693 208.12 280.802 210.251 278.67C212.383 276.538 215.275 275.341 218.289 275.341" fill="#D3D3D3"/>
<path d="M218.155 275.782C215.972 275.782 213.838 276.429 212.023 277.642C210.208 278.855 208.794 280.578 207.958 282.595C207.123 284.612 206.904 286.831 207.33 288.971C207.756 291.112 208.807 293.079 210.351 294.622C211.894 296.166 213.861 297.217 216.002 297.643C218.143 298.069 220.362 297.85 222.378 297.015C224.395 296.179 226.119 294.765 227.331 292.95C228.544 291.135 229.191 289.001 229.191 286.818C229.191 283.891 228.029 281.084 225.959 279.014C223.889 276.945 221.082 275.782 218.155 275.782ZM218.155 298.517C215.819 298.517 213.536 297.824 211.594 296.527C209.652 295.229 208.138 293.385 207.245 291.227C206.351 289.069 206.117 286.695 206.573 284.404C207.028 282.113 208.153 280.009 209.804 278.358C211.456 276.706 213.56 275.582 215.851 275.126C218.142 274.67 220.516 274.904 222.674 275.798C224.832 276.692 226.676 278.205 227.974 280.147C229.271 282.089 229.964 284.372 229.964 286.708C229.964 288.259 229.658 289.794 229.065 291.227C228.471 292.66 227.602 293.962 226.505 295.058C225.408 296.155 224.107 297.025 222.674 297.618C221.241 298.212 219.706 298.517 218.155 298.517Z" fill="#A3A3A3"/>
<path d="M195.887 104.054C198.135 104.054 200.333 104.72 202.203 105.97C204.072 107.219 205.529 108.994 206.389 111.071C207.25 113.148 207.475 115.434 207.036 117.639C206.598 119.844 205.515 121.87 203.925 123.459C202.335 125.049 200.31 126.132 198.105 126.571C195.9 127.009 193.614 126.784 191.537 125.924C189.46 125.063 187.684 123.606 186.435 121.737C185.186 119.867 184.52 117.67 184.52 115.421C184.516 113.928 184.807 112.448 185.377 111.067C185.947 109.686 186.785 108.431 187.841 107.375C188.897 106.319 190.152 105.482 191.533 104.912C192.913 104.342 194.393 104.05 195.887 104.054Z" fill="#D3D3D3"/>
<path d="M195.887 104.495C193.704 104.495 191.571 105.143 189.756 106.355C187.941 107.568 186.526 109.292 185.691 111.308C184.855 113.325 184.637 115.544 185.063 117.685C185.489 119.826 186.54 121.792 188.083 123.336C189.627 124.879 191.593 125.93 193.734 126.356C195.875 126.782 198.094 126.563 200.111 125.728C202.127 124.893 203.851 123.478 205.064 121.663C206.276 119.848 206.924 117.715 206.924 115.532C206.924 112.605 205.761 109.797 203.691 107.728C201.621 105.658 198.814 104.495 195.887 104.495ZM195.887 127.23C193.552 127.23 191.268 126.538 189.326 125.24C187.384 123.943 185.871 122.098 184.977 119.941C184.083 117.783 183.849 115.408 184.305 113.118C184.761 110.827 185.885 108.723 187.537 107.071C189.188 105.42 191.293 104.295 193.583 103.839C195.874 103.384 198.248 103.617 200.406 104.511C202.564 105.405 204.408 106.919 205.706 108.861C207.004 110.803 207.696 113.086 207.696 115.421C207.696 118.553 206.452 121.557 204.237 123.772C202.023 125.986 199.019 127.23 195.887 127.23Z" fill="#A3A3A3"/>
<path d="M193.127 122.071H189.733C189.646 122.071 189.561 122.036 189.499 121.974C189.437 121.912 189.402 121.828 189.402 121.74V109.572C189.402 109.485 189.437 109.4 189.499 109.338C189.561 109.276 189.646 109.241 189.733 109.241H193.127C193.213 109.248 193.293 109.285 193.354 109.345C193.415 109.406 193.452 109.487 193.458 109.572C193.458 109.66 193.423 109.744 193.361 109.806C193.299 109.869 193.215 109.903 193.127 109.903H190.092V121.299H193.127C193.215 121.299 193.299 121.333 193.361 121.396C193.423 121.458 193.458 121.542 193.458 121.63C193.452 121.715 193.415 121.796 193.354 121.857C193.293 121.917 193.213 121.954 193.127 121.961" fill="#A3A3A3"/>
<path d="M208.692 121.988C208.667 122.003 208.638 122.01 208.609 122.01C208.58 122.01 208.551 122.003 208.526 121.988C207.302 120.186 206.613 118.073 206.54 115.895C206.466 113.717 207.012 111.563 208.112 109.682C208.13 109.664 208.152 109.65 208.175 109.64C208.199 109.63 208.225 109.625 208.25 109.625C208.276 109.625 208.301 109.63 208.325 109.64C208.349 109.65 208.37 109.664 208.388 109.682C208.42 109.722 208.437 109.77 208.437 109.82C208.437 109.871 208.42 109.919 208.388 109.958C207.314 111.773 206.782 113.857 206.855 115.965C206.929 118.072 207.604 120.115 208.802 121.85C208.833 121.889 208.85 121.938 208.85 121.988C208.85 122.038 208.833 122.087 208.802 122.126" fill="#A3A3A3"/>
<path d="M208.278 109.71H193.186V121.74H208.747" fill="#434343"/>
<path d="M208.748 122.071H193.131C193.043 122.071 192.959 122.036 192.897 121.974C192.835 121.912 192.8 121.828 192.8 121.74V109.572C192.772 109.501 192.772 109.423 192.8 109.352C192.882 109.331 192.967 109.331 193.048 109.352H208.141C208.229 109.352 208.313 109.387 208.375 109.449C208.437 109.511 208.472 109.595 208.472 109.683C208.472 109.771 208.437 109.855 208.375 109.917C208.313 109.979 208.229 110.014 208.141 110.014H193.379V121.409H208.61C208.698 121.409 208.782 121.444 208.844 121.506C208.906 121.568 208.941 121.652 208.941 121.74C208.941 121.784 208.932 121.827 208.916 121.867C208.899 121.907 208.875 121.944 208.844 121.974C208.813 122.005 208.777 122.029 208.737 122.046C208.696 122.063 208.653 122.071 208.61 122.071" fill="#A3A3A3"/>
<path d="M218.155 104.054C220.409 104.026 222.621 104.67 224.508 105.902C226.396 107.134 227.874 108.9 228.756 110.975C229.637 113.049 229.882 115.339 229.459 117.553C229.036 119.767 227.965 121.806 226.38 123.409C224.796 125.013 222.771 126.109 220.562 126.559C218.354 127.009 216.061 126.792 213.976 125.936C211.89 125.08 210.107 123.623 208.852 121.751C207.596 119.879 206.926 117.675 206.926 115.421C206.933 112.432 208.114 109.566 210.214 107.439C212.315 105.313 215.167 104.097 218.155 104.054Z" fill="#D3D3D3"/>
<path d="M218.155 104.495C215.972 104.495 213.838 105.143 212.023 106.355C210.208 107.568 208.794 109.292 207.958 111.308C207.123 113.325 206.904 115.544 207.33 117.685C207.756 119.826 208.807 121.792 210.351 123.336C211.894 124.879 213.861 125.93 216.002 126.356C218.143 126.782 220.362 126.563 222.378 125.728C224.395 124.893 226.119 123.478 227.331 121.663C228.544 119.848 229.191 117.715 229.191 115.532C229.191 112.605 228.029 109.797 225.959 107.728C223.889 105.658 221.082 104.495 218.155 104.495ZM218.155 127.23C215.819 127.23 213.536 126.538 211.594 125.24C209.652 123.943 208.138 122.098 207.245 119.941C206.351 117.783 206.117 115.408 206.573 113.118C207.028 110.827 208.153 108.723 209.804 107.071C211.456 105.42 213.56 104.295 215.851 103.839C218.142 103.384 220.516 103.617 222.674 104.511C224.832 105.405 226.676 106.919 227.974 108.861C229.271 110.803 229.964 113.086 229.964 115.421C229.964 118.553 228.72 121.557 226.505 123.772C224.29 125.986 221.287 127.23 218.155 127.23Z" fill="#A3A3A3"/>
<path d="M158.034 304.753C157.963 304.747 157.896 304.716 157.846 304.665C157.795 304.615 157.764 304.548 157.758 304.477V210.473C157.758 210.437 157.765 210.401 157.779 210.368C157.793 210.334 157.813 210.304 157.839 210.278C157.864 210.253 157.895 210.232 157.928 210.219C157.962 210.205 157.998 210.198 158.034 210.198C158.071 210.193 158.109 210.197 158.144 210.209C158.18 210.222 158.212 210.242 158.239 210.269C158.265 210.295 158.285 210.327 158.298 210.363C158.31 210.398 158.314 210.436 158.31 210.473V304.477C158.31 304.513 158.302 304.549 158.289 304.583C158.275 304.616 158.254 304.646 158.229 304.672C158.203 304.698 158.173 304.718 158.139 304.732C158.106 304.746 158.07 304.753 158.034 304.753Z" fill="#A3A3A3"/>
<path d="M158.034 192.346C157.963 192.34 157.896 192.309 157.846 192.258C157.795 192.208 157.764 192.141 157.758 192.07V98.7288C157.758 98.6926 157.765 98.6567 157.779 98.6232C157.793 98.5898 157.813 98.5593 157.839 98.5337C157.864 98.5081 157.895 98.4878 157.928 98.4739C157.962 98.4601 157.998 98.4529 158.034 98.4529C158.071 98.4485 158.109 98.4526 158.144 98.4648C158.18 98.4771 158.212 98.4973 158.239 98.5239C158.265 98.5505 158.285 98.5827 158.298 98.6182C158.31 98.6537 158.314 98.6915 158.31 98.7288V191.932C158.31 191.968 158.302 192.004 158.289 192.038C158.275 192.071 158.254 192.102 158.229 192.127C158.203 192.153 158.173 192.173 158.139 192.187C158.106 192.201 158.07 192.208 158.034 192.208" fill="#A3A3A3"/>
<path d="M156.654 101.102L158.061 91.1963L159.441 101.102H156.654Z" fill="#A3A3A3"/>
<path d="M159.441 301.524L158.061 311.43L156.654 301.524H159.441Z" fill="#A3A3A3"/>
<path d="M155.44 204.872H157.592C158.121 204.887 158.65 204.832 159.165 204.707C159.503 204.601 159.814 204.422 160.075 204.183C160.42 203.813 160.675 203.37 160.82 202.886C161.009 202.26 161.102 201.608 161.096 200.954C161.137 200.104 160.956 199.258 160.572 198.499C160.278 197.998 159.834 197.602 159.303 197.368C158.74 197.196 158.152 197.121 157.564 197.147H155.44V204.872ZM154.088 206.086V195.96H157.592C158.188 195.904 158.789 195.904 159.385 195.96C159.935 196.083 160.447 196.339 160.875 196.705C161.415 197.161 161.824 197.751 162.062 198.416C162.346 199.184 162.487 199.998 162.476 200.816C162.479 201.507 162.386 202.194 162.2 202.858C162.048 203.387 161.815 203.89 161.51 204.348C161.255 204.706 160.937 205.014 160.572 205.259C160.21 205.494 159.808 205.663 159.385 205.755C158.855 205.896 158.307 205.961 157.757 205.948L154.088 206.086Z" fill="#A3A3A3"/>
<path d="M182.093 91.1966H154.778C154.707 91.1904 154.64 91.1593 154.59 91.1089C154.539 91.0584 154.508 90.9918 154.502 90.9207C154.502 90.8475 154.531 90.7774 154.583 90.7256C154.635 90.6739 154.705 90.6448 154.778 90.6448H182.093C182.131 90.6404 182.168 90.6444 182.204 90.6567C182.239 90.669 182.272 90.6892 182.298 90.7158C182.325 90.7424 182.345 90.7746 182.357 90.8101C182.369 90.8456 182.374 90.8834 182.369 90.9207C182.369 90.9939 182.34 91.0641 182.288 91.1158C182.237 91.1676 182.166 91.1966 182.093 91.1966Z" fill="#A3A3A3"/>
<path d="M182.783 311.458H154.778C154.707 311.452 154.64 311.421 154.59 311.37C154.539 311.32 154.508 311.253 154.502 311.182C154.502 311.109 154.531 311.039 154.583 310.987C154.635 310.935 154.705 310.906 154.778 310.906H182.783C182.82 310.902 182.858 310.906 182.894 310.918C182.929 310.93 182.961 310.95 182.988 310.977C183.015 311.004 183.035 311.036 183.047 311.071C183.059 311.107 183.063 311.145 183.059 311.182C183.059 311.255 183.03 311.325 182.978 311.377C182.926 311.429 182.856 311.458 182.783 311.458Z" fill="#A3A3A3"/>
<path d="M223.755 63.6051H214.926C214.889 63.6095 214.851 63.6054 214.815 63.5931C214.78 63.5808 214.748 63.5606 214.721 63.5341C214.695 63.5075 214.674 63.4752 214.662 63.4398C214.65 63.4043 214.646 63.3664 214.65 63.3291C214.65 63.2929 214.657 63.257 214.671 63.2236C214.685 63.1901 214.705 63.1597 214.731 63.134C214.757 63.1084 214.787 63.0881 214.821 63.0742C214.854 63.0604 214.89 63.0532 214.926 63.0532H223.755C223.826 63.0594 223.893 63.0905 223.944 63.141C223.994 63.1914 224.025 63.2581 224.031 63.3291C224.031 63.3654 224.024 63.4012 224.01 63.4347C223.996 63.4682 223.976 63.4986 223.95 63.5242C223.925 63.5499 223.894 63.5702 223.861 63.5841C223.827 63.5979 223.792 63.6051 223.755 63.6051Z" fill="#A3A3A3"/>
<path d="M199.862 63.6051H190.536C190.499 63.6051 190.464 63.5979 190.43 63.5841C190.397 63.5702 190.366 63.5499 190.341 63.5242C190.315 63.4986 190.295 63.4682 190.281 63.4347C190.267 63.4012 190.26 63.3654 190.26 63.3291C190.266 63.2581 190.297 63.1914 190.348 63.141C190.398 63.0905 190.465 63.0594 190.536 63.0532H199.862C199.933 63.0594 199.999 63.0905 200.05 63.141C200.1 63.1914 200.131 63.2581 200.137 63.3291C200.137 63.3654 200.13 63.4012 200.116 63.4347C200.103 63.4682 200.082 63.4986 200.057 63.5242C200.031 63.5499 200.001 63.5702 199.967 63.5841C199.934 63.5979 199.898 63.6051 199.862 63.6051Z" fill="#A3A3A3"/>
<path d="M193.708 64.7364L183.803 63.3569L193.708 61.9497V64.7364Z" fill="#A3A3A3"/>
<path d="M220.195 61.9497L230.128 63.3569L220.195 64.7364V61.9497Z" fill="#A3A3A3"/>
<path d="M205.024 67.3575H207.535C207.837 67.395 208.143 67.395 208.445 67.3575C208.719 67.3211 208.983 67.227 209.218 67.0815C209.445 66.9556 209.628 66.763 209.742 66.5297C209.867 66.262 209.933 65.9701 209.935 65.6744C209.936 65.3204 209.83 64.9743 209.632 64.6811C209.44 64.401 209.157 64.1962 208.831 64.1017C208.355 63.9738 207.862 63.918 207.369 63.9361H205.024V67.3575ZM205.024 62.6945H207.204C207.625 62.7391 208.051 62.7391 208.473 62.6945C208.784 62.6171 209.058 62.4312 209.245 62.1703C209.43 61.9136 209.527 61.6038 209.521 61.2874C209.528 60.9749 209.442 60.6676 209.273 60.4045C209.108 60.1573 208.865 59.9727 208.583 59.8802C208.075 59.7726 207.557 59.7263 207.038 59.7423H205.024V62.6945ZM203.672 68.5439V58.4455H207.479C208.11 58.4124 208.741 58.5159 209.328 58.749C209.783 58.9421 210.168 59.2694 210.432 59.6871C210.689 60.0905 210.824 60.5604 210.818 61.0391C210.816 61.4658 210.702 61.8845 210.487 62.2531C210.223 62.6531 209.849 62.9691 209.411 63.1636C209.967 63.3213 210.459 63.6494 210.818 64.1017C211.152 64.536 211.327 65.0715 211.315 65.6192C211.312 66.0776 211.208 66.5298 211.011 66.9436C210.848 67.3155 210.591 67.6388 210.266 67.8817C209.937 68.1224 209.561 68.2916 209.163 68.3783C208.628 68.4982 208.082 68.5538 207.535 68.5439H203.672Z" fill="#A3A3A3"/>
<path d="M183.805 89.8445C183.768 89.8489 183.73 89.8449 183.694 89.8326C183.659 89.8203 183.627 89.8001 183.6 89.7735C183.574 89.7469 183.553 89.7147 183.541 89.6792C183.529 89.6437 183.525 89.6059 183.529 89.5686V60.4598C183.525 60.4225 183.529 60.3847 183.541 60.3492C183.553 60.3137 183.574 60.2814 183.6 60.2549C183.627 60.2283 183.659 60.2081 183.694 60.1958C183.73 60.1835 183.768 60.1794 183.805 60.1839C183.878 60.1839 183.948 60.2129 184 60.2647C184.052 60.3164 184.081 60.3866 184.081 60.4598V89.5686C184.081 89.6418 184.052 89.7119 184 89.7637C183.948 89.8154 183.878 89.8445 183.805 89.8445Z" fill="#A3A3A3"/>
<path d="M230.104 89.8445C230.031 89.8445 229.961 89.8154 229.909 89.7637C229.857 89.7119 229.828 89.6418 229.828 89.5686V60.4598C229.828 60.3866 229.857 60.3164 229.909 60.2647C229.961 60.2129 230.031 60.1839 230.104 60.1839C230.141 60.1794 230.179 60.1835 230.215 60.1958C230.25 60.2081 230.282 60.2283 230.309 60.2549C230.336 60.2814 230.356 60.3137 230.368 60.3492C230.38 60.3847 230.384 60.4225 230.38 60.4598V89.5686C230.384 89.6059 230.38 89.6437 230.368 89.6792C230.356 89.7147 230.336 89.7469 230.309 89.7735C230.282 89.8001 230.25 89.8203 230.215 89.8326C230.179 89.8449 230.141 89.8489 230.104 89.8445Z" fill="#A3A3A3"/>
<path d="M257.858 255.337C257.785 255.337 257.715 255.308 257.663 255.256C257.611 255.204 257.582 255.134 257.582 255.061V210.253C257.582 210.18 257.611 210.109 257.663 210.058C257.715 210.006 257.785 209.977 257.858 209.977C257.895 209.972 257.933 209.976 257.969 209.989C258.004 210.001 258.036 210.021 258.063 210.048C258.089 210.074 258.11 210.107 258.122 210.142C258.134 210.178 258.138 210.215 258.134 210.253V255.061C258.138 255.098 258.134 255.136 258.122 255.172C258.11 255.207 258.089 255.239 258.063 255.266C258.036 255.292 258.004 255.313 257.969 255.325C257.933 255.337 257.895 255.341 257.858 255.337Z" fill="#A3A3A3"/>
<path d="M257.858 192.346C257.785 192.346 257.715 192.317 257.663 192.265C257.611 192.213 257.582 192.143 257.582 192.07V148.614C257.588 148.543 257.619 148.476 257.67 148.426C257.72 148.375 257.787 148.344 257.858 148.338C257.894 148.338 257.93 148.345 257.964 148.359C257.997 148.373 258.027 148.393 258.053 148.419C258.079 148.444 258.099 148.475 258.113 148.508C258.127 148.542 258.134 148.578 258.134 148.614V192.153C258.138 192.19 258.134 192.228 258.122 192.263C258.11 192.299 258.089 192.331 258.063 192.358C258.036 192.384 258.004 192.405 257.969 192.417C257.933 192.429 257.895 192.433 257.858 192.429" fill="#A3A3A3"/>
<path d="M256.479 150.407L257.858 140.502L259.265 150.407H256.479Z" fill="#A3A3A3"/>
<path d="M259.265 251.722L257.858 261.627L256.479 251.722H259.265Z" fill="#A3A3A3"/>
<path d="M254.989 202.389C254.929 203.143 255.134 203.894 255.568 204.514C255.736 204.726 255.95 204.898 256.193 205.018C256.437 205.137 256.704 205.2 256.975 205.203C257.241 205.208 257.504 205.15 257.743 205.035C257.982 204.92 258.192 204.751 258.355 204.541C258.785 203.951 258.99 203.227 258.934 202.499C258.997 201.719 258.793 200.941 258.355 200.292C258.186 200.089 257.975 199.926 257.737 199.814C257.499 199.703 257.238 199.645 256.975 199.645C256.712 199.645 256.452 199.703 256.213 199.814C255.975 199.926 255.764 200.089 255.596 200.292C255.183 200.92 254.989 201.667 255.044 202.417L254.989 202.389ZM258.962 206.086V205.176C258.749 205.522 258.448 205.804 258.088 205.994C257.729 206.183 257.325 206.272 256.92 206.252C256.352 206.254 255.796 206.091 255.32 205.783C254.816 205.447 254.415 204.98 254.161 204.431C253.898 203.802 253.766 203.126 253.775 202.444C253.761 201.756 253.882 201.071 254.133 200.43C254.345 199.872 254.732 199.397 255.237 199.078C255.717 198.755 256.286 198.591 256.865 198.609C257.277 198.599 257.686 198.694 258.051 198.885C258.381 199.054 258.665 199.3 258.879 199.602V195.933H260.12V206.141L258.962 206.086Z" fill="#A3A3A3"/>
<path d="M261.417 140.751H232.612C232.539 140.751 232.469 140.721 232.417 140.67C232.365 140.618 232.336 140.548 232.336 140.475C232.342 140.404 232.373 140.337 232.424 140.286C232.474 140.236 232.541 140.205 232.612 140.199H261.417C261.488 140.205 261.555 140.236 261.605 140.286C261.656 140.337 261.687 140.404 261.693 140.475C261.693 140.548 261.664 140.618 261.612 140.67C261.561 140.721 261.49 140.751 261.417 140.751Z" fill="#A3A3A3"/>
<path d="M261.417 261.876H232.612C232.539 261.876 232.469 261.847 232.417 261.795C232.365 261.743 232.336 261.673 232.336 261.6C232.342 261.529 232.373 261.462 232.424 261.412C232.474 261.361 232.541 261.33 232.612 261.324H261.417C261.488 261.33 261.555 261.361 261.605 261.412C261.656 261.462 261.687 261.529 261.693 261.6C261.693 261.673 261.664 261.743 261.612 261.795C261.561 261.847 261.49 261.876 261.417 261.876Z" fill="#A3A3A3"/>
<path d="M160.643 328.542H159.921V325.757L159.058 326.025V325.437L160.566 324.897H160.643V328.542ZM164.323 328.542H161.828V328.047L163.006 326.792C163.167 326.616 163.286 326.462 163.363 326.33C163.441 326.198 163.481 326.073 163.481 325.955C163.481 325.793 163.44 325.667 163.358 325.575C163.276 325.482 163.16 325.435 163.008 325.435C162.845 325.435 162.716 325.492 162.621 325.605C162.527 325.717 162.481 325.864 162.481 326.047H161.756C161.756 325.826 161.808 325.623 161.913 325.44C162.02 325.257 162.17 325.113 162.363 325.01C162.556 324.905 162.776 324.852 163.021 324.852C163.396 324.852 163.686 324.942 163.893 325.122C164.101 325.302 164.206 325.557 164.206 325.885C164.206 326.065 164.159 326.248 164.066 326.435C163.972 326.622 163.812 326.839 163.586 327.087L162.758 327.96H164.323V328.542ZM164.836 328.187C164.836 328.072 164.874 327.979 164.951 327.907C165.029 327.836 165.126 327.8 165.243 327.8C165.361 327.8 165.459 327.836 165.536 327.907C165.614 327.979 165.653 328.072 165.653 328.187C165.653 328.301 165.615 328.393 165.538 328.465C165.461 328.535 165.363 328.57 165.243 328.57C165.125 328.57 165.027 328.535 164.951 328.465C164.874 328.393 164.836 328.301 164.836 328.187ZM166.326 328.187C166.326 328.072 166.364 327.979 166.441 327.907C166.519 327.836 166.616 327.8 166.733 327.8C166.851 327.8 166.949 327.836 167.026 327.907C167.104 327.979 167.143 328.072 167.143 328.187C167.143 328.301 167.105 328.393 167.028 328.465C166.951 328.535 166.853 328.57 166.733 328.57C166.615 328.57 166.517 328.535 166.441 328.465C166.364 328.393 166.326 328.301 166.326 328.187ZM170.241 327.082L169.851 327.502V328.542H169.101V324.902H169.851V326.552L170.181 326.1L171.108 324.902H172.031L170.738 326.52L172.068 328.542H171.176L170.241 327.082ZM179.128 328.542H178.406V325.757L177.543 326.025V325.437L179.051 324.897H179.128V328.542ZM181.048 326.402H181.433C181.616 326.402 181.752 326.357 181.841 326.265C181.929 326.173 181.973 326.052 181.973 325.9C181.973 325.753 181.929 325.639 181.841 325.557C181.754 325.476 181.634 325.435 181.481 325.435C181.342 325.435 181.226 325.473 181.133 325.55C181.04 325.625 180.993 325.723 180.993 325.845H180.271C180.271 325.655 180.321 325.485 180.423 325.335C180.526 325.183 180.67 325.065 180.853 324.98C181.038 324.895 181.241 324.852 181.463 324.852C181.848 324.852 182.15 324.945 182.368 325.13C182.586 325.313 182.696 325.567 182.696 325.89C182.696 326.057 182.645 326.21 182.543 326.35C182.441 326.49 182.308 326.597 182.143 326.672C182.348 326.746 182.501 326.856 182.601 327.002C182.702 327.149 182.753 327.322 182.753 327.522C182.753 327.846 182.635 328.105 182.398 328.3C182.163 328.495 181.851 328.592 181.463 328.592C181.1 328.592 180.802 328.497 180.571 328.305C180.341 328.113 180.226 327.86 180.226 327.545H180.948C180.948 327.682 180.999 327.793 181.101 327.88C181.204 327.967 181.331 328.01 181.481 328.01C181.652 328.01 181.786 327.965 181.883 327.875C181.981 327.783 182.031 327.662 182.031 327.512C182.031 327.149 181.831 326.967 181.431 326.967H181.048V326.402ZM183.321 328.187C183.321 328.072 183.359 327.979 183.436 327.907C183.514 327.836 183.611 327.8 183.728 327.8C183.846 327.8 183.944 327.836 184.021 327.907C184.099 327.979 184.138 328.072 184.138 328.187C184.138 328.301 184.1 328.393 184.023 328.465C183.946 328.535 183.848 328.57 183.728 328.57C183.61 328.57 183.512 328.535 183.436 328.465C183.359 328.393 183.321 328.301 183.321 328.187ZM184.811 328.187C184.811 328.072 184.849 327.979 184.926 327.907C185.004 327.836 185.101 327.8 185.218 327.8C185.336 327.8 185.434 327.836 185.511 327.907C185.589 327.979 185.628 328.072 185.628 328.187C185.628 328.301 185.59 328.393 185.513 328.465C185.436 328.535 185.338 328.57 185.218 328.57C185.1 328.57 185.002 328.535 184.926 328.465C184.849 328.393 184.811 328.301 184.811 328.187Z" fill="#A3A3A3"/>
<path d="M239.043 327.082L238.653 327.502V328.542H237.903V324.902H238.653V326.552L238.983 326.1L239.911 324.902H240.833L239.541 326.52L240.871 328.542H239.978L239.043 327.082Z" fill="#A3A3A3"/>
<path d="M161.383 345.483H158.888V344.988L160.066 343.733C160.227 343.557 160.346 343.403 160.423 343.271C160.501 343.139 160.541 343.014 160.541 342.896C160.541 342.734 160.5 342.608 160.418 342.516C160.336 342.423 160.22 342.376 160.068 342.376C159.905 342.376 159.776 342.433 159.681 342.546C159.587 342.658 159.541 342.805 159.541 342.988H158.816C158.816 342.767 158.868 342.564 158.973 342.381C159.08 342.198 159.23 342.054 159.423 341.951C159.616 341.846 159.836 341.793 160.081 341.793C160.456 341.793 160.746 341.883 160.953 342.063C161.161 342.243 161.266 342.498 161.266 342.826C161.266 343.006 161.219 343.189 161.126 343.376C161.032 343.563 160.872 343.78 160.646 344.028L159.818 344.901H161.383V345.483ZM164.323 345.483H161.828V344.988L163.006 343.733C163.167 343.557 163.286 343.403 163.363 343.271C163.441 343.139 163.481 343.014 163.481 342.896C163.481 342.734 163.44 342.608 163.358 342.516C163.276 342.423 163.16 342.376 163.008 342.376C162.845 342.376 162.716 342.433 162.621 342.546C162.527 342.658 162.481 342.805 162.481 342.988H161.756C161.756 342.767 161.808 342.564 161.913 342.381C162.02 342.198 162.17 342.054 162.363 341.951C162.556 341.846 162.776 341.793 163.021 341.793C163.396 341.793 163.686 341.883 163.893 342.063C164.101 342.243 164.206 342.498 164.206 342.826C164.206 343.006 164.159 343.189 164.066 343.376C163.972 343.563 163.812 343.78 163.586 344.028L162.758 344.901H164.323V345.483ZM164.836 345.128C164.836 345.013 164.874 344.92 164.951 344.848C165.029 344.777 165.126 344.741 165.243 344.741C165.361 344.741 165.459 344.777 165.536 344.848C165.614 344.92 165.653 345.013 165.653 345.128C165.653 345.242 165.615 345.334 165.538 345.406C165.461 345.476 165.363 345.511 165.243 345.511C165.125 345.511 165.027 345.476 164.951 345.406C164.874 345.334 164.836 345.242 164.836 345.128ZM166.326 345.128C166.326 345.013 166.364 344.92 166.441 344.848C166.519 344.777 166.616 344.741 166.733 344.741C166.851 344.741 166.949 344.777 167.026 344.848C167.104 344.92 167.143 345.013 167.143 345.128C167.143 345.242 167.105 345.334 167.028 345.406C166.951 345.476 166.853 345.511 166.733 345.511C166.615 345.511 166.517 345.476 166.441 345.406C166.364 345.334 166.326 345.242 166.326 345.128ZM170.241 344.023L169.851 344.443V345.483H169.101V341.843H169.851V343.493L170.181 343.041L171.108 341.843H172.031L170.738 343.461L172.068 345.483H171.176L170.241 344.023ZM179.868 345.483H177.373V344.988L178.551 343.733C178.712 343.557 178.831 343.403 178.908 343.271C178.986 343.139 179.026 343.014 179.026 342.896C179.026 342.734 178.985 342.608 178.903 342.516C178.821 342.423 178.705 342.376 178.553 342.376C178.39 342.376 178.261 342.433 178.166 342.546C178.072 342.658 178.026 342.805 178.026 342.988H177.301C177.301 342.767 177.353 342.564 177.458 342.381C177.565 342.198 177.715 342.054 177.908 341.951C178.101 341.846 178.321 341.793 178.566 341.793C178.941 341.793 179.231 341.883 179.438 342.063C179.646 342.243 179.751 342.498 179.751 342.826C179.751 343.006 179.704 343.189 179.611 343.376C179.517 343.563 179.357 343.78 179.131 344.028L178.303 344.901H179.868V345.483ZM181.048 343.343H181.433C181.616 343.343 181.752 343.298 181.841 343.206C181.929 343.114 181.973 342.993 181.973 342.841C181.973 342.694 181.929 342.58 181.841 342.498C181.754 342.417 181.634 342.376 181.481 342.376C181.342 342.376 181.226 342.414 181.133 342.491C181.04 342.566 180.993 342.664 180.993 342.786H180.271C180.271 342.596 180.321 342.426 180.423 342.276C180.526 342.124 180.67 342.006 180.853 341.921C181.038 341.836 181.241 341.793 181.463 341.793C181.848 341.793 182.15 341.886 182.368 342.071C182.586 342.254 182.696 342.508 182.696 342.831C182.696 342.998 182.645 343.151 182.543 343.291C182.441 343.431 182.308 343.538 182.143 343.613C182.348 343.687 182.501 343.797 182.601 343.943C182.702 344.09 182.753 344.263 182.753 344.463C182.753 344.787 182.635 345.046 182.398 345.241C182.163 345.436 181.851 345.533 181.463 345.533C181.1 345.533 180.802 345.438 180.571 345.246C180.341 345.054 180.226 344.801 180.226 344.486H180.948C180.948 344.623 180.999 344.734 181.101 344.821C181.204 344.908 181.331 344.951 181.481 344.951C181.652 344.951 181.786 344.906 181.883 344.816C181.981 344.724 182.031 344.603 182.031 344.453C182.031 344.09 181.831 343.908 181.431 343.908H181.048V343.343ZM183.321 345.128C183.321 345.013 183.359 344.92 183.436 344.848C183.514 344.777 183.611 344.741 183.728 344.741C183.846 344.741 183.944 344.777 184.021 344.848C184.099 344.92 184.138 345.013 184.138 345.128C184.138 345.242 184.1 345.334 184.023 345.406C183.946 345.476 183.848 345.511 183.728 345.511C183.61 345.511 183.512 345.476 183.436 345.406C183.359 345.334 183.321 345.242 183.321 345.128ZM184.811 345.128C184.811 345.013 184.849 344.92 184.926 344.848C185.004 344.777 185.101 344.741 185.218 344.741C185.336 344.741 185.434 344.777 185.511 344.848C185.589 344.92 185.628 345.013 185.628 345.128C185.628 345.242 185.59 345.334 185.513 345.406C185.436 345.476 185.338 345.511 185.218 345.511C185.1 345.511 185.002 345.476 184.926 345.406C184.849 345.334 184.811 345.242 184.811 345.128Z" fill="#A3A3A3"/>
<path d="M239.043 344.023L238.653 344.443V345.483H237.903V341.843H238.653V343.493L238.983 343.041L239.911 341.843H240.833L239.541 343.461L240.871 345.483H239.978L239.043 344.023Z" fill="#A3A3A3"/>
<circle opacity="0.3" cx="207.889" cy="207.739" r="206.65" stroke="white" stroke-width="0.7"/>
</svg>
