<svg width="415" height="415" viewBox="0 0 415 415" fill="none" xmlns="http://www.w3.org/2000/svg">
<path d="M195.926 275.341C193.744 275.341 191.61 275.989 189.795 277.201C187.98 278.414 186.565 280.138 185.73 282.154C184.895 284.171 184.676 286.39 185.102 288.531C185.528 290.672 186.579 292.638 188.122 294.182C189.666 295.725 191.632 296.777 193.773 297.202C195.914 297.628 198.133 297.41 200.15 296.574C202.166 295.739 203.89 294.324 205.103 292.509C206.316 290.695 206.963 288.561 206.963 286.378C206.963 283.451 205.8 280.644 203.73 278.574C201.66 276.504 198.853 275.341 195.926 275.341ZM195.926 298.077C193.591 298.077 191.307 297.384 189.365 296.086C187.423 294.789 185.91 292.945 185.016 290.787C184.122 288.629 183.888 286.254 184.344 283.964C184.8 281.673 185.924 279.569 187.576 277.917C189.228 276.266 191.332 275.141 193.622 274.685C195.913 274.23 198.288 274.464 200.445 275.357C202.603 276.251 204.448 277.765 205.745 279.707C207.043 281.649 207.735 283.932 207.735 286.268C207.735 289.4 206.491 292.403 204.277 294.618C202.062 296.832 199.058 298.077 195.926 298.077Z" fill="#A3A3A3"/>
<path d="M195.926 105.324C193.744 105.324 191.61 105.971 189.795 107.184C187.98 108.397 186.565 110.12 185.73 112.137C184.895 114.154 184.676 116.373 185.102 118.513C185.528 120.654 186.579 122.621 188.122 124.164C189.666 125.708 191.632 126.759 193.773 127.185C195.914 127.611 198.133 127.392 200.15 126.557C202.166 125.721 203.89 124.307 205.103 122.492C206.316 120.677 206.963 118.543 206.963 116.36C206.963 113.433 205.8 110.626 203.73 108.556C201.66 106.487 198.853 105.324 195.926 105.324ZM195.926 128.059C193.591 128.059 191.307 127.366 189.365 126.069C187.423 124.771 185.91 122.927 185.016 120.769C184.122 118.611 183.888 116.237 184.344 113.946C184.8 111.655 185.924 109.551 187.576 107.9C189.228 106.248 191.332 105.123 193.622 104.668C195.913 104.212 198.288 104.446 200.445 105.34C202.603 106.234 204.448 107.747 205.745 109.689C207.043 111.631 207.735 113.914 207.735 116.25C207.735 119.382 206.491 122.386 204.277 124.6C202.062 126.815 199.058 128.059 195.926 128.059Z" fill="#A3A3A3"/>
<path d="M205.64 201.535H174.573C174.499 201.535 174.429 201.506 174.377 201.454C174.326 201.402 174.297 201.332 174.297 201.259C174.292 201.222 174.296 201.184 174.309 201.148C174.321 201.113 174.341 201.081 174.368 201.054C174.394 201.028 174.426 201.007 174.462 200.995C174.497 200.983 174.535 200.979 174.573 200.983H205.64C205.678 200.979 205.716 200.983 205.751 200.995C205.787 201.007 205.819 201.028 205.845 201.054C205.872 201.081 205.892 201.113 205.904 201.148C205.917 201.184 205.921 201.222 205.916 201.259C205.916 201.295 205.909 201.331 205.895 201.365C205.881 201.398 205.861 201.429 205.835 201.454C205.81 201.48 205.779 201.5 205.746 201.514C205.713 201.528 205.677 201.535 205.64 201.535ZM208.951 201.535H207.958C207.887 201.529 207.82 201.498 207.77 201.447C207.719 201.397 207.688 201.33 207.682 201.259C207.682 201.186 207.711 201.116 207.763 201.064C207.815 201.012 207.885 200.983 207.958 200.983H209.062C209.099 200.979 209.137 200.983 209.172 200.995C209.208 201.007 209.24 201.028 209.267 201.054C209.293 201.081 209.313 201.113 209.326 201.148C209.338 201.184 209.342 201.222 209.338 201.259C209.338 201.332 209.309 201.402 209.257 201.454C209.205 201.506 209.135 201.535 209.062 201.535H208.951ZM239.412 201.535H211.159C211.088 201.529 211.021 201.498 210.97 201.447C210.92 201.397 210.889 201.33 210.883 201.259C210.883 201.186 210.912 201.116 210.964 201.064C211.015 201.012 211.085 200.983 211.159 200.983H239.219C239.255 200.983 239.291 200.99 239.325 201.004C239.358 201.018 239.388 201.038 239.414 201.064C239.44 201.09 239.46 201.12 239.474 201.154C239.488 201.187 239.495 201.223 239.495 201.259C239.489 201.33 239.458 201.397 239.407 201.447C239.357 201.498 239.29 201.529 239.219 201.535" fill="#A3A3A3"/>
<path d="M235.246 201.259H234.363V266.236H235.246V201.259Z" fill="#A3A3A3"/>
<path d="M180.172 201.259H179.289V266.236H180.172V201.259Z" fill="#A3A3A3"/>
<path d="M181.967 279.508V296.476H183.181V296.449V279.508H181.967Z" fill="#A3A3A3"/>
<path d="M231.355 279.508V296.449V296.476H232.569V279.508H231.355Z" fill="#A3A3A3"/>
<path d="M235.246 104.303H234.363V129.356H235.246V104.303Z" fill="#A3A3A3"/>
<path d="M180.172 104.303H179.289V129.356H180.172V104.303Z" fill="#A3A3A3"/>
<path d="M193.501 122.817H190.079C190.036 122.817 189.993 122.808 189.952 122.792C189.912 122.775 189.876 122.751 189.845 122.72C189.814 122.689 189.79 122.653 189.773 122.613C189.757 122.572 189.748 122.529 189.748 122.486V110.456C189.748 110.413 189.757 110.37 189.773 110.329C189.79 110.289 189.814 110.253 189.845 110.222C189.876 110.191 189.912 110.167 189.952 110.15C189.993 110.134 190.036 110.125 190.079 110.125H193.501V110.787H190.41V122.155H193.501V122.817Z" fill="#A3A3A3"/>
<path d="M208.592 110.456H193.5V122.513H209.061" fill="#434343"/>
<path d="M209.061 122.817H193.499C193.456 122.817 193.413 122.808 193.373 122.792C193.332 122.775 193.296 122.751 193.265 122.72C193.234 122.689 193.21 122.653 193.193 122.613C193.177 122.572 193.168 122.529 193.168 122.486V110.456C193.144 110.375 193.144 110.289 193.168 110.208C193.248 110.176 193.337 110.176 193.417 110.208H208.509V110.87H193.748V122.238H208.978L209.061 122.817Z" fill="#A3A3A3"/>
<path d="M235.246 136.281H234.363V201.259H235.246V136.281Z" fill="#A3A3A3"/>
<path d="M180.172 136.281H179.289V201.259H180.172V136.281Z" fill="#A3A3A3"/>
<path d="M179.703 104.303V95.5289C179.703 94.9493 179.817 94.3753 180.04 93.8402C180.262 93.305 180.589 92.8193 181 92.4111C181.828 91.5852 182.948 91.1193 184.118 91.1143H230.389C231.558 91.1193 232.678 91.5852 233.506 92.4111C233.918 92.8193 234.244 93.305 234.467 93.8402C234.689 94.3753 234.804 94.9493 234.803 95.5289V104.303H230.775V107.062C215.31 103.227 199.142 103.227 183.677 107.062V104.303H179.676" fill="#434343"/>
<path d="M207.239 103.696C215.019 103.702 222.771 104.628 230.333 106.455V104.331C230.333 104.273 230.344 104.215 230.367 104.162C230.389 104.108 230.421 104.059 230.462 104.018C230.503 103.977 230.552 103.945 230.606 103.923C230.659 103.901 230.716 103.889 230.774 103.889H234.361V95.6118C234.358 95.0959 234.251 94.586 234.047 94.1122C233.844 93.6383 233.547 93.21 233.175 92.8526C232.445 92.1165 231.453 91.6998 230.416 91.6938H184.118C183.081 91.6998 182.089 92.1165 181.358 92.8526C180.986 93.21 180.69 93.6383 180.486 94.1122C180.282 94.586 180.176 95.0959 180.172 95.6118V103.889H183.759C183.876 103.889 183.988 103.936 184.071 104.018C184.154 104.101 184.2 104.214 184.2 104.331V106.455C191.753 104.628 199.496 103.702 207.267 103.696H207.239ZM183.759 107.476C183.661 107.486 183.563 107.461 183.482 107.405C183.402 107.35 183.343 107.267 183.317 107.173C183.304 107.1 183.304 107.025 183.317 106.952V104.744H179.758V104.303H179.289V95.529C179.297 94.2359 179.813 92.9975 180.724 92.0801C181.173 91.6309 181.706 91.2753 182.294 91.0337C182.881 90.7922 183.51 90.6695 184.145 90.6729H230.416C231.051 90.6695 231.68 90.7922 232.267 91.0337C232.855 91.2753 233.388 91.6309 233.837 92.0801C234.741 93.0003 235.246 94.2392 235.244 95.529V104.303C235.245 104.415 235.202 104.524 235.125 104.606C235.048 104.688 234.943 104.737 234.83 104.744H231.244V106.869C231.271 106.94 231.271 107.019 231.244 107.09C231.223 107.197 231.164 107.293 231.078 107.359C230.991 107.425 230.883 107.457 230.774 107.448C230.693 107.472 230.607 107.472 230.526 107.448C215.26 103.738 199.328 103.738 184.062 107.448C183.983 107.481 183.894 107.481 183.814 107.448" fill="#A3A3A3"/>
<path d="M225.146 125.355H230.664C231.898 126.794 233.235 128.14 234.665 129.384V136.309C234.663 136.884 234.548 137.453 234.325 137.984C234.103 138.514 233.777 138.995 233.368 139.399C232.54 140.225 231.42 140.691 230.25 140.696H184.118C182.948 140.691 181.828 140.225 181 139.399C180.591 138.995 180.265 138.514 180.043 137.984C179.82 137.453 179.705 136.884 179.703 136.309V129.356C181.055 128.114 183.704 125.328 183.704 125.328H189.222C191.184 126.799 193.571 127.594 196.023 127.594C198.476 127.594 200.862 126.799 202.825 125.328H211.378C213.313 126.792 215.665 127.601 218.092 127.636C220.519 127.671 222.894 126.93 224.87 125.521L225.146 125.355Z" fill="#434343"/>
<path d="M180.145 129.549V136.281C180.151 137.318 180.567 138.31 181.303 139.04C182.04 139.767 183.028 140.182 184.063 140.199H230.333C231.37 140.193 232.362 139.776 233.092 139.04C233.465 138.684 233.763 138.256 233.967 137.782C234.171 137.308 234.277 136.797 234.279 136.281V129.577C232.937 128.401 231.674 127.139 230.499 125.797H225.256C223.247 127.243 220.834 128.021 218.359 128.021C215.883 128.021 213.47 127.243 211.461 125.797H203.045C201.041 127.255 198.626 128.04 196.148 128.04C193.669 128.04 191.254 127.255 189.25 125.797H183.897C183.345 126.376 181.359 128.556 180.145 129.549ZM230.388 141.11H184.118C183.483 141.113 182.853 140.99 182.266 140.749C181.679 140.507 181.145 140.152 180.696 139.703C179.787 138.795 179.271 137.566 179.262 136.281V129.356C179.261 129.278 179.281 129.201 179.32 129.133C179.359 129.065 179.415 129.009 179.482 128.97C180.807 127.728 183.373 125.052 183.4 125.024C183.468 124.985 183.544 124.965 183.621 124.965C183.699 124.965 183.775 124.985 183.842 125.024H189.36C189.441 124.997 189.528 124.997 189.608 125.024C191.496 126.45 193.796 127.221 196.161 127.221C198.527 127.221 200.827 126.45 202.714 125.024H202.935H211.212H211.433C211.55 124.986 211.675 124.986 211.792 125.024C213.639 126.436 215.891 127.218 218.216 127.253C220.541 127.287 222.816 126.574 224.705 125.217C224.805 125.128 224.93 125.071 225.063 125.052H230.582C230.667 125.035 230.756 125.042 230.838 125.071C230.921 125.1 230.994 125.151 231.051 125.217C232.24 126.616 233.531 127.926 234.913 129.135C234.977 129.172 235.031 129.224 235.069 129.286C235.108 129.349 235.13 129.42 235.134 129.494V136.419C235.127 137.702 234.612 138.93 233.702 139.835C232.792 140.74 231.561 141.248 230.278 141.248" fill="#A3A3A3"/>
<path d="M231.135 106.069H231.99V121.768H231.466L231.935 123.231V124.114L232.156 125.438L232.266 126.542L233.039 127.287L233.176 124.224L233.232 122.403V104.303H231.218L231.19 104.275L231.135 106.069Z" fill="#434343"/>
<path d="M232.624 126.376V122.32V104.662H231.355V105.683H231.796C231.885 105.649 231.983 105.649 232.072 105.683C232.09 105.722 232.099 105.764 232.099 105.807C232.099 105.85 232.09 105.892 232.072 105.931V121.658C232.09 121.702 232.1 121.749 232.1 121.796C232.1 121.843 232.09 121.89 232.072 121.934C231.983 121.965 231.886 121.965 231.796 121.934L232.1 122.9V123.782L232.32 125.024L232.624 126.376ZM233.038 127.673C232.999 127.69 232.957 127.699 232.914 127.699C232.871 127.699 232.829 127.69 232.79 127.673L231.989 126.928C231.97 126.889 231.96 126.847 231.96 126.804C231.96 126.761 231.97 126.718 231.989 126.68V125.576L231.769 124.279V123.396L231.327 121.989C231.284 121.883 231.284 121.764 231.327 121.658C231.361 121.609 231.407 121.568 231.459 121.539C231.512 121.511 231.571 121.494 231.631 121.492H231.769V106.428H231.3C231.211 106.462 231.113 106.462 231.024 106.428C230.992 106.338 230.992 106.241 231.024 106.152V104.358H231.438V104H233.452C233.554 104 233.652 104.04 233.725 104.113C233.797 104.185 233.838 104.283 233.838 104.386V122.486V124.334V127.425C233.832 127.498 233.806 127.568 233.762 127.626C233.718 127.685 233.658 127.73 233.59 127.756H233.452" fill="#A3A3A3"/>
<path d="M231.355 106.069V123.037H231.963V106.069H231.355Z" fill="#A3A3A3"/>
<path d="M183.319 104.303H181.277V122.403L181.333 124.224L181.471 127.287L182.271 126.542L182.353 125.438L182.574 124.114V123.231L183.043 121.768H182.519V106.069H183.374L183.319 104.275V104.303Z" fill="#434343"/>
<path d="M181.664 104.662V122.375V126.431V125.438L181.912 124.114V123.286L182.216 122.32C182.126 122.346 182.03 122.346 181.94 122.32C181.922 122.276 181.912 122.23 181.912 122.182C181.912 122.135 181.922 122.088 181.94 122.044V106.317C181.914 106.236 181.914 106.15 181.94 106.069C182.029 106.035 182.127 106.035 182.216 106.069H183.126V105.048L181.664 104.662ZM181.471 127.673C181.402 127.647 181.343 127.602 181.299 127.543C181.255 127.485 181.228 127.415 181.222 127.342L181.029 122.431V104.275C181.029 104.173 181.07 104.075 181.142 104.002C181.215 103.93 181.313 103.889 181.416 103.889H183.43V104.248H183.844V106.041C183.864 106.085 183.874 106.132 183.874 106.179C183.874 106.227 183.864 106.274 183.844 106.317C183.755 106.351 183.657 106.351 183.568 106.317H183.099V121.272H183.126C183.186 121.274 183.245 121.29 183.298 121.319C183.35 121.347 183.395 121.388 183.43 121.437C183.456 121.488 183.47 121.545 183.47 121.603C183.47 121.66 183.456 121.717 183.43 121.768L182.988 123.175V124.003L182.768 125.383V126.459C182.787 126.497 182.797 126.54 182.797 126.583C182.797 126.626 182.787 126.669 182.768 126.707L181.967 127.452C181.928 127.47 181.886 127.479 181.843 127.479C181.8 127.479 181.758 127.47 181.719 127.452" fill="#A3A3A3"/>
<path d="M182.545 106.069V123.037H183.18V106.069H182.545Z" fill="#A3A3A3"/>
<path d="M232.266 275.866L232.156 276.997L231.935 278.321V279.204L231.466 280.666H231.99V296.504H231.135L231.19 298.297L231.218 298.27H233.232V280.059L233.176 278.211L233.039 275.121L232.266 275.866Z" fill="#434343"/>
<path d="M231.576 297.884H232.79V280.087V276.031V277.025L232.569 278.377V279.177C232.582 279.222 232.582 279.27 232.569 279.315L232.265 280.28C232.355 280.254 232.451 280.254 232.541 280.28C232.559 280.324 232.569 280.371 232.569 280.418C232.569 280.466 232.559 280.513 232.541 280.556V296.642C232.559 296.681 232.568 296.723 232.568 296.766C232.568 296.809 232.559 296.851 232.541 296.89C232.469 296.968 232.371 297.017 232.265 297.028H231.824L231.576 297.884ZM233.231 298.656H231.217V298.298H230.803V296.504C230.771 296.415 230.771 296.318 230.803 296.228C230.893 296.204 230.989 296.204 231.079 296.228H231.548V281.163H231.41C231.35 281.161 231.291 281.145 231.239 281.116C231.186 281.088 231.141 281.047 231.107 280.998C231.08 280.947 231.066 280.89 231.066 280.832C231.066 280.775 231.08 280.718 231.107 280.667L231.548 279.232V278.404L231.769 277.025V275.921C231.752 275.887 231.743 275.849 231.743 275.811C231.743 275.772 231.752 275.735 231.769 275.7L232.569 274.928C232.628 274.894 232.694 274.876 232.762 274.876C232.83 274.876 232.896 274.894 232.955 274.928C233.024 274.954 233.083 274.999 233.127 275.057C233.171 275.116 233.198 275.186 233.203 275.259L233.397 280.198V298.436C233.397 298.538 233.356 298.636 233.283 298.709C233.211 298.781 233.113 298.822 233.01 298.822" fill="#A3A3A3"/>
<path d="M231.355 279.508V296.449V296.476H231.963V279.508H231.355Z" fill="#A3A3A3"/>
<path d="M181.333 278.211L181.277 280.059V298.297H183.319L183.374 296.504H182.519V280.666H183.043L182.574 279.204V278.321L182.353 276.997L182.271 275.866L181.471 275.121L181.333 278.211Z" fill="#434343"/>
<path d="M181.663 297.884H182.932V296.863H182.491C182.387 296.846 182.291 296.797 182.215 296.725C182.19 296.644 182.19 296.557 182.215 296.477V280.639C182.197 280.595 182.187 280.549 182.187 280.501C182.187 280.454 182.197 280.407 182.215 280.363C182.305 280.337 182.401 280.337 182.491 280.363L182.187 279.398C182.174 279.352 182.174 279.305 182.187 279.26V278.377L181.967 277.135V276.114V280.198L181.663 297.884ZM183.291 298.656H181.277C181.174 298.656 181.076 298.616 181.004 298.543C180.931 298.471 180.891 298.372 180.891 298.27V280.087V278.239L181.029 275.148C181.031 275.074 181.056 275.003 181.1 274.944C181.145 274.884 181.206 274.84 181.277 274.817C181.336 274.783 181.402 274.766 181.47 274.766C181.538 274.766 181.604 274.783 181.663 274.817L182.463 275.562C182.496 275.642 182.496 275.731 182.463 275.811V276.969L182.684 278.239V279.122L183.126 280.556C183.168 280.663 183.168 280.781 183.126 280.887C183.091 280.937 183.046 280.977 182.993 281.006C182.941 281.035 182.882 281.051 182.822 281.053H182.684V296.118H183.153C183.243 296.088 183.339 296.088 183.429 296.118C183.461 296.207 183.461 296.305 183.429 296.394V298.187H183.015L183.291 298.656Z" fill="#A3A3A3"/>
<path d="M182.545 279.508V296.476H183.18V296.449V279.508H182.545Z" fill="#A3A3A3"/>
<path d="M218.469 104.883C220.717 104.883 222.915 105.55 224.785 106.799C226.654 108.048 228.111 109.823 228.972 111.9C229.832 113.977 230.057 116.263 229.618 118.468C229.18 120.673 228.097 122.699 226.507 124.289C224.917 125.878 222.892 126.961 220.687 127.4C218.482 127.838 216.196 127.613 214.119 126.753C212.042 125.892 210.266 124.435 209.017 122.566C207.768 120.697 207.102 118.499 207.102 116.25C207.098 114.757 207.389 113.277 207.959 111.896C208.529 110.515 209.367 109.261 210.423 108.204C211.479 107.148 212.734 106.311 214.115 105.741C215.496 105.171 216.975 104.879 218.469 104.883Z" fill="#D3D3D3"/>
<path d="M218.469 105.324C216.286 105.324 214.153 105.971 212.338 107.184C210.523 108.397 209.108 110.12 208.273 112.137C207.437 114.154 207.219 116.373 207.645 118.513C208.071 120.654 209.122 122.621 210.665 124.164C212.209 125.708 214.175 126.759 216.316 127.185C218.457 127.611 220.676 127.392 222.693 126.557C224.709 125.721 226.433 124.307 227.646 122.492C228.858 120.677 229.506 118.543 229.506 116.36C229.506 113.433 228.343 110.626 226.273 108.556C224.203 106.487 221.396 105.324 218.469 105.324ZM218.469 128.059C216.134 128.059 213.85 127.366 211.908 126.069C209.966 124.771 208.453 122.927 207.559 120.769C206.665 118.611 206.431 116.237 206.887 113.946C207.343 111.655 208.467 109.551 210.119 107.9C211.77 106.248 213.875 105.123 216.165 104.668C218.456 104.212 220.831 104.446 222.988 105.34C225.146 106.234 226.99 107.747 228.288 109.689C229.586 111.631 230.278 113.914 230.278 116.25C230.278 119.382 229.034 122.386 226.82 124.6C224.605 126.815 221.601 128.059 218.469 128.059Z" fill="#A3A3A3"/>
<path d="M235.246 273.162H234.363V298.215H235.246V273.162Z" fill="#A3A3A3"/>
<path d="M180.172 273.162H179.289V298.215H180.172V273.162Z" fill="#A3A3A3"/>
<path d="M193.501 292.393H190.079C189.991 292.393 189.907 292.358 189.845 292.296C189.783 292.234 189.748 292.149 189.748 292.062V280.087C189.754 280.001 189.791 279.921 189.852 279.86C189.913 279.799 189.993 279.762 190.079 279.756H193.501V280.418H190.41V291.813H193.501V292.393Z" fill="#A3A3A3"/>
<path d="M208.592 292.062H193.5V280.032H209.061" fill="#434343"/>
<path d="M193.499 292.393C193.419 292.425 193.33 292.425 193.25 292.393C193.226 292.312 193.226 292.225 193.25 292.144V280.087C193.25 279.999 193.285 279.915 193.347 279.853C193.409 279.791 193.494 279.756 193.581 279.756H209.143V280.418H193.912V291.813H208.674V292.475L193.499 292.393Z" fill="#A3A3A3"/>
<path d="M179.705 298.215V306.989C179.705 307.568 179.819 308.142 180.042 308.677C180.264 309.212 180.591 309.698 181.002 310.107C181.83 310.932 182.95 311.398 184.12 311.403H230.391C231.56 311.398 232.68 310.932 233.508 310.107C233.92 309.698 234.246 309.212 234.469 308.677C234.691 308.142 234.806 307.568 234.805 306.989V298.215H230.777V295.456C215.312 299.291 199.144 299.291 183.679 295.456V298.215H179.678" fill="#434343"/>
<path d="M180.145 298.656V306.934C180.148 307.45 180.255 307.96 180.459 308.433C180.663 308.907 180.959 309.336 181.331 309.693C182.061 310.429 183.053 310.846 184.09 310.852H230.361C231.398 310.846 232.39 310.429 233.12 309.693C233.492 309.336 233.788 308.907 233.992 308.433C234.196 307.96 234.303 307.45 234.306 306.934V298.656H230.719C230.602 298.656 230.49 298.61 230.407 298.527C230.325 298.444 230.278 298.332 230.278 298.215V296.09C215.107 299.732 199.289 299.732 184.118 296.09V298.215C184.118 298.332 184.071 298.444 183.988 298.527C183.906 298.61 183.793 298.656 183.676 298.656H180.145ZM230.388 311.845H184.118C183.48 311.85 182.848 311.725 182.26 311.478C181.672 311.232 181.14 310.868 180.696 310.41C180.244 309.963 179.884 309.43 179.637 308.843C179.391 308.256 179.263 307.626 179.262 306.989V298.215H179.731V297.774H183.29V295.649C183.262 295.578 183.262 295.499 183.29 295.428C183.308 295.355 183.344 295.287 183.394 295.231C183.444 295.174 183.506 295.131 183.577 295.104C183.647 295.076 183.723 295.067 183.798 295.075C183.873 295.084 183.945 295.11 184.007 295.152C199.271 298.877 215.207 298.877 230.471 295.152C230.552 295.127 230.639 295.127 230.719 295.152C230.829 295.135 230.94 295.16 231.032 295.221C231.124 295.283 231.19 295.376 231.216 295.483C231.216 295.483 231.216 295.483 231.216 295.649V297.884H234.775C234.895 297.884 235.01 297.929 235.098 298.011C235.185 298.093 235.237 298.206 235.244 298.325V307.099C235.236 308.392 234.721 309.631 233.81 310.548C233.361 310.997 232.827 311.353 232.24 311.595C231.653 311.836 231.023 311.959 230.388 311.955" fill="#A3A3A3"/>
<path d="M225.148 277.162H230.666C230.666 276.086 234.667 273.134 234.667 273.134V266.291C234.667 265.713 234.552 265.14 234.33 264.606C234.108 264.072 233.783 263.587 233.372 263.179C232.962 262.772 232.475 262.449 231.94 262.23C231.404 262.012 230.831 261.901 230.252 261.904H184.12C183.541 261.901 182.968 262.012 182.432 262.23C181.897 262.449 181.41 262.772 181 263.179C180.589 263.587 180.264 264.072 180.042 264.606C179.819 265.14 179.705 265.713 179.705 266.291V273.217C181.148 274.446 182.486 275.794 183.706 277.245H189.224C191.185 275.77 193.572 274.972 196.025 274.972C198.479 274.972 200.866 275.77 202.827 277.245H211.38C213.315 275.78 215.667 274.972 218.094 274.937C220.521 274.902 222.896 275.643 224.872 277.052L225.148 277.162Z" fill="#434343"/>
<path d="M211.546 276.721C213.55 275.263 215.965 274.478 218.443 274.478C220.922 274.478 223.337 275.263 225.341 276.721H230.501C231.549 275.228 232.869 273.946 234.391 272.941V266.291C234.389 265.775 234.283 265.265 234.079 264.791C233.875 264.317 233.578 263.889 233.205 263.532C232.475 262.796 231.482 262.379 230.446 262.373H184.12C183.085 262.391 182.098 262.806 181.361 263.532C180.625 264.262 180.208 265.255 180.202 266.291V272.996C181.553 274.153 182.808 275.417 183.954 276.776H189.307C191.311 275.318 193.726 274.533 196.205 274.533C198.683 274.533 201.098 275.318 203.103 276.776L211.546 276.721ZM211.546 277.714H211.325H203.048H202.882C200.997 276.284 198.695 275.51 196.329 275.51C193.963 275.51 191.661 276.284 189.776 277.714C189.696 277.741 189.608 277.741 189.528 277.714H184.01C183.941 277.748 183.865 277.766 183.789 277.766C183.712 277.766 183.637 277.748 183.568 277.714C182.389 276.288 181.087 274.968 179.678 273.769C179.614 273.732 179.56 273.68 179.522 273.617C179.483 273.555 179.461 273.483 179.457 273.41V266.291C179.464 265.008 179.979 263.78 180.889 262.875C181.799 261.971 183.03 261.463 184.313 261.463H230.584C231.867 261.463 233.098 261.971 234.008 262.875C234.918 263.78 235.432 265.008 235.44 266.291V273.217C235.438 273.298 235.414 273.377 235.37 273.445C235.326 273.513 235.264 273.568 235.191 273.603C233.698 274.549 232.412 275.788 231.411 277.245C231.404 277.357 231.355 277.463 231.273 277.54C231.191 277.616 231.082 277.659 230.97 277.659H225.452C225.383 277.661 225.315 277.647 225.253 277.619C225.191 277.59 225.136 277.547 225.093 277.493C223.19 276.169 220.919 275.478 218.601 275.518C216.283 275.557 214.037 276.326 212.18 277.714C212.09 277.739 211.995 277.739 211.904 277.714" fill="#A3A3A3"/>
<path d="M218.469 274.9C220.717 274.9 222.915 275.567 224.785 276.816C226.654 278.065 228.111 279.84 228.972 281.917C229.832 283.995 230.057 286.28 229.618 288.485C229.18 290.69 228.097 292.716 226.507 294.306C224.917 295.895 222.892 296.978 220.687 297.417C218.482 297.855 216.196 297.63 214.119 296.77C212.042 295.909 210.266 294.452 209.017 292.583C207.768 290.714 207.102 288.516 207.102 286.268C207.098 284.774 207.389 283.294 207.959 281.913C208.529 280.532 209.367 279.278 210.423 278.221C211.479 277.165 212.734 276.328 214.115 275.758C215.496 275.188 216.975 274.896 218.469 274.9Z" fill="#D3D3D3"/>
<path d="M218.469 275.341C216.286 275.341 214.153 275.989 212.338 277.201C210.523 278.414 209.108 280.138 208.273 282.154C207.437 284.171 207.219 286.39 207.645 288.531C208.071 290.672 209.122 292.638 210.665 294.182C212.209 295.725 214.175 296.777 216.316 297.202C218.457 297.628 220.676 297.41 222.693 296.574C224.709 295.739 226.433 294.324 227.646 292.509C228.858 290.695 229.506 288.561 229.506 286.378C229.506 283.451 228.343 280.644 226.273 278.574C224.203 276.504 221.396 275.341 218.469 275.341ZM218.469 298.077C216.134 298.077 213.85 297.384 211.908 296.086C209.966 294.789 208.453 292.945 207.559 290.787C206.665 288.629 206.431 286.254 206.887 283.964C207.343 281.673 208.467 279.569 210.119 277.917C211.77 276.266 213.875 275.141 216.165 274.685C218.456 274.23 220.831 274.464 222.988 275.357C225.146 276.251 226.99 277.765 228.288 279.707C229.586 281.649 230.278 283.932 230.278 286.268C230.278 289.4 229.034 292.403 226.82 294.618C224.605 296.832 221.601 298.077 218.469 298.077Z" fill="#A3A3A3"/>
<path d="M153.575 304.919C153.539 304.919 153.503 304.912 153.469 304.898C153.436 304.884 153.405 304.864 153.38 304.838C153.354 304.813 153.334 304.782 153.32 304.749C153.306 304.715 153.299 304.68 153.299 304.643V210.833C153.305 210.762 153.336 210.695 153.387 210.645C153.437 210.594 153.504 210.563 153.575 210.557C153.648 210.557 153.718 210.586 153.77 210.638C153.822 210.69 153.851 210.76 153.851 210.833V304.643C153.855 304.681 153.851 304.719 153.839 304.754C153.826 304.79 153.806 304.822 153.78 304.848C153.753 304.875 153.721 304.895 153.685 304.907C153.65 304.92 153.612 304.924 153.575 304.919Z" fill="#A3A3A3"/>
<path d="M153.575 192.044C153.504 192.037 153.437 192.006 153.387 191.956C153.336 191.905 153.305 191.839 153.299 191.768V98.5643C153.299 98.528 153.306 98.4922 153.32 98.4587C153.334 98.4252 153.354 98.3948 153.38 98.3692C153.405 98.3436 153.436 98.3232 153.469 98.3094C153.503 98.2955 153.539 98.2884 153.575 98.2884C153.612 98.2839 153.65 98.288 153.685 98.3003C153.721 98.3126 153.753 98.3328 153.78 98.3593C153.806 98.3859 153.826 98.4182 153.839 98.4536C153.851 98.4891 153.855 98.527 153.851 98.5643V191.795C153.851 191.868 153.822 191.939 153.77 191.99C153.718 192.042 153.648 192.071 153.575 192.071" fill="#A3A3A3"/>
<path d="M152.193 101.351L153.6 91.4453L154.98 101.351H152.193Z" fill="#A3A3A3"/>
<path d="M154.98 301.719L153.6 311.624L152.193 301.719H154.98Z" fill="#A3A3A3"/>
<path d="M151.036 204.984H153.188C153.719 205.006 154.25 204.941 154.76 204.791C155.108 204.708 155.424 204.525 155.671 204.266C156.006 203.901 156.26 203.468 156.416 202.997C156.596 202.36 156.679 201.7 156.664 201.038C156.709 200.2 156.538 199.364 156.168 198.61C155.884 198.101 155.436 197.703 154.898 197.479C154.336 197.307 153.748 197.233 153.16 197.258H151.036V204.984ZM149.684 206.17V196.072H153.188C153.784 196.016 154.385 196.016 154.981 196.072C155.525 196.197 156.034 196.442 156.471 196.789C156.997 197.268 157.403 197.863 157.657 198.527C157.937 199.296 158.068 200.11 158.044 200.928C158.055 201.617 157.971 202.304 157.795 202.97C157.638 203.497 157.405 203.998 157.106 204.459C156.85 204.817 156.533 205.126 156.168 205.37C155.805 205.606 155.403 205.774 154.981 205.867C154.446 205.982 153.9 206.037 153.353 206.032L149.684 206.17Z" fill="#A3A3A3"/>
<path d="M177.607 91.4454H148.332C148.295 91.4498 148.257 91.4457 148.222 91.4334C148.186 91.4211 148.154 91.401 148.127 91.3744C148.101 91.3478 148.081 91.3156 148.068 91.2801C148.056 91.2446 148.052 91.2068 148.056 91.1695C148.056 91.0963 148.085 91.0261 148.137 90.9744C148.189 90.9226 148.259 90.8936 148.332 90.8936H177.607C177.68 90.8936 177.75 90.9226 177.802 90.9744C177.854 91.0261 177.883 91.0963 177.883 91.1695C177.887 91.2068 177.883 91.2446 177.871 91.2801C177.858 91.3156 177.838 91.3478 177.812 91.3744C177.785 91.401 177.753 91.4211 177.717 91.4334C177.682 91.4457 177.644 91.4498 177.607 91.4454Z" fill="#A3A3A3"/>
<path d="M178.434 311.652H148.332C148.259 311.652 148.189 311.623 148.137 311.571C148.085 311.519 148.056 311.449 148.056 311.376C148.052 311.338 148.056 311.301 148.068 311.265C148.081 311.23 148.101 311.197 148.127 311.171C148.154 311.144 148.186 311.124 148.222 311.112C148.257 311.1 148.295 311.095 148.332 311.1H178.434C178.472 311.095 178.509 311.1 178.545 311.112C178.58 311.124 178.613 311.144 178.639 311.171C178.666 311.197 178.686 311.23 178.698 311.265C178.711 311.301 178.715 311.338 178.71 311.376C178.71 311.449 178.681 311.519 178.629 311.571C178.578 311.623 178.508 311.652 178.434 311.652Z" fill="#A3A3A3"/>
<path d="M228.156 64.1854H215.133C215.06 64.1854 214.99 64.1563 214.938 64.1046C214.886 64.0528 214.857 63.9827 214.857 63.9095C214.853 63.8722 214.857 63.8344 214.869 63.7989C214.881 63.7634 214.902 63.7311 214.928 63.7046C214.955 63.678 214.987 63.6578 215.022 63.6455C215.058 63.6332 215.096 63.6291 215.133 63.6336H228.156C228.194 63.6291 228.231 63.6332 228.267 63.6455C228.302 63.6578 228.335 63.678 228.361 63.7046C228.388 63.7311 228.408 63.7634 228.42 63.7989C228.433 63.8344 228.437 63.8722 228.432 63.9095C228.432 63.9827 228.403 64.0528 228.351 64.1046C228.3 64.1563 228.229 64.1854 228.156 64.1854Z" fill="#A3A3A3"/>
<path d="M200.065 64.1854H187.207C187.134 64.1854 187.064 64.1563 187.012 64.1046C186.961 64.0528 186.931 63.9827 186.931 63.9095C186.927 63.8722 186.931 63.8344 186.943 63.7989C186.956 63.7634 186.976 63.7311 187.002 63.7046C187.029 63.678 187.061 63.6578 187.097 63.6455C187.132 63.6332 187.17 63.6291 187.207 63.6336H200.065C200.138 63.6336 200.208 63.6626 200.26 63.7144C200.312 63.7661 200.341 63.8363 200.341 63.9095C200.335 63.9806 200.303 64.0472 200.253 64.0977C200.203 64.1481 200.136 64.1792 200.065 64.1854Z" fill="#A3A3A3"/>
<path d="M189.608 65.2892L179.703 63.9096L189.608 62.5024V65.2892Z" fill="#A3A3A3"/>
<path d="M224.869 62.5298L234.802 63.9093L224.869 65.3165V62.5298Z" fill="#A3A3A3"/>
<path d="M205.198 67.9102H207.708H208.619C208.892 67.8693 209.154 67.7756 209.392 67.6343C209.611 67.5067 209.784 67.3138 209.888 67.0825C210.059 66.8044 210.149 66.4845 210.149 66.1582C210.149 65.8318 210.059 65.5119 209.888 65.2339C209.692 64.9584 209.411 64.7548 209.088 64.6544C208.602 64.525 208.1 64.4692 207.598 64.4889H205.198V67.9102ZM205.198 63.2473H207.377C207.799 63.2904 208.225 63.2904 208.647 63.2473C208.955 63.1636 209.227 62.979 209.419 62.723C209.594 62.463 209.681 62.1534 209.667 61.8401C209.67 61.5319 209.594 61.2281 209.447 60.9572C209.275 60.7168 209.035 60.534 208.757 60.433C208.249 60.3253 207.731 60.279 207.212 60.295H205.198V63.3576V63.2473ZM203.846 69.0966V58.9982H207.653C208.284 58.9651 208.915 59.0686 209.502 59.3017C209.957 59.4949 210.342 59.8221 210.606 60.2398C210.863 60.6432 210.998 61.1131 210.992 61.5918C210.993 62.0228 210.869 62.4448 210.633 62.8058C210.386 63.2105 210.02 63.5287 209.585 63.7163C210.14 63.874 210.633 64.2021 210.992 64.6544C211.326 65.0888 211.501 65.6243 211.488 66.172C211.486 66.6304 211.382 67.0826 211.185 67.4963C211.022 67.8683 210.765 68.1915 210.44 68.4344C210.111 68.6751 209.735 68.8443 209.336 68.9311C208.802 69.0509 208.256 69.1065 207.708 69.0966H203.846Z" fill="#A3A3A3"/>
<path d="M179.702 89.9834C179.664 89.9878 179.626 89.9837 179.591 89.9714C179.555 89.9591 179.523 89.9389 179.497 89.9124C179.47 89.8858 179.45 89.8536 179.438 89.8181C179.425 89.7826 179.421 89.7447 179.426 89.7074V61.0125C179.421 60.9752 179.425 60.9374 179.438 60.9019C179.45 60.8664 179.47 60.8342 179.497 60.8076C179.523 60.781 179.555 60.7608 179.591 60.7485C179.626 60.7363 179.664 60.7322 179.702 60.7366C179.775 60.7366 179.845 60.7657 179.897 60.8174C179.948 60.8692 179.977 60.9393 179.977 61.0125V89.7074C179.977 89.7806 179.948 89.8508 179.897 89.9025C179.845 89.9543 179.775 89.9834 179.702 89.9834Z" fill="#A3A3A3"/>
<path d="M234.803 89.9834C234.766 89.9878 234.728 89.9837 234.692 89.9714C234.657 89.9591 234.625 89.9389 234.598 89.9124C234.572 89.8858 234.551 89.8536 234.539 89.8181C234.527 89.7826 234.523 89.7447 234.527 89.7074V61.0125C234.523 60.9752 234.527 60.9374 234.539 60.9019C234.551 60.8664 234.572 60.8342 234.598 60.8076C234.625 60.781 234.657 60.7608 234.692 60.7485C234.728 60.7363 234.766 60.7322 234.803 60.7366C234.876 60.7366 234.946 60.7657 234.998 60.8174C235.05 60.8692 235.079 60.9393 235.079 61.0125V89.7074C235.079 89.7806 235.05 89.8508 234.998 89.9025C234.946 89.9543 234.876 89.9834 234.803 89.9834Z" fill="#A3A3A3"/>
<path d="M262.145 254.731C262.072 254.731 262.002 254.702 261.95 254.65C261.898 254.598 261.869 254.528 261.869 254.455V210.944C261.869 210.871 261.898 210.8 261.95 210.749C262.002 210.697 262.072 210.668 262.145 210.668C262.182 210.663 262.22 210.667 262.256 210.68C262.291 210.692 262.323 210.712 262.35 210.739C262.377 210.765 262.397 210.798 262.409 210.833C262.421 210.869 262.425 210.906 262.421 210.944V254.455C262.425 254.492 262.421 254.53 262.409 254.566C262.397 254.601 262.377 254.633 262.35 254.66C262.323 254.687 262.291 254.707 262.256 254.719C262.22 254.731 262.182 254.735 262.145 254.731Z" fill="#A3A3A3"/>
<path d="M262.145 192.098C262.072 192.098 262.002 192.069 261.95 192.017C261.898 191.966 261.869 191.896 261.869 191.822V147.649C261.869 147.576 261.898 147.505 261.95 147.454C262.002 147.402 262.072 147.373 262.145 147.373C262.182 147.368 262.22 147.372 262.256 147.385C262.291 147.397 262.323 147.417 262.35 147.444C262.377 147.47 262.397 147.503 262.409 147.538C262.421 147.574 262.425 147.611 262.421 147.649V191.795C262.425 191.832 262.421 191.87 262.409 191.905C262.397 191.941 262.377 191.973 262.35 192C262.323 192.026 262.291 192.046 262.256 192.059C262.22 192.071 262.182 192.075 262.145 192.071" fill="#A3A3A3"/>
<path d="M260.766 150.601L262.173 140.696L263.552 150.601H260.766Z" fill="#A3A3A3"/>
<path d="M263.552 251.944L262.173 261.849L260.766 251.944H263.552Z" fill="#A3A3A3"/>
<path d="M259.359 202.528C259.304 203.273 259.509 204.014 259.939 204.625C260.107 204.838 260.321 205.01 260.564 205.129C260.808 205.248 261.075 205.312 261.346 205.315C261.611 205.317 261.873 205.259 262.113 205.144C262.352 205.029 262.561 204.861 262.726 204.653C263.156 204.074 263.362 203.358 263.305 202.638C263.37 201.858 263.166 201.079 262.726 200.431C262.559 200.208 262.342 200.028 262.093 199.903C261.844 199.779 261.569 199.714 261.291 199.714C261.022 199.708 260.756 199.768 260.516 199.888C260.275 200.008 260.068 200.185 259.911 200.404C259.483 201.025 259.287 201.777 259.359 202.528ZM263.277 206.17V205.26C263.063 205.604 262.761 205.885 262.402 206.074C262.043 206.263 261.641 206.353 261.236 206.336C260.657 206.354 260.088 206.19 259.608 205.867C259.119 205.523 258.729 205.056 258.476 204.515C258.2 203.89 258.068 203.211 258.09 202.528C258.073 201.848 258.195 201.172 258.449 200.542C258.664 199.978 259.05 199.496 259.553 199.162C260.038 198.85 260.604 198.687 261.18 198.693C261.593 198.683 262.001 198.778 262.367 198.969C262.685 199.155 262.965 199.398 263.195 199.686V196.072H264.436V206.17H263.277Z" fill="#A3A3A3"/>
<path d="M266.561 140.944H236.901C236.863 140.949 236.826 140.945 236.79 140.932C236.755 140.92 236.722 140.9 236.696 140.873C236.669 140.847 236.649 140.815 236.637 140.779C236.624 140.744 236.62 140.706 236.625 140.668C236.625 140.595 236.654 140.525 236.706 140.473C236.757 140.422 236.827 140.393 236.901 140.393H266.561C266.632 140.399 266.699 140.43 266.749 140.48C266.8 140.531 266.831 140.597 266.837 140.668C266.837 140.742 266.808 140.812 266.756 140.864C266.705 140.915 266.634 140.944 266.561 140.944Z" fill="#A3A3A3"/>
<path d="M266.561 262.125H236.901C236.827 262.125 236.757 262.096 236.706 262.044C236.654 261.992 236.625 261.922 236.625 261.849C236.62 261.812 236.624 261.774 236.637 261.738C236.649 261.703 236.669 261.671 236.696 261.644C236.722 261.617 236.755 261.597 236.79 261.585C236.826 261.573 236.863 261.569 236.901 261.573H266.561C266.634 261.573 266.705 261.602 266.756 261.654C266.808 261.706 266.837 261.776 266.837 261.849C266.831 261.92 266.8 261.987 266.749 262.037C266.699 262.088 266.632 262.119 266.561 262.125Z" fill="#A3A3A3"/>
<path d="M182.614 327.991H180.119V327.496L181.296 326.241C181.458 326.065 181.577 325.91 181.654 325.779C181.732 325.647 181.771 325.522 181.771 325.404C181.771 325.242 181.73 325.115 181.649 325.024C181.567 324.93 181.45 324.884 181.299 324.884C181.135 324.884 181.006 324.94 180.911 325.054C180.818 325.165 180.771 325.313 180.771 325.496H180.046C180.046 325.275 180.099 325.072 180.204 324.889C180.31 324.705 180.46 324.562 180.654 324.459C180.847 324.354 181.066 324.301 181.311 324.301C181.686 324.301 181.977 324.391 182.184 324.571C182.392 324.751 182.496 325.005 182.496 325.334C182.496 325.514 182.449 325.697 182.356 325.884C182.263 326.07 182.103 326.288 181.876 326.536L181.049 327.409H182.614V327.991ZM185.554 327.991H183.059V327.496L184.236 326.241C184.398 326.065 184.517 325.91 184.594 325.779C184.672 325.647 184.711 325.522 184.711 325.404C184.711 325.242 184.67 325.115 184.589 325.024C184.507 324.93 184.39 324.884 184.239 324.884C184.075 324.884 183.946 324.94 183.851 325.054C183.758 325.165 183.711 325.313 183.711 325.496H182.986C182.986 325.275 183.039 325.072 183.144 324.889C183.25 324.705 183.4 324.562 183.594 324.459C183.787 324.354 184.006 324.301 184.251 324.301C184.626 324.301 184.917 324.391 185.124 324.571C185.332 324.751 185.436 325.005 185.436 325.334C185.436 325.514 185.389 325.697 185.296 325.884C185.203 326.07 185.043 326.288 184.816 326.536L183.989 327.409H185.554V327.991ZM186.066 327.636C186.066 327.521 186.104 327.428 186.181 327.356C186.259 327.285 186.357 327.249 186.474 327.249C186.592 327.249 186.689 327.285 186.766 327.356C186.844 327.428 186.884 327.521 186.884 327.636C186.884 327.75 186.845 327.842 186.769 327.914C186.692 327.984 186.594 328.019 186.474 328.019C186.355 328.019 186.258 327.984 186.181 327.914C186.104 327.842 186.066 327.75 186.066 327.636ZM187.556 327.636C187.556 327.521 187.594 327.428 187.671 327.356C187.749 327.285 187.847 327.249 187.964 327.249C188.082 327.249 188.179 327.285 188.256 327.356C188.334 327.428 188.374 327.521 188.374 327.636C188.374 327.75 188.335 327.842 188.259 327.914C188.182 327.984 188.084 328.019 187.964 328.019C187.845 328.019 187.748 327.984 187.671 327.914C187.594 327.842 187.556 327.75 187.556 327.636ZM192.749 327.991H190.254V327.496L191.431 326.241C191.593 326.065 191.712 325.91 191.789 325.779C191.867 325.647 191.906 325.522 191.906 325.404C191.906 325.242 191.865 325.115 191.784 325.024C191.702 324.93 191.585 324.884 191.434 324.884C191.27 324.884 191.141 324.94 191.046 325.054C190.953 325.165 190.906 325.313 190.906 325.496H190.181C190.181 325.275 190.234 325.072 190.339 324.889C190.445 324.705 190.595 324.562 190.789 324.459C190.982 324.354 191.201 324.301 191.446 324.301C191.821 324.301 192.112 324.391 192.319 324.571C192.527 324.751 192.631 325.005 192.631 325.334C192.631 325.514 192.584 325.697 192.491 325.884C192.398 326.07 192.238 326.288 192.011 326.536L191.184 327.409H192.749V327.991ZM194.619 326.659H194.021V327.991H193.271V324.351H194.624C195.054 324.351 195.385 324.447 195.619 324.639C195.852 324.83 195.969 325.101 195.969 325.451C195.969 325.7 195.914 325.907 195.806 326.074C195.699 326.239 195.537 326.37 195.319 326.469L196.106 327.956V327.991H195.301L194.619 326.659ZM194.021 326.051H194.626C194.814 326.051 194.96 326.004 195.064 325.909C195.167 325.812 195.219 325.68 195.219 325.511C195.219 325.34 195.169 325.205 195.071 325.106C194.974 325.008 194.825 324.959 194.624 324.959H194.021V326.051ZM198.429 327.036C198.429 326.895 198.379 326.786 198.279 326.711C198.179 326.635 197.999 326.555 197.739 326.471C197.479 326.386 197.273 326.303 197.121 326.221C196.708 325.998 196.501 325.697 196.501 325.319C196.501 325.122 196.556 324.947 196.666 324.794C196.778 324.639 196.937 324.518 197.144 324.431C197.352 324.345 197.585 324.301 197.844 324.301C198.104 324.301 198.335 324.349 198.539 324.444C198.742 324.537 198.899 324.67 199.011 324.841C199.124 325.013 199.181 325.208 199.181 325.426H198.431C198.431 325.26 198.379 325.13 198.274 325.039C198.169 324.945 198.021 324.899 197.831 324.899C197.648 324.899 197.505 324.938 197.404 325.016C197.302 325.093 197.251 325.195 197.251 325.321C197.251 325.44 197.31 325.539 197.429 325.619C197.549 325.699 197.724 325.774 197.956 325.844C198.383 325.972 198.694 326.131 198.889 326.321C199.084 326.511 199.181 326.748 199.181 327.031C199.181 327.346 199.062 327.594 198.824 327.774C198.585 327.952 198.264 328.041 197.861 328.041C197.581 328.041 197.326 327.99 197.096 327.889C196.866 327.785 196.69 327.645 196.569 327.466C196.449 327.288 196.389 327.081 196.389 326.846H197.141C197.141 327.248 197.381 327.449 197.861 327.449C198.039 327.449 198.179 327.413 198.279 327.341C198.379 327.268 198.429 327.166 198.429 327.036Z" fill="#A3A3A3"/>
<path d="M182.614 344.933H180.119V344.438L181.296 343.183C181.458 343.006 181.577 342.852 181.654 342.72C181.732 342.588 181.771 342.463 181.771 342.345C181.771 342.183 181.73 342.057 181.649 341.965C181.567 341.872 181.45 341.825 181.299 341.825C181.135 341.825 181.006 341.882 180.911 341.995C180.818 342.107 180.771 342.254 180.771 342.438H180.046C180.046 342.216 180.099 342.013 180.204 341.83C180.31 341.647 180.46 341.503 180.654 341.4C180.847 341.295 181.066 341.243 181.311 341.243C181.686 341.243 181.977 341.333 182.184 341.513C182.392 341.693 182.496 341.947 182.496 342.275C182.496 342.455 182.449 342.638 182.356 342.825C182.263 343.012 182.103 343.229 181.876 343.478L181.049 344.35H182.614V344.933ZM183.794 342.793H184.179C184.362 342.793 184.498 342.747 184.586 342.655C184.674 342.563 184.719 342.442 184.719 342.29C184.719 342.143 184.674 342.029 184.586 341.948C184.499 341.866 184.379 341.825 184.226 341.825C184.088 341.825 183.972 341.863 183.879 341.94C183.785 342.015 183.739 342.113 183.739 342.235H183.016C183.016 342.045 183.067 341.875 183.169 341.725C183.272 341.573 183.415 341.455 183.599 341.37C183.784 341.285 183.987 341.243 184.209 341.243C184.594 341.243 184.895 341.335 185.114 341.52C185.332 341.703 185.441 341.957 185.441 342.28C185.441 342.447 185.39 342.6 185.289 342.74C185.187 342.88 185.054 342.988 184.889 343.063C185.094 343.136 185.246 343.246 185.346 343.393C185.448 343.539 185.499 343.713 185.499 343.913C185.499 344.236 185.38 344.495 185.144 344.69C184.909 344.885 184.597 344.983 184.209 344.983C183.845 344.983 183.548 344.887 183.316 344.695C183.086 344.503 182.971 344.25 182.971 343.935H183.694C183.694 344.072 183.744 344.183 183.846 344.27C183.949 344.357 184.076 344.4 184.226 344.4C184.398 344.4 184.532 344.355 184.629 344.265C184.727 344.173 184.776 344.053 184.776 343.903C184.776 343.539 184.576 343.358 184.176 343.358H183.794V342.793ZM186.066 344.578C186.066 344.463 186.104 344.369 186.181 344.298C186.259 344.226 186.357 344.19 186.474 344.19C186.592 344.19 186.689 344.226 186.766 344.298C186.844 344.369 186.884 344.463 186.884 344.578C186.884 344.691 186.845 344.783 186.769 344.855C186.692 344.925 186.594 344.96 186.474 344.96C186.355 344.96 186.258 344.925 186.181 344.855C186.104 344.783 186.066 344.691 186.066 344.578ZM187.556 344.578C187.556 344.463 187.594 344.369 187.671 344.298C187.749 344.226 187.847 344.19 187.964 344.19C188.082 344.19 188.179 344.226 188.256 344.298C188.334 344.369 188.374 344.463 188.374 344.578C188.374 344.691 188.335 344.783 188.259 344.855C188.182 344.925 188.084 344.96 187.964 344.96C187.845 344.96 187.748 344.925 187.671 344.855C187.594 344.783 187.556 344.691 187.556 344.578ZM192.749 344.933H190.254V344.438L191.431 343.183C191.593 343.006 191.712 342.852 191.789 342.72C191.867 342.588 191.906 342.463 191.906 342.345C191.906 342.183 191.865 342.057 191.784 341.965C191.702 341.872 191.585 341.825 191.434 341.825C191.27 341.825 191.141 341.882 191.046 341.995C190.953 342.107 190.906 342.254 190.906 342.438H190.181C190.181 342.216 190.234 342.013 190.339 341.83C190.445 341.647 190.595 341.503 190.789 341.4C190.982 341.295 191.201 341.243 191.446 341.243C191.821 341.243 192.112 341.333 192.319 341.513C192.527 341.693 192.631 341.947 192.631 342.275C192.631 342.455 192.584 342.638 192.491 342.825C192.398 343.012 192.238 343.229 192.011 343.478L191.184 344.35H192.749V344.933ZM194.619 343.6H194.021V344.933H193.271V341.293H194.624C195.054 341.293 195.385 341.388 195.619 341.58C195.852 341.772 195.969 342.043 195.969 342.393C195.969 342.641 195.914 342.848 195.806 343.015C195.699 343.18 195.537 343.312 195.319 343.41L196.106 344.898V344.933H195.301L194.619 343.6ZM194.021 342.993H194.626C194.814 342.993 194.96 342.945 195.064 342.85C195.167 342.753 195.219 342.621 195.219 342.453C195.219 342.281 195.169 342.146 195.071 342.048C194.974 341.949 194.825 341.9 194.624 341.9H194.021V342.993Z" fill="#A3A3A3"/>
<path d="M227.14 343.978C227.14 343.836 227.09 343.728 226.99 343.653C226.89 343.576 226.71 343.496 226.45 343.413C226.19 343.328 225.984 343.244 225.833 343.163C225.419 342.939 225.213 342.638 225.213 342.26C225.213 342.063 225.268 341.888 225.378 341.735C225.489 341.58 225.649 341.459 225.855 341.373C226.064 341.286 226.297 341.243 226.555 341.243C226.815 341.243 227.047 341.29 227.25 341.385C227.454 341.478 227.611 341.611 227.723 341.783C227.836 341.954 227.893 342.149 227.893 342.368H227.143C227.143 342.201 227.09 342.072 226.985 341.98C226.88 341.887 226.733 341.84 226.543 341.84C226.359 341.84 226.217 341.879 226.115 341.958C226.014 342.034 225.963 342.136 225.963 342.263C225.963 342.381 226.022 342.48 226.14 342.56C226.26 342.64 226.436 342.715 226.668 342.785C227.094 342.913 227.405 343.073 227.6 343.263C227.795 343.453 227.893 343.689 227.893 343.973C227.893 344.288 227.774 344.535 227.535 344.715C227.297 344.893 226.976 344.983 226.573 344.983C226.293 344.983 226.038 344.932 225.808 344.83C225.578 344.727 225.402 344.586 225.28 344.408C225.16 344.229 225.1 344.023 225.1 343.788H225.853C225.853 344.189 226.093 344.39 226.573 344.39C226.751 344.39 226.89 344.354 226.99 344.283C227.09 344.209 227.14 344.108 227.14 343.978Z" fill="#A3A3A3"/>
<circle opacity="0.3" cx="207.445" cy="207.739" r="206.65" stroke="white" stroke-width="0.7"/>
</svg>
