<svg width="138" height="300" viewBox="0 0 138 300" fill="none" xmlns="http://www.w3.org/2000/svg">
<path d="M6.29877 254.528C6.22083 254.528 6.14566 254.499 6.08799 254.447C6.03032 254.394 5.99439 254.322 5.98731 254.245V159.097C5.98711 159.057 5.99528 159.018 6.01125 158.981C6.02722 158.945 6.05058 158.912 6.07995 158.886C6.10932 158.859 6.14406 158.839 6.18176 158.826C6.21945 158.814 6.25927 158.809 6.29877 158.813C6.33596 158.813 6.37278 158.821 6.40714 158.835C6.4415 158.849 6.47271 158.87 6.49901 158.896C6.5253 158.923 6.54622 158.954 6.56045 158.988C6.57468 159.023 6.58197 159.059 6.58197 159.097V254.245C6.57559 254.318 6.54371 254.386 6.49192 254.438C6.44013 254.49 6.37173 254.522 6.29877 254.528Z" fill="#A2A2A2"/>
<path d="M6.29877 140.265C6.22083 140.265 6.14565 140.236 6.08799 140.184C6.03032 140.132 5.99439 140.059 5.9873 139.982V40.0763C5.99439 39.9986 6.03032 39.9265 6.08799 39.874C6.14565 39.8216 6.22083 39.7926 6.29877 39.793C6.37173 39.7994 6.44013 39.8312 6.49192 39.883C6.54371 39.9348 6.57559 40.0033 6.58197 40.0763V140.01C6.57559 140.083 6.54371 140.151 6.49192 140.203C6.44013 140.255 6.37173 140.287 6.29877 140.293" fill="#A2A2A2"/>
<path d="M110.677 203.046C110.604 203.039 110.535 203.007 110.484 202.956C110.432 202.904 110.4 202.835 110.394 202.762V159.521C110.4 159.448 110.432 159.38 110.484 159.328C110.535 159.276 110.604 159.244 110.677 159.238C110.752 159.238 110.824 159.268 110.877 159.321C110.93 159.374 110.96 159.446 110.96 159.521V202.762C110.96 202.8 110.953 202.836 110.938 202.871C110.924 202.905 110.903 202.936 110.877 202.963C110.851 202.989 110.819 203.01 110.785 203.024C110.751 203.038 110.714 203.046 110.677 203.046Z" fill="#A2A2A2"/>
<path d="M110.677 138.509C110.604 138.503 110.535 138.471 110.484 138.419C110.432 138.367 110.4 138.299 110.394 138.226V92.011C110.394 91.9359 110.423 91.8639 110.477 91.8108C110.53 91.7577 110.602 91.7279 110.677 91.7279C110.715 91.7233 110.754 91.7275 110.79 91.7401C110.827 91.7527 110.86 91.7734 110.887 91.8006C110.914 91.8279 110.935 91.861 110.948 91.8974C110.96 91.9338 110.965 91.9727 110.96 92.011V138.226C110.96 138.263 110.953 138.3 110.938 138.334C110.924 138.369 110.903 138.4 110.877 138.426C110.851 138.452 110.82 138.473 110.785 138.487C110.751 138.502 110.714 138.509 110.677 138.509Z" fill="#A2A2A2"/>
<path d="M106.571 149.695C106.508 150.473 106.729 151.248 107.194 151.875C107.362 152.098 107.581 152.278 107.832 152.401C108.083 152.524 108.359 152.587 108.638 152.583C108.911 152.588 109.181 152.529 109.426 152.411C109.672 152.293 109.887 152.119 110.054 151.904C110.496 151.298 110.707 150.555 110.649 149.808C110.715 148.998 110.506 148.19 110.054 147.514C109.883 147.286 109.66 147.1 109.405 146.972C109.149 146.845 108.867 146.778 108.582 146.778C108.303 146.781 108.029 146.846 107.779 146.969C107.53 147.091 107.31 147.268 107.137 147.486C106.716 148.142 106.517 148.917 106.571 149.695ZM110.649 153.489V152.527C110.425 152.885 110.111 153.179 109.739 153.377C109.366 153.576 108.947 153.674 108.525 153.659C107.928 153.67 107.344 153.491 106.854 153.15C106.338 152.805 105.926 152.325 105.665 151.762C105.372 151.113 105.227 150.407 105.24 149.695C105.235 148.986 105.37 148.284 105.637 147.628C105.865 147.054 106.26 146.561 106.769 146.212C107.279 145.895 107.868 145.728 108.468 145.73C108.892 145.72 109.311 145.817 109.686 146.013C110.028 146.205 110.327 146.465 110.564 146.778V143.012H111.838V153.489H110.649Z" fill="#A2A2A2"/>
<path d="M113.568 84.96H84.0322V85.5263H113.568V84.96Z" fill="#A2A2A2"/>
<path d="M113.567 210.182H84.1445V210.748H113.567V210.182Z" fill="#A2A2A2"/>
<path d="M32.7458 33.5625H6.09863V34.1289H32.7458V33.5625Z" fill="#A2A2A2"/>
<path d="M32.7458 261.465H6.09863V262.032H32.7458V261.465Z" fill="#A2A2A2"/>
<path d="M50.7852 5.0752H39.5996V5.64155H50.7852V5.0752Z" fill="#A2A2A2"/>
<path d="M75.3672 5.0752H64.6914V5.64155H75.3672V5.0752Z" fill="#A2A2A2"/>
<path d="M55.2333 9.46458H57.8385H58.773C59.0631 9.42698 59.3426 9.33052 59.5942 9.18129C59.8212 9.00835 60.0056 8.7858 60.1332 8.53056C60.2609 8.27531 60.3284 7.99425 60.3305 7.70888C60.3368 7.34472 60.2277 6.98778 60.019 6.6893C59.8177 6.40655 59.5293 6.19775 59.1978 6.09474C58.6988 5.96552 58.1839 5.90832 57.6686 5.92484H55.2333V9.5211V9.46458ZM55.2333 4.67884H57.4987C57.9405 4.73734 58.388 4.73734 58.8297 4.67884C59.1431 4.58555 59.4201 4.39761 59.6226 4.1408C59.8025 3.87388 59.8919 3.55617 59.8774 3.2346C59.8844 2.91393 59.7957 2.59843 59.6226 2.32841C59.5513 2.1923 59.4508 2.07346 59.3285 1.98048C59.2062 1.8875 59.0649 1.82264 58.9146 1.79036C58.3983 1.6504 57.8631 1.59306 57.3288 1.62046H55.2333V4.79205V4.67884ZM53.8457 10.7387V0.289428H57.7819C58.4378 0.269738 59.0913 0.375595 59.7075 0.601057C60.1814 0.801855 60.5783 1.14915 60.8402 1.59211C61.1073 1.99446 61.2456 2.46849 61.2367 2.95132C61.2386 3.39872 61.1212 3.83858 60.8968 4.22566C60.6195 4.63792 60.2387 4.97005 59.7925 5.18854C60.3588 5.31895 60.8627 5.64098 61.2188 6.10027C61.5748 6.55956 61.7613 7.12792 61.7464 7.70888C61.7575 8.18085 61.6504 8.64805 61.4349 9.06808C61.2674 9.4575 61.0045 9.79832 60.6703 10.0591C60.3324 10.3062 59.9466 10.4798 59.5376 10.5688C58.9801 10.6933 58.4097 10.7503 57.8385 10.7387H53.8457Z" fill="#A2A2A2"/>
<path d="M82.4745 1.93164H81.9082V33.7327H82.4745V1.93164Z" fill="#A2A2A2"/>
<path d="M34.5615 1.53564H33.9951V34.0729H34.5615V1.53564Z" fill="#A2A2A2"/>
<path d="M112.121 95.3805L110.677 85.2427L109.261 95.3805H112.121Z" fill="#A2A2A2"/>
<path d="M109.261 200.299L110.677 210.465L112.121 200.299H109.261Z" fill="#A2A2A2"/>
<path d="M133.443 241.954C133.368 241.954 133.296 241.924 133.243 241.871C133.19 241.818 133.16 241.746 133.16 241.671V159.549C133.16 159.474 133.19 159.402 133.243 159.349C133.296 159.295 133.368 159.266 133.443 159.266C133.516 159.272 133.585 159.304 133.636 159.356C133.688 159.407 133.72 159.476 133.726 159.549V241.671C133.72 241.744 133.688 241.812 133.636 241.864C133.585 241.916 133.516 241.948 133.443 241.954Z" fill="#A2A2A2"/>
<path d="M133.444 138.509C133.407 138.509 133.37 138.501 133.336 138.487C133.301 138.473 133.27 138.452 133.244 138.426C133.218 138.399 133.197 138.368 133.182 138.334C133.168 138.299 133.161 138.263 133.161 138.225V53.2717C133.156 53.2334 133.161 53.1946 133.173 53.1582C133.186 53.1217 133.207 53.0886 133.234 53.0614C133.261 53.0341 133.294 53.0135 133.331 53.0009C133.367 52.9882 133.406 52.984 133.444 52.9886C133.519 52.9886 133.591 53.0185 133.644 53.0716C133.698 53.1247 133.727 53.1966 133.727 53.2717V138.225C133.721 138.298 133.689 138.367 133.637 138.419C133.585 138.47 133.517 138.502 133.444 138.509Z" fill="#A2A2A2"/>
<path d="M129.962 153.489V143.012H137.523V144.258H131.321V147.458H137.126V148.675H131.321V152.243H137.749V153.489H129.962Z" fill="#A2A2A2"/>
<path d="M136.307 46.1929H77.4902V46.7592H136.307V46.1929Z" fill="#A2A2A2"/>
<path d="M136.308 248.949H77.4346V249.515H136.308V248.949Z" fill="#A2A2A2"/>
<path d="M134.862 56.6134L133.446 46.4473L132.03 56.6134H134.862Z" fill="#A2A2A2"/>
<path d="M132.03 239.066L133.446 249.232L134.862 239.066H132.03Z" fill="#A2A2A2"/>
<path d="M2.1093 152.017H4.34634C4.88961 152.034 5.43272 151.977 5.96046 151.847C6.32012 151.733 6.64931 151.54 6.92325 151.28C7.26745 150.905 7.52811 150.461 7.68789 149.978C7.87036 149.314 7.95619 148.627 7.94273 147.939C7.99433 147.066 7.80839 146.195 7.40469 145.418C7.10352 144.904 6.64769 144.498 6.1021 144.258C5.52458 144.081 4.92129 144.005 4.31808 144.031H2.1093V152.017ZM0.72168 153.263V142.842H4.34634C4.9645 142.824 5.58263 142.881 6.18705 143.012C6.76005 143.121 7.29583 143.375 7.74449 143.748C8.29355 144.231 8.71226 144.844 8.96213 145.532C9.25702 146.329 9.40104 147.174 9.38688 148.024C9.40167 148.742 9.30624 149.458 9.10377 150.148C8.93653 150.687 8.69847 151.201 8.39583 151.677C8.13388 152.044 7.80771 152.36 7.43304 152.611C7.04668 152.851 6.62676 153.033 6.18705 153.149C5.6384 153.269 5.0778 153.326 4.51624 153.319L0.72168 153.263Z" fill="#A2A2A2"/>
<path d="M7.71362 44.0123L6.2977 33.8462L4.85352 44.0123H7.71362Z" fill="#A2A2A2"/>
<path d="M4.85352 251.61L6.2977 261.748L7.71362 251.61H4.85352Z" fill="#A2A2A2"/>
<path d="M44.4434 3.91406L34.2773 5.35828L44.4434 6.77417V3.91406Z" fill="#A2A2A2"/>
<path d="M72.0254 6.77417L82.1915 5.35828L72.0254 3.91406V6.77417Z" fill="#A2A2A2"/>
<path d="M56.4773 147.514H30.5664V148.08H56.4773V147.514Z" fill="#A2A2A2"/>
<path d="M58.4022 147.514H57.751V148.08H58.4022V147.514Z" fill="#A2A2A2"/>
<path d="M85.615 147.514H59.7041V148.08H85.615V147.514Z" fill="#A2A2A2"/>
<path d="M39.5992 261.777C37.7302 261.777 34.3887 259.314 34.3887 257.275C34.3887 255.236 34.3887 245.523 34.3887 245.523V245.041L34.5586 244.617L34.8418 244.22L35.2382 243.937L35.6629 243.767H43.507V249.232H73.1275L80.9433 251.328L81.368 251.526L81.7362 251.809L82.0194 252.177L82.1893 252.602V253.084V258.945V259.682L81.9061 260.361L81.453 260.956L80.8583 261.409L80.1786 261.692H79.4424L39.5992 261.777Z" fill="#434343"/>
<path d="M34.7021 245.579C34.7021 245.579 34.7021 255.236 34.7021 257.274C34.7021 259.313 37.7605 261.324 39.4595 261.324H79.2462H79.8692L80.4356 261.069L80.9453 260.701L81.3134 260.191L81.5399 259.625V258.945V252.715L81.3984 252.404L81.1718 252.121L80.9169 251.923L80.5205 251.753L72.8463 249.685H43.424C43.3151 249.729 43.1932 249.729 43.0842 249.685C42.9964 249.594 42.9458 249.472 42.9426 249.345V244.22H35.6649H35.3818L35.0986 244.447L34.872 244.73V245.041L34.7021 245.579ZM39.4878 262.23C37.3073 262.23 33.8242 259.398 33.8242 257.274C33.8242 255.151 33.8242 245.523 33.8242 245.523V244.985L34.0225 244.531L34.3057 244.163L34.6738 243.852L35.0986 243.682H43.1125C43.2131 243.645 43.3235 243.645 43.424 243.682C43.5144 243.772 43.5653 243.894 43.5656 244.022V249.034H72.8747L80.6621 251.158L81.1435 251.356L81.5399 251.639L81.8231 252.007L81.993 252.432V252.914V258.945V259.738L81.7098 260.446L81.2567 261.041L80.6621 261.494L79.9825 261.777H79.2462L39.4878 262.23Z" fill="#A2A2A2"/>
<path d="M82.6435 42.6245H81.7373V70.9991H82.6435V42.6245Z" fill="#A2A2A2"/>
<path d="M82.6435 82.3828H81.7373V147.939H82.6435V82.3828Z" fill="#A2A2A2"/>
<path d="M34.7304 48.7695H33.8242V147.741H34.7304V48.7695Z" fill="#A2A2A2"/>
<path d="M43.3959 73.831H73.0448V69.6117H80.7756C80.9589 69.6078 81.1411 69.6409 81.3112 69.7093C81.4813 69.7777 81.6358 69.8797 81.7654 70.0094C81.895 70.139 81.9971 70.2935 82.0654 70.4636C82.1338 70.6337 82.167 70.8159 82.1632 70.9992V81.2786C82.1707 81.802 82.0745 82.3217 81.8801 82.8077C81.6856 83.2938 81.3969 83.7366 81.0305 84.1104C80.2719 84.8452 79.2547 85.252 78.1987 85.243H38.2421C37.716 85.2516 37.1937 85.1533 36.7069 84.9537C36.2201 84.7541 35.7789 84.4575 35.4103 84.0821C35.0375 83.7115 34.7427 83.2701 34.5433 82.7837C34.3439 82.2973 34.2439 81.7759 34.2492 81.2503V70.9142C34.2492 70.737 34.2845 70.5616 34.3532 70.3982C34.4218 70.2349 34.5225 70.087 34.6491 69.963C34.7757 69.8391 34.9258 69.7415 35.0905 69.6763C35.2553 69.6111 35.4314 69.5795 35.6085 69.5833H43.3676L43.3959 73.831Z" fill="#434343"/>
<path d="M35.6366 70.0644C35.519 70.0606 35.4018 70.0806 35.292 70.123C35.1822 70.1654 35.082 70.2295 34.9974 70.3114C34.9129 70.3933 34.8457 70.4913 34.7998 70.5997C34.7539 70.7081 34.7304 70.8245 34.7304 70.9422V81.2783C34.7275 81.7388 34.819 82.195 34.9992 82.6187C35.1794 83.0424 35.4445 83.4247 35.7782 83.742C36.1017 84.0654 36.4859 84.3219 36.9086 84.4968C37.3313 84.6717 37.7843 84.7616 38.2418 84.7614H78.2268C79.1506 84.7614 80.0364 84.3945 80.6897 83.7413C81.3429 83.0881 81.7098 82.2021 81.7098 81.2783V70.9989C81.7111 70.7488 81.6204 70.5069 81.455 70.3193C81.2704 70.149 81.0265 70.0574 80.7754 70.0644H73.5826V73.8307C73.5826 73.8902 73.5709 73.9491 73.5481 74.0041C73.5254 74.0591 73.4919 74.1091 73.4499 74.1512C73.4078 74.1932 73.3578 74.2266 73.3029 74.2493C73.2479 74.2721 73.189 74.2837 73.1295 74.2837H43.3957C43.2755 74.2837 43.1603 74.2361 43.0753 74.1512C42.9904 74.0662 42.9426 73.9509 42.9426 73.8307V70.0644H35.6366ZM78.1135 85.6959H38.2418C37.0725 85.6885 35.9532 85.2206 35.1263 84.3938C34.2994 83.5669 33.8316 82.4477 33.8242 81.2783V70.9422C33.8317 70.4665 34.0259 70.0127 34.3649 69.679C34.704 69.3452 35.1608 69.1581 35.6366 69.1582H43.3957C43.4552 69.1582 43.5141 69.17 43.569 69.1928C43.624 69.2155 43.674 69.2489 43.716 69.2909C43.7581 69.333 43.7915 69.3831 43.8143 69.438C43.8371 69.493 43.8488 69.5519 43.8488 69.6114V73.3775H72.5915V69.6114C72.5915 69.4912 72.6392 69.3759 72.7242 69.2909C72.8092 69.206 72.9244 69.1582 73.0446 69.1582H80.7754C81.0222 69.1525 81.2675 69.1974 81.4964 69.2899C81.7252 69.3824 81.9328 69.5206 82.1063 69.6962C82.2747 69.8678 82.4066 70.0718 82.4942 70.2956C82.5818 70.5195 82.6232 70.7587 82.616 70.9989V81.2783C82.6198 81.8571 82.509 82.4308 82.2901 82.9666C82.0711 83.5024 81.7484 83.9898 81.3405 84.4003C80.9325 84.8109 80.4474 85.1367 79.913 85.3591C79.3786 85.5814 78.8056 85.6959 78.2268 85.6959" fill="#A2A2A2"/>
<path d="M56.4216 147.656H30.5107V148.222H56.4216V147.656Z" fill="#A2A2A2"/>
<path d="M58.3749 147.656H57.7236V148.222H58.3749V147.656Z" fill="#A2A2A2"/>
<path d="M85.5867 147.656H59.6758V148.222H85.5867V147.656Z" fill="#A2A2A2"/>
<path d="M79.0464 55.4805H73.2979V63.8626H79.0464V55.4805Z" fill="#434343"/>
<path d="M73.5829 63.5515H78.6519V55.8491H73.5829V63.5515ZM78.9917 64.2311H73.3281C73.238 64.2311 73.1515 64.1953 73.0878 64.1316C73.024 64.0678 72.9883 63.9815 72.9883 63.8913V55.396C72.9883 55.3058 73.024 55.2194 73.0878 55.1557C73.1515 55.092 73.238 55.0562 73.3281 55.0562H78.9917C79.0818 55.0562 79.1682 55.092 79.2319 55.1557C79.2957 55.2194 79.3315 55.3058 79.3315 55.396V63.8913C79.3315 63.9815 79.2957 64.0678 79.2319 64.1316C79.1682 64.1953 79.0818 64.2311 78.9917 64.2311Z" fill="#A2A2A2"/>
<path d="M79.3866 63.8633H78.707V69.6118H79.3866V63.8633Z" fill="#A2A2A2"/>
<path d="M43.1958 55.4805H37.4473V63.8626H43.1958V55.4805Z" fill="#434343"/>
<path d="M37.7597 63.5515H42.8286V55.8491H37.7597V63.5515ZM43.1684 64.2311H37.5048C37.4147 64.2311 37.3282 64.1953 37.2645 64.1316C37.2008 64.0678 37.165 63.9815 37.165 63.8913V55.396C37.165 55.3058 37.2008 55.2194 37.2645 55.1557C37.3282 55.092 37.4147 55.0562 37.5048 55.0562H43.1684C43.2586 55.0562 43.345 55.092 43.4087 55.1557C43.4724 55.2194 43.5082 55.3058 43.5082 55.396V63.8913C43.5082 63.9815 43.4724 64.0678 43.4087 64.1316C43.345 64.1953 43.2586 64.2311 43.1684 64.2311Z" fill="#A2A2A2"/>
<path d="M37.789 63.8633H37.1094V69.5269H37.789V63.8633Z" fill="#A2A2A2"/>
<path d="M45.8006 46.9008C45.289 46.9218 44.8041 47.1343 44.4421 47.4963C44.0801 47.8583 43.8675 48.3433 43.8466 48.8548V71.5091C43.8466 72.0198 44.0495 72.5096 44.4106 72.8707C44.7717 73.2319 45.2615 73.4347 45.7722 73.4347H70.7486C71.2364 73.4322 71.7038 73.2391 72.0512 72.8967C72.3954 72.539 72.5882 72.0622 72.5892 71.5658V48.9115C72.5854 48.4323 72.392 47.9741 72.0512 47.6371C71.8866 47.4558 71.6854 47.3115 71.4608 47.2139C71.2362 47.1162 70.9935 47.0674 70.7486 47.0707L45.8006 46.9008ZM70.7486 74.2842H45.7722C45.0293 74.2811 44.3175 73.9862 43.79 73.4631C43.5224 73.2008 43.3096 72.888 43.1637 72.5429C43.0179 72.1977 42.942 71.8271 42.9404 71.4524V48.7981C42.9404 48.0471 43.2388 47.3268 43.7699 46.7958C44.3009 46.2647 45.0212 45.9663 45.7722 45.9663H70.7486C71.4996 45.9663 72.2199 46.2647 72.7509 46.7958C73.282 47.3268 73.5804 48.0471 73.5804 48.7981V71.4524C73.5775 72.1815 73.2935 72.8814 72.7875 73.4064C72.267 73.9227 71.5666 74.2172 70.8335 74.2277" fill="#A2A2A2"/>
<path d="M39.6002 33.9028C37.7312 33.9028 34.3613 36.3664 34.3613 38.4336V50.1573V50.6386L34.5312 51.0635L34.8144 51.4598L35.2109 51.7431L35.6357 51.913H43.4797V46.5609H73.1002L80.916 44.4654L81.3407 44.2671L81.7089 43.984L81.9921 43.6159L82.162 43.191V42.7097V36.8762V36.1399L81.8788 35.4603L81.4257 34.8655L80.831 34.4125L80.1514 34.1293H79.4151L39.6002 33.9028Z" fill="#434343"/>
<path d="M35.6639 51.4599H42.9416V46.5609C42.9463 46.4426 42.9971 46.3308 43.0832 46.2495C43.1733 46.1591 43.2955 46.1082 43.423 46.1079H72.9869L80.7176 44.0122H81.0858L81.3124 43.8142L81.5389 43.5309L81.6804 43.2194V37.0178V36.3947L81.4539 35.8285L81.0575 35.3188L80.5761 34.9506L80.0097 34.724H79.3301H39.6001C37.8727 34.724 34.8144 37.0461 34.8144 38.7735V50.8653L34.9559 51.1767L35.1825 51.4599L35.4657 51.6864L35.6639 51.4599ZM43.423 52.3944H35.409L34.9843 52.2245L34.6161 51.9414L34.3047 51.5449L34.1348 51.0917V50.6387V38.8302C34.1348 36.3948 37.8444 33.8462 39.7983 33.8462H79.2451H80.038L80.7176 34.1293L81.3124 34.5825L81.7655 35.1771L82.0486 35.8567V36.5929V42.5115V43.0212L81.8787 43.446L81.5955 43.8142L81.1991 44.0973L80.6894 44.352L72.817 46.4759H43.8761V51.5165C43.8694 51.6345 43.8194 51.7458 43.7359 51.8294C43.6523 51.9129 43.541 51.9628 43.423 51.9696" fill="#A2A2A2"/>
<path d="M34.7304 224.737H33.8242V253.083H34.7304V224.737Z" fill="#A2A2A2"/>
<path d="M82.6435 224.708H81.7373V253.083H82.6435V224.708Z" fill="#A2A2A2"/>
<path d="M82.6435 147.741H81.7373V213.297H82.6435V147.741Z" fill="#A2A2A2"/>
<path d="M34.7304 147.741H33.8242V214.967H34.7304V147.741Z" fill="#A2A2A2"/>
<path d="M43.396 221.848H73.0448V226.068H80.7757C80.9589 226.072 81.1411 226.038 81.3112 225.97C81.4813 225.901 81.6358 225.799 81.7654 225.67C81.895 225.54 81.9971 225.386 82.0655 225.216C82.1338 225.045 82.1671 224.863 82.1632 224.68V214.401C82.167 213.883 82.0678 213.369 81.8713 212.89C81.6748 212.411 81.385 211.975 81.0188 211.609C80.6525 211.243 80.217 210.953 79.7378 210.756C79.2585 210.56 78.745 210.461 78.2271 210.464H38.2421C37.7169 210.462 37.1965 210.564 36.7105 210.763C36.2246 210.962 35.7827 211.255 35.4103 211.625C35.0375 211.996 34.7427 212.438 34.5433 212.924C34.3439 213.41 34.2439 213.932 34.2492 214.457V224.765C34.2492 225.125 34.3925 225.471 34.6474 225.726C34.9023 225.981 35.248 226.124 35.6085 226.124H43.3676L43.396 221.848Z" fill="#434343"/>
<path d="M38.2419 210.805C37.3129 210.812 36.4241 211.185 35.7672 211.841C35.1103 212.498 34.7379 213.387 34.7305 214.316V224.624C34.7304 224.742 34.754 224.858 34.7999 224.966C34.8458 225.075 34.913 225.173 34.9975 225.255C35.0821 225.337 35.1823 225.401 35.2921 225.443C35.4019 225.486 35.5191 225.506 35.6367 225.502H42.9427V221.849C42.9427 221.729 42.9905 221.613 43.0754 221.528C43.1604 221.443 43.2756 221.396 43.3958 221.396H73.0447C73.1648 221.396 73.28 221.443 73.365 221.528C73.45 221.613 73.4978 221.729 73.4978 221.849V225.615H80.7755C80.9004 225.623 81.0256 225.605 81.1428 225.561C81.2599 225.517 81.3663 225.448 81.4548 225.36C81.5433 225.271 81.6118 225.165 81.6558 225.048C81.6998 224.931 81.7183 224.805 81.7099 224.681V214.401C81.7165 213.943 81.6295 213.488 81.4542 213.064C81.2789 212.641 81.0191 212.257 80.6905 211.938C80.367 211.614 79.9828 211.358 79.5601 211.183C79.1374 211.008 78.6844 210.918 78.2269 210.918L38.2419 210.805ZM43.3958 226.436H35.6367C35.156 226.436 34.6951 226.245 34.3552 225.905C34.0153 225.565 33.8243 225.105 33.8243 224.624V214.316C33.8205 213.735 33.9323 213.159 34.153 212.621C34.3736 212.083 34.6988 211.595 35.1098 211.184C35.5208 210.773 36.0093 210.448 36.547 210.227C37.0846 210.006 37.6607 209.895 38.2419 209.899H78.2269C78.8046 209.894 79.3775 210.004 79.9122 210.223C80.447 210.442 80.9329 210.765 81.3418 211.173C82.1636 212.003 82.6308 213.12 82.6445 214.288V224.567C82.6463 224.809 82.5997 225.049 82.5072 225.273C82.4148 225.497 82.2786 225.7 82.1064 225.87C81.9343 226.049 81.7276 226.192 81.4989 226.289C81.2702 226.387 81.0241 226.437 80.7755 226.436H73.0447C72.9245 226.436 72.8093 226.389 72.7243 226.304C72.6393 226.219 72.5916 226.103 72.5916 225.983V222.217H43.8489V225.983C43.8489 226.043 43.8372 226.102 43.8144 226.156C43.7916 226.211 43.7582 226.261 43.7161 226.304C43.6741 226.346 43.6241 226.379 43.5691 226.402C43.5142 226.425 43.4553 226.436 43.3958 226.436Z" fill="#A2A2A2"/>
<path d="M79.0464 231.845H73.2979V240.227H79.0464V231.845Z" fill="#434343"/>
<path d="M73.5831 239.859H78.652V232.156H73.5831V239.859ZM78.9918 240.567H73.3283C73.2812 240.567 73.2345 240.557 73.1913 240.538C73.1481 240.519 73.1094 240.492 73.0774 240.457C73.0455 240.423 73.021 240.382 73.0057 240.337C72.9904 240.293 72.9846 240.245 72.9885 240.198V231.703C72.9885 231.613 73.0242 231.527 73.088 231.463C73.1517 231.399 73.2382 231.363 73.3283 231.363H78.9918C79.082 231.363 79.1684 231.399 79.2321 231.463C79.2958 231.527 79.3316 231.613 79.3316 231.703V240.198C79.3356 240.245 79.3297 240.293 79.3144 240.337C79.2991 240.382 79.2747 240.423 79.2427 240.457C79.2108 240.492 79.1719 240.519 79.1287 240.538C79.0855 240.557 79.039 240.567 78.9918 240.567Z" fill="#A2A2A2"/>
<path d="M79.3866 226.096H78.707V231.845H79.3866V226.096Z" fill="#A2A2A2"/>
<path d="M43.1958 231.845H37.4473V240.227H43.1958V231.845Z" fill="#434343"/>
<path d="M37.7597 239.859H42.8286V232.156H37.7597V239.859ZM43.1684 240.567H37.5048C37.4122 240.559 37.3256 240.518 37.2626 240.449C37.1996 240.381 37.1648 240.291 37.165 240.198V231.703C37.1716 231.615 37.2094 231.532 37.2718 231.47C37.3341 231.408 37.4169 231.37 37.5048 231.363H43.1684C43.2585 231.363 43.3449 231.399 43.4087 231.463C43.4724 231.527 43.5082 231.613 43.5082 231.703V240.198C43.5121 240.245 43.5062 240.293 43.4909 240.337C43.4756 240.382 43.4512 240.423 43.4193 240.457C43.3873 240.492 43.3485 240.519 43.3053 240.538C43.2621 240.557 43.2155 240.567 43.1684 240.567Z" fill="#A2A2A2"/>
<path d="M37.789 226.181H37.1094V231.845H37.789V226.181Z" fill="#A2A2A2"/>
<path d="M45.7722 222.33C45.2677 222.333 44.7825 222.525 44.413 222.868C44.2328 223.046 44.0898 223.257 43.9926 223.491C43.8953 223.724 43.8457 223.974 43.8466 224.227V246.882C43.8571 247.404 44.0703 247.902 44.4413 248.269C44.6187 248.449 44.8303 248.592 45.0638 248.69C45.2972 248.787 45.5477 248.837 45.8006 248.836H70.7486C70.9906 248.837 71.2306 248.791 71.4544 248.698C71.6781 248.606 71.881 248.47 72.0512 248.298C72.3936 247.95 72.5867 247.483 72.5892 246.995V224.341C72.5911 224.099 72.5444 223.859 72.452 223.635C72.3596 223.411 72.2233 223.208 72.0512 223.038C71.883 222.863 71.6805 222.725 71.4563 222.633C71.2321 222.54 70.9911 222.495 70.7486 222.5L45.7722 222.33ZM70.7486 249.685H45.8006C45.4259 249.684 45.0552 249.608 44.7101 249.462C44.365 249.316 44.0523 249.103 43.79 248.836C43.5224 248.573 43.3096 248.261 43.1637 247.915C43.0179 247.57 42.942 247.2 42.9404 246.825V224.171C42.9511 223.424 43.2565 222.711 43.79 222.189C44.3129 221.655 45.0253 221.35 45.7722 221.339H70.7486C71.4816 221.349 72.1821 221.644 72.7025 222.16C73.2085 222.685 73.4925 223.385 73.4954 224.114V246.768C73.4925 247.498 73.2085 248.197 72.7025 248.722C72.1776 249.228 71.4777 249.512 70.7486 249.515" fill="#A2A2A2"/>
<path d="M58.856 299.921H54.3818L45.6881 285.677V299.921H41.2422V278.286H45.6881L54.4101 292.558V278.286H58.856V299.921Z" fill="#A2A2A2"/>
<path d="M75.7607 291.086H67.2087V299.921H62.7344V278.286H76.8368V281.882H67.2087V287.489H75.7607V291.086Z" fill="#A2A2A2"/>
</svg>
