<svg width="415" height="415" viewBox="0 0 415 415" fill="none" xmlns="http://www.w3.org/2000/svg">
<path d="M195.793 274.9C198.042 274.9 200.239 275.567 202.109 276.816C203.978 278.065 205.435 279.84 206.296 281.917C207.156 283.995 207.381 286.28 206.943 288.485C206.504 290.69 205.421 292.716 203.831 294.306C202.242 295.895 200.216 296.978 198.011 297.417C195.806 297.855 193.52 297.63 191.443 296.77C189.366 295.909 187.591 294.452 186.342 292.583C185.092 290.714 184.426 288.516 184.426 286.268C184.422 284.774 184.714 283.294 185.284 281.913C185.854 280.532 186.691 279.278 187.747 278.221C188.803 277.165 190.058 276.328 191.439 275.758C192.82 275.188 194.3 274.896 195.793 274.9Z" fill="#D3D3D3"/>
<path d="M195.793 275.341C193.611 275.341 191.477 275.989 189.662 277.201C187.847 278.414 186.432 280.138 185.597 282.154C184.762 284.171 184.543 286.39 184.969 288.531C185.395 290.672 186.446 292.638 187.989 294.182C189.533 295.725 191.499 296.777 193.64 297.202C195.781 297.628 198 297.41 200.017 296.574C202.034 295.739 203.757 294.324 204.97 292.509C206.183 290.695 206.83 288.561 206.83 286.378C206.83 283.451 205.667 280.644 203.597 278.574C201.528 276.504 198.721 275.341 195.793 275.341ZM195.793 298.077C193.458 298.077 191.175 297.384 189.233 296.086C187.291 294.789 185.777 292.945 184.883 290.787C183.99 288.629 183.756 286.254 184.211 283.964C184.667 281.673 185.792 279.569 187.443 277.917C189.095 276.266 191.199 275.141 193.49 274.685C195.78 274.23 198.155 274.464 200.313 275.357C202.47 276.251 204.315 277.765 205.612 279.707C206.91 281.649 207.603 283.932 207.603 286.268C207.603 289.4 206.358 292.403 204.144 294.618C201.929 296.832 198.925 298.077 195.793 298.077Z" fill="#A3A3A3"/>
<path d="M195.793 104.883C198.042 104.883 200.239 105.55 202.109 106.799C203.978 108.048 205.435 109.823 206.296 111.9C207.156 113.977 207.381 116.263 206.943 118.468C206.504 120.673 205.421 122.699 203.831 124.289C202.242 125.878 200.216 126.961 198.011 127.4C195.806 127.838 193.52 127.613 191.443 126.753C189.366 125.892 187.591 124.435 186.342 122.566C185.092 120.697 184.426 118.499 184.426 116.25C184.422 114.757 184.714 113.277 185.284 111.896C185.854 110.515 186.691 109.261 187.747 108.204C188.803 107.148 190.058 106.311 191.439 105.741C192.82 105.171 194.3 104.879 195.793 104.883Z" fill="#D3D3D3"/>
<path d="M195.793 105.324C193.611 105.324 191.477 105.971 189.662 107.184C187.847 108.397 186.432 110.12 185.597 112.137C184.762 114.154 184.543 116.373 184.969 118.513C185.395 120.654 186.446 122.621 187.989 124.164C189.533 125.708 191.499 126.759 193.64 127.185C195.781 127.611 198 127.392 200.017 126.557C202.034 125.721 203.757 124.307 204.97 122.492C206.183 120.677 206.83 118.543 206.83 116.36C206.83 113.433 205.667 110.626 203.597 108.556C201.528 106.487 198.721 105.324 195.793 105.324ZM195.793 128.059C193.458 128.059 191.175 127.366 189.233 126.069C187.291 124.771 185.777 122.927 184.883 120.769C183.99 118.611 183.756 116.237 184.211 113.946C184.667 111.655 185.792 109.551 187.443 107.9C189.095 106.248 191.199 105.123 193.49 104.668C195.78 104.212 198.155 104.446 200.313 105.34C202.47 106.234 204.315 107.747 205.612 109.689C206.91 111.631 207.603 113.914 207.603 116.25C207.603 119.382 206.358 122.386 204.144 124.6C201.929 126.815 198.925 128.059 195.793 128.059Z" fill="#A3A3A3"/>
<path d="M234.641 266.678C234.524 266.678 234.411 266.631 234.329 266.548C234.246 266.466 234.199 266.353 234.199 266.236V201.259C234.199 201.142 234.246 201.029 234.329 200.947C234.411 200.864 234.524 200.817 234.641 200.817C234.758 200.817 234.87 200.864 234.953 200.947C235.036 201.029 235.082 201.142 235.082 201.259V266.292C235.082 266.409 235.036 266.521 234.953 266.604C234.87 266.686 234.758 266.733 234.641 266.733" fill="#A3A3A3"/>
<path d="M179.57 269.05C179.453 269.05 179.341 269.004 179.258 268.921C179.175 268.838 179.129 268.726 179.129 268.609V201.286C179.129 201.169 179.175 201.057 179.258 200.974C179.341 200.891 179.453 200.845 179.57 200.845C179.687 200.845 179.8 200.891 179.883 200.974C179.965 201.057 180.012 201.169 180.012 201.286V268.609C180.012 268.726 179.965 268.838 179.883 268.921C179.8 269.004 179.687 269.05 179.57 269.05Z" fill="#A3A3A3"/>
<path d="M181.801 279.508V296.476H183.042V296.449V279.508H181.801Z" fill="#A3A3A3"/>
<path d="M182.079 296.173H182.741V279.618H182.079V296.173ZM183.017 296.725H181.803C181.73 296.725 181.66 296.696 181.608 296.644C181.556 296.592 181.527 296.522 181.527 296.449V279.48C181.534 279.409 181.565 279.342 181.615 279.292C181.666 279.241 181.732 279.21 181.803 279.204H183.017C183.09 279.204 183.161 279.233 183.212 279.285C183.264 279.337 183.293 279.407 183.293 279.48V296.449C183.298 296.486 183.294 296.524 183.281 296.559C183.269 296.595 183.249 296.627 183.222 296.654C183.196 296.68 183.163 296.7 183.128 296.713C183.092 296.725 183.055 296.729 183.017 296.725Z" fill="#A3A3A3"/>
<path d="M231.191 279.508V296.449V296.476H232.405V279.508H231.191Z" fill="#A3A3A3"/>
<path d="M231.466 296.173H232.128V279.618H231.466V296.173ZM232.404 296.725H231.19C231.117 296.725 231.047 296.696 230.995 296.644C230.943 296.592 230.914 296.522 230.914 296.449V279.48C230.92 279.409 230.951 279.342 231.002 279.292C231.052 279.241 231.119 279.21 231.19 279.204H232.404C232.477 279.204 232.547 279.233 232.599 279.285C232.651 279.337 232.68 279.407 232.68 279.48V296.449C232.684 296.486 232.68 296.524 232.668 296.559C232.656 296.595 232.635 296.627 232.609 296.654C232.582 296.68 232.55 296.7 232.515 296.713C232.479 296.725 232.441 296.729 232.404 296.725Z" fill="#A3A3A3"/>
<path d="M234.643 129.798C234.525 129.798 234.413 129.751 234.331 129.668C234.248 129.586 234.201 129.473 234.201 129.356V104.303C234.201 104.186 234.248 104.074 234.331 103.991C234.413 103.908 234.525 103.862 234.643 103.862C234.76 103.862 234.872 103.908 234.955 103.991C235.038 104.074 235.084 104.186 235.084 104.303V129.356C235.084 129.473 235.038 129.586 234.955 129.668C234.872 129.751 234.76 129.798 234.643 129.798Z" fill="#A3A3A3"/>
<path d="M179.568 129.798C179.451 129.798 179.339 129.751 179.256 129.668C179.173 129.586 179.127 129.473 179.127 129.356V104.303C179.127 104.186 179.173 104.074 179.256 103.991C179.339 103.908 179.451 103.862 179.568 103.862C179.686 103.862 179.798 103.908 179.881 103.991C179.963 104.074 180.01 104.186 180.01 104.303V129.356C180.01 129.473 179.963 129.586 179.881 129.668C179.798 129.751 179.686 129.798 179.568 129.798Z" fill="#A3A3A3"/>
<path d="M193.365 110.456H189.943V122.513H193.365" fill="#D3D3D3"/>
<path d="M193.334 122.817H189.94C189.897 122.817 189.854 122.808 189.814 122.792C189.774 122.775 189.737 122.751 189.706 122.72C189.676 122.689 189.651 122.653 189.635 122.613C189.618 122.572 189.609 122.529 189.609 122.486V110.456C189.609 110.413 189.618 110.37 189.635 110.329C189.651 110.289 189.676 110.253 189.706 110.222C189.737 110.191 189.774 110.167 189.814 110.15C189.854 110.134 189.897 110.125 189.94 110.125H193.334C193.378 110.125 193.421 110.134 193.461 110.15C193.501 110.167 193.538 110.191 193.568 110.222C193.599 110.253 193.623 110.289 193.64 110.329C193.657 110.37 193.665 110.413 193.665 110.456C193.665 110.544 193.63 110.628 193.568 110.69C193.506 110.752 193.422 110.787 193.334 110.787H190.272V122.155H193.334C193.422 122.155 193.506 122.19 193.568 122.252C193.63 122.314 193.665 122.398 193.665 122.486C193.665 122.574 193.63 122.658 193.568 122.72C193.506 122.782 193.422 122.817 193.334 122.817Z" fill="#A3A3A3"/>
<path d="M208.458 110.456H193.365V122.513H208.927" fill="#434343"/>
<path d="M208.815 122.817H193.226C193.14 122.811 193.06 122.774 192.999 122.713C192.938 122.652 192.901 122.572 192.895 122.486V110.456C192.874 110.375 192.874 110.289 192.895 110.208C192.966 110.18 193.044 110.18 193.115 110.208H208.235C208.279 110.208 208.322 110.216 208.362 110.233C208.402 110.25 208.439 110.274 208.469 110.305C208.5 110.336 208.525 110.372 208.541 110.412C208.558 110.452 208.566 110.495 208.566 110.539C208.566 110.582 208.558 110.625 208.541 110.666C208.525 110.706 208.5 110.742 208.469 110.773C208.439 110.804 208.402 110.828 208.362 110.845C208.322 110.861 208.279 110.87 208.235 110.87H193.446V122.265H208.815C208.903 122.265 208.987 122.3 209.049 122.362C209.111 122.424 209.146 122.508 209.146 122.596C209.119 122.662 209.073 122.717 209.014 122.757C208.955 122.796 208.886 122.817 208.815 122.817Z" fill="#A3A3A3"/>
<path d="M234.643 201.7C234.525 201.7 234.413 201.654 234.331 201.571C234.248 201.488 234.201 201.376 234.201 201.259V136.281C234.201 136.164 234.248 136.052 234.331 135.969C234.413 135.886 234.525 135.84 234.643 135.84C234.76 135.84 234.872 135.886 234.955 135.969C235.038 136.052 235.084 136.164 235.084 136.281V201.259C235.084 201.376 235.038 201.488 234.955 201.571C234.872 201.654 234.76 201.7 234.643 201.7Z" fill="#A3A3A3"/>
<path d="M179.568 201.701C179.451 201.701 179.339 201.654 179.256 201.571C179.173 201.488 179.127 201.376 179.127 201.259V133.854C179.127 133.736 179.173 133.624 179.256 133.541C179.339 133.459 179.451 133.412 179.568 133.412C179.686 133.412 179.798 133.459 179.881 133.541C179.963 133.624 180.01 133.736 180.01 133.854V201.176C180.01 201.293 179.963 201.406 179.881 201.488C179.798 201.571 179.686 201.618 179.568 201.618" fill="#A3A3A3"/>
<path d="M179.568 104.303V95.5289C179.568 94.358 180.033 93.2352 180.861 92.4073C181.689 91.5794 182.812 91.1143 183.983 91.1143H230.254C230.832 91.1142 231.405 91.2286 231.939 91.4508C232.473 91.673 232.958 91.9986 233.365 92.4089C233.773 92.8192 234.096 93.3061 234.315 93.8415C234.533 94.377 234.644 94.9504 234.641 95.5289V104.303H230.64V107.062C215.175 103.227 199.007 103.227 183.542 107.062V104.303H179.568Z" fill="#434343"/>
<path d="M207.105 103.696C214.884 103.701 222.636 104.628 230.198 106.455V104.331C230.198 104.213 230.245 104.101 230.328 104.018C230.411 103.936 230.523 103.889 230.64 103.889H234.199V95.6117C234.203 95.0912 234.104 94.5752 233.907 94.0933C233.71 93.6114 233.42 93.1732 233.053 92.8039C232.687 92.4346 232.25 92.1415 231.77 91.9415C231.289 91.7415 230.774 91.6385 230.254 91.6385H183.983C183.46 91.6349 182.942 91.7352 182.458 91.9335C181.975 92.1319 181.535 92.4244 181.165 92.7941C180.796 93.1638 180.503 93.6032 180.305 94.0869C180.106 94.5706 180.006 95.0889 180.01 95.6117V103.889H183.569C183.686 103.889 183.799 103.936 183.881 104.018C183.964 104.101 184.011 104.213 184.011 104.331V106.455C191.573 104.629 199.325 103.703 207.105 103.696ZM183.569 107.476C183.472 107.478 183.378 107.446 183.302 107.385C183.227 107.325 183.175 107.24 183.155 107.145V104.882H179.568C179.451 104.882 179.339 104.836 179.256 104.753C179.173 104.67 179.127 104.558 179.127 104.441V95.5289C179.127 94.8912 179.253 94.2598 179.497 93.6706C179.741 93.0814 180.098 92.5461 180.549 92.0952C181 91.6442 181.536 91.2865 182.125 91.0425C182.714 90.7985 183.345 90.6729 183.983 90.6729H230.254C231.535 90.6721 232.765 91.1779 233.675 92.08C234.579 93.0003 235.084 94.2391 235.082 95.5289V104.303C235.082 104.42 235.036 104.532 234.953 104.615C234.87 104.698 234.758 104.744 234.641 104.744H231.081V106.869C231.109 106.94 231.109 107.019 231.081 107.09C231.055 107.199 230.991 107.295 230.9 107.361C230.809 107.427 230.697 107.458 230.585 107.448C230.514 107.476 230.435 107.476 230.364 107.448C215.098 103.738 199.166 103.738 183.9 107.448C183.811 107.482 183.713 107.482 183.624 107.448" fill="#A3A3A3"/>
<path d="M224.985 125.355H230.503C231.736 126.794 233.073 128.14 234.504 129.384V136.309C234.516 137.434 234.113 138.524 233.372 139.372C232.54 140.187 231.42 140.643 230.255 140.641L183.984 138.489C183.402 138.49 182.825 138.374 182.289 138.146C181.753 137.918 181.269 137.584 180.866 137.164C180.443 136.725 180.11 136.206 179.888 135.638C179.665 135.07 179.557 134.463 179.569 133.853V129.356C180.894 128.114 183.542 125.328 183.542 125.328H189.226C191.189 126.799 193.575 127.594 196.028 127.594C198.48 127.594 200.866 126.799 202.829 125.328H211.355C213.284 126.794 215.632 127.604 218.055 127.639C220.478 127.674 222.849 126.931 224.819 125.521L224.985 125.355Z" fill="#434343"/>
<path d="M180.01 129.687V133.853C180.002 134.942 180.417 135.99 181.169 136.778C181.526 137.15 181.954 137.446 182.428 137.65C182.902 137.854 183.412 137.961 183.928 137.964L230.198 140.144C230.716 140.144 231.229 140.042 231.708 139.844C232.187 139.645 232.622 139.355 232.988 138.988C233.355 138.622 233.645 138.187 233.844 137.708C234.042 137.23 234.144 136.717 234.144 136.198V129.549C232.808 128.377 231.546 127.124 230.364 125.797H225.121C223.115 127.251 220.701 128.033 218.224 128.033C215.746 128.033 213.332 127.251 211.326 125.797H203.048C201.027 127.289 198.58 128.094 196.068 128.094C193.555 128.094 191.109 127.289 189.087 125.797H183.762C183.183 126.376 181.196 128.556 180.01 129.549V129.687ZM230.253 141.11L183.983 138.93C183.344 138.925 182.713 138.793 182.126 138.542C181.538 138.291 181.007 137.926 180.562 137.468C179.65 136.519 179.145 135.252 179.154 133.936V129.356C179.154 129.278 179.174 129.201 179.213 129.133C179.251 129.065 179.307 129.009 179.375 128.97C180.699 127.728 183.266 125.052 183.293 125.024C183.355 124.985 183.427 124.964 183.5 124.964C183.573 124.964 183.645 124.985 183.707 125.024H189.225C189.306 125 189.392 125 189.474 125.024C191.361 126.45 193.661 127.221 196.026 127.221C198.392 127.221 200.692 126.45 202.579 125.024H202.8H211.078H211.298C211.349 124.997 211.406 124.983 211.464 124.983C211.521 124.983 211.578 124.997 211.629 125.024C213.491 126.414 215.745 127.182 218.068 127.216C220.392 127.251 222.667 126.551 224.57 125.217C224.661 125.13 224.776 125.073 224.901 125.052H230.419C230.501 125.035 230.586 125.041 230.664 125.07C230.742 125.1 230.81 125.151 230.86 125.217C232.073 126.604 233.372 127.913 234.751 129.135C234.808 129.177 234.855 129.23 234.888 129.292C234.922 129.354 234.941 129.423 234.944 129.494V136.419C234.948 137.054 234.825 137.684 234.584 138.271C234.342 138.859 233.987 139.392 233.538 139.842C233.089 140.291 232.555 140.646 231.967 140.888C231.38 141.129 230.75 141.251 230.115 141.248" fill="#A3A3A3"/>
<path d="M230.996 106.069H231.851V121.768H231.327L231.796 123.231V124.114L232.017 125.438L232.1 126.542L232.9 127.287L233.038 124.224L233.093 122.403V104.303H231.051V104.275L230.996 106.069Z" fill="#434343"/>
<path d="M232.487 126.376L232.652 122.32V104.662H231.355V105.683H231.825L232.211 106.069V121.796L231.825 122.182L232.156 123.258V124.141L232.376 125.383L232.487 126.376ZM232.487 127.562L231.714 126.818L231.576 126.569V125.466L231.355 124.196V123.286L230.914 121.879L231.273 121.382H231.411V106.428H230.886L230.5 106.014V104.22C230.5 104.118 230.541 104.02 230.613 103.947C230.686 103.875 230.784 103.834 230.886 103.834H232.928L233.314 104.22V122.32V124.169V127.259L232.487 127.562Z" fill="#A3A3A3"/>
<path d="M231.191 106.069V123.037H231.826V106.069H231.191Z" fill="#A3A3A3"/>
<path d="M231.468 122.817V106.262V122.817ZM231.826 123.368H231.192C231.154 123.373 231.116 123.369 231.081 123.356C231.046 123.344 231.013 123.324 230.987 123.297C230.96 123.271 230.94 123.239 230.928 123.203C230.915 123.168 230.911 123.13 230.916 123.092V106.069C230.911 106.031 230.915 105.994 230.928 105.958C230.94 105.923 230.96 105.89 230.987 105.864C231.013 105.837 231.046 105.817 231.081 105.805C231.116 105.792 231.154 105.788 231.192 105.793H231.826C231.9 105.793 231.97 105.822 232.021 105.874C232.073 105.925 232.102 105.995 232.102 106.069V123.01C232.102 123.083 232.073 123.153 232.021 123.205C231.97 123.257 231.9 123.286 231.826 123.286" fill="#A3A3A3"/>
<path d="M183.153 104.303H181.139V122.403L181.194 124.224L181.332 127.287L182.104 126.542L182.215 125.438L182.435 124.114V123.231L182.905 121.768H182.38V106.069H183.236L183.18 104.275L183.153 104.303Z" fill="#434343"/>
<path d="M181.525 104.662V122.375L181.663 126.431V125.438L181.884 124.114V123.175L182.187 122.21L181.829 121.823V106.096L182.215 105.71H182.656V104.689L181.525 104.662ZM181.525 127.562L180.89 127.314L180.697 122.403V104.275L181.084 103.889H183.125C183.228 103.889 183.326 103.93 183.398 104.002C183.471 104.075 183.512 104.173 183.512 104.275V106.069L183.153 106.483H182.684V121.437H182.822L183.208 121.934L182.767 123.341V124.169L182.546 125.548V126.624V126.873L181.525 127.562Z" fill="#A3A3A3"/>
<path d="M182.41 106.069V123.037H183.045V106.069H182.41Z" fill="#A3A3A3"/>
<path d="M182.684 122.817V106.262V122.817ZM183.016 123.368H182.409C182.371 123.373 182.333 123.369 182.298 123.356C182.262 123.344 182.23 123.324 182.204 123.297C182.177 123.271 182.157 123.239 182.145 123.203C182.132 123.168 182.128 123.13 182.133 123.092V106.069C182.128 106.031 182.132 105.994 182.145 105.958C182.157 105.923 182.177 105.89 182.204 105.864C182.23 105.837 182.262 105.817 182.298 105.805C182.333 105.792 182.371 105.788 182.409 105.793H183.016C183.053 105.788 183.091 105.792 183.126 105.805C183.162 105.817 183.194 105.837 183.22 105.864C183.247 105.89 183.267 105.923 183.279 105.958C183.292 105.994 183.296 106.031 183.291 106.069V123.01C183.296 123.047 183.292 123.085 183.279 123.12C183.267 123.156 183.247 123.188 183.22 123.215C183.194 123.241 183.162 123.261 183.126 123.274C183.091 123.286 183.053 123.29 183.016 123.286" fill="#A3A3A3"/>
<path d="M232.1 275.866L232.017 276.997L231.796 278.321V279.204L231.327 280.666H231.851V296.504H230.996L231.051 298.297L231.079 298.27H233.093V280.059L233.038 278.211L232.9 275.121L232.1 275.866Z" fill="#434343"/>
<path d="M231.413 297.884H232.71V280.087L232.544 276.031V277.025L232.324 278.377V279.315L232.02 280.28L232.406 280.667V296.477L232.02 296.863H231.551L231.413 297.884ZM231.054 298.684C230.952 298.684 230.854 298.643 230.781 298.571C230.709 298.498 230.668 298.4 230.668 298.298V296.504L231.054 296.09H231.523V281.053H231.385L231.027 280.556L231.468 279.122V278.294L231.716 276.914V275.838L231.854 275.59L232.627 274.817L233.289 275.093L233.482 280.032V298.27L233.096 298.656H231.054" fill="#A3A3A3"/>
<path d="M231.191 279.508V296.449V296.476H231.826V279.508H231.191Z" fill="#A3A3A3"/>
<path d="M231.468 296.173V279.618V296.173ZM231.826 296.725H231.192C231.154 296.729 231.116 296.725 231.081 296.713C231.046 296.7 231.013 296.68 230.987 296.654C230.96 296.627 230.94 296.595 230.928 296.559C230.915 296.524 230.911 296.486 230.916 296.449V279.48C230.916 279.407 230.945 279.337 230.997 279.285C231.048 279.233 231.118 279.204 231.192 279.204H231.826C231.897 279.21 231.964 279.241 232.014 279.292C232.065 279.342 232.096 279.409 232.102 279.48V296.449C232.102 296.522 232.073 296.592 232.021 296.644C231.97 296.696 231.9 296.725 231.826 296.725Z" fill="#A3A3A3"/>
<path d="M181.194 278.211L181.139 280.059V298.27H183.153L183.18 298.297L183.236 296.504H182.38V280.666H182.905L182.435 279.204V278.321L182.215 276.997L182.104 275.866L181.332 275.121L181.194 278.211Z" fill="#434343"/>
<path d="M181.526 297.884H182.795V296.863H182.354L181.967 296.477V280.667L182.326 280.28L182.022 279.177V278.294L181.802 277.052V276.031L181.664 280.115L181.526 297.884ZM183.181 298.684H181.222L180.836 298.298V280.087V278.239V275.148L181.471 274.873L182.271 275.645V275.893V277.025L182.491 278.294V279.177L182.933 280.612L182.547 281.108V296.145H183.016L183.402 296.559V298.353C183.402 298.455 183.361 298.553 183.289 298.626C183.216 298.698 183.118 298.739 183.016 298.739" fill="#A3A3A3"/>
<path d="M182.41 279.508V296.476H183.045V296.449V279.508H182.41Z" fill="#A3A3A3"/>
<path d="M182.686 296.173V279.618V296.173ZM183.017 296.725H182.41C182.373 296.729 182.335 296.725 182.3 296.713C182.264 296.7 182.232 296.68 182.206 296.654C182.179 296.627 182.159 296.595 182.147 296.559C182.134 296.524 182.13 296.486 182.135 296.449V279.48C182.135 279.407 182.164 279.337 182.215 279.285C182.267 279.233 182.337 279.204 182.41 279.204H183.017C183.091 279.204 183.161 279.233 183.213 279.285C183.264 279.337 183.293 279.407 183.293 279.48V296.449C183.298 296.486 183.294 296.524 183.281 296.559C183.269 296.595 183.249 296.627 183.222 296.654C183.196 296.68 183.164 296.7 183.128 296.713C183.093 296.725 183.055 296.729 183.017 296.725Z" fill="#A3A3A3"/>
<path d="M218.334 104.883C220.583 104.883 222.781 105.55 224.65 106.799C226.519 108.048 227.976 109.823 228.837 111.9C229.697 113.977 229.922 116.263 229.484 118.468C229.045 120.673 227.962 122.699 226.373 124.289C224.783 125.878 222.757 126.961 220.552 127.4C218.347 127.838 216.061 127.613 213.984 126.753C211.907 125.892 210.132 124.435 208.883 122.566C207.634 120.697 206.967 118.499 206.967 116.25C206.967 113.236 208.164 110.344 210.296 108.212C212.428 106.08 215.32 104.883 218.334 104.883Z" fill="#D3D3D3"/>
<path d="M218.335 105.324C216.152 105.324 214.018 105.971 212.203 107.184C210.388 108.397 208.973 110.12 208.138 112.137C207.303 114.154 207.084 116.373 207.51 118.513C207.936 120.654 208.987 122.621 210.531 124.164C212.074 125.708 214.041 126.759 216.181 127.185C218.322 127.611 220.541 127.392 222.558 126.557C224.575 125.721 226.298 124.307 227.511 122.492C228.724 120.677 229.371 118.543 229.371 116.36C229.371 113.433 228.208 110.626 226.139 108.556C224.069 106.487 221.262 105.324 218.335 105.324ZM218.335 128.059C215.999 128.059 213.716 127.366 211.774 126.069C209.832 124.771 208.318 122.927 207.424 120.769C206.531 118.611 206.297 116.237 206.752 113.946C207.208 111.655 208.333 109.551 209.984 107.9C211.636 106.248 213.74 105.123 216.031 104.668C218.321 104.212 220.696 104.446 222.854 105.34C225.011 106.234 226.856 107.747 228.153 109.689C229.451 111.631 230.143 113.914 230.143 116.25C230.143 119.382 228.899 122.386 226.685 124.6C224.47 126.815 221.466 128.059 218.335 128.059Z" fill="#A3A3A3"/>
<path d="M234.643 298.656C234.525 298.656 234.413 298.609 234.331 298.527C234.248 298.444 234.201 298.332 234.201 298.215V273.162C234.201 273.045 234.248 272.932 234.331 272.85C234.413 272.767 234.525 272.72 234.643 272.72C234.76 272.72 234.872 272.767 234.955 272.85C235.038 272.932 235.084 273.045 235.084 273.162V298.215C235.084 298.332 235.038 298.444 234.955 298.527C234.872 298.609 234.76 298.656 234.643 298.656Z" fill="#A3A3A3"/>
<path d="M179.568 298.656C179.451 298.656 179.339 298.609 179.256 298.527C179.173 298.444 179.127 298.332 179.127 298.215V273.162C179.127 273.045 179.173 272.932 179.256 272.85C179.339 272.767 179.451 272.72 179.568 272.72C179.686 272.72 179.798 272.767 179.881 272.85C179.963 272.932 180.01 273.045 180.01 273.162V298.215C180.01 298.332 179.963 298.444 179.881 298.527C179.798 298.609 179.686 298.656 179.568 298.656Z" fill="#A3A3A3"/>
<path d="M193.365 292.062H189.943V280.032H193.365" fill="#D3D3D3"/>
<path d="M193.334 292.393H189.94C189.853 292.393 189.768 292.358 189.706 292.296C189.644 292.234 189.609 292.149 189.609 292.062V280.087C189.609 279.999 189.644 279.915 189.706 279.853C189.768 279.791 189.853 279.756 189.94 279.756H193.334C193.422 279.756 193.506 279.791 193.568 279.853C193.63 279.915 193.665 279.999 193.665 280.087C193.665 280.175 193.63 280.259 193.568 280.321C193.506 280.383 193.422 280.418 193.334 280.418H190.272V291.813H193.334C193.422 291.813 193.506 291.848 193.568 291.91C193.63 291.972 193.665 292.056 193.665 292.144C193.665 292.232 193.63 292.316 193.568 292.378C193.506 292.441 193.422 292.475 193.334 292.475" fill="#A3A3A3"/>
<path d="M208.458 292.062H193.365V280.032L208.927 280.004" fill="#434343"/>
<path d="M193.335 292.393C193.301 292.41 193.263 292.419 193.225 292.419C193.187 292.419 193.149 292.41 193.115 292.393C193.089 292.321 193.089 292.243 193.115 292.172V280.087C193.121 280.001 193.158 279.921 193.219 279.86C193.279 279.799 193.36 279.762 193.446 279.756H208.814C208.9 279.762 208.98 279.799 209.041 279.86C209.102 279.921 209.139 280.001 209.145 280.087C209.145 280.175 209.11 280.259 209.048 280.321C208.986 280.383 208.902 280.418 208.814 280.418H193.556V291.813H208.345C208.433 291.813 208.517 291.848 208.579 291.91C208.641 291.972 208.676 292.056 208.676 292.144C208.67 292.23 208.633 292.311 208.572 292.371C208.511 292.432 208.431 292.469 208.345 292.475L193.335 292.393Z" fill="#A3A3A3"/>
<path d="M179.57 298.215V306.989C179.57 308.16 180.035 309.282 180.863 310.11C181.691 310.938 182.814 311.403 183.985 311.403H230.256C230.834 311.403 231.407 311.289 231.941 311.067C232.475 310.845 232.96 310.519 233.367 310.109C233.775 309.698 234.098 309.211 234.316 308.676C234.535 308.141 234.646 307.567 234.642 306.989V298.215H230.642V295.456C215.173 299.263 199.012 299.263 183.543 295.456V298.215H179.57Z" fill="#434343"/>
<path d="M180.01 298.656V306.933C180.006 307.456 180.106 307.974 180.305 308.458C180.503 308.942 180.796 309.381 181.165 309.751C181.535 310.121 181.975 310.413 182.458 310.611C182.942 310.81 183.46 310.91 183.983 310.906H230.254C230.774 310.906 231.289 310.803 231.77 310.603C232.25 310.403 232.687 310.11 233.053 309.741C233.42 309.372 233.71 308.934 233.907 308.452C234.104 307.97 234.203 307.454 234.199 306.933V298.656H230.64C230.523 298.656 230.411 298.609 230.328 298.527C230.245 298.444 230.198 298.332 230.198 298.214V296.09C215.018 299.732 199.191 299.732 184.011 296.09V298.214C184.011 298.332 183.964 298.444 183.881 298.527C183.799 298.609 183.686 298.656 183.569 298.656H180.01ZM230.254 311.845H183.983C182.7 311.83 181.473 311.314 180.565 310.406C179.658 309.499 179.141 308.272 179.127 306.988V298.214C179.127 298.097 179.173 297.985 179.256 297.902C179.339 297.82 179.451 297.773 179.568 297.773H183.128V295.428C183.154 295.318 183.218 295.222 183.309 295.156C183.401 295.09 183.512 295.059 183.624 295.069C183.695 295.041 183.774 295.041 183.845 295.069C199.118 298.794 215.063 298.794 230.336 295.069C230.416 295.039 230.505 295.039 230.585 295.069C230.694 295.052 230.806 295.077 230.897 295.138C230.989 295.199 231.055 295.293 231.081 295.4V297.801H234.641C234.758 297.801 234.87 297.847 234.953 297.93C235.036 298.013 235.082 298.125 235.082 298.242V307.016C235.082 307.653 234.955 308.284 234.709 308.871C234.462 309.458 234.101 309.991 233.647 310.437C233.204 310.895 232.672 311.259 232.084 311.505C231.496 311.752 230.864 311.877 230.226 311.872" fill="#A3A3A3"/>
<path d="M224.983 277.163H230.501C230.501 276.114 234.502 273.162 234.502 273.162V266.292C234.506 265.713 234.395 265.14 234.176 264.604C233.957 264.069 233.634 263.582 233.227 263.172C232.819 262.761 232.334 262.436 231.8 262.214C231.266 261.991 230.693 261.877 230.115 261.877L183.844 264.057C183.26 264.06 182.683 264.182 182.147 264.414C181.611 264.646 181.128 264.985 180.726 265.409C179.892 266.275 179.426 267.433 179.43 268.637V273.217C180.864 274.437 182.193 275.775 183.403 277.218H189.087C191.047 275.743 193.434 274.945 195.888 274.945C198.341 274.945 200.729 275.743 202.689 277.218H211.215C213.144 275.751 215.492 274.941 217.915 274.906C220.338 274.871 222.709 275.614 224.679 277.025L224.983 277.163Z" fill="#434343"/>
<path d="M211.383 276.721C213.388 275.263 215.803 274.478 218.281 274.478C220.76 274.478 223.175 275.263 225.179 276.721H230.311C231.367 275.235 232.686 273.954 234.202 272.941V266.292C234.196 265.255 233.779 264.263 233.043 263.532C232.686 263.159 232.258 262.862 231.784 262.658C231.31 262.454 230.8 262.348 230.284 262.346L184.041 264.526C182.996 264.549 182.004 264.986 181.281 265.74C180.53 266.527 180.115 267.576 180.123 268.664V273.024C181.474 274.18 182.728 275.445 183.875 276.804H189.2C191.222 275.312 193.668 274.506 196.181 274.506C198.693 274.506 201.14 275.312 203.161 276.804L211.383 276.721ZM211.383 277.714H211.163H202.885H202.72C200.835 276.284 198.533 275.51 196.167 275.51C193.801 275.51 191.499 276.284 189.614 277.714C189.533 277.738 189.447 277.738 189.366 277.714H183.847C183.783 277.746 183.712 277.763 183.641 277.763C183.569 277.763 183.498 277.746 183.434 277.714C182.238 276.303 180.937 274.984 179.543 273.769C179.476 273.737 179.419 273.686 179.38 273.622C179.34 273.559 179.321 273.485 179.322 273.41V268.83C179.311 267.514 179.816 266.246 180.73 265.298C181.127 264.802 181.62 264.39 182.179 264.087C182.738 263.784 183.352 263.595 183.985 263.532L230.228 261.38C231.518 261.378 232.757 261.884 233.677 262.788C234.126 263.236 234.482 263.77 234.724 264.357C234.965 264.944 235.088 265.574 235.084 266.209V273.134C235.085 273.212 235.065 273.289 235.026 273.357C234.987 273.425 234.931 273.481 234.864 273.521C233.373 274.459 232.087 275.688 231.084 277.135C231.084 277.252 231.037 277.364 230.954 277.447C230.872 277.53 230.759 277.576 230.642 277.576H225.124C225.059 277.579 224.995 277.565 224.937 277.536C224.879 277.507 224.83 277.464 224.793 277.411C222.89 276.087 220.619 275.396 218.301 275.435C215.983 275.475 213.737 276.243 211.88 277.632C211.8 277.659 211.712 277.659 211.632 277.632" fill="#A3A3A3"/>
<path d="M218.334 274.9C220.583 274.9 222.781 275.567 224.65 276.816C226.519 278.065 227.976 279.84 228.837 281.917C229.697 283.994 229.922 286.28 229.484 288.485C229.045 290.69 227.962 292.716 226.373 294.306C224.783 295.895 222.757 296.978 220.552 297.417C218.347 297.855 216.061 297.63 213.984 296.77C211.907 295.909 210.132 294.452 208.883 292.583C207.634 290.714 206.967 288.516 206.967 286.268C206.967 283.253 208.164 280.361 210.296 278.229C212.428 276.098 215.32 274.9 218.334 274.9Z" fill="#D3D3D3"/>
<path d="M218.335 275.341C216.152 275.341 214.018 275.989 212.203 277.201C210.388 278.414 208.973 280.138 208.138 282.154C207.303 284.171 207.084 286.39 207.51 288.531C207.936 290.672 208.987 292.638 210.531 294.182C212.074 295.725 214.041 296.777 216.181 297.202C218.322 297.628 220.541 297.41 222.558 296.574C224.575 295.739 226.298 294.324 227.511 292.509C228.724 290.695 229.371 288.561 229.371 286.378C229.371 283.451 228.208 280.644 226.139 278.574C224.069 276.504 221.262 275.341 218.335 275.341ZM218.335 298.077C215.999 298.077 213.716 297.384 211.774 296.086C209.832 294.789 208.318 292.945 207.424 290.787C206.531 288.629 206.297 286.254 206.752 283.964C207.208 281.673 208.333 279.569 209.984 277.917C211.636 276.266 213.74 275.141 216.031 274.685C218.321 274.23 220.696 274.464 222.854 275.357C225.011 276.251 226.856 277.765 228.153 279.707C229.451 281.649 230.143 283.932 230.143 286.268C230.143 289.4 228.899 292.403 226.685 294.618C224.47 296.832 221.466 298.077 218.335 298.077Z" fill="#A3A3A3"/>
<path d="M205.504 201.535H174.409C174.338 201.529 174.271 201.498 174.221 201.447C174.17 201.397 174.139 201.33 174.133 201.259C174.133 201.186 174.162 201.116 174.214 201.064C174.265 201.012 174.336 200.983 174.409 200.983H205.504C205.541 200.979 205.579 200.983 205.615 200.995C205.65 201.007 205.682 201.028 205.709 201.054C205.736 201.081 205.756 201.113 205.768 201.148C205.78 201.184 205.784 201.222 205.78 201.259C205.78 201.332 205.751 201.402 205.699 201.454C205.647 201.506 205.577 201.535 205.504 201.535ZM208.815 201.535H207.711C207.638 201.535 207.568 201.506 207.516 201.454C207.465 201.402 207.435 201.332 207.435 201.259C207.431 201.222 207.435 201.184 207.447 201.148C207.46 201.113 207.48 201.081 207.506 201.054C207.533 201.028 207.565 201.007 207.601 200.995C207.636 200.983 207.674 200.979 207.711 200.983H208.815C208.888 200.983 208.958 201.012 209.01 201.064C209.062 201.116 209.091 201.186 209.091 201.259C209.085 201.33 209.054 201.397 209.003 201.447C208.953 201.498 208.886 201.529 208.815 201.535ZM239.165 201.535H211.022C210.949 201.535 210.879 201.506 210.827 201.454C210.775 201.402 210.746 201.332 210.746 201.259C210.742 201.222 210.746 201.184 210.758 201.148C210.771 201.113 210.791 201.081 210.817 201.054C210.844 201.028 210.876 201.007 210.912 200.995C210.947 200.983 210.985 200.979 211.022 200.983H239.165C239.239 200.983 239.309 201.012 239.361 201.064C239.412 201.116 239.441 201.186 239.441 201.259C239.435 201.33 239.404 201.397 239.354 201.447C239.303 201.498 239.237 201.529 239.165 201.535Z" fill="#A3A3A3"/>
<path d="M153.44 304.919C153.367 304.919 153.297 304.89 153.245 304.838C153.193 304.787 153.164 304.717 153.164 304.643V210.833C153.17 210.762 153.201 210.695 153.252 210.645C153.302 210.594 153.369 210.563 153.44 210.557C153.513 210.557 153.583 210.586 153.635 210.638C153.687 210.69 153.716 210.76 153.716 210.833V304.643C153.72 304.681 153.716 304.719 153.704 304.754C153.692 304.79 153.672 304.822 153.645 304.848C153.618 304.875 153.586 304.895 153.551 304.907C153.515 304.92 153.477 304.924 153.44 304.919Z" fill="#A3A3A3"/>
<path d="M153.44 192.044C153.369 192.037 153.302 192.006 153.252 191.956C153.201 191.905 153.17 191.839 153.164 191.768V98.5643C153.164 98.4911 153.193 98.4209 153.245 98.3692C153.297 98.3174 153.367 98.2884 153.44 98.2884C153.477 98.2839 153.515 98.288 153.551 98.3003C153.586 98.3126 153.618 98.3328 153.645 98.3593C153.672 98.3859 153.692 98.4182 153.704 98.4536C153.716 98.4891 153.72 98.527 153.716 98.5643V191.795C153.716 191.868 153.687 191.939 153.635 191.99C153.583 192.042 153.513 192.071 153.44 192.071" fill="#A3A3A3"/>
<path d="M152.059 101.351L153.438 91.4453L154.845 101.351H152.059Z" fill="#A3A3A3"/>
<path d="M154.845 301.719L153.438 311.624L152.059 301.719H154.845Z" fill="#A3A3A3"/>
<path d="M150.873 204.984H153.026C153.557 205.006 154.088 204.941 154.598 204.791C154.936 204.684 155.247 204.505 155.509 204.267C155.844 203.901 156.098 203.468 156.254 202.997C156.434 202.36 156.517 201.7 156.502 201.038C156.553 200.196 156.372 199.356 155.978 198.61C155.701 198.096 155.252 197.695 154.709 197.479C154.155 197.309 153.577 197.234 152.998 197.258H150.873V204.984ZM149.521 206.17V196.072H152.998C153.604 196.015 154.213 196.015 154.819 196.072C155.356 196.192 155.858 196.438 156.281 196.789C156.83 197.253 157.248 197.853 157.495 198.528C157.762 199.299 157.893 200.112 157.882 200.928C157.898 201.619 157.805 202.308 157.606 202.97C157.478 203.499 157.243 203.997 156.916 204.432C156.678 204.803 156.369 205.122 156.005 205.37C155.633 205.606 155.222 205.774 154.791 205.867C154.257 205.985 153.711 206.041 153.163 206.032L149.521 206.17Z" fill="#A3A3A3"/>
<path d="M177.498 91.4454H148.114C148.076 91.4498 148.038 91.4457 148.003 91.4334C147.967 91.4211 147.935 91.401 147.909 91.3744C147.882 91.3478 147.862 91.3156 147.85 91.2801C147.837 91.2446 147.833 91.2068 147.838 91.1695C147.838 91.0963 147.867 91.0261 147.919 90.9744C147.97 90.9226 148.04 90.8936 148.114 90.8936H177.416C177.487 90.8998 177.553 90.9308 177.604 90.9813C177.654 91.0318 177.685 91.0984 177.691 91.1695C177.691 91.2057 177.684 91.2416 177.67 91.2751C177.657 91.3085 177.636 91.3389 177.611 91.3646C177.585 91.3902 177.555 91.4105 177.521 91.4244C177.488 91.4383 177.452 91.4454 177.416 91.4454" fill="#A3A3A3"/>
<path d="M178.298 311.652H148.114C148.04 311.652 147.97 311.623 147.919 311.571C147.867 311.519 147.838 311.449 147.838 311.376C147.833 311.338 147.837 311.301 147.85 311.265C147.862 311.23 147.882 311.197 147.909 311.171C147.935 311.144 147.967 311.124 148.003 311.112C148.038 311.1 148.076 311.095 148.114 311.1H178.216C178.289 311.1 178.359 311.129 178.411 311.181C178.463 311.232 178.492 311.303 178.492 311.376C178.485 311.447 178.454 311.514 178.404 311.564C178.353 311.614 178.287 311.645 178.216 311.652" fill="#A3A3A3"/>
<path d="M228.129 64.1854H215.079C215.007 64.1792 214.941 64.1481 214.89 64.0977C214.84 64.0472 214.809 63.9806 214.803 63.9095C214.803 63.8363 214.832 63.7661 214.883 63.7144C214.935 63.6626 215.005 63.6336 215.079 63.6336H228.129C228.167 63.6291 228.204 63.6332 228.24 63.6455C228.275 63.6578 228.308 63.678 228.334 63.7046C228.361 63.7311 228.381 63.7634 228.393 63.7989C228.405 63.8344 228.41 63.8722 228.405 63.9095C228.405 63.9827 228.376 64.0528 228.324 64.1046C228.273 64.1563 228.202 64.1854 228.129 64.1854Z" fill="#A3A3A3"/>
<path d="M199.931 64.1851H187.045C186.974 64.1789 186.908 64.1478 186.857 64.0974C186.807 64.0469 186.776 63.9803 186.77 63.9092C186.77 63.836 186.799 63.7659 186.85 63.7141C186.902 63.6624 186.972 63.6333 187.045 63.6333H199.931C200.004 63.6333 200.074 63.6624 200.126 63.7141C200.177 63.7659 200.206 63.836 200.206 63.9092C200.2 63.9803 200.169 64.0469 200.119 64.0974C200.068 64.1478 200.002 64.1789 199.931 64.1851Z" fill="#A3A3A3"/>
<path d="M189.474 65.2892L179.568 63.9096L189.474 62.5024V65.2892Z" fill="#A3A3A3"/>
<path d="M224.734 62.5024L234.667 63.9096L224.734 65.2892V62.5024Z" fill="#A3A3A3"/>
<path d="M205.063 67.9101H207.601C207.904 67.9452 208.209 67.9452 208.512 67.9101C208.785 67.8692 209.047 67.7755 209.284 67.6342C209.496 67.498 209.668 67.3075 209.781 67.0824C209.918 66.8189 209.985 66.5241 209.974 66.227C209.985 65.8757 209.888 65.5293 209.698 65.2338C209.502 64.9583 209.221 64.7547 208.898 64.6543C208.412 64.5284 207.91 64.4727 207.408 64.4888H205.063V67.9101ZM205.063 63.2472H207.242C207.674 63.29 208.108 63.29 208.539 63.2472C208.845 63.1563 209.114 62.9732 209.312 62.7229C209.487 62.4629 209.574 62.1534 209.56 61.84C209.567 61.5276 209.48 61.2202 209.312 60.9571C209.147 60.71 208.904 60.5253 208.622 60.4329C208.115 60.3236 207.596 60.2773 207.077 60.2949H205.063V63.3575V63.2472ZM203.738 69.0965V58.9981H207.518C208.158 58.9653 208.798 59.0688 209.394 59.3016C209.846 59.4883 210.224 59.8178 210.471 60.2397C210.735 60.6414 210.879 61.1107 210.884 61.5917C210.886 62.0227 210.761 62.4447 210.526 62.8057C210.279 63.2104 209.913 63.5286 209.477 63.7162C210.033 63.8739 210.525 64.202 210.884 64.6543C211.218 65.0887 211.394 65.6242 211.381 66.1719C211.378 66.6303 211.275 67.0825 211.078 67.4962C210.896 67.8566 210.642 68.1758 210.333 68.4343C210.001 68.6704 209.626 68.8391 209.229 68.931C208.695 69.0508 208.148 69.1064 207.601 69.0965H203.738Z" fill="#A3A3A3"/>
<path d="M179.567 89.9829C179.529 89.9873 179.492 89.9832 179.456 89.9709C179.421 89.9586 179.388 89.9384 179.362 89.9119C179.335 89.8853 179.315 89.8531 179.303 89.8176C179.29 89.7821 179.286 89.7443 179.291 89.707V61.012C179.286 60.9747 179.29 60.9369 179.303 60.9014C179.315 60.8659 179.335 60.8337 179.362 60.8071C179.388 60.7805 179.421 60.7604 179.456 60.7481C179.492 60.7358 179.529 60.7317 179.567 60.7361C179.64 60.7361 179.71 60.7652 179.762 60.8169C179.814 60.8687 179.843 60.9388 179.843 61.012V89.707C179.843 89.7801 179.814 89.8503 179.762 89.9021C179.71 89.9538 179.64 89.9829 179.567 89.9829Z" fill="#A3A3A3"/>
<path d="M234.639 89.9829C234.566 89.9829 234.496 89.9538 234.444 89.9021C234.392 89.8503 234.363 89.7801 234.363 89.707V61.012C234.363 60.9388 234.392 60.8687 234.444 60.8169C234.496 60.7652 234.566 60.7361 234.639 60.7361C234.676 60.7317 234.714 60.7358 234.75 60.7481C234.785 60.7604 234.818 60.7805 234.844 60.8071C234.871 60.8337 234.891 60.8659 234.903 60.9014C234.915 60.9369 234.92 60.9747 234.915 61.012V89.707C234.92 89.7443 234.915 89.7821 234.903 89.8176C234.891 89.8531 234.871 89.8853 234.844 89.9119C234.818 89.9384 234.785 89.9586 234.75 89.9709C234.714 89.9832 234.676 89.9873 234.639 89.9829Z" fill="#A3A3A3"/>
<path d="M262.01 254.731C261.973 254.735 261.935 254.731 261.9 254.719C261.864 254.707 261.832 254.687 261.805 254.66C261.779 254.633 261.758 254.601 261.746 254.566C261.734 254.53 261.73 254.492 261.734 254.455V210.944C261.73 210.906 261.734 210.869 261.746 210.833C261.758 210.798 261.779 210.765 261.805 210.739C261.832 210.712 261.864 210.692 261.9 210.68C261.935 210.667 261.973 210.663 262.01 210.668C262.083 210.668 262.153 210.697 262.205 210.749C262.257 210.8 262.286 210.871 262.286 210.944V254.455C262.286 254.528 262.257 254.598 262.205 254.65C262.153 254.702 262.083 254.731 262.01 254.731Z" fill="#A3A3A3"/>
<path d="M262.01 192.098C261.973 192.103 261.935 192.099 261.9 192.086C261.864 192.074 261.832 192.054 261.805 192.027C261.779 192.001 261.758 191.968 261.746 191.933C261.734 191.897 261.73 191.86 261.734 191.822V147.649C261.73 147.611 261.734 147.574 261.746 147.538C261.758 147.503 261.779 147.47 261.805 147.444C261.832 147.417 261.864 147.397 261.9 147.385C261.935 147.372 261.973 147.368 262.01 147.373C262.083 147.373 262.153 147.402 262.205 147.454C262.257 147.505 262.286 147.576 262.286 147.649V191.795C262.286 191.868 262.257 191.938 262.205 191.99C262.153 192.042 262.083 192.071 262.01 192.071" fill="#A3A3A3"/>
<path d="M260.631 150.601L262.01 140.696L263.418 150.601H260.631Z" fill="#A3A3A3"/>
<path d="M263.418 251.944L262.01 261.849L260.631 251.944H263.418Z" fill="#A3A3A3"/>
<path d="M259.196 202.528C259.148 203.276 259.363 204.018 259.803 204.625C259.967 204.842 260.18 205.018 260.424 205.138C260.669 205.257 260.938 205.318 261.21 205.315C261.474 205.313 261.735 205.253 261.974 205.138C262.212 205.024 262.423 204.858 262.589 204.653C263.01 204.07 263.206 203.354 263.141 202.638C263.206 201.858 263.002 201.079 262.562 200.431C262.399 200.211 262.187 200.031 261.943 199.906C261.699 199.782 261.429 199.716 261.155 199.714C260.886 199.708 260.62 199.768 260.38 199.888C260.139 200.008 259.932 200.185 259.775 200.404C259.337 201.021 259.132 201.774 259.196 202.528ZM263.141 206.17V205.26C262.922 205.606 262.615 205.888 262.252 206.077C261.888 206.266 261.481 206.355 261.072 206.336C260.503 206.348 259.944 206.184 259.472 205.867C258.975 205.531 258.584 205.062 258.34 204.515C258.056 203.892 257.914 203.213 257.927 202.528C257.923 201.85 258.045 201.176 258.285 200.542C258.511 199.984 258.895 199.505 259.389 199.162C259.886 198.853 260.459 198.691 261.044 198.693C261.448 198.68 261.848 198.775 262.203 198.969C262.54 199.138 262.833 199.384 263.058 199.686V196.072H264.3V206.17H263.141Z" fill="#A3A3A3"/>
<path d="M266.427 140.944H236.766C236.729 140.949 236.691 140.945 236.655 140.932C236.62 140.92 236.588 140.9 236.561 140.873C236.534 140.847 236.514 140.815 236.502 140.779C236.49 140.744 236.486 140.706 236.49 140.668C236.49 140.632 236.497 140.596 236.511 140.563C236.525 140.529 236.545 140.499 236.571 140.473C236.596 140.448 236.627 140.427 236.66 140.414C236.694 140.4 236.73 140.393 236.766 140.393H266.427C266.498 140.399 266.564 140.43 266.615 140.48C266.665 140.531 266.696 140.597 266.702 140.668C266.702 140.742 266.673 140.812 266.622 140.864C266.57 140.915 266.5 140.944 266.427 140.944Z" fill="#A3A3A3"/>
<path d="M266.427 262.125H236.766C236.73 262.125 236.694 262.118 236.66 262.104C236.627 262.09 236.596 262.07 236.571 262.044C236.545 262.018 236.525 261.988 236.511 261.955C236.497 261.921 236.49 261.885 236.49 261.849C236.486 261.812 236.49 261.774 236.502 261.738C236.514 261.703 236.534 261.671 236.561 261.644C236.588 261.617 236.62 261.597 236.655 261.585C236.691 261.573 236.729 261.569 236.766 261.573H266.427C266.5 261.573 266.57 261.602 266.622 261.654C266.673 261.706 266.702 261.776 266.702 261.849C266.696 261.92 266.665 261.987 266.615 262.037C266.564 262.088 266.498 262.119 266.427 262.125Z" fill="#A3A3A3"/>
<path d="M176.186 327.991H173.691V327.496L174.868 326.241C175.03 326.065 175.149 325.91 175.226 325.779C175.304 325.647 175.343 325.522 175.343 325.404C175.343 325.242 175.303 325.115 175.221 325.024C175.139 324.93 175.023 324.884 174.871 324.884C174.708 324.884 174.578 324.94 174.483 325.054C174.39 325.165 174.343 325.313 174.343 325.496H173.618C173.618 325.275 173.671 325.072 173.776 324.889C173.883 324.705 174.033 324.562 174.226 324.459C174.419 324.354 174.638 324.301 174.883 324.301C175.258 324.301 175.549 324.391 175.756 324.571C175.964 324.751 176.068 325.005 176.068 325.334C176.068 325.514 176.022 325.697 175.928 325.884C175.835 326.07 175.675 326.288 175.448 326.536L174.621 327.409H176.186V327.991ZM179.126 327.991H176.631V327.496L177.808 326.241C177.97 326.065 178.089 325.91 178.166 325.779C178.244 325.647 178.283 325.522 178.283 325.404C178.283 325.242 178.243 325.115 178.161 325.024C178.079 324.93 177.963 324.884 177.811 324.884C177.648 324.884 177.518 324.94 177.423 325.054C177.33 325.165 177.283 325.313 177.283 325.496H176.558C176.558 325.275 176.611 325.072 176.716 324.889C176.823 324.705 176.973 324.562 177.166 324.459C177.359 324.354 177.578 324.301 177.823 324.301C178.198 324.301 178.489 324.391 178.696 324.571C178.904 324.751 179.008 325.005 179.008 325.334C179.008 325.514 178.962 325.697 178.868 325.884C178.775 326.07 178.615 326.288 178.388 326.536L177.561 327.409H179.126V327.991ZM179.638 327.636C179.638 327.521 179.677 327.428 179.753 327.356C179.832 327.285 179.929 327.249 180.046 327.249C180.164 327.249 180.262 327.285 180.338 327.356C180.417 327.428 180.456 327.521 180.456 327.636C180.456 327.75 180.418 327.842 180.341 327.914C180.264 327.984 180.166 328.019 180.046 328.019C179.928 328.019 179.83 327.984 179.753 327.914C179.677 327.842 179.638 327.75 179.638 327.636ZM181.128 327.636C181.128 327.521 181.167 327.428 181.243 327.356C181.322 327.285 181.419 327.249 181.536 327.249C181.654 327.249 181.752 327.285 181.828 327.356C181.907 327.428 181.946 327.521 181.946 327.636C181.946 327.75 181.908 327.842 181.831 327.914C181.754 327.984 181.656 328.019 181.536 328.019C181.418 328.019 181.32 327.984 181.243 327.914C181.167 327.842 181.128 327.75 181.128 327.636ZM185.043 326.531L184.653 326.951V327.991H183.903V324.351H184.653V326.001L184.983 325.549L185.911 324.351H186.833L185.541 325.969L186.871 327.991H185.978L185.043 326.531ZM190.846 327.991H188.351V327.496L189.528 326.241C189.69 326.065 189.809 325.91 189.886 325.779C189.964 325.647 190.003 325.522 190.003 325.404C190.003 325.242 189.963 325.115 189.881 325.024C189.799 324.93 189.683 324.884 189.531 324.884C189.368 324.884 189.238 324.94 189.143 325.054C189.05 325.165 189.003 325.313 189.003 325.496H188.278C188.278 325.275 188.331 325.072 188.436 324.889C188.543 324.705 188.693 324.562 188.886 324.459C189.079 324.354 189.298 324.301 189.543 324.301C189.918 324.301 190.209 324.391 190.416 324.571C190.624 324.751 190.728 325.005 190.728 325.334C190.728 325.514 190.682 325.697 190.588 325.884C190.495 326.07 190.335 326.288 190.108 326.536L189.281 327.409H190.846V327.991ZM192.716 326.659H192.118V327.991H191.368V324.351H192.721C193.151 324.351 193.483 324.447 193.716 324.639C193.949 324.83 194.066 325.101 194.066 325.451C194.066 325.7 194.012 325.907 193.903 326.074C193.797 326.239 193.634 326.37 193.416 326.469L194.203 327.956V327.991H193.398L192.716 326.659ZM192.118 326.051H192.723C192.912 326.051 193.058 326.004 193.161 325.909C193.264 325.812 193.316 325.68 193.316 325.511C193.316 325.34 193.267 325.205 193.168 325.106C193.072 325.008 192.923 324.959 192.721 324.959H192.118V326.051ZM196.526 327.036C196.526 326.895 196.476 326.786 196.376 326.711C196.276 326.635 196.096 326.555 195.836 326.471C195.576 326.386 195.37 326.303 195.218 326.221C194.805 325.998 194.598 325.697 194.598 325.319C194.598 325.122 194.653 324.947 194.763 324.794C194.875 324.639 195.034 324.518 195.241 324.431C195.449 324.345 195.683 324.301 195.941 324.301C196.201 324.301 196.433 324.349 196.636 324.444C196.839 324.537 196.997 324.67 197.108 324.841C197.222 325.013 197.278 325.208 197.278 325.426H196.528C196.528 325.26 196.476 325.13 196.371 325.039C196.266 324.945 196.118 324.899 195.928 324.899C195.745 324.899 195.603 324.938 195.501 325.016C195.399 325.093 195.348 325.195 195.348 325.321C195.348 325.44 195.408 325.539 195.526 325.619C195.646 325.699 195.822 325.774 196.053 325.844C196.48 325.972 196.791 326.131 196.986 326.321C197.181 326.511 197.278 326.748 197.278 327.031C197.278 327.346 197.159 327.594 196.921 327.774C196.683 327.952 196.362 328.041 195.958 328.041C195.678 328.041 195.423 327.99 195.193 327.889C194.963 327.785 194.788 327.645 194.666 327.466C194.546 327.288 194.486 327.081 194.486 326.846H195.238C195.238 327.248 195.478 327.449 195.958 327.449C196.137 327.449 196.276 327.413 196.376 327.341C196.476 327.268 196.526 327.166 196.526 327.036Z" fill="#A3A3A3"/>
<path d="M176.186 344.933H173.691V344.438L174.868 343.183C175.03 343.006 175.149 342.852 175.226 342.72C175.304 342.588 175.343 342.463 175.343 342.345C175.343 342.183 175.303 342.057 175.221 341.965C175.139 341.872 175.023 341.825 174.871 341.825C174.708 341.825 174.578 341.882 174.483 341.995C174.39 342.107 174.343 342.254 174.343 342.438H173.618C173.618 342.216 173.671 342.013 173.776 341.83C173.883 341.647 174.033 341.503 174.226 341.4C174.419 341.295 174.638 341.243 174.883 341.243C175.258 341.243 175.549 341.333 175.756 341.513C175.964 341.693 176.068 341.947 176.068 342.275C176.068 342.455 176.022 342.638 175.928 342.825C175.835 343.012 175.675 343.229 175.448 343.478L174.621 344.35H176.186V344.933ZM177.366 342.793H177.751C177.934 342.793 178.07 342.747 178.158 342.655C178.247 342.563 178.291 342.442 178.291 342.29C178.291 342.143 178.247 342.029 178.158 341.948C178.072 341.866 177.952 341.825 177.798 341.825C177.66 341.825 177.544 341.863 177.451 341.94C177.358 342.015 177.311 342.113 177.311 342.235H176.588C176.588 342.045 176.639 341.875 176.741 341.725C176.844 341.573 176.988 341.455 177.171 341.37C177.356 341.285 177.559 341.243 177.781 341.243C178.166 341.243 178.468 341.335 178.686 341.52C178.904 341.703 179.013 341.957 179.013 342.28C179.013 342.447 178.963 342.6 178.861 342.74C178.759 342.88 178.626 342.988 178.461 343.063C178.666 343.136 178.818 343.246 178.918 343.393C179.02 343.539 179.071 343.713 179.071 343.913C179.071 344.236 178.953 344.495 178.716 344.69C178.481 344.885 178.169 344.983 177.781 344.983C177.418 344.983 177.12 344.887 176.888 344.695C176.658 344.503 176.543 344.25 176.543 343.935H177.266C177.266 344.072 177.317 344.183 177.418 344.27C177.522 344.357 177.648 344.4 177.798 344.4C177.97 344.4 178.104 344.355 178.201 344.265C178.299 344.173 178.348 344.053 178.348 343.903C178.348 343.539 178.148 343.358 177.748 343.358H177.366V342.793ZM179.638 344.578C179.638 344.463 179.677 344.369 179.753 344.298C179.832 344.226 179.929 344.19 180.046 344.19C180.164 344.19 180.262 344.226 180.338 344.298C180.417 344.369 180.456 344.463 180.456 344.578C180.456 344.691 180.418 344.783 180.341 344.855C180.264 344.925 180.166 344.96 180.046 344.96C179.928 344.96 179.83 344.925 179.753 344.855C179.677 344.783 179.638 344.691 179.638 344.578ZM181.128 344.578C181.128 344.463 181.167 344.369 181.243 344.298C181.322 344.226 181.419 344.19 181.536 344.19C181.654 344.19 181.752 344.226 181.828 344.298C181.907 344.369 181.946 344.463 181.946 344.578C181.946 344.691 181.908 344.783 181.831 344.855C181.754 344.925 181.656 344.96 181.536 344.96C181.418 344.96 181.32 344.925 181.243 344.855C181.167 344.783 181.128 344.691 181.128 344.578ZM185.043 343.473L184.653 343.893V344.933H183.903V341.293H184.653V342.943L184.983 342.49L185.911 341.293H186.833L185.541 342.91L186.871 344.933H185.978L185.043 343.473ZM190.846 344.933H188.351V344.438L189.528 343.183C189.69 343.006 189.809 342.852 189.886 342.72C189.964 342.588 190.003 342.463 190.003 342.345C190.003 342.183 189.963 342.057 189.881 341.965C189.799 341.872 189.683 341.825 189.531 341.825C189.368 341.825 189.238 341.882 189.143 341.995C189.05 342.107 189.003 342.254 189.003 342.438H188.278C188.278 342.216 188.331 342.013 188.436 341.83C188.543 341.647 188.693 341.503 188.886 341.4C189.079 341.295 189.298 341.243 189.543 341.243C189.918 341.243 190.209 341.333 190.416 341.513C190.624 341.693 190.728 341.947 190.728 342.275C190.728 342.455 190.682 342.638 190.588 342.825C190.495 343.012 190.335 343.229 190.108 343.478L189.281 344.35H190.846V344.933ZM192.716 343.6H192.118V344.933H191.368V341.293H192.721C193.151 341.293 193.483 341.388 193.716 341.58C193.949 341.772 194.066 342.043 194.066 342.393C194.066 342.641 194.012 342.848 193.903 343.015C193.797 343.18 193.634 343.312 193.416 343.41L194.203 344.898V344.933H193.398L192.716 343.6ZM192.118 342.993H192.723C192.912 342.993 193.058 342.945 193.161 342.85C193.264 342.753 193.316 342.621 193.316 342.453C193.316 342.281 193.267 342.146 193.168 342.048C193.072 341.949 192.923 341.9 192.721 341.9H192.118V342.993Z" fill="#A3A3A3"/>
<path d="M233.209 343.978C233.209 343.836 233.159 343.728 233.059 343.653C232.959 343.576 232.779 343.496 232.519 343.413C232.259 343.328 232.053 343.244 231.901 343.163C231.488 342.939 231.281 342.638 231.281 342.26C231.281 342.063 231.336 341.888 231.446 341.735C231.558 341.58 231.717 341.459 231.924 341.373C232.132 341.286 232.365 341.243 232.624 341.243C232.884 341.243 233.115 341.29 233.319 341.385C233.522 341.478 233.679 341.611 233.791 341.783C233.904 341.954 233.961 342.149 233.961 342.368H233.211C233.211 342.201 233.159 342.072 233.054 341.98C232.949 341.887 232.801 341.84 232.611 341.84C232.428 341.84 232.285 341.879 232.184 341.958C232.082 342.034 232.031 342.136 232.031 342.263C232.031 342.381 232.09 342.48 232.209 342.56C232.329 342.64 232.504 342.715 232.736 342.785C233.163 342.913 233.474 343.073 233.669 343.263C233.864 343.453 233.961 343.689 233.961 343.973C233.961 344.288 233.842 344.535 233.604 344.715C233.365 344.893 233.044 344.983 232.641 344.983C232.361 344.983 232.106 344.932 231.876 344.83C231.646 344.727 231.47 344.586 231.349 344.408C231.229 344.229 231.169 344.023 231.169 343.788H231.921C231.921 344.189 232.161 344.39 232.641 344.39C232.819 344.39 232.959 344.354 233.059 344.283C233.159 344.209 233.209 344.108 233.209 343.978Z" fill="#A3A3A3"/>
<circle opacity="0.3" cx="207.27" cy="207.739" r="206.65" stroke="white" stroke-width="0.7"/>
</svg>
