<svg width="135" height="300" viewBox="0 0 135 300" fill="none" xmlns="http://www.w3.org/2000/svg">
<path d="M76.3902 148.052H50.6775C50.6024 148.052 50.5304 148.022 50.4773 147.969C50.4242 147.916 50.3944 147.844 50.3944 147.769C50.3898 147.731 50.394 147.692 50.4066 147.655C50.4192 147.619 50.44 147.586 50.4672 147.558C50.4945 147.531 50.5276 147.511 50.564 147.498C50.6004 147.485 50.6393 147.481 50.6775 147.486H76.3902C76.4297 147.482 76.4696 147.486 76.5073 147.498C76.545 147.511 76.5796 147.531 76.609 147.558C76.6384 147.585 76.6618 147.617 76.6778 147.653C76.6937 147.69 76.7019 147.729 76.7017 147.769C76.6946 147.846 76.6587 147.919 76.601 147.971C76.5434 148.023 76.4681 148.052 76.3902 148.052ZM79.8167 148.052H78.684C78.6089 148.052 78.5368 148.022 78.4837 147.969C78.4306 147.916 78.4008 147.844 78.4008 147.769C78.3962 147.731 78.4004 147.692 78.413 147.655C78.4257 147.619 78.4464 147.586 78.4736 147.558C78.5009 147.531 78.534 147.511 78.5704 147.498C78.6069 147.485 78.6457 147.481 78.684 147.486H79.8167C79.8549 147.481 79.8938 147.485 79.9302 147.498C79.9666 147.511 79.9997 147.531 80.027 147.558C80.0542 147.586 80.075 147.619 80.0876 147.655C80.1002 147.692 80.1044 147.731 80.0999 147.769C80.0999 147.844 80.07 147.916 80.0169 147.969C79.9638 148.022 79.8918 148.052 79.8167 148.052ZM106.124 148.052H82.1104C82.0353 148.052 81.9633 148.022 81.9102 147.969C81.8571 147.916 81.8273 147.844 81.8273 147.769C81.8227 147.731 81.8269 147.692 81.8395 147.655C81.8521 147.619 81.8728 147.586 81.9001 147.558C81.9274 147.531 81.9605 147.511 81.9969 147.498C82.0333 147.485 82.0721 147.481 82.1104 147.486H106.124C106.162 147.481 106.201 147.485 106.238 147.498C106.274 147.511 106.307 147.531 106.334 147.558C106.362 147.586 106.382 147.619 106.395 147.655C106.408 147.692 106.412 147.731 106.407 147.769C106.407 147.844 106.377 147.916 106.324 147.969C106.271 148.022 106.199 148.052 106.124 148.052Z" fill="#A2A2A2"/>
<path d="M54.6406 68.8751C54.5204 68.8751 54.4052 68.8273 54.3202 68.7424C54.2352 68.6574 54.1875 68.5421 54.1875 68.4219V41.3218C54.1875 41.2017 54.2352 41.0864 54.3202 41.0014C54.4052 40.9164 54.5204 40.8687 54.6406 40.8687C54.7608 40.8687 54.876 40.9164 54.961 41.0014C55.0459 41.0864 55.0937 41.2017 55.0937 41.3218V68.4219C55.0937 68.5421 55.0459 68.6574 54.961 68.7424C54.876 68.8273 54.7608 68.8751 54.6406 68.8751Z" fill="#A2A2A2"/>
<path d="M102.499 69.2153C102.379 69.2153 102.264 69.1676 102.179 69.0826C102.094 68.9976 102.046 68.8825 102.046 68.7623V41.6054C102.046 41.5459 102.058 41.487 102.08 41.432C102.103 41.377 102.137 41.327 102.179 41.2849C102.221 41.2428 102.271 41.2095 102.326 41.1867C102.381 41.164 102.439 41.1523 102.499 41.1523C102.558 41.1523 102.617 41.164 102.672 41.1867C102.727 41.2095 102.777 41.2428 102.819 41.2849C102.861 41.327 102.895 41.377 102.918 41.432C102.94 41.487 102.952 41.5459 102.952 41.6054V68.7623C102.952 68.8825 102.904 68.9976 102.819 69.0826C102.734 69.1676 102.619 69.2153 102.499 69.2153Z" fill="#A2A2A2"/>
<path d="M102.499 148.053C102.379 148.053 102.264 148.005 102.179 147.92C102.094 147.835 102.046 147.719 102.046 147.599V81.1373C102.046 81.0778 102.058 81.0187 102.08 80.9637C102.103 80.9088 102.137 80.8589 102.179 80.8168C102.221 80.7747 102.271 80.7414 102.326 80.7186C102.381 80.6959 102.439 80.6841 102.499 80.6841C102.558 80.6841 102.617 80.6959 102.672 80.7186C102.727 80.7414 102.777 80.7747 102.819 80.8168C102.861 80.8589 102.895 80.9088 102.918 80.9637C102.94 81.0187 102.952 81.0778 102.952 81.1373V147.599C102.952 147.719 102.904 147.835 102.819 147.92C102.734 148.005 102.619 148.053 102.499 148.053Z" fill="#A2A2A2"/>
<path d="M54.6406 148.053C54.5204 148.053 54.4052 148.005 54.3202 147.92C54.2352 147.835 54.1875 147.72 54.1875 147.599V81.1089C54.1875 80.9888 54.2352 80.8735 54.3202 80.7885C54.4052 80.7035 54.5204 80.6558 54.6406 80.6558C54.7608 80.6558 54.876 80.7035 54.961 80.7885C55.0459 80.8735 55.0937 80.9888 55.0937 81.1089V147.599C55.0937 147.72 55.0459 147.835 54.961 147.92C54.876 148.005 54.7608 148.053 54.6406 148.053Z" fill="#A2A2A2"/>
<path d="M63.7602 72.4716H93.3807V67.0345H101.112C101.295 67.0306 101.477 67.0639 101.647 67.1323C101.817 67.2007 101.972 67.3027 102.101 67.4324C102.231 67.562 102.333 67.7165 102.401 67.8866C102.47 68.0567 102.503 68.2388 102.499 68.422V81.1369C102.503 81.6549 102.404 82.1684 102.207 82.6477C102.011 83.127 101.721 83.5624 101.355 83.9286C100.988 84.2949 100.553 84.5846 100.074 84.7811C99.5944 84.9775 99.0809 85.0767 98.5629 85.073H58.6063C58.0798 85.085 57.5565 84.9881 57.0692 84.7883C56.5819 84.5885 56.1411 84.2902 55.7745 83.912C55.4017 83.5414 55.1069 83.1 54.9075 82.6137C54.7081 82.1273 54.6081 81.6059 54.6135 81.0802V68.3655C54.6135 68.0125 54.7537 67.674 55.0033 67.4244C55.2529 67.1748 55.5914 67.0345 55.9444 67.0345H63.7319L63.7602 72.4716Z" fill="#434343"/>
<path d="M55.9716 67.4877C55.8563 67.4877 55.7422 67.5103 55.6357 67.5545C55.5292 67.5986 55.4324 67.6632 55.3509 67.7447C55.2694 67.8263 55.2047 67.9231 55.1606 68.0296C55.1165 68.1361 55.0938 68.2503 55.0938 68.3656V81.137C55.0936 81.5945 55.1835 82.0474 55.3584 82.4701C55.5333 82.8928 55.7898 83.2771 56.1132 83.6006C56.7805 84.2503 57.6739 84.6157 58.6052 84.62H98.5618C99.4855 84.62 100.371 84.253 101.025 83.5998C101.678 82.9466 102.045 82.0608 102.045 81.137V68.4221C102.048 68.3021 102.027 68.1827 101.983 68.0709C101.939 67.9591 101.874 67.8571 101.79 67.7708C101.702 67.6801 101.596 67.6081 101.479 67.5595C101.362 67.5108 101.237 67.4865 101.11 67.4877H93.8327V72.4717C93.8327 72.5919 93.7849 72.707 93.7 72.792C93.615 72.877 93.4997 72.9247 93.3796 72.9247H63.759C63.6389 72.9247 63.5236 72.877 63.4387 72.792C63.3537 72.707 63.306 72.5919 63.306 72.4717V67.4877H55.9716ZM98.4485 85.5262H58.6052C58.0254 85.5338 57.4498 85.4256 56.9123 85.208C56.3748 84.9905 55.8861 84.6679 55.4747 84.2591C55.0634 83.8504 54.7377 83.3638 54.5167 82.8277C54.2956 82.2916 54.1838 81.7169 54.1876 81.137V68.3656C54.1876 68.1313 54.2337 67.8993 54.3234 67.6829C54.413 67.4664 54.5445 67.2697 54.7101 67.104C54.8758 66.9384 55.0725 66.8071 55.2889 66.7174C55.5054 66.6277 55.7373 66.5815 55.9716 66.5815H63.759C63.8792 66.5815 63.9945 66.6293 64.0794 66.7143C64.1644 66.7993 64.2121 66.9144 64.2121 67.0346V72.0469H92.9265V67.0629C92.9265 66.9427 92.9742 66.8276 93.0592 66.7426C93.1442 66.6577 93.2594 66.6099 93.3796 66.6099H101.11C101.599 66.6099 102.067 66.8038 102.412 67.149C102.757 67.4942 102.951 67.9623 102.951 68.4504V81.1652C102.954 82.331 102.496 83.4507 101.677 84.2802C101.268 84.6884 100.782 85.0112 100.247 85.23C99.7124 85.4487 99.1395 85.5591 98.5618 85.5546" fill="#A2A2A2"/>
<path d="M63.76 45.1167H93.3805L101.168 43.0212C101.552 42.9154 101.89 42.6861 102.131 42.3688C102.371 42.0514 102.501 41.6637 102.499 41.2655V36.6497C102.501 36.277 102.43 35.9075 102.289 35.5625C102.148 35.2175 101.94 34.9037 101.678 34.6391C101.415 34.3715 101.103 34.1587 100.758 34.0129C100.412 33.867 100.042 33.7911 99.6671 33.7896H57.4734C56.7224 33.7896 56.0021 34.0879 55.471 34.619C54.94 35.1501 54.6416 35.8703 54.6416 36.6213V41.2372C54.6398 41.6354 54.7691 42.0232 55.0097 42.3406C55.2503 42.6579 55.5886 42.8871 55.9726 42.9929L63.76 45.1167Z" fill="#434343"/>
<path d="M63.8157 44.6636H93.323L101.054 42.5681C101.34 42.4924 101.594 42.3231 101.773 42.0871C101.953 41.8511 102.048 41.5619 102.045 41.2654V36.6496C102.045 36.0161 101.795 35.4081 101.35 34.9575C100.905 34.5069 100.3 34.2501 99.6662 34.2426H57.4725C56.839 34.2501 56.234 34.5069 55.7887 34.9575C55.3434 35.4081 55.0938 36.0161 55.0938 36.6496V41.2654C55.1014 41.5632 55.2046 41.8506 55.3882 42.0852C55.5718 42.3198 55.826 42.4892 56.1132 42.5681L63.8157 44.6636ZM93.3796 45.5698H63.6458L55.8584 43.4741C55.3771 43.3482 54.9515 43.0655 54.6489 42.6706C54.3463 42.2757 54.184 41.7913 54.1876 41.2938V36.6496C54.1839 36.2158 54.2661 35.7857 54.4295 35.3839C54.5929 34.9821 54.8343 34.6165 55.1397 34.3085C55.4451 34.0005 55.8085 33.756 56.2089 33.5891C56.6093 33.4223 57.0387 33.3364 57.4725 33.3364H99.6662C100.098 33.3351 100.525 33.4194 100.924 33.5846C101.323 33.7499 101.684 33.9928 101.988 34.2992C102.295 34.6083 102.539 34.9752 102.704 35.3785C102.869 35.7819 102.953 36.2137 102.951 36.6496V41.2654C102.952 41.758 102.792 42.2374 102.495 42.6308C102.199 43.0243 101.782 43.3105 101.309 43.446L93.4929 45.5415" fill="#A2A2A2"/>
<path d="M99.3862 52.7622H93.6377V61.1443H99.3862V52.7622Z" fill="#434343"/>
<path d="M93.9775 60.7195H99.0464V53.0171H93.9775V60.7195ZM99.3862 61.3991H93.7226C93.6325 61.3991 93.5461 61.3633 93.4823 61.2995C93.4186 61.2358 93.3828 61.1494 93.3828 61.0593V52.5639C93.3828 52.4738 93.4186 52.3874 93.4823 52.3237C93.5461 52.2599 93.6325 52.2241 93.7226 52.2241H99.3862C99.4763 52.2241 99.5628 52.2599 99.6265 52.3237C99.6902 52.3874 99.726 52.4738 99.726 52.5639V61.0593C99.726 61.1494 99.6902 61.2358 99.6265 61.2995C99.5628 61.3633 99.4763 61.3991 99.3862 61.3991Z" fill="#A2A2A2"/>
<path d="M99.3867 66.8646C99.2966 66.8646 99.2101 66.8288 99.1464 66.765C99.0827 66.7013 99.0469 66.6149 99.0469 66.5248V61.1445C99.0469 61.0544 99.0827 60.9678 99.1464 60.9041C99.2101 60.8403 99.2966 60.8047 99.3867 60.8047C99.4768 60.8047 99.5633 60.8403 99.627 60.9041C99.6907 60.9678 99.7265 61.0544 99.7265 61.1445V66.5248C99.72 66.6127 99.6821 66.6954 99.6197 66.7578C99.5573 66.8201 99.4747 66.858 99.3867 66.8646Z" fill="#A2A2A2"/>
<path d="M63.5356 52.7622H57.7871V61.1443H63.5356V52.7622Z" fill="#434343"/>
<path d="M58.1269 60.7195H63.1958V53.0171H58.1269V60.7195ZM63.5356 61.3991H57.872C57.7819 61.3991 57.6955 61.3633 57.6317 61.2995C57.568 61.2358 57.5322 61.1494 57.5322 61.0593V52.5639C57.5322 52.4738 57.568 52.3874 57.6317 52.3237C57.6955 52.2599 57.7819 52.2241 57.872 52.2241H63.5356C63.6258 52.2241 63.7122 52.2599 63.7759 52.3237C63.8396 52.3874 63.8754 52.4738 63.8754 52.5639V61.0593C63.8754 61.1494 63.8396 61.2358 63.7759 61.2995C63.7122 61.3633 63.6258 61.3991 63.5356 61.3991Z" fill="#A2A2A2"/>
<path d="M57.789 66.8646C57.6989 66.8646 57.6125 66.8288 57.5488 66.765C57.485 66.7013 57.4492 66.6149 57.4492 66.5248V61.1445C57.4492 61.0544 57.485 60.9678 57.5488 60.9041C57.6125 60.8403 57.6989 60.8047 57.789 60.8047C57.8792 60.8047 57.9656 60.8403 58.0293 60.9041C58.093 60.9678 58.1288 61.0544 58.1288 61.1445V66.5248C58.1288 66.6149 58.093 66.7013 58.0293 66.765C57.9656 66.8288 57.8792 66.8646 57.789 66.8646Z" fill="#A2A2A2"/>
<path d="M64.2178 47.6084V70.2627C64.2177 70.518 64.2685 70.7708 64.367 71.0063C64.4655 71.2418 64.6099 71.4554 64.7917 71.6346C64.9735 71.8137 65.1892 71.955 65.4261 72.0501C65.663 72.1452 65.9164 72.1921 66.1717 72.1883H91.0915C91.3344 72.1971 91.5765 72.1536 91.8012 72.0608C92.0259 71.968 92.2281 71.828 92.3941 71.6503C92.6773 71.3671 92.9321 70.9706 92.9321 69.13V46.9288L92.7056 46.6739L92.3941 46.3057C92.2273 46.1271 92.0256 45.9849 91.8016 45.8875C91.5775 45.79 91.3358 45.7397 91.0915 45.7395H66.1434C65.6355 45.7524 65.1508 45.9542 64.7841 46.3057C64.6039 46.4831 64.4609 46.6949 64.3637 46.9283C64.2664 47.1617 64.2168 47.4122 64.2178 47.6651V47.6084ZM91.0915 73.1512H66.1717C65.7943 73.1571 65.4195 73.0874 65.0693 72.9464C64.7192 72.8054 64.4008 72.5958 64.1328 72.3299C63.8703 72.0653 63.6627 71.7516 63.5218 71.4066C63.3809 71.0616 63.3094 70.6921 63.3116 70.3194V46.504C63.315 46.4381 63.3319 46.3738 63.3613 46.3147C63.3906 46.2556 63.4318 46.2032 63.4822 46.1607C63.5327 46.1182 63.5913 46.0866 63.6545 46.0677C63.7177 46.0488 63.7841 46.0431 63.8496 46.051C63.9286 45.9341 64.024 45.8292 64.1328 45.7395C64.3951 45.4719 64.7078 45.259 65.0529 45.1131C65.3981 44.9673 65.7687 44.8914 66.1434 44.8898H91.0915C91.456 44.8856 91.8176 44.9563 92.1537 45.0976C92.4898 45.2388 92.7933 45.4478 93.0454 45.7112L93.3002 45.9943C93.3657 45.9864 93.4321 45.9922 93.4953 46.011C93.5585 46.0299 93.6172 46.0615 93.6676 46.104C93.7181 46.1465 93.7592 46.199 93.7886 46.258C93.818 46.3171 93.8349 46.3816 93.8383 46.4475V69.1018C93.8383 70.8575 93.6401 71.6787 93.0454 72.2734C92.5204 72.7794 91.8206 73.0633 91.0915 73.0662" fill="#A2A2A2"/>
<path d="M54.6445 254.329C54.5243 254.329 54.4091 254.281 54.3241 254.196C54.2391 254.112 54.1914 253.996 54.1914 253.876V226.748C54.1914 226.627 54.2391 226.512 54.3241 226.427C54.4091 226.342 54.5243 226.294 54.6445 226.294C54.7647 226.294 54.8799 226.342 54.9649 226.427C55.0498 226.512 55.0976 226.627 55.0976 226.748V253.876C55.0976 253.996 55.0498 254.112 54.9649 254.196C54.8799 254.281 54.7647 254.329 54.6445 254.329Z" fill="#A2A2A2"/>
<path d="M102.503 254.131C102.383 254.131 102.267 254.083 102.183 253.998C102.098 253.913 102.05 253.798 102.05 253.678V226.521C102.05 226.401 102.098 226.286 102.183 226.201C102.267 226.116 102.383 226.068 102.503 226.068C102.623 226.068 102.738 226.116 102.823 226.201C102.908 226.286 102.956 226.401 102.956 226.521V253.678C102.956 253.798 102.908 253.913 102.823 253.998C102.738 254.083 102.623 254.131 102.503 254.131Z" fill="#A2A2A2"/>
<path d="M102.503 214.486C102.383 214.486 102.267 214.438 102.183 214.353C102.098 214.268 102.05 214.153 102.05 214.033V147.599C102.05 147.479 102.098 147.364 102.183 147.279C102.267 147.194 102.383 147.146 102.503 147.146C102.623 147.146 102.738 147.194 102.823 147.279C102.908 147.364 102.956 147.479 102.956 147.599V214.033C102.956 214.153 102.908 214.268 102.823 214.353C102.738 214.438 102.623 214.486 102.503 214.486Z" fill="#A2A2A2"/>
<path d="M54.6445 214.514C54.5243 214.514 54.4091 214.466 54.3241 214.382C54.2391 214.297 54.1914 214.181 54.1914 214.061V147.599C54.1914 147.479 54.2391 147.364 54.3241 147.279C54.4091 147.194 54.5243 147.146 54.6445 147.146C54.7647 147.146 54.8799 147.194 54.9649 147.279C55.0498 147.364 55.0976 147.479 55.0976 147.599V214.061C55.0976 214.181 55.0498 214.297 54.9649 214.382C54.8799 214.466 54.7647 214.514 54.6445 214.514Z" fill="#A2A2A2"/>
<path d="M63.7629 222.698H93.3834V228.135H101.114C101.298 228.139 101.48 228.106 101.65 228.037C101.82 227.969 101.974 227.867 102.104 227.737C102.234 227.608 102.336 227.453 102.404 227.283C102.472 227.113 102.506 226.931 102.502 226.748V214.033C102.512 213.509 102.418 212.988 102.223 212.502C102.029 212.015 101.738 211.573 101.369 211.201C100.613 210.459 99.5968 210.042 98.5373 210.04H58.609C57.5576 210.04 56.5492 210.458 55.8057 211.201C55.0622 211.945 54.6445 212.953 54.6445 214.005V226.748C54.6445 227.101 54.7847 227.439 55.0343 227.689C55.2839 227.938 55.6225 228.079 55.9755 228.079H63.7629V222.698Z" fill="#434343"/>
<path d="M93.8366 227.795H101.114C101.239 227.804 101.364 227.785 101.482 227.741C101.599 227.697 101.705 227.629 101.794 227.54C101.882 227.452 101.951 227.345 101.995 227.228C102.039 227.111 102.057 226.986 102.049 226.861V214.146C102.049 213.222 101.682 212.336 101.029 211.683C100.375 211.03 99.4894 210.663 98.5657 210.663H58.6091C57.6778 210.667 56.7844 211.033 56.1171 211.682C55.7937 212.006 55.5373 212.39 55.3623 212.813C55.1874 213.235 55.0975 213.688 55.0977 214.146V226.917C55.0977 227.033 55.1204 227.147 55.1645 227.253C55.2086 227.36 55.2733 227.457 55.3548 227.538C55.4363 227.62 55.5331 227.684 55.6396 227.728C55.7461 227.772 55.8602 227.795 55.9755 227.795H63.3099V222.698C63.3099 222.578 63.3576 222.463 63.4426 222.378C63.5275 222.293 63.6428 222.245 63.7629 222.245H93.3835C93.5037 222.245 93.6189 222.293 93.7039 222.378C93.7888 222.463 93.8366 222.578 93.8366 222.698V227.795ZM101.114 228.701H93.3835C93.2633 228.701 93.1481 228.654 93.0631 228.569C92.9781 228.484 92.9304 228.368 92.9304 228.248V223.293H64.216V228.248C64.216 228.368 64.1683 228.484 64.0833 228.569C63.9984 228.654 63.8831 228.701 63.7629 228.701H55.9755C55.7412 228.701 55.5093 228.655 55.2928 228.566C55.0764 228.476 54.8797 228.345 54.714 228.179C54.5484 228.013 54.417 227.817 54.3273 227.6C54.2376 227.384 54.1915 227.152 54.1915 226.917V214.146C54.1877 213.566 54.2996 212.991 54.5206 212.455C54.7416 211.919 55.0673 211.433 55.4786 211.024C55.89 210.615 56.3787 210.292 56.9162 210.075C57.4537 209.857 58.0293 209.749 58.6091 209.757H98.5657C99.1434 209.752 99.7163 209.863 100.251 210.081C100.786 210.3 101.272 210.623 101.681 211.031C102.495 211.864 102.952 212.981 102.955 214.146V226.861C102.964 227.104 102.92 227.346 102.827 227.571C102.735 227.795 102.595 227.997 102.417 228.163C102.249 228.338 102.046 228.476 101.822 228.569C101.598 228.661 101.357 228.707 101.114 228.701Z" fill="#A2A2A2"/>
<path d="M63.7631 250.053H93.3836L101.171 252.177C101.555 252.273 101.896 252.496 102.137 252.809C102.379 253.123 102.507 253.509 102.502 253.904V258.52C102.502 259.271 102.204 259.992 101.673 260.523C101.141 261.054 100.421 261.352 99.6702 261.352H57.4765C56.7254 261.352 56.0052 261.054 55.4741 260.523C54.943 259.992 54.6447 259.271 54.6447 258.52V253.904C54.6393 253.509 54.7679 253.123 55.0095 252.809C55.2511 252.496 55.5915 252.273 55.9756 252.177L63.7631 250.053Z" fill="#434343"/>
<path d="M63.8195 250.45L56.1171 252.545C55.8298 252.624 55.5756 252.793 55.392 253.028C55.2084 253.263 55.1052 253.55 55.0976 253.848V258.464C55.0976 259.102 55.3512 259.714 55.8026 260.166C56.254 260.617 56.8663 260.871 57.5047 260.871H99.67C99.9818 260.871 100.29 260.808 100.577 260.687C100.864 260.565 101.124 260.387 101.341 260.163C101.566 259.941 101.744 259.676 101.866 259.384C101.987 259.093 102.05 258.78 102.049 258.464V253.848C102.047 253.552 101.95 253.266 101.771 253.031C101.592 252.796 101.342 252.625 101.058 252.545L93.3268 250.45H63.8195ZM99.67 261.777H57.5047C56.6259 261.777 55.7832 261.428 55.1619 260.806C54.5405 260.185 54.1915 259.342 54.1915 258.464V253.848C54.1879 253.35 54.3502 252.866 54.6528 252.471C54.9553 252.076 55.3809 251.793 55.8622 251.667L63.6496 249.572H93.4967L101.312 251.667C101.786 251.803 102.203 252.089 102.499 252.482C102.795 252.876 102.955 253.355 102.955 253.848V258.464C102.957 258.899 102.873 259.331 102.708 259.735C102.542 260.138 102.299 260.505 101.992 260.814C101.688 261.12 101.326 261.363 100.928 261.528C100.529 261.694 100.102 261.778 99.67 261.777Z" fill="#A2A2A2"/>
<path d="M99.3862 234.025H93.6377V242.407H99.3862V234.025Z" fill="#434343"/>
<path d="M93.9775 241.954H99.0464V234.252H93.9775V241.954ZM99.3862 242.634H93.7226C93.6325 242.634 93.5461 242.598 93.4823 242.534C93.4186 242.471 93.3828 242.384 93.3828 242.294V233.799C93.3828 233.709 93.4186 233.622 93.4823 233.559C93.5461 233.495 93.6325 233.459 93.7226 233.459H99.3862C99.4763 233.459 99.5628 233.495 99.6265 233.559C99.6902 233.622 99.726 233.709 99.726 233.799V242.294C99.726 242.384 99.6902 242.471 99.6265 242.534C99.5628 242.598 99.4763 242.634 99.3862 242.634Z" fill="#A2A2A2"/>
<path d="M99.3867 234.365C99.2966 234.365 99.2101 234.329 99.1464 234.266C99.0827 234.202 99.0469 234.116 99.0469 234.025V228.673C99.0469 228.583 99.0827 228.497 99.1464 228.433C99.2101 228.369 99.2966 228.333 99.3867 228.333C99.4768 228.333 99.5633 228.369 99.627 228.433C99.6907 228.497 99.7265 228.583 99.7265 228.673V234.025C99.7265 234.116 99.6907 234.202 99.627 234.266C99.5633 234.329 99.4768 234.365 99.3867 234.365Z" fill="#A2A2A2"/>
<path d="M63.5356 234.025H57.7871V242.407H63.5356V234.025Z" fill="#434343"/>
<path d="M58.1269 241.954H63.1958V234.252H58.1269V241.954ZM63.5356 242.634H57.872C57.7819 242.634 57.6955 242.598 57.6317 242.534C57.568 242.471 57.5322 242.384 57.5322 242.294V233.799C57.5322 233.709 57.568 233.622 57.6317 233.559C57.6955 233.495 57.7819 233.459 57.872 233.459H63.5356C63.6258 233.459 63.7122 233.495 63.7759 233.559C63.8396 233.622 63.8754 233.709 63.8754 233.799V242.294C63.8754 242.384 63.8396 242.471 63.7759 242.534C63.7122 242.598 63.6258 242.634 63.5356 242.634Z" fill="#A2A2A2"/>
<path d="M57.789 234.366C57.6989 234.366 57.6125 234.33 57.5488 234.266C57.485 234.202 57.4492 234.116 57.4492 234.026V228.674C57.4492 228.584 57.485 228.497 57.5488 228.434C57.6125 228.37 57.6989 228.334 57.789 228.334C57.8792 228.334 57.9656 228.37 58.0293 228.434C58.093 228.497 58.1288 228.584 58.1288 228.674V234.026C58.1288 234.116 58.093 234.202 58.0293 234.266C57.9656 234.33 57.8792 234.366 57.789 234.366Z" fill="#A2A2A2"/>
<path d="M64.2177 247.618C64.2177 248.129 64.4206 248.618 64.7817 248.98C65.1428 249.341 65.6326 249.544 66.1433 249.544H91.0914C91.5792 249.541 92.0467 249.348 92.394 249.006L92.7055 248.637L92.9321 248.354V226.096C92.9321 224.256 92.6772 223.859 92.394 223.576C92.2238 223.404 92.0209 223.268 91.7972 223.175C91.5734 223.083 91.3335 223.036 91.0914 223.038H66.1716C65.914 223.034 65.6582 223.082 65.4194 223.179C65.1806 223.276 64.9637 223.42 64.7815 223.602C64.5993 223.784 64.4555 224.001 64.3587 224.24C64.2618 224.479 64.2139 224.734 64.2177 224.992V247.618ZM91.0914 250.45H66.1433C65.7706 250.452 65.4012 250.381 65.0562 250.24C64.7112 250.099 64.3973 249.891 64.1327 249.629L63.8496 249.289C63.7841 249.297 63.7177 249.291 63.6545 249.272C63.5913 249.253 63.5327 249.222 63.4822 249.179C63.4318 249.137 63.3906 249.084 63.3612 249.025C63.3318 248.966 63.3149 248.901 63.3115 248.836V224.964C63.3115 224.213 63.6099 223.492 64.1409 222.961C64.672 222.43 65.3923 222.132 66.1433 222.132H91.0631C91.7922 222.135 92.4921 222.419 93.017 222.925C93.6117 223.548 93.8099 224.341 93.8099 226.096V248.751C93.807 248.816 93.7902 248.879 93.7605 248.937C93.7309 248.995 93.6891 249.046 93.638 249.086C93.587 249.126 93.5279 249.155 93.4647 249.171C93.4015 249.186 93.3357 249.188 93.2719 249.175L93.017 249.459C92.4966 249.975 91.7961 250.269 91.0631 250.28" fill="#A2A2A2"/>
<path d="M26.1576 242.747C26.1179 242.747 26.0787 242.739 26.0423 242.723C26.006 242.707 25.9734 242.684 25.9467 242.654C25.92 242.625 25.8998 242.59 25.8873 242.553C25.8749 242.515 25.8705 242.475 25.8745 242.436V156.491C25.8745 156.416 25.9043 156.344 25.9574 156.29C26.0105 156.237 26.0825 156.208 26.1576 156.208C26.2306 156.214 26.299 156.246 26.3508 156.298C26.4026 156.349 26.4344 156.418 26.4408 156.491V242.436C26.4412 242.514 26.4122 242.589 26.3598 242.646C26.3074 242.704 26.2353 242.74 26.1576 242.747Z" fill="#A2A2A2"/>
<path d="M26.1572 138.877C26.0821 138.877 26.0101 138.848 25.957 138.795C25.9039 138.741 25.874 138.669 25.874 138.594V51.2335C25.874 51.1584 25.9039 51.0863 25.957 51.0332C26.0101 50.9801 26.0821 50.9502 26.1572 50.9502C26.2302 50.9566 26.2985 50.9885 26.3503 51.0402C26.4021 51.092 26.434 51.1605 26.4404 51.2335V138.594C26.434 138.667 26.4021 138.735 26.3503 138.787C26.2985 138.839 26.2302 138.871 26.1572 138.877Z" fill="#A2A2A2"/>
<path d="M24.7119 55.5094L26.1561 45.23L27.6003 55.5094H24.7119Z" fill="#A2A2A2"/>
<path d="M27.6003 239.604L26.1561 249.912L24.7119 239.604H27.6003Z" fill="#A2A2A2"/>
<path d="M22.3896 152.81V142.36H29.9505V143.578H23.7772V146.778H29.5824V148.024H23.7772V151.592H30.2054V152.81H22.3896Z" fill="#A2A2A2"/>
<path d="M58.8339 45.3997H23.4648C23.3919 45.3933 23.3235 45.3615 23.2717 45.3097C23.2199 45.2579 23.188 45.1894 23.1816 45.1164C23.1816 45.0413 23.2115 44.9694 23.2646 44.9163C23.3177 44.8632 23.3897 44.8333 23.4648 44.8333H58.8339C58.8722 44.8288 58.911 44.833 58.9474 44.8456C58.9839 44.8582 59.0169 44.8788 59.0442 44.9061C59.0715 44.9334 59.0922 44.9665 59.1048 45.0029C59.1174 45.0393 59.1216 45.0782 59.1171 45.1164C59.1171 45.1915 59.0872 45.2636 59.0341 45.3168C58.981 45.3699 58.909 45.3997 58.8339 45.3997Z" fill="#A2A2A2"/>
<path d="M58.8339 250.223H23.4648C23.3919 250.217 23.3235 250.185 23.2717 250.133C23.2199 250.082 23.188 250.013 23.1816 249.94C23.1816 249.865 23.2115 249.793 23.2646 249.74C23.3177 249.687 23.3897 249.657 23.4648 249.657H58.8339C58.8722 249.653 58.911 249.657 58.9474 249.669C58.9839 249.682 59.0169 249.703 59.0442 249.73C59.0715 249.757 59.0922 249.79 59.1048 249.827C59.1174 249.863 59.1216 249.902 59.1171 249.94C59.1171 250.015 59.0872 250.087 59.0341 250.14C58.981 250.194 58.909 250.223 58.8339 250.223Z" fill="#A2A2A2"/>
<path d="M52.6616 34.0727H0.698225C0.623121 34.0727 0.551086 34.0429 0.49798 33.9898C0.444874 33.9367 0.415039 33.8646 0.415039 33.7895C0.421419 33.7165 0.4533 33.6482 0.505088 33.5964C0.556876 33.5446 0.625264 33.5127 0.698225 33.5064H52.6616C52.7395 33.506 52.8147 33.5348 52.8724 33.5872C52.9301 33.6397 52.966 33.7118 52.9731 33.7895C52.9733 33.8292 52.9651 33.8684 52.9492 33.9047C52.9332 33.9411 52.9098 33.9738 52.8804 34.0005C52.851 34.0272 52.8164 34.0473 52.7787 34.0598C52.741 34.0722 52.7011 34.0767 52.6616 34.0727Z" fill="#A2A2A2"/>
<path d="M52.4067 261.777H0.698225C0.625264 261.771 0.556876 261.739 0.505088 261.687C0.4533 261.635 0.421419 261.567 0.415039 261.494C0.415039 261.419 0.444874 261.347 0.49798 261.294C0.551086 261.241 0.623121 261.211 0.698225 261.211H52.4067C52.445 261.206 52.4838 261.21 52.5203 261.223C52.5567 261.236 52.5898 261.256 52.617 261.284C52.6443 261.311 52.665 261.344 52.6777 261.381C52.6903 261.417 52.6945 261.456 52.6899 261.494C52.6899 261.569 52.6601 261.641 52.607 261.694C52.5539 261.747 52.4818 261.777 52.4067 261.777Z" fill="#A2A2A2"/>
<path d="M95.506 5.58495H86.3877C86.3126 5.58495 86.2405 5.55509 86.1874 5.50198C86.1343 5.44888 86.1045 5.37677 86.1045 5.30166C86.1045 5.22656 86.1343 5.15462 86.1874 5.10152C86.2405 5.04841 86.3126 5.01855 86.3877 5.01855H95.506C95.5812 5.01855 95.6532 5.04841 95.7063 5.10152C95.7594 5.15462 95.7892 5.22656 95.7892 5.30166C95.7892 5.37677 95.7594 5.44888 95.7063 5.50198C95.6532 5.55509 95.5812 5.58495 95.506 5.58495Z" fill="#A2A2A2"/>
<path d="M71.7754 5.58495H60.4482C60.3731 5.58495 60.3011 5.55509 60.248 5.50198C60.1949 5.44888 60.165 5.37677 60.165 5.30166C60.165 5.22656 60.1949 5.15462 60.248 5.10152C60.3011 5.04841 60.3731 5.01855 60.4482 5.01855H71.7754C71.8505 5.01855 71.9225 5.04841 71.9756 5.10152C72.0287 5.15462 72.0586 5.22656 72.0586 5.30166C72.0586 5.37677 72.0287 5.44888 71.9756 5.50198C71.9225 5.55509 71.8505 5.58495 71.7754 5.58495Z" fill="#A2A2A2"/>
<path d="M65.0646 6.77368L54.7568 5.30115L65.0646 3.85693V6.77368Z" fill="#A2A2A2"/>
<path d="M92.1387 3.85693L102.446 5.30115L92.1387 6.77368V3.85693Z" fill="#A2A2A2"/>
<path d="M130.989 204.093C130.914 204.093 130.842 204.063 130.789 204.01C130.736 203.957 130.706 203.885 130.706 203.81V156.491C130.712 156.418 130.744 156.349 130.796 156.298C130.848 156.246 130.916 156.214 130.989 156.208C131.064 156.208 131.136 156.237 131.189 156.29C131.243 156.344 131.272 156.416 131.272 156.491V203.81C131.277 203.848 131.273 203.887 131.26 203.923C131.248 203.96 131.227 203.993 131.2 204.02C131.172 204.048 131.139 204.068 131.103 204.081C131.066 204.094 131.028 204.098 130.989 204.093Z" fill="#A2A2A2"/>
<path d="M130.989 138.877C130.916 138.871 130.848 138.839 130.796 138.787C130.744 138.735 130.712 138.667 130.706 138.594V90.6801C130.706 90.605 130.736 90.5329 130.789 90.4798C130.842 90.4267 130.914 90.3968 130.989 90.3968C131.028 90.3922 131.066 90.3965 131.103 90.4091C131.139 90.4217 131.172 90.4425 131.2 90.4697C131.227 90.497 131.248 90.5301 131.26 90.5665C131.273 90.603 131.277 90.6418 131.272 90.6801V138.594C131.272 138.669 131.243 138.741 131.189 138.794C131.136 138.847 131.064 138.877 130.989 138.877Z" fill="#A2A2A2"/>
<path d="M129.544 95.5504L130.988 85.2427L132.461 95.5504H129.544Z" fill="#A2A2A2"/>
<path d="M132.461 199.704L130.988 210.012L129.544 199.704H132.461Z" fill="#A2A2A2"/>
<path d="M128.155 149.015C128.087 149.794 128.309 150.57 128.778 151.196C128.945 151.422 129.163 151.606 129.414 151.734C129.664 151.862 129.941 151.93 130.223 151.932C130.498 151.938 130.771 151.876 131.018 151.753C131.265 151.629 131.478 151.448 131.638 151.224C132.08 150.619 132.291 149.875 132.233 149.128C132.295 148.319 132.086 147.512 131.638 146.834C131.466 146.609 131.242 146.428 130.986 146.305C130.731 146.182 130.45 146.121 130.166 146.127C129.89 146.124 129.616 146.184 129.366 146.302C129.116 146.419 128.896 146.592 128.722 146.806C128.3 147.462 128.102 148.237 128.155 149.015ZM132.233 152.81V151.847C132.014 152.21 131.701 152.506 131.327 152.706C130.953 152.905 130.533 153 130.109 152.98C129.513 152.99 128.928 152.812 128.439 152.47C127.916 152.133 127.502 151.65 127.249 151.082C126.954 150.434 126.808 149.727 126.824 149.015C126.819 148.316 126.954 147.623 127.221 146.976C127.433 146.393 127.831 145.895 128.354 145.56C128.856 145.223 129.448 145.045 130.053 145.051C130.461 145.04 130.866 145.13 131.231 145.313C131.597 145.496 131.912 145.765 132.148 146.098V142.332H133.422V152.81H132.233Z" fill="#A2A2A2"/>
<path d="M104.256 85.3569C104.217 85.3615 104.179 85.3573 104.142 85.3446C104.106 85.332 104.073 85.3112 104.045 85.284C104.018 85.2567 103.997 85.2236 103.985 85.1872C103.972 85.1508 103.968 85.1119 103.972 85.0736C103.972 84.9985 104.002 84.9266 104.055 84.8735C104.109 84.8204 104.181 84.7905 104.256 84.7905H133.763C133.836 84.7969 133.904 84.8288 133.956 84.8806C134.008 84.9324 134.04 85.0007 134.046 85.0736C134.046 85.1487 134.016 85.2208 133.963 85.274C133.91 85.3271 133.838 85.3569 133.763 85.3569H104.256Z" fill="#A2A2A2"/>
<path d="M134.388 210.38H104.484C104.409 210.38 104.337 210.351 104.284 210.297C104.231 210.244 104.201 210.172 104.201 210.097C104.201 210.022 104.231 209.95 104.284 209.897C104.337 209.844 104.409 209.814 104.484 209.814H134.388C134.463 209.814 134.535 209.844 134.588 209.897C134.641 209.95 134.671 210.022 134.671 210.097C134.671 210.172 134.641 210.244 134.588 210.297C134.535 210.351 134.463 210.38 134.388 210.38Z" fill="#A2A2A2"/>
<path d="M54.5877 32.6C54.5494 32.6046 54.5106 32.6004 54.4742 32.5877C54.4377 32.5751 54.4046 32.5543 54.3774 32.5271C54.3501 32.4998 54.3294 32.4667 54.3168 32.4303C54.3041 32.3939 54.3 32.355 54.3045 32.3167V3.34756C54.3045 3.27246 54.3344 3.20052 54.3875 3.14742C54.4406 3.09431 54.5126 3.06445 54.5877 3.06445C54.6628 3.06445 54.7348 3.09431 54.7879 3.14742C54.841 3.20052 54.8709 3.27246 54.8709 3.34756V32.4018C54.8754 32.4401 54.8712 32.4789 54.8586 32.5153C54.846 32.5518 54.8253 32.5849 54.798 32.6121C54.7707 32.6394 54.7377 32.66 54.7012 32.6726C54.6648 32.6852 54.626 32.6894 54.5877 32.6849" fill="#A2A2A2"/>
<path d="M102.528 32.6C102.453 32.6 102.381 32.5702 102.328 32.5171C102.275 32.464 102.245 32.3919 102.245 32.3167V2.55477C102.251 2.48181 102.283 2.41332 102.335 2.36153C102.387 2.30975 102.455 2.27786 102.528 2.27148C102.603 2.27148 102.675 2.30134 102.729 2.35445C102.782 2.40755 102.811 2.47966 102.811 2.55477V32.4018C102.816 32.4401 102.812 32.4789 102.799 32.5153C102.787 32.5518 102.766 32.5849 102.739 32.6121C102.711 32.6394 102.678 32.66 102.642 32.6726C102.605 32.6852 102.567 32.6894 102.528 32.6849" fill="#A2A2A2"/>
<path d="M88.06 299.921H83.5858L74.8922 285.677V299.921H70.4463V278.286H74.8922L83.6141 292.558V278.286H88.06V299.921Z" fill="#A2A2A2"/>
<path d="M76.9852 5.981V9.74734H79.2507C79.7942 9.78532 80.3315 9.61302 80.7515 9.26598C80.9372 9.09277 81.0838 8.8818 81.1815 8.64739C81.2791 8.41298 81.3257 8.16043 81.3179 7.9066C81.3179 6.6323 80.6099 6.00935 79.2507 6.00935L76.9852 5.981ZM76.9852 4.90491H79.0524C79.5709 4.91942 80.0794 4.75999 80.4967 4.4519C80.6714 4.29573 80.8101 4.10344 80.903 3.88827C80.9959 3.6731 81.0408 3.4402 81.0347 3.2059C81.0526 2.97287 81.0159 2.73882 80.9274 2.5225C80.8389 2.30618 80.7011 2.11357 80.525 1.95991C80.0668 1.67905 79.5316 1.55019 78.9958 1.59176H76.9852V4.90491ZM75.5977 10.8518V0.458977H78.9958C79.9023 0.38667 80.8051 0.637453 81.5444 1.16692C81.8355 1.42296 82.0635 1.74276 82.2109 2.10129C82.3582 2.45983 82.4209 2.84755 82.394 3.23425C82.3982 3.69001 82.2596 4.1357 81.9975 4.50859C81.7128 4.90465 81.3194 5.20959 80.8648 5.38644C81.4023 5.52009 81.8744 5.84151 82.1957 6.29263C82.5187 6.74693 82.6874 7.29279 82.6771 7.85008C82.696 8.26203 82.6247 8.67308 82.4682 9.0546C82.3117 9.43612 82.0737 9.77881 81.771 10.0588C81.0518 10.6351 80.1415 10.9184 79.2223 10.8518H75.5977Z" fill="#A2A2A2"/>
</svg>
