<svg width="246" height="199" viewBox="0 0 246 199" fill="none" xmlns="http://www.w3.org/2000/svg">
<path d="M176.247 56.6807C176.265 56.4067 176.337 56.139 176.459 55.8931C176.581 55.6473 176.751 55.4283 176.959 55.249C177.167 55.0697 177.409 54.9336 177.67 54.8487C177.931 54.7638 178.206 54.7319 178.48 54.7547H211.976C212.843 54.8242 213.652 55.2147 214.246 55.8498C214.84 56.4849 215.175 57.3187 215.186 58.1881V68.5719L211.865 72.2006H179.569L176.247 68.3486V56.6807Z" fill="#434343"/>
<path d="M179.764 71.7822H211.781L214.88 68.4047V58.1884C214.869 57.4298 214.578 56.7021 214.062 56.1454C213.547 55.5887 212.844 55.2426 212.088 55.1737H178.592C178.152 55.1349 177.714 55.2715 177.375 55.5538C177.035 55.8361 176.82 56.2413 176.778 56.681V68.2093L179.764 71.7822ZM212.172 72.6476H179.374L175.801 68.5164V56.681C175.817 56.3392 175.904 56.0044 176.056 55.6977C176.208 55.391 176.422 55.1191 176.684 54.899C176.946 54.6788 177.251 54.5152 177.579 54.4184C177.908 54.3215 178.253 54.2936 178.592 54.3363H212.088C213.066 54.4063 213.982 54.8411 214.654 55.5546C215.326 56.2681 215.706 57.2082 215.717 58.1884V68.7397L212.172 72.6476Z" fill="#A2A2A2"/>
<path d="M107.858 80.6026C107.784 80.6026 107.713 80.5732 107.661 80.5208C107.608 80.4685 107.579 80.3975 107.579 80.3234V50.8468C107.574 50.8091 107.579 50.7708 107.591 50.7349C107.603 50.699 107.624 50.6664 107.651 50.6395C107.678 50.6126 107.71 50.5922 107.746 50.5798C107.782 50.5673 107.82 50.5632 107.858 50.5677C107.894 50.5675 107.929 50.5747 107.961 50.5891C107.994 50.6034 108.023 50.6245 108.046 50.6508C108.07 50.6772 108.088 50.7083 108.099 50.7421C108.11 50.7759 108.113 50.8116 108.109 50.8468V80.3234C108.11 80.3929 108.084 80.4599 108.038 80.5116C107.991 80.5632 107.927 80.5956 107.858 80.6026ZM107.858 83.8126C107.82 83.8171 107.782 83.813 107.746 83.8005C107.71 83.7881 107.678 83.7677 107.651 83.7408C107.624 83.7139 107.603 83.6813 107.591 83.6454C107.579 83.6095 107.574 83.5712 107.579 83.5335V82.4728C107.579 82.3987 107.608 82.3277 107.661 82.2754C107.713 82.2231 107.784 82.1936 107.858 82.1936C107.927 82.2006 107.991 82.233 108.038 82.2846C108.084 82.3363 108.11 82.4033 108.109 82.4728V83.5335C108.113 83.5687 108.11 83.6044 108.099 83.6382C108.088 83.672 108.07 83.7031 108.046 83.7295C108.023 83.7558 107.994 83.7769 107.961 83.7912C107.929 83.8055 107.894 83.8129 107.858 83.8126ZM107.858 115.439C107.823 115.443 107.787 115.439 107.753 115.428C107.72 115.417 107.688 115.399 107.662 115.376C107.636 115.352 107.615 115.323 107.6 115.29C107.586 115.258 107.579 115.223 107.579 115.187V85.6828C107.579 85.6474 107.586 85.6122 107.6 85.5798C107.615 85.5473 107.636 85.5183 107.662 85.4945C107.688 85.4708 107.72 85.4529 107.753 85.4421C107.787 85.4312 107.823 85.4277 107.858 85.4316C107.925 85.4316 107.989 85.4581 108.036 85.5052C108.083 85.5523 108.109 85.6162 108.109 85.6828V115.187C108.109 115.254 108.083 115.318 108.036 115.365C107.989 115.412 107.925 115.439 107.858 115.439Z" fill="#A2A2A2"/>
<path d="M39.8896 56.6808C39.8722 56.4042 39.7993 56.134 39.6752 55.8862C39.5512 55.6383 39.3786 55.418 39.1676 55.2383C38.9566 55.0586 38.7117 54.9232 38.4473 54.8401C38.1829 54.757 37.9045 54.728 37.6287 54.7548H4.1325C3.26318 54.8238 2.4505 55.2133 1.85218 55.8477C1.25386 56.4822 0.912559 57.3163 0.894531 58.1881V68.5719L4.21624 72.2007H36.6517L39.9734 68.3486V56.6808H39.8896Z" fill="#434343"/>
<path d="M4.38418 71.7822H36.4289L39.4993 68.2093V56.6252C39.4433 56.1956 39.2231 55.8043 38.8848 55.5337C38.5464 55.263 38.1164 55.134 37.6849 55.1737H4.18877C3.43093 55.2365 2.72409 55.5808 2.20745 56.1388C1.6908 56.6967 1.4018 57.428 1.39742 58.1884V68.4047L4.38418 71.7822ZM36.8196 72.6476H3.9655L0.392578 68.7397V58.1884C0.404614 57.2037 0.787937 56.2599 1.46591 55.5457C2.14389 54.8315 3.06652 54.3995 4.04924 54.3363H37.5454C37.885 54.2936 38.2298 54.3215 38.5581 54.4184C38.8864 54.5152 39.1911 54.6788 39.4532 54.899C39.7153 55.1191 39.9291 55.391 40.0811 55.6977C40.2331 56.0044 40.3202 56.3392 40.3367 56.681V68.5164L36.8196 72.6476Z" fill="#A2A2A2"/>
<path d="M178.48 54.3359H38.0752V55.2013H178.48V54.3359Z" fill="#A2A2A2"/>
<path d="M176.247 68.7396H39.8899C39.7862 68.7396 39.6868 68.6984 39.6135 68.6251C39.5402 68.5519 39.499 68.4525 39.499 68.3488C39.4989 68.2987 39.5091 68.2491 39.5291 68.2032C39.5491 68.1572 39.5783 68.1159 39.615 68.0818C39.6518 68.0477 39.6951 68.0216 39.7424 68.0051C39.7897 67.9886 39.8399 67.9821 39.8899 67.9859H176.247C176.343 67.9859 176.436 68.0242 176.504 68.0922C176.572 68.1603 176.61 68.2526 176.61 68.3488C176.614 68.3988 176.607 68.449 176.591 68.4963C176.574 68.5436 176.548 68.5869 176.514 68.6237C176.48 68.6604 176.439 68.6896 176.393 68.7096C176.347 68.7295 176.297 68.7398 176.247 68.7396Z" fill="#A2A2A2"/>
<path d="M179.571 71.8379H36.5703V72.5916H179.571V71.8379Z" fill="#A2A2A2"/>
<path d="M177.447 109.297C177.465 109.575 177.538 109.846 177.661 110.095C177.785 110.345 177.957 110.567 178.168 110.749C178.378 110.931 178.623 111.069 178.887 111.155C179.152 111.241 179.431 111.274 179.708 111.251H212.172C213.038 111.182 213.848 110.791 214.441 110.156C215.035 109.521 215.371 108.687 215.382 107.818V97.434L212.06 93.7773H180.685L177.447 97.6294V109.297Z" fill="#434343"/>
<path d="M177.813 97.8252V109.326C177.83 109.545 177.891 109.758 177.993 109.953C178.094 110.148 178.233 110.321 178.402 110.462C178.571 110.602 178.767 110.707 178.977 110.771C179.188 110.835 179.409 110.856 179.627 110.833H212.091C212.841 110.765 213.541 110.422 214.056 109.872C214.57 109.321 214.865 108.6 214.882 107.846V97.6019L211.784 94.2244H180.883L177.813 97.8252ZM212.091 111.782H179.627C179.286 111.82 178.941 111.789 178.612 111.689C178.284 111.588 177.98 111.422 177.718 111.2C177.457 110.977 177.243 110.704 177.092 110.396C176.94 110.088 176.853 109.752 176.836 109.409V97.574L180.381 93.4707H212.063L215.608 97.3786V107.93C215.596 108.91 215.217 109.85 214.545 110.564C213.873 111.277 212.957 111.712 211.979 111.782" fill="#A2A2A2"/>
<path d="M38.7463 109.297C38.7286 109.572 38.6567 109.841 38.5347 110.089C38.4128 110.336 38.2432 110.557 38.0357 110.738C37.8282 110.92 37.587 111.058 37.3257 111.146C37.0644 111.235 36.7883 111.27 36.5133 111.251H4.04992C3.18329 111.182 2.3738 110.791 1.78003 110.156C1.18627 109.521 0.850973 108.687 0.839844 107.818V97.434L4.13366 93.7773H35.4246L38.7463 97.6294V109.297Z" fill="#434343"/>
<path d="M1.25789 97.5738V107.818C1.27535 108.572 1.56946 109.293 2.08423 109.843C2.599 110.394 3.29844 110.736 4.04924 110.805H36.5126C36.7312 110.828 36.9523 110.807 37.1627 110.743C37.3731 110.679 37.5686 110.574 37.7377 110.434C37.9068 110.293 38.046 110.12 38.1472 109.925C38.2484 109.73 38.3095 109.517 38.327 109.297V97.825L35.2285 94.2242H4.38418L1.25789 97.5738ZM36.5126 111.531H4.04924C3.06652 111.467 2.14389 111.035 1.46591 110.321C0.787937 109.607 0.404614 108.663 0.392578 107.678V97.2668L3.9655 93.3589H35.6194L39.1643 97.4622V109.297C39.1502 109.629 39.0699 109.954 38.9281 110.254C38.7863 110.554 38.586 110.822 38.3388 111.043C38.0917 111.264 37.8027 111.434 37.4891 111.541C37.1754 111.649 36.8435 111.693 36.5126 111.67" fill="#A2A2A2"/>
<path d="M179.624 110.777H36.958V111.643H179.624V110.777Z" fill="#A2A2A2"/>
<path d="M177.364 97.2393H38.7461V97.9929H177.364V97.2393Z" fill="#A2A2A2"/>
<path d="M180.687 93.3872H35.4258V94.1409H180.687V93.3872Z" fill="#A2A2A2"/>
<path d="M18.7893 90.4282H34.3092C37.5192 90.2328 38.5521 87.8881 37.91 84.8455L36.0119 76.0527L33.5556 76.611C33.5556 76.611 34.9791 84.371 35.2582 85.5992C35.5374 86.8274 34.9791 87.8601 34.03 87.8601H5.44667C4.52553 87.8601 3.93934 86.8274 4.21847 85.5992C4.49761 84.371 5.92115 76.611 5.92115 76.611L3.4648 76.0527C3.4648 76.0527 1.84582 83.5336 1.5946 84.8455C0.924678 87.9718 1.95747 90.4282 5.16752 90.4282H18.7893Z" fill="#434343"/>
<path d="M3.7151 76.3602L1.90074 84.7342C1.69211 85.4012 1.629 86.1051 1.71568 86.7985C1.80236 87.492 2.03678 88.1587 2.40317 88.7538C2.74492 89.1604 3.17246 89.4865 3.65505 89.7084C4.13764 89.9304 4.66338 90.0429 5.19456 90.0378H34.3083C34.8398 90.0449 35.3661 89.9333 35.849 89.7112C36.3319 89.489 36.7592 89.162 37.0996 88.7538C37.466 88.1587 37.7005 87.492 37.7872 86.7985C37.8738 86.1051 37.8107 85.4012 37.6021 84.7342C37.3787 83.5898 36.0947 77.7 35.7877 76.3602L33.9454 76.7789C34.2245 78.2025 35.3411 84.3714 35.5923 85.4321C35.6965 85.7855 35.718 86.1581 35.6551 86.5212C35.5921 86.8842 35.4465 87.2279 35.2294 87.5256C35.0881 87.7023 34.91 87.8463 34.7076 87.9475C34.5052 88.0487 34.2833 88.1047 34.0571 88.1118H5.47371C5.24276 88.1088 5.01527 88.0547 4.80773 87.9533C4.60019 87.852 4.41774 87.7059 4.27341 87.5256C4.06868 87.222 3.93051 86.8785 3.86797 86.5176C3.80543 86.1568 3.81992 85.7869 3.91052 85.4321C4.16174 84.3714 5.30622 78.2025 5.55744 76.7789L3.7151 76.3602ZM5.16662 90.7636C4.54189 90.7694 3.92391 90.6344 3.35852 90.3686C2.79312 90.1028 2.29485 89.7131 1.90074 89.2283C1.47702 88.5589 1.2006 87.807 1.08991 87.0225C0.979216 86.238 1.03679 85.4389 1.25875 84.6784L3.15684 75.8857V75.5786L6.22734 76.2765V76.5835C6.22734 76.8905 4.80371 84.3714 4.52457 85.5716C4.44924 85.8332 4.4302 86.1077 4.46869 86.3772C4.50718 86.6466 4.60237 86.9048 4.74793 87.1348C4.83298 87.2379 4.93946 87.3213 5.05996 87.3791C5.18047 87.437 5.31211 87.4679 5.44577 87.4698H34.0012C34.1312 87.4698 34.2595 87.4395 34.3757 87.3814C34.492 87.3232 34.5932 87.2388 34.6712 87.1348C34.8214 86.9069 34.9215 86.6497 34.9648 86.3802C35.0081 86.1107 34.9937 85.8351 34.9224 85.5716C34.6153 84.3714 33.2476 76.8905 33.1918 76.5835V76.2765L36.2901 75.5786V75.8857L38.1882 84.6784C38.4102 85.4389 38.4677 86.238 38.357 87.0225C38.2464 87.807 37.97 88.5589 37.5463 89.2283C37.1551 89.7094 36.6613 90.0969 36.1011 90.3625C35.5408 90.6282 34.9283 90.7652 34.3083 90.7636H5.16662Z" fill="#A2A2A2"/>
<path d="M195.455 90.4282H210.947C214.157 90.2328 215.189 87.8881 214.519 84.8455C214.24 83.5336 212.063 76.0527 212.063 76.0527L209.607 76.611C209.607 76.611 211.589 84.371 211.868 85.5992C212.147 86.8274 211.589 87.8601 210.64 87.8601H182.112C181.163 87.8601 180.605 86.8274 180.884 85.5992C181.163 84.371 182.586 76.611 182.586 76.611L180.13 76.0527L178.232 84.8455C177.59 87.9718 178.623 90.4282 181.833 90.4282H195.455Z" fill="#434343"/>
<path d="M180.378 76.3602C180.071 77.7838 178.787 83.6735 178.564 84.7342C178.355 85.4012 178.292 86.1051 178.379 86.7985C178.465 87.492 178.7 88.1587 179.066 88.7538C179.405 89.1635 179.832 89.4916 180.316 89.7139C180.799 89.9362 181.326 90.0469 181.858 90.0378H210.943C211.475 90.0449 212.001 89.9333 212.484 89.7112C212.967 89.489 213.394 89.162 213.735 88.7538C214.101 88.1587 214.336 87.492 214.422 86.7985C214.509 86.1051 214.446 85.4012 214.237 84.7342C213.986 83.6177 212.283 77.6442 211.865 76.3602L210.022 76.8068C210.413 78.2862 211.976 84.3714 212.227 85.46C212.318 85.8148 212.333 86.1848 212.27 86.5456C212.207 86.9064 212.069 87.2499 211.865 87.5535C211.72 87.7338 211.538 87.8799 211.33 87.9813C211.123 88.0826 210.895 88.1367 210.664 88.1397H182.109C181.882 88.1365 181.659 88.0822 181.456 87.9807C181.253 87.8792 181.075 87.7332 180.936 87.5535C180.719 87.2558 180.574 86.9121 180.511 86.5491C180.448 86.186 180.469 85.8134 180.574 85.46C180.825 84.3993 181.941 78.2304 182.22 76.8068L180.378 76.3602ZM195.451 90.7636H181.83C181.205 90.7694 180.587 90.6344 180.022 90.3686C179.456 90.1028 178.958 89.7131 178.564 89.2283C178.14 88.5589 177.864 87.807 177.753 87.0225C177.642 86.238 177.7 85.4389 177.922 84.6784L179.82 75.8857V75.5786L182.89 76.2765V76.5835C182.89 76.8905 181.467 84.3714 181.188 85.5996C181.117 85.8585 181.103 86.1296 181.146 86.3945C181.189 86.6594 181.289 86.9119 181.439 87.1348C181.518 87.2372 181.62 87.3205 181.736 87.3785C181.852 87.4365 181.979 87.4677 182.109 87.4698H210.664C210.798 87.4679 210.93 87.437 211.05 87.3791C211.171 87.3213 211.277 87.2379 211.362 87.1348C211.507 86.9098 211.602 86.6563 211.64 86.3914C211.679 86.1266 211.66 85.8565 211.585 85.5996C211.306 84.3714 209.352 76.6952 209.324 76.6114V76.2765L212.395 75.5786V75.8577C212.395 76.1648 214.6 83.3944 214.879 84.6784C215.101 85.4389 215.159 86.238 215.048 87.0225C214.937 87.807 214.661 88.5589 214.237 89.2283C213.84 89.71 213.342 90.0976 212.777 90.3631C212.212 90.6286 211.595 90.7654 210.971 90.7636H195.451Z" fill="#A2A2A2"/>
<path d="M19.7392 69.9121C22.3506 69.9121 24.9032 70.6865 27.0744 72.1372C29.2457 73.588 30.938 75.65 31.9373 78.0626C32.9366 80.4751 33.198 83.1298 32.6886 85.691C32.1791 88.2521 30.9217 90.6047 29.0752 92.4512C27.2287 94.2976 24.8762 95.5551 22.3151 96.0646C19.7539 96.574 17.0992 96.3125 14.6866 95.3132C12.2741 94.3139 10.212 92.6216 8.76125 90.4504C7.31048 88.2792 6.53613 85.7265 6.53613 83.1152C6.53613 79.6135 7.92723 76.2553 10.4033 73.7792C12.8793 71.3031 16.2376 69.9121 19.7392 69.9121Z" fill="#D3D3D3"/>
<path d="M19.7386 70.3029C17.2089 70.3029 14.736 71.0534 12.633 72.4594C10.53 73.8654 8.89147 75.8637 7.92467 78.2014C6.95788 80.539 6.70641 83.111 7.20196 85.5917C7.69752 88.0723 8.91789 90.3503 10.7086 92.1371C12.4993 93.9239 14.7799 95.1393 17.2616 95.6294C19.7434 96.1195 22.3148 95.8624 24.6503 94.8905C26.9859 93.9186 28.9805 92.2756 30.3819 90.1696C31.7833 88.0635 32.5284 85.5891 32.5229 83.0594C32.5155 79.6736 31.1654 76.429 28.7686 74.0375C26.3719 71.646 23.1244 70.3029 19.7386 70.3029ZM19.7386 96.7091C17.0389 96.7091 14.3999 95.9085 12.1552 94.4087C9.91054 92.9088 8.16105 90.777 7.12794 88.2829C6.09482 85.7887 5.82446 83.0442 6.35113 80.3964C6.87781 77.7487 8.17781 75.3165 10.0868 73.4076C11.9957 71.4986 14.4279 70.1986 17.0757 69.672C19.7235 69.1453 22.4679 69.4156 24.962 70.4487C27.4562 71.4818 29.588 73.2313 31.0879 75.476C32.5877 77.7207 33.3883 80.3597 33.3883 83.0594C33.3883 84.8519 33.0352 86.6268 32.3492 88.2829C31.6632 89.9389 30.6579 91.4437 29.3904 92.7112C28.1229 93.9787 26.6181 94.9841 24.962 95.67C23.306 96.356 21.5311 96.7091 19.7386 96.7091Z" fill="#A2A2A2"/>
<path d="M8.73854 75.6343H3.46289V76.2763H8.73854V75.6343Z" fill="#A2A2A2"/>
<path d="M212.089 75.6343H207.372V76.2763H212.089V75.6343Z" fill="#A2A2A2"/>
<path d="M185.43 75.6343H30.9014V76.2763H185.43V75.6343Z" fill="#A2A2A2"/>
<path d="M181.831 90.0933H34.3086V90.7353H181.831V90.0933Z" fill="#A2A2A2"/>
<path d="M196.374 69.9121C198.985 69.9121 201.538 70.6865 203.709 72.1372C205.88 73.588 207.573 75.65 208.572 78.0626C209.571 80.4751 209.833 83.1298 209.323 85.691C208.814 88.2521 207.556 90.6047 205.71 92.4512C203.863 94.2976 201.511 95.5551 198.95 96.0646C196.389 96.574 193.734 96.3125 191.321 95.3132C188.909 94.3139 186.847 92.6216 185.396 90.4504C183.945 88.2792 183.171 85.7265 183.171 83.1152C183.171 79.6135 184.562 76.2553 187.038 73.7792C189.514 71.3031 192.872 69.9121 196.374 69.9121Z" fill="#D3D3D3"/>
<path d="M196.373 70.3029C193.844 70.3029 191.371 71.0534 189.268 72.4594C187.165 73.8654 185.526 75.8637 184.559 78.2014C183.593 80.539 183.341 83.111 183.837 85.5917C184.332 88.0723 185.553 90.3503 187.343 92.1371C189.134 93.9239 191.415 95.1393 193.896 95.6294C196.378 96.1195 198.95 95.8624 201.285 94.8905C203.621 93.9186 205.615 92.2756 207.017 90.1696C208.418 88.0635 209.163 85.5891 209.158 83.0594C209.15 79.6736 207.8 76.429 205.403 74.0375C203.007 71.646 199.759 70.3029 196.373 70.3029ZM196.373 96.7091C193.674 96.7091 191.035 95.9085 188.79 94.4087C186.545 92.9088 184.796 90.777 183.763 88.2829C182.73 85.7887 182.459 83.0442 182.986 80.3964C183.513 77.7487 184.813 75.3165 186.722 73.4076C188.63 71.4986 191.063 70.1986 193.71 69.672C196.358 69.1453 199.103 69.4156 201.597 70.4487C204.091 71.4818 206.223 73.2313 207.723 75.476C209.223 77.7207 210.023 80.3597 210.023 83.0594C210.023 84.8519 209.67 86.6268 208.984 88.2829C208.298 89.9389 207.293 91.4437 206.025 92.7112C204.758 93.9787 203.253 94.9841 201.597 95.67C199.941 96.356 198.166 96.7091 196.373 96.7091Z" fill="#A2A2A2"/>
<path d="M208.572 159.766H115.424C115.387 159.77 115.348 159.766 115.313 159.754C115.277 159.741 115.244 159.721 115.217 159.694C115.19 159.667 115.17 159.634 115.157 159.599C115.145 159.563 115.141 159.524 115.145 159.487C115.145 159.451 115.152 159.416 115.167 159.384C115.181 159.351 115.202 159.322 115.228 159.298C115.255 159.275 115.286 159.257 115.32 159.246C115.354 159.235 115.389 159.231 115.424 159.235H208.572C208.607 159.231 208.643 159.235 208.676 159.246C208.71 159.257 208.741 159.275 208.768 159.298C208.794 159.322 208.815 159.351 208.829 159.384C208.844 159.416 208.851 159.451 208.851 159.487C208.855 159.524 208.851 159.563 208.839 159.599C208.826 159.634 208.806 159.667 208.779 159.694C208.752 159.721 208.72 159.741 208.684 159.754C208.648 159.766 208.609 159.77 208.572 159.766Z" fill="#A2A2A2"/>
<path d="M101.079 159.766H6.67544C6.6377 159.77 6.59942 159.766 6.56351 159.754C6.5276 159.741 6.49497 159.721 6.4681 159.694C6.44123 159.667 6.42082 159.634 6.40838 159.599C6.39594 159.563 6.3918 159.524 6.39629 159.487C6.39607 159.451 6.40334 159.416 6.41767 159.384C6.432 159.351 6.45306 159.322 6.47943 159.298C6.5058 159.275 6.53688 159.257 6.57066 159.246C6.60444 159.235 6.64018 159.231 6.67544 159.235H101.079C101.148 159.235 101.215 159.261 101.267 159.307C101.319 159.354 101.351 159.418 101.358 159.487C101.358 159.561 101.329 159.632 101.276 159.684C101.224 159.736 101.153 159.766 101.079 159.766Z" fill="#A2A2A2"/>
<path d="M105.714 163.673H107.835C108.343 163.69 108.851 163.633 109.342 163.506C109.675 163.409 109.98 163.237 110.236 163.003C110.575 162.649 110.824 162.218 110.961 161.747C111.142 161.131 111.227 160.491 111.213 159.849C111.26 159.028 111.087 158.208 110.71 157.476C110.434 156.98 110.003 156.588 109.482 156.36C108.939 156.201 108.372 156.135 107.807 156.164H105.714V163.673ZM104.43 164.846V154.992H107.807C108.397 154.98 108.986 155.027 109.566 155.132C110.103 155.246 110.603 155.496 111.017 155.857C111.542 156.309 111.945 156.885 112.19 157.532C112.45 158.286 112.573 159.08 112.553 159.877C112.561 160.546 112.476 161.213 112.301 161.859C112.169 162.371 111.942 162.854 111.631 163.282C111.385 163.627 111.083 163.929 110.738 164.176C110.379 164.41 109.983 164.58 109.566 164.678C109.044 164.795 108.51 164.851 107.975 164.846H104.43Z" fill="#A2A2A2"/>
<path d="M0.813331 162.501C0.741413 162.495 0.673991 162.463 0.622943 162.412C0.571895 162.361 0.540468 162.294 0.53418 162.222V111.782C0.53418 111.708 0.56361 111.637 0.615957 111.585C0.668305 111.532 0.7393 111.503 0.813331 111.503C0.887362 111.503 0.958357 111.532 1.01071 111.585C1.06305 111.637 1.09248 111.708 1.09248 111.782V162.222C1.08619 162.294 1.05473 162.361 1.00368 162.412C0.952629 162.463 0.88525 162.495 0.813331 162.501Z" fill="#A2A2A2"/>
<path d="M215.076 162.501C215.004 162.495 214.937 162.463 214.886 162.412C214.835 162.361 214.803 162.294 214.797 162.222V112.871C214.797 112.834 214.804 112.798 214.818 112.764C214.832 112.73 214.853 112.699 214.879 112.674C214.905 112.648 214.935 112.627 214.969 112.613C215.003 112.599 215.039 112.592 215.076 112.592C215.113 112.592 215.149 112.599 215.183 112.613C215.217 112.627 215.247 112.648 215.273 112.674C215.299 112.699 215.32 112.73 215.334 112.764C215.348 112.798 215.355 112.834 215.355 112.871V162.222C215.349 162.294 215.317 162.361 215.266 162.412C215.215 162.463 215.148 162.495 215.076 162.501Z" fill="#A2A2A2"/>
<path d="M169.858 28.3766H114.031C113.959 28.3703 113.892 28.3388 113.841 28.2878C113.79 28.2367 113.758 28.1693 113.752 28.0974C113.759 28.0283 113.791 27.9643 113.843 27.9178C113.895 27.8714 113.962 27.8458 114.031 27.8462H169.858C169.927 27.8458 169.995 27.8714 170.046 27.9178C170.098 27.9643 170.13 28.0283 170.137 28.0974C170.131 28.1693 170.099 28.2367 170.048 28.2878C169.997 28.3388 169.93 28.3703 169.858 28.3766Z" fill="#A2A2A2"/>
<path d="M101.747 28.3765H45.7528C45.6809 28.3702 45.6134 28.3388 45.5624 28.2877C45.5113 28.2367 45.4799 28.1692 45.4736 28.0973C45.4806 28.0282 45.513 27.9642 45.5646 27.9178C45.6162 27.8713 45.6833 27.8458 45.7528 27.8461H101.747C101.782 27.8333 101.819 27.8283 101.856 27.8315C101.893 27.8348 101.929 27.8461 101.961 27.8648C101.993 27.8835 102.02 27.909 102.041 27.9395C102.062 27.9701 102.076 28.0049 102.082 28.0415C102.082 28.1109 102.057 28.178 102.01 28.2296C101.964 28.2813 101.9 28.3137 101.831 28.3206" fill="#A2A2A2"/>
<path d="M106.018 29.0188C105.966 29.7547 106.174 30.4856 106.605 31.0844C106.768 31.2914 106.975 31.4592 107.212 31.5751C107.449 31.6911 107.709 31.7523 107.972 31.7543C108.229 31.7535 108.483 31.6955 108.715 31.5844C108.946 31.4734 109.151 31.3121 109.312 31.1123C109.723 30.5367 109.92 29.8359 109.87 29.1305C109.93 28.3718 109.733 27.6151 109.312 26.9811C109.15 26.7637 108.94 26.5872 108.697 26.466C108.455 26.3448 108.188 26.2822 107.916 26.2833C107.656 26.2833 107.4 26.3438 107.168 26.4601C106.935 26.5764 106.733 26.7452 106.577 26.9532C106.156 27.5557 105.958 28.2863 106.018 29.0188ZM109.843 32.5917V31.6706C109.64 32.011 109.348 32.2896 108.999 32.4765C108.65 32.6634 108.256 32.7515 107.861 32.7313C107.307 32.7408 106.763 32.5854 106.298 32.2847C105.813 31.9573 105.427 31.5036 105.181 30.9728C104.918 30.3552 104.785 29.6901 104.79 29.0188C104.776 28.3585 104.899 27.7026 105.153 27.0928C105.358 26.5463 105.729 26.0777 106.214 25.7529C106.684 25.437 107.239 25.2715 107.805 25.2784C108.203 25.2815 108.595 25.3771 108.949 25.5575C109.277 25.7371 109.562 25.9845 109.787 26.2833V22.7383H110.987V32.5917H109.843Z" fill="#A2A2A2"/>
<path d="M39.8909 53.499C39.8242 53.499 39.7604 53.4725 39.7133 53.4254C39.6661 53.3783 39.6397 53.3144 39.6397 53.2478V25.5018C39.6393 25.4323 39.6648 25.3653 39.7113 25.3137C39.7577 25.2621 39.8218 25.2296 39.8909 25.2227C39.9275 25.2227 39.9638 25.2299 39.9977 25.2439C40.0316 25.2579 40.0623 25.2785 40.0882 25.3044C40.1142 25.3303 40.1347 25.3611 40.1487 25.395C40.1627 25.4289 40.17 25.4651 40.17 25.5018V53.164C40.1702 53.1995 40.1629 53.2346 40.1485 53.2671C40.1342 53.2995 40.1132 53.3286 40.0869 53.3523C40.0605 53.3761 40.0293 53.394 39.9956 53.4048C39.9618 53.4156 39.9261 53.4192 39.8909 53.4153" fill="#A2A2A2"/>
<path d="M176.362 53.499C176.327 53.503 176.291 53.4994 176.257 53.4885C176.224 53.4777 176.193 53.4598 176.166 53.4361C176.14 53.4123 176.119 53.3833 176.104 53.3508C176.09 53.3184 176.083 53.2833 176.083 53.2478V25.5018C176.083 25.4278 176.112 25.3568 176.165 25.3044C176.217 25.2521 176.288 25.2227 176.362 25.2227C176.431 25.2296 176.495 25.2621 176.542 25.3137C176.588 25.3653 176.614 25.4323 176.613 25.5018V53.164C176.613 53.2307 176.587 53.2946 176.54 53.3417C176.493 53.3888 176.429 53.4152 176.362 53.4152" fill="#A2A2A2"/>
<path d="M208.463 6.74383H116.599C116.525 6.74383 116.454 6.71442 116.402 6.66207C116.35 6.60972 116.32 6.53871 116.32 6.46468C116.32 6.39065 116.35 6.31965 116.402 6.2673C116.454 6.21496 116.525 6.18555 116.599 6.18555H208.463C208.537 6.18555 208.608 6.21496 208.66 6.2673C208.712 6.31965 208.742 6.39065 208.742 6.46468C208.742 6.53871 208.712 6.60972 208.66 6.66207C208.608 6.71442 208.537 6.74383 208.463 6.74383Z" fill="#A2A2A2"/>
<path d="M100.1 6.74383H7.17564C7.1016 6.74383 7.03061 6.71442 6.97826 6.66207C6.92591 6.60972 6.89648 6.53871 6.89648 6.46468C6.89648 6.39065 6.92591 6.31965 6.97826 6.2673C7.03061 6.21496 7.1016 6.18555 7.17564 6.18555H100.1C100.174 6.18555 100.245 6.21496 100.297 6.2673C100.349 6.31965 100.379 6.39065 100.379 6.46468C100.379 6.53871 100.349 6.60972 100.297 6.66207C100.245 6.71442 100.174 6.74383 100.1 6.74383Z" fill="#A2A2A2"/>
<path d="M104.009 6.46476C103.956 7.19205 104.164 7.91438 104.595 8.50246C104.752 8.70888 104.955 8.87656 105.187 8.99268C105.419 9.10879 105.675 9.17025 105.935 9.17237C106.196 9.17574 106.455 9.11972 106.692 9.00852C106.929 8.89732 107.138 8.73384 107.302 8.53038C107.705 7.95208 107.893 7.25083 107.833 6.54852C107.901 5.78905 107.704 5.0294 107.274 4.39917C107.11 4.18498 106.899 4.01145 106.657 3.89202C106.415 3.7726 106.149 3.71047 105.879 3.71047C105.609 3.71047 105.343 3.7726 105.101 3.89202C104.859 4.01145 104.647 4.18498 104.483 4.39917C104.076 5.01758 103.889 5.75507 103.953 6.49268L104.009 6.46476ZM107.777 10.0377V9.14448C107.568 9.48497 107.271 9.76302 106.917 9.9496C106.564 10.1362 106.166 10.2244 105.767 10.2052C105.21 10.2064 104.666 10.0412 104.204 9.73066C103.72 9.40219 103.334 8.94883 103.087 8.41872C102.822 7.81178 102.689 7.15517 102.697 6.49268C102.696 5.82456 102.819 5.1621 103.06 4.53875C103.269 4.0025 103.64 3.54425 104.12 3.22681C104.59 2.91092 105.145 2.74542 105.711 2.75229C106.12 2.73894 106.525 2.83532 106.884 3.03142C107.201 3.2018 107.478 3.44005 107.693 3.72926V0.128418H108.893V9.98187L107.777 10.0377Z" fill="#A2A2A2"/>
<path d="M113.778 12.8566H112.885V7.07853C112.621 7.31568 112.33 7.52174 112.019 7.69262C111.718 7.87864 111.4 8.03744 111.07 8.16715V7.30184C111.546 7.0767 111.988 6.78539 112.382 6.43653C112.719 6.1615 112.995 5.81925 113.192 5.43164H113.778V12.8566Z" fill="#A2A2A2"/>
<path d="M1.31427 53.4986C1.24483 53.499 1.17775 53.4734 1.12613 53.427C1.07452 53.3805 1.0421 53.3165 1.03516 53.2474V3.86849C1.03516 3.79446 1.06454 3.72346 1.11689 3.67112C1.16924 3.61877 1.24023 3.58936 1.31427 3.58936C1.34974 3.58914 1.38489 3.59645 1.41734 3.61078C1.44979 3.62512 1.47883 3.64615 1.50257 3.67252C1.5263 3.69889 1.54419 3.73 1.55504 3.76378C1.56589 3.79756 1.56946 3.83323 1.56552 3.86849V53.1637C1.56552 53.2303 1.53903 53.2942 1.49192 53.3413C1.44481 53.3884 1.38089 53.4149 1.31427 53.4149" fill="#A2A2A2"/>
<path d="M214.964 53.4985C214.928 53.5024 214.893 53.4988 214.859 53.488C214.825 53.4771 214.794 53.4592 214.768 53.4355C214.741 53.4118 214.72 53.3827 214.706 53.3503C214.691 53.3178 214.684 53.2827 214.684 53.2472V3.86829C214.68 3.83055 214.684 3.79231 214.696 3.7564C214.709 3.72049 214.729 3.68786 214.756 3.66099C214.783 3.63412 214.816 3.6137 214.852 3.60125C214.887 3.58881 214.926 3.58467 214.964 3.58916C214.999 3.58894 215.034 3.59625 215.067 3.61058C215.099 3.62492 215.128 3.64595 215.152 3.67232C215.176 3.69869 215.193 3.7298 215.204 3.76358C215.215 3.79735 215.219 3.83303 215.215 3.86829V53.1635C215.215 53.2301 215.188 53.294 215.141 53.3411C215.094 53.3882 215.03 53.4147 214.964 53.4147" fill="#A2A2A2"/>
<path d="M241.932 76.4159C241.857 76.4159 241.786 76.3865 241.734 76.3341C241.682 76.2818 241.652 76.2108 241.652 76.1368V60.8402C241.652 60.8047 241.659 60.7696 241.674 60.7371C241.688 60.7047 241.709 60.6756 241.735 60.6519C241.762 60.6282 241.793 60.6103 241.827 60.5994C241.861 60.5886 241.896 60.585 241.932 60.589C241.998 60.589 242.062 60.6154 242.109 60.6625C242.156 60.7097 242.183 60.7735 242.183 60.8402V76.1368C242.183 76.2062 242.158 76.2733 242.111 76.3249C242.065 76.3765 242.001 76.409 241.932 76.4159Z" fill="#A2A2A2"/>
<path d="M241.932 104.469C241.896 104.473 241.861 104.469 241.827 104.458C241.793 104.448 241.762 104.43 241.735 104.406C241.709 104.382 241.688 104.353 241.674 104.321C241.659 104.288 241.652 104.253 241.652 104.218V90.1214C241.652 90.0859 241.659 90.0508 241.674 90.0184C241.688 89.9859 241.709 89.9569 241.735 89.9331C241.762 89.9094 241.793 89.8915 241.827 89.8807C241.861 89.8698 241.896 89.8663 241.932 89.8702C241.998 89.8702 242.062 89.8967 242.109 89.9438C242.156 89.9909 242.183 90.0548 242.183 90.1214V104.218C242.183 104.284 242.156 104.348 242.109 104.395C242.062 104.442 241.998 104.469 241.932 104.469Z" fill="#A2A2A2"/>
<path d="M244.75 111.615H216.194C216.159 111.615 216.124 111.608 216.091 111.593C216.059 111.579 216.03 111.558 216.006 111.532C215.982 111.505 215.964 111.474 215.953 111.441C215.943 111.407 215.939 111.371 215.943 111.336C215.943 111.269 215.969 111.205 216.016 111.158C216.064 111.111 216.128 111.085 216.194 111.085H244.75C244.785 111.081 244.821 111.084 244.854 111.095C244.888 111.106 244.919 111.124 244.946 111.147C244.972 111.171 244.993 111.2 245.007 111.233C245.022 111.265 245.029 111.3 245.029 111.336C245.033 111.374 245.029 111.412 245.017 111.448C245.004 111.484 244.984 111.516 244.957 111.543C244.93 111.57 244.897 111.59 244.862 111.603C244.826 111.615 244.787 111.619 244.75 111.615Z" fill="#A2A2A2"/>
<path d="M244.44 55.955H216.304C216.237 55.955 216.173 55.9285 216.126 55.8814C216.079 55.8343 216.052 55.7704 216.052 55.7038C216.048 55.6685 216.052 55.6328 216.063 55.599C216.074 55.5652 216.092 55.5341 216.115 55.5078C216.139 55.4814 216.168 55.4604 216.201 55.446C216.233 55.4317 216.268 55.4244 216.304 55.4246H244.44C244.478 55.4201 244.516 55.4243 244.552 55.4367C244.588 55.4491 244.621 55.4696 244.648 55.4964C244.675 55.5233 244.695 55.5559 244.707 55.5919C244.72 55.6278 244.724 55.666 244.72 55.7038C244.72 55.7392 244.712 55.7743 244.698 55.8068C244.684 55.8393 244.663 55.8683 244.636 55.892C244.61 55.9158 244.579 55.9337 244.545 55.9445C244.511 55.9553 244.476 55.9589 244.44 55.955Z" fill="#A2A2A2"/>
<path d="M240.559 65.2782H243.266L241.898 55.6201L240.559 65.2782Z" fill="#A2A2A2"/>
<path d="M0.894531 159.486L10.5247 160.826V158.119L0.894531 159.486Z" fill="#A2A2A2"/>
<path d="M1.39551 6.46493L11.0257 7.80477L10.914 5.09717L1.39551 6.46493Z" fill="#A2A2A2"/>
<path d="M39.9736 28.0977L49.6317 29.4376V26.73L39.9736 28.0977Z" fill="#A2A2A2"/>
<path d="M166.701 29.4376L176.359 28.0977L166.701 26.73V29.4376Z" fill="#A2A2A2"/>
<path d="M205.306 7.80477L214.964 6.46493L205.306 5.09717V7.80477Z" fill="#A2A2A2"/>
<path d="M205.416 160.826L215.074 159.486L205.416 158.119V160.826Z" fill="#A2A2A2"/>
<path d="M240.559 101.789L241.898 111.419L243.266 101.789H240.559Z" fill="#A2A2A2"/>
<path d="M237.767 88.6137V78.7603H239.079V82.8077H244.187V78.7603H245.499V88.6137H244.187V83.9522H239.079V88.6137H237.767Z" fill="#A2A2A2"/>
<path d="M171.053 138.133H116.649C116.577 138.126 116.51 138.095 116.459 138.044C116.408 137.993 116.376 137.925 116.37 137.853C116.377 137.784 116.409 137.72 116.461 137.674C116.513 137.627 116.58 137.602 116.649 137.602H171.053C171.088 137.598 171.124 137.602 171.157 137.613C171.191 137.623 171.222 137.641 171.249 137.665C171.275 137.689 171.296 137.718 171.31 137.75C171.325 137.783 171.332 137.818 171.332 137.853C171.332 137.927 171.302 137.998 171.25 138.051C171.198 138.103 171.127 138.133 171.053 138.133Z" fill="#A2A2A2"/>
<path d="M98.8729 138.132H44.302C44.2329 138.125 44.1689 138.093 44.1224 138.041C44.076 137.99 44.0504 137.923 44.0508 137.853C44.0508 137.787 44.0773 137.723 44.1244 137.676C44.1715 137.629 44.2354 137.602 44.302 137.602H98.8729C98.9395 137.602 99.0034 137.629 99.0505 137.676C99.0976 137.723 99.1241 137.787 99.1241 137.853C99.1244 137.923 99.0989 137.99 99.0524 138.041C99.006 138.093 98.942 138.125 98.8729 138.132Z" fill="#A2A2A2"/>
<path d="M102.891 142.068H104.872C105.391 142.079 105.908 142.013 106.408 141.873C106.744 141.787 107.052 141.613 107.301 141.371C107.64 141.016 107.89 140.585 108.027 140.114C108.209 139.499 108.294 138.858 108.278 138.216C108.325 137.395 108.152 136.575 107.775 135.844C107.499 135.347 107.068 134.955 106.547 134.727C105.992 134.581 105.418 134.515 104.844 134.532H102.779L102.891 142.068ZM101.606 143.213V133.359H104.872C105.463 133.343 106.054 133.399 106.631 133.527C107.158 133.632 107.649 133.873 108.055 134.225C108.585 134.671 108.989 135.248 109.227 135.899C109.508 136.648 109.641 137.445 109.618 138.244C109.628 138.913 109.543 139.581 109.366 140.226C109.217 140.741 108.991 141.23 108.697 141.678C108.461 142.032 108.157 142.336 107.802 142.571C107.448 142.806 107.049 142.967 106.631 143.045C106.109 143.162 105.575 143.218 105.04 143.213H101.606Z" fill="#A2A2A2"/>
<path d="M114.307 146.06H113.414V140.282C113.145 140.512 112.855 140.718 112.549 140.896C112.247 141.082 111.929 141.241 111.6 141.37V140.505C112.076 140.28 112.517 139.989 112.912 139.64C113.241 139.357 113.515 139.016 113.721 138.635H114.307V146.06Z" fill="#A2A2A2"/>
<path d="M38.4655 140.84C38.4277 140.845 38.3895 140.841 38.3536 140.828C38.3177 140.816 38.2851 140.795 38.2582 140.768C38.2314 140.741 38.2109 140.709 38.1984 140.673C38.186 140.637 38.1818 140.599 38.1863 140.561V114.322C38.1818 114.285 38.186 114.246 38.1984 114.21C38.2109 114.175 38.2314 114.142 38.2582 114.115C38.2851 114.088 38.3177 114.068 38.3536 114.055C38.3895 114.043 38.4277 114.039 38.4655 114.043C38.501 114.043 38.5361 114.05 38.5686 114.065C38.601 114.079 38.6301 114.1 38.6538 114.126C38.6776 114.153 38.6954 114.184 38.7062 114.218C38.7171 114.251 38.7206 114.287 38.7167 114.322V140.561C38.7206 140.596 38.7171 140.632 38.7062 140.666C38.6954 140.7 38.6776 140.731 38.6538 140.757C38.6301 140.783 38.601 140.804 38.5686 140.819C38.5361 140.833 38.501 140.84 38.4655 140.84Z" fill="#A2A2A2"/>
<path d="M177.448 140.84C177.374 140.84 177.303 140.811 177.251 140.759C177.198 140.706 177.169 140.635 177.169 140.561V114.323C177.169 114.249 177.198 114.178 177.251 114.125C177.303 114.073 177.374 114.043 177.448 114.043C177.484 114.043 177.519 114.051 177.551 114.065C177.584 114.079 177.613 114.1 177.636 114.127C177.66 114.153 177.678 114.184 177.689 114.218C177.7 114.252 177.703 114.287 177.699 114.323V140.561C177.703 140.597 177.7 140.632 177.689 140.666C177.678 140.7 177.66 140.731 177.636 140.757C177.613 140.784 177.584 140.805 177.551 140.819C177.519 140.833 177.484 140.841 177.448 140.84Z" fill="#A2A2A2"/>
<path d="M38.5225 137.854L48.1805 139.193V136.486L38.5225 137.854Z" fill="#A2A2A2"/>
<path d="M167.901 139.193L177.559 137.854L167.901 136.486V139.193Z" fill="#A2A2A2"/>
<path d="M87.3525 176.144L87.6892 173.178H90.9604V174.144H88.6393L88.495 175.399C88.7702 175.252 89.0629 175.178 89.3729 175.178C89.9288 175.178 90.3644 175.351 90.6797 175.695C90.9951 176.04 91.1528 176.523 91.1528 177.143C91.1528 177.519 91.0726 177.857 90.9123 178.157C90.7546 178.453 90.5274 178.685 90.2308 178.85C89.9341 179.013 89.584 179.095 89.1805 179.095C88.8277 179.095 88.5003 179.024 88.1983 178.882C87.8963 178.738 87.6571 178.536 87.4807 178.277C87.307 178.018 87.2148 177.722 87.2041 177.391H88.3506C88.3747 177.634 88.4589 177.824 88.6032 177.96C88.7502 178.094 88.9413 178.161 89.1765 178.161C89.4384 178.161 89.6401 178.067 89.7818 177.88C89.9234 177.69 89.9942 177.423 89.9942 177.078C89.9942 176.747 89.9127 176.493 89.7497 176.317C89.5867 176.14 89.3555 176.052 89.0562 176.052C88.7809 176.052 88.5578 176.124 88.3867 176.269L88.2745 176.373L87.3525 176.144ZM92.0026 178.445C92.0026 178.261 92.0641 178.111 92.1871 177.996C92.3127 177.881 92.469 177.824 92.6561 177.824C92.8458 177.824 93.0022 177.881 93.1251 177.996C93.2507 178.111 93.3135 178.261 93.3135 178.445C93.3135 178.627 93.2521 178.775 93.1291 178.89C93.0062 179.003 92.8485 179.059 92.6561 179.059C92.4663 179.059 92.31 179.003 92.1871 178.89C92.0641 178.775 92.0026 178.627 92.0026 178.445ZM94.3919 178.445C94.3919 178.261 94.4534 178.111 94.5763 177.996C94.7019 177.881 94.8582 177.824 95.0453 177.824C95.2351 177.824 95.3914 177.881 95.5143 177.996C95.64 178.111 95.7028 178.261 95.7028 178.445C95.7028 178.627 95.6413 178.775 95.5184 178.89C95.3954 179.003 95.2377 179.059 95.0453 179.059C94.8556 179.059 94.6992 179.003 94.5763 178.89C94.4534 178.775 94.3919 178.627 94.3919 178.445ZM96.7811 178.445C96.7811 178.261 96.8426 178.111 96.9655 177.996C97.0911 177.881 97.2475 177.824 97.4346 177.824C97.6243 177.824 97.7806 177.881 97.9036 177.996C98.0292 178.111 98.092 178.261 98.092 178.445C98.092 178.627 98.0305 178.775 97.9076 178.89C97.7847 179.003 97.627 179.059 97.4346 179.059C97.2448 179.059 97.0885 179.003 96.9655 178.89C96.8426 178.775 96.7811 178.627 96.7811 178.445ZM99.1704 178.445C99.1704 178.261 99.2318 178.111 99.3548 177.996C99.4804 177.881 99.6367 177.824 99.8238 177.824C100.014 177.824 100.17 177.881 100.293 177.996C100.418 178.111 100.481 178.261 100.481 178.445C100.481 178.627 100.42 178.775 100.297 178.89C100.174 179.003 100.016 179.059 99.8238 179.059C99.634 179.059 99.4777 179.003 99.3548 178.89C99.2318 178.775 99.1704 178.627 99.1704 178.445Z" fill="#A2A2A2"/>
</svg>
