<svg width="656" height="303" viewBox="0 0 656 303" fill="none" xmlns="http://www.w3.org/2000/svg">
<path d="M264.363 139.262L264.083 142.446C263.441 149.007 260.423 155.105 255.599 159.589C250.741 164.558 244.285 167.644 237.374 168.3L235.489 168.51L235.279 165.536C235.279 163.962 234.86 162.632 234.581 162.632C234.302 162.632 234.057 163.997 233.952 165.676C233.848 167.355 233.638 168.72 233.254 168.685L230.496 168.265C225.779 167.591 221.287 165.811 217.386 163.069C213.485 160.327 210.285 156.702 208.046 152.487C206.093 148.574 204.908 144.322 204.555 139.962C204.764 139.332 206.126 139.262 213.528 139.262C220.93 139.262 222.152 139.262 222.152 138.527C222.152 137.793 220.86 137.828 213.283 137.828H204.415V136.813C204.935 132.563 206.113 128.42 207.906 124.533C210.976 119.075 215.561 114.627 221.104 111.729C225.817 109.419 232.416 107.88 233.883 108.79C234.511 109.21 234.895 109.21 235.349 108.79C236.431 107.915 243.17 109.489 247.674 111.694C256.751 116.032 264.083 126.772 264.083 135.659V137.793H235.279V126.282C235.279 117.291 235.279 114.842 234.721 114.982C234.162 115.122 234.057 117.956 233.952 126.492V137.793H231.159C228.96 137.793 228.366 137.793 228.366 138.492C228.366 139.192 228.96 139.227 231.159 139.227H233.952V147.729C233.952 153.991 234.232 156.23 234.721 156.44C235.209 156.65 235.279 154.656 235.279 147.903V139.227L264.363 139.262Z" fill="#D3D3D3"/>
<path d="M265.9 227.566C264.05 227.356 263.212 227.566 263.561 228.16C264.133 228.436 264.759 228.58 265.394 228.58C266.029 228.58 266.655 228.436 267.227 228.16C267.227 227.915 266.808 227.636 265.9 227.566Z" fill="#A2A2A2"/>
<path d="M241.527 227.565C240.27 227.565 239.502 227.775 239.711 228.055C239.921 228.335 240.828 228.51 241.841 228.51C242.853 228.51 243.656 228.335 243.656 228.055C243.656 227.775 242.679 227.565 241.527 227.565Z" fill="#A2A2A2"/>
<path d="M195.72 227.566H193.591C192.823 227.566 192.299 227.566 192.299 228.09C192.299 228.615 195.79 228.93 196.279 228.09C196.768 227.251 196.279 227.601 195.72 227.566Z" fill="#A2A2A2"/>
<path d="M245.646 228.124C245.646 228.544 245.995 228.649 247.461 228.544C248.928 228.439 249.451 228.229 249.416 227.984C249.381 227.74 245.925 227.495 245.646 227.984" fill="#A2A2A2"/>
<path d="M255.318 227.565C254.41 227.285 251.617 227.565 251.617 228.16C251.617 228.755 255.109 228.72 255.528 228.16C255.574 228.113 255.606 228.054 255.621 227.99C255.635 227.926 255.631 227.859 255.61 227.797C255.588 227.734 255.549 227.68 255.497 227.639C255.446 227.598 255.384 227.572 255.318 227.565Z" fill="#A2A2A2"/>
<path d="M260.065 227.565H258.32C258.199 227.585 258.086 227.639 257.994 227.719C257.901 227.799 257.833 227.903 257.796 228.02C257.796 228.37 258.355 228.545 259.542 228.545C260.729 228.545 261.462 228.37 261.462 228.09C261.462 227.81 260.833 227.6 260.065 227.6" fill="#A2A2A2"/>
<path d="M223.824 227.565C222.532 227.565 221.764 227.775 221.939 228.055C222.113 228.335 222.951 228.51 223.824 228.51C224.697 228.51 225.535 228.335 225.674 228.055C225.814 227.775 225.116 227.565 223.824 227.565Z" fill="#A2A2A2"/>
<path d="M204.204 227.565C203.296 227.985 204.588 228.58 206.264 228.58C207.939 228.58 208.079 228.405 207.94 228.02C207.8 227.635 205.077 227.146 204.204 227.565Z" fill="#A2A2A2"/>
<path d="M211.641 227.566C210.733 227.566 210.175 227.915 210.314 228.16C210.886 228.436 211.513 228.58 212.147 228.58C212.782 228.58 213.408 228.436 213.98 228.16C214.329 227.566 213.491 227.356 211.641 227.566Z" fill="#A2A2A2"/>
<path d="M199.943 227.565C198.686 227.565 197.953 227.775 198.127 228.055C198.302 228.335 199.244 228.51 200.292 228.51C201.339 228.51 202.107 228.335 202.107 228.055C202.107 227.775 201.13 227.565 199.943 227.565Z" fill="#A2A2A2"/>
<path d="M272.325 227.565C269.636 227.565 269.322 227.81 269.601 228.265C269.881 228.72 273.372 228.65 273.093 227.985C272.813 227.32 272.604 227.565 272.185 227.565" fill="#A2A2A2"/>
<path d="M229.724 227.565C228.642 227.565 227.944 227.915 228.083 228.16C229.21 228.575 230.448 228.575 231.575 228.16C232.168 227.495 231.575 227.216 229.619 227.425" fill="#A2A2A2"/>
<path d="M218.169 227.565C217.121 227.565 216.283 227.81 216.283 228.055C216.283 228.3 217.121 228.51 218.169 228.51C219.216 228.51 220.019 228.335 220.019 228.055C220.019 227.775 219.181 227.565 218.169 227.565Z" fill="#A2A2A2"/>
<path d="M234.786 205.945C234.507 205.945 234.332 206.19 234.332 206.854C234.332 207.519 234.576 208.044 234.786 208.044C234.995 208.044 235.275 207.624 235.275 207.169C235.291 206.941 235.256 206.713 235.171 206.5C235.087 206.288 234.955 206.098 234.786 205.945Z" fill="#A2A2A2"/>
<path d="M244.95 79.8217C242.785 79.8217 243.029 80.5914 245.299 80.8713C246.94 81.0462 247.568 80.8712 247.184 80.2415C246.488 79.9094 245.718 79.7647 244.95 79.8217Z" fill="#A2A2A2"/>
<path d="M239.118 79.3672C237.861 79.3672 237.128 79.5421 237.303 79.822C237.477 80.1019 238.42 80.2768 239.433 80.2768C240.445 80.2768 241.283 80.1019 241.283 79.822C241.283 79.5421 240.271 79.3672 239.118 79.3672Z" fill="#A2A2A2"/>
<path d="M220.649 81.0467C221.238 80.8691 221.849 80.7749 222.464 80.7668C223.093 80.7668 223.581 80.5569 223.581 80.277C223.581 79.9972 221.312 79.6474 220.09 80.1022C219.671 80.1022 219.497 80.557 219.636 80.8718C219.765 80.993 219.925 81.0741 220.099 81.1051C220.273 81.1362 220.452 81.1159 220.614 81.0467" fill="#A2A2A2"/>
<path d="M227.561 80.2768C228.713 80.2768 229.656 80.1019 229.656 79.822C229.656 79.5421 228.713 79.3672 227.561 79.3672C226.409 79.3672 225.466 79.5771 225.466 79.822C225.466 80.0669 226.409 80.2768 227.561 80.2768Z" fill="#A2A2A2"/>
<path d="M240.163 200.102C239.011 200.102 238.068 200.346 238.068 200.556C238.068 200.766 239.011 201.046 240.163 201.046C241.315 201.046 242.258 200.836 242.258 200.556C242.258 200.277 241.35 200.102 240.163 200.102Z" fill="#A2A2A2"/>
<path d="M244.145 200.136C244.145 200.696 246.519 200.661 247.392 200.136C248.264 199.612 247.985 199.577 247.776 199.437C247.566 199.297 244.284 199.682 244.284 200.171" fill="#A2A2A2"/>
<path d="M223.721 200.521C224.14 200.521 224.524 200.521 224.524 200.136C224.524 199.751 223.302 199.157 221.591 199.157C219.287 199.157 221.103 200.346 223.721 200.521Z" fill="#A2A2A2"/>
<path d="M289.22 227.565C287.02 227.565 287.02 227.565 287.334 228.16C287.649 228.755 291.14 228.545 291 227.915C290.472 227.577 289.836 227.452 289.22 227.565Z" fill="#A2A2A2"/>
<path d="M235.277 159.623C235.277 158.889 234.998 158.469 234.579 158.469C234.16 158.469 233.601 159.903 234.195 160.463C234.788 161.023 235.277 160.743 235.277 159.623Z" fill="#A2A2A2"/>
<path d="M284.789 227.566C284.125 227.146 280.983 227.846 281.297 228.3C281.612 228.755 285.208 228.86 285.208 228.3C285.206 228.148 285.162 227.999 285.082 227.87C285.003 227.741 284.889 227.635 284.754 227.566" fill="#A2A2A2"/>
<path d="M228.258 201.047C229.27 201.047 230.143 200.837 230.143 200.557C230.143 200.278 229.619 200.103 228.991 200.103C228.364 200.093 227.742 199.999 227.14 199.823C226.617 199.823 226.407 199.823 226.407 200.278C226.407 200.732 226.861 201.047 228.258 201.047Z" fill="#A2A2A2"/>
<path d="M278.572 227.566H276.826C276.093 227.566 275.43 227.811 275.43 228.056C275.43 228.3 276.268 228.51 277.35 228.51C278.432 228.51 279.166 228.335 279.061 227.986C279.034 227.869 278.973 227.764 278.886 227.683C278.799 227.602 278.69 227.549 278.572 227.531" fill="#A2A2A2"/>
<path d="M247.639 49.4192C248.826 49.4192 249.734 49.2093 249.734 48.9294C249.734 48.6496 248.826 48.4746 247.639 48.4746C246.452 48.4746 245.544 48.7195 245.544 48.9294C245.544 49.1393 246.487 49.4192 247.639 49.4192Z" fill="#A2A2A2"/>
<path d="M271.449 49.4192C272.636 49.4192 273.579 49.2093 273.579 48.9294C273.579 48.6496 272.636 48.4746 271.449 48.4746C270.262 48.4746 269.354 48.7195 269.354 48.9294C269.354 49.1393 270.297 49.4192 271.449 49.4192Z" fill="#A2A2A2"/>
<path d="M277.315 49.4192C278.328 49.4192 279.166 49.2093 279.166 48.9294C279.166 48.6496 278.328 48.4746 277.315 48.4746C276.303 48.4746 275.43 48.7195 275.43 48.9294C275.43 49.1393 276.268 49.4192 277.315 49.4192Z" fill="#A2A2A2"/>
<path d="M253.712 49.4192C254.899 49.4192 255.807 49.2093 255.807 48.9294C255.807 48.6496 254.899 48.4746 253.712 48.4746C252.525 48.4746 251.617 48.7195 251.617 48.9294C251.617 49.1393 252.56 49.4192 253.712 49.4192Z" fill="#A2A2A2"/>
<path d="M283.391 49.4192C284.404 49.4192 285.242 49.2093 285.242 48.9294C285.242 48.6496 284.404 48.4746 283.391 48.4746C282.379 48.4746 281.506 48.7195 281.506 48.9294C281.506 49.1393 282.344 49.4192 283.391 49.4192Z" fill="#A2A2A2"/>
<path d="M259.543 49.4192C260.59 49.4192 261.428 49.2093 261.428 48.9294C261.428 48.6496 260.59 48.4746 259.543 48.4746C258.495 48.4746 257.692 48.7195 257.692 48.9294C257.692 49.1393 258.53 49.4192 259.543 49.4192Z" fill="#A2A2A2"/>
<path d="M265.409 49.4192C266.561 49.4192 267.504 49.2093 267.504 48.9294C267.504 48.6496 266.561 48.4746 265.409 48.4746C264.257 48.4746 263.279 48.7195 263.279 48.9294C263.279 49.1393 264.222 49.4192 265.409 49.4192Z" fill="#A2A2A2"/>
<path d="M219.912 302.854H218.271V297.116H212.022V302.854H210.381V290.399H212.022V295.752H218.271V290.399H219.912V302.854Z" fill="#A2A2A2"/>
<path d="M188.139 227.565C187.057 227.565 186.359 227.915 186.498 228.16C187.625 228.575 188.863 228.575 189.99 228.16C190.618 227.495 189.99 227.215 188.034 227.425" fill="#A2A2A2"/>
<path d="M70.6905 160.428C70.7508 158.868 71.033 157.325 71.5284 155.845C71.9964 154.38 72.2894 152.866 72.4013 151.332C72.4013 151.087 71.8077 150.947 71.284 150.947C70.7603 150.947 70.4112 150.597 70.481 138.457V125.932H71.5633C72.2965 125.932 72.6108 125.548 72.4013 125.023C72.1918 124.498 70.2715 117.116 70.2715 116.766C72.7523 116.496 75.2491 116.403 77.7431 116.486C80.2442 116.694 82.762 116.529 85.2148 115.997C78.8399 115.389 72.4218 115.389 66.0469 115.997C66.0469 116.276 66.815 116.486 67.6878 116.486C69.6081 116.486 69.6431 116.486 68.3862 121.209C67.1293 125.932 67.234 125.827 68.3862 125.827C69.5383 125.827 69.3288 126.142 69.3288 138.457C69.3288 150.772 69.3289 151.087 68.3862 151.087C68.1653 151.066 67.9449 151.131 67.7698 151.268C67.5947 151.404 67.478 151.602 67.4435 151.822C67.6635 153.195 67.9785 154.551 68.3862 155.88C69.7129 160.638 69.6431 160.918 67.653 160.918C66.6754 160.918 66.1167 161.128 66.2913 161.408C72.6546 162.014 79.061 162.014 85.4243 161.408C85.6337 161.058 83.085 160.918 78.2319 160.918C75.6663 161.009 73.0976 160.892 70.5508 160.568" fill="#A2A2A2"/>
<path d="M289.22 49.4192C290.372 49.4192 291.315 49.2093 291.315 48.9294C291.315 48.6496 290.372 48.4746 289.22 48.4746C288.068 48.4746 287.125 48.7195 287.125 48.9294C287.125 49.1393 288.033 49.4192 289.22 49.4192Z" fill="#A2A2A2"/>
<path d="M241.802 49.4192C242.815 49.4192 243.653 49.2093 243.653 48.9294C243.653 48.6496 242.815 48.4746 241.802 48.4746C240.79 48.4746 239.917 48.7195 239.917 48.9294C239.917 49.1393 240.79 49.4192 241.802 49.4192Z" fill="#A2A2A2"/>
<path d="M200.223 49.4192C201.27 49.4192 202.108 49.2093 202.108 48.9294C202.108 48.6496 201.27 48.4746 200.223 48.4746C199.175 48.4746 198.372 48.7195 198.372 48.9294C198.372 49.1393 199.21 49.4192 200.223 49.4192Z" fill="#A2A2A2"/>
<path d="M188.317 49.4192C189.504 49.4192 190.446 49.2093 190.446 48.9294C190.446 48.6496 189.504 48.4746 188.317 48.4746C187.129 48.4746 186.222 48.7195 186.222 48.9294C186.222 49.1393 187.164 49.4192 188.317 49.4192Z" fill="#A2A2A2"/>
<path d="M182.24 227.565C180.948 227.565 180.215 227.775 180.39 228.055C180.564 228.335 181.367 228.51 182.24 228.51C183.113 228.51 183.986 228.335 184.126 228.055C184.265 227.775 183.567 227.565 182.24 227.565Z" fill="#A2A2A2"/>
<path d="M182.241 49.4192C183.428 49.4192 184.371 49.2093 184.371 48.9294C184.371 48.6496 183.428 48.4746 182.241 48.4746C181.054 48.4746 180.146 48.7195 180.146 48.9294C180.146 49.1393 181.089 49.4192 182.241 49.4192Z" fill="#A2A2A2"/>
<path d="M206.089 49.4192C207.241 49.4192 208.184 49.2093 208.184 48.9294C208.184 48.6496 207.241 48.4746 206.089 48.4746C204.937 48.4746 203.959 48.7195 203.959 48.9294C203.959 49.1393 204.902 49.4192 206.089 49.4192Z" fill="#A2A2A2"/>
<path d="M194.184 49.4192C195.197 49.4192 196.035 49.2093 196.035 48.9294C196.035 48.6496 195.197 48.4746 194.184 48.4746C193.172 48.4746 192.299 48.7195 192.299 48.9294C192.299 49.1393 193.137 49.4192 194.184 49.4192Z" fill="#A2A2A2"/>
<path d="M229.901 49.4192C231.054 49.4192 231.996 49.2093 231.996 48.9294C231.996 48.6496 231.054 48.4746 229.901 48.4746C228.749 48.4746 227.807 48.7195 227.807 48.9294C227.807 49.1393 228.714 49.4192 229.901 49.4192Z" fill="#A2A2A2"/>
<path d="M234.786 65.7922C235.065 65.7922 235.275 65.3724 235.275 64.8826C235.289 64.6601 235.252 64.4374 235.167 64.2313C235.082 64.0253 234.952 63.8412 234.786 63.6931C234.507 63.4832 234.332 63.903 234.332 64.5677C234.332 65.2324 234.576 65.7922 234.786 65.7922Z" fill="#A2A2A2"/>
<path d="M223.824 49.4192C224.977 49.4192 225.919 49.2093 225.919 48.9294C225.919 48.6496 224.977 48.4746 223.824 48.4746C222.672 48.4746 221.729 48.7195 221.729 48.9294C221.729 49.1393 222.672 49.4192 223.824 49.4192Z" fill="#A2A2A2"/>
<path d="M212.164 49.4192C213.316 49.4192 214.259 49.2093 214.259 48.9294C214.259 48.6496 213.316 48.4746 212.164 48.4746C211.012 48.4746 210.034 48.7195 210.034 48.9294C210.034 49.1393 210.977 49.4192 212.164 49.4192Z" fill="#A2A2A2"/>
<path d="M218.167 49.4192C219.179 49.4192 220.017 49.2093 220.017 48.9294C220.017 48.6496 219.179 48.4746 218.167 48.4746C217.154 48.4746 216.281 48.7195 216.281 48.9294C216.281 49.1393 217.119 49.4192 218.167 49.4192Z" fill="#A2A2A2"/>
<path d="M104.768 160.778C103.616 160.778 102.639 161.023 102.639 161.268C102.639 161.513 103.477 161.722 104.454 161.722C105.432 161.722 106.444 161.548 106.584 161.268C106.724 160.988 106.025 160.778 104.768 160.778Z" fill="#A2A2A2"/>
<path d="M92.4776 116.346C93.6298 116.346 94.6074 116.136 94.6074 115.856C94.6074 115.576 93.7694 115.401 92.7918 115.401C92.0411 115.333 91.2871 115.491 90.6272 115.856C90.4526 116.136 91.2207 116.346 92.4776 116.346Z" fill="#A2A2A2"/>
<path d="M92.4776 160.778C91.2207 160.778 90.4526 160.988 90.6272 161.268C90.8017 161.548 91.7793 161.722 92.7918 161.722C93.8043 161.722 94.6074 161.548 94.6074 161.268C94.6074 160.988 93.6298 160.778 92.4776 160.778Z" fill="#A2A2A2"/>
<path d="M98.6574 116.346C99.8095 116.346 100.752 116.136 100.752 115.856C100.752 115.576 99.8095 115.401 98.6574 115.401C97.5052 115.401 96.5625 115.611 96.5625 115.856C96.5625 116.101 97.5052 116.346 98.6574 116.346Z" fill="#A2A2A2"/>
<path d="M225.149 138.108C224.941 138.094 224.733 138.144 224.552 138.25C224.372 138.356 224.227 138.513 224.137 138.702C224.137 139.017 224.346 139.262 225.149 139.262C225.952 139.262 226.336 139.017 226.232 138.702C226.12 138.516 225.961 138.363 225.771 138.258C225.581 138.154 225.366 138.102 225.149 138.108Z" fill="#A2A2A2"/>
<path d="M98.6589 160.778C97.3322 160.778 96.5989 160.988 96.7735 161.268C96.9481 161.548 97.7861 161.722 98.6589 161.722C99.5318 161.722 100.37 161.548 100.509 161.268C100.649 160.988 99.9507 160.778 98.6589 160.778Z" fill="#A2A2A2"/>
<path d="M319.699 137.967C319.21 137.967 318.861 137.967 318.861 138.562C318.861 139.157 320.258 139.402 320.398 138.562C320.398 138.317 320.118 138.037 319.699 137.967Z" fill="#A2A2A2"/>
<path d="M335.482 242.679H318.025L317.815 186.177C317.815 135.413 317.606 129.221 316.907 125.687C315.764 119.928 314.069 114.292 311.845 108.859C309.505 103.297 309.226 102.282 310.134 102.282C311.705 102.282 313.171 100.463 313.625 98.1186C314.079 95.7746 314.219 95.1449 317.745 93.8504C318.654 93.5944 319.499 93.1509 320.226 92.5484C320.954 91.946 321.548 91.1978 321.97 90.3519C324.414 86.6084 324.414 86.6784 321.76 82.4452L319.316 78.7017L316.384 78.9466C315.006 78.9614 313.65 79.283 312.412 79.8881C311.174 80.4932 310.086 81.3667 309.226 82.4452L307.585 84.1944L304.338 83.8446C301.755 83.6346 300.847 83.8445 300.114 84.2644C298.822 85.244 298.647 85.209 297.844 83.7046C295.505 79.1215 295.505 78.9816 295.226 56.9407C295.226 45.4655 294.807 35.7395 294.562 35.3197C294.318 34.8999 295.749 34.48 323.716 34.48C350.041 34.48 353.218 34.48 352.939 35.1798C352.659 35.8795 352.345 37.2439 351.961 38.6783C351.577 40.1127 351.123 41.9669 350.984 42.3868C350.844 42.8066 350.984 43.1914 351.822 43.3314H352.904V232.883H351.822C351.088 232.883 350.844 233.303 350.984 233.792C351.123 234.282 351.542 235.961 351.961 237.641C352.38 239.32 352.799 241.139 352.939 241.524C353.078 241.909 352.171 242.329 335.656 242.329L335.482 242.679ZM316.803 280.813C315.259 280.828 313.724 280.579 312.264 280.078C310.791 279.608 309.267 279.314 307.725 279.204C307.515 279.204 307.376 279.798 307.376 280.323C307.376 280.848 306.014 281.198 202.982 281.198C99.9504 281.198 98.5888 281.198 98.5888 280.323C98.5888 279.448 98.0651 278.819 95.0974 279.763C90.0697 281.303 89.93 281.303 89.6158 280.113C89.3016 278.924 89.2667 219.763 89.6158 219.063C89.965 218.364 92.5137 218.504 100.963 218.574H111.891V226.201C111.739 228.745 111.927 231.298 112.45 233.792C112.729 233.792 112.939 233.058 112.939 232.148C112.939 230.224 112.939 230.224 117.617 231.448C122.296 232.673 122.261 232.638 122.261 231.448C122.261 230.259 122.61 230.504 131.373 230.504C140.137 230.504 140.486 230.504 140.486 231.448C140.486 232.393 140.486 232.638 144.745 231.448C149.005 230.259 149.354 230.294 149.354 231.658C149.354 232.288 149.564 232.953 149.843 233.093C150.403 227.467 150.589 221.81 150.401 216.16V198.912H158.327C165.659 198.912 166.427 198.912 168.243 199.961C169.496 200.631 170.585 201.572 171.431 202.715C172.276 203.859 172.857 205.177 173.131 206.574C174.143 209.093 174.143 210.072 174.213 238.061C174.213 256.883 174.457 267.029 174.772 267.099C175.086 267.169 175.295 266.749 175.4 266.119C175.505 265.489 175.4 264.964 181.091 266.539C184.373 267.448 184.827 267.413 184.827 265.979C184.827 265.104 185.56 265.104 234.719 265.209H284.542V266.259C284.575 266.626 284.682 266.984 284.856 267.308C284.856 267.308 287.021 266.784 289.395 266.119L293.864 264.964C293.94 265.381 293.94 265.808 293.864 266.224C293.864 267.064 293.864 267.343 294.353 267.029C294.842 263.084 295.029 259.107 294.911 255.134V243.658H316.384V262.096C316.384 272.276 316.384 280.743 316.104 280.953L316.803 280.813ZM111.193 199.192V217.454H100.125C91.3965 217.454 89.0223 217.454 88.9874 216.999C88.9874 215.915 88.9874 198.702 88.9874 198.597C88.9874 198.492 94.015 198.597 100.055 198.772L111.193 199.192ZM111.193 197.582C105.641 197.757 94.3991 197.757 92.9327 197.582C89.1969 197.128 88.6731 195.588 88.6382 184.498C88.379 181.873 88.568 179.223 89.1969 176.661C96.3699 175.985 103.586 175.891 110.774 176.381C111.402 176.626 111.507 178.025 111.507 187.157C111.611 190.658 111.506 194.163 111.193 197.652V197.582ZM88.7081 172.778C88.7141 171.502 89.1579 170.266 89.965 169.279C90.9426 168.3 91.3965 168.265 100.439 168.265C111.437 168.265 111.682 168.265 111.682 172.568V175.052H88.9874L88.7081 172.778ZM109.936 161.617H111.507V164.941C111.507 167.915 111.507 168.195 110.704 167.88C103.927 167.194 97.1017 167.136 90.3141 167.705C89.5111 168.474 89.1271 168.195 88.8478 166.655C88.8478 165.816 88.6732 159.308 88.8478 152.241V139.367H100.195H111.507V149.862V160.533H109.761C107.597 160.743 107.911 161.582 110.18 161.582L109.936 161.617ZM90.6284 109.769C97.2334 110.443 103.89 110.443 110.495 109.769L111.751 109.454V115.052H110.11C108.051 115.052 107.981 115.891 110.11 116.101H111.577V126.597V137.092H100.404C96.5936 137.228 92.778 137.088 88.9874 136.673C88.9874 136.463 88.743 130.025 88.743 122.399C88.743 108.404 88.743 107.53 90.4538 109.174L90.6284 109.769ZM111.717 100.463V103.681C111.717 108.614 111.717 108.544 100.753 108.544C97.5099 108.677 94.2611 108.513 91.0473 108.055C90.4637 107.678 89.9836 107.161 89.6508 106.55C88.9381 104.735 88.804 102.743 89.2667 100.848C89.4413 100.848 94.6435 100.568 100.753 100.568L111.717 100.463ZM148.865 186.492V196.988H130.954C121.108 196.988 112.939 196.988 112.834 196.988C112.729 196.988 112.659 192.09 112.659 186.317V175.821H149.075L148.865 186.492ZM124.879 217.139C122.191 217.139 121.842 217.139 121.842 216.195C121.842 215.25 121.562 215.25 121.248 215.25C119.949 215.484 118.667 215.799 117.408 216.195C112.031 217.734 112.52 218.539 112.52 207.763V198.422H148.935V213.921C148.935 228.51 148.935 229.349 148.097 229.104L144.606 228.125L141.114 227.145C140.556 227.145 140.311 227.145 140.172 227.985C140.032 228.824 140.172 229.069 131.094 229.209C122.016 229.349 122.051 229.209 122.051 228.405C122.051 227.6 121.597 226.97 118.315 227.845L114.021 229.034L112.729 229.314V218.819L114.021 219.098C114.719 219.098 116.639 219.798 118.246 220.253C121.458 221.198 122.051 221.163 122.051 219.693C122.051 218.889 122.4 218.819 125.089 218.819C126.834 218.819 128.126 218.609 128.126 218.329C128.126 218.049 126.834 217.874 125.089 217.874L124.879 217.139ZM141.533 139.262L149.389 139.472V156.964C149.389 173.722 149.389 174.457 148.516 175.122C147.643 175.786 145.025 175.786 132.386 175.681C124.041 175.681 116.43 175.681 115.522 175.472C114.748 175.394 113.999 175.156 113.323 174.772C112.869 174.387 112.729 170.224 112.729 156.789V139.297H119.956C126.066 139.297 127.218 139.297 127.218 138.562C127.218 137.827 126.066 137.862 119.956 137.862H112.729V120.369C112.729 105.291 112.729 102.877 113.462 102.107C114.195 101.337 116.57 101.407 131.164 101.407C145.758 101.407 148.272 101.407 148.865 102.142C149.459 102.877 149.633 105.116 149.633 120.369V137.862H141.673C131.199 138.037 131.199 138.842 141.673 139.192L141.533 139.262ZM295.295 221.233C295.47 200.451 295.47 199.682 296.482 197.023C298.484 192.262 300.976 187.724 303.919 183.483C309.298 175.325 313.287 166.328 315.72 156.859C316.069 155.355 316.523 154.165 316.768 154.165C317.012 154.165 317.082 174.002 317.047 198.282V242.364H306.154H295.295V221.233ZM234.196 100.987C233.986 101.512 233.288 101.722 231.961 101.722C231.179 101.785 230.393 101.677 229.657 101.407C229.417 100.982 229.308 100.495 229.343 100.008C229.343 99.0282 229.342 98.9233 231.891 98.9233C234.44 98.9233 234.859 99.2032 234.196 100.987ZM190.064 126.352C189.505 128.451 188.982 129.221 188.528 128.521C188.477 126.542 188.985 124.59 189.994 122.888C190.692 122.643 190.692 123.623 189.994 126.387L190.064 126.352ZM228.4 96.0545C227.911 96.0545 227.422 94.6901 227.038 92.9408C226.654 91.1915 226.235 90.072 225.956 90.072C223.418 90.6197 220.93 91.3804 218.519 92.3461C218.407 93.3165 218.526 94.2999 218.868 95.2148C219.217 96.6143 219.566 98.0837 219.566 98.3636C219.566 98.6434 218.24 99.623 216.669 100.428C214.744 101.433 212.91 102.603 211.187 103.926L208.708 105.78L206.264 103.366L203.715 100.882L200.922 103.856C199.9 104.878 198.943 105.965 198.059 107.11C198.753 108.015 199.524 108.858 200.364 109.629L202.668 111.868L200.399 115.366C199.235 117.128 198.208 118.976 197.326 120.894C196.802 122.119 196.104 123.028 195.755 123.028C194.501 122.817 193.264 122.513 192.054 122.119C191.019 121.762 189.957 121.493 188.877 121.314C188.877 121.314 188.353 123.168 187.899 125.302C187.236 128.031 187.131 129.221 187.515 129.536C188.538 130.004 189.618 130.333 190.727 130.515C193.067 131.075 193.416 131.285 193.416 132.264C193.416 133.244 193.695 133.349 194.324 133.349C194.952 133.349 195.266 133.664 195.266 135.693V138.002H182.976L183.256 134.504C184.279 126.213 187.233 118.279 191.88 111.343C200.049 98.9933 216.529 89.4422 230.006 89.2673H234.265V97.6638H232.171C230.809 97.6638 229.936 97.6638 229.587 97.209C229.301 96.7761 228.885 96.4453 228.4 96.2644V96.0545ZM226.13 94.5851C227.073 96.0195 226.549 96.7892 224.035 97.4889C220.858 98.4335 220.998 98.4335 220.544 97.209C220.09 95.9845 220.125 95.5997 223.163 94.725C225.292 94.1303 225.816 94.0603 226.13 94.725V94.5851ZM225.292 92.7659C223.604 93.7276 221.682 94.2 219.741 94.1303C219.357 93.5006 219.357 93.5006 222.22 92.556C224.524 91.8213 226.2 91.9262 225.292 92.7659ZM199.945 107.285C200.9 105.631 202.183 104.19 203.715 103.052C204.658 103.052 204.065 104.381 202.389 105.99C200.713 107.6 199.945 108.124 199.945 107.285ZM203.436 106.795L205.531 104.731L206.578 105.78L207.661 106.795L205.496 108.894L203.401 111.063L202.389 109.944L201.341 108.859L203.436 106.795ZM193.171 129.606C192.587 129.6 192.009 129.493 191.461 129.291C190.692 128.941 190.413 128.521 190.623 128.031C190.623 127.541 191.077 126.247 191.356 125.127C191.88 123.133 191.984 123.098 193.381 123.378C194.023 123.481 194.639 123.707 195.196 124.043C195.218 126.082 194.498 128.059 193.171 129.606ZM203.646 135.833C203.646 137.687 203.646 137.687 201.76 137.687H199.91V132.09H197.221C195.825 132.09 194.673 131.915 194.673 131.67C194.673 131.425 195.231 129.466 195.895 127.297C197.837 120.611 201.377 114.501 206.207 109.496C211.038 104.491 217.014 100.742 223.617 98.5735C228.12 96.9292 228.295 96.9991 228.295 100.043V102.562H231.228H234.126V104.101C234.335 106.165 233.567 107.005 231.437 107.005C227.096 107.517 222.891 108.847 219.043 110.923C216.506 112.443 214.162 114.264 212.06 116.346C207.041 121.561 203.949 128.337 203.296 135.553L203.646 135.833ZM196.314 135.028C196.314 132.824 196.314 132.684 197.396 132.824C198.478 132.964 198.443 133.314 198.583 135.238C198.723 137.162 198.583 137.407 197.536 137.407C196.488 137.407 196.314 137.407 196.314 135.028ZM197.501 138.842C198.618 138.842 198.653 138.842 198.653 141.396C198.653 143.95 198.653 143.985 197.501 143.985C196.349 143.985 196.314 143.985 196.314 141.396C196.314 138.807 196.314 138.842 197.501 138.842ZM228.121 173.023V175.472C227.946 178.41 227.806 178.48 223.093 177.011C216.683 175.101 210.851 171.618 206.126 166.877C201.4 162.136 197.932 156.287 196.034 149.862C194.638 145.384 194.673 145.384 197.396 145.384H199.7V142.235V139.052H202.947L203.296 142.095C203.966 146.835 205.684 151.365 208.324 155.355C210.736 159.064 213.925 162.202 217.669 164.552C221.413 166.903 225.623 168.408 230.006 168.964L233.777 169.524V172.743L228.121 173.023ZM231.612 176.521H229.133V173.617H231.612C233.846 173.792 234.021 173.862 234.021 174.947C234.021 176.031 233.846 176.101 231.612 176.241V176.521ZM220.544 178.55C220.963 177.081 220.823 177.151 223.861 178.025C226.898 178.9 226.933 178.865 226.549 180.055C226.165 181.244 225.537 181.209 222.429 180.265C220.474 179.67 220.265 179.495 220.544 178.55ZM225.746 182.819C225.991 183.518 224.908 183.448 222.255 182.819C220.3 182.294 219.043 181.139 220.439 181.139C222.357 181.305 224.21 181.916 225.851 182.923L225.746 182.819ZM203.715 172.708C203.401 173.023 202.598 172.533 201.306 171.168C199.246 169.069 198.967 168.509 199.945 168.509C200.922 168.509 204.239 172.183 203.715 172.708ZM202.703 169.209L200.713 168.09L201.865 166.97C202.528 166.34 203.087 165.99 203.122 166.06L205.077 168.23C206.928 170.189 206.928 170.224 206.09 171.168C205.774 171.559 205.382 171.88 204.937 172.113C204.086 171.551 203.322 170.867 202.668 170.084L202.703 169.209ZM189.296 152.906C188.458 150.772 188.318 149.162 189.017 149.162C189.715 149.162 190.239 150.737 190.658 153.116C191.076 155.495 190.239 155.25 189.296 152.906ZM195.58 152.906C194.639 153.545 193.584 153.996 192.473 154.235C192.11 153.447 191.818 152.627 191.6 151.786C191.285 150.805 191.051 149.798 190.902 148.778C190.902 148.288 192.299 147.658 193.521 147.658C194.522 149.266 195.221 151.045 195.58 152.906ZM195.092 141.816C195.092 143.775 195.092 144.404 194.393 144.404C194.184 144.439 193.995 144.552 193.865 144.721C193.735 144.89 193.675 145.102 193.695 145.314C193.695 146.049 193.032 146.469 190.413 147.238C187.795 148.008 187.166 148.463 187.166 148.918C187.38 150.284 187.707 151.629 188.144 152.941C189.226 156.614 188.947 156.439 193.835 154.97L196.034 154.27L197.675 157.419C198.513 159.133 199.91 161.477 200.643 162.632L202.109 164.766L199.665 167.18L197.256 169.664L200.015 172.463C201.029 173.579 202.206 174.534 203.506 175.297C204.429 174.761 205.226 174.033 205.845 173.163C206.428 172.344 207.149 171.634 207.975 171.063C209.101 171.586 210.167 172.232 211.152 172.988C213.048 174.197 215.006 175.306 217.018 176.311C219.252 177.326 219.951 177.886 219.811 178.515C218.868 181.734 218.589 183.413 218.903 183.693C221.346 184.612 223.911 185.166 226.514 185.337C227.021 184.475 227.364 183.526 227.527 182.539C227.841 181.139 228.365 179.95 228.644 179.95C228.924 179.95 229.342 179.53 229.482 178.97C229.622 178.41 230.041 178.025 231.996 178.2H234.23V190.83H232.136C230.099 190.807 228.067 190.62 226.061 190.27C219.171 189.102 212.585 186.558 206.696 182.79C200.806 179.021 195.732 174.106 191.775 168.335C188.738 163.989 186.449 159.164 185.001 154.06C183.593 149.327 182.887 144.411 182.907 139.472C184.987 139.064 187.11 138.923 189.226 139.052H195.231L195.092 141.816ZM178.054 137.827C176.517 137.827 177.669 128.591 180.113 121.384C183.045 112.942 187.881 105.292 194.246 99.0298C200.61 92.7675 208.332 88.0617 216.808 85.279C221.076 83.7814 225.555 82.9782 230.076 82.8999H234.091V87.0982L231.752 87.3781C227.228 87.7707 222.757 88.6384 218.414 89.967C210.664 92.3452 203.599 96.557 197.815 102.247C191.681 107.941 187.071 115.086 184.408 123.028C183.016 127.282 182.057 131.666 181.545 136.113C181.319 141.101 181.729 146.098 182.767 150.982C184.896 160.923 189.942 169.999 197.256 177.046C205.866 185.612 217.163 190.938 229.238 192.125C230.782 192.202 232.314 192.437 233.812 192.824C234.21 193.396 234.395 194.089 234.335 194.784V196.393H231.193C228.851 196.341 226.516 196.107 224.21 195.693C214.151 193.826 204.767 189.314 197.019 182.62C189.271 175.926 183.437 167.289 180.113 157.594C177.6 150.212 176.378 139.262 178.054 139.262C178.216 139.225 178.362 139.134 178.466 139.004C178.571 138.874 178.628 138.712 178.628 138.544C178.628 138.377 178.571 138.215 178.466 138.085C178.362 137.954 178.216 137.863 178.054 137.827ZM235.627 108.824C236.709 107.95 243.448 109.524 247.952 111.728C257.029 116.066 264.361 126.807 264.361 135.693V137.827H235.278V126.317C235.278 117.326 235.278 114.877 234.719 115.017C234.161 115.157 234.056 117.99 233.951 126.527V137.827H231.158C228.958 137.827 228.365 137.827 228.365 138.527C228.365 139.227 228.958 139.262 231.158 139.262H233.951V147.763C233.951 154.025 234.23 156.264 234.719 156.474C235.208 156.684 235.278 154.69 235.278 147.938V139.262H264.361L264.082 142.445C263.44 149.006 260.422 155.105 255.598 159.588C250.74 164.557 244.284 167.643 237.373 168.3L235.487 168.509L235.278 165.536C235.278 163.961 234.859 162.632 234.58 162.632C234.3 162.632 234.056 163.996 233.951 165.676C233.846 167.355 233.637 168.719 233.253 168.684L230.495 168.265C225.777 167.591 221.285 165.81 217.384 163.069C213.483 160.327 210.283 156.701 208.045 152.486C206.092 148.573 204.907 144.322 204.553 139.961C204.763 139.332 206.125 139.262 213.526 139.262C220.928 139.262 222.15 139.262 222.15 138.527C222.15 137.792 220.858 137.827 213.282 137.827H204.414V136.813C204.933 132.562 206.111 128.419 207.905 124.533C210.975 119.074 215.559 114.626 221.103 111.728C225.816 109.419 232.415 107.88 233.881 108.789C234.51 109.209 234.894 109.209 235.348 108.789L235.627 108.824ZM241.213 102.702V100.148C241.213 96.9991 241.213 96.9991 246.974 98.9583C253.338 101.07 259.173 104.53 264.082 109.104C264.466 109.594 265.514 110.958 266.456 112.078C270.55 117.344 273.5 123.409 275.115 129.885L275.429 131.74H269.214V137.792H267.364C265.514 137.792 265.479 137.792 265.479 136.078C265.114 131.953 263.927 127.944 261.987 124.288C259.658 119.762 256.269 115.87 252.11 112.946C247.95 110.021 243.145 108.15 238.106 107.495L235.278 107.145V104.941V102.702H241.213ZM237.722 98.9583C240.34 98.9583 240.655 99.2382 240.026 101.022C239.817 101.582 239.084 101.757 237.443 101.757C235.208 101.757 235.173 101.757 235.173 100.358C235.173 98.9583 235.173 98.9583 237.722 98.9583ZM248.441 97.279C248.091 98.1186 248.091 98.1186 245.892 97.279C245.116 96.9835 244.307 96.7838 243.483 96.6842C242.575 96.6842 242.365 95.3897 243.064 94.3752C243.762 93.3606 243.902 93.9204 246.101 94.3752C248.301 94.83 249.034 95.5997 248.441 97.1391V97.279ZM246.66 93.3956C244.356 92.8008 243.168 92.0312 243.657 91.5064C245.674 91.6305 247.639 92.1915 249.418 93.1507C249.872 93.9554 248.999 93.9903 246.66 93.3956ZM266.177 102.107C266.91 102.107 270.297 106.06 269.878 106.48C269.459 106.9 269.075 106.795 267.294 104.661C265.514 102.527 265.199 102.107 266.177 102.107ZM266.456 105.606C268.446 107.67 268.446 107.705 267.608 108.649C267.309 109.055 266.913 109.38 266.456 109.594C265.707 109.089 265.027 108.489 264.431 107.81C262.476 105.78 262.406 105.361 263.558 104.311C264.711 103.262 264.536 103.646 266.456 105.606ZM280.073 122.783C281.032 124.449 281.638 126.295 281.853 128.206C281.853 128.206 281.574 128.206 281.26 128.206C280.946 128.206 280.387 127.401 280.073 126.387C279.375 124.043 279.375 122.434 280.073 122.678V122.783ZM275.01 124.358C274.801 123.798 275.185 123.518 276.267 123.273C276.826 123.109 277.419 123.109 277.978 123.273C278.367 124.194 278.648 125.157 278.816 126.142C279.444 128.766 279.444 128.766 278.327 129.221C276.547 129.885 276.477 129.816 275.848 127.436L275.01 124.393V124.358ZM278.502 153.186C278.644 151.325 279.257 149.531 280.282 147.973C281.05 147.763 280.981 149.197 280.073 151.786C279.165 154.375 278.502 154.725 278.502 153.186ZM239.502 175.507C239.502 176.591 239.293 176.661 237.303 176.801C235.313 176.941 235.068 176.801 235.068 175.507C235.068 174.212 235.068 174.037 237.303 174.177C239.537 174.317 239.502 174.422 239.502 175.507ZM242.331 180.824C241.842 179.53 242.016 179.355 244.635 178.795C247.882 178.095 247.812 178.095 248.126 179.215C248.441 180.335 248.126 180.23 245.962 180.824C242.889 181.769 242.47 181.769 242.261 180.824H242.331ZM243.029 183.378C244.67 182.371 246.523 181.76 248.441 181.594C249.942 181.594 248.441 182.749 246.381 183.308C243.483 184.078 242.889 184.078 242.889 183.308L243.029 183.378ZM268.83 168.894C269.843 168.894 269.459 169.594 267.643 171.378C265.828 173.163 264.745 173.547 264.745 172.708C265.795 171.138 267.193 169.833 268.83 168.894ZM265.339 170.189C263.838 171.413 263.384 171.553 262.965 171.098C262.546 170.644 266.456 166.06 267.155 166.865C267.853 167.67 267.434 168.544 265.339 170.189ZM276.267 146.993C276.267 146.993 276.826 146.993 277.384 146.993C277.943 146.993 278.362 147.553 278.083 148.953C277.629 151.437 276.861 152.836 275.918 152.836C275.708 152.839 275.499 152.797 275.306 152.713C275.113 152.628 274.941 152.503 274.801 152.346C274.987 150.447 275.483 148.592 276.267 146.853V146.993ZM272.008 144.859C275.499 144.859 275.499 144.859 273.928 149.827C272.462 154.856 270.02 159.546 266.743 163.628C263.466 167.71 259.418 171.105 254.83 173.617C250.456 175.667 245.848 177.171 241.109 178.095C240.655 178.095 240.48 177.256 240.48 175.542V172.988H237.827H235.103V171.308V169.629L237.966 169.349C244.931 168.504 251.413 165.348 256.38 160.384C261.347 155.419 264.513 148.932 265.374 141.955L265.653 139.017H267.329H269.005V141.99V144.859H272.008ZM272.008 138.807C273.09 139.157 273.23 139.506 273.23 141.361C273.23 143.215 273.23 143.46 271.589 143.46H269.913V138.002V132.474H271.309C272.671 132.474 272.706 132.474 272.846 134.958C272.985 137.442 272.846 137.372 272.043 137.372C270.611 137.372 270.402 138.282 271.728 138.807H272.008ZM238.979 88.3927C247 89.1568 254.733 91.7799 261.568 96.0545C267.524 100.119 272.733 105.185 276.965 111.028C281.547 117.905 284.442 125.768 285.415 133.979L285.694 137.477H280.422C276.686 137.477 275.045 137.792 274.906 138.212C274.766 138.632 276.023 138.807 280.143 138.807H285.554V142.06C284.897 155.158 279.188 167.489 269.633 176.451C261.091 184.62 249.986 189.565 238.211 190.445L234.545 190.76V184.288V177.816H236.57C238.28 177.816 238.63 177.816 238.839 178.585C238.959 179.073 239.258 179.498 239.677 179.775C240.026 179.775 240.585 181.174 240.899 182.574C241.213 183.973 241.597 185.198 241.807 185.198C244.396 184.8 246.943 184.167 249.418 183.308C249.572 182.321 249.475 181.31 249.139 180.37L248.441 177.746L253.643 175.227C256.506 173.827 259.264 172.323 259.788 171.938C260.311 171.553 260.835 171.343 262.686 173.128L264.641 175.052L266.875 173.163C268.097 172.078 269.529 170.818 270.018 170.259C270.506 169.699 270.925 169.244 268.9 167.18L266.875 165.116L268.796 162.177C269.808 160.533 271.274 158.014 271.973 156.544C272.671 155.075 273.509 153.85 273.788 153.85C274.759 154.009 275.716 154.243 276.651 154.55C278.397 155.04 279.025 155.11 279.444 154.55C280.452 152.192 281.19 149.728 281.644 147.203C280.734 146.806 279.786 146.502 278.816 146.294C276.686 145.664 276.093 145.279 275.988 144.509C275.883 143.74 275.499 143.46 274.661 143.46H273.509V138.002C273.509 132.649 273.509 132.474 274.731 132.334C275.953 132.195 275.743 131.88 275.743 131.355C275.743 130.83 276.407 130.375 278.467 129.885C279.564 129.699 280.632 129.37 281.644 128.906C281.993 128.591 281.923 127.506 281.295 124.952C281.041 123.638 280.667 122.35 280.178 121.104C278.995 121.115 277.82 121.291 276.686 121.629C275.538 121.936 274.372 122.169 273.195 122.329C273.195 122.329 272.392 120.824 271.554 119.145C270.5 117.145 269.335 115.206 268.062 113.337L266.212 110.608L268.342 108.404C269.207 107.646 269.939 106.747 270.506 105.745C269.713 104.56 268.774 103.479 267.713 102.527L264.92 99.763L262.476 102.142L259.997 104.591L258.601 103.401C256.786 102.178 254.884 101.091 252.91 100.148C251.311 99.4929 249.835 98.5701 248.545 97.4189C248.545 97.1391 248.894 95.7746 249.209 94.4802C249.529 93.6204 249.66 92.7015 249.593 91.7863C247.152 90.946 244.67 90.2337 242.156 89.6522C241.912 89.6522 241.423 90.8766 241.074 92.311C240.306 95.9845 239.118 97.1391 236.325 97.1391H234.091V88.1128L238.979 88.3927ZM236.674 82.1653C247.994 82.7906 258.898 86.6512 268.097 93.2906C273.462 97.5124 278.169 102.512 282.063 108.124C286.984 115.745 290.035 124.425 290.966 133.454L291.245 137.372H289.116C287.021 137.372 287.021 137.372 286.707 135.658C286.707 134.678 286.357 132.719 286.148 131.32C285.407 126.612 284.045 122.024 282.098 117.676C277.248 107.182 269.09 98.5765 258.88 93.1857C252.911 89.8282 246.29 87.7997 239.468 87.2382L234.615 86.6784V82.1302L236.674 82.1653ZM234.649 195.903V194.014C234.649 191.95 234.649 192.02 240.236 191.495C242.505 191.229 244.756 190.82 246.974 190.27C257.515 187.665 266.987 181.842 274.08 173.606C281.173 165.37 285.537 155.129 286.567 144.299L287.091 138.807H291.141V141.781C290.833 149.226 289.028 156.532 285.834 163.262C281.833 171.497 275.957 178.675 268.679 184.217C261.402 189.759 252.926 193.511 243.937 195.168C241.743 195.553 239.527 195.799 237.303 195.903H234.649ZM250.745 198.877C251.792 198.632 251.932 198.877 251.932 199.786C251.932 200.696 251.653 200.976 248.79 201.676C244.885 202.627 240.898 203.201 236.884 203.39C234.719 203.39 234.649 203.39 234.649 202.026C234.649 200.661 234.929 200.521 235.243 200.381C235.557 200.241 235.697 200.066 235.243 199.821C235.039 199.661 234.879 199.452 234.775 199.214C234.672 198.976 234.628 198.716 234.649 198.457C234.649 197.477 234.859 197.372 238.141 197.093C252.141 196.063 265.304 190.022 275.227 180.073C285.149 170.123 291.17 156.929 292.188 142.9L292.502 138.807H298.054L297.774 142.69C297.327 154.608 293.558 166.162 286.893 176.043C280.229 185.924 270.936 193.737 260.067 198.597C254.271 201.116 253.887 201.151 253.922 199.297C253.957 197.442 253.608 197.407 251.583 198.212C249.558 199.017 250.012 199.716 251.583 199.332L250.745 198.877ZM250.78 81.7804C251.501 81.935 252.212 82.1336 252.91 82.3752C253.608 82.6551 253.678 82.3752 253.678 80.7309C253.678 79.0865 253.678 78.7717 255.004 79.1215C259.492 80.641 263.8 82.647 267.853 85.104C276.565 90.4302 283.886 97.7584 289.21 106.482C294.535 115.207 297.71 125.076 298.473 135.273V137.617H295.819C294.905 137.761 293.97 137.677 293.096 137.372C292.767 133.471 292.208 129.592 291.42 125.757C288.446 113.741 281.761 102.972 272.319 94.9872C262.877 87.0023 251.16 82.2089 238.839 81.2906L235.348 80.9758V78.4918C235.278 77.5564 235.397 76.6165 235.697 75.728C239.54 75.7494 243.374 76.1242 247.149 76.8475C252.7 78.3168 252.63 78.2818 252.63 79.4014C252.63 80.5209 252.281 81.0807 250.71 80.5909C249.139 80.1011 249.348 80.381 249.348 80.8358C249.348 81.2906 249.907 81.5355 250.64 81.6405L250.78 81.7804ZM172.572 137.617H170.372L170.652 134.469C171.522 124.825 174.535 115.499 179.471 107.175C184.407 98.8512 191.14 91.74 199.177 86.3635C203.557 83.5171 208.241 81.1702 213.142 79.3664C214.294 79.0515 214.399 79.1215 214.399 80.6259C214.399 82.795 214.679 82.9699 216.529 81.8504C218.379 80.7309 218.554 80.346 216.948 80.6259C215.935 80.8708 215.796 80.6259 215.796 79.6113C215.796 78.5968 215.97 78.2819 220.125 77.3023C226.061 75.9029 233.113 75.2381 233.846 76.0078C234.054 76.2253 234.194 76.4977 234.252 76.7927C234.309 77.0878 234.282 77.3933 234.171 77.6729C234.061 77.9526 233.873 78.1948 233.63 78.3709C233.387 78.547 233.099 78.6497 232.799 78.6667C232.101 78.6667 231.682 78.9466 231.682 79.3664C231.682 79.7862 232.101 80.0661 232.834 80.0661C233.567 80.0661 233.986 80.0662 233.986 80.486C232.89 80.9834 231.698 81.2342 230.495 81.2206C217.487 82.152 205.165 87.4182 195.49 96.1804C185.816 104.943 179.346 116.697 177.111 129.571C175.958 135.98 175.958 142.544 177.111 148.953C177.923 154.558 179.67 159.986 182.278 165.011C189.355 178.832 201.47 189.393 216.11 194.504C220.806 195.897 225.622 196.845 230.495 197.337C233.986 197.617 233.986 197.722 233.986 198.737C233.986 199.751 233.707 199.891 233.288 199.891C232.869 199.891 232.59 200.101 232.59 200.346C232.59 200.591 232.869 200.801 233.253 200.801C233.637 200.801 234.44 202.13 234.475 203.285C231.176 203.772 227.816 203.654 224.559 202.935C222.36 202.55 219.532 201.991 218.275 201.606C216.389 201.046 215.97 200.766 215.866 199.682C215.761 198.597 215.866 198.422 217.507 198.737C218.484 198.947 219.148 198.737 218.973 198.737C218.798 198.737 214.958 196.673 214.679 197.023C214.457 197.602 214.361 198.222 214.399 198.842C214.399 200.696 214.399 200.696 209.197 198.457C195.674 192.555 184.582 182.181 177.774 169.069C173.68 161.143 171.301 152.44 170.791 143.53L170.442 139.087H172.886C176.063 139.087 175.924 137.932 172.886 137.757L172.572 137.617ZM293.689 242.189C293.78 242.105 293.898 242.059 294.021 242.059C294.144 242.059 294.262 242.105 294.353 242.189C294.353 242.364 294.353 242.504 294.039 242.504C293.724 242.504 293.55 242.504 293.689 242.189ZM294.248 243.658V253.699C294.386 257.14 294.316 260.587 294.039 264.02C292.918 264.112 291.792 263.932 290.757 263.495C285.31 261.956 285.031 261.956 285.031 263.04V264.02H234.789C185.141 264.02 184.827 264.02 184.827 263.075C184.827 262.131 184.548 262.166 184.233 262.166C182.89 262.393 181.562 262.696 180.253 263.075C178.916 263.489 177.551 263.805 176.168 264.02C175.575 264.02 175.47 262.515 175.47 252.999C175.47 242.749 175.47 241.979 176.273 242.504C177.076 243.029 186.747 243.203 235.453 243.413L294.248 243.658ZM293.969 228.405C294.457 228.754 294.527 230.014 294.457 233.932C294.213 239.495 293.62 241.244 291.42 242.014C290.722 242.329 279.165 242.504 262.93 242.504H235.278V228.51H236.395C237.652 228.51 238.595 227.6 237.408 227.495C236.977 227.52 236.546 227.52 236.116 227.495C235.627 227.495 235.453 225.326 235.348 218.714C235.527 215.763 235.34 212.801 234.789 209.897C234.285 212.807 234.121 215.766 234.3 218.714C234.3 223.542 234.3 230.819 234.3 234.947V242.434H206.753C185.351 242.434 178.822 242.434 178.019 241.944C176.098 241.034 175.679 239.495 175.679 233.827V228.545H177.076C178.857 228.545 178.961 227.67 177.25 227.495H175.924L175.644 217.909C175.26 206.154 174.772 204.3 171.106 200.976C168.347 198.422 166.637 198.072 158.397 198.002C151.728 198.002 151.135 198.002 150.786 197.128C150.436 196.253 150.786 183.413 150.786 167.74L151.1 139.297H169.29V142.795C169.367 145.339 169.612 147.875 170.023 150.387C172.225 163.752 178.502 176.106 187.991 185.753C197.481 195.4 209.719 201.866 223.023 204.265C230.608 205.35 238.307 205.35 245.892 204.265C256.923 202.308 267.263 197.532 275.912 190.398C284.56 183.264 291.225 174.013 295.26 163.541C297.569 157.432 298.992 151.023 299.485 144.509L299.764 139.472H316.419V142.655C315.974 151.369 314.062 159.945 310.762 168.02C308.423 173.622 305.534 178.978 302.139 184.008C298.851 188.68 296.285 193.823 294.527 199.262C294.088 204.322 293.913 209.402 294.004 214.48C294.004 224.031 294.004 227.39 293.445 227.81C292.886 228.23 292.991 228.51 293.445 228.789L293.969 228.405ZM303.465 89.6522C302.243 90.5968 302.069 90.4918 300.637 88.3927L299.45 86.5385L300.358 85.5589C301.545 84.3694 302.942 84.6842 303.675 86.3985C304.408 88.1128 304.373 88.9524 303.465 89.6522ZM307.795 93.1507L309.017 95.5647L307.969 96.4394C307.582 96.7985 307.132 97.0831 306.643 97.279C305.85 96.3906 305.16 95.4167 304.583 94.3752L302.802 91.4714L303.814 90.6667C305.316 89.5472 306.293 90.142 307.795 93.1507ZM311.286 100.533C309.994 101.862 309.296 101.722 308.353 100.078C307.411 98.4335 307.55 98.0137 308.912 97.279C309.575 96.9291 310.064 97.0691 311.007 97.7688C312.473 98.9583 312.508 99.3082 311.286 100.533ZM311.007 89.3023C313.59 93.3256 313.66 93.6055 313.171 94.97C312.683 96.3344 312.229 96.7892 310.972 96.1944C310.343 95.9495 309.889 95.4248 309.889 95.0749C309.391 93.0635 308.339 91.2329 306.852 89.7921C306.054 88.9784 305.467 87.9815 305.141 86.8883C304.897 85.7687 305.141 85.5589 305.979 85.5589C306.548 85.5793 307.116 85.4963 307.655 85.3139C308.074 85.139 309.226 86.5384 311.146 89.3023H311.007ZM312.264 81.2556C313.326 80.8453 314.444 80.5977 315.581 80.5209L318.513 80.1011L320.643 83.3548L322.738 86.6784L321.9 88.3227C320.818 90.2819 319.421 92.1011 319.002 92.1011C317.639 90.435 316.402 88.6691 315.301 86.8183C314.065 85.0962 313.044 83.2279 312.264 81.2556ZM314.184 87.1682C317.326 92.0312 317.675 93.0458 317.117 93.0458C316.719 93.0674 316.328 93.1623 315.965 93.3256C315.476 93.3256 314.359 92.1711 312.473 89.0224C310.588 85.8737 309.61 84.2994 309.994 83.7746C310.867 82.3402 311.426 82.795 314.289 87.2731L314.184 87.1682ZM89.3016 89.967C89.3016 81.1857 89.5111 80.5209 90.3839 79.8562C91.2568 79.1915 96.6336 79.1565 128.231 78.9816C155.813 78.9816 165.589 78.6667 166.986 78.2119C168.508 77.8047 169.923 77.0672 171.13 76.0516C172.336 75.0359 173.306 73.7669 173.969 72.3344L175.365 69.5355V59.5996L175.54 49.6288H176.901C177.635 49.6288 178.263 49.6288 178.263 49.174C178.263 48.7191 177.635 48.6842 176.832 48.6842H175.435V42.1419C175.204 39.7906 175.417 37.4168 176.063 35.1448C176.552 34.3751 178.752 34.3401 205.322 34.4451H234.056V41.932C234.056 46.0602 234.056 52.0777 234.056 55.4014C233.882 57.3973 234.047 59.4084 234.545 61.3489C235.069 59.3653 235.235 57.3035 235.033 55.2614V49.174H236.186C236.849 49.174 237.373 49.1739 237.373 48.7191C237.373 48.2643 236.849 48.2293 236.186 48.2293H235.033V34.2351H262.965C292.991 34.2351 293.061 34.2351 293.724 36.6841C294.239 40.5817 294.144 44.5357 293.445 48.4043C292.991 48.6142 292.991 48.7541 293.445 49.069C293.899 49.3839 294.039 53.4422 294.143 63.9728C294.143 76.0778 294.457 78.8416 295.121 80.8358C296.61 84.0717 298.374 87.1735 300.393 90.107C304.383 96.034 307.808 102.324 310.623 108.894C314.045 117.134 316.018 125.905 316.453 134.818V137.652H299.869L299.52 133.734C298.101 118.663 291.484 104.559 280.806 93.8504C269.796 82.5969 255.052 75.7763 239.363 74.6784L235.278 74.3285V70.8299C235.278 66.3868 234.44 66.3168 234.23 70.8299V74.3285L228.4 74.8883C217.547 75.9616 207.13 79.7206 198.086 85.8274C189.042 91.9341 181.655 100.197 176.587 109.874C172.85 117.219 170.484 125.187 169.604 133.384L169.255 137.617H150.716V119.705C150.716 103.192 150.716 101.687 149.948 101.022C149.179 100.358 145.129 100.253 119.433 99.9729C103.128 99.9729 89.5809 99.4831 89.4063 99.2382C89.0681 96.0078 88.9864 92.7555 89.162 89.5122L89.3016 89.967ZM88.1494 99.728H63.919C48.2076 99.728 39.4791 99.728 39.4791 100.183C39.4791 100.638 39.4791 100.673 39.4791 100.708C41.0452 100.718 42.6043 100.917 44.1226 101.302C44.0694 102.649 43.8225 103.98 43.3894 105.256C42.2373 109.699 42.2373 109.419 43.3894 109.699C44.5416 109.979 44.2972 110.364 44.2972 137.687C44.2972 165.011 44.2972 165.676 43.3894 165.676C42.4817 165.676 42.2024 165.991 43.564 170.958L44.6813 175.052H42.2024C41.2477 174.957 40.285 175.114 39.4092 175.507C39.2347 175.786 40.0726 175.961 41.6088 175.961C43.145 175.961 53.9335 175.961 66.0487 175.961H88.0098V186.632V197.128H53.6891C34.8005 197.128 19.3336 197.128 19.3336 196.778C19.3336 196.428 19.8573 194.539 20.5206 192.195C21.184 189.851 21.6728 187.926 21.6728 187.891C21.6728 187.856 21.184 187.891 20.5206 187.891H19.3336V87.3081H20.5206C20.8995 87.3975 21.2939 87.3975 21.6728 87.3081C21.6728 87.3081 21.2539 85.6988 20.7651 83.8096C20.3424 82.4844 20.0271 81.1272 19.8224 79.7513C19.8224 78.9466 21.7426 78.9116 53.8986 78.9116H88.0098L88.1494 99.728ZM87.2068 139.052C88.1495 139.052 88.1494 139.367 88.1494 157.069V175.087H45.1701L45.4494 173.792C45.4494 173.058 46.1476 171.133 46.6364 169.489C47.7537 165.746 47.7537 165.711 46.3571 165.711H45.1701V138.002V110.259H46.2524C47.5093 110.049 47.5093 110.259 46.2524 105.536C45.7613 104.158 45.4446 102.724 45.3097 101.267C45.5891 100.847 86.1244 100.603 87.2068 101.267C88.2891 101.932 88.0098 102.982 88.0098 119.705C88.0098 137.442 88.0098 137.862 87.0671 138.072C86.1244 138.282 86.1244 138.562 86.1244 138.842C86.1244 139.122 86.5434 139.367 87.0671 139.367L87.2068 139.052ZM355.208 242.784H353.393L354.51 238.48C355.872 233.198 355.872 233.408 354.684 233.408C353.497 233.408 353.742 233.093 353.742 138.422C353.742 43.7512 353.742 43.4013 354.684 43.4013C355.627 43.4013 355.802 43.4014 354.684 39.2031C353.567 35.0048 353.462 34.515 355.383 34.515C356.29 34.515 357.024 34.3401 357.024 34.0602C357.024 33.7803 336.075 33.5354 296.203 33.5004H235.348V27.0281C235.491 24.8779 235.302 22.7185 234.789 20.6258C234.3 20.6258 234.23 21.0456 234.161 28.3226V33.5004H205.915H176.622C176.309 33.5228 176.006 33.6204 175.739 33.7848C175.471 33.9492 175.247 34.1757 175.086 34.4451C174.478 40.255 174.233 46.0973 174.353 51.9378C174.073 70.6201 173.934 71.7046 170.861 74.4334C169.741 75.4104 168.435 76.1485 167.021 76.6026L164.437 77.3023C164.123 77.3023 146.98 77.5472 126.625 77.5472H89.3365V51.0632C89.3365 30.0719 89.3365 24.5442 89.8253 24.3343C91.3419 24.4017 92.8384 24.7087 94.2594 25.2439C95.5769 25.7077 96.9511 25.9901 98.3444 26.0835C98.5279 25.7403 98.6125 25.3526 98.5888 24.964C98.5888 24.1593 100.788 24.1243 161.434 24.1243C223.931 24.1243 224.28 24.1243 224.28 25.069C224.28 26.0136 224.559 25.9786 224.874 25.9786C227.852 25.4817 230.775 24.6967 233.602 23.6345C232.305 23.0433 230.947 22.5974 229.552 22.3051C227.248 21.6754 225.153 21.0806 224.874 20.9407C224.594 20.8007 224.28 21.1856 224.28 21.9552V23.1797H161.434C100.823 23.1797 98.5888 23.1797 98.5888 22.3401C98.6038 21.9479 98.5069 21.5595 98.3095 21.2205C96.842 21.2348 95.3885 21.5071 94.015 22.0252C92.5683 22.4991 91.0659 22.7814 89.546 22.8648C89.3365 22.8648 89.2667 21.9202 89.546 21.1156C89.6178 20.4294 89.6178 19.7376 89.546 19.0514C88.6383 16.6724 88.4637 22.0952 88.4637 48.5092V77.932H16.8896C15.4232 77.932 14.2012 78.1769 14.2012 78.4218C14.2012 78.6667 15.2835 78.8766 16.5404 78.8766C17.7973 78.8766 18.8797 78.8766 18.8797 79.2615C18.6269 80.363 18.3121 81.4492 17.937 82.5151C16.715 86.3635 16.715 87.3081 17.937 87.3081C19.159 87.3081 18.8797 87.623 18.8797 137.827C18.8797 188.031 18.8796 188.381 17.937 188.381C16.9943 188.381 16.7499 189.151 17.937 193.454C18.3255 194.706 18.6403 195.979 18.8797 197.268C18.8797 197.512 17.937 197.757 16.8197 197.757C16.0009 197.67 15.1745 197.828 14.4455 198.212C14.4455 198.527 26.875 198.667 51.28 198.667H88.4637V218.259L84.3787 217.104C79.4558 215.775 79.1067 215.775 79.1067 217.104C79.1067 218.434 78.7924 218.049 63.9888 218.049C58.8288 217.848 53.6612 218 48.5218 218.504C53.5488 219.11 58.6191 219.274 63.6746 218.994H79.1067V220.148C79.1067 220.813 79.3161 221.338 79.4907 221.338C79.6653 221.338 81.6554 220.813 83.8201 220.148C85.9848 219.483 87.905 218.994 88.1145 218.994C88.324 218.994 88.4637 233.722 88.4637 251.74C88.4637 273.256 88.4637 284.486 88.9175 284.486C89.0009 284.442 89.0717 284.377 89.1233 284.298C89.1749 284.219 89.2056 284.128 89.2126 284.033C89.2196 283.939 89.2026 283.844 89.1632 283.758C89.1238 283.673 89.0633 283.598 88.9874 283.542C88.9874 282.317 89.7555 282.282 93.2818 283.262C97.5763 284.416 98.3095 284.416 98.3095 283.262C98.3095 282.107 98.6587 282.317 202.703 282.317C306.747 282.317 307.096 282.317 307.096 283.262C307.081 283.379 307.091 283.498 307.127 283.611C307.162 283.723 307.222 283.827 307.302 283.914C307.382 284.001 307.48 284.069 307.59 284.113C307.699 284.158 307.817 284.178 307.934 284.171C309.349 283.96 310.749 283.657 312.124 283.262C313.461 282.848 314.826 282.533 316.209 282.317C316.558 282.317 316.907 282.737 316.907 283.262C316.907 283.787 317.117 284.171 317.361 284.171C317.912 277.411 318.063 270.623 317.815 263.845V243.483H337.437C343.981 243.757 350.536 243.594 357.059 242.994C357.059 242.784 356.221 242.539 355.243 242.539" fill="#A2A2A2"/>
<path d="M104.489 116.346C105.537 116.346 106.374 116.136 106.374 115.856C106.374 115.576 105.537 115.401 104.489 115.401C103.442 115.401 102.639 115.611 102.639 115.856C102.639 116.101 103.477 116.346 104.489 116.346Z" fill="#A2A2A2"/>
<path d="M130.88 137.967C129.728 138.177 129.588 139.261 130.705 139.261C131.264 139.261 131.683 138.982 131.683 138.527C131.683 138.072 131.369 137.862 130.88 137.967Z" fill="#A2A2A2"/>
<path d="M234.088 111.168C233.669 111.833 234.088 113.057 234.786 113.057C235.485 113.057 235.275 112.637 235.275 112.148C235.275 111.098 234.507 110.468 234.088 111.168Z" fill="#A2A2A2"/>
<path d="M1.69957 136.114H4.63235C5.36132 136.157 6.08125 135.934 6.65738 135.484C6.89447 135.254 7.07951 134.976 7.19998 134.668C7.32045 134.36 7.37353 134.03 7.35565 133.7C7.3691 133.37 7.31396 133.041 7.19375 132.734C7.07353 132.427 6.89088 132.148 6.65738 131.915C6.12496 131.453 5.44128 131.204 4.73708 131.216H1.69957V136.114ZM1.69957 137.443V142.306H0.0585938V129.886H4.63235C5.78958 129.829 6.92894 130.189 7.84445 130.901C8.22871 131.247 8.53142 131.675 8.73067 132.153C8.92992 132.631 9.02074 133.147 8.99662 133.665C9.02602 134.188 8.93777 134.711 8.73834 135.195C8.53892 135.68 8.23342 136.113 7.84445 136.463C6.93315 137.18 5.7875 137.529 4.63235 137.443H1.69957Z" fill="#A2A2A2"/>
<path d="M34.7968 136.603C34.899 135.372 34.5921 134.142 33.924 133.104C33.6297 132.732 33.2555 132.432 32.8293 132.226C32.4031 132.02 31.9359 131.913 31.4625 131.913C30.9892 131.913 30.522 132.02 30.0957 132.226C29.6695 132.432 29.2953 132.732 29.0011 133.104C28.3465 134.058 28.027 135.202 28.0933 136.358V137.302C27.9989 138.532 28.3052 139.76 28.9662 140.801C29.2471 141.193 29.6203 141.51 30.0526 141.724C30.485 141.938 30.9633 142.041 31.4451 142.025C31.9158 142.049 32.3852 141.957 32.8115 141.755C33.2379 141.554 33.608 141.25 33.8891 140.871C34.549 139.893 34.8681 138.725 34.7968 137.547V136.603ZM36.4378 137.407C36.4544 138.46 36.2646 139.506 35.8792 140.486C35.5332 141.303 34.9795 142.015 34.2731 142.55L36.4727 144.264L35.3555 145.314L32.7369 143.215C32.3079 143.268 31.874 143.268 31.4451 143.215C30.5299 143.235 29.6299 142.979 28.8614 142.48C28.0768 141.984 27.457 141.266 27.0808 140.416C26.6411 139.451 26.4262 138.398 26.4523 137.337V136.603C26.431 135.52 26.6455 134.445 27.0808 133.454C27.434 132.582 28.0427 131.838 28.8265 131.32C29.6238 130.863 30.5265 130.622 31.4451 130.622C32.3637 130.622 33.2664 130.863 34.0637 131.32C34.848 131.822 35.4579 132.555 35.8094 133.419C36.2486 134.421 36.4631 135.508 36.4378 136.603V137.407Z" fill="#A2A2A2"/>
<path d="M54.0708 137.478C52.9491 137.227 51.8986 136.725 50.9983 136.009C50.6936 135.73 50.4519 135.389 50.2894 135.009C50.1268 134.628 50.0471 134.218 50.0557 133.804C50.0515 133.341 50.1531 132.882 50.3528 132.464C50.5525 132.045 50.8449 131.678 51.2078 131.39C51.9848 130.863 52.8842 130.544 53.8195 130.464C54.7549 130.384 55.695 130.547 56.5497 130.936C57.1867 131.226 57.7219 131.701 58.0859 132.3C58.4489 132.863 58.6428 133.519 58.6446 134.189H57.0036C57.0149 133.86 56.9589 133.532 56.8388 133.225C56.7187 132.918 56.5371 132.639 56.3053 132.405C55.7292 131.955 55.0093 131.731 54.2803 131.775C53.6113 131.737 52.9484 131.922 52.3949 132.3C52.1679 132.477 51.9861 132.706 51.8647 132.968C51.7433 133.229 51.6857 133.516 51.6967 133.804C51.6978 134.052 51.7587 134.296 51.8742 134.516C51.9897 134.735 52.1564 134.923 52.36 135.064C53.0093 135.532 53.7453 135.865 54.5247 136.044C55.3775 136.249 56.1993 136.566 56.9687 136.988C57.486 137.293 57.9276 137.712 58.2605 138.213C58.5383 138.728 58.6824 139.306 58.6795 139.892C58.6907 140.36 58.5886 140.825 58.3819 141.245C58.1752 141.665 57.87 142.029 57.4924 142.306C56.5754 142.952 55.4695 143.272 54.3501 143.216C53.5337 143.216 52.7259 143.049 51.9759 142.726C51.2897 142.44 50.6971 141.967 50.2652 141.361C49.8576 140.805 49.6486 140.127 49.6716 139.437H51.3126C51.3054 139.776 51.3738 140.112 51.5127 140.42C51.6516 140.729 51.8576 141.003 52.1156 141.221C52.7727 141.668 53.5569 141.889 54.3501 141.851C55.053 141.9 55.7522 141.715 56.3402 141.326C56.5618 141.16 56.7407 140.943 56.8621 140.694C56.9836 140.444 57.044 140.169 57.0385 139.892C57.0544 139.622 57.0019 139.352 56.886 139.107C56.77 138.862 56.5943 138.651 56.3752 138.493C55.6715 138.023 54.8918 137.68 54.0708 137.478Z" fill="#A2A2A2"/>
<path d="M65.5596 143.04H63.9536V132.509L60.7764 133.699V132.265L65.3152 130.55H65.5596V143.04Z" fill="#A2A2A2"/>
<path d="M150.609 7.68153C150.938 7.27563 151.353 6.94866 151.824 6.72465C152.296 6.50065 152.811 6.38528 153.333 6.38706C155.288 6.38706 156.265 7.50659 156.265 9.8856V15.9731H154.694V9.8856C154.743 9.34417 154.58 8.80487 154.24 8.38123C154.052 8.21214 153.83 8.08434 153.59 8.00602C153.349 7.9277 153.095 7.9006 152.844 7.92643C152.374 7.92421 151.913 8.05783 151.517 8.31127C151.126 8.5877 150.813 8.96146 150.609 9.39581V15.9731H149.038V2.85352H150.609V7.68153Z" fill="#A2A2A2"/>
<path d="M45.4827 239.216C45.4185 240.379 44.9051 241.47 44.0512 242.26C43.1411 243.013 41.9834 243.4 40.8042 243.344C40.1411 243.365 39.482 243.234 38.877 242.961C38.272 242.689 37.737 242.281 37.3127 241.77C36.3697 240.569 35.8979 239.063 35.986 237.537V236.347C35.9651 235.298 36.1799 234.258 36.6145 233.304C36.9682 232.46 37.5792 231.749 38.3602 231.275C39.1498 230.799 40.0575 230.556 40.9787 230.575C42.1377 230.513 43.2759 230.901 44.156 231.659C44.9747 232.481 45.4599 233.578 45.5176 234.738H43.8766C43.8121 233.937 43.4941 233.177 42.9689 232.569C42.4169 232.097 41.7031 231.858 40.9787 231.904C40.5035 231.884 40.0301 231.978 39.5987 232.179C39.1673 232.379 38.7904 232.681 38.4998 233.059C37.8164 234.09 37.5082 235.325 37.627 236.557V237.747C37.5629 238.881 37.856 240.007 38.4649 240.965C38.7248 241.354 39.079 241.671 39.4943 241.885C39.9096 242.099 40.3723 242.204 40.8391 242.19C41.5901 242.238 42.3334 242.015 42.9339 241.56C43.49 240.969 43.8233 240.202 43.8766 239.391L45.4827 239.216Z" fill="#A2A2A2"/>
<path d="M134.581 244.498C134.678 243.263 134.359 242.031 133.673 241C133.379 240.628 133.005 240.328 132.579 240.122C132.152 239.915 131.685 239.808 131.212 239.808C130.738 239.808 130.271 239.915 129.845 240.122C129.419 240.328 129.045 240.628 128.75 241C128.111 241.974 127.794 243.124 127.843 244.288V245.198C127.748 246.433 128.067 247.664 128.75 248.697C129.031 249.089 129.404 249.406 129.837 249.62C130.269 249.833 130.747 249.937 131.229 249.921C131.7 249.945 132.169 249.852 132.596 249.651C133.022 249.449 133.392 249.146 133.673 248.767C134.354 247.733 134.673 246.503 134.581 245.268V244.498ZM136.187 245.303C136.223 246.395 136.021 247.482 135.594 248.487C135.24 249.34 134.63 250.061 133.848 250.551C133.069 251.054 132.156 251.31 131.229 251.285C130.304 251.3 129.394 251.044 128.611 250.551C127.838 250.051 127.23 249.333 126.865 248.487C126.425 247.521 126.21 246.469 126.237 245.408V244.498C126.221 243.419 126.423 242.348 126.83 241.35C127.187 240.479 127.81 239.743 128.611 239.25C129.381 238.756 130.28 238.5 131.194 238.516C132.126 238.502 133.044 238.744 133.848 239.215C134.614 239.738 135.219 240.465 135.594 241.315C136.018 242.321 136.22 243.407 136.187 244.498V245.303Z" fill="#A2A2A2"/>
<path d="M237.861 260.312H236.22L229.97 250.761V260.312H228.329V247.892H229.97L236.22 257.513V247.892H237.861V260.312Z" fill="#A2A2A2"/>
<path d="M339.005 141.641H344.906V142.97H337.364V130.55H339.005V141.641Z" fill="#A2A2A2"/>
<path d="M467.59 191.192C464.637 191.192 463.595 191.471 464.116 192.168C465.263 192.359 466.428 192.429 467.59 192.377C470.091 192.377 470.681 192.377 470.681 191.785C470.681 191.192 470.091 191.192 467.52 191.192" fill="#A2A2A2"/>
<path d="M459.009 191.192C456.265 191.192 455.258 191.506 455.536 192.307C456.594 192.555 457.688 192.614 458.766 192.482C461.024 192.482 461.788 192.203 461.788 191.75C461.788 191.297 461.129 191.192 458.836 191.192" fill="#A2A2A2"/>
<path d="M470.715 151.542C471.41 151.089 470.923 150.288 469.951 150.288C468.978 150.288 468.596 150.915 468.978 151.507C469.36 152.099 469.951 152.03 470.715 151.507" fill="#A2A2A2"/>
<path d="M484.682 234.573C483.71 234.886 483.779 237.291 484.682 237.291C484.891 237.291 485.099 236.663 485.099 235.862C485.099 235.061 484.925 234.503 484.613 234.573" fill="#A2A2A2"/>
<path d="M587.469 151.088C587.469 151.367 587.469 151.506 587.781 151.367C587.834 151.284 587.862 151.187 587.862 151.088C587.862 150.99 587.834 150.893 587.781 150.81C587.608 150.81 587.469 150.81 587.469 151.088Z" fill="#A2A2A2"/>
<path d="M485.169 65.0954C485.169 64.1198 484.961 63.7017 484.544 63.7017C484.127 63.7017 483.675 65.6877 484.231 66.2104C484.787 66.733 485.169 66.4195 485.169 65.0954Z" fill="#A2A2A2"/>
<path d="M484.506 123.04C484.957 123.04 485.166 122.621 485.166 121.785C485.166 120.252 484.193 120.391 484.02 121.785C484.02 122.552 484.019 122.865 484.506 122.865" fill="#A2A2A2"/>
<path d="M646.558 56.9427H647.635V151.019C647.635 226.176 647.635 245.096 647.218 245.096H646.211C645.308 245.096 645.308 245.862 646.211 248.963C647.218 252.657 647.739 254.782 647.774 255.2C647.809 255.618 518.898 255.618 518.55 255.2C518.203 254.782 518.203 198.963 518.55 198.963C520.319 200.445 521.979 202.051 523.518 203.772C525.049 205.487 526.698 207.094 528.451 208.58C529.306 208.101 530.089 207.502 530.778 206.803L532.793 205.061L529.91 202.064C528.84 201.076 527.863 199.992 526.992 198.824C529.553 198.555 532.129 198.462 534.703 198.545C544.499 198.545 543.839 198.998 544.013 191.577V186.281L562.737 186.037C573.158 186.037 591.082 185.758 602.789 185.723C616.684 185.723 624.048 185.549 624.048 185.27C624.048 184.991 623.18 184.887 622.103 184.887C621.374 184.952 620.639 184.857 619.949 184.608C620.098 183.137 620.413 181.687 620.887 180.288C622.277 175.375 622.277 174.957 621.165 174.782H620.262V126.42H621.165C621.652 126.42 622.068 126.002 622.068 125.723C622.068 125.444 620.505 119.207 619.845 117.152C619.602 116.385 619.845 116.315 621.617 116.315C623.388 116.315 623.666 116.141 623.666 115.688C623.666 115.235 618.838 115.096 583.996 115.026H544.291V108.058C544.291 102.03 544.082 101.089 543.527 100.566C542.971 100.044 539.775 100.044 530.535 100.044H518.238V46.8382H582.989C618.595 46.8382 647.739 46.8382 647.739 47.1518C647.739 47.4654 647.184 49.6954 646.176 53.3191C645.725 55.0612 645.343 56.5246 645.343 56.6292C645.343 56.7337 645.829 56.873 646.454 56.9427H646.558ZM518.655 193.737C520.977 195.322 523.089 197.195 524.942 199.312L530.778 205.166L529.805 206.211C529.469 206.61 529.07 206.952 528.624 207.221C526.926 205.722 525.325 204.116 523.83 202.413C522.335 200.627 520.645 199.015 518.793 197.605C518.099 197.605 517.994 194.12 518.793 193.737H518.655ZM517.161 187.465C517.161 192.064 517.161 192.831 516.57 192.657C515.98 192.483 515.459 193.179 516.327 194.155C517.196 195.131 517.161 195.375 517.161 206.28V217.535L516.153 218.545C513.896 220.81 513.618 220.845 498.785 220.845H485.167V206.733V192.587H486.488C487.252 192.587 487.773 192.239 487.773 191.925C487.773 191.612 487.252 191.333 486.488 191.228H485.167L484.994 187.012C485.059 185.58 484.847 184.148 484.368 182.796C483.892 184.148 483.691 185.581 483.778 187.012L483.57 191.228H482.493C480.93 191.437 481.034 192.517 482.493 192.517H483.708V220.984H469.188C454.807 220.984 454.703 220.984 453.452 220.113L452.132 219.173V207.117C452.132 195.584 452.132 194.991 452.931 194.329C453.73 193.667 453.938 192.936 452.931 192.936C451.924 192.936 452.167 192.483 452.028 187.43C451.854 181.019 451.646 180.462 446.574 172.657C445.483 171.124 444.519 169.504 443.691 167.814C443.691 167.535 445.532 167.152 448.624 166.803L453.487 166.246V165.026C453.487 163.842 453.487 163.737 455.988 162.727C456.932 162.25 457.957 161.954 459.01 161.855C459.498 162.475 459.907 163.154 460.226 163.876C462.95 168.671 466.957 172.605 471.793 175.235C474.44 176.668 477.346 177.556 480.339 177.849C483.187 178.301 483.57 178.441 483.813 179.242C484.056 180.044 484.716 180.427 485.029 179.242C485.341 178.058 485.654 178.232 488.294 177.814C493.931 176.923 499.138 174.254 503.161 170.194C507.183 166.134 509.812 160.895 510.665 155.235L511.151 152.03H517.786C525.915 152.03 525.567 152.03 525.567 151.263C525.567 150.497 523.17 150.671 506.462 150.671C496.04 150.671 487.425 150.671 487.425 150.427C487.425 150.183 488.502 149.66 503.162 143.772L514.764 139.103L515.424 139.974C515.806 140.427 516.223 140.845 516.362 140.845C516.501 140.845 518.238 139.556 520.252 138.023C521.502 136.943 522.893 136.041 524.386 135.34C525.797 138.071 526.759 141.012 527.235 144.051C528.487 152.563 527.282 161.257 523.761 169.103C522.793 170.877 521.714 172.588 520.53 174.225C517.62 178.05 516.3 182.859 516.848 187.639L517.161 187.465ZM516.848 255.897H500.973H485.063V247.814C485.063 240.845 484.855 239.66 484.368 239.66C483.882 239.66 483.778 240.915 483.778 247.883V256.106H475.788C467.729 256.106 467.59 256.106 466.479 257.082L465.367 258.023V265.2C465.367 271.019 465.159 272.482 464.638 273.04C464.116 273.597 463.213 273.772 458.697 273.772C456.785 273.962 454.853 273.796 453 273.284C452.618 272.901 452.514 266.524 452.514 247.012V221.193L453.417 221.716C458.608 222.415 463.85 222.66 469.084 222.448H483.882V227.395C483.882 231.333 484.056 232.273 484.542 232.273C485.029 232.273 485.167 231.333 485.237 227.395V222.448H499.445C513.34 222.239 513.652 222.204 515.146 221.368C515.684 221.003 516.253 220.688 516.848 220.427C516.848 220.427 517.022 228.441 517.022 238.267L516.848 255.897ZM516.848 264.434C516.848 270.148 516.848 271.995 516.292 272.587C515.737 273.179 515.146 273.354 510.179 273.423C508.177 273.531 506.171 273.531 504.169 273.423C503.787 273.249 503.648 271.437 503.648 266.455C503.898 263.873 503.698 261.267 503.057 258.754C502.817 258.346 502.619 257.914 502.467 257.465C504.848 257.132 507.256 257.027 509.657 257.152H516.848V264.434ZM516.848 285.897C516.848 296.35 516.848 297.186 516.188 297.186C514.524 296.879 512.878 296.483 511.255 296.002C508.928 295.305 506.948 294.782 506.774 294.782C506.601 294.782 506.462 295.374 506.462 296.002V297.186H462.38V296.246C462.408 295.811 462.285 295.38 462.032 295.026C460.442 295.202 458.872 295.528 457.343 296.002C454.946 296.629 452.723 297.186 452.479 297.186C452.236 297.186 451.958 294.678 451.958 285.967V274.747H458.419H464.881L465.714 273.632C466.479 272.587 466.548 271.855 466.687 265.409C466.826 258.963 466.93 258.232 467.486 257.848C470.287 257.211 473.174 257.034 476.031 257.326H483.952V259.939C483.952 261.925 483.952 262.517 484.542 262.517C485.133 262.517 485.167 261.89 485.237 260.044V257.5H492.914C499.862 257.5 500.66 257.5 501.32 258.232C501.98 258.963 502.085 259.939 502.224 266.176C502.502 275.584 501.946 275.096 510.7 274.887H517.022L516.848 285.897ZM450.43 197.186C450.285 197.199 450.139 197.18 450.001 197.132C449.863 197.084 449.737 197.008 449.631 196.908C449.248 191.258 449.248 185.589 449.631 179.939C450.604 179.939 450.916 182.343 450.916 189.591C450.916 195.653 450.916 197.186 450.395 197.186H450.43ZM447.998 196.803C447.839 196.746 447.696 196.65 447.581 196.524C447.146 189.807 447.146 183.068 447.581 176.35C448.023 179.734 448.151 183.152 447.964 186.559C447.964 192.169 447.964 196.803 447.964 196.803H447.998ZM446.088 185.549H434.277C427.816 185.549 422.501 185.549 422.501 185.34C422.868 184.449 423.322 183.598 423.856 182.796C426.656 178.417 428.162 173.33 428.198 168.127C428.286 162.934 426.756 157.842 423.821 153.563C423.265 152.831 422.883 152.169 423.022 152.03C423.161 151.89 434.763 151.751 439.14 152.03C439.418 152.03 439.696 153.493 439.835 155.828C439.897 161.226 441.461 166.499 444.351 171.054L446.088 173.842V185.549ZM421.042 184.225C420.833 184.225 420.173 183.667 419.618 182.831C416.846 179.116 415.237 174.658 414.996 170.024C414.755 165.39 415.892 160.788 418.263 156.803C419.027 155.479 420.034 154.016 420.451 153.319L421.285 152.343L422.292 153.563C424.511 156.709 425.979 160.326 426.581 164.132C427.184 167.939 426.905 171.833 425.766 175.514C424.714 178.617 423.139 181.516 421.111 184.085L421.042 184.225ZM456.266 161.298C453.869 162.274 452.549 162.413 452.549 161.612C452.549 160.288 451.576 160.636 448.068 163.284C446.018 164.817 444.142 166.141 443.899 166.315C443.656 166.49 443.239 165.723 442.857 164.643C441.845 161.687 441.26 158.601 441.12 155.479C440.877 151.995 440.877 151.751 441.607 151.751C445.636 151.751 457.099 151.751 457.238 151.751C457.51 152.646 457.674 153.57 457.725 154.504C457.899 155.819 458.154 157.122 458.489 158.406C458.975 160.009 458.975 160.009 456.266 161.159V161.298ZM510.179 151.612L509.901 153.737C509.234 159.039 506.955 164.007 503.376 167.966C499.796 171.924 495.088 174.681 489.892 175.862C486.454 176.511 482.932 176.581 479.47 176.071C475.039 175.099 470.913 173.054 467.451 170.113C464.429 167.396 460.261 161.298 460.955 160.601C461.65 159.904 481.798 151.925 482.944 151.716H484.056V163.354C483.924 167.252 484.099 171.155 484.577 175.026C485.076 171.18 485.251 167.299 485.098 163.423V151.786L510.179 151.612ZM519.697 190.322C519.697 191.995 519.384 192.448 518.793 191.821C518.548 191.201 518.453 190.533 518.516 189.869C518.516 188.476 518.516 188.162 519.106 188.336C519.697 188.51 519.697 189.138 519.697 190.322ZM518.516 186.002V183.842C518.516 182.552 518.516 181.681 518.932 181.681C520.641 182.904 522.244 184.267 523.726 185.758L528.103 189.8V191.925C528.176 192.717 528.069 193.515 527.79 194.26C526.059 193.066 524.443 191.713 522.962 190.218L518.516 186.002ZM542.832 196.455C542.832 196.943 542.415 197.361 542.241 197.361C542.068 197.361 541.859 189.347 541.894 174.399C541.929 159.451 542.137 151.437 542.415 151.437C542.693 151.437 543.214 194.747 542.832 196.455ZM582.433 128.441C583.512 133.466 582.864 138.711 580.592 143.319C579.682 145.498 578.32 147.458 576.597 149.068C575.791 148.386 575.119 147.559 574.617 146.629C572.087 142.945 570.863 138.515 571.143 134.051C571.014 131.621 571.272 129.186 571.907 126.838C572.974 123.8 574.397 120.899 576.145 118.197L576.944 117.187L577.743 118.197C579.826 121.338 581.386 124.798 582.363 128.441H582.433ZM576.527 183.946L575.381 185.166H559.992C554.778 185.343 549.558 185.203 544.36 184.747C544.117 184.364 544.048 152.274 544.36 152.03C544.673 151.786 551.759 152.03 560.583 151.855H576.632L577.743 153.075C579.635 155.457 581.179 158.096 582.329 160.915C582.687 163.032 582.85 165.178 582.815 167.326C583.022 169.841 582.69 172.371 581.842 174.747C580.569 178.063 578.8 181.165 576.597 183.946H576.527ZM617.726 126.315H618.803V150.322C618.803 175.061 618.803 175.409 617.414 174.713C616.024 174.016 616.476 175.375 617.691 179.626C618.317 181.995 618.872 184.19 618.872 184.469C618.872 184.747 614.496 184.956 598.308 184.956C586.983 184.956 577.709 184.782 577.709 184.608C577.902 184.105 578.171 183.635 578.507 183.214C580.483 180.434 582.051 177.383 583.162 174.155C584.125 170.788 584.353 167.253 583.831 163.79C583.31 160.327 582.051 157.017 580.14 154.085C579.54 153.385 579.07 152.582 578.751 151.716C579.768 151.513 580.806 151.431 581.842 151.472C584.1 151.472 584.725 151.472 584.725 150.88C584.725 150.288 583.996 150.218 581.252 150.148H577.778L578.751 148.859C580.512 146.42 581.949 143.761 583.023 140.95C583.833 138.492 584.163 135.902 583.996 133.319C584.291 127.499 582.449 121.772 578.82 117.221L578.091 116.106H598.516C614.6 116.106 618.942 116.106 618.942 116.629C618.942 117.152 618.421 118.998 617.761 121.298C617.101 123.598 616.545 125.653 616.545 125.793C616.545 125.932 617.031 126.106 617.691 126.211L617.726 126.315ZM543.11 115.166H522.267V110.775H543.11V115.166ZM522.267 104.051V101.228H543.11V106.838H533.001C529.525 106.937 526.046 106.844 522.58 106.559C522.321 105.643 522.227 104.687 522.302 103.737L522.267 104.051ZM532.723 108.058C541.686 108.058 543.145 108.058 543.145 108.65C543.145 109.242 541.72 109.242 532.723 109.242C523.726 109.242 522.302 109.242 522.302 108.65C522.302 108.058 523.726 108.058 532.723 108.058ZM415.38 128.685C416.876 124.11 419.34 119.914 422.605 116.385C422.779 116.385 436.674 116.106 453.383 116.176H483.743V117.117C483.743 117.605 484.125 117.988 484.403 117.988C484.681 117.988 485.029 117.605 485.098 117.117V116.176H529.84C555.059 116.176 574.756 116.176 574.999 116.455C575.242 116.734 574.756 117.709 573.957 118.929C572.247 121.835 570.949 124.966 570.101 128.232C569.511 132.738 569.71 137.314 570.691 141.751C571.559 144.121 572.727 146.369 574.165 148.441C574.499 148.851 574.768 149.309 574.964 149.8C574.964 150.009 565.446 150.183 553.809 150.183C546.651 149.909 539.483 150.048 532.341 150.601C531.82 151.472 533.175 151.821 536.579 151.716H540.053V174.643V197.605H525.012L522.719 195.27C521.086 193.598 520.461 192.657 520.461 191.786C520.461 190.915 520.461 190.706 520.774 190.706C521.818 191.479 522.784 192.355 523.657 193.319C525.845 195.549 526.436 195.932 527.443 195.828H528.659V192.692V189.556L525.567 186.629L520.565 181.96C519.825 181.339 519.181 180.611 518.655 179.8C519.403 177.776 520.483 175.892 521.85 174.225C523.876 171.541 525.416 168.522 526.401 165.305C527.6 161.421 528.346 157.41 528.624 153.354C528.628 153.04 528.694 152.73 528.819 152.443C528.945 152.156 529.126 151.897 529.354 151.681C529.944 151.159 529.979 151.089 529.354 150.636C528.728 150.183 528.624 149.103 528.485 146.908C528.14 142.975 527.228 139.114 525.776 135.444L525.046 133.981L519.523 134.713L513.652 135.479C513.479 135.479 513.444 135.758 513.652 136.072C513.861 136.385 514 136.908 514.104 137.256C514.208 137.605 513.444 138.162 511.186 139.033L496.735 144.852C490.448 147.396 485.202 149.382 485.029 149.277C484.724 145.278 484.62 141.266 484.716 137.256C484.716 127.953 484.716 125.41 484.23 125.549C483.743 125.688 483.674 128.615 483.57 138.023V150.288H478.255C473.913 150.288 472.975 150.531 472.975 151.019C472.975 151.507 473.53 151.612 475.649 151.612C476.617 151.569 477.586 151.651 478.533 151.855C478.706 151.855 477.838 152.448 476.692 152.901L467.799 156.664C465.333 157.777 462.776 158.674 460.156 159.347C459.253 157.424 458.745 155.338 458.663 153.214L458.489 151.89H462.206C464.846 151.89 465.992 151.89 466.34 151.333C466.687 150.775 466.652 150.706 466.131 150.531C465.61 150.357 455.71 150.288 443.413 150.288H421.355L419.618 148.197C417.443 145.529 415.925 142.385 415.189 139.019C414.452 135.653 414.518 132.16 415.38 128.824V128.685ZM450.847 109.556C452.688 109.556 460.122 109.974 467.347 110.183C474.573 110.392 481.242 110.706 482.284 110.81L483.952 111.019V115.166H465.437C455.258 115.166 446.782 115.166 446.644 114.887C446.407 114.133 446.312 113.341 446.366 112.552C446.366 109.66 446.782 109.382 450.847 109.73V109.556ZM482.666 84.7127C480.26 85.0941 477.996 86.1035 476.101 87.6396C474.85 88.7197 474.746 88.7197 468.667 88.7197C466.521 88.7893 464.373 88.6961 462.241 88.441C462.002 87.5323 461.908 86.5915 461.963 85.6535V83.1797L463.908 82.4828C468.321 81.0877 472.878 80.1993 477.491 79.8347C479.437 79.5852 481.403 79.5268 483.361 79.6605C483.778 79.6605 483.952 80.4967 483.952 82.3086V84.7127H482.666ZM473.148 102.448C473.609 102.682 474.004 103.03 474.295 103.458C474.295 103.807 473.53 103.946 470.821 103.946H467.347L467.521 101.333C467.728 100.149 467.558 98.9298 467.034 97.8486C466.559 96.8131 466.345 95.6766 466.409 94.5385C466.409 92.6221 466.409 92.0995 467.486 91.0542C468.563 90.0089 468.841 89.9392 470.96 89.9392C473.808 89.9392 474.121 90.3922 472.488 91.9601C471.585 92.8312 471.481 93.1448 471.481 96.9078C471.481 101.263 471.655 101.786 473.079 102.483L473.148 102.448ZM463.109 90.7406C463.536 92.4595 463.665 94.2391 463.491 96.0019C463.491 100.88 463.491 101.263 464.29 101.437C465.089 101.612 465.089 102.03 465.089 102.831C465.089 103.633 465.089 103.981 464.186 103.981C463.763 104.003 463.342 103.906 462.97 103.702C462.516 99.3937 462.516 95.0492 462.97 90.7406H463.109ZM451.75 88.8591V74.225L452.896 74.4689L455.571 74.9567C457.829 75.34 459.323 76.1762 459.809 77.3957C460.295 78.6152 460.365 102.936 459.809 103.633C457.186 104.052 454.512 104.052 451.889 103.633C451.889 103.633 451.611 96.6639 451.611 88.7894L451.75 88.8591ZM451.611 106.838V105.305H463.179H474.677L476.518 106.525C478.529 107.767 480.777 108.574 483.118 108.894C483.206 108.93 483.28 108.994 483.33 109.075C483.38 109.157 483.403 109.252 483.396 109.347C483.396 109.8 482.111 109.765 464.394 109.138L451.507 108.615C451.388 108.099 451.388 107.563 451.507 107.047L451.611 106.838ZM481.346 97.7441H483.952V106.943H482.875C481.785 106.797 480.728 106.467 479.748 105.967C478.266 105.287 476.955 104.283 475.909 103.029C474.863 101.775 474.11 100.303 473.704 98.7197C473.53 97.8486 473.704 97.7441 475.128 97.6396C477.351 97.6396 477.351 96.7685 475.128 96.5246C472.905 96.2807 473.322 96.2807 473.426 95.1309C473.743 93.1743 474.568 91.336 475.818 89.8008C477.068 88.2656 478.699 87.0876 480.547 86.3852C484.021 85.1309 484.021 84.9566 484.021 91.089V96.4897H481.346C477.873 96.4897 477.873 97.3608 481.346 97.535V97.7441ZM513.93 103.493C512.615 103.588 511.293 103.494 510.005 103.214C508.372 102.552 508.199 101.298 508.511 90.3922C508.511 84.7824 508.928 79.5211 509.136 78.7197C509.657 76.7685 510.665 76.0019 513.409 75.2354L516.466 74.434C517.091 74.1553 517.126 74.9566 517.057 88.6848V103.284L513.93 103.493ZM485.167 91.2633V85.9323H486.383C488.792 86.4976 490.965 87.8005 492.601 89.6604C493.915 91.3406 494.734 93.3564 494.964 95.4793C494.964 96.3155 494.755 96.4549 493.574 96.4549C492.393 96.4549 492.184 96.664 492.184 97.0472C492.184 97.4305 492.601 97.6396 493.574 97.6396C495.207 97.6396 495.207 97.6395 494.199 100.183C493.559 101.772 492.551 103.185 491.258 104.306C489.966 105.427 488.425 106.223 486.765 106.629C486.105 106.629 485.411 106.629 485.272 106.629C485.004 105.1 484.911 103.545 484.994 101.995V97.7441H487.773C489.996 97.7441 490.587 97.7441 490.587 97.1518C490.587 96.5594 489.996 96.5594 487.773 96.5594H485.167V91.2633ZM495.867 91.8556C495.207 91.089 494.755 90.3225 494.859 90.1134C495.77 89.7817 496.742 89.651 497.708 89.7301C500.105 89.7301 500.348 89.7302 501.459 91.0542C502.571 92.3782 502.641 92.657 502.675 94.7476C502.74 95.8562 502.55 96.9649 502.119 97.988C501.666 98.9973 501.418 100.087 501.39 101.194V103.563H497.916C496.756 103.685 495.584 103.626 494.442 103.389C494.825 102.789 495.293 102.249 495.832 101.786L497.256 100.497V96.8033C497.256 93.319 497.256 93.0403 496.04 91.7162L495.867 91.8556ZM506.462 96.6988V103.424H505.385C504.412 103.424 504.238 103.424 504.238 102.552C504.212 102.292 504.278 102.031 504.424 101.815C504.57 101.598 504.787 101.44 505.037 101.368C505.802 101.159 505.836 100.81 505.836 95.758C505.694 93.843 505.834 91.9175 506.253 90.0437C506.531 90.0437 506.635 92.0298 506.566 96.5594L506.462 96.6988ZM500.487 88.2667H494.06L492.115 87.2911C490.808 86.3998 489.396 85.6742 487.912 85.1309L485.515 84.3643V82.0995V79.765L489.857 80.0089C494.539 80.3333 499.187 81.0442 503.752 82.1344C507.886 83.1448 507.955 83.1797 507.955 85.6187C508.021 86.5172 507.853 87.4174 507.469 88.2319C505.196 88.7777 502.848 88.9426 500.522 88.7197L500.487 88.2667ZM517.265 112.169V114.957H501.633C493.053 114.957 485.932 114.957 485.793 114.748C485.54 114.094 485.445 113.389 485.515 112.692V110.95L495.936 111.228C501.598 111.228 508.754 111.612 511.811 111.786L517.265 112.169ZM515.077 110.601C513.895 110.601 506.809 110.601 499.41 110.183C484.542 109.73 483.014 109.451 487.808 108.197C489.164 107.759 490.46 107.151 491.663 106.385L493.435 105.131H505.35H517.265V110.357L515.077 110.601ZM452.827 29.7651C453.313 28.7895 453.452 28.7546 458.524 28.6501C462.553 28.6501 463.908 28.6501 464.499 29.1379C465.089 29.6257 465.298 30.3226 465.506 37.3609C465.784 47.5699 464.915 46.7685 475.927 46.9428H484.334V54.225C484.508 63.9462 485.167 63.9811 485.48 54.225L485.654 47.0125L493.921 46.8034C501.181 46.8034 502.328 46.5247 502.918 45.8626C503.509 45.2006 503.683 44.1205 503.856 36.9776C503.837 34.1351 504.011 31.2946 504.377 28.4759C506.306 28.1587 508.259 28.0071 510.213 28.0229C517.682 28.0229 517.161 27.2564 517.161 37.5351V45.4794H510.213C504.933 45.4794 503.266 45.6884 503.474 46.0717C503.683 46.455 505.489 46.5943 510.422 46.6989H517.369V59.4863C517.369 69.9393 517.369 72.3435 516.813 72.7267C515.799 73.2836 514.712 73.6941 513.583 73.9462C512.317 74.2812 511.093 74.7606 509.935 75.3748C509.276 75.963 508.745 76.6812 508.374 77.4844C508.003 78.2877 507.802 79.1589 507.782 80.0438C507.782 81.1936 507.782 81.2633 506.705 81.0542C505.628 80.8452 503.926 80.4619 501.98 80.0089C498.958 79.3818 491.108 78.2668 486.8 77.8835H485.584V73.1796C485.584 69.3817 485.376 68.441 484.89 68.441C484.403 68.441 484.299 69.3817 484.23 73.1796V77.8835L479.644 78.1622C475.126 78.2985 470.643 79.0127 466.305 80.2877L462.657 81.2981C462.657 81.2981 462.449 80.6013 462.449 79.7999C462.445 78.7444 462.203 77.7036 461.739 76.7559C461.276 75.8083 460.604 74.9786 459.774 74.3295C458.586 73.8699 457.351 73.5427 456.092 73.3539C455.03 73.2032 453.999 72.8857 453.035 72.4131C452.218 58.1392 452.218 43.83 453.035 29.556L452.827 29.7651ZM466.93 18.7198L468.042 18.9637L472.662 20.2181C476.518 21.2634 477.317 21.2285 477.317 19.9393C477.317 18.6501 477.56 19.1379 485.098 19.1379H492.914V20.1484C492.914 21.3331 492.914 21.3331 496.735 20.1484C502.189 18.7547 503.023 18.5456 503.162 18.7547C503.294 27.3939 502.992 36.0343 502.258 44.6431C497.089 45.3238 491.87 45.5453 486.661 45.3051C485.758 45.0612 485.723 44.887 485.723 41.6118C485.723 39.0334 485.723 38.1274 485.237 38.3365C484.751 38.5456 484.612 39.6954 484.507 41.8208L484.299 45.3051H477.108C473.148 45.3051 469.501 45.3051 469.049 45.3051C467 44.9219 466.93 44.3644 466.93 31.0891V18.7198ZM519.037 101.298H520.357H521.607V114.504H520.357H519.037V101.298ZM651.908 255.723C650.919 255.786 649.926 255.716 648.955 255.514C649.098 253.974 649.412 252.454 649.893 250.984C651.352 245.514 651.352 245.305 649.893 245.305H648.677V151.228V57.1518H649.789C650.935 57.1518 651.04 56.8034 650.518 54.6779C649.997 52.5525 648.921 48.6152 648.643 47.7093C648.365 46.8034 648.643 47.0125 651.317 46.9079C653.193 46.9079 654.27 46.6292 654.374 46.2808C654.479 45.9323 640.479 45.7581 586.358 45.7581H518.342V37.8139C518.342 29.5212 518.099 28.1275 516.362 27.3609C514.179 27.0255 511.969 26.8972 509.762 26.9776H503.961V20.671C503.961 16.1066 503.717 14.3644 503.37 14.225C503.023 14.0857 502.849 14.6432 502.849 16.1414C502.849 18.5804 503.231 18.5456 496.839 16.7686C494.755 16.2111 492.914 15.7233 492.775 15.7233C492.636 15.7233 492.462 16.2111 492.358 16.8731V17.9533H484.681H476.969V16.7686C476.969 16.0717 476.761 15.5491 476.483 15.5491C474.887 15.8668 473.31 16.274 471.759 16.7686C469.466 17.3958 467.347 17.9533 467.104 17.9533C466.861 17.9533 466.583 17.2912 466.583 15.9672C466.583 14.6432 466.583 13.9463 465.958 13.9463C465.332 13.9463 465.367 14.9567 465.367 20.7059V27.3957H459.045C453.035 27.3957 452.688 27.3957 452.097 28.1275C451.507 28.8592 451.298 29.9045 451.159 68.7197V108.441L448.554 108.232L445.983 107.988V111.472V114.957L433.026 115.166C423.126 115.34 420.035 115.479 419.861 115.897C419.687 116.316 419.861 116.385 420.347 116.385C421.25 116.385 421.146 116.734 419.548 118.964C416.042 123.505 414.114 129.073 414.06 134.817C413.916 139.767 415.529 144.607 418.61 148.476C419.083 148.999 419.48 149.585 419.791 150.218C419.024 150.435 418.225 150.517 417.429 150.462C415.275 150.462 413.955 150.95 414.754 151.542C415.613 151.784 416.503 151.89 417.394 151.855C418.299 151.833 419.201 151.95 420.069 152.204C420.069 152.204 420.069 152.866 419.513 153.389C417.597 155.933 416.15 158.8 415.241 161.855C413.783 166.446 413.783 171.377 415.241 175.967C416.257 179.322 417.895 182.455 420.069 185.2L421.424 186.943H433.895H446.366V191.96C446.366 197.814 446.782 198.371 449.527 198.371H451.264V248.998C451.264 276.873 451.264 299.8 451.542 299.904C451.819 300.009 452.445 300.148 452.445 299.207C452.445 298.266 453.035 297.918 457.864 299.207C461.859 300.322 462.866 300.287 462.866 298.963C462.866 297.639 462.866 298.162 485.029 298.162H507.226V299.172C507.226 299.765 507.469 300.183 507.816 300.183C508.164 300.183 514.938 298.51 516.883 297.918C517.369 297.744 517.578 297.918 517.682 298.789C517.786 299.66 518.064 299.974 518.342 300.078C518.62 300.183 518.828 295.479 518.828 278.545V256.873H586.844C640.827 256.873 654.895 256.664 655.034 256.28C655.173 255.897 654.444 255.758 652.394 255.758" fill="#A2A2A2"/>
<path d="M517.128 46.8373V59.6248C517.128 70.0777 517.128 72.4819 516.572 72.8652C515.558 73.422 514.47 73.8326 513.341 74.0847C512.075 74.4198 510.851 74.899 509.694 75.5132C509.035 76.1015 508.503 76.8196 508.133 77.6229C507.762 78.4262 507.56 79.2974 507.54 80.1823C507.54 81.3321 507.54 81.4018 506.463 81.1927C505.386 80.9836 503.684 80.6004 501.739 80.1474C498.717 79.5202 490.866 78.4052 486.559 78.022H485.343V73.3182C485.343 69.5203 485.134 68.5795 484.648 68.5795C484.162 68.5795 484.058 69.5203 483.988 73.3182V78.022L479.403 78.3007C474.884 78.4369 470.402 79.1512 466.063 80.4261L462.416 81.4366C462.416 81.4366 462.208 80.7397 462.208 79.9383C462.204 78.8829 461.961 77.842 461.498 76.8944C461.034 75.9468 460.362 75.1171 459.533 74.468C458.345 74.0084 457.11 73.6812 455.851 73.4923C454.789 73.3417 453.757 73.0242 452.794 72.5516C451.976 58.2777 451.976 43.9685 452.794 29.6945C453.28 28.7189 453.419 28.6841 458.491 28.5795C462.52 28.5795 463.875 28.5795 464.466 29.0673C465.056 29.5552 465.264 30.252 465.473 37.2903C465.751 47.4994 464.882 46.698 475.894 46.8722H484.301V54.1544C484.474 63.8756 485.134 63.9105 485.447 54.1544L485.621 46.9419L493.888 46.7328C501.148 46.7328 502.295 46.4541 502.885 45.792C503.476 45.13 503.649 44.0499 503.823 36.9071C503.804 34.0646 503.978 31.224 504.344 28.4053C506.273 28.0881 508.226 27.9366 510.18 27.9524C517.649 27.9524 517.128 27.1858 517.128 37.4645V45.4785H510.18C504.9 45.4785 503.233 45.6875 503.441 46.0708C503.65 46.4541 505.456 46.5934 510.389 46.698L517.128 46.8373Z" fill="#D3D3D3"/>
<path d="M507.539 85.4431C507.604 86.3417 507.437 87.2419 507.053 88.0564C504.78 88.6022 502.432 88.767 500.105 88.5442H493.679L492.116 87.2898C490.809 86.3984 489.397 85.6728 487.913 85.1295L485.516 84.363V82.0982V79.7637L489.858 80.0076C494.54 80.332 499.187 81.0429 503.753 82.133C507.887 83.1435 507.956 83.1783 507.956 85.6173" fill="#D3D3D3"/>
<path d="M483.954 82.1335V84.5377H482.669C480.262 84.9191 477.998 85.9284 476.103 87.4645C474.853 88.5446 474.749 88.5446 468.669 88.5446C466.523 88.6142 464.375 88.521 462.243 88.2659C462.005 87.3572 461.911 86.4164 461.965 85.4784V83.0046L463.91 82.3077C468.324 80.9126 472.88 80.0242 477.493 79.6596C479.439 79.41 481.406 79.3517 483.364 79.4854C483.78 79.4854 483.954 80.3216 483.954 82.1335Z" fill="#D3D3D3"/>
<path d="M483.949 108.998C483.949 109.451 482.664 109.416 464.947 108.789L452.06 108.266C451.941 107.75 451.941 107.214 452.06 106.698V105.165H463.627H475.126L476.967 106.385C478.978 107.627 481.226 108.434 483.567 108.754C483.655 108.79 483.729 108.854 483.779 108.935C483.829 109.016 483.852 109.112 483.845 109.207" fill="#D3D3D3"/>
<path d="M516.92 105.165V110.391H514.731C513.55 110.391 506.464 110.391 499.065 109.973C484.197 109.52 482.668 109.241 487.462 107.987C488.819 107.55 490.114 106.941 491.318 106.175L493.09 104.921H505.005L516.92 105.165Z" fill="#D3D3D3"/>
<path d="M580.659 143.318C579.749 145.497 578.387 147.457 576.664 149.068C575.858 148.386 575.186 147.558 574.684 146.628C572.154 142.944 570.93 138.515 571.21 134.05C571.081 131.62 571.339 129.186 571.974 126.838C573.041 123.799 574.464 120.899 576.212 118.196L577.011 117.186L577.81 118.196C579.893 121.338 581.453 124.797 582.43 128.44C583.51 133.466 582.861 138.71 580.589 143.318" fill="#D3D3D3"/>
<path d="M425.591 175.652C424.538 178.755 422.964 181.654 420.936 184.224C420.728 184.224 420.068 183.666 419.512 182.83C416.74 179.115 415.131 174.657 414.89 170.023C414.649 165.389 415.786 160.787 418.157 156.802C418.921 155.478 419.929 154.015 420.345 153.318L421.179 152.342L422.187 153.562C424.406 156.708 425.873 160.325 426.475 164.131C427.078 167.938 426.799 171.832 425.66 175.513" fill="#D3D3D3"/>
<path d="M476.415 191.192C473.427 191.192 472.385 191.471 472.941 192.168C475.089 192.516 477.289 192.361 479.367 191.715C479.367 191.297 478.708 191.192 476.311 191.192" fill="#A2A2A2"/>
<path d="M510.662 191.262C508.092 191.262 507.536 191.262 507.536 191.75C507.536 192.238 508.161 192.377 510.246 192.482C513.719 192.691 513.719 192.482 513.719 191.959C513.719 191.436 512.955 191.367 510.662 191.262Z" fill="#A2A2A2"/>
<path d="M490.483 191.367C490.415 191.377 490.349 191.403 490.293 191.443C490.236 191.482 490.189 191.534 490.155 191.595C490.122 191.655 490.103 191.723 490.099 191.792C490.096 191.861 490.108 191.931 490.135 191.994C492.259 192.489 494.475 192.417 496.562 191.785C494.588 191.213 492.516 191.07 490.483 191.367Z" fill="#A2A2A2"/>
<path d="M501.946 191.262C499.271 191.262 498.75 191.262 498.75 191.785C498.75 192.307 499.271 192.377 502.05 192.307C503.995 192.307 505.315 192.029 505.246 191.785C504.189 191.401 503.069 191.223 501.946 191.262Z" fill="#A2A2A2"/>
<path d="M485.621 0.182617H487.254V8.92826C487.292 9.44391 487.215 9.96158 487.029 10.4437C486.842 10.9258 486.552 11.3603 486.177 11.7157C485.409 12.4115 484.397 12.7747 483.363 12.7261C482.318 12.7937 481.286 12.4571 480.48 11.7854C480.13 11.4425 479.857 11.0293 479.677 10.573C479.498 10.1167 479.416 9.62741 479.438 9.13731H481.071C481.048 9.74993 481.259 10.3482 481.661 10.8098C481.89 11.0187 482.159 11.1789 482.452 11.2807C482.744 11.3825 483.055 11.4238 483.363 11.4021C483.662 11.4176 483.96 11.3663 484.237 11.2518C484.513 11.1373 484.761 10.9625 484.961 10.7401C485.191 10.508 485.369 10.2294 485.482 9.923C485.596 9.61657 485.644 9.28932 485.621 8.96308V0.182617Z" fill="#A2A2A2"/>
<path d="M493.923 122.725V132.586H495.66C496.203 132.62 496.748 132.531 497.253 132.326C497.758 132.121 498.21 131.805 498.578 131.401C499.366 130.422 499.741 129.171 499.62 127.917V127.22C499.739 125.978 499.392 124.736 498.647 123.736C498.291 123.346 497.855 123.039 497.37 122.834C496.884 122.63 496.36 122.533 495.833 122.551L493.923 122.725ZM492.29 133.806V121.401H495.764C496.762 121.383 497.746 121.636 498.612 122.133C499.439 122.596 500.106 123.301 500.523 124.154C500.979 125.099 501.217 126.135 501.218 127.185V127.987C501.231 129.049 500.993 130.1 500.523 131.053C500.095 131.898 499.431 132.601 498.612 133.074C497.711 133.545 496.711 133.795 495.694 133.806H492.29Z" fill="#A2A2A2"/>
<path d="M507.329 128.266C506.215 127.99 505.173 127.48 504.272 126.768C503.968 126.498 503.726 126.165 503.564 125.792C503.402 125.419 503.324 125.014 503.334 124.607C503.323 124.141 503.424 123.678 503.63 123.26C503.836 122.841 504.139 122.479 504.515 122.203C505.368 121.516 506.445 121.169 507.537 121.228C508.317 121.22 509.088 121.387 509.795 121.715C510.416 122.024 510.944 122.493 511.324 123.074C511.691 123.645 511.884 124.311 511.879 124.991H510.247C510.265 124.662 510.212 124.333 510.092 124.026C509.972 123.72 509.788 123.443 509.552 123.214C508.984 122.753 508.267 122.518 507.537 122.552C506.867 122.518 506.205 122.715 505.661 123.109C505.436 123.278 505.255 123.5 505.134 123.755C505.013 124.01 504.956 124.29 504.967 124.573C504.962 124.825 505.02 125.075 505.135 125.3C505.25 125.525 505.419 125.718 505.627 125.862C506.281 126.314 507.01 126.644 507.78 126.837C508.629 127.042 509.447 127.358 510.212 127.778C510.727 128.082 511.166 128.499 511.497 128.998C511.785 129.494 511.929 130.061 511.914 130.635C511.931 131.103 511.832 131.567 511.626 131.987C511.42 132.407 511.113 132.768 510.733 133.039C509.828 133.698 508.722 134.018 507.607 133.945C506.793 133.963 505.985 133.796 505.245 133.458C504.564 133.186 503.974 132.727 503.542 132.134C503.137 131.566 502.929 130.88 502.952 130.182H504.585C504.57 130.521 504.634 130.858 504.773 131.166C504.912 131.475 505.121 131.747 505.384 131.959C506.027 132.429 506.812 132.663 507.607 132.621C508.306 132.67 509.002 132.486 509.587 132.099C509.807 131.933 509.985 131.717 510.106 131.468C510.227 131.22 510.287 130.946 510.282 130.67C510.307 130.36 510.246 130.049 510.104 129.772C509.963 129.495 509.748 129.263 509.483 129.102C508.779 128.649 508.004 128.319 507.19 128.127" fill="#A2A2A2"/>
<path d="M488.153 280.845H482.804V285.235H489.022V286.594H481.171V274.189H488.952V275.548H482.804V279.52H488.153V280.845Z" fill="#A2A2A2"/>
<path d="M603.03 150.949C602.992 151.811 603.223 152.664 603.69 153.388C603.885 153.678 604.149 153.913 604.459 154.071C604.769 154.23 605.114 154.306 605.462 154.294C605.92 154.313 606.374 154.194 606.764 153.952C607.154 153.71 607.463 153.355 607.65 152.935V148.719C607.455 148.318 607.147 147.982 606.765 147.753C606.382 147.524 605.942 147.412 605.497 147.43C605.147 147.411 604.798 147.481 604.482 147.634C604.167 147.786 603.894 148.015 603.69 148.301C603.21 149.097 602.98 150.02 603.03 150.949ZM601.467 150.775C601.395 149.532 601.751 148.302 602.474 147.291C602.776 146.885 603.17 146.556 603.623 146.332C604.076 146.108 604.575 145.995 605.08 146.002C605.564 145.982 606.047 146.072 606.492 146.265C606.937 146.458 607.333 146.749 607.65 147.116V142.308H609.214V155.374H607.789V154.399C607.473 154.779 607.073 155.081 606.621 155.281C606.169 155.48 605.677 155.572 605.184 155.549C604.678 155.564 604.175 155.455 603.721 155.23C603.267 155.005 602.874 154.672 602.579 154.259C601.865 153.243 601.51 152.017 601.571 150.775H601.467Z" fill="#A2A2A2"/>
<path d="M627.765 154.12H633.636V155.478H626.133V143.074H627.765V154.12Z" fill="#A2A2A2"/>
<path d="M639.121 150.007C638.008 149.732 636.965 149.221 636.064 148.509C635.762 148.238 635.522 147.905 635.36 147.532C635.198 147.159 635.118 146.756 635.126 146.349C635.122 145.882 635.223 145.42 635.421 144.998C635.62 144.576 635.911 144.204 636.273 143.91C637.154 143.255 638.233 142.923 639.33 142.969C640.109 142.961 640.88 143.128 641.588 143.457C642.209 143.765 642.736 144.234 643.116 144.816C643.484 145.387 643.677 146.053 643.672 146.732H642.039C642.057 146.403 642.004 146.075 641.884 145.768C641.764 145.461 641.58 145.184 641.344 144.955C640.784 144.48 640.062 144.242 639.33 144.293C638.657 144.242 637.989 144.44 637.454 144.851C637.228 145.02 637.047 145.241 636.926 145.496C636.805 145.751 636.748 146.032 636.759 146.314C636.76 146.566 636.821 146.814 636.935 147.038C637.05 147.262 637.216 147.456 637.419 147.603C638.069 148.055 638.8 148.375 639.573 148.544C640.418 148.774 641.234 149.101 642.004 149.52C642.531 149.808 642.973 150.228 643.29 150.739C643.577 151.236 643.721 151.803 643.707 152.377C643.724 152.844 643.625 153.309 643.419 153.729C643.212 154.148 642.905 154.51 642.525 154.781C641.613 155.424 640.513 155.743 639.399 155.687C638.587 155.687 637.783 155.521 637.037 155.199C636.357 154.927 635.767 154.468 635.335 153.875C634.934 153.305 634.727 152.621 634.744 151.924H636.377C636.362 152.262 636.426 152.599 636.565 152.908C636.704 153.217 636.913 153.488 637.176 153.701C637.819 154.17 638.604 154.404 639.399 154.363C640.098 154.411 640.794 154.228 641.379 153.84C641.604 153.671 641.785 153.449 641.906 153.195C642.028 152.94 642.085 152.659 642.074 152.377C642.087 152.108 642.033 151.84 641.918 151.597C641.803 151.354 641.63 151.143 641.414 150.983C640.718 150.516 639.94 150.185 639.121 150.007Z" fill="#A2A2A2"/>
</svg>
