<svg width="414" height="414" viewBox="0 0 414 414" fill="none" xmlns="http://www.w3.org/2000/svg">
<circle opacity="0.3" cx="207" cy="207" r="206.65" stroke="white" stroke-width="0.7"/>
<path d="M246.76 356.408H194.174C192.783 356.401 191.452 355.843 190.471 354.856C189.49 353.87 188.939 352.535 188.939 351.144V342.271H190.3C191.335 344.696 192.962 344.519 193.938 343.247C194.766 341.266 195.505 339.047 195.505 339.047H206.093C207.856 341.144 210.056 342.829 212.539 343.985C215.022 345.142 217.728 345.741 220.467 345.741C223.206 345.741 225.912 345.142 228.395 343.985C230.878 342.829 233.078 341.144 234.841 339.047H245.37C245.37 339.047 246.435 341.798 247.174 343.306C247.914 344.815 249.955 344.223 250.605 342.271H251.995V351.144C251.995 352.535 251.445 353.87 250.464 354.856C249.483 355.843 248.151 356.401 246.76 356.408" fill="#434343"/>
<path d="M189.441 342.656V351.144C189.441 352.399 189.94 353.603 190.827 354.49C191.715 355.378 192.918 355.876 194.173 355.876H246.759C248.014 355.876 249.218 355.378 250.106 354.49C250.993 353.603 251.492 352.399 251.492 351.144V342.656H250.841C250.685 343.133 250.411 343.562 250.043 343.903C249.676 344.245 249.228 344.487 248.741 344.608C248.315 344.649 247.886 344.565 247.508 344.365C247.129 344.165 246.818 343.859 246.612 343.484C245.99 342.212 245.192 340.26 244.896 339.462H234.929C233.121 341.557 230.883 343.238 228.367 344.392C225.851 345.545 223.116 346.143 220.348 346.146C217.575 346.154 214.832 345.56 212.31 344.406C209.788 343.252 207.545 341.565 205.738 339.462H195.771C195.534 340.172 194.943 341.828 194.321 343.336C194.075 343.699 193.738 343.991 193.343 344.183C192.949 344.375 192.511 344.46 192.074 344.43C191.588 344.32 191.138 344.088 190.766 343.757C190.394 343.426 190.111 343.007 189.944 342.538L189.441 342.656ZM246.759 356.941H194.173C192.63 356.902 191.164 356.262 190.086 355.157C189.009 354.052 188.406 352.569 188.406 351.026V342.153C188.406 342.012 188.462 341.877 188.562 341.777C188.662 341.677 188.797 341.621 188.939 341.621H190.299C190.403 341.616 190.505 341.645 190.591 341.703C190.676 341.762 190.74 341.848 190.772 341.946C191.186 342.893 191.719 343.454 192.251 343.514C192.497 343.522 192.74 343.466 192.958 343.352C193.176 343.238 193.36 343.07 193.493 342.863C194.262 340.941 195.002 338.781 195.002 338.752C195.042 338.65 195.111 338.563 195.2 338.5C195.289 338.436 195.395 338.401 195.504 338.397H206.093C206.252 338.41 206.4 338.484 206.507 338.604C208.219 340.638 210.356 342.273 212.768 343.392C215.18 344.511 217.808 345.087 220.467 345.081C223.117 345.079 225.735 344.501 228.14 343.388C230.545 342.275 232.68 340.653 234.397 338.634V338.634C234.459 338.565 234.538 338.512 234.626 338.481C234.713 338.45 234.808 338.442 234.899 338.456H245.34C245.45 338.456 245.558 338.49 245.648 338.554C245.738 338.617 245.806 338.707 245.843 338.811C245.843 338.811 246.878 341.532 247.617 343.011C247.724 343.197 247.88 343.35 248.068 343.454C248.255 343.558 248.467 343.61 248.682 343.602C249.244 343.602 249.776 342.922 250.072 342.035C250.105 341.928 250.172 341.836 250.263 341.771C250.354 341.707 250.463 341.675 250.575 341.68H251.965C252.035 341.68 252.104 341.694 252.169 341.72C252.233 341.747 252.292 341.786 252.341 341.836C252.391 341.885 252.43 341.944 252.457 342.009C252.483 342.073 252.497 342.142 252.497 342.212V351.085C252.498 352.629 251.895 354.111 250.817 355.216C249.74 356.321 248.273 356.962 246.73 357" fill="#A3A3A3"/>
<path d="M246.76 93.6562H194.174C192.783 93.6641 191.452 94.2222 190.471 95.2086C189.49 96.195 188.939 97.5296 188.939 98.9208V107.794H190.3C191.335 105.368 192.962 105.546 193.938 106.818C194.766 108.799 195.505 111.017 195.505 111.017H206.093C207.856 108.921 210.056 107.236 212.539 106.079C215.022 104.923 217.728 104.324 220.467 104.324C223.206 104.324 225.912 104.923 228.395 106.079C230.878 107.236 233.078 108.921 234.841 111.017H245.37C245.37 111.017 246.435 108.267 247.174 106.758C247.914 105.25 249.955 105.842 250.605 107.794H251.995V98.9208C251.995 97.5296 251.445 96.195 250.464 95.2086C249.483 94.2222 248.151 93.6641 246.76 93.6562" fill="#434343"/>
<path d="M235.05 110.603H244.928C245.224 109.834 246.022 107.852 246.614 106.64C246.811 106.249 247.125 105.928 247.511 105.722C247.897 105.515 248.338 105.433 248.773 105.486C249.256 105.604 249.702 105.842 250.069 106.178C250.436 106.514 250.713 106.937 250.873 107.409H251.405V98.9204C251.405 97.6654 250.907 96.4617 250.019 95.5743C249.132 94.6868 247.928 94.1883 246.673 94.1883H194.176C192.922 94.1936 191.721 94.6931 190.834 95.5783C190.393 96.0159 190.043 96.5366 189.804 97.1103C189.566 97.6839 189.443 98.2991 189.444 98.9204V107.409H189.976C190.143 106.939 190.425 106.52 190.798 106.189C191.17 105.858 191.62 105.626 192.105 105.516C192.543 105.486 192.981 105.572 193.375 105.764C193.769 105.956 194.107 106.248 194.353 106.61V106.61C194.974 108.119 195.536 109.775 195.802 110.485H205.77C207.577 108.381 209.819 106.694 212.342 105.54C214.864 104.386 217.606 103.793 220.38 103.8V103.8C223.148 103.803 225.882 104.401 228.398 105.555C230.914 106.708 233.153 108.389 234.961 110.485L235.05 110.603ZM234.754 111.579C234.68 111.581 234.607 111.566 234.541 111.536C234.474 111.505 234.415 111.459 234.369 111.401V111.401C232.663 109.359 230.527 107.717 228.115 106.592C225.702 105.467 223.071 104.888 220.41 104.895V104.895C217.749 104.904 215.122 105.496 212.715 106.631C210.308 107.765 208.18 109.414 206.479 111.461C206.373 111.58 206.225 111.655 206.065 111.668H195.477C195.368 111.664 195.262 111.628 195.173 111.565C195.084 111.502 195.014 111.414 194.974 111.313C194.974 111.313 194.235 109.124 193.466 107.202C193.333 106.995 193.149 106.826 192.931 106.712C192.713 106.598 192.469 106.543 192.224 106.551C191.691 106.551 191.159 107.172 190.745 108.119C190.713 108.217 190.649 108.302 190.563 108.361C190.478 108.42 190.375 108.449 190.272 108.444H188.911C188.841 108.444 188.772 108.43 188.708 108.403C188.643 108.377 188.584 108.337 188.535 108.288C188.485 108.238 188.446 108.18 188.419 108.115C188.393 108.051 188.379 107.981 188.379 107.911V99.0387C188.378 97.4952 188.981 96.0126 190.059 94.9075C191.136 93.8023 192.603 93.1621 194.146 93.1235H246.732C248.275 93.1621 249.742 93.8023 250.82 94.9075C251.897 96.0126 252.5 97.4952 252.499 99.0387V107.911C252.499 108.053 252.443 108.188 252.344 108.288C252.244 108.388 252.108 108.444 251.967 108.444H250.577C250.466 108.449 250.356 108.417 250.265 108.352C250.174 108.288 250.107 108.195 250.074 108.089C249.778 107.202 249.246 106.581 248.684 106.521C248.122 106.462 247.826 106.847 247.59 107.172C246.88 108.592 245.845 111.283 245.845 111.313C245.808 111.417 245.74 111.507 245.65 111.57C245.56 111.634 245.452 111.668 245.342 111.668H234.813" fill="#A3A3A3"/>
<path d="M246.761 152.778H194.175C192.778 152.778 191.439 152.223 190.452 151.236C189.465 150.249 188.91 148.91 188.91 147.514V136.896C188.91 136.336 189.13 135.799 189.523 135.4C189.916 135.002 190.45 134.774 191.01 134.766H205.798C207.518 137.043 209.758 138.875 212.331 140.11C214.903 141.345 217.734 141.946 220.586 141.865C223.433 141.891 226.247 141.262 228.812 140.026C231.376 138.79 233.621 136.98 235.374 134.737H250.162C250.721 134.745 251.256 134.972 251.649 135.371C252.042 135.769 252.262 136.307 252.262 136.866V147.484C252.254 148.879 251.702 150.216 250.724 151.211C249.744 152.193 248.414 152.746 247.027 152.749" fill="#434343"/>
<path d="M191.009 135.447C190.804 135.449 190.602 135.492 190.414 135.573C190.226 135.654 190.056 135.772 189.915 135.92C189.765 136.066 189.646 136.241 189.564 136.434C189.483 136.627 189.441 136.834 189.441 137.044V147.661C189.441 148.917 189.94 150.12 190.827 151.008C191.715 151.895 192.919 152.394 194.174 152.394H246.759C248.012 152.385 249.212 151.886 250.102 151.004C250.539 150.564 250.884 150.043 251.117 149.469C251.351 148.895 251.468 148.281 251.462 147.661V136.896C251.468 136.688 251.431 136.482 251.355 136.289C251.279 136.095 251.164 135.92 251.018 135.772C250.719 135.474 250.316 135.305 249.895 135.299H235.432C233.63 137.529 231.349 139.325 228.758 140.554C226.168 141.783 223.334 142.413 220.467 142.397C217.595 142.469 214.746 141.863 212.151 140.63C209.557 139.397 207.289 137.571 205.531 135.299L191.009 135.447ZM246.759 153.192H194.174C192.631 153.154 191.164 152.513 190.086 151.408C189.009 150.303 188.406 148.82 188.406 147.277V136.896C188.404 136.55 188.471 136.207 188.603 135.887C188.735 135.567 188.93 135.276 189.175 135.033C189.413 134.786 189.698 134.591 190.013 134.459C190.328 134.327 190.667 134.26 191.009 134.264H205.797C205.875 134.259 205.953 134.273 206.025 134.303C206.097 134.334 206.16 134.381 206.211 134.441C207.872 136.638 210.03 138.41 212.508 139.613C214.986 140.816 217.713 141.415 220.467 141.362C223.213 141.381 225.927 140.773 228.403 139.583C230.878 138.394 233.05 136.656 234.752 134.5V134.5C234.813 134.439 234.888 134.394 234.97 134.368C235.052 134.342 235.14 134.337 235.225 134.352H249.835C250.181 134.35 250.525 134.417 250.844 134.549C251.164 134.681 251.455 134.876 251.699 135.121C252.189 135.618 252.465 136.287 252.468 136.985V147.602C252.468 149.146 251.865 150.628 250.788 151.734C249.71 152.839 248.243 153.479 246.7 153.517" fill="#A3A3A3"/>
<path d="M218.131 225.417H182.817C182.731 225.417 182.648 225.382 182.587 225.321C182.526 225.26 182.492 225.178 182.492 225.091C182.492 225.002 182.525 224.916 182.585 224.85C182.646 224.784 182.729 224.744 182.817 224.736H218.309C218.397 224.744 218.48 224.784 218.541 224.85C218.601 224.916 218.634 225.002 218.634 225.091C218.634 225.178 218.6 225.26 218.539 225.321C218.478 225.382 218.395 225.417 218.309 225.417H218.131ZM222.272 225.417H220.941C220.855 225.417 220.772 225.382 220.711 225.321C220.65 225.26 220.615 225.178 220.615 225.091C220.615 225.002 220.649 224.916 220.709 224.85C220.769 224.784 220.852 224.744 220.941 224.736H222.272C222.361 224.744 222.443 224.784 222.504 224.85C222.564 224.916 222.597 225.002 222.597 225.091C222.597 225.178 222.563 225.26 222.502 225.321C222.441 225.382 222.358 225.417 222.272 225.417V225.417ZM257.97 225.417H224.697C224.611 225.417 224.528 225.382 224.467 225.321C224.406 225.26 224.372 225.178 224.372 225.091C224.371 225.002 224.405 224.916 224.465 224.85C224.525 224.784 224.608 224.744 224.697 224.736H257.792C257.881 224.744 257.964 224.784 258.024 224.85C258.085 224.916 258.118 225.002 258.118 225.091C258.118 225.134 258.109 225.176 258.093 225.216C258.077 225.255 258.053 225.291 258.022 225.321C257.992 225.351 257.956 225.375 257.917 225.392C257.877 225.408 257.835 225.417 257.792 225.417" fill="#A3A3A3"/>
<path d="M188.939 137.192C188.869 137.192 188.799 137.178 188.735 137.151C188.67 137.125 188.612 137.085 188.562 137.036C188.513 136.986 188.473 136.928 188.447 136.863C188.42 136.799 188.406 136.729 188.406 136.659V107.971C188.406 107.83 188.462 107.694 188.562 107.594C188.662 107.495 188.797 107.438 188.939 107.438C189.075 107.446 189.202 107.505 189.296 107.604C189.39 107.704 189.442 107.835 189.441 107.971V136.659C189.442 136.796 189.39 136.927 189.296 137.026C189.202 137.125 189.075 137.184 188.939 137.192Z" fill="#A3A3A3"/>
<path d="M188.939 225.594C188.87 225.598 188.802 225.588 188.737 225.565C188.673 225.541 188.614 225.505 188.564 225.458C188.514 225.411 188.474 225.354 188.447 225.291C188.42 225.228 188.406 225.16 188.406 225.091V147.514C188.406 147.444 188.42 147.375 188.447 147.31C188.473 147.245 188.513 147.187 188.562 147.137C188.612 147.088 188.67 147.049 188.735 147.022C188.799 146.995 188.869 146.981 188.939 146.981C189.075 146.989 189.202 147.048 189.296 147.147C189.39 147.246 189.442 147.378 189.441 147.514V225.091C189.441 225.157 189.428 225.223 189.403 225.284C189.378 225.345 189.341 225.4 189.294 225.447C189.247 225.494 189.192 225.531 189.131 225.556C189.07 225.581 189.005 225.594 188.939 225.594Z" fill="#A3A3A3"/>
<path d="M251.941 137.192C251.871 137.192 251.801 137.178 251.737 137.151C251.672 137.124 251.614 137.085 251.564 137.036C251.515 136.986 251.475 136.928 251.449 136.863C251.422 136.798 251.408 136.729 251.408 136.659V107.911C251.415 107.78 251.471 107.657 251.563 107.564C251.656 107.471 251.78 107.416 251.911 107.409V107.409C252.042 107.416 252.166 107.471 252.259 107.564C252.351 107.657 252.407 107.78 252.414 107.911V136.689C252.406 136.825 252.347 136.953 252.248 137.046C252.149 137.14 252.018 137.192 251.881 137.192" fill="#A3A3A3"/>
<path d="M251.941 225.594C251.872 225.598 251.804 225.588 251.739 225.565C251.675 225.541 251.616 225.505 251.566 225.458C251.516 225.411 251.476 225.354 251.449 225.291C251.422 225.228 251.408 225.16 251.408 225.091V147.514C251.408 147.373 251.464 147.237 251.564 147.137C251.664 147.038 251.799 146.981 251.941 146.981C252.082 146.981 252.217 147.038 252.317 147.137C252.417 147.237 252.473 147.373 252.473 147.514V225.091C252.473 225.16 252.459 225.228 252.432 225.291C252.405 225.354 252.365 225.411 252.315 225.458C252.266 225.505 252.207 225.541 252.142 225.565C252.078 225.588 252.009 225.598 251.941 225.594" fill="#A3A3A3"/>
<path d="M236.884 132.164L236.707 132.46L236.884 132.164L237.742 130.449L238.422 128.644L238.896 126.781L239.162 124.888L239.251 122.966L239.132 121.073L238.807 119.18L238.304 117.317L237.594 115.542L236.707 113.856H239.635L240.493 116.045L241.084 118.322L241.439 120.629L241.557 122.966L241.439 125.332L241.055 127.639L240.434 129.916L239.605 132.105L239.487 132.341L239.428 132.46H236.707" fill="#434343"/>
<path d="M237.389 132.075H239.193L240.05 129.886L240.642 127.668L241.026 125.391V123.084V120.777L240.671 118.499L240.08 116.281L239.341 114.388H237.329L237.921 115.483L238.631 117.316L239.163 119.209L239.488 121.132V123.084V125.036L239.193 126.958L238.719 128.881L238.01 130.714L237.389 132.075ZM236.708 132.873H236.56V132.489L236.738 132.193L237.566 130.507L238.217 128.762L238.69 126.929L238.956 125.095V123.202V121.339L238.631 119.475L238.128 117.671L237.448 115.926L236.56 114.27C236.524 114.213 236.504 114.146 236.504 114.078C236.504 114.01 236.524 113.943 236.56 113.886C236.595 113.831 236.643 113.786 236.7 113.755C236.757 113.724 236.821 113.708 236.886 113.708H239.843C239.924 113.702 240.005 113.722 240.074 113.764C240.143 113.807 240.197 113.87 240.228 113.945L241.056 116.163L241.677 118.47L241.973 120.658V123.054V125.45L241.588 127.816L240.967 130.123L239.932 132.725C239.903 132.796 239.854 132.855 239.79 132.897C239.727 132.94 239.653 132.962 239.577 132.962L236.708 132.873Z" fill="#A3A3A3"/>
<path d="M204.088 132.253L203.23 130.537L202.55 128.733L202.076 126.87L201.781 124.977L201.692 123.025L201.781 121.103L202.106 119.21L202.609 117.346L203.319 115.542L204.206 113.856H201.278L201.16 114.093L200.361 116.311L199.799 118.589L199.444 120.925L199.355 123.262L199.533 125.598L199.917 127.905L200.568 130.182L201.426 132.341L201.485 132.46H204.206" fill="#434343"/>
<path d="M203.529 132.075H201.754L200.837 130.064L200.187 127.846L199.802 125.568V123.291V120.984L200.127 118.707L200.689 116.459L201.488 114.27H203.529L202.937 115.424L202.227 117.257L201.695 119.15L201.37 121.102V123.054V125.036L201.665 126.988L202.168 128.881L202.848 130.744L203.529 132.075Z" fill="#A3A3A3"/>
<path d="M220.505 104.51C224.209 104.51 227.83 105.609 230.909 107.667C233.988 109.726 236.388 112.652 237.804 116.074C239.22 119.497 239.589 123.263 238.864 126.895C238.14 130.528 236.354 133.863 233.732 136.48C231.111 139.097 227.773 140.878 224.139 141.597C220.505 142.316 216.74 141.941 213.32 140.52C209.899 139.098 206.978 136.694 204.924 133.611C202.87 130.529 201.777 126.906 201.783 123.202C201.783 120.745 202.268 118.312 203.209 116.042C204.15 113.773 205.53 111.711 207.268 109.975C209.007 108.238 211.071 106.862 213.343 105.925C215.614 104.987 218.048 104.506 220.505 104.51" fill="#D3D3D3"/>
<path d="M220.506 105.043C216.907 105.043 213.39 106.11 210.398 108.11C207.406 110.11 205.075 112.953 203.699 116.278C202.323 119.603 201.964 123.262 202.669 126.791C203.373 130.32 205.108 133.561 207.655 136.104C210.202 138.646 213.445 140.376 216.976 141.075C220.506 141.773 224.164 141.409 227.487 140.028C230.81 138.647 233.649 136.311 235.644 133.316C237.639 130.32 238.701 126.801 238.695 123.202C238.688 118.383 236.768 113.764 233.357 110.36C229.947 106.955 225.325 105.043 220.506 105.043V105.043ZM220.506 142.456C216.697 142.462 212.971 141.338 209.801 139.226C206.631 137.113 204.159 134.108 202.697 130.591C201.235 127.073 200.849 123.201 201.589 119.464C202.329 115.727 204.16 112.294 206.852 109.598C209.543 106.902 212.974 105.066 216.709 104.32C220.445 103.575 224.318 103.955 227.838 105.411C231.358 106.867 234.367 109.335 236.484 112.502C238.601 115.669 239.73 119.393 239.73 123.202C239.723 128.301 237.696 133.189 234.093 136.798C230.49 140.406 225.605 142.44 220.506 142.456Z" fill="#A3A3A3"/>
<path d="M246.768 297.286H194.182C192.786 297.286 191.447 297.841 190.46 298.828C189.473 299.815 188.918 301.154 188.918 302.551V313.198C188.926 313.753 189.149 314.282 189.541 314.674C189.934 315.066 190.463 315.29 191.018 315.298H205.806C207.526 313.021 209.766 311.189 212.339 309.954C214.911 308.72 217.741 308.118 220.594 308.2C223.44 308.173 226.255 308.802 228.819 310.038C231.384 311.274 233.629 313.084 235.382 315.327H250.17C250.725 315.324 251.257 315.101 251.648 314.706C251.846 314.515 252.004 314.285 252.11 314.031C252.217 313.776 252.271 313.503 252.27 313.228V302.58C252.262 301.185 251.71 299.848 250.732 298.854C249.752 297.871 248.422 297.318 247.035 297.316" fill="#434343"/>
<path d="M235.41 314.765H249.902C250.324 314.759 250.727 314.59 251.026 314.292C251.169 314.149 251.283 313.978 251.359 313.79C251.435 313.602 251.473 313.401 251.469 313.198V302.55C251.475 301.931 251.358 301.317 251.125 300.743C250.891 300.169 250.546 299.647 250.109 299.208C249.219 298.326 248.02 297.827 246.767 297.818H194.181C192.926 297.818 191.722 298.317 190.835 299.204C189.947 300.092 189.449 301.295 189.449 302.55V313.198C189.463 313.609 189.633 313.999 189.924 314.29C190.215 314.581 190.605 314.751 191.016 314.765H205.538C207.296 312.493 209.564 310.667 212.159 309.434C214.753 308.201 217.602 307.595 220.474 307.667C223.313 307.667 226.116 308.305 228.675 309.534C231.235 310.763 233.486 312.55 235.262 314.765H235.41ZM235.055 315.83C234.981 315.832 234.908 315.817 234.842 315.787C234.775 315.756 234.716 315.71 234.67 315.653V315.653C232.974 313.479 230.801 311.724 228.319 310.524C225.837 309.324 223.112 308.711 220.355 308.732C217.599 308.67 214.868 309.263 212.385 310.461C209.902 311.658 207.738 313.428 206.07 315.623C206.02 315.683 205.956 315.73 205.884 315.761C205.812 315.791 205.734 315.805 205.656 315.8H190.868C190.526 315.804 190.188 315.737 189.872 315.605C189.557 315.473 189.272 315.278 189.035 315.031C188.791 314.792 188.598 314.507 188.466 314.192C188.334 313.877 188.266 313.539 188.266 313.198V302.55C188.265 301.007 188.868 299.524 189.946 298.419C191.023 297.314 192.49 296.674 194.033 296.635H246.619C248.162 296.674 249.629 297.314 250.706 298.419C251.784 299.524 252.387 301.007 252.386 302.55V313.198C252.389 313.54 252.323 313.879 252.191 314.194C252.059 314.509 251.863 314.794 251.617 315.031C251.373 315.277 251.083 315.472 250.763 315.604C250.443 315.736 250.1 315.803 249.754 315.8H234.966" fill="#A3A3A3"/>
<path d="M188.946 342.655C188.878 342.659 188.809 342.649 188.745 342.626C188.68 342.603 188.621 342.566 188.572 342.519C188.522 342.472 188.482 342.415 188.455 342.352C188.428 342.289 188.414 342.221 188.414 342.153V313.375C188.422 313.239 188.481 313.111 188.58 313.018C188.679 312.924 188.81 312.872 188.946 312.873C189.077 312.88 189.201 312.935 189.294 313.028C189.387 313.12 189.442 313.244 189.449 313.375V342.153C189.449 342.219 189.436 342.284 189.411 342.345C189.386 342.406 189.349 342.462 189.302 342.508C189.255 342.555 189.2 342.592 189.139 342.617C189.078 342.642 189.012 342.655 188.946 342.655Z" fill="#A3A3A3"/>
<path d="M188.946 303.083C188.805 303.083 188.67 303.027 188.57 302.927C188.47 302.827 188.414 302.692 188.414 302.551V225.003C188.414 224.861 188.47 224.726 188.57 224.626C188.67 224.526 188.805 224.47 188.946 224.47C189.082 224.478 189.21 224.537 189.304 224.636C189.397 224.735 189.449 224.866 189.449 225.003V302.551C189.449 302.687 189.397 302.818 189.304 302.917C189.21 303.016 189.082 303.075 188.946 303.083Z" fill="#A3A3A3"/>
<path d="M252.003 342.655C251.869 342.655 251.742 342.602 251.647 342.508C251.553 342.414 251.5 342.286 251.5 342.153V313.375C251.508 313.239 251.567 313.111 251.666 313.018C251.765 312.924 251.896 312.872 252.032 312.873V312.873C252.169 312.872 252.3 312.924 252.399 313.018C252.498 313.111 252.557 313.239 252.565 313.375V342.153C252.561 342.223 252.543 342.291 252.513 342.354C252.483 342.417 252.44 342.474 252.388 342.521C252.336 342.567 252.275 342.603 252.209 342.626C252.143 342.65 252.073 342.659 252.003 342.655V342.655Z" fill="#A3A3A3"/>
<path d="M251.941 303.083C251.799 303.083 251.664 303.027 251.564 302.927C251.464 302.827 251.408 302.692 251.408 302.551V225.003C251.408 224.861 251.464 224.726 251.564 224.626C251.664 224.526 251.799 224.47 251.941 224.47C252.082 224.47 252.217 224.526 252.317 224.626C252.417 224.726 252.473 224.861 252.473 225.003V302.551C252.473 302.692 252.417 302.827 252.317 302.927C252.217 303.027 252.082 303.083 251.941 303.083Z" fill="#A3A3A3"/>
<path d="M236.884 317.9L236.707 317.604L236.884 317.9L237.742 319.616L238.422 321.39L238.896 323.253L239.162 325.146L239.251 327.069L239.132 328.991L238.807 330.855L238.304 332.718L237.594 334.492L236.707 336.208H239.635L240.493 333.99L241.084 331.742L241.439 329.405L241.557 327.069L241.439 324.732L241.055 322.396L240.434 320.148L239.605 317.959L239.487 317.693L239.428 317.604H236.707" fill="#434343"/>
<path d="M237.359 335.823H239.37L240.11 333.871L240.701 331.653L241.056 329.346V327.039L240.908 324.762L240.553 322.485L239.932 320.237L239.074 317.989H237.27L237.98 319.438L238.66 321.272L239.163 323.165L239.429 325.117V327.069V329.021L239.104 330.943L238.601 332.836L237.891 334.64L237.359 335.823ZM239.636 336.592H236.679C236.614 336.593 236.55 336.576 236.493 336.545C236.436 336.514 236.388 336.469 236.353 336.415C236.317 336.358 236.297 336.291 236.297 336.223C236.297 336.154 236.317 336.088 236.353 336.03L237.241 334.315L237.951 332.57L238.424 330.766L238.749 328.932V327.039V325.176L238.483 323.313L238.01 321.509L237.359 319.764L236.353 317.812C236.341 317.753 236.341 317.693 236.353 317.634V317.634H236.501H239.311C239.384 317.628 239.458 317.644 239.522 317.681C239.585 317.718 239.636 317.774 239.666 317.841L239.843 318.196L240.701 320.414L241.322 322.721L241.707 325.087V327.453V329.849L241.352 332.215L240.731 334.522L239.903 336.77C239.872 336.845 239.818 336.908 239.749 336.95C239.68 336.993 239.599 337.013 239.518 337.006" fill="#A3A3A3"/>
<path d="M204.088 317.782L203.23 319.497L202.55 321.301L202.076 323.165L201.781 325.087L201.692 327.01L201.781 328.932L202.106 330.825L202.609 332.688L203.319 334.492L204.206 336.208H201.278L201.16 335.942L200.361 333.723L199.799 331.446L199.444 329.139L199.355 326.803L199.533 324.437L199.917 322.13L200.568 319.882L201.426 317.693L201.485 317.604H204.206" fill="#434343"/>
<path d="M201.542 335.823H203.524L202.932 334.67L202.222 332.836L201.69 330.943L201.365 329.021V327.039V325.058L201.66 323.135L202.163 321.213L202.873 319.379L203.553 317.989H201.749L200.921 320.03L200.3 322.248L199.915 324.525V326.832V329.139L200.241 331.417L200.803 333.635L201.542 335.823ZM204.204 336.592H201.246C201.171 336.592 201.096 336.57 201.033 336.528C200.97 336.486 200.921 336.426 200.891 336.356V336.119L200.063 333.871L199.501 331.564L199.146 329.198V326.803L199.294 324.437L199.708 322.071L200.359 319.764L201.306 317.427C201.336 317.36 201.386 317.304 201.45 317.267C201.514 317.23 201.587 317.214 201.66 317.22H204.381C204.483 317.22 204.581 317.261 204.653 317.333C204.725 317.405 204.766 317.503 204.766 317.605C204.787 317.646 204.798 317.691 204.798 317.738C204.798 317.784 204.787 317.83 204.766 317.871L203.908 319.616L203.228 321.361L202.755 323.194L202.489 325.058V326.951V328.843L202.784 330.707L203.287 332.511L203.997 334.256L204.855 335.942C204.892 335.999 204.911 336.066 204.911 336.134C204.911 336.202 204.892 336.269 204.855 336.326C204.825 336.385 204.778 336.434 204.72 336.466C204.662 336.497 204.595 336.511 204.529 336.504" fill="#A3A3A3"/>
<path d="M220.497 308.14C224.2 308.14 227.819 309.238 230.898 311.295C233.977 313.352 236.376 316.276 237.793 319.697C239.21 323.118 239.581 326.882 238.859 330.514C238.136 334.146 236.353 337.482 233.735 340.1C231.117 342.718 227.781 344.501 224.149 345.224C220.518 345.946 216.753 345.575 213.333 344.158C209.912 342.741 206.988 340.342 204.931 337.263C202.873 334.184 201.775 330.564 201.775 326.862C201.772 324.402 202.253 321.966 203.193 319.693C204.132 317.419 205.511 315.354 207.25 313.615C208.989 311.876 211.055 310.497 213.328 309.557C215.601 308.618 218.037 308.136 220.497 308.14" fill="#D3D3D3"/>
<path d="M220.498 308.673C216.901 308.673 213.384 309.74 210.393 311.738C207.402 313.737 205.07 316.578 203.694 319.901C202.317 323.225 201.957 326.882 202.659 330.411C203.36 333.939 205.093 337.18 207.637 339.724C210.18 342.268 213.421 344 216.95 344.702C220.478 345.404 224.135 345.043 227.459 343.667C230.783 342.29 233.623 339.959 235.622 336.967C237.621 333.976 238.688 330.46 238.688 326.862C238.688 322.038 236.771 317.412 233.36 314C229.949 310.589 225.322 308.673 220.498 308.673ZM220.498 346.086C216.688 346.092 212.961 344.967 209.79 342.854C206.619 340.74 204.147 337.734 202.686 334.214C201.225 330.695 200.841 326.821 201.583 323.083C202.325 319.346 204.16 315.912 206.854 313.218C209.549 310.523 212.982 308.689 216.72 307.947C220.457 307.205 224.331 307.589 227.851 309.05C231.37 310.511 234.377 312.983 236.49 316.154C238.603 319.325 239.728 323.051 239.723 326.862C239.715 331.958 237.687 336.844 234.083 340.447C230.48 344.051 225.594 346.079 220.498 346.086" fill="#A3A3A3"/>
<path d="M129.581 349.192C129.538 349.192 129.496 349.183 129.457 349.167C129.417 349.15 129.381 349.126 129.351 349.096C129.321 349.066 129.297 349.03 129.281 348.991C129.264 348.951 129.256 348.909 129.256 348.866V234.496C129.256 234.41 129.29 234.327 129.351 234.266C129.412 234.205 129.495 234.171 129.581 234.171C129.667 234.171 129.75 234.205 129.811 234.266C129.872 234.327 129.906 234.41 129.906 234.496V348.866C129.906 348.909 129.898 348.951 129.882 348.991C129.865 349.03 129.841 349.066 129.811 349.096C129.781 349.126 129.745 349.15 129.706 349.167C129.666 349.183 129.624 349.192 129.581 349.192Z" fill="#A3A3A3"/>
<path d="M129.581 215.657C129.538 215.657 129.496 215.648 129.457 215.632C129.417 215.615 129.381 215.592 129.351 215.561C129.321 215.531 129.297 215.495 129.281 215.456C129.264 215.416 129.256 215.374 129.256 215.331V103.682C129.256 103.596 129.29 103.513 129.351 103.452C129.412 103.391 129.495 103.357 129.581 103.357C129.667 103.357 129.75 103.391 129.811 103.452C129.872 103.513 129.906 103.596 129.906 103.682V215.302C129.906 215.388 129.872 215.471 129.811 215.532C129.75 215.593 129.667 215.627 129.581 215.627" fill="#A3A3A3"/>
<path d="M127.986 106.374L129.613 94.5728L131.269 106.374H127.986Z" fill="#A3A3A3"/>
<path d="M131.269 344.519L129.613 356.349L127.986 344.519H131.269Z" fill="#A3A3A3"/>
<path d="M187.967 94.6023H125.325C125.239 94.6023 125.156 94.5681 125.095 94.507C125.034 94.446 125 94.3633 125 94.277C125 94.1907 125.034 94.108 125.095 94.047C125.156 93.9859 125.239 93.9517 125.325 93.9517H187.967C188.053 93.9517 188.136 93.9859 188.197 94.047C188.258 94.108 188.292 94.1907 188.292 94.277C188.292 94.3633 188.258 94.446 188.197 94.507C188.136 94.5681 188.053 94.6023 187.967 94.6023Z" fill="#A3A3A3"/>
<path d="M186.902 356.615H125.325C125.239 356.615 125.156 356.581 125.095 356.52C125.034 356.459 125 356.376 125 356.29C125 356.203 125.034 356.121 125.095 356.06C125.156 355.999 125.239 355.964 125.325 355.964H186.902C186.989 355.964 187.071 355.999 187.132 356.06C187.193 356.121 187.228 356.203 187.228 356.29C187.228 356.376 187.193 356.459 187.132 356.52C187.071 356.581 186.989 356.615 186.902 356.615Z" fill="#A3A3A3"/>
<path d="M244.604 62.0691H229.401C229.315 62.0691 229.232 62.0349 229.171 61.9738C229.11 61.9128 229.076 61.8301 229.076 61.7438C229.076 61.6575 229.11 61.5748 229.171 61.5137C229.232 61.4527 229.315 61.4185 229.401 61.4185H244.604C244.69 61.4185 244.772 61.4527 244.833 61.5137C244.895 61.5748 244.929 61.6575 244.929 61.7438C244.929 61.8301 244.895 61.9128 244.833 61.9738C244.772 62.0349 244.69 62.0691 244.604 62.0691" fill="#A3A3A3"/>
<path d="M213.436 62.0691H197.198C197.112 62.0691 197.029 62.0349 196.968 61.9738C196.907 61.9128 196.873 61.8301 196.873 61.7438C196.873 61.6575 196.907 61.5748 196.968 61.5137C197.029 61.4527 197.112 61.4185 197.198 61.4185H213.436C213.522 61.4185 213.605 61.4527 213.666 61.5137C213.727 61.5748 213.761 61.6575 213.761 61.7438C213.761 61.8301 213.727 61.9128 213.666 61.9738C213.605 62.0349 213.522 62.0691 213.436 62.0691Z" fill="#A3A3A3"/>
<path d="M200.598 63.3703L188.768 61.7437L200.598 60.0874V63.3703Z" fill="#A3A3A3"/>
<path d="M240.289 63.3703L252.119 61.7437L240.289 60.0874V63.3703Z" fill="#A3A3A3"/>
<path d="M219.2 63.3998V67.7179H221.803C222.439 67.7517 223.064 67.54 223.548 67.1264C223.771 66.9338 223.946 66.6918 224.059 66.4196C224.172 66.1475 224.22 65.8528 224.199 65.5589C224.199 64.1097 223.4 63.3998 221.833 63.3998H219.2ZM219.2 62.1281H221.596C222.189 62.152 222.773 61.9748 223.252 61.6253C223.456 61.451 223.618 61.2327 223.726 60.9868C223.834 60.7409 223.884 60.4738 223.873 60.2056C223.894 59.9347 223.852 59.6626 223.749 59.411C223.646 59.1594 223.486 58.9352 223.282 58.7564C222.76 58.4308 222.15 58.2757 221.537 58.3128H219.2V62.1281ZM217.633 68.9897V57.0114H221.537C222.589 56.9367 223.634 57.2294 224.494 57.8396C224.829 58.1329 225.094 58.4979 225.268 58.9076C225.442 59.3173 225.521 59.761 225.5 60.2056C225.497 60.7445 225.332 61.2699 225.027 61.714C224.679 62.1407 224.232 62.4758 223.725 62.69C224.332 62.8529 224.864 63.2181 225.234 63.7252C225.62 64.257 225.817 64.9022 225.796 65.5589C225.837 66.0302 225.764 66.5044 225.584 66.9418C225.404 67.3793 225.122 67.7671 224.761 68.0728C223.925 68.7387 222.869 69.066 221.803 68.9897H217.633Z" fill="#A3A3A3"/>
<path d="M188.733 92.8576C188.647 92.8576 188.564 92.8233 188.503 92.7623C188.442 92.7013 188.408 92.6185 188.408 92.5322V58.2833C188.408 58.1971 188.442 58.1143 188.503 58.0533C188.564 57.9923 188.647 57.958 188.733 57.958C188.82 57.958 188.903 57.9923 188.964 58.0533C189.025 58.1143 189.059 58.1971 189.059 58.2833V92.5322C189.059 92.6185 189.025 92.7013 188.964 92.7623C188.903 92.8233 188.82 92.8576 188.733 92.8576Z" fill="#A3A3A3"/>
<path d="M252.114 93.8336C252.028 93.8336 251.945 93.7993 251.884 93.7383C251.823 93.6773 251.789 93.5945 251.789 93.5082V58.2833C251.789 58.1971 251.823 58.1143 251.884 58.0533C251.945 57.9923 252.028 57.958 252.114 57.958C252.201 57.958 252.283 57.9923 252.344 58.0533C252.405 58.1143 252.44 58.1971 252.44 58.2833V93.5082C252.44 93.5945 252.405 93.6773 252.344 93.7383C252.283 93.7993 252.201 93.8336 252.114 93.8336" fill="#A3A3A3"/>
<path d="M284.885 291.312C284.84 291.316 284.794 291.31 284.751 291.296C284.709 291.281 284.669 291.258 284.636 291.227C284.602 291.197 284.576 291.16 284.558 291.118C284.539 291.077 284.53 291.032 284.53 290.986V235.502C284.53 235.457 284.539 235.412 284.558 235.37C284.576 235.329 284.602 235.291 284.636 235.261C284.669 235.23 284.709 235.207 284.751 235.192C284.794 235.178 284.84 235.173 284.885 235.177C284.928 235.177 284.97 235.185 285.01 235.201C285.049 235.218 285.085 235.242 285.115 235.272C285.145 235.302 285.169 235.338 285.186 235.377C285.202 235.417 285.21 235.459 285.21 235.502V290.986C285.21 291.029 285.202 291.071 285.186 291.111C285.169 291.15 285.145 291.186 285.115 291.216C285.085 291.247 285.049 291.271 285.01 291.287C284.97 291.303 284.928 291.312 284.885 291.312" fill="#A3A3A3"/>
<path d="M284.885 216.751C284.84 216.755 284.794 216.75 284.751 216.735C284.709 216.721 284.669 216.697 284.636 216.667C284.602 216.636 284.576 216.599 284.558 216.557C284.539 216.516 284.53 216.471 284.53 216.426V160.231C284.53 160.186 284.539 160.141 284.558 160.1C284.576 160.058 284.602 160.021 284.636 159.99C284.669 159.96 284.709 159.936 284.751 159.922C284.794 159.907 284.84 159.902 284.885 159.906C284.928 159.906 284.97 159.915 285.01 159.931C285.049 159.947 285.085 159.971 285.115 160.001C285.145 160.032 285.169 160.068 285.186 160.107C285.202 160.146 285.21 160.189 285.21 160.231V216.426C285.21 216.468 285.202 216.511 285.186 216.55C285.169 216.59 285.145 216.625 285.115 216.656C285.085 216.686 285.049 216.71 285.01 216.726C284.97 216.743 284.928 216.751 284.885 216.751" fill="#A3A3A3"/>
<path d="M283.231 164.668L284.888 152.837L286.514 164.668H283.231Z" fill="#A3A3A3"/>
<path d="M286.514 286.58L284.888 298.41L283.231 286.58H286.514Z" fill="#A3A3A3"/>
<path d="M288.82 153.192H255.251C255.157 153.192 255.067 153.155 255 153.088C254.934 153.022 254.896 152.932 254.896 152.837C254.896 152.792 254.906 152.747 254.924 152.706C254.942 152.664 254.969 152.627 255.002 152.596C255.035 152.566 255.075 152.542 255.118 152.528C255.161 152.513 255.206 152.508 255.251 152.512H288.82C288.906 152.512 288.989 152.546 289.05 152.607C289.111 152.668 289.145 152.751 289.145 152.837C289.15 152.883 289.144 152.928 289.13 152.971C289.115 153.014 289.092 153.053 289.061 153.087C289.031 153.12 288.993 153.147 288.952 153.165C288.91 153.183 288.865 153.193 288.82 153.192Z" fill="#A3A3A3"/>
<path d="M288.82 298.765H255.251C255.157 298.765 255.067 298.728 255 298.661C254.934 298.595 254.896 298.504 254.896 298.41C254.896 298.365 254.906 298.32 254.924 298.278C254.942 298.237 254.969 298.2 255.002 298.169C255.035 298.138 255.075 298.115 255.118 298.101C255.161 298.086 255.206 298.081 255.251 298.085H288.82C288.906 298.085 288.989 298.119 289.05 298.18C289.111 298.241 289.145 298.324 289.145 298.41C289.15 298.455 289.144 298.501 289.13 298.544C289.115 298.587 289.092 298.626 289.061 298.66C289.031 298.693 288.993 298.72 288.952 298.738C288.91 298.756 288.865 298.765 288.82 298.765" fill="#A3A3A3"/>
<path d="M128.282 220.093V229.468H129.968C130.514 229.52 131.065 229.446 131.578 229.251C132.091 229.056 132.552 228.746 132.926 228.344C133.651 227.433 134.01 226.283 133.931 225.121V224.411C133.998 223.277 133.663 222.157 132.985 221.246C132.649 220.86 132.229 220.555 131.758 220.356C131.286 220.156 130.775 220.066 130.264 220.093H128.282ZM126.715 230.77V218.939H130.087C131.056 218.922 132.014 219.157 132.867 219.62C133.665 220.088 134.312 220.775 134.73 221.601C135.171 222.524 135.394 223.536 135.381 224.559V225.328C135.406 226.352 135.183 227.367 134.73 228.285C134.319 229.108 133.669 229.788 132.867 230.237C131.965 230.741 130.941 230.987 129.909 230.947L126.715 230.77Z" fill="#A3A3A3"/>
<path d="M282.7 228.019C282.65 228.854 282.868 229.682 283.321 230.385C283.518 230.662 283.78 230.885 284.085 231.035C284.39 231.185 284.727 231.256 285.066 231.243C285.506 231.263 285.942 231.149 286.317 230.917C286.692 230.685 286.988 230.345 287.166 229.941V225.86C286.977 225.467 286.678 225.138 286.305 224.912C285.932 224.686 285.502 224.574 285.066 224.588C284.725 224.581 284.386 224.658 284.082 224.813C283.778 224.967 283.516 225.195 283.321 225.476C282.854 226.238 282.637 227.127 282.7 228.019V228.019ZM281.192 227.842C281.135 226.668 281.479 225.51 282.168 224.559C282.463 224.186 282.835 223.881 283.26 223.666C283.684 223.452 284.15 223.332 284.626 223.315C285.101 223.298 285.574 223.384 286.013 223.569C286.452 223.753 286.845 224.03 287.166 224.381V219.738H288.704V232.367H287.314V231.42C287.005 231.791 286.615 232.085 286.173 232.28C285.732 232.475 285.252 232.565 284.77 232.544C284.278 232.558 283.791 232.449 283.352 232.227C282.913 232.005 282.536 231.677 282.256 231.272C281.568 230.309 281.224 229.142 281.28 227.96L281.192 227.842Z" fill="#A3A3A3"/>
</svg>
