<svg width="246" height="170" viewBox="0 0 246 170" fill="none" xmlns="http://www.w3.org/2000/svg">
<path d="M175.814 55.9552C175.832 55.6786 175.905 55.4084 176.029 55.1606C176.153 54.9127 176.326 54.6924 176.536 54.5127C176.747 54.333 176.992 54.1976 177.257 54.1145C177.521 54.0315 177.8 54.0024 178.075 54.0292H212.046C212.91 54.1048 213.716 54.4971 214.309 55.1309C214.901 55.7647 215.239 56.5951 215.256 57.4625V67.8464L211.934 71.503H179.136L175.814 67.623V55.9552Z" fill="#434343"/>
<path d="M179.334 71.0566H211.742L214.84 67.6791V57.4628C214.829 56.7072 214.537 55.9829 214.021 55.4308C213.505 54.8787 212.802 54.5383 212.049 54.476H178.078C177.646 54.4281 177.213 54.5497 176.869 54.8153C176.525 55.081 176.298 55.4697 176.236 55.8996V67.4837L179.334 71.0566ZM212.133 71.9219H178.943L175.398 67.7907V55.9554C175.415 55.6136 175.502 55.2788 175.654 54.9721C175.806 54.6654 176.02 54.3935 176.282 54.1734C176.544 53.9532 176.849 53.7896 177.177 53.6928C177.505 53.5959 177.85 53.568 178.19 53.6107H212.16C213.138 53.6807 214.054 54.1155 214.726 54.829C215.398 55.5425 215.778 56.4826 215.789 57.4628V68.0141L212.133 71.9219Z" fill="#A2A2A2"/>
<path d="M215.145 102.236C209.481 107.439 203.051 111.741 196.08 114.992H181.928C181.501 115.012 181.075 114.942 180.677 114.788C180.278 114.634 179.916 114.398 179.614 114.096C179.312 113.794 179.076 113.432 178.922 113.034C178.768 112.635 178.698 112.209 178.718 111.782V96.6249L181.51 92.8008H212.214L215.313 95.9271L215.145 102.236Z" fill="#434343"/>
<path d="M179.164 96.7647V111.782C179.164 112.522 179.459 113.232 179.982 113.756C180.506 114.279 181.216 114.574 181.956 114.574H195.913C202.766 111.385 209.091 107.168 214.67 102.068V96.0948L211.879 93.3035H181.621L179.164 96.7647ZM196.192 115.411H181.928C181.445 115.435 180.962 115.357 180.511 115.184C180.06 115.01 179.651 114.743 179.309 114.401C178.967 114.06 178.7 113.65 178.526 113.199C178.353 112.748 178.275 112.265 178.299 111.782V96.4856L181.091 92.3823H212.13L215.48 95.7319V102.431C209.79 107.676 203.321 112.008 196.303 115.271L196.192 115.411Z" fill="#A2A2A2"/>
<path d="M107.793 81.7473C107.757 81.7475 107.722 81.7402 107.69 81.7259C107.657 81.7116 107.628 81.6905 107.605 81.6641C107.581 81.6378 107.563 81.6067 107.552 81.5729C107.541 81.5391 107.538 81.5034 107.542 81.4682V48.9769C107.542 48.9103 107.568 48.8464 107.615 48.7993C107.662 48.7521 107.726 48.7257 107.793 48.7257C107.828 48.7217 107.864 48.7253 107.898 48.7361C107.931 48.747 107.962 48.7649 107.989 48.7886C108.015 48.8123 108.036 48.8414 108.051 48.8738C108.065 48.9063 108.072 48.9414 108.072 48.9769V81.4682C108.076 81.5059 108.072 81.5442 108.06 81.5801C108.047 81.616 108.027 81.6486 108 81.6755C107.973 81.7024 107.941 81.7228 107.905 81.7352C107.869 81.7477 107.831 81.7518 107.793 81.7473ZM107.793 85.6552C107.724 85.6482 107.66 85.6158 107.613 85.5642C107.567 85.5126 107.541 85.4455 107.542 85.3761V84.0641C107.542 83.9975 107.568 83.9336 107.615 83.8865C107.662 83.8394 107.726 83.8129 107.793 83.8129C107.828 83.809 107.864 83.8125 107.898 83.8234C107.931 83.8342 107.962 83.8521 107.989 83.8758C108.015 83.8996 108.036 83.9286 108.051 83.9611C108.065 83.9935 108.072 84.0286 108.072 84.0641V85.3761C108.072 85.4127 108.065 85.449 108.051 85.4829C108.037 85.5167 108.016 85.5475 107.99 85.5734C107.964 85.5994 107.934 85.6199 107.9 85.6339C107.866 85.648 107.829 85.6552 107.793 85.6552ZM107.793 119.458C107.757 119.459 107.722 119.451 107.69 119.437C107.657 119.423 107.628 119.402 107.605 119.375C107.581 119.349 107.563 119.318 107.552 119.284C107.541 119.25 107.538 119.215 107.542 119.179V87.972C107.542 87.9054 107.568 87.8415 107.615 87.7944C107.662 87.7472 107.726 87.7208 107.793 87.7208C107.828 87.7168 107.864 87.7204 107.898 87.7313C107.931 87.7421 107.962 87.76 107.989 87.7837C108.015 87.8075 108.036 87.8365 108.051 87.869C108.065 87.9014 108.072 87.9365 108.072 87.972V119.179C108.076 119.217 108.072 119.255 108.06 119.291C108.047 119.327 108.027 119.36 108 119.387C107.973 119.413 107.941 119.434 107.905 119.446C107.869 119.459 107.831 119.463 107.793 119.458Z" fill="#A2A2A2"/>
<path d="M39.8486 55.9552C39.8312 55.6786 39.7583 55.4084 39.6342 55.1606C39.5102 54.9127 39.3376 54.6924 39.1266 54.5127C38.9156 54.333 38.6707 54.1976 38.4063 54.1145C38.1419 54.0315 37.8635 54.0024 37.5877 54.0292H4.09149C3.22217 54.0982 2.40949 54.4877 1.81117 55.1222C1.21285 55.7566 0.871543 56.5907 0.853516 57.4625V67.8464L4.17523 71.503H36.6107L39.9324 67.623V55.9552H39.8486Z" fill="#434343"/>
<path d="M4.28737 71.0566H36.332L39.4025 67.4837V55.9554C39.3466 55.5279 39.1253 55.1392 38.7861 54.8731C38.4468 54.6069 38.0167 54.4844 37.5881 54.5319H4.09196C3.33654 54.5879 2.62991 54.9264 2.11268 55.4798C1.59545 56.0332 1.30554 56.7611 1.30061 57.5186V67.7349L4.28737 71.0566ZM36.7228 71.9219H3.92448L0.351562 68.0141V57.4628C0.363598 56.4781 0.746921 55.5343 1.4249 54.8201C2.10287 54.1059 3.0255 53.674 4.00822 53.6107H37.5044C37.844 53.568 38.1888 53.5959 38.5171 53.6928C38.8454 53.7896 39.1501 53.9532 39.4122 54.1734C39.6743 54.3935 39.8881 54.6654 40.0401 54.9721C40.1921 55.2788 40.2792 55.6136 40.2957 55.9554V67.7907L36.7228 71.9219Z" fill="#A2A2A2"/>
<path d="M0.939453 102.236C6.60384 107.439 13.0337 111.741 20.0043 114.992H34.1564C34.5717 114.992 34.9827 114.909 35.3646 114.746C35.7465 114.583 36.0915 114.344 36.3785 114.044C36.6655 113.744 36.8887 113.389 37.0345 113C37.1803 112.611 37.2458 112.197 37.2269 111.782V96.6249L34.4356 92.8008H3.7308L0.939453 95.9271V102.236Z" fill="#434343"/>
<path d="M20.0594 114.574H34.0161C34.7564 114.574 35.4664 114.28 35.9899 113.756C36.5134 113.233 36.8075 112.523 36.8075 111.782V96.765L34.3231 93.2479H4.17665L1.38531 96.0392V102.013C6.94855 107.119 13.2661 111.337 20.1152 114.518L20.0594 114.574ZM34.0719 115.355H19.7245C12.7073 112.092 6.23821 107.76 0.547852 102.515V95.8159L3.8975 92.4663H34.9372L37.7286 96.5696V111.782C37.7526 112.265 37.6752 112.748 37.5013 113.199C37.3274 113.65 37.0609 114.06 36.7191 114.402C36.3772 114.744 35.9675 115.01 35.5164 115.184C35.0653 115.358 34.5827 115.435 34.0999 115.411" fill="#A2A2A2"/>
<path d="M178.049 53.6104H38.0352V54.4757H178.049V53.6104Z" fill="#A2A2A2"/>
<path d="M175.785 67.2603H39.8184V68.0139H175.785V67.2603Z" fill="#A2A2A2"/>
<path d="M179.108 71.1123H36.498V71.866H179.108V71.1123Z" fill="#A2A2A2"/>
<path d="M181.397 92.4385H34.6279V93.1921H181.397V92.4385Z" fill="#A2A2A2"/>
<path d="M178.719 96.2344H37.3096V96.988H178.719V96.2344Z" fill="#A2A2A2"/>
<path d="M181.928 114.545H34.8242V115.411H181.928V114.545Z" fill="#A2A2A2"/>
<path d="M18.7476 89.7026H34.2674C37.4775 89.5351 38.5103 87.1624 37.8404 84.1199C37.5891 82.8079 35.9701 75.3271 35.9701 75.3271L33.5138 75.8854C33.5138 75.8854 34.9094 83.6454 35.2165 84.8736C35.5235 86.1017 34.9094 87.1345 33.9604 87.1345H5.40494C4.4838 87.1345 3.89761 86.1017 4.17674 84.8736C4.45588 83.6454 5.87942 75.8854 5.87942 75.8854L3.42311 75.3271L1.52493 84.1199C0.882923 87.2462 1.91574 89.7026 5.12579 89.7026H18.7476Z" fill="#434343"/>
<path d="M3.73023 75.634C3.42319 77.0576 2.13918 82.9474 1.91588 84.0081C1.70724 84.675 1.64409 85.379 1.73077 86.0724C1.81745 86.7658 2.05191 87.4325 2.4183 88.0276C2.76005 88.4343 3.18759 88.7603 3.67018 88.9823C4.15277 89.2043 4.67847 89.3167 5.20964 89.3116H34.3234C34.8548 89.3187 35.3812 89.2071 35.8641 88.985C36.347 88.7629 36.7742 88.4358 37.1147 88.0276C37.4811 87.4325 37.7155 86.7658 37.8022 86.0724C37.8889 85.379 37.8258 84.675 37.6172 84.0081C37.3939 82.8636 36.1098 76.9739 35.8028 75.634L33.9605 76.0527C34.2117 77.5042 35.3562 83.6452 35.6074 84.7059C35.7055 85.06 35.7239 85.4314 35.6611 85.7934C35.5984 86.1554 35.4561 86.499 35.2445 86.7994C35.1045 86.9844 34.9228 87.1339 34.7143 87.2357C34.5058 87.3375 34.2762 87.3889 34.0442 87.3856H5.40506C5.17774 87.3845 4.95373 87.3311 4.75041 87.2294C4.54709 87.1278 4.3699 86.9806 4.23266 86.7994C4.01557 86.5017 3.86991 86.158 3.80699 85.795C3.74406 85.4319 3.76553 85.0593 3.86977 84.7059C4.12099 83.6452 5.26551 77.5042 5.51674 76.0527L3.73023 75.634ZM18.8035 90.0374H5.12591C4.50119 90.0432 3.88316 89.9082 3.31777 89.6424C2.75238 89.3766 2.2541 88.9869 1.86 88.5022C1.44024 87.8363 1.16607 87.0891 1.05542 86.3098C0.944777 85.5305 1.00021 84.7366 1.21804 83.9802L3.11613 75.1595C3.13691 75.0793 3.1866 75.0097 3.25567 74.9641C3.33713 74.9364 3.42551 74.9364 3.50696 74.9641L5.96328 75.5224C6.0039 75.5291 6.0428 75.5439 6.07759 75.5659C6.11239 75.5879 6.14241 75.6167 6.16585 75.6506C6.18928 75.6844 6.2057 75.7226 6.21406 75.763C6.22243 75.8033 6.22261 75.8449 6.21457 75.8852C6.21457 76.2202 4.79094 83.6731 4.51181 84.9013C4.43701 85.1583 4.41825 85.4283 4.45678 85.6932C4.4953 85.958 4.59017 86.2115 4.73508 86.4365C4.81308 86.5405 4.91431 86.625 5.03058 86.6831C5.14686 86.7412 5.27506 86.7715 5.40506 86.7715H33.9605C34.0952 86.7759 34.229 86.7478 34.3504 86.6895C34.4719 86.6312 34.5775 86.5444 34.6583 86.4365C34.8032 86.2115 34.8982 85.958 34.9367 85.6932C34.9752 85.4283 34.9565 85.1583 34.8817 84.9013C34.6025 83.6731 33.2347 76.2202 33.1789 75.8852C33.1709 75.8449 33.171 75.8033 33.1794 75.763C33.1878 75.7226 33.2042 75.6844 33.2276 75.6506C33.2511 75.6167 33.2811 75.5879 33.3159 75.5659C33.3507 75.5439 33.3896 75.5291 33.4302 75.5224L35.8865 74.9641C35.968 74.9364 36.0563 74.9364 36.1377 74.9641C36.1993 75.017 36.2473 75.084 36.2773 75.1595L38.1754 83.9802C38.3933 84.7366 38.4487 85.5305 38.338 86.3098C38.2274 87.0891 37.9531 87.8363 37.5334 88.5022C37.1393 88.9869 36.6411 89.3766 36.0757 89.6424C35.5103 89.9082 34.8923 90.0432 34.2676 90.0374H18.8035Z" fill="#A2A2A2"/>
<path d="M195.409 89.7026H210.901C214.139 89.5351 215.172 87.1624 214.502 84.1199L212.604 75.3271L210.148 75.8854C210.148 75.8854 211.571 83.6454 211.85 84.8736C212.129 86.1017 211.571 87.1345 210.622 87.1345H182.067C181.118 87.1345 180.559 86.1017 180.838 84.8736C181.118 83.6454 182.541 75.8854 182.541 75.8854L180.085 75.3271L178.187 84.1199C177.517 87.2462 178.577 89.7026 181.788 89.7026H195.409Z" fill="#434343"/>
<path d="M180.339 75.6343L178.497 84.0083C178.291 84.677 178.231 85.3823 178.323 86.0761C178.414 86.7698 178.655 87.4356 179.027 88.0278C179.367 88.4375 179.794 88.7657 180.277 88.988C180.76 89.2102 181.287 89.3209 181.819 89.3119H210.905C211.437 89.3251 211.965 89.2162 212.449 88.9936C212.933 88.7711 213.36 88.4407 213.696 88.0278C214.074 87.4378 214.318 86.7719 214.409 86.0772C214.501 85.3825 214.438 84.6762 214.226 84.0083L212.412 75.6343L210.57 76.053C210.821 77.5045 211.965 83.6454 212.189 84.734C212.288 85.0818 212.31 85.4472 212.252 85.8043C212.194 86.1614 212.058 86.5013 211.854 86.7997C211.714 86.9846 211.532 87.1341 211.324 87.2359C211.115 87.3377 210.885 87.3891 210.653 87.3858H182.07C181.842 87.3916 181.615 87.3411 181.411 87.2389C181.206 87.1367 181.03 86.9859 180.898 86.7997C180.683 86.5062 180.538 86.1673 180.476 85.8091C180.413 85.451 180.433 85.0831 180.535 84.734C180.786 83.6454 181.903 77.5045 182.182 76.053L180.339 75.6343ZM195.413 90.0376H181.791C181.166 90.0434 180.548 89.9084 179.983 89.6426C179.417 89.3769 178.919 88.9871 178.525 88.5024C178.088 87.8441 177.803 87.0964 177.692 86.314C177.581 85.5317 177.646 84.7343 177.883 83.9804L179.781 75.1597C179.781 75.1597 179.781 75.1597 179.921 74.9643C180.002 74.9344 180.091 74.9344 180.172 74.9643L182.628 75.5226C182.668 75.5287 182.707 75.5434 182.74 75.5658C182.774 75.5882 182.803 75.6177 182.824 75.6523C182.845 75.6868 182.859 75.7256 182.864 75.7658C182.868 75.8061 182.864 75.8469 182.852 75.8855C182.852 76.2204 181.428 83.6733 181.149 84.9015C181.072 85.1598 181.055 85.4321 181.099 85.6979C181.142 85.9638 181.245 86.2164 181.4 86.4368C181.477 86.5424 181.577 86.6281 181.694 86.6864C181.811 86.7447 181.94 86.774 182.07 86.7717H210.626C210.76 86.7718 210.892 86.7417 211.013 86.6838C211.133 86.6258 211.24 86.5414 211.323 86.4368C211.468 86.2117 211.563 85.9583 211.602 85.6934C211.64 85.4285 211.621 85.1585 211.547 84.9015C211.268 83.6733 209.9 76.2204 209.844 75.8855C209.836 75.8451 209.836 75.8035 209.844 75.7632C209.853 75.7229 209.869 75.6846 209.893 75.6508C209.916 75.6169 209.946 75.5881 209.981 75.5661C210.016 75.5441 210.055 75.5293 210.095 75.5226L212.552 74.9643C212.633 74.9367 212.721 74.9367 212.803 74.9643C212.864 75.0172 212.912 75.0843 212.942 75.1597C212.942 75.1597 214.561 82.6685 214.813 83.9804C215.045 84.7334 215.111 85.5282 215.005 86.3092C214.899 87.0903 214.624 87.8387 214.198 88.5024C213.802 88.9841 213.303 89.3717 212.738 89.6372C212.173 89.9027 211.557 90.0394 210.933 90.0376H195.413Z" fill="#A2A2A2"/>
<path d="M19.6954 95.5645C17.0774 95.57 14.5166 94.7988 12.3371 93.3483C10.1576 91.8978 8.45737 89.8333 7.45166 87.4162C6.44596 84.999 6.18002 82.3378 6.68738 79.7694C7.19475 77.201 8.45261 74.8409 10.3019 72.9877C12.1512 71.1345 14.5087 69.8716 17.076 69.3588C19.6433 68.846 22.3051 69.1064 24.7243 70.107C27.1436 71.1076 29.2116 72.8034 30.6667 74.9799C32.1218 77.1563 32.8986 79.7155 32.8986 82.3335C32.8986 85.8378 31.5084 89.1989 29.0331 91.6794C26.5578 94.1599 23.1997 95.5571 19.6954 95.5645Z" fill="#D3D3D3"/>
<path d="M19.6942 69.5773C17.1657 69.5773 14.6939 70.3271 12.5915 71.7319C10.4892 73.1366 8.85054 75.1333 7.88292 77.4693C6.91531 79.8054 6.66215 82.3759 7.15544 84.8558C7.64873 87.3357 8.86633 89.6137 10.6543 91.4016C12.4422 93.1895 14.7201 94.4071 17.2001 94.9004C19.68 95.3937 22.2505 95.1405 24.5865 94.1729C26.9226 93.2053 28.9193 91.5667 30.324 89.4643C31.7288 87.3619 32.4785 84.8902 32.4785 82.3617C32.4712 78.9733 31.1219 75.7258 28.7259 73.3299C26.33 70.934 23.0826 69.5847 19.6942 69.5773ZM19.6942 95.9834C16.9922 95.989 14.3493 95.1924 12.1004 93.6947C9.8514 92.197 8.09754 90.0655 7.06097 87.5702C6.0244 85.0749 5.75174 82.3281 6.27752 79.6777C6.80331 77.0273 8.10389 74.5926 10.0145 72.682C11.9251 70.7714 14.3598 69.4708 17.0102 68.945C19.6606 68.4192 22.4074 68.6919 24.9027 69.7285C27.398 70.765 29.5295 72.5189 31.0272 74.7678C32.5249 77.0168 33.3215 79.6596 33.316 82.3617C33.3086 85.9721 31.8711 89.4326 29.3181 91.9856C26.7651 94.5385 23.3046 95.9761 19.6942 95.9834Z" fill="#A2A2A2"/>
<path d="M8.7253 75.4948H3.42173C3.3477 75.4948 3.27662 75.4654 3.22427 75.413C3.17192 75.3607 3.14258 75.2897 3.14258 75.2156C3.14258 75.1416 3.17192 75.0706 3.22427 75.0183C3.27662 74.9659 3.3477 74.9365 3.42173 74.9365H8.7253C8.79933 74.9365 8.87033 74.9659 8.92268 75.0183C8.97503 75.0706 9.00446 75.1416 9.00446 75.2156C9.00446 75.2897 8.97503 75.3607 8.92268 75.413C8.87033 75.4654 8.79933 75.4948 8.7253 75.4948Z" fill="#A2A2A2"/>
<path d="M212.607 75.4948H207.331C207.257 75.4948 207.186 75.4654 207.134 75.413C207.081 75.3607 207.052 75.2897 207.052 75.2156C207.052 75.1416 207.081 75.0706 207.134 75.0183C207.186 74.9659 207.257 74.9365 207.331 74.9365H212.607C212.643 74.9365 212.68 74.9437 212.713 74.9578C212.747 74.9718 212.778 74.9924 212.804 75.0183C212.83 75.0442 212.85 75.075 212.865 75.1088C212.879 75.1427 212.886 75.179 212.886 75.2156C212.886 75.2523 212.879 75.2886 212.865 75.3225C212.85 75.3563 212.83 75.3871 212.804 75.413C212.778 75.4389 212.747 75.4595 212.713 75.4735C212.68 75.4875 212.643 75.4948 212.607 75.4948Z" fill="#A2A2A2"/>
<path d="M185.363 75.4946H30.8623C30.8197 75.4984 30.7768 75.4934 30.7362 75.4797C30.6957 75.466 30.6585 75.444 30.6269 75.4151C30.5954 75.3862 30.5702 75.351 30.5531 75.3118C30.5359 75.2726 30.5272 75.2303 30.5273 75.1875C30.5273 75.0987 30.5627 75.0135 30.6255 74.9507C30.6883 74.8878 30.7735 74.8525 30.8623 74.8525H185.363C185.452 74.8525 185.537 74.8878 185.6 74.9507C185.663 75.0135 185.698 75.0987 185.698 75.1875C185.698 75.2303 185.69 75.2726 185.673 75.3118C185.655 75.351 185.63 75.3862 185.599 75.4151C185.567 75.444 185.53 75.466 185.489 75.4797C185.449 75.4934 185.406 75.4984 185.363 75.4946Z" fill="#A2A2A2"/>
<path d="M182.377 90.0373H34.8259C34.7832 90.0375 34.7408 90.0287 34.7016 90.0116C34.6624 89.9944 34.6272 89.9693 34.5983 89.9377C34.5694 89.9062 34.5474 89.869 34.5337 89.8284C34.52 89.7879 34.515 89.7449 34.5189 89.7023C34.5189 89.6209 34.5512 89.5428 34.6088 89.4852C34.6664 89.4276 34.7445 89.3953 34.8259 89.3953H182.377C182.419 89.3914 182.462 89.3965 182.503 89.4102C182.543 89.4238 182.58 89.4458 182.612 89.4747C182.643 89.5037 182.669 89.5388 182.686 89.578C182.703 89.6172 182.712 89.6596 182.711 89.7023C182.711 89.7912 182.676 89.8764 182.613 89.9392C182.551 90.002 182.465 90.0373 182.377 90.0373Z" fill="#A2A2A2"/>
<path d="M196.333 95.5645C198.951 95.57 201.512 94.7988 203.691 93.3483C205.871 91.8978 207.571 89.8333 208.577 87.4162C209.582 84.999 209.848 82.3378 209.341 79.7694C208.834 77.201 207.576 74.8409 205.727 72.9877C203.877 71.1345 201.52 69.8716 198.952 69.3588C196.385 68.846 193.723 69.1064 191.304 70.107C188.885 71.1076 186.817 72.8034 185.362 74.9799C183.907 77.1563 183.13 79.7155 183.13 82.3335C183.13 85.8378 184.52 89.1989 186.995 91.6794C189.471 94.1599 192.829 95.5571 196.333 95.5645Z" fill="#D3D3D3"/>
<path d="M196.332 69.5773C193.804 69.5773 191.332 70.3271 189.23 71.7319C187.127 73.1367 185.489 75.1333 184.521 77.4693C183.553 79.8054 183.3 82.3759 183.794 84.8558C184.287 87.3357 185.504 89.6137 187.292 91.4016C189.08 93.1895 191.358 94.4071 193.838 94.9004C196.318 95.3937 198.889 95.1405 201.225 94.1729C203.561 93.2053 205.557 91.5667 206.962 89.4643C208.367 87.3619 209.117 84.8902 209.117 82.3617C209.109 78.9733 207.76 75.7259 205.364 73.3299C202.968 70.934 199.721 69.5847 196.332 69.5773ZM196.332 95.9835C193.631 95.9835 190.991 95.1822 188.746 93.6811C186.501 92.1801 184.751 90.0466 183.719 87.5508C182.687 85.0551 182.418 82.3091 182.947 79.6606C183.476 77.012 184.779 74.5799 186.69 72.6721C188.602 70.7643 191.037 69.4665 193.687 68.943C196.336 68.4194 199.082 68.6937 201.575 69.7311C204.069 70.7685 206.199 72.5224 207.695 74.7707C209.192 77.0191 209.988 79.6609 209.982 82.3617C209.975 85.977 208.533 89.4417 205.974 91.9955C203.415 94.5492 199.948 95.9835 196.332 95.9835Z" fill="#A2A2A2"/>
<path d="M107.793 49.2562C107.757 49.2564 107.722 49.2491 107.69 49.2348C107.657 49.2205 107.628 49.1994 107.605 49.1731C107.581 49.1467 107.563 49.1156 107.552 49.0818C107.541 49.048 107.538 49.0123 107.542 48.9771V36.8627C107.542 36.796 107.568 36.7321 107.615 36.685C107.662 36.6379 107.726 36.6114 107.793 36.6114C107.828 36.6075 107.864 36.611 107.898 36.6219C107.931 36.6327 107.962 36.6506 107.989 36.6743C108.015 36.6981 108.036 36.7271 108.051 36.7596C108.065 36.7921 108.072 36.8272 108.072 36.8627V48.9771C108.076 49.0148 108.072 49.0531 108.06 49.089C108.047 49.1249 108.027 49.1575 108 49.1844C107.973 49.2113 107.941 49.2317 107.905 49.2441C107.869 49.2566 107.831 49.2607 107.793 49.2562Z" fill="#A2A2A2"/>
<path d="M107.791 19.6679C107.725 19.6679 107.661 19.6414 107.614 19.5943C107.567 19.5472 107.54 19.4833 107.54 19.4167V14.4481C107.54 14.3786 107.565 14.3116 107.612 14.2599C107.658 14.2083 107.722 14.1759 107.791 14.1689C107.828 14.1689 107.864 14.1762 107.898 14.1902C107.932 14.2042 107.963 14.2248 107.989 14.2507C108.015 14.2766 108.035 14.3074 108.049 14.3413C108.063 14.3751 108.07 14.4114 108.07 14.4481V19.5004C108.071 19.5359 108.063 19.571 108.049 19.6035C108.035 19.6359 108.014 19.665 107.987 19.6887C107.961 19.7124 107.93 19.7303 107.896 19.7412C107.862 19.752 107.827 19.7556 107.791 19.7516" fill="#A2A2A2"/>
<path d="M210.067 163.506H113.877C113.841 163.506 113.806 163.499 113.774 163.485C113.741 163.47 113.712 163.449 113.689 163.423C113.665 163.396 113.647 163.365 113.636 163.332C113.625 163.298 113.622 163.262 113.626 163.227C113.626 163.16 113.652 163.096 113.699 163.049C113.746 163.002 113.81 162.976 113.877 162.976H210.067C210.133 162.976 210.197 163.002 210.244 163.049C210.291 163.096 210.318 163.16 210.318 163.227C210.322 163.262 210.318 163.298 210.307 163.332C210.297 163.365 210.279 163.396 210.255 163.423C210.231 163.449 210.202 163.47 210.17 163.485C210.137 163.499 210.102 163.506 210.067 163.506Z" fill="#A2A2A2"/>
<path d="M101.118 163.506H7.46859C7.43311 163.506 7.39797 163.499 7.36551 163.485C7.33306 163.47 7.30406 163.449 7.28033 163.423C7.25659 163.396 7.2387 163.365 7.22785 163.332C7.21701 163.298 7.21343 163.262 7.21738 163.227C7.21738 163.16 7.24386 163.096 7.29098 163.049C7.33809 163.002 7.40196 162.976 7.46859 162.976H101.118C101.188 162.975 101.255 163.001 101.306 163.047C101.358 163.094 101.39 163.158 101.397 163.227C101.397 163.301 101.368 163.372 101.316 163.424C101.263 163.477 101.192 163.506 101.118 163.506Z" fill="#A2A2A2"/>
<path d="M105.024 168.056H107.146C107.665 168.077 108.184 168.011 108.681 167.861C109.007 167.768 109.304 167.595 109.546 167.358C109.886 167.004 110.135 166.573 110.272 166.102C110.455 165.486 110.539 164.846 110.523 164.204C110.571 163.382 110.397 162.563 110.021 161.831C109.745 161.335 109.313 160.942 108.793 160.715C108.247 160.57 107.683 160.504 107.118 160.519H105.024V168.056ZM103.74 169.2V159.375H107.006C107.59 159.302 108.181 159.302 108.765 159.375C109.3 159.48 109.8 159.72 110.216 160.073C110.729 160.535 111.13 161.107 111.389 161.747C111.644 162.502 111.767 163.296 111.752 164.092C111.763 164.761 111.679 165.429 111.5 166.074C111.362 166.593 111.136 167.084 110.83 167.526C110.595 167.88 110.291 168.184 109.936 168.419C109.581 168.654 109.183 168.815 108.765 168.893C108.243 169.012 107.709 169.068 107.174 169.061L103.74 169.2Z" fill="#A2A2A2"/>
<path d="M0.937151 166.772C0.899414 166.776 0.861129 166.772 0.82522 166.759C0.789312 166.747 0.756687 166.727 0.729816 166.7C0.702944 166.673 0.682543 166.64 0.670102 166.604C0.657662 166.568 0.653518 166.53 0.658006 166.492V104.608C0.657787 104.573 0.66514 104.538 0.679472 104.505C0.693805 104.473 0.714775 104.444 0.741145 104.42C0.767514 104.396 0.798683 104.378 0.832461 104.368C0.866239 104.357 0.901894 104.353 0.937151 104.357C1.00378 104.357 1.06765 104.384 1.11476 104.431C1.16187 104.478 1.18836 104.542 1.18836 104.608V166.492C1.1923 166.528 1.18872 166.563 1.17788 166.597C1.16703 166.631 1.14914 166.662 1.12541 166.688C1.10167 166.715 1.07267 166.736 1.04022 166.75C1.00777 166.764 0.972627 166.772 0.937151 166.772Z" fill="#A2A2A2"/>
<path d="M215.256 166.772C215.218 166.776 215.179 166.772 215.144 166.76C215.108 166.747 215.075 166.727 215.048 166.7C215.021 166.673 215.001 166.64 214.988 166.605C214.976 166.569 214.972 166.53 214.976 166.493V105.697C214.976 105.662 214.983 105.627 214.998 105.594C215.012 105.562 215.033 105.533 215.06 105.509C215.086 105.485 215.117 105.467 215.151 105.456C215.185 105.446 215.22 105.442 215.256 105.446C215.322 105.446 215.386 105.472 215.433 105.519C215.48 105.567 215.507 105.63 215.507 105.697V166.493C215.511 166.528 215.507 166.564 215.496 166.597C215.485 166.631 215.467 166.662 215.444 166.689C215.42 166.715 215.391 166.736 215.359 166.75C215.326 166.765 215.291 166.772 215.256 166.772Z" fill="#A2A2A2"/>
<path d="M170.762 27.5948H112.143C112.077 27.5948 112.013 27.5683 111.966 27.5212C111.919 27.4741 111.892 27.4102 111.892 27.3436C111.888 27.3083 111.892 27.2726 111.903 27.2389C111.914 27.2051 111.931 27.174 111.955 27.1476C111.979 27.1212 112.008 27.1002 112.04 27.0859C112.073 27.0715 112.108 27.0642 112.143 27.0645H170.762C170.797 27.0642 170.832 27.0715 170.865 27.0859C170.897 27.1002 170.926 27.1212 170.95 27.1476C170.974 27.174 170.992 27.2051 171.002 27.2389C171.013 27.2726 171.017 27.3083 171.013 27.3436C171.013 27.4102 170.986 27.4741 170.939 27.5212C170.892 27.5683 170.828 27.5948 170.762 27.5948Z" fill="#A2A2A2"/>
<path d="M102.067 27.5948H40.0155C39.946 27.5951 39.879 27.5696 39.8274 27.5232C39.7758 27.4767 39.7433 27.4127 39.7363 27.3436C39.7363 27.2696 39.7658 27.1986 39.8181 27.1462C39.8705 27.0939 39.9414 27.0645 40.0155 27.0645H102.207C102.242 27.0642 102.277 27.0715 102.31 27.0859C102.342 27.1002 102.371 27.1212 102.395 27.1476C102.419 27.174 102.437 27.2051 102.447 27.2389C102.458 27.2726 102.462 27.3083 102.458 27.3436C102.458 27.4102 102.431 27.4741 102.384 27.5212C102.337 27.5683 102.273 27.5948 102.207 27.5948" fill="#A2A2A2"/>
<path d="M105.557 29.0746C105.504 29.8018 105.712 30.5242 106.143 31.1122C106.306 31.3193 106.514 31.487 106.751 31.6029C106.988 31.7189 107.247 31.7801 107.511 31.7821C107.769 31.7876 108.025 31.7323 108.257 31.6208C108.49 31.5093 108.693 31.3447 108.851 31.1402C109.266 30.5666 109.464 29.8642 109.409 29.1583C109.464 28.4 109.268 27.6446 108.851 27.0089C108.682 26.8013 108.469 26.6335 108.228 26.5177C107.987 26.4018 107.723 26.3408 107.455 26.339C107.193 26.3357 106.934 26.3917 106.698 26.5029C106.461 26.6141 106.252 26.7776 106.087 26.9811C105.694 27.6052 105.508 28.3382 105.557 29.0746ZM109.381 32.6196V31.7263C109.174 32.0626 108.882 32.3379 108.533 32.5242C108.185 32.7106 107.794 32.8013 107.399 32.787C106.804 32.8265 106.212 32.6744 105.71 32.3529C105.208 32.0314 104.821 31.5575 104.608 31.0006C104.329 30.398 104.195 29.7383 104.217 29.0746C104.208 28.4082 104.321 27.7458 104.552 27.1206C104.786 26.583 105.162 26.1196 105.641 25.7808C106.114 25.4747 106.669 25.319 107.232 25.3341C107.631 25.3231 108.027 25.4195 108.376 25.6133C108.699 25.776 108.977 26.0156 109.186 26.3111V22.7661H110.386V32.6196H109.381Z" fill="#A2A2A2"/>
<path d="M40.0155 52.0192C39.9414 52.0192 39.8705 51.9898 39.8181 51.9374C39.7658 51.8851 39.7363 51.8141 39.7363 51.74V23.9661C39.7363 23.8921 39.7658 23.8211 39.8181 23.7688C39.8705 23.7164 39.9414 23.687 40.0155 23.687C40.0895 23.687 40.1605 23.7164 40.2128 23.7688C40.2652 23.8211 40.2946 23.8921 40.2946 23.9661V51.74C40.2946 51.8141 40.2652 51.8851 40.2128 51.9374C40.1605 51.9898 40.0895 52.0192 40.0155 52.0192Z" fill="#A2A2A2"/>
<path d="M175.954 52.0195C175.916 52.0239 175.878 52.0198 175.842 52.0074C175.806 51.9949 175.773 51.9745 175.746 51.9476C175.72 51.9208 175.699 51.8881 175.687 51.8522C175.674 51.8163 175.67 51.7781 175.675 51.7403V23.9664C175.67 23.9287 175.674 23.8904 175.687 23.8545C175.699 23.8186 175.72 23.786 175.746 23.7591C175.773 23.7322 175.806 23.7118 175.842 23.6994C175.878 23.6869 175.916 23.6828 175.954 23.6873C175.989 23.6871 176.024 23.6944 176.057 23.7087C176.089 23.723 176.118 23.7441 176.142 23.7705C176.166 23.7968 176.184 23.8279 176.194 23.8617C176.205 23.8955 176.209 23.9312 176.205 23.9664V51.7403C176.209 51.7756 176.205 51.8113 176.194 51.8451C176.184 51.8788 176.166 51.9099 176.142 51.9363C176.118 51.9627 176.089 51.9837 176.057 51.9981C176.024 52.0124 175.989 52.0197 175.954 52.0195Z" fill="#A2A2A2"/>
<path d="M209.927 5.96207H114.826C114.791 5.96229 114.755 5.955 114.723 5.94067C114.691 5.92634 114.661 5.9053 114.638 5.87893C114.614 5.85256 114.596 5.82146 114.585 5.78768C114.574 5.7539 114.571 5.7182 114.575 5.68294C114.575 5.64995 114.581 5.61729 114.594 5.58681C114.607 5.55633 114.625 5.52864 114.648 5.50531C114.672 5.48198 114.699 5.46348 114.73 5.45086C114.76 5.43823 114.793 5.43173 114.826 5.43173H209.927C209.963 5.42779 209.998 5.43136 210.032 5.44221C210.066 5.45306 210.097 5.47093 210.123 5.49466C210.15 5.5184 210.171 5.54744 210.185 5.57989C210.199 5.61234 210.207 5.64747 210.206 5.68294C210.211 5.72068 210.207 5.75894 210.194 5.79485C210.182 5.83076 210.161 5.86339 210.135 5.89026C210.108 5.91713 210.075 5.93756 210.039 5.95C210.003 5.96244 209.965 5.96656 209.927 5.96207Z" fill="#A2A2A2"/>
<path d="M99.5537 5.96198H7.96956C7.93409 5.9622 7.89903 5.95491 7.86657 5.94058C7.83412 5.92625 7.80504 5.90521 7.7813 5.87884C7.75757 5.85247 7.73968 5.82137 7.72883 5.78759C7.71798 5.75381 7.71441 5.71811 7.71835 5.68285C7.71835 5.64986 7.72489 5.6172 7.73752 5.58672C7.75014 5.55624 7.76862 5.52855 7.79195 5.50522C7.81528 5.48189 7.843 5.46339 7.87347 5.45076C7.90395 5.43814 7.93657 5.43164 7.96956 5.43164H99.5537C99.5867 5.43164 99.6194 5.43814 99.6498 5.45076C99.6803 5.46339 99.708 5.48189 99.7314 5.50522C99.7547 5.52855 99.7732 5.55624 99.7858 5.58672C99.7984 5.6172 99.805 5.64986 99.805 5.68285C99.8089 5.71811 99.8053 5.75381 99.7945 5.78759C99.7836 5.82137 99.7657 5.85247 99.742 5.87884C99.7183 5.90521 99.6892 5.92625 99.6567 5.94058C99.6243 5.95491 99.5891 5.9622 99.5537 5.96198Z" fill="#A2A2A2"/>
<path d="M102.293 7.16237C102.228 7.89535 102.426 8.62759 102.851 9.22798C103.015 9.43503 103.222 9.60273 103.459 9.71869C103.696 9.83465 103.956 9.89589 104.219 9.8979C104.476 9.89708 104.73 9.83904 104.961 9.72799C105.193 9.61695 105.397 9.45566 105.559 9.25588C105.991 8.69054 106.19 7.98165 106.117 7.27402C106.177 6.51533 105.98 5.75864 105.559 5.1247C105.394 4.91037 105.183 4.73621 104.941 4.61533C104.7 4.49445 104.434 4.43002 104.163 4.42686C103.903 4.42686 103.647 4.48738 103.414 4.60366C103.182 4.71994 102.979 4.88877 102.823 5.09678C102.42 5.70656 102.234 6.43389 102.293 7.16237ZM106.089 10.7353V9.84208C105.882 10.1783 105.59 10.4537 105.242 10.64C104.893 10.8263 104.502 10.917 104.107 10.9028C103.551 10.904 103.006 10.7388 102.544 10.4283C102.06 10.0998 101.675 9.64644 101.428 9.11632C101.159 8.50052 101.026 7.83416 101.037 7.16237C101.025 6.5023 101.148 5.84681 101.4 5.23635C101.605 4.68983 101.976 4.22124 102.461 3.8965C102.934 3.59044 103.488 3.43476 104.052 3.44989C104.448 3.44009 104.84 3.52627 105.196 3.7011C105.524 3.88065 105.809 4.12809 106.033 4.42686V0.881836H107.234V10.7353H106.089Z" fill="#A2A2A2"/>
<path d="M112.059 13.5822H111.138V7.80411C110.884 8.04148 110.603 8.24765 110.3 8.41821C109.986 8.59917 109.66 8.75774 109.323 8.89273V7.9995C109.822 7.80148 110.277 7.50749 110.663 7.13419C110.99 6.86074 111.265 6.52962 111.473 6.15723H112.059V13.5822Z" fill="#A2A2A2"/>
<path d="M1.49478 52.0198C1.45705 52.0242 1.41876 52.0201 1.38285 52.0077C1.34694 51.9952 1.31431 51.9748 1.28744 51.9479C1.26056 51.9211 1.24016 51.8884 1.22772 51.8525C1.21528 51.8166 1.21113 51.7784 1.21562 51.7406V2.44544C1.21113 2.4077 1.21528 2.36944 1.22772 2.33353C1.24016 2.29762 1.26056 2.26499 1.28744 2.23812C1.31431 2.21125 1.34694 2.19083 1.38285 2.17839C1.41876 2.16595 1.45705 2.16182 1.49478 2.16631C1.53026 2.16609 1.56532 2.17338 1.59778 2.18771C1.63023 2.20205 1.65932 2.22308 1.68305 2.24945C1.70678 2.27582 1.72468 2.30693 1.73552 2.34071C1.74637 2.37448 1.74995 2.41018 1.746 2.44544V51.7406C1.74995 51.7759 1.74637 51.8116 1.73552 51.8454C1.72468 51.8791 1.70678 51.9102 1.68305 51.9366C1.65932 51.963 1.63023 51.984 1.59778 51.9983C1.56532 52.0127 1.53026 52.02 1.49478 52.0198Z" fill="#A2A2A2"/>
<path d="M215.118 52.0198C215.083 52.02 215.047 52.0127 215.015 51.9983C214.983 51.984 214.953 51.963 214.93 51.9366C214.906 51.9102 214.888 51.8791 214.877 51.8454C214.866 51.8116 214.863 51.7759 214.867 51.7406V2.44544C214.863 2.41018 214.866 2.37448 214.877 2.34071C214.888 2.30693 214.906 2.27582 214.93 2.24945C214.953 2.22308 214.983 2.20205 215.015 2.18771C215.047 2.17338 215.083 2.16609 215.118 2.16631C215.156 2.16182 215.194 2.16595 215.23 2.17839C215.266 2.19083 215.298 2.21125 215.325 2.23812C215.352 2.26499 215.373 2.29762 215.385 2.33353C215.398 2.36944 215.402 2.4077 215.397 2.44544V51.7406C215.402 51.7784 215.398 51.8166 215.385 51.8525C215.373 51.8884 215.352 51.9211 215.325 51.9479C215.298 51.9748 215.266 51.9952 215.23 52.0077C215.194 52.0201 215.156 52.0242 215.118 52.0198Z" fill="#A2A2A2"/>
<path d="M241.746 75.1042C241.708 75.1087 241.67 75.1046 241.634 75.0921C241.598 75.0797 241.565 75.0593 241.538 75.0324C241.512 75.0055 241.491 74.9729 241.479 74.937C241.466 74.9011 241.462 74.8628 241.467 74.8251V59.0819C241.466 59.0464 241.474 59.0113 241.488 58.9788C241.502 58.9464 241.523 58.9173 241.55 58.8936C241.576 58.8699 241.607 58.852 241.641 58.8411C241.675 58.8303 241.71 58.8267 241.746 58.8307C241.812 58.8307 241.876 58.8571 241.923 58.9042C241.971 58.9513 241.997 59.0153 241.997 59.0819V74.8251C242.001 74.8603 241.997 74.896 241.987 74.9298C241.976 74.9636 241.958 74.9947 241.934 75.0211C241.91 75.0474 241.881 75.0685 241.849 75.0828C241.816 75.0971 241.781 75.1044 241.746 75.1042Z" fill="#A2A2A2"/>
<path d="M241.69 108.6C241.657 108.6 241.624 108.594 241.594 108.581C241.563 108.568 241.535 108.55 241.512 108.527C241.489 108.503 241.47 108.476 241.458 108.445C241.445 108.415 241.438 108.382 241.438 108.349V89.7586C241.438 89.6892 241.464 89.6221 241.51 89.5705C241.557 89.5189 241.621 89.4864 241.69 89.4795C241.762 89.4858 241.829 89.5172 241.88 89.5683C241.931 89.6193 241.963 89.6867 241.969 89.7586V108.349C241.969 108.384 241.962 108.42 241.947 108.452C241.933 108.484 241.912 108.514 241.886 108.537C241.859 108.561 241.828 108.579 241.794 108.59C241.761 108.601 241.725 108.604 241.69 108.6Z" fill="#A2A2A2"/>
<path d="M244.65 114.574H200.491C200.424 114.574 200.361 114.547 200.313 114.5C200.266 114.453 200.24 114.389 200.24 114.323C200.236 114.287 200.239 114.252 200.25 114.218C200.261 114.184 200.279 114.153 200.303 114.127C200.327 114.1 200.356 114.079 200.388 114.065C200.421 114.051 200.456 114.043 200.491 114.043H244.65C244.686 114.043 244.721 114.051 244.753 114.065C244.786 114.079 244.815 114.1 244.838 114.127C244.862 114.153 244.88 114.184 244.891 114.218C244.902 114.252 244.905 114.287 244.901 114.323C244.901 114.389 244.875 114.453 244.828 114.5C244.781 114.547 244.717 114.574 244.65 114.574Z" fill="#A2A2A2"/>
<path d="M244.815 54.4201H216.902C216.864 54.4246 216.826 54.4204 216.79 54.408C216.754 54.3956 216.722 54.3751 216.695 54.3483C216.668 54.3214 216.647 54.2888 216.635 54.2529C216.623 54.217 216.618 54.1787 216.623 54.141C216.623 54.1055 216.63 54.0704 216.644 54.0379C216.659 54.0054 216.68 53.9764 216.706 53.9527C216.732 53.9289 216.764 53.9111 216.797 53.9002C216.831 53.8894 216.867 53.8858 216.902 53.8897H244.815C244.851 53.8858 244.886 53.8894 244.92 53.9002C244.954 53.9111 244.985 53.9289 245.011 53.9527C245.038 53.9764 245.059 54.0054 245.073 54.0379C245.088 54.0704 245.095 54.1055 245.095 54.141C245.099 54.1787 245.095 54.217 245.083 54.2529C245.07 54.2888 245.05 54.3214 245.023 54.3483C244.996 54.3751 244.963 54.3956 244.927 54.408C244.891 54.4204 244.853 54.4246 244.815 54.4201Z" fill="#A2A2A2"/>
<path d="M240.407 63.7433H243.115L241.747 54.1689L240.407 63.7433Z" fill="#A2A2A2"/>
<path d="M0.962891 163.227L10.5373 164.566V161.887L0.962891 163.227Z" fill="#A2A2A2"/>
<path d="M1.46484 5.68311L11.0392 7.02295V4.34326L1.46484 5.68311Z" fill="#A2A2A2"/>
<path d="M39.8779 27.3159L49.4243 28.6558V25.9761L39.8779 27.3159Z" fill="#A2A2A2"/>
<path d="M166.377 28.6558L175.951 27.3159L166.377 25.9761V28.6558Z" fill="#A2A2A2"/>
<path d="M205.57 7.02295L215.117 5.68311L205.57 4.34326V7.02295Z" fill="#A2A2A2"/>
<path d="M205.68 164.566L215.254 163.227L205.68 161.887V164.566Z" fill="#A2A2A2"/>
<path d="M240.349 104.832L241.688 114.378L243.028 104.832H240.349Z" fill="#A2A2A2"/>
<path d="M173.775 141.873H115.77C115.735 141.873 115.7 141.866 115.667 141.852C115.635 141.837 115.606 141.816 115.582 141.79C115.558 141.764 115.54 141.733 115.53 141.699C115.519 141.665 115.515 141.629 115.519 141.594C115.519 141.527 115.546 141.463 115.593 141.416C115.64 141.369 115.704 141.343 115.77 141.343H173.775C173.844 141.342 173.911 141.368 173.963 141.414C174.014 141.461 174.047 141.525 174.054 141.594C174.054 141.668 174.024 141.739 173.972 141.791C173.92 141.844 173.849 141.873 173.775 141.873Z" fill="#A2A2A2"/>
<path d="M97.32 141.873H44.1168C44.0791 141.877 44.0408 141.873 44.0049 141.861C43.969 141.848 43.9364 141.828 43.9095 141.801C43.8826 141.774 43.8622 141.741 43.8498 141.706C43.8373 141.67 43.8332 141.631 43.8377 141.594C43.8375 141.558 43.8447 141.523 43.8591 141.491C43.8734 141.458 43.8945 141.429 43.9208 141.405C43.9472 141.382 43.9784 141.364 44.0122 141.353C44.0459 141.342 44.0816 141.338 44.1168 141.342H97.32C97.3552 141.338 97.3909 141.342 97.4246 141.353C97.4584 141.364 97.4896 141.382 97.516 141.405C97.5423 141.429 97.5634 141.458 97.5777 141.491C97.5921 141.523 97.5993 141.558 97.5991 141.594C97.6036 141.631 97.5994 141.67 97.587 141.706C97.5746 141.741 97.5542 141.774 97.5273 141.801C97.5004 141.828 97.4678 141.848 97.4319 141.861C97.396 141.873 97.3577 141.877 97.32 141.873Z" fill="#A2A2A2"/>
<path d="M101.814 146.479H103.907C104.425 146.496 104.941 146.44 105.443 146.311C105.774 146.198 106.078 146.017 106.336 145.781C106.665 145.43 106.913 145.011 107.062 144.553C107.242 143.937 107.327 143.296 107.313 142.655C107.36 141.833 107.187 141.014 106.81 140.282C106.534 139.785 106.103 139.393 105.582 139.165C105.03 139.005 104.454 138.939 103.879 138.97H101.814V146.479ZM100.502 147.651V137.798H103.907C104.497 137.788 105.085 137.835 105.666 137.937C106.189 138.055 106.676 138.294 107.09 138.635C107.626 139.087 108.031 139.675 108.262 140.338C108.532 141.089 108.664 141.884 108.653 142.682C108.666 143.354 108.571 144.023 108.374 144.664C108.236 145.175 108.009 145.656 107.704 146.088C107.472 146.445 107.168 146.75 106.81 146.981C106.457 147.225 106.058 147.395 105.638 147.484C105.126 147.602 104.601 147.658 104.075 147.651H100.502Z" fill="#A2A2A2"/>
<path d="M113.232 150.47H112.31V144.692C112.058 144.939 111.777 145.155 111.473 145.334L110.496 145.809V144.915C110.982 144.693 111.433 144.401 111.836 144.05C112.163 143.777 112.438 143.446 112.645 143.073H113.232V150.47Z" fill="#A2A2A2"/>
<path d="M37.6129 145.279C37.5752 145.283 37.5369 145.279 37.501 145.266C37.4651 145.254 37.4325 145.234 37.4056 145.207C37.3787 145.18 37.3583 145.147 37.3459 145.111C37.3334 145.075 37.3293 145.037 37.3338 144.999V117.365C37.3336 117.33 37.3408 117.294 37.3552 117.262C37.3695 117.23 37.3906 117.201 37.4169 117.177C37.4433 117.153 37.4744 117.135 37.5082 117.124C37.5419 117.113 37.5777 117.11 37.6129 117.114C37.6796 117.114 37.7434 117.14 37.7905 117.187C37.8377 117.235 37.8641 117.298 37.8641 117.365V145.027C37.8681 145.063 37.8645 145.098 37.8537 145.132C37.8428 145.166 37.8249 145.197 37.8012 145.223C37.7775 145.25 37.7484 145.271 37.7159 145.285C37.6835 145.299 37.6484 145.307 37.6129 145.306" fill="#A2A2A2"/>
<path d="M178.968 145.278C178.932 145.278 178.897 145.271 178.865 145.257C178.832 145.242 178.803 145.221 178.779 145.195C178.756 145.168 178.738 145.137 178.727 145.104C178.716 145.07 178.712 145.034 178.716 144.999V117.364C178.716 117.298 178.743 117.234 178.79 117.187C178.837 117.14 178.901 117.113 178.968 117.113C179.037 117.113 179.104 117.138 179.156 117.185C179.207 117.231 179.24 117.295 179.247 117.364V145.027C179.247 145.101 179.217 145.172 179.165 145.224C179.113 145.276 179.042 145.306 178.968 145.306" fill="#A2A2A2"/>
<path d="M37.5879 141.594L47.1622 142.934V140.254L37.5879 141.594Z" fill="#A2A2A2"/>
<path d="M169.42 142.934L178.966 141.594L169.42 140.254V142.934Z" fill="#A2A2A2"/>
<path d="M237.726 87.8325V77.979H239.038V82.0265H244.146V77.979H245.458V87.8325H244.146V83.1988H239.038V87.8325H237.726Z" fill="#A2A2A2"/>
</svg>
