<svg width="197" height="301" viewBox="0 0 197 301" fill="none" xmlns="http://www.w3.org/2000/svg">
<g clip-path="url(#clip0)">
<path d="M137.269 94.0844C137.179 94.9938 136.738 95.8323 136.041 96.4231C135.343 97.0138 134.444 97.3104 133.532 97.2503H90.9946C89.7806 97.2503 88.876 96.6314 88.876 95.6555V90.6329L114.275 55.4746V48.8571L117.583 45.5483H124.01V48.1906C124.01 50.1425 126.129 50.7376 127.629 50.7376H133.532C134.48 50.8761 135.358 51.317 136.036 51.9946C136.714 52.6722 137.154 53.5504 137.293 54.4986L137.269 94.0844Z" fill="#434343"/>
<path d="M89.3532 90.7753V95.5361C89.3532 96.3216 90.1625 96.6549 90.9957 96.6549H133.533C134.324 96.7163 135.109 96.4714 135.725 95.9708C136.341 95.4702 136.741 94.7521 136.842 93.965V54.5696C136.695 53.7461 136.298 52.9876 135.707 52.396C135.115 51.8045 134.357 51.4083 133.533 51.2609H127.677C125.654 51.2609 123.607 50.3325 123.607 48.2616V45.8812H117.799L114.776 48.9281V55.498V55.617L89.3532 90.7753ZM133.533 97.7022H90.9957C89.4722 97.7022 88.4248 96.8691 88.4248 95.6551V90.4896L113.824 55.3314V48.6663L117.394 45.0957H124.535V48.1902C124.535 50.2135 127.368 50.2849 127.677 50.2849H133.533C134.603 50.4261 135.598 50.9148 136.363 51.676C137.129 52.4372 137.623 53.4288 137.77 54.4982V94.0126C137.685 95.0588 137.194 96.0303 136.403 96.7196C135.611 97.409 134.581 97.7616 133.533 97.7022Z" fill="#A2A2A2"/>
<path d="M66.1905 74.5412C65.4239 74.5904 64.6655 74.3591 64.0568 73.8905C63.448 73.4219 63.0304 72.748 62.8818 71.9942V38.4784C63.0322 37.6035 63.4693 36.8036 64.1243 36.2045C64.7794 35.6055 65.6152 35.2414 66.5 35.1697H97.3022C97.5631 35.1521 97.8247 35.1906 98.0694 35.2824C98.3142 35.3743 98.5365 35.5175 98.7214 35.7024C98.9063 35.8873 99.0495 36.1095 99.1414 36.3543C99.2333 36.5991 99.2717 36.8607 99.2541 37.1216V40.597L73.2603 74.5412H66.1905Z" fill="#434343"/>
<path d="M66.5011 35.6456C65.7439 35.7213 65.0306 36.037 64.4654 36.5465C63.9002 37.0561 63.5125 37.7329 63.359 38.4783V71.9941C63.359 72.9463 64.6682 74.0889 66.1916 74.0889H73.0233L98.7791 40.4302V37.1215C98.8019 36.9221 98.7794 36.7202 98.7133 36.5308C98.6472 36.3414 98.5392 36.1693 98.3973 36.0274C98.2554 35.8856 98.0834 35.7775 97.894 35.7114C97.7045 35.6453 97.5026 35.6228 97.3033 35.6456H66.5011ZM73.4756 75.0172H66.1916C65.3038 75.059 64.4314 74.7747 63.7387 74.2179C63.0459 73.6611 62.5807 72.8702 62.4307 71.9941V38.4783C62.584 37.4835 63.0699 36.5701 63.8091 35.8871C64.5484 35.204 65.4973 34.7917 66.5011 34.7173H97.3033C97.9346 34.7173 98.5401 34.9681 98.9865 35.4145C99.4329 35.8609 99.6837 36.4664 99.6837 37.0977V40.7159L73.4756 75.0172Z" fill="#A2A2A2"/>
<path d="M133.222 44.0479H127.199V48.0945H133.222V44.0479Z" fill="#434343"/>
<path d="M127.556 47.7614H132.864V44.3812H127.556V47.7614ZM133.554 48.4517H126.842V43.6909H133.531L133.554 48.4517Z" fill="#A2A2A2"/>
<path d="M127.202 37.2879H110.825C108.58 37.1897 106.38 37.9372 104.659 39.3826C103.683 40.3586 74.238 78.3733 73.2621 79.3493C72.5868 80.2958 72.128 81.3792 71.9182 82.5229C71.7084 83.6665 71.7528 84.8422 72.0481 85.9668C72.4231 87.2937 72.8761 88.5972 73.4049 89.8706H77.0231C77.0231 89.8706 75.8091 85.6811 75.6663 84.7766C75.5235 83.872 75.214 82.2058 76.1186 81.4678C77.0231 80.7299 106.468 43.3817 107.206 42.6914C108.187 41.9083 109.432 41.5332 110.682 41.644C111.729 41.7868 127.202 41.644 127.202 41.644V37.2879Z" fill="#434343"/>
<path d="M73.6415 89.5372H76.5456C76.2361 88.4184 75.4506 85.562 75.3078 84.7764C75.165 83.9909 74.8555 82.0152 75.8791 81.1582C76.4742 80.6346 87.3525 66.8759 95.2792 56.9973C102.42 48.1423 106.657 42.715 106.967 42.4056C108.017 41.5354 109.369 41.1161 110.728 41.2392C111.513 41.2392 121.416 41.2392 126.843 41.2392V37.621H110.823C108.664 37.5328 106.55 38.2544 104.896 39.6443C104.444 40.0966 96.6836 50.0466 89.1854 59.6396C81.3778 69.6134 74.0224 79.1349 73.4987 79.611C72.8707 80.5116 72.4455 81.5376 72.2524 82.6184C72.0592 83.6992 72.1027 84.8091 72.3799 85.8714C72.7379 87.114 73.159 88.3375 73.6415 89.5372ZM77.474 90.2275H73.1892V90.0133C72.6522 88.7243 72.1912 87.4049 71.8086 86.0619C71.4919 84.8807 71.4429 83.6436 71.6652 82.4411C71.8876 81.2386 72.3757 80.1009 73.094 79.1111C73.5701 78.635 81.2825 68.7802 88.7332 59.2349C96.5884 49.1659 104.015 39.6443 104.515 39.1444C106.291 37.6199 108.58 36.8284 110.918 36.9307H127.581V41.9771H127.224C126.605 41.9771 111.704 42.1437 110.561 41.9771C109.423 41.8812 108.292 42.2216 107.395 42.9293C107.086 43.2387 101.587 50.0704 95.7553 57.4734C84.6627 71.3987 76.7122 81.2773 76.26 81.7295C75.8077 82.1818 75.7838 83.8481 75.9267 84.6574C76.0695 85.4667 77.2597 89.7514 77.2835 89.7752L77.474 90.2275Z" fill="#A2A2A2"/>
<path d="M127.556 41.644H126.865V44.0482H127.556V41.644Z" fill="#A2A2A2"/>
<path d="M133.531 44.048H132.841V38.3351C132.841 37.621 132.841 37.621 132.436 37.621H127.176V36.9307H132.436C133.151 36.9307 133.531 37.1687 133.531 38.3351V44.048Z" fill="#A2A2A2"/>
<path d="M137.746 94.084H136.817V150.88H137.746V94.084Z" fill="#A2A2A2"/>
<path d="M89.5192 96.0356H88.5908V150.88H89.5192V96.0356Z" fill="#A2A2A2"/>
<path d="M77.3534 89.8706H76.6631V150.88H77.3534V89.8706Z" fill="#A2A2A2"/>
<path d="M73.7596 89.8706H73.0693V150.737H73.7596V89.8706Z" fill="#A2A2A2"/>
<path d="M63.359 71.9937H62.4307V150.737H63.359V71.9937Z" fill="#A2A2A2"/>
<path d="M72.2606 83.4199H71.5703V151.047H72.2606V83.4199Z" fill="#A2A2A2"/>
<path d="M73.6638 74.541H72.8545V79.3494H73.6638V74.541Z" fill="#A2A2A2"/>
<path d="M137.269 207.676C137.179 206.762 136.735 205.92 136.032 205.328C135.33 204.737 134.424 204.443 133.508 204.51H90.9946C89.7806 204.51 88.876 205.129 88.876 206.081V211.127L114.275 246.286V252.903L117.583 256.212H124.01V253.498C124.01 251.546 126.129 250.951 127.629 250.951H133.532C134.479 250.809 135.355 250.367 136.032 249.69C136.709 249.013 137.151 248.137 137.293 247.19L137.269 207.676Z" fill="#434343"/>
<path d="M117.775 255.76H123.583V253.522C123.583 251.451 125.631 250.523 127.654 250.523H133.533C134.357 250.375 135.116 249.979 135.707 249.388C136.299 248.796 136.695 248.038 136.842 247.214V207.676C136.746 206.886 136.348 206.165 135.731 205.663C135.114 205.161 134.326 204.919 133.533 204.986H90.996C90.1628 204.986 89.3535 205.319 89.3535 206.081V210.985L114.752 246.143V252.713L117.775 255.76ZM124.512 256.688H117.371L113.8 253.117V246.476L88.4014 211.294V206.105C88.4014 204.915 89.4487 204.081 90.9722 204.081H133.533C134.568 204.021 135.585 204.365 136.371 205.04C137.157 205.715 137.65 206.668 137.747 207.7V247.214C137.605 248.282 137.115 249.273 136.353 250.034C135.592 250.796 134.601 251.285 133.533 251.427H127.678C127.368 251.427 124.536 251.427 124.536 253.522L124.512 256.688Z" fill="#A2A2A2"/>
<path d="M66.1905 227.219C65.4216 227.176 64.663 227.412 64.0549 227.885C63.4467 228.357 63.0301 229.034 62.8818 229.79V263.306C63.0331 264.178 63.4711 264.975 64.1265 265.57C64.7819 266.165 65.6172 266.524 66.5 266.59H97.3022C97.564 266.612 97.8274 266.576 98.074 266.486C98.3207 266.396 98.5446 266.252 98.7304 266.067C98.9161 265.881 99.0592 265.657 99.1497 265.41C99.2401 265.164 99.2758 264.9 99.2541 264.639V261.187L73.2603 227.219H66.1905Z" fill="#434343"/>
<path d="M66.1916 227.695C64.6682 227.695 63.359 228.838 63.359 229.79V263.306C63.5125 264.051 63.9002 264.728 64.4654 265.237C65.0306 265.747 65.7439 266.063 66.5011 266.138H97.3033C97.5039 266.157 97.7061 266.131 97.8954 266.062C98.0847 265.993 98.2563 265.883 98.3976 265.739C98.5389 265.596 98.6464 265.422 98.7124 265.232C98.7784 265.042 98.8012 264.839 98.7791 264.639V261.354L73.0233 227.695H66.1916ZM97.3033 267.186H66.5011C65.4973 267.111 64.5484 266.699 63.8091 266.016C63.0699 265.333 62.584 264.419 62.4307 263.425V229.79C62.5807 228.914 63.0459 228.123 63.7387 227.566C64.4314 227.009 65.3038 226.725 66.1916 226.767H73.4756L99.6599 261.044V264.639C99.6599 265.27 99.4091 265.875 98.9627 266.322C98.5163 266.768 97.9108 267.019 97.2795 267.019" fill="#A2A2A2"/>
<path d="M133.222 253.688H127.199V257.759H133.222V253.688Z" fill="#434343"/>
<path d="M127.556 257.402H132.864V254.022H127.556V257.402ZM133.554 258.092H126.842V253.332H133.531L133.554 258.092Z" fill="#A2A2A2"/>
<path d="M127.198 264.496H110.821C108.576 264.594 106.376 263.847 104.656 262.401C103.68 261.425 74.2343 223.41 73.2583 222.434C72.5815 221.489 72.1218 220.405 71.9119 219.261C71.7021 218.117 71.7473 216.941 72.0444 215.817C72.4193 214.49 72.8723 213.186 73.4011 211.913H77.0194C77.0194 211.913 75.8053 216.103 75.6625 217.007C75.5197 217.912 75.2102 219.578 76.1148 220.316C77.0193 221.054 106.465 258.402 107.203 259.092C108.177 259.887 109.427 260.263 110.678 260.14C111.725 259.997 127.198 260.14 127.198 260.14V264.496Z" fill="#434343"/>
<path d="M73.64 212.246C73.1575 213.446 72.7364 214.669 72.3783 215.912C72.1012 216.974 72.0576 218.084 72.2508 219.165C72.4439 220.246 72.8691 221.272 73.4971 222.172C73.997 222.672 81.4238 232.194 89.2791 242.263C96.7297 251.784 104.442 261.663 104.894 262.139C106.549 263.529 108.663 264.251 110.822 264.162H126.842V260.497C121.414 260.497 111.512 260.378 110.726 260.497C110.055 260.566 109.376 260.501 108.731 260.305C108.085 260.108 107.485 259.785 106.965 259.354C106.656 259.045 102.324 253.593 95.2539 244.715C87.3272 234.765 76.4726 221.125 75.8775 220.601C74.854 219.744 75.1396 217.983 75.3063 217.031C75.4729 216.079 76.2346 213.389 76.544 212.27L73.64 212.246ZM127.556 264.805H110.893C108.555 264.907 106.265 264.116 104.49 262.591C103.99 262.091 96.6107 252.641 88.803 242.644C81.3048 233.122 73.5448 223.101 73.0687 222.625C72.3504 221.635 71.8622 220.497 71.6399 219.295C71.4175 218.092 71.4665 216.855 71.7833 215.674C72.1608 214.329 72.6219 213.01 73.1639 211.723V211.508H77.4486L77.3296 211.961C77.3296 211.961 76.1156 216.15 75.9728 217.031C75.8299 217.912 75.5681 219.411 76.306 220.006C77.0439 220.601 84.685 230.313 95.7776 244.215C101.61 251.546 107.132 258.497 107.441 258.783C108.322 259.504 109.449 259.854 110.584 259.759C111.655 259.592 126.556 259.759 127.246 259.759H127.603L127.556 264.805Z" fill="#A2A2A2"/>
<path d="M127.556 257.735H126.865V260.14H127.556V257.735Z" fill="#A2A2A2"/>
<path d="M132.46 264.805H127.199V264.115H132.46C132.817 264.115 132.865 264.115 132.865 263.401V257.664H133.531V263.377C133.531 264.543 133.15 264.781 132.436 264.781" fill="#A2A2A2"/>
<path d="M137.746 150.879H136.817V207.675H137.746V150.879Z" fill="#A2A2A2"/>
<path d="M89.5192 150.879H88.5908V205.723H89.5192V150.879Z" fill="#A2A2A2"/>
<path d="M77.3534 150.879H76.6631V211.889H77.3534V150.879Z" fill="#A2A2A2"/>
<path d="M73.7596 151.046H73.0693V211.913H73.7596V151.046Z" fill="#A2A2A2"/>
<path d="M63.359 151.046H62.4307V229.79H63.359V151.046Z" fill="#A2A2A2"/>
<path d="M72.2606 150.737H71.5703V218.364H72.2606V150.737Z" fill="#A2A2A2"/>
<path d="M73.6638 222.41H72.8545V227.219H73.6638V222.41Z" fill="#A2A2A2"/>
<path d="M98.3481 40.5961C88.3116 50.5727 79.8516 62.0185 73.2588 74.5404C76.3771 77.6825 87.2793 89.0132 88.8741 90.6318C101.186 83.5545 112.41 74.7352 122.2 64.4476C122.795 63.8525 122.866 63.6383 122.2 62.9479L99.205 40.5723C98.6099 39.9534 98.7528 40.4057 98.3005 40.5723" fill="#D3D3D3"/>
<path d="M73.8301 74.3741C75.7344 76.3022 79.8049 80.5154 83.3517 84.2527L88.8979 89.9656C101.06 82.9504 112.154 74.2289 121.842 64.067C122.104 63.7813 122.176 63.6861 122.176 63.6385C122.176 63.5909 122.176 63.5195 121.842 63.21L98.8479 40.8106L98.6099 40.9534C88.7013 50.7712 80.3457 62.0406 73.8301 74.3741ZM88.8027 91.0368L88.5409 90.7987L82.7566 84.8239C78.9717 80.9201 74.7108 76.4926 72.9256 74.7073L72.6875 74.4693L72.8541 74.1598C79.4429 61.5812 87.9292 50.0922 98.0148 40.0965L98.2052 39.9775C98.7289 39.4538 99.205 39.9775 99.4668 40.1917C99.7287 40.4059 122.223 62.3531 122.438 62.5673C123.366 63.4957 123.175 64.0194 122.438 64.7335C112.603 75.0304 101.33 83.8498 88.9693 90.9177L88.8027 91.0368Z" fill="#A2A2A2"/>
<path d="M98.3481 261.187C88.3065 251.205 79.8461 239.751 73.2588 227.218C76.3771 224.1 87.2793 212.77 88.8741 211.151C101.181 218.235 112.405 227.053 122.2 237.335C122.795 237.954 122.866 238.168 122.2 238.859L99.205 261.234C98.6099 261.829 98.7528 261.401 98.3005 261.234" fill="#D3D3D3"/>
<path d="M98.6084 260.806L98.8464 260.949C99.4415 260.33 120.936 239.525 121.841 238.549C122.15 238.24 122.174 238.121 122.174 238.121C122.174 238.121 122.174 237.978 121.841 237.693C112.153 227.531 101.058 218.809 88.8964 211.794L83.3263 217.531C79.7082 221.268 75.6615 225.457 73.8048 227.385C80.323 239.739 88.6781 251.031 98.5846 260.877L98.6084 260.806ZM98.7989 262.02C98.7028 262.022 98.6075 262.001 98.5208 261.96C98.434 261.919 98.3581 261.858 98.299 261.782H98.1085C88.0287 251.781 79.543 240.293 72.9478 227.719L72.7812 227.409L73.0192 227.171C74.8045 225.362 79.0655 220.958 82.8265 217.078L88.6346 211.08L88.8964 210.842L89.2059 211.008C101.567 218.076 112.84 226.896 122.674 237.193C123.388 237.907 123.579 238.43 122.674 239.335C122.436 239.573 100.251 261.139 99.6796 261.734C99.4877 261.967 99.2161 262.12 98.9178 262.163" fill="#A2A2A2"/>
<path d="M133.58 48.0947H132.89V50.8084H133.58V48.0947Z" fill="#A2A2A2"/>
<path d="M133.58 250.975H132.89V253.689H133.58V250.975Z" fill="#A2A2A2"/>
<path d="M166.023 198.559C165.947 198.559 165.875 198.529 165.821 198.475C165.767 198.422 165.737 198.349 165.737 198.273V172.089C165.737 172.013 165.767 171.94 165.821 171.887C165.875 171.833 165.947 171.803 166.023 171.803C166.099 171.803 166.171 171.833 166.225 171.887C166.279 171.94 166.309 172.013 166.309 172.089V198.273C166.309 198.349 166.279 198.422 166.225 198.475C166.171 198.529 166.099 198.559 166.023 198.559Z" fill="#A2A2A2"/>
<path d="M166.023 154.165C165.985 154.165 165.948 154.157 165.914 154.143C165.879 154.129 165.848 154.107 165.821 154.081C165.794 154.054 165.773 154.023 165.759 153.988C165.745 153.954 165.737 153.916 165.737 153.879V104.224C165.737 104.148 165.767 104.076 165.821 104.022C165.875 103.969 165.947 103.938 166.023 103.938C166.099 103.938 166.171 103.969 166.225 104.022C166.279 104.076 166.309 104.148 166.309 104.224V153.879C166.309 153.955 166.279 154.027 166.225 154.081C166.171 154.135 166.099 154.165 166.023 154.165Z" fill="#A2A2A2"/>
<path d="M164.573 107.628L166.025 97.2021L167.501 107.628H164.573Z" fill="#A2A2A2"/>
<path d="M167.501 194.155L166.049 204.581L164.573 194.155H167.501Z" fill="#A2A2A2"/>
<path d="M163.978 164.234C163.913 165.026 164.142 165.813 164.621 166.448C164.789 166.674 165.008 166.859 165.26 166.987C165.512 167.115 165.79 167.183 166.073 167.185C166.357 167.186 166.637 167.121 166.893 166.998C167.148 166.874 167.372 166.694 167.549 166.471C167.986 165.855 168.197 165.107 168.144 164.353C168.22 163.512 168.001 162.67 167.525 161.972C167.346 161.745 167.119 161.56 166.859 161.433C166.599 161.305 166.314 161.237 166.025 161.235C165.744 161.233 165.467 161.296 165.215 161.42C164.963 161.544 164.743 161.725 164.573 161.949C164.13 162.607 163.92 163.395 163.978 164.186V164.234ZM168.12 168.042V167.209C167.896 167.578 167.577 167.879 167.195 168.081C166.814 168.282 166.384 168.376 165.954 168.352C165.354 168.351 164.767 168.178 164.264 167.852C163.746 167.491 163.335 166.998 163.073 166.424C162.774 165.767 162.627 165.051 162.645 164.329C162.645 163.614 162.774 162.904 163.026 162.234C163.256 161.66 163.654 161.169 164.168 160.825C164.682 160.481 165.288 160.3 165.906 160.306C166.336 160.299 166.761 160.397 167.144 160.592C167.496 160.769 167.799 161.031 168.025 161.354V157.545H169.239V168.185L168.12 168.042Z" fill="#A2A2A2"/>
<path d="M169.499 97.4878H139.125C139.05 97.4878 138.977 97.4577 138.923 97.4041C138.87 97.3506 138.84 97.2779 138.84 97.2021C138.84 97.1264 138.87 97.0537 138.923 97.0002C138.977 96.9466 139.05 96.9165 139.125 96.9165H169.499C169.575 96.9165 169.648 96.9466 169.701 97.0002C169.755 97.0537 169.785 97.1264 169.785 97.2021C169.785 97.2779 169.755 97.3506 169.701 97.4041C169.648 97.4577 169.575 97.4878 169.499 97.4878Z" fill="#A2A2A2"/>
<path d="M169.5 204.867H139.126C139.051 204.867 138.978 204.836 138.924 204.783C138.871 204.729 138.841 204.657 138.841 204.581C138.838 204.541 138.842 204.502 138.855 204.464C138.868 204.427 138.889 204.392 138.916 204.363C138.942 204.334 138.975 204.311 139.011 204.295C139.048 204.279 139.087 204.271 139.126 204.271H169.5C169.54 204.271 169.579 204.279 169.615 204.295C169.652 204.311 169.684 204.334 169.711 204.363C169.738 204.392 169.758 204.427 169.771 204.464C169.784 204.502 169.789 204.541 169.786 204.581C169.786 204.657 169.756 204.729 169.702 204.783C169.649 204.836 169.576 204.867 169.5 204.867Z" fill="#A2A2A2"/>
<path d="M189.449 244.738C189.409 244.738 189.37 244.73 189.334 244.714C189.297 244.699 189.265 244.675 189.238 244.646C189.211 244.617 189.19 244.583 189.178 244.545C189.165 244.508 189.16 244.468 189.163 244.429V172.184C189.163 172.108 189.193 172.036 189.247 171.982C189.3 171.929 189.373 171.898 189.449 171.898C189.524 171.898 189.597 171.929 189.651 171.982C189.704 172.036 189.734 172.108 189.734 172.184V244.429C189.738 244.468 189.733 244.508 189.72 244.545C189.707 244.583 189.686 244.617 189.66 244.646C189.633 244.675 189.6 244.699 189.564 244.714C189.528 244.73 189.488 244.738 189.449 244.738Z" fill="#A2A2A2"/>
<path d="M189.448 154.165C189.41 154.165 189.373 154.157 189.338 154.143C189.304 154.129 189.272 154.108 189.246 154.081C189.219 154.054 189.198 154.023 189.184 153.988C189.169 153.954 189.162 153.917 189.162 153.879V57.7114C189.162 57.6357 189.192 57.563 189.246 57.5094C189.299 57.4559 189.372 57.4258 189.448 57.4258C189.524 57.4258 189.596 57.4559 189.65 57.5094C189.703 57.563 189.733 57.6357 189.733 57.7114V153.879C189.733 153.955 189.703 154.027 189.65 154.081C189.596 154.135 189.524 154.165 189.448 154.165Z" fill="#A2A2A2"/>
<path d="M187.996 61.0917L189.448 50.6895L190.924 61.0917H187.996Z" fill="#A2A2A2"/>
<path d="M190.924 240.334L189.448 250.737L187.996 240.334H190.924Z" fill="#A2A2A2"/>
<path d="M186.257 164.091C186.199 164.882 186.427 165.667 186.9 166.305C187.072 166.527 187.292 166.709 187.543 166.837C187.794 166.964 188.07 167.034 188.352 167.042C188.632 167.044 188.91 166.981 189.162 166.857C189.414 166.733 189.634 166.552 189.804 166.328C190.265 165.714 190.485 164.952 190.423 164.186C190.501 163.345 190.282 162.502 189.804 161.806C189.629 161.574 189.402 161.386 189.142 161.258C188.881 161.13 188.594 161.065 188.304 161.068C188.023 161.066 187.746 161.129 187.494 161.253C187.242 161.377 187.022 161.558 186.852 161.782C186.409 162.44 186.199 163.228 186.257 164.019V164.091ZM190.399 167.852V166.876C190.178 167.249 189.86 167.555 189.478 167.761C189.096 167.966 188.666 168.063 188.233 168.042C187.63 168.037 187.042 167.855 186.543 167.518C186.026 167.167 185.615 166.681 185.352 166.114C185.058 165.456 184.912 164.741 184.924 164.019C184.91 163.303 185.039 162.59 185.305 161.925C185.552 161.348 185.969 160.862 186.501 160.53C187.033 160.198 187.654 160.037 188.28 160.068C188.71 160.061 189.135 160.159 189.518 160.354C189.87 160.531 190.173 160.792 190.399 161.115V157.307H191.708V167.923L190.399 167.852Z" fill="#A2A2A2"/>
<path d="M196.824 170.542H195.848V164.305C195.566 164.569 195.254 164.801 194.92 164.996C194.589 165.182 194.247 165.349 193.896 165.496V164.543C194.41 164.296 194.89 163.984 195.325 163.615C195.681 163.32 195.972 162.956 196.182 162.544H196.824V170.542Z" fill="#A2A2A2"/>
<path d="M193.42 50.9751H137.504C137.429 50.9751 137.356 50.945 137.302 50.8914C137.249 50.8379 137.219 50.7652 137.219 50.6895C137.219 50.6137 137.249 50.541 137.302 50.4875C137.356 50.4339 137.429 50.4038 137.504 50.4038H193.42C193.495 50.4038 193.568 50.4339 193.622 50.4875C193.675 50.541 193.705 50.6137 193.705 50.6895C193.705 50.7652 193.675 50.8379 193.622 50.8914C193.568 50.945 193.495 50.9751 193.42 50.9751Z" fill="#A2A2A2"/>
<path d="M193.42 251.047H138.671C138.632 251.047 138.593 251.039 138.556 251.023C138.52 251.007 138.487 250.984 138.461 250.955C138.434 250.926 138.413 250.891 138.4 250.854C138.387 250.816 138.382 250.777 138.386 250.737C138.386 250.662 138.416 250.589 138.469 250.535C138.523 250.482 138.596 250.452 138.671 250.452H193.42C193.494 250.457 193.564 250.489 193.616 250.541C193.669 250.594 193.7 250.663 193.706 250.737C193.706 250.815 193.677 250.891 193.624 250.948C193.571 251.005 193.498 251.041 193.42 251.047Z" fill="#A2A2A2"/>
<path d="M94.1109 295.512H69.9975C69.9218 295.512 69.8492 295.482 69.7956 295.429C69.742 295.375 69.7119 295.302 69.7119 295.227C69.7119 295.151 69.742 295.078 69.7956 295.025C69.8492 294.971 69.9218 294.941 69.9975 294.941H94.1109C94.1866 294.941 94.2593 294.971 94.3128 295.025C94.3664 295.078 94.3965 295.151 94.3965 295.227C94.3965 295.302 94.3664 295.375 94.3128 295.429C94.2593 295.482 94.1866 295.512 94.1109 295.512Z" fill="#A2A2A2"/>
<path d="M130.293 295.512H108.274C108.198 295.512 108.126 295.482 108.072 295.429C108.018 295.375 107.988 295.302 107.988 295.227C107.988 295.151 108.018 295.078 108.072 295.025C108.126 294.971 108.198 294.941 108.274 294.941H130.293C130.368 294.941 130.441 294.971 130.495 295.025C130.548 295.078 130.578 295.151 130.578 295.227C130.578 295.302 130.548 295.375 130.495 295.429C130.441 295.482 130.368 295.512 130.293 295.512Z" fill="#A2A2A2"/>
<path d="M126.892 293.774L137.318 295.226L126.892 296.702V293.774Z" fill="#A2A2A2"/>
<path d="M73.4017 296.702L62.9756 295.226L73.4017 293.774V296.702Z" fill="#A2A2A2"/>
<path d="M96.8027 300.582V289.966H98.2072V294.322H103.73V289.966H105.134V300.582H103.73V295.584H98.2072V300.582H96.8027Z" fill="#A2A2A2"/>
<path d="M137.293 298.987C137.256 298.987 137.219 298.98 137.184 298.966C137.15 298.951 137.118 298.93 137.091 298.904C137.065 298.877 137.044 298.846 137.03 298.811C137.015 298.776 137.008 298.739 137.008 298.702V252.094C137.008 252.018 137.038 251.945 137.091 251.892C137.145 251.838 137.218 251.808 137.293 251.808C137.369 251.808 137.442 251.838 137.495 251.892C137.549 251.945 137.579 252.018 137.579 252.094V298.702C137.579 298.739 137.572 298.776 137.557 298.811C137.543 298.846 137.522 298.877 137.495 298.904C137.469 298.93 137.437 298.951 137.403 298.966C137.368 298.98 137.331 298.987 137.293 298.987Z" fill="#A2A2A2"/>
<path d="M62.977 298.987C62.9395 298.987 62.9024 298.98 62.8678 298.966C62.8331 298.951 62.8016 298.93 62.7751 298.904C62.7486 298.877 62.7276 298.846 62.7132 298.811C62.6988 298.776 62.6914 298.739 62.6914 298.702V267.638C62.6914 267.562 62.7215 267.489 62.7751 267.436C62.8287 267.382 62.9013 267.352 62.977 267.352C63.051 267.358 63.1205 267.389 63.173 267.442C63.2254 267.494 63.2572 267.564 63.2627 267.638V298.702C63.2627 298.739 63.2553 298.776 63.241 298.811C63.2266 298.846 63.2056 298.877 63.1791 298.904C63.1525 298.93 63.121 298.951 63.0864 298.966C63.0517 298.98 63.0146 298.987 62.977 298.987Z" fill="#A2A2A2"/>
<path d="M27.0809 221.482C26.9989 221.482 26.9202 221.449 26.8621 221.391C26.8041 221.333 26.7715 221.255 26.7715 221.173V160.568C26.7713 160.528 26.7795 160.489 26.7953 160.453C26.8111 160.416 26.8343 160.384 26.8634 160.357C26.8925 160.33 26.9268 160.31 26.9643 160.297C27.0017 160.284 27.0415 160.279 27.0809 160.282C27.1185 160.282 27.1556 160.29 27.1903 160.304C27.2249 160.318 27.2564 160.339 27.2829 160.366C27.3094 160.392 27.3305 160.424 27.3449 160.459C27.3592 160.493 27.3666 160.53 27.3666 160.568V221.173C27.3668 221.251 27.3375 221.326 27.2846 221.383C27.2316 221.441 27.1588 221.476 27.0809 221.482Z" fill="#A2A2A2"/>
<path d="M27.0809 140.549C26.9989 140.549 26.9202 140.516 26.8621 140.458C26.8041 140.4 26.7715 140.322 26.7715 140.239V81.6582C26.7775 81.5803 26.8127 81.5076 26.8701 81.4546C26.9275 81.4016 27.0028 81.3723 27.0809 81.3726C27.1549 81.3781 27.2244 81.4099 27.2768 81.4623C27.3292 81.5148 27.3611 81.5843 27.3666 81.6582V140.239C27.3668 140.318 27.3375 140.393 27.2846 140.45C27.2316 140.508 27.1588 140.543 27.0809 140.549Z" fill="#A2A2A2"/>
<path d="M25.6279 85.0623L27.08 74.6362L28.532 85.0623H25.6279Z" fill="#A2A2A2"/>
<path d="M28.532 217.078L27.08 227.48L25.6279 217.078H28.532Z" fill="#A2A2A2"/>
<path d="M24.5822 154.165H26.9625C27.5167 154.19 28.0713 154.126 28.605 153.974C28.9637 153.876 29.2914 153.687 29.5571 153.427C29.9158 153.047 30.1843 152.592 30.3426 152.094C30.5372 151.43 30.6256 150.739 30.6045 150.047C30.6669 149.155 30.4771 148.264 30.057 147.476C29.7735 146.938 29.3102 146.517 28.7478 146.286C28.1544 146.105 27.5348 146.024 26.9149 146.048H24.6773L24.5822 154.165ZM23.1777 155.426V144.81H26.8435C27.4735 144.793 28.1037 144.841 28.724 144.953C29.3005 145.079 29.8389 145.34 30.2951 145.714C30.8584 146.204 31.2919 146.826 31.5567 147.524C31.8353 148.343 31.9721 149.205 31.9613 150.071C31.9697 150.795 31.8735 151.516 31.6757 152.213C31.5147 152.761 31.2741 153.282 30.9616 153.76C30.6982 154.135 30.3672 154.458 29.9856 154.712C29.5987 154.964 29.1723 155.149 28.724 155.26C28.161 155.381 27.5859 155.437 27.0101 155.426H23.1777Z" fill="#A2A2A2"/>
<path d="M36.9106 158.045H35.9347V151.808C35.6518 152.072 35.3404 152.304 35.0063 152.499C34.6695 152.69 34.3196 152.857 33.959 152.999V152.046C34.483 151.805 34.9715 151.492 35.411 151.118C35.7668 150.823 36.0585 150.459 36.268 150.047H36.9106V158.045Z" fill="#A2A2A2"/>
<path d="M61.0485 74.9457H23.5337C23.4579 74.9457 23.3853 74.9156 23.3317 74.862C23.2781 74.8084 23.2481 74.7358 23.2481 74.6601C23.2448 74.6206 23.2497 74.5809 23.2625 74.5434C23.2754 74.506 23.296 74.4716 23.3228 74.4425C23.3497 74.4134 23.3823 74.3902 23.4186 74.3744C23.4549 74.3586 23.4941 74.3504 23.5337 74.3506H61.0485C61.1264 74.3566 61.1992 74.3918 61.2522 74.4492C61.3051 74.5066 61.3345 74.5819 61.3342 74.6601C61.3287 74.734 61.2969 74.8035 61.2445 74.8559C61.192 74.9083 61.1225 74.9402 61.0485 74.9457Z" fill="#A2A2A2"/>
<path d="M61.0485 227.767H23.5337C23.4579 227.767 23.3852 227.737 23.3317 227.683C23.2781 227.629 23.248 227.557 23.248 227.481C23.248 227.405 23.2781 227.333 23.3317 227.279C23.3852 227.225 23.4579 227.195 23.5337 227.195H61.0485C61.1243 227.195 61.197 227.225 61.2505 227.279C61.3041 227.333 61.3342 227.405 61.3342 227.481C61.3342 227.557 61.3041 227.629 61.2505 227.683C61.197 227.737 61.1243 227.767 61.0485 227.767Z" fill="#A2A2A2"/>
<path d="M3.68122 260.64C3.60546 260.64 3.53276 260.61 3.47919 260.556C3.42562 260.502 3.39551 260.43 3.39551 260.354V159.116C3.39551 159.04 3.42562 158.968 3.47919 158.914C3.53276 158.861 3.60546 158.831 3.68122 158.831C3.75697 158.831 3.8296 158.861 3.88316 158.914C3.93673 158.968 3.96685 159.04 3.96685 159.116V260.354C3.96685 260.43 3.93673 260.502 3.88316 260.556C3.8296 260.61 3.75697 260.64 3.68122 260.64Z" fill="#A2A2A2"/>
<path d="M3.68122 141.025C3.6437 141.025 3.60654 141.018 3.57189 141.004C3.53723 140.989 3.50572 140.968 3.47919 140.942C3.45267 140.915 3.43166 140.884 3.4173 140.849C3.40295 140.814 3.39551 140.777 3.39551 140.74V42.144C3.39551 42.0683 3.42562 41.9956 3.47919 41.9421C3.53276 41.8885 3.60546 41.8584 3.68122 41.8584C3.75697 41.8584 3.8296 41.8885 3.88316 41.9421C3.93673 41.9956 3.96685 42.0683 3.96685 42.144V140.692C3.96685 140.768 3.93673 140.84 3.88316 140.894C3.8296 140.948 3.75697 140.978 3.68122 140.978" fill="#A2A2A2"/>
<path d="M2.22852 45.5239L3.70435 35.1216L5.15639 45.5239H2.22852Z" fill="#A2A2A2"/>
<path d="M5.15639 256.259L3.70435 266.662L2.22852 256.259H5.15639Z" fill="#A2A2A2"/>
<path d="M1.42004 154.165H3.68144C4.2356 154.19 4.7902 154.126 5.32391 153.974C5.68265 153.876 6.01033 153.687 6.27605 153.427C6.63473 153.047 6.9032 152.591 7.06155 152.094C7.26457 151.431 7.36098 150.74 7.34718 150.047C7.39498 149.156 7.20612 148.269 6.79974 147.476C6.50105 146.941 6.0317 146.522 5.46673 146.286C4.87377 146.103 4.25385 146.022 3.63379 146.048H1.42004V154.165ZM0.015625 155.426V144.81H3.65761C4.29556 144.793 4.93351 144.841 5.56189 144.953C6.12939 145.084 6.65894 145.345 7.1092 145.714C7.68039 146.197 8.11534 146.821 8.3708 147.523C8.66725 148.339 8.81243 149.202 8.79925 150.07C8.80766 150.795 8.71147 151.516 8.51362 152.213C8.35512 152.766 8.10575 153.289 7.77571 153.76C7.51442 154.129 7.19241 154.451 6.82349 154.712C6.42579 154.96 5.99226 155.144 5.53814 155.26C4.98341 155.382 4.41599 155.438 3.84801 155.426H0.015625Z" fill="#A2A2A2"/>
<path d="M61.3095 35.4072H0.371572C0.295814 35.4072 0.223192 35.3771 0.169623 35.3236C0.116054 35.27 0.0859375 35.1973 0.0859375 35.1216C0.0859375 35.0458 0.116054 34.9732 0.169623 34.9196C0.223192 34.866 0.295814 34.8359 0.371572 34.8359H61.3095C61.3852 34.8359 61.4578 34.866 61.5114 34.9196C61.565 34.9732 61.5951 35.0458 61.5951 35.1216C61.5951 35.1973 61.565 35.27 61.5114 35.3236C61.4578 35.3771 61.3852 35.4072 61.3095 35.4072Z" fill="#A2A2A2"/>
<path d="M61.7379 266.947H0.371572C0.295814 266.947 0.223192 266.917 0.169623 266.864C0.116054 266.81 0.0859375 266.737 0.0859375 266.662C0.0859375 266.586 0.116054 266.513 0.169623 266.46C0.223192 266.406 0.295814 266.376 0.371572 266.376H61.7379C61.8137 266.376 61.8864 266.406 61.9399 266.46C61.9935 266.513 62.0235 266.586 62.0235 266.662C62.0235 266.737 61.9935 266.81 61.9399 266.864C61.8864 266.917 61.8137 266.947 61.7379 266.947Z" fill="#A2A2A2"/>
<path d="M114.989 6.93799H103.778C103.702 6.93799 103.629 6.9079 103.576 6.85433C103.522 6.80076 103.492 6.7281 103.492 6.65234C103.492 6.57658 103.522 6.50394 103.576 6.45037C103.629 6.3968 103.702 6.3667 103.778 6.3667H114.989C115.065 6.3667 115.138 6.3968 115.191 6.45037C115.245 6.50394 115.275 6.57658 115.275 6.65234C115.275 6.7281 115.245 6.80076 115.191 6.85433C115.138 6.9079 115.065 6.93799 114.989 6.93799Z" fill="#A2A2A2"/>
<path d="M59.7387 6.69971H48.1938C48.1181 6.69971 48.0455 6.66961 47.9919 6.61604C47.9383 6.56247 47.9082 6.48982 47.9082 6.41406C47.9082 6.3383 47.9383 6.26565 47.9919 6.21208C48.0455 6.15851 48.1181 6.12842 48.1938 6.12842H59.7387C59.8145 6.12842 59.8871 6.15851 59.9407 6.21208C59.9942 6.26565 60.0244 6.3383 60.0244 6.41406C60.0189 6.488 59.987 6.5575 59.9346 6.60993C59.8821 6.66235 59.8127 6.69421 59.7387 6.69971Z" fill="#A2A2A2"/>
<path d="M52.7422 4.93848L63.1445 6.41432L52.7422 7.86635V4.93848Z" fill="#A2A2A2"/>
<path d="M109.989 8.12795L99.5869 6.65211L109.989 5.17627V8.12795Z" fill="#A2A2A2"/>
<path d="M85.4247 7.72334L86.8291 8.0566C86.6057 9.09 86.0445 10.0196 85.2342 10.6988C84.4359 11.3283 83.4416 11.6569 82.4254 11.6272C81.4396 11.6675 80.4634 11.4193 79.6166 10.9131C78.8768 10.4266 78.3101 9.71828 77.9979 8.88974C77.6132 7.98695 77.4187 7.01457 77.4266 6.03327C77.4026 5.03512 77.6233 4.04626 78.0693 3.15301C78.4635 2.35424 79.0955 1.69726 79.8784 1.2725C80.6644 0.837325 81.5509 0.61573 82.4492 0.629796C83.4032 0.595035 84.3415 0.879879 85.1152 1.43913C85.882 2.03353 86.42 2.87432 86.6387 3.81951L85.2581 4.15277C85.0931 3.48842 84.7172 2.89544 84.1869 2.46269C83.675 2.09556 83.0547 1.91112 82.4254 1.93901C81.7001 1.91099 80.9843 2.11077 80.3783 2.5103C79.8345 2.89886 79.4265 3.44841 79.2119 4.08136C78.7204 5.51628 78.7204 7.07396 79.2119 8.50888C79.4371 9.13064 79.8647 9.65874 80.4259 10.0085C80.9726 10.3357 81.5979 10.5084 82.235 10.5084C82.9626 10.5245 83.6718 10.2796 84.2345 9.81809C84.8242 9.29841 85.2189 8.59302 85.3533 7.81856" fill="#A2A2A2"/>
<path d="M99.3485 33.6455C99.2704 33.6457 99.1951 33.6164 99.1377 33.5634C99.0803 33.5104 99.0451 33.4377 99.0391 33.3598V4.36672C99.0389 4.32711 99.047 4.28792 99.0628 4.25161C99.0786 4.21531 99.1019 4.18269 99.131 4.15583C99.1601 4.12897 99.1944 4.10845 99.2319 4.09558C99.2693 4.08271 99.3091 4.07777 99.3485 4.08107C99.4243 4.08107 99.4969 4.11116 99.5505 4.16473C99.6041 4.2183 99.6342 4.29096 99.6342 4.36672V33.3598C99.6287 33.4338 99.5968 33.5033 99.5444 33.5557C99.492 33.6081 99.4225 33.64 99.3485 33.6455Z" fill="#A2A2A2"/>
<path d="M63.144 33.6459C63.0683 33.6459 62.9957 33.6158 62.9421 33.5623C62.8885 33.5087 62.8584 33.436 62.8584 33.3603V4.36719C62.8584 4.29143 62.8885 4.21877 62.9421 4.1652C62.9957 4.11163 63.0683 4.08154 63.144 4.08154C63.2198 4.08154 63.2925 4.11163 63.3461 4.1652C63.3996 4.21877 63.4297 4.29143 63.4297 4.36719V33.3603C63.4297 33.436 63.3996 33.5087 63.3461 33.5623C63.2925 33.6158 63.2198 33.6459 63.144 33.6459Z" fill="#A2A2A2"/>
<path d="M105.444 124.1H96.2319C96.1562 124.1 96.0835 124.07 96.03 124.016C95.9764 123.963 95.9463 123.89 95.9463 123.814C95.9463 123.739 95.9764 123.666 96.03 123.612C96.0835 123.559 96.1562 123.529 96.2319 123.529H105.444C105.52 123.529 105.592 123.559 105.646 123.612C105.7 123.666 105.73 123.739 105.73 123.814C105.73 123.89 105.7 123.963 105.646 124.016C105.592 124.07 105.52 124.1 105.444 124.1Z" fill="#A2A2A2"/>
<path d="M130.294 124.1H120.083C120.007 124.1 119.934 124.07 119.88 124.016C119.827 123.963 119.797 123.89 119.797 123.814C119.797 123.739 119.827 123.666 119.88 123.612C119.934 123.559 120.007 123.529 120.083 123.529H130.294C130.37 123.529 130.443 123.559 130.496 123.612C130.55 123.666 130.58 123.739 130.58 123.814C130.58 123.89 130.55 123.963 130.496 124.016C130.443 124.07 130.37 124.1 130.294 124.1Z" fill="#A2A2A2"/>
<path d="M126.892 122.339L137.318 123.815L126.892 125.267V122.339Z" fill="#A2A2A2"/>
<path d="M99.636 125.267L89.21 123.815L99.636 122.339V125.267Z" fill="#A2A2A2"/>
<path d="M110.443 128.409H113.085C113.401 128.44 113.72 128.44 114.037 128.409C114.325 128.376 114.602 128.279 114.846 128.123C115.075 127.973 115.263 127.768 115.394 127.528C115.54 127.258 115.614 126.954 115.608 126.647C115.611 126.275 115.503 125.911 115.299 125.6C115.084 125.31 114.785 125.093 114.442 124.981C113.937 124.849 113.415 124.793 112.894 124.814H110.514L110.443 128.409ZM110.443 123.505H112.823C113.274 123.556 113.729 123.556 114.18 123.505C114.495 123.414 114.777 123.232 114.989 122.981C115.159 122.702 115.249 122.381 115.249 122.053C115.249 121.726 115.159 121.404 114.989 121.125C114.827 120.855 114.574 120.652 114.275 120.553C113.744 120.436 113.2 120.388 112.656 120.411H110.538L110.443 123.505ZM109.038 129.67V119.054H113.013C113.678 119.024 114.342 119.129 114.965 119.363C115.449 119.567 115.856 119.917 116.132 120.363C116.391 120.786 116.531 121.271 116.536 121.767C116.542 122.221 116.418 122.667 116.179 123.053C115.905 123.47 115.517 123.801 115.06 124.005C115.647 124.158 116.166 124.501 116.536 124.981C116.891 125.445 117.076 126.016 117.06 126.6C117.054 127.076 116.949 127.547 116.751 127.98C116.574 128.366 116.304 128.701 115.965 128.956C115.619 129.218 115.221 129.404 114.799 129.504C114.236 129.628 113.661 129.684 113.085 129.67H109.038Z" fill="#A2A2A2"/>
</g>
<defs>
<clipPath id="clip0">
<rect width="196.81" height="300" fill="white" transform="translate(0.015625 0.582031)"/>
</clipPath>
</defs>
</svg>
