<svg width="697" height="452" viewBox="0 0 697 452" fill="none" xmlns="http://www.w3.org/2000/svg">
<ellipse opacity="0.4" cx="226" cy="226" rx="226" ry="226" transform="rotate(90 226 226)" fill="url(#paint0_linear)"/>
<g opacity="0.6">
<path d="M150.251 175V276.352H131.429V190.782H110V175H150.251Z" fill="white"/>
<path d="M202.065 214.238C216.351 214.238 226.921 217.037 233.774 222.636C240.627 228.137 244.054 235.667 244.054 245.223C244.054 251.304 242.558 256.806 239.566 261.728C236.573 266.651 232.085 270.561 226.1 273.456C220.116 276.352 212.731 277.8 203.948 277.8C196.708 277.8 189.71 276.787 182.953 274.759C176.196 272.636 170.501 269.74 165.868 266.072L173.831 251.448C177.596 254.537 182.084 256.999 187.297 258.833C192.606 260.57 198.059 261.439 203.658 261.439C210.318 261.439 215.531 260.088 219.295 257.385C223.156 254.586 225.087 250.773 225.087 245.947C225.087 240.734 223.011 236.825 218.861 234.219C214.807 231.516 207.809 230.165 197.866 230.165H173.397L178.61 175H238.118V190.782H194.536L192.364 214.238H202.065Z" fill="white"/>
<path d="M389.328 175V276.352H370.795V190.927H330.833L329.965 216.265C329.482 230.454 328.324 241.989 326.49 250.869C324.656 259.653 321.712 266.362 317.658 270.995C313.604 275.532 308.005 277.8 300.862 277.8C298.353 277.8 294.926 277.317 290.582 276.352L291.885 259.991C293.14 260.377 294.588 260.57 296.229 260.57C302.117 260.57 306.268 257.095 308.681 250.145C311.19 243.099 312.735 232.047 313.314 216.989L314.762 175H389.328Z" fill="white"/>
<path d="M493.854 260.57V276.352H417.84V175H491.827V190.782H436.663V217.134H485.601V232.626H436.663V260.57H493.854Z" fill="white"/>
<path d="M588.39 190.927H554.799V276.352H536.121V190.927H502.675V175H588.39V190.927Z" fill="white"/>
</g>
<defs>
<linearGradient id="paint0_linear" x1="61.8732" y1="38.4265" x2="280.058" y2="283.314" gradientUnits="userSpaceOnUse">
<stop stop-color="#EF7B05"/>
<stop offset="0.807292" stop-color="#834403"/>
</linearGradient>
</defs>
</svg>
