<svg width="133" height="133" viewBox="0 0 133 133" fill="none" xmlns="http://www.w3.org/2000/svg">
<circle cx="66.5" cy="66.5" r="65.5" stroke="white" stroke-width="2"/>
<path d="M53.9185 67.0815C53.528 66.691 53.528 66.0578 53.9185 65.6673L66.0931 53.4927L66.2929 53.2929C66.4804 53.1054 66.7348 53 67 53C67.2652 53 67.5196 53.1054 67.7071 53.2929L67.9087 53.4945L67.9088 53.4945L80.0815 65.6673C80.269 65.8548 80.3744 66.1092 80.3744 66.3744C80.3744 66.6396 80.269 66.8939 80.0815 67.0815L79.2823 67.8806C78.8918 68.2712 78.2586 68.2712 77.8681 67.8806L68.4712 58.4837L68.5651 78.1789C68.5663 78.4457 68.4609 78.702 68.2722 78.8907C68.0836 79.0794 67.8273 79.1849 67.5605 79.1836L66.425 79.1784C65.8764 79.1759 65.4323 78.7318 65.4297 78.1832L65.3367 58.6906L56.1393 67.888C55.9518 68.0756 55.6974 68.1809 55.4322 68.1809C55.167 68.1809 54.9126 68.0756 54.7251 67.888L53.9185 67.0815Z" fill="white" stroke="white" stroke-width="2" stroke-linejoin="round"/>
</svg>
