<svg width="125" height="124" viewBox="0 0 125 124" fill="none" xmlns="http://www.w3.org/2000/svg">
<path fill-rule="evenodd" clip-rule="evenodd" d="M62.4785 9.84127C33.672 9.84127 10.3198 33.1935 10.3198 62C10.3198 90.8065 33.672 114.159 62.4785 114.159C91.285 114.159 114.637 90.8065 114.637 62C114.637 33.1935 91.285 9.84127 62.4785 9.84127ZM0.478516 62C0.478516 27.7583 28.2369 0 62.4785 0C96.7202 0 124.479 27.7583 124.479 62C124.479 96.2417 96.7202 124 62.4785 124C28.2369 124 0.478516 96.2417 0.478516 62Z" fill="white"/>
<path d="M30.6306 71.4247L38.0553 44.2861H48.0915L35.5463 81.5633H25.715L13.2722 44.2861L14.2563 38.381L18.1928 34.4444L30.6306 71.4247Z" fill="white"/>
<path d="M87.0553 51.2244H68.1979V81.5633H59.2115V51.2244H45.7565L48.0915 44.2861H87.0553V51.2244Z" fill="white"/>
<path d="M96.0418 74.6506H113.653L111.685 81.5633H87.0553V44.2861H96.0418V74.6506Z" fill="white"/>
</svg>
