<svg width="250" height="72" viewBox="0 0 250 72" fill="none" xmlns="http://www.w3.org/2000/svg">
<path d="M23.6388 32.3222C23.675 31.623 23.5412 30.9255 23.2487 30.2894C22.9563 29.6534 22.5139 29.0979 21.9597 28.6706C20.0848 27.4905 18.0437 26.5985 15.9043 26.0245C13.5238 25.2994 11.2103 24.3698 8.98964 23.246C4.36221 20.7146 2.04849 17.3276 2.04849 13.085C2.03322 10.9623 2.70585 8.89193 3.96557 7.18411C5.31475 5.36562 7.14715 3.96284 9.25407 3.13555C11.7361 2.1354 14.3924 1.64063 17.0678 1.68019C19.7485 1.63211 22.4069 2.17412 24.8551 3.26786C27.0071 4.21848 28.8422 5.76565 30.1436 7.72657C31.4187 9.69378 32.077 11.9975 32.0342 14.3419H23.6652C23.7104 13.5283 23.575 12.7149 23.2686 11.96C22.9623 11.2051 22.4927 10.5275 21.8936 9.97577C20.4911 8.86974 18.7311 8.31875 16.9488 8.42779C15.2518 8.3334 13.5707 8.79813 12.1627 9.75084C11.6188 10.1416 11.178 10.6589 10.8786 11.2583C10.5791 11.8576 10.43 12.5209 10.444 13.1908C10.4645 13.8725 10.6602 14.5374 11.0122 15.1214C11.3642 15.7054 11.8606 16.1888 12.4536 16.5249C14.2871 17.6351 16.2677 18.4814 18.3371 19.0387C23.1231 20.4764 26.6047 22.2405 28.7818 24.3309C29.8472 25.3553 30.6887 26.5897 31.253 27.9561C31.8174 29.3225 32.0924 30.7911 32.0607 32.2693C32.129 33.8713 31.803 35.4657 31.1114 36.9121C30.4198 38.3586 29.3837 39.6129 28.0943 40.5649C24.9295 42.7239 21.144 43.7837 17.319 43.5815C14.3743 43.6154 11.4554 43.0294 8.75166 41.8615C6.38223 40.8778 4.34157 39.2396 2.86821 37.1382C1.47878 35.0916 0.753925 32.666 0.792477 30.1921H9.25407C9.25407 34.6905 11.8983 36.9397 17.319 36.9397C18.9544 37.023 20.5754 36.5978 21.9597 35.7225C22.5009 35.341 22.938 34.83 23.2313 34.236C23.5246 33.6421 23.6647 32.9842 23.6388 32.3222Z" fill="#C6C6C6"/>
<path d="M43.2073 43.0259H35.0894V12.7146H43.2073V43.0259ZM34.6135 4.86891C34.5955 4.31304 34.6946 3.75962 34.9041 3.24451C35.1137 2.7294 35.429 2.26411 35.8298 1.87879C36.7362 1.0615 37.9299 0.637943 39.1483 0.701272C40.3625 0.640036 41.5513 1.06355 42.4536 1.87879C42.8473 2.26756 43.1553 2.73441 43.3579 3.24935C43.5606 3.76429 43.6533 4.31595 43.6303 4.86891C43.663 5.43595 43.5737 6.00341 43.3684 6.53294C43.1631 7.06248 42.8467 7.54176 42.4404 7.93841C41.5391 8.7466 40.3573 9.16931 39.1483 9.11593C37.943 9.17153 36.7645 8.7483 35.8695 7.93841C35.4564 7.55213 35.1307 7.08196 34.9141 6.55942C34.6974 6.03687 34.595 5.47402 34.6135 4.9086" fill="#C6C6C6"/>
<path d="M97.4928 18.6815C96.7639 18.6557 96.0381 18.7877 95.3649 19.0686C94.6918 19.3494 94.0872 19.7725 93.5925 20.3088C92.4945 21.6348 91.8258 23.2638 91.6755 24.9792H102.927V24.3309C102.985 22.8078 102.466 21.3188 101.472 20.1633C100.952 19.6522 100.33 19.2562 99.6464 19.001C98.9632 18.7457 98.234 18.6369 97.506 18.6815H97.4928ZM98.4315 43.5815C96.4429 43.6612 94.4586 43.3404 92.5963 42.6381C90.734 41.9359 89.0316 40.8664 87.5901 39.4932C86.1769 38.0643 85.0749 36.3578 84.3536 34.4814C83.6322 32.6051 83.3072 30.5995 83.399 28.5912V27.7841C83.3517 24.9626 83.958 22.1685 85.1706 19.6209C86.258 17.323 87.9957 15.3954 90.1682 14.0772C92.3968 12.7617 94.9455 12.0886 97.5325 12.1323C99.3536 12.042 101.173 12.3503 102.862 13.0358C104.552 13.7214 106.072 14.7676 107.316 16.1015C109.696 18.7476 110.886 22.4566 110.886 27.2284V30.5229H91.5961C91.7699 32.3486 92.6129 34.0453 93.9627 35.2859C95.3353 36.4937 97.1211 37.1242 98.9471 37.0455C100.349 37.1079 101.745 36.8314 103.018 36.2395C104.291 35.6477 105.402 34.7579 106.258 33.6453L110.225 38.104C108.959 39.8389 107.258 41.2082 105.293 42.0732C103.132 43.0562 100.779 43.5487 98.4051 43.5153" fill="#C6C6C6"/>
<path d="M130.216 20.3085C129.253 20.1645 128.281 20.0894 127.307 20.0836C124.24 20.0836 122.244 21.1156 121.292 23.1928V43.0387H113.2V12.7142H120.842L121.067 16.3261C121.687 15.0684 122.648 14.0106 123.84 13.2737C125.033 12.5367 126.408 12.1502 127.81 12.1585C128.66 12.1517 129.507 12.2721 130.322 12.5157L130.216 20.3085Z" fill="#C6C6C6"/>
<path d="M70.7051 33.1295L76.3373 12.7147H84.7857L74.5789 43.026H66.8445L56.6377 12.7147H65.0861L70.7051 33.1295Z" fill="#C6C6C6"/>
<path d="M55.4753 -0.000244141H47.3574V43.0256H55.4753V-0.000244141Z" fill="#C6C6C6"/>
<path d="M140.344 25.2571V36.2649H147.537C149.199 36.3686 150.843 35.8656 152.164 34.8492C152.72 34.3686 153.16 33.7671 153.448 33.0907C153.737 32.4143 153.868 31.6808 153.83 30.9462C153.83 27.2152 151.9 25.3188 148.039 25.2571H140.344ZM140.344 19.3298H146.558C150.789 19.2504 152.904 17.5569 152.904 14.2492C152.971 13.5069 152.859 12.7596 152.578 12.0692C152.298 11.3789 151.856 10.7655 151.291 10.28C149.771 9.34468 147.993 8.91833 146.214 9.06282H140.344V19.3298ZM131.936 43.0258V2.23584H146.214C151.159 2.23584 154.91 3.18403 157.466 5.08042C158.741 6.04667 159.758 7.31301 160.427 8.76705C161.096 10.2211 161.396 11.8179 161.3 13.4157C161.337 15.2946 160.802 17.1404 159.766 18.7079C158.719 20.2404 157.222 21.41 155.483 22.0553C157.445 22.5 159.19 23.6188 160.414 25.2174C161.652 26.9055 162.289 28.9594 162.225 31.0521C162.335 32.7263 162.053 34.4029 161.401 35.9487C160.749 37.4945 159.746 38.8667 158.471 39.9563C155.976 41.9673 152.415 42.9949 147.788 43.039L131.936 43.0258Z" fill="white"/>
<path d="M178.17 18.6813C177.441 18.6546 176.715 18.7862 176.041 19.0671C175.368 19.3481 174.764 19.7716 174.269 20.3086C173.166 21.6315 172.497 23.2622 172.352 24.979H183.59V24.3307C183.661 22.8058 183.14 21.3124 182.136 20.1631C181.617 19.6493 180.996 19.2515 180.312 18.996C179.628 18.7406 178.898 18.6333 178.17 18.6813ZM179.095 43.5812C177.105 43.6613 175.118 43.3407 173.254 42.6384C171.389 41.9362 169.684 40.8666 168.241 39.493C166.83 38.0629 165.73 36.356 165.011 34.4797C164.292 32.6033 163.969 30.5984 164.063 28.591V27.7839C164.011 24.9635 164.613 22.1694 165.821 19.6207C166.908 17.3228 168.646 15.3952 170.819 14.077C173.051 12.7598 175.605 12.0866 178.196 12.1321C180.017 12.0435 181.835 12.3527 183.525 13.0381C185.214 13.7236 186.735 14.7688 187.98 16.1013C190.36 18.7474 191.55 22.4564 191.55 27.2282V30.5227H172.26C172.44 32.3467 173.282 34.0413 174.626 35.2857C176.004 36.4943 177.794 37.1247 179.624 37.0453C181.024 37.1088 182.419 36.8328 183.69 36.2408C184.96 35.6488 186.069 34.7583 186.922 33.6451L190.889 38.1038C189.625 39.8355 187.929 41.2044 185.97 42.073C183.808 43.0547 181.456 43.5472 179.082 43.5151" fill="white"/>
<path d="M204.346 37.3894C205.496 37.4013 206.632 37.1286 207.651 36.5955C208.598 36.1222 209.381 35.3756 209.899 34.4522V29.2393H206.871C202.826 29.2393 200.67 30.6418 200.406 33.4466V33.9229C200.394 34.3892 200.482 34.8526 200.665 35.2817C200.847 35.7109 201.12 36.0957 201.464 36.4103C202.273 37.0953 203.314 37.4454 204.372 37.3894H204.346ZM211.062 43.0256C210.656 42.1635 210.384 41.2444 210.256 40.3001C209.301 41.3744 208.121 42.2253 206.8 42.7923C205.479 43.3594 204.05 43.6287 202.614 43.5813C199.912 43.6858 197.269 42.7696 195.21 41.0145C194.271 40.2169 193.522 39.22 193.017 38.0963C192.511 36.9726 192.263 35.7503 192.288 34.5183C192.216 33.0849 192.505 31.6563 193.129 30.364C193.753 29.0716 194.691 27.9569 195.858 27.1224C198.238 25.4024 201.675 24.5425 206.171 24.4763H209.899V22.7696C209.958 21.5547 209.572 20.36 208.815 19.409C208.378 18.9593 207.846 18.613 207.258 18.3955C206.67 18.1781 206.041 18.0949 205.417 18.1521C204.267 18.079 203.13 18.427 202.217 19.1311C201.836 19.4553 201.533 19.8619 201.331 20.3203C201.13 20.7787 201.035 21.2768 201.054 21.7773H193.029C193.029 20.0208 193.599 18.3119 194.655 16.9084C195.828 15.3318 197.416 14.1131 199.243 13.3891C201.334 12.5036 203.583 12.0534 205.853 12.066C209.057 11.8913 212.214 12.8882 214.738 14.8709C215.848 15.8607 216.719 17.0891 217.287 18.4639C217.855 19.8386 218.104 21.3242 218.017 22.8093V35.9472C217.913 38.1906 218.329 40.4276 219.233 42.4831V42.9594L211.062 43.0256Z" fill="white"/>
<path d="M238.655 20.3088C237.692 20.1648 236.72 20.0897 235.747 20.0839C232.679 20.0839 230.683 21.1159 229.731 23.1931V43.039H221.64V12.7144H229.282L229.506 16.3264C230.128 15.0697 231.089 14.0128 232.281 13.276C233.473 12.5392 234.848 12.1521 236.249 12.1588C237.104 12.1531 237.955 12.2734 238.774 12.516L238.655 20.3088Z" fill="white"/>
<path d="M248.559 4.04863L247.303 8.0178H246.496L245.253 4.04863V8.0178H243.799V1.90527H245.584L246.906 6.05968L248.321 1.90527H250V8.0178H248.559V4.04863ZM243.006 3.12249H241.551V7.93842H239.952V3.12249H238.418V1.90527H243.006V3.12249Z" fill="white"/>
<path d="M217.596 67.7273C217.061 68.3398 216.372 68.7968 215.599 69.0503C214.676 69.3665 213.706 69.5231 212.73 69.5134C211.719 69.5348 210.72 69.2883 209.835 68.7989C208.994 68.3092 208.321 67.5757 207.905 66.6953C207.429 65.6869 207.194 64.5818 207.217 63.467V62.607C207.19 61.4717 207.406 60.3438 207.852 59.2994C208.242 58.4198 208.886 57.6777 209.703 57.1692C210.561 56.6586 211.547 56.4017 212.545 56.4283C213.817 56.3467 215.075 56.7273 216.089 57.5C216.985 58.3109 217.526 59.4419 217.596 60.6489H215.044C214.98 60.0428 214.709 59.4773 214.277 59.048C213.802 58.6922 213.217 58.5143 212.625 58.5452C212.228 58.5236 211.832 58.6047 211.475 58.7809C211.118 58.957 210.813 59.2222 210.589 59.5507C210.065 60.4568 209.817 61.4959 209.875 62.5409V63.3612C209.804 64.4226 210.073 65.4791 210.641 66.3777C210.894 66.7284 211.228 67.0118 211.616 67.2032C212.003 67.3947 212.431 67.4883 212.863 67.4759C213.619 67.5486 214.375 67.3205 214.965 66.8408V64.5784H212.572V62.6467H217.583L217.596 67.7273Z" fill="white"/>
<path d="M190.319 56.6003H187.701V69.3414H190.319V56.6003Z" fill="white"/>
<path d="M204.189 69.3414H201.571L196.455 60.9532V69.3414H193.837V56.6003H196.455L201.571 65.0018V56.6003H204.189V69.3414Z" fill="white"/>
<path d="M177.759 62.5541H179.874C180.431 62.5889 180.979 62.409 181.408 62.0514C181.582 61.8782 181.719 61.6719 181.812 61.4447C181.905 61.2175 181.952 60.9739 181.95 60.7283C181.964 60.4696 181.926 60.2107 181.838 59.9673C181.749 59.7239 181.612 59.5011 181.434 59.3126C181.221 59.1268 180.974 58.9855 180.706 58.8969C180.438 58.8082 180.155 58.7742 179.874 58.7966H177.759V62.5541ZM179.847 64.671H177.759V69.3414H175.114V56.6004H179.847C181.089 56.5158 182.32 56.8719 183.325 57.6059C183.735 57.9527 184.058 58.3904 184.269 58.8842C184.48 59.378 184.573 59.9143 184.541 60.4505C184.596 61.2097 184.404 61.9663 183.994 62.6076C183.584 63.2489 182.979 63.7406 182.267 64.0095L185.096 69.2223V69.3414H182.28L179.847 64.671Z" fill="white"/>
<path d="M158.06 63.8242H153.009V67.2377H158.933V69.3414H150.392V56.6003H158.906V58.7305H153.009V61.7603H158.06V63.8242Z" fill="white"/>
<path d="M165.265 64.5916H168.452L166.852 59.8154L165.265 64.5916ZM169.232 66.7218H164.631L163.758 69.3679H160.955L165.702 56.6268H168.134L172.907 69.3679H170.117L169.232 66.7218Z" fill="white"/>
<path d="M140.541 63.7975V67.2375H142.788C143.307 67.2663 143.819 67.1065 144.229 66.7876C144.406 66.6398 144.546 66.4529 144.638 66.2416C144.729 66.0303 144.771 65.8005 144.758 65.5704C144.787 65.3272 144.76 65.0806 144.678 64.8497C144.596 64.6188 144.463 64.4096 144.288 64.2384C144.113 64.0671 143.901 63.9383 143.669 63.8619C143.436 63.7855 143.189 63.7634 142.947 63.7975H140.541ZM140.541 61.932H142.484C143.806 61.932 144.467 61.3895 144.467 60.3575C144.487 60.1234 144.452 59.8877 144.365 59.6695C144.278 59.4513 144.141 59.2565 143.965 59.1006C143.488 58.8131 142.933 58.6835 142.378 58.7302H140.541V61.932ZM137.896 69.3411V56.6001H142.352C143.589 56.513 144.821 56.8236 145.869 57.4865C146.273 57.7929 146.595 58.1953 146.805 58.6572C147.015 59.1192 147.107 59.6263 147.072 60.1326C147.08 60.7167 146.91 61.2892 146.583 61.7732C146.265 62.257 145.802 62.6276 145.261 62.8317C145.873 62.9707 146.42 63.3164 146.808 63.8107C147.187 64.3423 147.382 64.9836 147.363 65.6366C147.4 66.1586 147.315 66.6821 147.113 67.1648C146.91 67.6475 146.598 68.0757 146.199 68.415C145.225 69.1055 144.046 69.4459 142.854 69.3808L137.896 69.3411Z" fill="white"/>
<path d="M117.563 58.7305H113.663V69.3414H111.032V58.7305H107.185V56.6003H117.563V58.7305Z" fill="white"/>
<path d="M124.981 62.3424L127.638 56.6003H130.507L126.33 64.7239V69.3414H123.659V64.7239L119.468 56.6003H122.35L124.981 62.3424Z" fill="white"/>
<path d="M81.3635 64.5916H84.616L83.0162 59.8154L81.3635 64.5916ZM85.2506 66.7218H80.6496L79.777 69.3679H76.9873L81.7337 56.6268H84.1664L88.9261 69.3679H86.1364L85.2506 66.7218Z" fill="white"/>
<path d="M93.8688 67.2377H99.4482V69.3414H91.251V56.6003H93.8688V67.2377Z" fill="white"/>
<path d="M104.634 56.6003H102.017V69.3414H104.634V56.6003Z" fill="white"/>
<path d="M59.9572 62.6863C60.0245 61.6195 59.7762 60.5564 59.2432 59.6301C59.0056 59.3124 58.6973 59.0546 58.3427 58.877C57.9881 58.6994 57.597 58.6069 57.2005 58.6069C56.804 58.6069 56.413 58.6994 56.0584 58.877C55.7038 59.0546 55.3955 59.3124 55.1579 59.6301C54.6197 60.5403 54.3664 61.591 54.4307 62.6466V63.2685C54.3678 64.3265 54.616 65.3798 55.1446 66.2983C55.3749 66.6285 55.6815 66.8983 56.0383 67.0845C56.395 67.2707 56.7915 67.368 57.1939 67.368C57.5963 67.368 57.9928 67.2707 58.3496 67.0845C58.7064 66.8983 59.013 66.6285 59.2432 66.2983C59.7768 65.3866 60.0254 64.336 59.9572 63.2817V62.6863ZM62.6014 63.2552C62.6269 64.3197 62.4334 65.378 62.0329 66.3644C61.675 67.1907 61.1214 67.9173 60.4199 68.4813L62.5617 70.1219L60.8827 71.6037L58.2384 69.4207C57.9196 69.475 57.5967 69.5016 57.2733 69.5001C56.2653 69.5463 55.2653 69.303 54.391 68.7989C53.5493 68.2743 52.8786 67.5157 52.4607 66.6158C51.9908 65.6008 51.7558 64.4928 51.7732 63.3743V62.7392C51.749 61.6002 51.9793 60.4701 52.4475 59.4316C52.8563 58.5265 53.5233 57.7624 54.3646 57.2353C55.223 56.7331 56.1995 56.4684 57.1939 56.4684C58.1883 56.4684 59.1648 56.7331 60.0233 57.2353C60.8683 57.7581 61.5363 58.5234 61.9403 59.4316C62.407 60.4659 62.6374 61.5914 62.6146 62.726L62.6014 63.2552Z" fill="white"/>
<path d="M75.2812 56.6003V64.9885C75.3115 65.6026 75.2091 66.216 74.981 66.7868C74.7528 67.3576 74.4042 67.8725 73.959 68.2962C72.9736 69.1529 71.6924 69.5898 70.3893 69.5134C69.1013 69.5882 67.8335 69.1669 66.846 68.3359C66.4067 67.9217 66.0613 67.418 65.8332 66.8588C65.6052 66.2996 65.4997 65.6979 65.5239 65.0944V56.6003H68.1682V65.015C68.1374 65.3428 68.1731 65.6735 68.273 65.9873C68.373 66.301 68.5352 66.5913 68.7499 66.8408C69.2107 67.239 69.8078 67.4429 70.4158 67.4097C71.8833 67.4097 72.6369 66.6291 72.6501 65.0811V56.6003H75.2812Z" fill="white"/>
<path d="M43.6301 69.3414H41.0123V63.8772H35.8957V69.3414H33.2646V56.6003H35.8957V61.7603H41.0123V56.6003H43.6301V69.3414Z" fill="white"/>
<path d="M30.012 67.7274C29.4749 68.337 28.7861 68.7935 28.0156 69.0505C27.0922 69.3657 26.1222 69.5223 25.1466 69.5135C24.131 69.5366 23.1274 69.2901 22.2379 68.7991C21.4006 68.3085 20.732 67.5749 20.3208 66.6954C19.8528 65.6981 19.6134 64.6087 19.6201 63.5069V62.6469C19.5889 61.5099 19.8101 60.3802 20.2679 59.3392C20.6535 58.457 21.2994 57.7137 22.1189 57.2091C22.9775 56.6985 23.963 56.4416 24.9615 56.4682C26.2322 56.3937 27.488 56.7735 28.5048 57.5399C29.3951 58.355 29.9353 59.4836 30.012 60.6887H27.4603C27.3929 60.0809 27.1173 59.5152 26.6802 59.0878C26.2112 58.7299 25.6297 58.5516 25.0408 58.5851C24.6483 58.5563 24.2551 58.6288 23.8986 58.7956C23.5421 58.9624 23.2344 59.2179 23.0047 59.5377C22.4695 60.439 22.2205 61.4817 22.2908 62.5278V63.3481C22.2162 64.4081 22.4801 65.4644 23.0444 66.3647C23.3053 66.705 23.6451 66.9768 24.0343 67.1566C24.4235 67.3364 24.8506 67.4188 25.2788 67.3966C26.0399 67.4715 26.7999 67.2433 27.3942 66.7616V64.5785H25.0011V62.6469H30.012V67.7274Z" fill="white"/>
<path d="M10.3654 69.3414H7.74764V63.8772H2.63103V69.3414H0V56.6003H2.63103V61.7603H7.74764V56.6003H10.3654V69.3414Z" fill="white"/>
<path d="M16.4996 56.6003H13.8818V69.3414H16.4996V56.6003Z" fill="white"/>
</svg>
