<svg width="124" height="124" viewBox="0 0 124 124" fill="none" xmlns="http://www.w3.org/2000/svg">
<g opacity="0.6">
<path fill-rule="evenodd" clip-rule="evenodd" d="M62 9.84127C33.1935 9.84127 9.84127 33.1935 9.84127 62C9.84127 90.8065 33.1935 114.159 62 114.159C90.8065 114.159 114.159 90.8065 114.159 62C114.159 33.1935 90.8065 9.84127 62 9.84127ZM0 62C0 27.7583 27.7583 0 62 0C96.2417 0 124 27.7583 124 62C124 96.2417 96.2417 124 62 124C27.7583 124 0 96.2417 0 62Z" fill="white"/>
<path d="M30.1521 71.4247L37.5768 44.2861H47.613L35.0678 81.5633H25.2364L12.7937 44.2861L13.7778 38.381L17.7143 34.4444L30.1521 71.4247Z" fill="white"/>
<path d="M86.5768 51.2244H67.7194V81.5633H58.733V51.2244H45.278L47.613 44.2861H86.5768V51.2244Z" fill="white"/>
<path d="M95.5633 74.6506H113.175L111.206 81.5633H86.5768V44.2861H95.5633V74.6506Z" fill="white"/>
</g>
</svg>
