<svg width="134" height="131" viewBox="0 0 134 131" fill="none" xmlns="http://www.w3.org/2000/svg">
<g clip-path="url(#clip0)">
<path d="M34.4 15.1502C33.8077 15.1287 33.2177 15.2355 32.6706 15.4633C32.1234 15.6911 31.632 16.0346 31.23 16.4702C30.3393 17.5471 29.7954 18.8684 29.67 20.2602H38.81V19.7402C38.8539 18.5008 38.429 17.2903 37.62 16.3502C37.1979 15.935 36.6929 15.6135 36.138 15.4067C35.5832 15.2 34.9909 15.1126 34.4 15.1502ZM35.15 35.3402C33.5338 35.4053 31.9211 35.143 30.4089 34.569C28.8966 33.9951 27.516 33.1213 26.35 32.0002C25.2152 30.8415 24.3319 29.4609 23.7555 27.9449C23.179 26.4289 22.9218 24.8102 23 23.1902V22.5602C22.9642 20.27 23.4534 18.0021 24.43 15.9302C25.3115 14.0695 26.7197 12.5083 28.48 11.4402C30.294 10.3655 32.372 9.81834 34.48 9.86022C35.9419 9.78759 37.4022 10.0304 38.7619 10.5722C40.1216 11.114 41.3487 11.9421 42.36 13.0002C44.29 15.1202 45.26 18.1202 45.26 22.0002V24.6802H29.61C29.7589 26.1556 30.4375 27.5269 31.52 28.5402C32.6373 29.5264 34.0908 30.0455 35.58 29.9902C36.7167 30.0421 37.8491 29.8192 38.8814 29.3405C39.9136 28.8618 40.8153 28.1414 41.51 27.2402L44.73 30.8502C43.7133 32.2761 42.3317 33.4021 40.73 34.1102C38.9747 34.9044 37.0665 35.3038 35.14 35.2802" fill="white"/>
<path d="M58.87 15.15C58.2777 15.1284 57.6877 15.2352 57.1405 15.4631C56.5934 15.6909 56.1019 16.0344 55.7 16.47C54.8092 17.5468 54.2654 18.8681 54.14 20.26H63.28V19.74C63.3289 18.4998 62.9033 17.2876 62.09 16.35C61.6678 15.9348 61.1628 15.6133 60.608 15.4065C60.0531 15.1997 59.4609 15.1123 58.87 15.15ZM59.62 35.34C58.0038 35.4051 56.3911 35.1428 54.8788 34.5688C53.3666 33.9949 51.986 33.1211 50.82 32C49.6724 30.842 48.7777 29.4584 48.1924 27.9368C47.6072 26.4151 47.3441 24.7886 47.42 23.16V22.53C47.3842 20.2398 47.8734 17.9718 48.85 15.9C49.7357 14.0389 51.1471 12.4779 52.91 11.41C54.7234 10.3338 56.8017 9.78653 58.91 9.83001C60.3807 9.75536 61.8501 10 63.2173 10.5473C64.5845 11.0945 65.8169 11.9312 66.83 13C68.76 15.12 69.73 18.12 69.73 22V24.68H54.08C54.2136 26.179 54.8976 27.5755 56 28.6C57.0994 29.5761 58.5305 30.0949 60 30.05C61.1484 30.1151 62.2954 29.8986 63.3411 29.4193C64.3868 28.94 65.2996 28.2125 66 27.3L69.22 30.91C68.2033 32.3359 66.8216 33.4619 65.22 34.17C63.465 34.9651 61.5566 35.3646 59.63 35.34" fill="white"/>
<path d="M88.58 22.35C88.6904 20.5072 88.2705 18.6715 87.37 17.06C86.9959 16.4681 86.4729 15.9848 85.8535 15.6584C85.234 15.332 84.5397 15.1739 83.84 15.2C82.976 15.1172 82.1073 15.2985 81.3485 15.7199C80.5897 16.1412 79.9765 16.7828 79.59 17.56V27.62C79.9763 28.4106 80.5928 29.0659 81.3585 29.4996C82.1242 29.9333 83.0032 30.1252 83.88 30.05C87.02 30.05 88.5867 27.4833 88.58 22.35ZM95.15 22.83C95.15 26.61 94.29 29.65 92.57 31.93C91.7735 33.03 90.718 33.9167 89.497 34.5115C88.276 35.1063 86.9272 35.3909 85.57 35.34C84.4416 35.3787 83.3185 35.1675 82.2812 34.7215C81.244 34.2755 80.3181 33.6056 79.57 32.76V44.34H73V10.34H79.09L79.32 12.75C80.066 11.8259 81.0156 11.0868 82.0947 10.5907C83.1737 10.0945 84.3529 9.85471 85.54 9.88996C86.9035 9.82791 88.2614 10.1019 89.4943 10.6878C90.7271 11.2737 91.797 12.1535 92.61 13.25C94.29 15.49 95.13 18.58 95.13 22.52L95.15 22.83Z" fill="white"/>
<path d="M6.5604 53.8499C6.43877 55.7298 6.89971 57.6015 7.8804 59.2099C8.30044 59.8132 8.86652 60.3003 9.5258 60.6255C10.1851 60.9508 10.916 61.1037 11.6504 61.0699C12.3762 61.0982 13.0976 60.9446 13.7489 60.6233C14.4003 60.302 14.9611 59.823 15.3804 59.2299C16.2671 58.0099 16.7137 56.0599 16.7204 53.3799C16.8305 51.5079 16.3627 49.6473 15.3804 48.0499C14.9627 47.4429 14.3976 46.9519 13.7382 46.6231C13.0787 46.2942 12.3466 46.1383 11.6104 46.1699C10.8846 46.134 10.1615 46.2831 9.50909 46.6032C8.85666 46.9233 8.29624 47.4039 7.8804 47.9999C7.0004 49.2532 6.5604 51.1899 6.5604 53.8099V53.8499ZM0.000404805 53.3899C-0.0401329 51.1368 0.442516 48.9049 1.4104 46.8699C2.29066 45.0239 3.70054 43.4817 5.4604 42.4399C7.32854 41.3647 9.45549 40.8217 11.6104 40.8699C13.0986 40.8134 14.5832 41.054 15.9774 41.5777C17.3715 42.1014 18.6474 42.8976 19.7304 43.9199C21.9049 46.1289 23.1594 49.0812 23.2404 52.1799V53.8699C23.4022 57.1885 22.2693 60.4403 20.0804 62.9399C18.996 64.0834 17.6785 64.9806 16.2172 65.5706C14.7559 66.1607 13.1848 66.4298 11.6104 66.3599C10.0455 66.4332 8.48291 66.1713 7.02735 65.5918C5.5718 65.0124 4.25681 64.1287 3.1704 62.9999C1.05707 60.6999 0.000404805 57.5932 0.000404805 53.6799V53.3899Z" fill="white"/>
<path d="M32.7708 41.3298L32.9708 44.1698C33.8006 43.1057 34.8696 42.2523 36.0911 41.6789C37.3126 41.1055 38.6521 40.8283 40.0008 40.8698C42.6008 40.8698 44.5375 41.6364 45.8108 43.1698C47.0808 44.6998 47.7408 46.9798 47.8108 50.0298V65.8998H41.2408V50.1898C41.3309 49.1104 41.0054 48.0373 40.3308 47.1898C39.9202 46.8386 39.4426 46.5743 38.927 46.4127C38.4114 46.2511 37.8684 46.1957 37.3308 46.2498C36.4863 46.2159 35.6491 46.419 34.914 46.836C34.1788 47.2531 33.575 47.8675 33.1708 48.6098V65.8998H26.5908V41.3298H32.7708Z" fill="white"/>
<path d="M9.95051 25.03L7.59051 27.39V34.89H1.02051V0H7.59051V19.33L8.86051 17.7L15.1505 10.31H23.0305L14.1505 20.56L23.8005 34.89H16.2605L9.95051 25.03Z" fill="white"/>
<path d="M14.83 78.4998C14.0489 78.3801 13.2602 78.3166 12.47 78.3098C9.99 78.3098 8.36333 79.1532 7.59 80.8398V96.9198H1V72.3398H7.2L7.38 75.2698C7.88546 74.2499 8.66707 73.3924 9.63587 72.7949C10.6047 72.1974 11.7218 71.8838 12.86 71.8898C13.5375 71.885 14.2118 71.9827 14.86 72.1798L14.83 78.4998Z" fill="white"/>
<path d="M22.3399 84.87C22.2231 86.7482 22.6799 88.6175 23.6499 90.23C24.0733 90.8316 24.6418 91.3166 25.3026 91.64C25.9634 91.9634 26.6951 92.1148 27.4299 92.08C28.1534 92.1095 28.8728 91.9576 29.5226 91.6379C30.1723 91.3183 30.7318 90.8412 31.1499 90.25C32.0399 89.03 32.4899 87.07 32.4899 84.39C32.6005 82.5211 32.1326 80.6635 31.1499 79.07C30.7334 78.4612 30.1688 77.9682 29.5093 77.6376C28.8498 77.307 28.117 77.1495 27.3799 77.18C26.6504 77.1485 25.925 77.3038 25.2723 77.631C24.6195 77.9582 24.0611 78.4467 23.6499 79.05C22.7799 80.31 22.3399 82.24 22.3399 84.87ZM15.7699 84.4C15.7294 82.1469 16.212 79.9151 17.1799 77.88C18.0634 76.033 19.4768 74.4908 21.2399 73.45C23.1071 72.3824 25.2296 71.8432 27.3799 71.89C28.8649 71.8252 30.3478 72.0571 31.7421 72.5723C33.1363 73.0874 34.4138 73.8753 35.4999 74.89C37.6859 77.1109 38.9383 80.0845 38.9999 83.2L39.0499 84.88C39.2234 88.2136 38.0938 91.4841 35.8999 94C34.8155 95.1436 33.498 96.0407 32.0367 96.6308C30.5754 97.2208 29.0043 97.49 27.4299 97.42C25.8522 97.4929 24.2773 97.2252 22.8123 96.635C21.3473 96.0449 20.0266 95.1462 18.9399 94C16.8266 91.7334 15.7699 88.6467 15.7699 84.74V84.4Z" fill="white"/>
<path d="M47.79 96.9199H41.21L41.24 65.8999H47.81L47.79 96.9199Z" fill="white"/>
<path d="M59.1105 62.0298H52.5205V96.9198H59.1105V62.0298Z" fill="white"/>
<path d="M70.4408 96.9201H63.8508V72.3401H70.4408V96.9201ZM63.4708 66.0001C63.4591 65.5478 63.5421 65.098 63.7143 64.6796C63.8865 64.2611 64.1441 63.8832 64.4708 63.5701C65.2323 62.9548 66.1818 62.6191 67.1608 62.6191C68.1399 62.6191 69.0893 62.9548 69.8508 63.5701C70.1785 63.8825 70.4368 64.2602 70.6091 64.6788C70.7814 65.0975 70.8637 65.5476 70.8508 66.0001C70.8691 66.4563 70.7893 66.911 70.6168 67.3337C70.4443 67.7564 70.1831 68.1371 69.8508 68.4501C69.1012 69.0704 68.1588 69.4099 67.1858 69.4099C66.2128 69.4099 65.2704 69.0704 64.5208 68.4501C64.188 68.1375 63.9264 67.7569 63.7539 67.3341C63.5813 66.9113 63.5018 66.4564 63.5208 66.0001" fill="white"/>
<path d="M81.17 72.3401L81.38 75.1801C82.2122 74.1118 83.2862 73.2564 84.5136 72.6845C85.741 72.1125 87.0868 71.8402 88.44 71.8901C91.04 71.8901 92.9767 72.6534 94.25 74.1801C95.5233 75.7067 96.19 77.9934 96.25 81.0401V96.9201H89.64V81.2001C89.7288 80.1224 89.4074 79.0509 88.74 78.2001C88.3313 77.8426 87.8556 77.5701 87.3406 77.3984C86.8255 77.2267 86.2814 77.1593 85.74 77.2001C84.8957 77.1667 84.059 77.3712 83.3253 77.7902C82.5915 78.2092 81.9903 78.8259 81.59 79.5701V96.9201H75V72.3401H81.17Z" fill="white"/>
<path d="M106.07 84.9399C105.969 86.7826 106.437 88.6119 107.41 90.1799C107.811 90.7834 108.36 91.2747 109.004 91.6072C109.647 91.9396 110.366 92.1023 111.09 92.0799C111.946 92.1453 112.802 91.969 113.562 91.5712C114.323 91.1734 114.956 90.57 115.39 89.8299V79.4799C114.962 78.745 114.337 78.1442 113.587 77.745C112.836 77.3457 111.989 77.1638 111.14 77.2199C110.407 77.1984 109.681 77.3656 109.032 77.7053C108.382 78.045 107.83 78.5458 107.43 79.1599C106.402 80.9044 105.928 82.9199 106.07 84.9399ZM99.51 84.4498C99.3528 81.1966 100.301 77.9859 102.2 75.3398C103.045 74.2246 104.145 73.3289 105.409 72.7284C106.672 72.128 108.062 71.8404 109.46 71.8899C110.652 71.8289 111.841 72.0477 112.934 72.5287C114.026 73.0097 114.99 73.7395 115.75 74.6599L116.02 72.3398H122.02V96.0999C122.071 98.07 121.565 100.015 120.56 101.71C119.576 103.303 118.142 104.57 116.44 105.35C114.48 106.216 112.353 106.639 110.21 106.59C108.4 106.586 106.608 106.223 104.94 105.52C103.427 104.942 102.089 103.981 101.06 102.73L103.97 98.7299C104.703 99.6041 105.622 100.304 106.66 100.778C107.698 101.252 108.829 101.488 109.97 101.47C111.454 101.562 112.914 101.062 114.03 100.08C114.539 99.5521 114.932 98.9235 115.184 98.2345C115.435 97.5456 115.54 96.8116 115.49 96.0799V94.8099C114.742 95.6546 113.816 96.3226 112.778 96.7653C111.74 97.2081 110.617 97.4146 109.49 97.3699C108.107 97.4054 106.736 97.1099 105.49 96.508C104.245 95.9062 103.161 95.0154 102.33 93.9099C100.497 91.5965 99.5833 88.5332 99.59 84.7199L99.51 84.4498Z" fill="white"/>
<path d="M126.42 93.6901C126.402 93.2152 126.488 92.7421 126.671 92.3035C126.854 91.8649 127.13 91.4714 127.48 91.1501C128.195 90.4837 129.143 90.1247 130.12 90.1501C131.107 90.121 132.066 90.4801 132.79 91.1501C133.14 91.4714 133.417 91.8649 133.6 92.3035C133.783 92.7421 133.868 93.2152 133.85 93.6901C133.873 94.1557 133.796 94.6208 133.623 95.0539C133.451 95.487 133.187 95.8779 132.85 96.2001C132.124 96.8735 131.16 97.2328 130.17 97.2001C129.19 97.2292 128.237 96.8698 127.52 96.2001C127.183 95.8779 126.92 95.487 126.747 95.0539C126.575 94.6208 126.497 94.1557 126.52 93.6901" fill="white"/>
<path d="M57.4507 124.19H0.760742V130.99H57.4507V124.19Z" fill="white"/>
</g>
<defs>
<clipPath id="clip0">
<rect width="133.85" height="130.99" fill="white"/>
</clipPath>
</defs>
</svg>
